version 1
nodes
0 "root" -1
end
skeleton
time 0
0 0.000000 0.000000 0.000000 0.000000 0.000000 0.000000
end
triangles
phy
0 -16.0630 -23.9370 -0.3306 0 0 1 0 1.0
0 16.0630 -23.9370 -0.3306 0 0 1 0 1.0
0 16.0630 23.9370 -0.3306 0 0 1 0 1.0
phy
0 -16.0630 -23.9370 -0.3306 0 0 1 0 1.0
0 16.0630 23.9370 -0.3306 0 0 1 0 1.0
0 -16.0630 23.9370 -0.3306 0 0 1 0 1.0
phy
0 -16.0630 -23.9370 23.6220 0 0 1 0 1.0
0 -16.0630 23.9370 23.6220 0 0 1 0 1.0
0 16.0630 23.9370 23.6220 0 0 1 0 1.0
phy
0 -16.0630 -23.9370 23.6220 0 0 1 0 1.0
0 16.0630 23.9370 23.6220 0 0 1 0 1.0
0 16.0630 -23.9370 23.6220 0 0 1 0 1.0
phy
0 -16.0630 -23.9370 -0.3306 0 0 1 0 1.0
0 -16.0630 -23.9370 23.6220 0 0 1 0 1.0
0 16.0630 -23.9370 23.6220 0 0 1 0 1.0
phy
0 -16.0630 -23.9370 -0.3306 0 0 1 0 1.0
0 16.0630 -23.9370 23.6220 0 0 1 0 1.0
0 16.0630 -23.9370 -0.3306 0 0 1 0 1.0
phy
0 16.0630 23.9370 -0.3306 0 0 1 0 1.0
0 16.0630 23.9370 23.6220 0 0 1 0 1.0
0 -16.0630 23.9370 23.6220 0 0 1 0 1.0
phy
0 16.0630 23.9370 -0.3306 0 0 1 0 1.0
0 -16.0630 23.9370 23.6220 0 0 1 0 1.0
0 -16.0630 23.9370 -0.3306 0 0 1 0 1.0
phy
0 -16.0630 -23.9370 -0.3306 0 0 1 0 1.0
0 -16.0630 23.9370 -0.3306 0 0 1 0 1.0
0 -16.0630 23.9370 23.6220 0 0 1 0 1.0
phy
0 -16.0630 -23.9370 -0.3306 0 0 1 0 1.0
0 -16.0630 23.9370 23.6220 0 0 1 0 1.0
0 -16.0630 -23.9370 23.6220 0 0 1 0 1.0
phy
0 16.0630 -23.9370 -0.3306 0 0 1 0 1.0
0 16.0630 -23.9370 23.6220 0 0 1 0 1.0
0 16.0630 23.9370 23.6220 0 0 1 0 1.0
phy
0 16.0630 -23.9370 -0.3306 0 0 1 0 1.0
0 16.0630 23.9370 23.6220 0 0 1 0 1.0
0 16.0630 23.9370 -0.3306 0 0 1 0 1.0
end
