version 1
nodes
0 "root" -1
end
skeleton
time 0
0 0.000000 0.000000 0.000000 0.000000 0.000000 0.000000
end
triangles
caja_tapa
0 -14.960600 23.622000 23.570937 0.000000 1.000000 0.000000 0.674672 0.742440 1 0 1.0
0 -14.960600 23.622000 24.358337 0.000000 1.000000 0.000000 0.674672 0.742440 1 0 1.0
0 -10.629900 23.622000 24.358337 0.000000 1.000000 0.000000 0.741995 0.742440 1 0 1.0
caja_tapa
0 -14.960600 23.622000 23.570937 0.000000 1.000000 0.000000 0.674672 0.742440 1 0 1.0
0 -10.629900 23.622000 24.358337 0.000000 1.000000 0.000000 0.741995 0.742440 1 0 1.0
0 -10.629900 23.622000 23.570937 0.000000 1.000000 0.000000 0.741995 0.742440 1 0 1.0
caja_tapa
0 -10.629900 23.622000 23.570937 1.000000 -0.000000 0.000000 0.741995 0.742440 1 0 1.0
0 -10.629900 23.622000 24.358337 1.000000 -0.000000 0.000000 0.741995 0.742440 1 0 1.0
0 -10.629900 -23.622000 24.358337 1.000000 -0.000000 0.000000 0.741995 0.008005 1 0 1.0
caja_tapa
0 -10.629900 23.622000 23.570937 1.000000 -0.000000 0.000000 0.741995 0.742440 1 0 1.0
0 -10.629900 -23.622000 24.358337 1.000000 -0.000000 0.000000 0.741995 0.008005 1 0 1.0
0 -10.629900 -23.622000 23.570937 1.000000 -0.000000 0.000000 0.741995 0.008005 1 0 1.0
caja_tapa
0 -10.629900 -23.622000 23.570937 0.000000 -1.000000 0.000000 0.741995 0.008005 1 0 1.0
0 -10.629900 -23.622000 24.358337 0.000000 -1.000000 0.000000 0.741995 0.008005 1 0 1.0
0 -14.960600 -23.622000 24.358337 0.000000 -1.000000 0.000000 0.674672 0.008005 1 0 1.0
caja_tapa
0 -10.629900 -23.622000 23.570937 0.000000 -1.000000 0.000000 0.741995 0.008005 1 0 1.0
0 -14.960600 -23.622000 24.358337 0.000000 -1.000000 0.000000 0.674672 0.008005 1 0 1.0
0 -14.960600 -23.622000 23.570937 0.000000 -1.000000 0.000000 0.674672 0.008005 1 0 1.0
caja_tapa
0 -14.960600 -23.622000 23.570937 -1.000000 -0.000000 0.000000 0.674672 0.008005 1 0 1.0
0 -14.960600 -23.622000 24.358337 -1.000000 -0.000000 0.000000 0.674672 0.008005 1 0 1.0
0 -14.960600 23.622000 24.358337 -1.000000 -0.000000 0.000000 0.674672 0.742440 1 0 1.0
caja_tapa
0 -14.960600 -23.622000 23.570937 -1.000000 -0.000000 0.000000 0.674672 0.008005 1 0 1.0
0 -14.960600 23.622000 24.358337 -1.000000 -0.000000 0.000000 0.674672 0.742440 1 0 1.0
0 -14.960600 23.622000 23.570937 -1.000000 -0.000000 0.000000 0.674672 0.742440 1 0 1.0
caja_tapa
0 -10.629900 23.622000 23.570937 0.000000 -0.000000 -1.000000 0.825328 0.008005 1 0 1.0
0 -10.629900 -23.622000 23.570937 0.000000 -0.000000 -1.000000 0.825328 0.742440 1 0 1.0
0 -14.960600 -23.622000 23.570937 0.000000 -0.000000 -1.000000 0.758005 0.742440 1 0 1.0
caja_tapa
0 -10.629900 23.622000 23.570937 0.000000 -0.000000 -1.000000 0.825328 0.008005 1 0 1.0
0 -14.960600 -23.622000 23.570937 0.000000 -0.000000 -1.000000 0.758005 0.742440 1 0 1.0
0 -14.960600 23.622000 23.570937 0.000000 -0.000000 -1.000000 0.758005 0.008005 1 0 1.0
caja_tapa
0 -10.629900 -23.622000 24.358337 0.000000 -0.000000 1.000000 0.741995 0.008005 1 0 1.0
0 -10.629900 23.622000 24.358337 0.000000 -0.000000 1.000000 0.741995 0.742440 1 0 1.0
0 -14.960600 23.622000 24.358337 0.000000 -0.000000 1.000000 0.674672 0.742440 1 0 1.0
caja_tapa
0 -10.629900 -23.622000 24.358337 0.000000 -0.000000 1.000000 0.741995 0.008005 1 0 1.0
0 -14.960600 23.622000 24.358337 0.000000 -0.000000 1.000000 0.674672 0.742440 1 0 1.0
0 -14.960600 -23.622000 24.358337 0.000000 -0.000000 1.000000 0.674672 0.008005 1 0 1.0
caja_tapa
0 -9.842500 23.622000 23.570937 0.000000 1.000000 0.000000 0.841338 0.742440 1 0 1.0
0 -9.842500 23.622000 24.358337 0.000000 1.000000 0.000000 0.841338 0.742440 1 0 1.0
0 -5.511800 23.622000 24.358337 0.000000 1.000000 0.000000 0.908662 0.742440 1 0 1.0
caja_tapa
0 -9.842500 23.622000 23.570937 0.000000 1.000000 0.000000 0.841338 0.742440 1 0 1.0
0 -5.511800 23.622000 24.358337 0.000000 1.000000 0.000000 0.908662 0.742440 1 0 1.0
0 -5.511800 23.622000 23.570937 0.000000 1.000000 0.000000 0.908662 0.742440 1 0 1.0
caja_tapa
0 -5.511800 23.622000 23.570937 1.000000 -0.000000 0.000000 0.908662 0.742440 1 0 1.0
0 -5.511800 23.622000 24.358337 1.000000 -0.000000 0.000000 0.908662 0.742440 1 0 1.0
0 -5.511800 -23.622000 24.358337 1.000000 -0.000000 0.000000 0.908662 0.008005 1 0 1.0
caja_tapa
0 -5.511800 23.622000 23.570937 1.000000 -0.000000 0.000000 0.908662 0.742440 1 0 1.0
0 -5.511800 -23.622000 24.358337 1.000000 -0.000000 0.000000 0.908662 0.008005 1 0 1.0
0 -5.511800 -23.622000 23.570937 1.000000 -0.000000 0.000000 0.908662 0.008005 1 0 1.0
caja_tapa
0 -5.511800 -23.622000 23.570937 0.000000 -1.000000 0.000000 0.908662 0.008005 1 0 1.0
0 -5.511800 -23.622000 24.358337 0.000000 -1.000000 0.000000 0.908662 0.008005 1 0 1.0
0 -9.842500 -23.622000 24.358337 0.000000 -1.000000 0.000000 0.841338 0.008005 1 0 1.0
caja_tapa
0 -5.511800 -23.622000 23.570937 0.000000 -1.000000 0.000000 0.908662 0.008005 1 0 1.0
0 -9.842500 -23.622000 24.358337 0.000000 -1.000000 0.000000 0.841338 0.008005 1 0 1.0
0 -9.842500 -23.622000 23.570937 0.000000 -1.000000 0.000000 0.841338 0.008005 1 0 1.0
caja_tapa
0 -9.842500 -23.622000 23.570937 -1.000000 -0.000000 0.000000 0.841338 0.008005 1 0 1.0
0 -9.842500 -23.622000 24.358337 -1.000000 -0.000000 0.000000 0.841338 0.008005 1 0 1.0
0 -9.842500 23.622000 24.358337 -1.000000 -0.000000 0.000000 0.841338 0.742440 1 0 1.0
caja_tapa
0 -9.842500 -23.622000 23.570937 -1.000000 -0.000000 0.000000 0.841338 0.008005 1 0 1.0
0 -9.842500 23.622000 24.358337 -1.000000 -0.000000 0.000000 0.841338 0.742440 1 0 1.0
0 -9.842500 23.622000 23.570937 -1.000000 -0.000000 0.000000 0.841338 0.742440 1 0 1.0
caja_tapa
0 -5.511800 23.622000 23.570937 0.000000 -0.000000 -1.000000 0.991995 0.008005 1 0 1.0
0 -5.511800 -23.622000 23.570937 0.000000 -0.000000 -1.000000 0.991995 0.742440 1 0 1.0
0 -9.842500 -23.622000 23.570937 0.000000 -0.000000 -1.000000 0.924672 0.742440 1 0 1.0
caja_tapa
0 -5.511800 23.622000 23.570937 0.000000 -0.000000 -1.000000 0.991995 0.008005 1 0 1.0
0 -9.842500 -23.622000 23.570937 0.000000 -0.000000 -1.000000 0.924672 0.742440 1 0 1.0
0 -9.842500 23.622000 23.570937 0.000000 -0.000000 -1.000000 0.924672 0.008005 1 0 1.0
caja_tapa
0 -5.511800 -23.622000 24.358337 0.000000 -0.000000 1.000000 0.908662 0.008005 1 0 1.0
0 -5.511800 23.622000 24.358337 0.000000 -0.000000 1.000000 0.908662 0.742440 1 0 1.0
0 -9.842500 23.622000 24.358337 0.000000 -0.000000 1.000000 0.841338 0.742440 1 0 1.0
caja_tapa
0 -5.511800 -23.622000 24.358337 0.000000 -0.000000 1.000000 0.908662 0.008005 1 0 1.0
0 -9.842500 23.622000 24.358337 0.000000 -0.000000 1.000000 0.841338 0.742440 1 0 1.0
0 -9.842500 -23.622000 24.358337 0.000000 -0.000000 1.000000 0.841338 0.008005 1 0 1.0
caja_tapa
0 -4.724400 23.622000 23.570937 0.000000 1.000000 0.000000 0.508005 0.742440 1 0 1.0
0 -4.724400 23.622000 24.358337 0.000000 1.000000 0.000000 0.508005 0.742440 1 0 1.0
0 -0.393700 23.622000 24.358337 0.000000 1.000000 0.000000 0.575328 0.742440 1 0 1.0
caja_tapa
0 -4.724400 23.622000 23.570937 0.000000 1.000000 0.000000 0.508005 0.742440 1 0 1.0
0 -0.393700 23.622000 24.358337 0.000000 1.000000 0.000000 0.575328 0.742440 1 0 1.0
0 -0.393700 23.622000 23.570937 0.000000 1.000000 0.000000 0.575328 0.742440 1 0 1.0
caja_tapa
0 -0.393700 23.622000 23.570937 1.000000 -0.000000 0.000000 0.575328 0.742440 1 0 1.0
0 -0.393700 23.622000 24.358337 1.000000 -0.000000 0.000000 0.575328 0.742440 1 0 1.0
0 -0.393700 -23.622000 24.358337 1.000000 -0.000000 0.000000 0.575328 0.008005 1 0 1.0
caja_tapa
0 -0.393700 23.622000 23.570937 1.000000 -0.000000 0.000000 0.575328 0.742440 1 0 1.0
0 -0.393700 -23.622000 24.358337 1.000000 -0.000000 0.000000 0.575328 0.008005 1 0 1.0
0 -0.393700 -23.622000 23.570937 1.000000 -0.000000 0.000000 0.575328 0.008005 1 0 1.0
caja_tapa
0 -0.393700 -23.622000 23.570937 0.000000 -1.000000 0.000000 0.575328 0.008005 1 0 1.0
0 -0.393700 -23.622000 24.358337 0.000000 -1.000000 0.000000 0.575328 0.008005 1 0 1.0
0 -4.724400 -23.622000 24.358337 0.000000 -1.000000 0.000000 0.508005 0.008005 1 0 1.0
caja_tapa
0 -0.393700 -23.622000 23.570937 0.000000 -1.000000 0.000000 0.575328 0.008005 1 0 1.0
0 -4.724400 -23.622000 24.358337 0.000000 -1.000000 0.000000 0.508005 0.008005 1 0 1.0
0 -4.724400 -23.622000 23.570937 0.000000 -1.000000 0.000000 0.508005 0.008005 1 0 1.0
caja_tapa
0 -4.724400 -23.622000 23.570937 -1.000000 -0.000000 0.000000 0.508005 0.008005 1 0 1.0
0 -4.724400 -23.622000 24.358337 -1.000000 -0.000000 0.000000 0.508005 0.008005 1 0 1.0
0 -4.724400 23.622000 24.358337 -1.000000 -0.000000 0.000000 0.508005 0.742440 1 0 1.0
caja_tapa
0 -4.724400 -23.622000 23.570937 -1.000000 -0.000000 0.000000 0.508005 0.008005 1 0 1.0
0 -4.724400 23.622000 24.358337 -1.000000 -0.000000 0.000000 0.508005 0.742440 1 0 1.0
0 -4.724400 23.622000 23.570937 -1.000000 -0.000000 0.000000 0.508005 0.742440 1 0 1.0
caja_tapa
0 -0.393700 23.622000 23.570937 0.000000 -0.000000 -1.000000 0.658662 0.008005 1 0 1.0
0 -0.393700 -23.622000 23.570937 0.000000 -0.000000 -1.000000 0.658662 0.742440 1 0 1.0
0 -4.724400 -23.622000 23.570937 0.000000 -0.000000 -1.000000 0.591338 0.742440 1 0 1.0
caja_tapa
0 -0.393700 23.622000 23.570937 0.000000 -0.000000 -1.000000 0.658662 0.008005 1 0 1.0
0 -4.724400 -23.622000 23.570937 0.000000 -0.000000 -1.000000 0.591338 0.742440 1 0 1.0
0 -4.724400 23.622000 23.570937 0.000000 -0.000000 -1.000000 0.591338 0.008005 1 0 1.0
caja_tapa
0 -0.393700 -23.622000 24.358337 0.000000 -0.000000 1.000000 0.575328 0.008005 1 0 1.0
0 -0.393700 23.622000 24.358337 0.000000 -0.000000 1.000000 0.575328 0.742440 1 0 1.0
0 -4.724400 23.622000 24.358337 0.000000 -0.000000 1.000000 0.508005 0.742440 1 0 1.0
caja_tapa
0 -0.393700 -23.622000 24.358337 0.000000 -0.000000 1.000000 0.575328 0.008005 1 0 1.0
0 -4.724400 23.622000 24.358337 0.000000 -0.000000 1.000000 0.508005 0.742440 1 0 1.0
0 -4.724400 -23.622000 24.358337 0.000000 -0.000000 1.000000 0.508005 0.008005 1 0 1.0
caja_tapa
0 0.393700 23.622000 23.570937 0.000000 1.000000 0.000000 0.008005 0.742440 1 0 1.0
0 0.393700 23.622000 24.358337 0.000000 1.000000 0.000000 0.008005 0.742440 1 0 1.0
0 4.724400 23.622000 24.358337 0.000000 1.000000 0.000000 0.075328 0.742440 1 0 1.0
caja_tapa
0 0.393700 23.622000 23.570937 0.000000 1.000000 0.000000 0.008005 0.742440 1 0 1.0
0 4.724400 23.622000 24.358337 0.000000 1.000000 0.000000 0.075328 0.742440 1 0 1.0
0 4.724400 23.622000 23.570937 0.000000 1.000000 0.000000 0.075328 0.742440 1 0 1.0
caja_tapa
0 4.724400 23.622000 23.570937 1.000000 -0.000000 0.000000 0.075328 0.742440 1 0 1.0
0 4.724400 23.622000 24.358337 1.000000 -0.000000 0.000000 0.075328 0.742440 1 0 1.0
0 4.724400 -23.622000 24.358337 1.000000 -0.000000 0.000000 0.075328 0.008005 1 0 1.0
caja_tapa
0 4.724400 23.622000 23.570937 1.000000 -0.000000 0.000000 0.075328 0.742440 1 0 1.0
0 4.724400 -23.622000 24.358337 1.000000 -0.000000 0.000000 0.075328 0.008005 1 0 1.0
0 4.724400 -23.622000 23.570937 1.000000 -0.000000 0.000000 0.075328 0.008005 1 0 1.0
caja_tapa
0 4.724400 -23.622000 23.570937 0.000000 -1.000000 0.000000 0.075328 0.008005 1 0 1.0
0 4.724400 -23.622000 24.358337 0.000000 -1.000000 0.000000 0.075328 0.008005 1 0 1.0
0 0.393700 -23.622000 24.358337 0.000000 -1.000000 0.000000 0.008005 0.008005 1 0 1.0
caja_tapa
0 4.724400 -23.622000 23.570937 0.000000 -1.000000 0.000000 0.075328 0.008005 1 0 1.0
0 0.393700 -23.622000 24.358337 0.000000 -1.000000 0.000000 0.008005 0.008005 1 0 1.0
0 0.393700 -23.622000 23.570937 0.000000 -1.000000 0.000000 0.008005 0.008005 1 0 1.0
caja_tapa
0 0.393700 -23.622000 23.570937 -1.000000 -0.000000 0.000000 0.008005 0.008005 1 0 1.0
0 0.393700 -23.622000 24.358337 -1.000000 -0.000000 0.000000 0.008005 0.008005 1 0 1.0
0 0.393700 23.622000 24.358337 -1.000000 -0.000000 0.000000 0.008005 0.742440 1 0 1.0
caja_tapa
0 0.393700 -23.622000 23.570937 -1.000000 -0.000000 0.000000 0.008005 0.008005 1 0 1.0
0 0.393700 23.622000 24.358337 -1.000000 -0.000000 0.000000 0.008005 0.742440 1 0 1.0
0 0.393700 23.622000 23.570937 -1.000000 -0.000000 0.000000 0.008005 0.742440 1 0 1.0
caja_tapa
0 4.724400 23.622000 23.570937 0.000000 -0.000000 -1.000000 0.158662 0.008005 1 0 1.0
0 4.724400 -23.622000 23.570937 0.000000 -0.000000 -1.000000 0.158662 0.742440 1 0 1.0
0 0.393700 -23.622000 23.570937 0.000000 -0.000000 -1.000000 0.091338 0.742440 1 0 1.0
caja_tapa
0 4.724400 23.622000 23.570937 0.000000 -0.000000 -1.000000 0.158662 0.008005 1 0 1.0
0 0.393700 -23.622000 23.570937 0.000000 -0.000000 -1.000000 0.091338 0.742440 1 0 1.0
0 0.393700 23.622000 23.570937 0.000000 -0.000000 -1.000000 0.091338 0.008005 1 0 1.0
caja_tapa
0 4.724400 -23.622000 24.358337 0.000000 -0.000000 1.000000 0.075328 0.008005 1 0 1.0
0 4.724400 23.622000 24.358337 0.000000 -0.000000 1.000000 0.075328 0.742440 1 0 1.0
0 0.393700 23.622000 24.358337 0.000000 -0.000000 1.000000 0.008005 0.742440 1 0 1.0
caja_tapa
0 4.724400 -23.622000 24.358337 0.000000 -0.000000 1.000000 0.075328 0.008005 1 0 1.0
0 0.393700 23.622000 24.358337 0.000000 -0.000000 1.000000 0.008005 0.742440 1 0 1.0
0 0.393700 -23.622000 24.358337 0.000000 -0.000000 1.000000 0.008005 0.008005 1 0 1.0
caja_tapa
0 5.511800 23.622000 23.570937 0.000000 1.000000 0.000000 0.174672 0.742440 1 0 1.0
0 5.511800 23.622000 24.358337 0.000000 1.000000 0.000000 0.174672 0.742440 1 0 1.0
0 9.842500 23.622000 24.358337 0.000000 1.000000 0.000000 0.241995 0.742440 1 0 1.0
caja_tapa
0 5.511800 23.622000 23.570937 0.000000 1.000000 0.000000 0.174672 0.742440 1 0 1.0
0 9.842500 23.622000 24.358337 0.000000 1.000000 0.000000 0.241995 0.742440 1 0 1.0
0 9.842500 23.622000 23.570937 0.000000 1.000000 0.000000 0.241995 0.742440 1 0 1.0
caja_tapa
0 9.842500 23.622000 23.570937 1.000000 -0.000000 0.000000 0.241995 0.742440 1 0 1.0
0 9.842500 23.622000 24.358337 1.000000 -0.000000 0.000000 0.241995 0.742440 1 0 1.0
0 9.842500 -23.622000 24.358337 1.000000 -0.000000 0.000000 0.241995 0.008005 1 0 1.0
caja_tapa
0 9.842500 23.622000 23.570937 1.000000 -0.000000 0.000000 0.241995 0.742440 1 0 1.0
0 9.842500 -23.622000 24.358337 1.000000 -0.000000 0.000000 0.241995 0.008005 1 0 1.0
0 9.842500 -23.622000 23.570937 1.000000 -0.000000 0.000000 0.241995 0.008005 1 0 1.0
caja_tapa
0 9.842500 -23.622000 23.570937 0.000000 -1.000000 0.000000 0.241995 0.008005 1 0 1.0
0 9.842500 -23.622000 24.358337 0.000000 -1.000000 0.000000 0.241995 0.008005 1 0 1.0
0 5.511800 -23.622000 24.358337 0.000000 -1.000000 0.000000 0.174672 0.008005 1 0 1.0
caja_tapa
0 9.842500 -23.622000 23.570937 0.000000 -1.000000 0.000000 0.241995 0.008005 1 0 1.0
0 5.511800 -23.622000 24.358337 0.000000 -1.000000 0.000000 0.174672 0.008005 1 0 1.0
0 5.511800 -23.622000 23.570937 0.000000 -1.000000 0.000000 0.174672 0.008005 1 0 1.0
caja_tapa
0 5.511800 -23.622000 23.570937 -1.000000 -0.000000 0.000000 0.174672 0.008005 1 0 1.0
0 5.511800 -23.622000 24.358337 -1.000000 -0.000000 0.000000 0.174672 0.008005 1 0 1.0
0 5.511800 23.622000 24.358337 -1.000000 -0.000000 0.000000 0.174672 0.742440 1 0 1.0
caja_tapa
0 5.511800 -23.622000 23.570937 -1.000000 -0.000000 0.000000 0.174672 0.008005 1 0 1.0
0 5.511800 23.622000 24.358337 -1.000000 -0.000000 0.000000 0.174672 0.742440 1 0 1.0
0 5.511800 23.622000 23.570937 -1.000000 -0.000000 0.000000 0.174672 0.742440 1 0 1.0
caja_tapa
0 9.842500 23.622000 23.570937 0.000000 -0.000000 -1.000000 0.325328 0.008005 1 0 1.0
0 9.842500 -23.622000 23.570937 0.000000 -0.000000 -1.000000 0.325328 0.742440 1 0 1.0
0 5.511800 -23.622000 23.570937 0.000000 -0.000000 -1.000000 0.258005 0.742440 1 0 1.0
caja_tapa
0 9.842500 23.622000 23.570937 0.000000 -0.000000 -1.000000 0.325328 0.008005 1 0 1.0
0 5.511800 -23.622000 23.570937 0.000000 -0.000000 -1.000000 0.258005 0.742440 1 0 1.0
0 5.511800 23.622000 23.570937 0.000000 -0.000000 -1.000000 0.258005 0.008005 1 0 1.0
caja_tapa
0 9.842500 -23.622000 24.358337 0.000000 -0.000000 1.000000 0.241995 0.008005 1 0 1.0
0 9.842500 23.622000 24.358337 0.000000 -0.000000 1.000000 0.241995 0.742440 1 0 1.0
0 5.511800 23.622000 24.358337 0.000000 -0.000000 1.000000 0.174672 0.742440 1 0 1.0
caja_tapa
0 9.842500 -23.622000 24.358337 0.000000 -0.000000 1.000000 0.241995 0.008005 1 0 1.0
0 5.511800 23.622000 24.358337 0.000000 -0.000000 1.000000 0.174672 0.742440 1 0 1.0
0 5.511800 -23.622000 24.358337 0.000000 -0.000000 1.000000 0.174672 0.008005 1 0 1.0
caja_tapa
0 10.629900 23.622000 23.570937 0.000000 1.000000 0.000000 0.341338 0.742440 1 0 1.0
0 10.629900 23.622000 24.358337 0.000000 1.000000 0.000000 0.341338 0.742440 1 0 1.0
0 14.960600 23.622000 24.358337 0.000000 1.000000 0.000000 0.408662 0.742440 1 0 1.0
caja_tapa
0 10.629900 23.622000 23.570937 0.000000 1.000000 0.000000 0.341338 0.742440 1 0 1.0
0 14.960600 23.622000 24.358337 0.000000 1.000000 0.000000 0.408662 0.742440 1 0 1.0
0 14.960600 23.622000 23.570937 0.000000 1.000000 0.000000 0.408662 0.742440 1 0 1.0
caja_tapa
0 14.960600 23.622000 23.570937 1.000000 -0.000000 0.000000 0.408662 0.742440 1 0 1.0
0 14.960600 23.622000 24.358337 1.000000 -0.000000 0.000000 0.408662 0.742440 1 0 1.0
0 14.960600 -23.622000 24.358337 1.000000 -0.000000 0.000000 0.408662 0.008005 1 0 1.0
caja_tapa
0 14.960600 23.622000 23.570937 1.000000 -0.000000 0.000000 0.408662 0.742440 1 0 1.0
0 14.960600 -23.622000 24.358337 1.000000 -0.000000 0.000000 0.408662 0.008005 1 0 1.0
0 14.960600 -23.622000 23.570937 1.000000 -0.000000 0.000000 0.408662 0.008005 1 0 1.0
caja_tapa
0 14.960600 -23.622000 23.570937 0.000000 -1.000000 0.000000 0.408662 0.008005 1 0 1.0
0 14.960600 -23.622000 24.358337 0.000000 -1.000000 0.000000 0.408662 0.008005 1 0 1.0
0 10.629900 -23.622000 24.358337 0.000000 -1.000000 0.000000 0.341338 0.008005 1 0 1.0
caja_tapa
0 14.960600 -23.622000 23.570937 0.000000 -1.000000 0.000000 0.408662 0.008005 1 0 1.0
0 10.629900 -23.622000 24.358337 0.000000 -1.000000 0.000000 0.341338 0.008005 1 0 1.0
0 10.629900 -23.622000 23.570937 0.000000 -1.000000 0.000000 0.341338 0.008005 1 0 1.0
caja_tapa
0 10.629900 -23.622000 23.570937 -1.000000 -0.000000 0.000000 0.341338 0.008005 1 0 1.0
0 10.629900 -23.622000 24.358337 -1.000000 -0.000000 0.000000 0.341338 0.008005 1 0 1.0
0 10.629900 23.622000 24.358337 -1.000000 -0.000000 0.000000 0.341338 0.742440 1 0 1.0
caja_tapa
0 10.629900 -23.622000 23.570937 -1.000000 -0.000000 0.000000 0.341338 0.008005 1 0 1.0
0 10.629900 23.622000 24.358337 -1.000000 -0.000000 0.000000 0.341338 0.742440 1 0 1.0
0 10.629900 23.622000 23.570937 -1.000000 -0.000000 0.000000 0.341338 0.742440 1 0 1.0
caja_tapa
0 14.960600 23.622000 23.570937 0.000000 -0.000000 -1.000000 0.491995 0.008005 1 0 1.0
0 14.960600 -23.622000 23.570937 0.000000 -0.000000 -1.000000 0.491995 0.742440 1 0 1.0
0 10.629900 -23.622000 23.570937 0.000000 -0.000000 -1.000000 0.424672 0.742440 1 0 1.0
caja_tapa
0 14.960600 23.622000 23.570937 0.000000 -0.000000 -1.000000 0.491995 0.008005 1 0 1.0
0 10.629900 -23.622000 23.570937 0.000000 -0.000000 -1.000000 0.424672 0.742440 1 0 1.0
0 10.629900 23.622000 23.570937 0.000000 -0.000000 -1.000000 0.424672 0.008005 1 0 1.0
caja_tapa
0 14.960600 -23.622000 24.358337 0.000000 -0.000000 1.000000 0.408662 0.008005 1 0 1.0
0 14.960600 23.622000 24.358337 0.000000 -0.000000 1.000000 0.408662 0.742440 1 0 1.0
0 10.629900 23.622000 24.358337 0.000000 -0.000000 1.000000 0.341338 0.742440 1 0 1.0
caja_tapa
0 14.960600 -23.622000 24.358337 0.000000 -0.000000 1.000000 0.408662 0.008005 1 0 1.0
0 10.629900 23.622000 24.358337 0.000000 -0.000000 1.000000 0.341338 0.742440 1 0 1.0
0 10.629900 -23.622000 24.358337 0.000000 -0.000000 1.000000 0.341338 0.008005 1 0 1.0
end
