version 1
nodes
0 "root" -1
end
skeleton
time 0
0 0.000000 0.000000 0.000000 0.000000 0.000000 0.000000
end
triangles
caja_tapa
0 -12.401550 23.622000 21.799287 0.000000 1.000000 0.000000 0.674672 0.742440 1 0 1.0
0 -13.188950 23.622000 21.799287 0.000000 1.000000 0.000000 0.674672 0.742440 1 0 1.0
0 -13.188950 23.622000 26.129987 0.000000 1.000000 0.000000 0.741995 0.742440 1 0 1.0
caja_tapa
0 -12.401550 23.622000 21.799287 0.000000 1.000000 0.000000 0.674672 0.742440 1 0 1.0
0 -13.188950 23.622000 26.129987 0.000000 1.000000 0.000000 0.741995 0.742440 1 0 1.0
0 -12.401550 23.622000 26.129987 0.000000 1.000000 0.000000 0.741995 0.742440 1 0 1.0
caja_tapa
0 -12.401550 23.622000 26.129987 -0.000000 -0.000000 1.000000 0.741995 0.742440 1 0 1.0
0 -13.188950 23.622000 26.129987 -0.000000 -0.000000 1.000000 0.741995 0.742440 1 0 1.0
0 -13.188950 -23.622000 26.129987 -0.000000 -0.000000 1.000000 0.741995 0.008005 1 0 1.0
caja_tapa
0 -12.401550 23.622000 26.129987 -0.000000 -0.000000 1.000000 0.741995 0.742440 1 0 1.0
0 -13.188950 -23.622000 26.129987 -0.000000 -0.000000 1.000000 0.741995 0.008005 1 0 1.0
0 -12.401550 -23.622000 26.129987 -0.000000 -0.000000 1.000000 0.741995 0.008005 1 0 1.0
caja_tapa
0 -12.401550 -23.622000 26.129987 0.000000 -1.000000 0.000000 0.741995 0.008005 1 0 1.0
0 -13.188950 -23.622000 26.129987 0.000000 -1.000000 0.000000 0.741995 0.008005 1 0 1.0
0 -13.188950 -23.622000 21.799287 0.000000 -1.000000 0.000000 0.674672 0.008005 1 0 1.0
caja_tapa
0 -12.401550 -23.622000 26.129987 0.000000 -1.000000 0.000000 0.741995 0.008005 1 0 1.0
0 -13.188950 -23.622000 21.799287 0.000000 -1.000000 0.000000 0.674672 0.008005 1 0 1.0
0 -12.401550 -23.622000 21.799287 0.000000 -1.000000 0.000000 0.674672 0.008005 1 0 1.0
caja_tapa
0 -12.401550 -23.622000 21.799287 0.000000 -0.000000 -1.000000 0.674672 0.008005 1 0 1.0
0 -13.188950 -23.622000 21.799287 0.000000 -0.000000 -1.000000 0.674672 0.008005 1 0 1.0
0 -13.188950 23.622000 21.799287 0.000000 -0.000000 -1.000000 0.674672 0.742440 1 0 1.0
caja_tapa
0 -12.401550 -23.622000 21.799287 0.000000 -0.000000 -1.000000 0.674672 0.008005 1 0 1.0
0 -13.188950 23.622000 21.799287 0.000000 -0.000000 -1.000000 0.674672 0.742440 1 0 1.0
0 -12.401550 23.622000 21.799287 0.000000 -0.000000 -1.000000 0.674672 0.742440 1 0 1.0
caja_tapa
0 -12.401550 23.622000 26.129987 1.000000 -0.000000 0.000000 0.825328 0.008005 1 0 1.0
0 -12.401550 -23.622000 26.129987 1.000000 -0.000000 0.000000 0.825328 0.742440 1 0 1.0
0 -12.401550 -23.622000 21.799287 1.000000 -0.000000 0.000000 0.758005 0.742440 1 0 1.0
caja_tapa
0 -12.401550 23.622000 26.129987 1.000000 -0.000000 0.000000 0.825328 0.008005 1 0 1.0
0 -12.401550 -23.622000 21.799287 1.000000 -0.000000 0.000000 0.758005 0.742440 1 0 1.0
0 -12.401550 23.622000 21.799287 1.000000 -0.000000 0.000000 0.758005 0.008005 1 0 1.0
caja_tapa
0 -13.188950 -23.622000 26.129987 -1.000000 -0.000000 -0.000000 0.741995 0.008005 1 0 1.0
0 -13.188950 23.622000 26.129987 -1.000000 -0.000000 -0.000000 0.741995 0.742440 1 0 1.0
0 -13.188950 23.622000 21.799287 -1.000000 -0.000000 -0.000000 0.674672 0.742440 1 0 1.0
caja_tapa
0 -13.188950 -23.622000 26.129987 -1.000000 -0.000000 -0.000000 0.741995 0.008005 1 0 1.0
0 -13.188950 23.622000 21.799287 -1.000000 -0.000000 -0.000000 0.674672 0.742440 1 0 1.0
0 -13.188950 -23.622000 21.799287 -1.000000 -0.000000 -0.000000 0.674672 0.008005 1 0 1.0
caja_tapa
0 -12.401550 23.622000 26.917387 0.000000 1.000000 0.000000 0.841338 0.742440 1 0 1.0
0 -13.188950 23.622000 26.917387 0.000000 1.000000 0.000000 0.841338 0.742440 1 0 1.0
0 -13.188950 23.622000 31.248087 0.000000 1.000000 0.000000 0.908662 0.742440 1 0 1.0
caja_tapa
0 -12.401550 23.622000 26.917387 0.000000 1.000000 0.000000 0.841338 0.742440 1 0 1.0
0 -13.188950 23.622000 31.248087 0.000000 1.000000 0.000000 0.908662 0.742440 1 0 1.0
0 -12.401550 23.622000 31.248087 0.000000 1.000000 0.000000 0.908662 0.742440 1 0 1.0
caja_tapa
0 -12.401550 23.622000 31.248087 -0.000000 -0.000000 1.000000 0.908662 0.742440 1 0 1.0
0 -13.188950 23.622000 31.248087 -0.000000 -0.000000 1.000000 0.908662 0.742440 1 0 1.0
0 -13.188950 -23.622000 31.248087 -0.000000 -0.000000 1.000000 0.908662 0.008005 1 0 1.0
caja_tapa
0 -12.401550 23.622000 31.248087 -0.000000 -0.000000 1.000000 0.908662 0.742440 1 0 1.0
0 -13.188950 -23.622000 31.248087 -0.000000 -0.000000 1.000000 0.908662 0.008005 1 0 1.0
0 -12.401550 -23.622000 31.248087 -0.000000 -0.000000 1.000000 0.908662 0.008005 1 0 1.0
caja_tapa
0 -12.401550 -23.622000 31.248087 0.000000 -1.000000 0.000000 0.908662 0.008005 1 0 1.0
0 -13.188950 -23.622000 31.248087 0.000000 -1.000000 0.000000 0.908662 0.008005 1 0 1.0
0 -13.188950 -23.622000 26.917387 0.000000 -1.000000 0.000000 0.841338 0.008005 1 0 1.0
caja_tapa
0 -12.401550 -23.622000 31.248087 0.000000 -1.000000 0.000000 0.908662 0.008005 1 0 1.0
0 -13.188950 -23.622000 26.917387 0.000000 -1.000000 0.000000 0.841338 0.008005 1 0 1.0
0 -12.401550 -23.622000 26.917387 0.000000 -1.000000 0.000000 0.841338 0.008005 1 0 1.0
caja_tapa
0 -12.401550 -23.622000 26.917387 0.000000 -0.000000 -1.000000 0.841338 0.008005 1 0 1.0
0 -13.188950 -23.622000 26.917387 0.000000 -0.000000 -1.000000 0.841338 0.008005 1 0 1.0
0 -13.188950 23.622000 26.917387 0.000000 -0.000000 -1.000000 0.841338 0.742440 1 0 1.0
caja_tapa
0 -12.401550 -23.622000 26.917387 0.000000 -0.000000 -1.000000 0.841338 0.008005 1 0 1.0
0 -13.188950 23.622000 26.917387 0.000000 -0.000000 -1.000000 0.841338 0.742440 1 0 1.0
0 -12.401550 23.622000 26.917387 0.000000 -0.000000 -1.000000 0.841338 0.742440 1 0 1.0
caja_tapa
0 -12.401550 23.622000 31.248087 1.000000 -0.000000 0.000000 0.991995 0.008005 1 0 1.0
0 -12.401550 -23.622000 31.248087 1.000000 -0.000000 0.000000 0.991995 0.742440 1 0 1.0
0 -12.401550 -23.622000 26.917387 1.000000 -0.000000 0.000000 0.924672 0.742440 1 0 1.0
caja_tapa
0 -12.401550 23.622000 31.248087 1.000000 -0.000000 0.000000 0.991995 0.008005 1 0 1.0
0 -12.401550 -23.622000 26.917387 1.000000 -0.000000 0.000000 0.924672 0.742440 1 0 1.0
0 -12.401550 23.622000 26.917387 1.000000 -0.000000 0.000000 0.924672 0.008005 1 0 1.0
caja_tapa
0 -13.188950 -23.622000 31.248087 -1.000000 -0.000000 -0.000000 0.908662 0.008005 1 0 1.0
0 -13.188950 23.622000 31.248087 -1.000000 -0.000000 -0.000000 0.908662 0.742440 1 0 1.0
0 -13.188950 23.622000 26.917387 -1.000000 -0.000000 -0.000000 0.841338 0.742440 1 0 1.0
caja_tapa
0 -13.188950 -23.622000 31.248087 -1.000000 -0.000000 -0.000000 0.908662 0.008005 1 0 1.0
0 -13.188950 23.622000 26.917387 -1.000000 -0.000000 -0.000000 0.841338 0.742440 1 0 1.0
0 -13.188950 -23.622000 26.917387 -1.000000 -0.000000 -0.000000 0.841338 0.008005 1 0 1.0
caja_tapa
0 -12.401550 23.622000 32.035487 0.000000 1.000000 0.000000 0.508005 0.742440 1 0 1.0
0 -13.188950 23.622000 32.035487 0.000000 1.000000 0.000000 0.508005 0.742440 1 0 1.0
0 -13.188950 23.622000 36.366187 0.000000 1.000000 0.000000 0.575328 0.742440 1 0 1.0
caja_tapa
0 -12.401550 23.622000 32.035487 0.000000 1.000000 0.000000 0.508005 0.742440 1 0 1.0
0 -13.188950 23.622000 36.366187 0.000000 1.000000 0.000000 0.575328 0.742440 1 0 1.0
0 -12.401550 23.622000 36.366187 0.000000 1.000000 0.000000 0.575328 0.742440 1 0 1.0
caja_tapa
0 -12.401550 23.622000 36.366187 -0.000000 -0.000000 1.000000 0.575328 0.742440 1 0 1.0
0 -13.188950 23.622000 36.366187 -0.000000 -0.000000 1.000000 0.575328 0.742440 1 0 1.0
0 -13.188950 -23.622000 36.366187 -0.000000 -0.000000 1.000000 0.575328 0.008005 1 0 1.0
caja_tapa
0 -12.401550 23.622000 36.366187 -0.000000 -0.000000 1.000000 0.575328 0.742440 1 0 1.0
0 -13.188950 -23.622000 36.366187 -0.000000 -0.000000 1.000000 0.575328 0.008005 1 0 1.0
0 -12.401550 -23.622000 36.366187 -0.000000 -0.000000 1.000000 0.575328 0.008005 1 0 1.0
caja_tapa
0 -12.401550 -23.622000 36.366187 0.000000 -1.000000 0.000000 0.575328 0.008005 1 0 1.0
0 -13.188950 -23.622000 36.366187 0.000000 -1.000000 0.000000 0.575328 0.008005 1 0 1.0
0 -13.188950 -23.622000 32.035487 0.000000 -1.000000 0.000000 0.508005 0.008005 1 0 1.0
caja_tapa
0 -12.401550 -23.622000 36.366187 0.000000 -1.000000 0.000000 0.575328 0.008005 1 0 1.0
0 -13.188950 -23.622000 32.035487 0.000000 -1.000000 0.000000 0.508005 0.008005 1 0 1.0
0 -12.401550 -23.622000 32.035487 0.000000 -1.000000 0.000000 0.508005 0.008005 1 0 1.0
caja_tapa
0 -12.401550 -23.622000 32.035487 0.000000 -0.000000 -1.000000 0.508005 0.008005 1 0 1.0
0 -13.188950 -23.622000 32.035487 0.000000 -0.000000 -1.000000 0.508005 0.008005 1 0 1.0
0 -13.188950 23.622000 32.035487 0.000000 -0.000000 -1.000000 0.508005 0.742440 1 0 1.0
caja_tapa
0 -12.401550 -23.622000 32.035487 0.000000 -0.000000 -1.000000 0.508005 0.008005 1 0 1.0
0 -13.188950 23.622000 32.035487 0.000000 -0.000000 -1.000000 0.508005 0.742440 1 0 1.0
0 -12.401550 23.622000 32.035487 0.000000 -0.000000 -1.000000 0.508005 0.742440 1 0 1.0
caja_tapa
0 -12.401550 23.622000 36.366187 1.000000 -0.000000 0.000000 0.658662 0.008005 1 0 1.0
0 -12.401550 -23.622000 36.366187 1.000000 -0.000000 0.000000 0.658662 0.742440 1 0 1.0
0 -12.401550 -23.622000 32.035487 1.000000 -0.000000 0.000000 0.591338 0.742440 1 0 1.0
caja_tapa
0 -12.401550 23.622000 36.366187 1.000000 -0.000000 0.000000 0.658662 0.008005 1 0 1.0
0 -12.401550 -23.622000 32.035487 1.000000 -0.000000 0.000000 0.591338 0.742440 1 0 1.0
0 -12.401550 23.622000 32.035487 1.000000 -0.000000 0.000000 0.591338 0.008005 1 0 1.0
caja_tapa
0 -13.188950 -23.622000 36.366187 -1.000000 -0.000000 -0.000000 0.575328 0.008005 1 0 1.0
0 -13.188950 23.622000 36.366187 -1.000000 -0.000000 -0.000000 0.575328 0.742440 1 0 1.0
0 -13.188950 23.622000 32.035487 -1.000000 -0.000000 -0.000000 0.508005 0.742440 1 0 1.0
caja_tapa
0 -13.188950 -23.622000 36.366187 -1.000000 -0.000000 -0.000000 0.575328 0.008005 1 0 1.0
0 -13.188950 23.622000 32.035487 -1.000000 -0.000000 -0.000000 0.508005 0.742440 1 0 1.0
0 -13.188950 -23.622000 32.035487 -1.000000 -0.000000 -0.000000 0.508005 0.008005 1 0 1.0
caja_tapa
0 -12.401550 23.622000 37.153587 0.000000 1.000000 0.000000 0.008005 0.742440 1 0 1.0
0 -13.188950 23.622000 37.153587 0.000000 1.000000 0.000000 0.008005 0.742440 1 0 1.0
0 -13.188950 23.622000 41.484287 0.000000 1.000000 0.000000 0.075328 0.742440 1 0 1.0
caja_tapa
0 -12.401550 23.622000 37.153587 0.000000 1.000000 0.000000 0.008005 0.742440 1 0 1.0
0 -13.188950 23.622000 41.484287 0.000000 1.000000 0.000000 0.075328 0.742440 1 0 1.0
0 -12.401550 23.622000 41.484287 0.000000 1.000000 0.000000 0.075328 0.742440 1 0 1.0
caja_tapa
0 -12.401550 23.622000 41.484287 -0.000000 -0.000000 1.000000 0.075328 0.742440 1 0 1.0
0 -13.188950 23.622000 41.484287 -0.000000 -0.000000 1.000000 0.075328 0.742440 1 0 1.0
0 -13.188950 -23.622000 41.484287 -0.000000 -0.000000 1.000000 0.075328 0.008005 1 0 1.0
caja_tapa
0 -12.401550 23.622000 41.484287 -0.000000 -0.000000 1.000000 0.075328 0.742440 1 0 1.0
0 -13.188950 -23.622000 41.484287 -0.000000 -0.000000 1.000000 0.075328 0.008005 1 0 1.0
0 -12.401550 -23.622000 41.484287 -0.000000 -0.000000 1.000000 0.075328 0.008005 1 0 1.0
caja_tapa
0 -12.401550 -23.622000 41.484287 0.000000 -1.000000 0.000000 0.075328 0.008005 1 0 1.0
0 -13.188950 -23.622000 41.484287 0.000000 -1.000000 0.000000 0.075328 0.008005 1 0 1.0
0 -13.188950 -23.622000 37.153587 0.000000 -1.000000 0.000000 0.008005 0.008005 1 0 1.0
caja_tapa
0 -12.401550 -23.622000 41.484287 0.000000 -1.000000 0.000000 0.075328 0.008005 1 0 1.0
0 -13.188950 -23.622000 37.153587 0.000000 -1.000000 0.000000 0.008005 0.008005 1 0 1.0
0 -12.401550 -23.622000 37.153587 0.000000 -1.000000 0.000000 0.008005 0.008005 1 0 1.0
caja_tapa
0 -12.401550 -23.622000 37.153587 0.000000 -0.000000 -1.000000 0.008005 0.008005 1 0 1.0
0 -13.188950 -23.622000 37.153587 0.000000 -0.000000 -1.000000 0.008005 0.008005 1 0 1.0
0 -13.188950 23.622000 37.153587 0.000000 -0.000000 -1.000000 0.008005 0.742440 1 0 1.0
caja_tapa
0 -12.401550 -23.622000 37.153587 0.000000 -0.000000 -1.000000 0.008005 0.008005 1 0 1.0
0 -13.188950 23.622000 37.153587 0.000000 -0.000000 -1.000000 0.008005 0.742440 1 0 1.0
0 -12.401550 23.622000 37.153587 0.000000 -0.000000 -1.000000 0.008005 0.742440 1 0 1.0
caja_tapa
0 -12.401550 23.622000 41.484287 1.000000 -0.000000 0.000000 0.158662 0.008005 1 0 1.0
0 -12.401550 -23.622000 41.484287 1.000000 -0.000000 0.000000 0.158662 0.742440 1 0 1.0
0 -12.401550 -23.622000 37.153587 1.000000 -0.000000 0.000000 0.091338 0.742440 1 0 1.0
caja_tapa
0 -12.401550 23.622000 41.484287 1.000000 -0.000000 0.000000 0.158662 0.008005 1 0 1.0
0 -12.401550 -23.622000 37.153587 1.000000 -0.000000 0.000000 0.091338 0.742440 1 0 1.0
0 -12.401550 23.622000 37.153587 1.000000 -0.000000 0.000000 0.091338 0.008005 1 0 1.0
caja_tapa
0 -13.188950 -23.622000 41.484287 -1.000000 -0.000000 -0.000000 0.075328 0.008005 1 0 1.0
0 -13.188950 23.622000 41.484287 -1.000000 -0.000000 -0.000000 0.075328 0.742440 1 0 1.0
0 -13.188950 23.622000 37.153587 -1.000000 -0.000000 -0.000000 0.008005 0.742440 1 0 1.0
caja_tapa
0 -13.188950 -23.622000 41.484287 -1.000000 -0.000000 -0.000000 0.075328 0.008005 1 0 1.0
0 -13.188950 23.622000 37.153587 -1.000000 -0.000000 -0.000000 0.008005 0.742440 1 0 1.0
0 -13.188950 -23.622000 37.153587 -1.000000 -0.000000 -0.000000 0.008005 0.008005 1 0 1.0
caja_tapa
0 -12.401550 23.622000 42.271687 0.000000 1.000000 0.000000 0.174672 0.742440 1 0 1.0
0 -13.188950 23.622000 42.271687 0.000000 1.000000 0.000000 0.174672 0.742440 1 0 1.0
0 -13.188950 23.622000 46.602387 0.000000 1.000000 0.000000 0.241995 0.742440 1 0 1.0
caja_tapa
0 -12.401550 23.622000 42.271687 0.000000 1.000000 0.000000 0.174672 0.742440 1 0 1.0
0 -13.188950 23.622000 46.602387 0.000000 1.000000 0.000000 0.241995 0.742440 1 0 1.0
0 -12.401550 23.622000 46.602387 0.000000 1.000000 0.000000 0.241995 0.742440 1 0 1.0
caja_tapa
0 -12.401550 23.622000 46.602387 -0.000000 -0.000000 1.000000 0.241995 0.742440 1 0 1.0
0 -13.188950 23.622000 46.602387 -0.000000 -0.000000 1.000000 0.241995 0.742440 1 0 1.0
0 -13.188950 -23.622000 46.602387 -0.000000 -0.000000 1.000000 0.241995 0.008005 1 0 1.0
caja_tapa
0 -12.401550 23.622000 46.602387 -0.000000 -0.000000 1.000000 0.241995 0.742440 1 0 1.0
0 -13.188950 -23.622000 46.602387 -0.000000 -0.000000 1.000000 0.241995 0.008005 1 0 1.0
0 -12.401550 -23.622000 46.602387 -0.000000 -0.000000 1.000000 0.241995 0.008005 1 0 1.0
caja_tapa
0 -12.401550 -23.622000 46.602387 0.000000 -1.000000 0.000000 0.241995 0.008005 1 0 1.0
0 -13.188950 -23.622000 46.602387 0.000000 -1.000000 0.000000 0.241995 0.008005 1 0 1.0
0 -13.188950 -23.622000 42.271687 0.000000 -1.000000 0.000000 0.174672 0.008005 1 0 1.0
caja_tapa
0 -12.401550 -23.622000 46.602387 0.000000 -1.000000 0.000000 0.241995 0.008005 1 0 1.0
0 -13.188950 -23.622000 42.271687 0.000000 -1.000000 0.000000 0.174672 0.008005 1 0 1.0
0 -12.401550 -23.622000 42.271687 0.000000 -1.000000 0.000000 0.174672 0.008005 1 0 1.0
caja_tapa
0 -12.401550 -23.622000 42.271687 0.000000 -0.000000 -1.000000 0.174672 0.008005 1 0 1.0
0 -13.188950 -23.622000 42.271687 0.000000 -0.000000 -1.000000 0.174672 0.008005 1 0 1.0
0 -13.188950 23.622000 42.271687 0.000000 -0.000000 -1.000000 0.174672 0.742440 1 0 1.0
caja_tapa
0 -12.401550 -23.622000 42.271687 0.000000 -0.000000 -1.000000 0.174672 0.008005 1 0 1.0
0 -13.188950 23.622000 42.271687 0.000000 -0.000000 -1.000000 0.174672 0.742440 1 0 1.0
0 -12.401550 23.622000 42.271687 0.000000 -0.000000 -1.000000 0.174672 0.742440 1 0 1.0
caja_tapa
0 -12.401550 23.622000 46.602387 1.000000 -0.000000 0.000000 0.325328 0.008005 1 0 1.0
0 -12.401550 -23.622000 46.602387 1.000000 -0.000000 0.000000 0.325328 0.742440 1 0 1.0
0 -12.401550 -23.622000 42.271687 1.000000 -0.000000 0.000000 0.258005 0.742440 1 0 1.0
caja_tapa
0 -12.401550 23.622000 46.602387 1.000000 -0.000000 0.000000 0.325328 0.008005 1 0 1.0
0 -12.401550 -23.622000 42.271687 1.000000 -0.000000 0.000000 0.258005 0.742440 1 0 1.0
0 -12.401550 23.622000 42.271687 1.000000 -0.000000 0.000000 0.258005 0.008005 1 0 1.0
caja_tapa
0 -13.188950 -23.622000 46.602387 -1.000000 -0.000000 -0.000000 0.241995 0.008005 1 0 1.0
0 -13.188950 23.622000 46.602387 -1.000000 -0.000000 -0.000000 0.241995 0.742440 1 0 1.0
0 -13.188950 23.622000 42.271687 -1.000000 -0.000000 -0.000000 0.174672 0.742440 1 0 1.0
caja_tapa
0 -13.188950 -23.622000 46.602387 -1.000000 -0.000000 -0.000000 0.241995 0.008005 1 0 1.0
0 -13.188950 23.622000 42.271687 -1.000000 -0.000000 -0.000000 0.174672 0.742440 1 0 1.0
0 -13.188950 -23.622000 42.271687 -1.000000 -0.000000 -0.000000 0.174672 0.008005 1 0 1.0
caja_tapa
0 -12.401550 23.622000 47.389787 0.000000 1.000000 0.000000 0.341338 0.742440 1 0 1.0
0 -13.188950 23.622000 47.389787 0.000000 1.000000 0.000000 0.341338 0.742440 1 0 1.0
0 -13.188950 23.622000 51.720487 0.000000 1.000000 0.000000 0.408662 0.742440 1 0 1.0
caja_tapa
0 -12.401550 23.622000 47.389787 0.000000 1.000000 0.000000 0.341338 0.742440 1 0 1.0
0 -13.188950 23.622000 51.720487 0.000000 1.000000 0.000000 0.408662 0.742440 1 0 1.0
0 -12.401550 23.622000 51.720487 0.000000 1.000000 0.000000 0.408662 0.742440 1 0 1.0
caja_tapa
0 -12.401550 23.622000 51.720487 -0.000000 -0.000000 1.000000 0.408662 0.742440 1 0 1.0
0 -13.188950 23.622000 51.720487 -0.000000 -0.000000 1.000000 0.408662 0.742440 1 0 1.0
0 -13.188950 -23.622000 51.720487 -0.000000 -0.000000 1.000000 0.408662 0.008005 1 0 1.0
caja_tapa
0 -12.401550 23.622000 51.720487 -0.000000 -0.000000 1.000000 0.408662 0.742440 1 0 1.0
0 -13.188950 -23.622000 51.720487 -0.000000 -0.000000 1.000000 0.408662 0.008005 1 0 1.0
0 -12.401550 -23.622000 51.720487 -0.000000 -0.000000 1.000000 0.408662 0.008005 1 0 1.0
caja_tapa
0 -12.401550 -23.622000 51.720487 0.000000 -1.000000 0.000000 0.408662 0.008005 1 0 1.0
0 -13.188950 -23.622000 51.720487 0.000000 -1.000000 0.000000 0.408662 0.008005 1 0 1.0
0 -13.188950 -23.622000 47.389787 0.000000 -1.000000 0.000000 0.341338 0.008005 1 0 1.0
caja_tapa
0 -12.401550 -23.622000 51.720487 0.000000 -1.000000 0.000000 0.408662 0.008005 1 0 1.0
0 -13.188950 -23.622000 47.389787 0.000000 -1.000000 0.000000 0.341338 0.008005 1 0 1.0
0 -12.401550 -23.622000 47.389787 0.000000 -1.000000 0.000000 0.341338 0.008005 1 0 1.0
caja_tapa
0 -12.401550 -23.622000 47.389787 0.000000 -0.000000 -1.000000 0.341338 0.008005 1 0 1.0
0 -13.188950 -23.622000 47.389787 0.000000 -0.000000 -1.000000 0.341338 0.008005 1 0 1.0
0 -13.188950 23.622000 47.389787 0.000000 -0.000000 -1.000000 0.341338 0.742440 1 0 1.0
caja_tapa
0 -12.401550 -23.622000 47.389787 0.000000 -0.000000 -1.000000 0.341338 0.008005 1 0 1.0
0 -13.188950 23.622000 47.389787 0.000000 -0.000000 -1.000000 0.341338 0.742440 1 0 1.0
0 -12.401550 23.622000 47.389787 0.000000 -0.000000 -1.000000 0.341338 0.742440 1 0 1.0
caja_tapa
0 -12.401550 23.622000 51.720487 1.000000 -0.000000 0.000000 0.491995 0.008005 1 0 1.0
0 -12.401550 -23.622000 51.720487 1.000000 -0.000000 0.000000 0.491995 0.742440 1 0 1.0
0 -12.401550 -23.622000 47.389787 1.000000 -0.000000 0.000000 0.424672 0.742440 1 0 1.0
caja_tapa
0 -12.401550 23.622000 51.720487 1.000000 -0.000000 0.000000 0.491995 0.008005 1 0 1.0
0 -12.401550 -23.622000 47.389787 1.000000 -0.000000 0.000000 0.424672 0.742440 1 0 1.0
0 -12.401550 23.622000 47.389787 1.000000 -0.000000 0.000000 0.424672 0.008005 1 0 1.0
caja_tapa
0 -13.188950 -23.622000 51.720487 -1.000000 -0.000000 -0.000000 0.408662 0.008005 1 0 1.0
0 -13.188950 23.622000 51.720487 -1.000000 -0.000000 -0.000000 0.408662 0.742440 1 0 1.0
0 -13.188950 23.622000 47.389787 -1.000000 -0.000000 -0.000000 0.341338 0.742440 1 0 1.0
caja_tapa
0 -13.188950 -23.622000 51.720487 -1.000000 -0.000000 -0.000000 0.408662 0.008005 1 0 1.0
0 -13.188950 23.622000 47.389787 -1.000000 -0.000000 -0.000000 0.341338 0.742440 1 0 1.0
0 -13.188950 -23.622000 47.389787 -1.000000 -0.000000 -0.000000 0.341338 0.008005 1 0 1.0
end
