mtllib WhaleFin.mtl
g WhaleFin
usemtl Default
v 0.798658788 -0.253958315 0.124554433
v 0.456287801 -0.505490363 0.00717053562
v 0.429095209 -0.45355171 0.0682793632
v 0.88336271 0.0795269981 0.408954829
v 0.889734209 0.0202397965 0.335452884
v 0.872131765 -0.0657027811 0.417753547
v 0.912067771 -0.0834021345 0.195313901
v 0.921214283 0.00322748721 0.077688314
v 0.921728015 -0.173305303 0.158036381
v 0.839104593 0 0.482146651
v 0.857703149 -0.140815943 0.469802946
v 0.695057333 -0.106715694 0.358769387
v 0.695057333 -0.106715694 0.358769387
v 0.687844694 0 0.367686003
v 0.593822896 -0.106715694 0.276082188
v 0.567612588 0 0.272129506
v 0.95543474 -0.0775973201 -0.086181663
v 0.506101072 -0.439579844 -0.0929838642
v 0.912035406 -0.16823189 0.00372669846
v 0.593822896 -0.106715694 0.276082188
v 0.733492315 -0.208989978 0.259521991
v 0.429095209 -0.45355171 0.0682793632
v 0.923492849 0.154453024 0.284558922
v 0.889734209 0.0202397965 0.335452884
v 0.88336271 0.0795269981 0.408954829
v 0.923492849 0.154453024 0.284558922
v 0.927999437 0.172930866 0.183435231
v 0.887812018 0.0352096856 0.269924849
v 0.95543474 -0.0775973201 -0.086181663
v 0.940057218 0 -0.0912983641
v 0.525123537 0 -0.174824625
v 0.695057333 -0.106715694 0.358769387
v 0.733492315 -0.208989978 0.259521991
v 0.593822896 -0.106715694 0.276082188
v 0.798658788 -0.253958315 0.124554433
v 0.912035406 -0.16823189 0.00372669846
v 0.506101072 -0.439579844 -0.0929838642
v 0.593822896 -0.106715694 0.276082188
v 0.30842489 -0.187512964 0.132673174
v 0.567612588 0 0.272129506
v 0.857703149 -0.140815943 0.469802946
v 0.733492315 -0.208989978 0.259521991
v 0.695057333 -0.106715694 0.358769387
v 0.887812018 0.0352096856 0.269924849
v 0.889734209 0.0202397965 0.335452884
v 0.923492849 0.154453024 0.284558922
v 0.857703149 -0.140815943 0.469802946
v 0.894281924 -0.21531418 0.338338494
v 0.733492315 -0.208989978 0.259521991
v 0.921214283 0.00322748721 0.077688314
v 0.939629018 0.0330779776 -0.0543704256
v 0.937512338 -0.0737883598 -0.0333084092
v 0.912067771 -0.0834021345 0.195313901
v 0.921728015 -0.173305303 0.158036381
v 0.913417757 -0.168477088 0.293357104
v 0.88336271 0.0795269981 0.408954829
v 0.923281968 0.216454819 0.352553874
v 0.923492849 0.154453024 0.284558922
v 0.933629453 0.243098915 0.189712614
v 0.923492849 0.154453024 0.284558922
v 0.923281968 0.216454819 0.352553874
v 0.894281924 -0.21531418 0.338338494
v 0.892648757 -0.246396124 0.169928819
v 0.733492315 -0.208989978 0.259521991
v 0.733492315 -0.208989978 0.259521991
v 0.892648757 -0.246396124 0.169928819
v 0.798658788 -0.253958315 0.124554433
v 0.798658788 -0.253958315 0.124554433
v 0.892648757 -0.246396124 0.169928819
v 0.912035406 -0.16823189 0.00372669846
v 0.30842489 -0.187512964 0.132673174
v -0.196275294 -0.318696737 -0.00978340954
v -0.154263079 0 0.00479290634
v 0.30842489 0.187512964 0.132673174
v -0.196275294 0.318696737 -0.00978340954
v 0.456287801 -0.505490363 0.00717053562
v 0.172930658 -0.834312856 -0.0557745919
v 0.124170244 -0.73667556 0.0233185068
v 0.506101072 -0.439579844 -0.0929838642
v 0.534752309 -0.235549837 -0.175523072
v 0.012973249 -0.619084716 -0.31483236
v 0.456545234 -0.218562946 -0.225271016
v 0.446916461 0.0169868972 -0.224572569
v -0.0215211324 -0.021038359 -0.35694769
v 0.429095209 -0.45355171 0.0682793632
v -0.196275294 -0.318696737 -0.00978340954
v 0.30842489 -0.187512964 0.132673174
v 0.456287801 -0.505490363 0.00717053562
v 0.506101072 -0.439579844 -0.0929838642
v 0.208494127 -0.797591567 -0.204609424
v 0.0389122367 -1.09189773 -0.270110279
v 0.012973249 -0.619084716 -0.31483236
v -0.289908946 -1.29448175 -0.381370932
v -0.0215211324 -0.021038359 -0.35694769
v -0.35202989 -0.021038359 -0.407996058
v -0.0652338415 -0.602097809 -0.364580303
v -0.557698786 0 -0.360919148
v -0.720997393 -0.813041091 -0.317176491
v -0.856373847 -1.1104815 -0.429467231
v -0.629292071 -1.04617631 -0.452882081
v -0.856373847 -1.1104815 -0.429467231
v -0.971245348 -1.6665808 -0.445142776
v -0.629292071 -1.04617631 -0.452882081
v -0.574003756 -1.84150887 -0.492341787
v -0.34979111 -0.876417696 -0.415318161
v -0.412735999 0 -0.192864209
v -0.720997393 -0.813041091 -0.317176491
v -0.557698786 0 -0.360919148
v -1.08611727 -2.22268009 -0.460818321
v -0.765208781 -2.0929563 -0.471471936
v -0.574003756 -1.84150887 -0.492341787
v -0.971245348 -1.6665808 -0.445142776
v -0.567984164 -1.47755659 -0.204404861
v -1.08611727 -2.22268009 -0.460818321
v -0.52498585 -0.972643554 -0.152704984
v -0.567984164 -1.47755659 -0.204404861
v -0.971245348 -1.6665808 -0.445142776
v -0.882787287 -2.13737082 -0.399599105
v -1.08611727 -2.22268009 -0.460818321
v -0.567984164 -1.47755659 -0.204404861
v -0.765208781 -2.0929563 -0.471471936
v -1.08611727 -2.22268009 -0.460818321
v -0.882787287 -2.13737082 -0.399599105
v -0.629292071 -1.04617631 -0.452882081
v -0.35202989 -0.021038359 -0.407996058
v -0.557698786 0 -0.360919148
v -0.412735999 0 -0.192864209
v -0.195962965 -0.0173908714 -0.01822876
v -0.23797518 -0.336087614 -0.0328050777
v -0.196275294 -0.318696737 -0.00978340954
v 0.429095209 -0.45355171 0.0682793632
v 0.124170244 -0.73667556 0.0233185068
v -0.720997393 -0.813041091 -0.317176491
v -0.52498585 -0.972643554 -0.152704984
v -0.971245348 -1.6665808 -0.445142776
v -0.574003756 -1.84150887 -0.492341787
v -0.629292071 -1.04617631 -0.452882081
v -1.08611727 -2.22268009 -0.460818321
v -0.720997393 -0.813041091 -0.317176491
v -0.971245348 -1.6665808 -0.445142776
v -0.856373847 -1.1104815 -0.429467231
v -0.35202989 -0.021038359 -0.407996058
v -0.34979111 -0.876417696 -0.415318161
v -0.0652338415 -0.602097809 -0.364580303
v -0.34979111 -0.876417696 -0.415318161
v -0.574003756 -1.84150887 -0.492341787
v -0.368116021 -1.27749491 -0.431118876
v -0.34979111 -0.876417696 -0.415318161
v -0.35202989 -0.021038359 -0.407996058
v -0.629292071 -1.04617631 -0.452882081
v 0.506101072 -0.439579844 -0.0929838642
v 0.95543474 -0.0775973201 -0.086181663
v 0.534752309 -0.235549837 -0.175523072
v -0.154263079 0 0.00479290634
v 0.340267122 0 0.172238261
v 0.30842489 -0.187512964 0.132673174
v 0.30842489 -0.187512964 0.132673174
v 0.340267122 0 0.172238261
v 0.567612588 0 0.272129506
v -0.574003756 -1.84150887 -0.492341787
v -0.765208781 -2.0929563 -0.471471936
v -0.396163046 -1.71725488 -0.366089016
v -0.470471442 -1.69673872 -0.292361766
v -0.396163046 -1.71725488 -0.366089016
v -0.765208781 -2.0929563 -0.471471936
v -0.567984164 -1.47755659 -0.204404861
v -0.470471442 -1.69673872 -0.292361766
v -0.882787287 -2.13737082 -0.399599105
v -0.234701216 -1.43552744 -0.255810767
v -0.470471442 -1.69673872 -0.292361766
v -0.567984164 -1.47755659 -0.204404861
v 0.124170244 -0.73667556 0.0233185068
v -0.101829588 -0.946517885 -0.0259576067
v -0.196275294 -0.318696737 -0.00978340954
v 0.172930658 -0.834312856 -0.0557745919
v 0.208494127 -0.797591567 -0.204609424
v 0.0389122367 -1.09189773 -0.270110279
v 0.172930658 -0.834312856 -0.0557745919
v -0.0333567262 -1.15621114 -0.15828231
v -0.101829588 -0.946517885 -0.0259576067
v 0.012973249 -0.619084716 -0.31483236
v 0.0389122367 -1.09189773 -0.270110279
v 0.208494127 -0.797591567 -0.204609424
v -0.720997393 -0.813041091 -0.317176491
v -0.412735999 0 -0.192864209
v -0.470546782 -0.500929952 -0.18362692
v -0.368116021 -1.27749491 -0.431118876
v -0.574003756 -1.84150887 -0.492341787
v -0.396163046 -1.71725488 -0.366089016
v 0.906485796 -0.138700753 0.364999861
v 0.913417757 -0.168477088 0.293357104
v 0.894281924 -0.21531418 0.338338494
v 0.798658788 0.253958315 0.124554433
v 0.733492315 0.208989978 0.259521991
v 0.429095209 0.45355171 0.0682793632
v 0.912067771 -0.0834021345 0.195313901
v 0.890737891 -0.09036237 0.297032923
v 0.897212625 0.0875691548 0.124042369
v 0.872131765 -0.0657027811 0.417753547
v 0.890737891 -0.09036237 0.297032923
v 0.906485796 -0.138700753 0.364999861
v 0.95543474 0.0775973201 -0.086181663
v 0.912035406 0.16823189 0.00372669846
v 0.506101072 0.439579844 -0.0929838642
v 0.897212625 0.0875691548 0.124042369
v 0.924095273 0.0998378247 0.0374891534
v 0.921214283 0.00322748721 0.077688314
v 0.921728015 -0.173305303 0.158036381
v 0.912035406 -0.16823189 0.00372669846
v 0.892648757 -0.246396124 0.169928819
v 0.912035406 -0.16823189 0.00372669846
v 0.937512338 -0.0737883598 -0.0333084092
v 0.95543474 -0.0775973201 -0.086181663
v 0.940057218 0 -0.0912983641
v 0.939629018 0.0330779776 -0.0543704256
v 0.95543474 0.0775973201 -0.086181663
v 0.887812018 0.0352096856 0.269924849
v 0.890737891 -0.09036237 0.297032923
v 0.889734209 0.0202397965 0.335452884
v 0.429095209 0.45355171 0.0682793632
v 0.733492315 0.208989978 0.259521991
v 0.593822896 0.106715694 0.276082188
v 0.913417757 -0.168477088 0.293357104
v 0.890737891 -0.09036237 0.297032923
v 0.912067771 -0.0834021345 0.195313901
v 0.913417757 -0.168477088 0.293357104
v 0.906485796 -0.138700753 0.364999861
v 0.890737891 -0.09036237 0.297032923
v 0.525123537 0 -0.174824625
v 0.940057218 0 -0.0912983641
v 0.95543474 0.0775973201 -0.086181663
v 0.695057333 0.106715694 0.358769387
v 0.593822896 0.106715694 0.276082188
v 0.733492315 0.208989978 0.259521991
v 0.506101072 0.439579844 -0.0929838642
v 0.912035406 0.16823189 0.00372669846
v 0.798658788 0.253958315 0.124554433
v 0.593822896 0.106715694 0.276082188
v 0.567612588 0 0.272129506
v 0.30842489 0.187512964 0.132673174
v 0.857703149 0.140815943 0.469802946
v 0.695057333 0.106715694 0.358769387
v 0.733492315 0.208989978 0.259521991
v 0.857703149 0.140815943 0.469802946
v 0.733492315 0.208989978 0.259521991
v 0.923281968 0.216454819 0.352553874
v 0.889734209 0.0202397965 0.335452884
v 0.890737891 -0.09036237 0.297032923
v 0.872131765 -0.0657027811 0.417753547
v 0.906485796 -0.138700753 0.364999861
v 0.894281924 -0.21531418 0.338338494
v 0.857703149 -0.140815943 0.469802946
v 0.95543474 0.0775973201 -0.086181663
v 0.924095273 0.0998378247 0.0374891534
v 0.912035406 0.16823189 0.00372669846
v 0.923492849 0.154453024 0.284558922
v 0.933629453 0.243098915 0.189712614
v 0.927999437 0.172930866 0.183435231
v 0.921214283 0.00322748721 0.077688314
v 0.924095273 0.0998378247 0.0374891534
v 0.939629018 0.0330779776 -0.0543704256
v 0.839104593 0 0.482146651
v 0.872131765 -0.0657027811 0.417753547
v 0.857703149 -0.140815943 0.469802946
v 0.937512338 -0.0737883598 -0.0333084092
v 0.912035406 -0.16823189 0.00372669846
v 0.921214283 0.00322748721 0.077688314
v 0.857703149 -0.140815943 0.469802946
v 0.872131765 -0.0657027811 0.417753547
v 0.906485796 -0.138700753 0.364999861
v 0.939629018 0.0330779776 -0.0543704256
v 0.924095273 0.0998378247 0.0374891534
v 0.95543474 0.0775973201 -0.086181663
v 0.95543474 -0.0775973201 -0.086181663
v 0.937512338 -0.0737883598 -0.0333084092
v 0.940057218 0 -0.0912983641
v 0.897212625 0.0875691548 0.124042369
v 0.927999437 0.172930866 0.183435231
v 0.924095273 0.0998378247 0.0374891534
v 0.887812018 0.0352096856 0.269924849
v 0.927999437 0.172930866 0.183435231
v 0.897212625 0.0875691548 0.124042369
v 0.923281968 0.216454819 0.352553874
v 0.733492315 0.208989978 0.259521991
v 0.933629453 0.243098915 0.189712614
v 0.733492315 0.208989978 0.259521991
v 0.798658788 0.253958315 0.124554433
v 0.933629453 0.243098915 0.189712614
v 0.798658788 0.253958315 0.124554433
v 0.912035406 0.16823189 0.00372669846
v 0.933629453 0.243098915 0.189712614
v 0.456287801 0.505490363 0.00717053562
v 0.429095209 0.45355171 0.0682793632
v 0.124170244 0.73667556 0.0233185068
v 0.012973249 0.619084716 -0.31483236
v 0.534752309 0.235549837 -0.175523072
v 0.506101072 0.439579844 -0.0929838642
v 0.00350421667 0 -0.339918524
v 0.446916461 0.0169868972 -0.224572569
v 0.534752309 0.235549837 -0.175523072
v 0.429095209 0.45355171 0.0682793632
v 0.30842489 0.187512964 0.132673174
v -0.196275294 0.318696737 -0.00978340954
v 0.208494127 0.797591567 -0.204609424
v 0.506101072 0.439579844 -0.0929838642
v 0.456287801 0.505490363 0.00717053562
v -0.23797518 0.30130586 -0.0328050777
v -0.412735999 0 -0.192864209
v -0.470546782 0.500929952 -0.18362692
v -0.289908946 1.29448175 -0.381370932
v 0.012973249 0.619084716 -0.31483236
v 0.0389122367 1.09189773 -0.270110279
v 0.00350421667 0 -0.339918524
v 0.012973249 0.619084716 -0.31483236
v -0.327004552 0 -0.390966892
v -0.557698786 0 -0.360919148
v -0.856373847 1.1104815 -0.429467231
v -0.720997393 0.813041091 -0.317176491
v -0.971245348 1.6665808 -0.445142776
v -0.856373847 1.1104815 -0.429467231
v -0.654317439 1.0251379 -0.469911247
v -0.629292071 1.04617631 -0.452882081
v -0.34979111 0.876417696 -0.415318161
v -0.574003756 1.84150887 -0.492341787
v -0.412735999 0 -0.192864209
v -0.557698786 0 -0.360919148
v -0.720997393 0.813041091 -0.317176491
v -1.08611727 2.22268009 -0.460818321
v -0.574003756 1.84150887 -0.492341787
v -0.765208781 2.0929563 -0.471471936
v -0.971245348 1.6665808 -0.445142776
v -1.08611727 2.22268009 -0.460818321
v -0.567984164 1.47755659 -0.204404861
v -0.52498585 0.972643554 -0.152704984
v -0.971245348 1.6665808 -0.445142776
v -0.567984164 1.47755659 -0.204404861
v -0.882787287 2.13737082 -0.399599105
v -0.567984164 1.47755659 -0.204404861
v -1.08611727 2.22268009 -0.460818321
v -0.765208781 2.0929563 -0.471471936
v -0.882787287 2.13737082 -0.399599105
v -1.08611727 2.22268009 -0.460818321
v -0.654317439 1.0251379 -0.469911247
v -0.856373847 1.1104815 -0.429467231
v -0.557698786 0 -0.360919148
v -0.412735999 0 -0.192864209
v -0.23797518 0.30130586 -0.0328050777
v -0.195962965 -0.0173908714 -0.01822876
v -0.196275294 0.318696737 -0.00978340954
v 0.124170244 0.73667556 0.0233185068
v 0.429095209 0.45355171 0.0682793632
v -0.720997393 0.813041091 -0.317176491
v -0.971245348 1.6665808 -0.445142776
v -0.566685736 0.955252707 -0.175726652
v -0.574003756 1.84150887 -0.492341787
v -1.08611727 2.22268009 -0.460818321
v -0.654317439 1.0251379 -0.469911247
v -0.720997393 0.813041091 -0.317176491
v -0.856373847 1.1104815 -0.429467231
v -0.971245348 1.6665808 -0.445142776
v -0.327004552 0 -0.390966892
v 0.012973249 0.619084716 -0.31483236
v -0.34979111 0.876417696 -0.415318161
v -0.34979111 0.876417696 -0.415318161
v 0.012973249 0.619084716 -0.31483236
v -0.289908946 1.29448175 -0.381370932
v -0.34979111 0.876417696 -0.415318161
v -0.629292071 1.04617631 -0.452882081
v -0.327004552 0 -0.390966892
v 0.506101072 0.439579844 -0.0929838642
v 0.534752309 0.235549837 -0.175523072
v 0.95543474 0.0775973201 -0.086181663
v -0.154263079 0 0.00479290634
v 0.30842489 0.187512964 0.132673174
v 0.340267122 0 0.172238261
v 0.30842489 0.187512964 0.132673174
v 0.567612588 0 0.272129506
v 0.340267122 0 0.172238261
v -0.574003756 1.84150887 -0.492341787
v -0.396163046 1.71725488 -0.366089016
v -0.765208781 2.0929563 -0.471471936
v -0.765208781 2.0929563 -0.471471936
v -0.396163046 1.71725488 -0.366089016
v -0.470471442 1.69673872 -0.292361766
v -0.567984164 1.47755659 -0.204404861
v -0.882787287 2.13737082 -0.399599105
v -0.470471442 1.69673872 -0.292361766
v -0.567984164 1.47755659 -0.204404861
v -0.470471442 1.69673872 -0.292361766
v -0.234701216 1.43552744 -0.255810767
v 0.124170244 0.73667556 0.0233185068
v -0.196275294 0.318696737 -0.00978340954
v -0.101829588 0.946517885 -0.0259576067
v 0.0389122367 1.09189773 -0.270110279
v 0.208494127 0.797591567 -0.204609424
v 0.172930658 0.834312856 -0.0557745919
v 0.172930658 0.834312856 -0.0557745919
v 0.124170244 0.73667556 0.0233185068
v -0.101829588 0.946517885 -0.0259576067
v 0.012973249 0.619084716 -0.31483236
v 0.208494127 0.797591567 -0.204609424
v 0.0389122367 1.09189773 -0.270110279
v -0.720997393 0.813041091 -0.317176491
v -0.470546782 0.500929952 -0.18362692
v -0.412735999 0 -0.192864209
v 0.887812018 0.0352096856 0.269924849
v 0.897212625 0.0875691548 0.124042369
v 0.890737891 -0.09036237 0.297032923
v 0.921214283 0.00322748721 0.077688314
v 0.912035406 -0.16823189 0.00372669846
v 0.921728015 -0.173305303 0.158036381
v 0.940057218 0 -0.0912983641
v 0.937512338 -0.0737883598 -0.0333084092
v 0.939629018 0.0330779776 -0.0543704256
v 0.912035406 0.16823189 0.00372669846
v 0.924095273 0.0998378247 0.0374891534
v 0.927999437 0.172930866 0.183435231
v 0.897212625 0.0875691548 0.124042369
v 0.921214283 0.00322748721 0.077688314
v 0.912067771 -0.0834021345 0.195313901
v 0.872131765 -0.0657027811 0.417753547
v 0.839104593 0 0.482146651
v 0.857703149 0.140815943 0.469802946
v 0.912035406 0.16823189 0.00372669846
v 0.927999437 0.172930866 0.183435231
v 0.933629453 0.243098915 0.189712614
v -0.2054649 -1.47906899 -0.317330152
v -0.218418404 -1.47489643 -0.295541614
v -0.366291791 -1.27653217 -0.39993012
v 0.50534755 -0.224757731 -0.159462243
v 0.456247777 -0.215371326 -0.193730071
v -0.00823942572 -0.613118172 -0.298297524
v -0.289908946 -1.29448175 -0.381370932
v -0.317640215 -1.28709936 -0.368982613
v -0.218418404 -1.47489643 -0.295541614
v 0.012973249 -0.619084716 -0.31483236
v 0.534752309 -0.235549837 -0.175523072
v 0.50534755 -0.224757731 -0.159462243
v 0.456545234 -0.218562946 -0.225271016
v -0.0652338415 -0.602097809 -0.364580303
v -0.0699281916 -0.599719107 -0.337538064
v 0.446916461 0.0169868972 -0.224572569
v 0.446619004 0.0201785099 -0.193031624
v 0.505948067 0.211793587 -0.148045793
v 0.525123537 0 -0.174824625
v 0.534752309 0.235549837 -0.175523072
v 0.505948067 0.211793587 -0.148045793
v -0.0652338415 -0.602097809 -0.364580303
v -0.368116021 -1.27749491 -0.431118876
v -0.366291791 -1.27653217 -0.39993012
v -0.289908946 -1.29448175 -0.381370932
v 0.012973249 -0.619084716 -0.31483236
v -0.00823942572 -0.613118172 -0.298297524
v -0.101829588 -0.946517885 -0.0259576067
v -0.23797518 -0.336087614 -0.0328050777
v -0.211253241 -0.33373031 -0.0740967318
v -0.196275294 0.318696737 -0.00978340954
v -0.176839054 0.318015546 -0.0550973453
v -0.501583517 0.973616421 -0.195829317
v -0.23797518 0.30130586 -0.0328050777
v -0.566685736 0.955252707 -0.175726652
v -0.543283403 0.956225574 -0.218850985
v -0.196275294 -0.318696737 -0.00978340954
v -0.176192567 -0.319108307 -0.0547404326
v -0.13638176 -0.00132965948 -0.0413794667
v -0.101829588 -0.946517885 -0.0259576067
v -0.0784272477 -0.945545018 -0.0690819472
v -0.176192567 -0.319108307 -0.0547404326
v -0.327004552 0 -0.390966892
v -0.629292071 1.04617631 -0.452882081
v -0.660732925 1.03444648 -0.40108937
v -0.629292071 1.04617631 -0.452882081
v -0.574003756 1.84150887 -0.492341787
v -0.602652609 1.83212626 -0.438649178
v -0.35202989 -0.021038359 -0.407996058
v -0.375590384 -0.0261432268 -0.350840956
v -0.680174291 1.01810253 -0.41431874
v -0.654317439 1.0251379 -0.469911247
v -0.680174291 1.01810253 -0.41431874
v -0.602652609 1.83212626 -0.438649178
v 0.798658788 -0.253958315 0.124554433
v 0.429095209 -0.45355171 0.0682793632
v 0.733492315 -0.208989978 0.259521991
v 0.593822896 -0.106715694 0.276082188
v 0.429095209 -0.45355171 0.0682793632
v 0.30842489 -0.187512964 0.132673174
v 0.95543474 -0.0775973201 -0.086181663
v 0.525123537 0 -0.174824625
v 0.534752309 -0.235549837 -0.175523072
v 0.798658788 -0.253958315 0.124554433
v 0.506101072 -0.439579844 -0.0929838642
v 0.456287801 -0.505490363 0.00717053562
v 0.456287801 -0.505490363 0.00717053562
v 0.124170244 -0.73667556 0.0233185068
v 0.429095209 -0.45355171 0.0682793632
v 0.506101072 -0.439579844 -0.0929838642
v 0.012973249 -0.619084716 -0.31483236
v 0.208494127 -0.797591567 -0.204609424
v 0.456545234 -0.218562946 -0.225271016
v -0.0215211324 -0.021038359 -0.35694769
v -0.0652338415 -0.602097809 -0.364580303
v 0.456287801 -0.505490363 0.00717053562
v 0.208494127 -0.797591567 -0.204609424
v 0.172930658 -0.834312856 -0.0557745919
v 0.0389122367 -1.09189773 -0.270110279
v -0.289908946 -1.29448175 -0.381370932
v -0.2054649 -1.47906899 -0.317330152
v -0.368116021 -1.27749491 -0.431118876
v -0.396163046 -1.71725488 -0.366089016
v -0.0333567262 -1.15621114 -0.15828231
v -0.2054649 -1.47906899 -0.317330152
v -0.234701216 -1.43552744 -0.255810767
v -0.234701216 -1.43552744 -0.255810767
v -0.396163046 -1.71725488 -0.366089016
v -0.470471442 -1.69673872 -0.292361766
v -0.629292071 -1.04617631 -0.452882081
v -0.971245348 -1.6665808 -0.445142776
v -1.08611727 -2.22268009 -0.460818321
v -0.629292071 -1.04617631 -0.452882081
v -0.557698786 0 -0.360919148
v -0.856373847 -1.1104815 -0.429467231
v -0.34979111 -0.876417696 -0.415318161
v -0.368116021 -1.27749491 -0.431118876
v -0.0652338415 -0.602097809 -0.364580303
v -0.470471442 -1.69673872 -0.292361766
v -0.765208781 -2.0929563 -0.471471936
v -0.882787287 -2.13737082 -0.399599105
v 0.172930658 -0.834312856 -0.0557745919
v -0.101829588 -0.946517885 -0.0259576067
v 0.124170244 -0.73667556 0.0233185068
v 0.798658788 0.253958315 0.124554433
v 0.429095209 0.45355171 0.0682793632
v 0.456287801 0.505490363 0.00717053562
v 0.429095209 0.45355171 0.0682793632
v 0.593822896 0.106715694 0.276082188
v 0.30842489 0.187512964 0.132673174
v 0.525123537 0 -0.174824625
v 0.95543474 0.0775973201 -0.086181663
v 0.534752309 0.235549837 -0.175523072
v 0.506101072 0.439579844 -0.0929838642
v 0.798658788 0.253958315 0.124554433
v 0.456287801 0.505490363 0.00717053562
v 0.456287801 0.505490363 0.00717053562
v 0.124170244 0.73667556 0.0233185068
v 0.172930658 0.834312856 -0.0557745919
v 0.012973249 0.619084716 -0.31483236
v 0.506101072 0.439579844 -0.0929838642
v 0.208494127 0.797591567 -0.204609424
v 0.00350421667 0 -0.339918524
v 0.534752309 0.235549837 -0.175523072
v 0.012973249 0.619084716 -0.31483236
v 0.208494127 0.797591567 -0.204609424
v 0.456287801 0.505490363 0.00717053562
v 0.172930658 0.834312856 -0.0557745919
v -0.2054649 1.47906899 -0.317330152
v -0.0333567262 1.15621114 -0.15828231
v -0.234701216 1.43552744 -0.255810767
v -0.971245348 1.6665808 -0.445142776
v -0.654317439 1.0251379 -0.469911247
v -1.08611727 2.22268009 -0.460818321
v -0.654317439 1.0251379 -0.469911247
v -0.557698786 0 -0.360919148
v -0.35202989 -0.021038359 -0.407996058
v -0.34979111 0.876417696 -0.415318161
v -0.289908946 1.29448175 -0.381370932
v -0.574003756 1.84150887 -0.492341787
v -0.765208781 2.0929563 -0.471471936
v -0.470471442 1.69673872 -0.292361766
v -0.882787287 2.13737082 -0.399599105
v 0.172930658 0.834312856 -0.0557745919
v -0.101829588 0.946517885 -0.0259576067
v -0.0333567262 1.15621114 -0.15828231
v -0.289908946 1.29448175 -0.381370932
v -0.396163046 1.71725488 -0.366089016
v -0.574003756 1.84150887 -0.492341787
v -0.2054649 -1.47906899 -0.317330152
v -0.366291791 -1.27653217 -0.39993012
v -0.368116021 -1.27749491 -0.431118876
v -0.317640215 -1.28709936 -0.368982613
v -0.366291791 -1.27653217 -0.39993012
v -0.218418404 -1.47489643 -0.295541614
v -0.00823942572 -0.613118172 -0.298297524
v 0.456247777 -0.215371326 -0.193730071
v -0.0699281916 -0.599719107 -0.337538064
v -0.289908946 -1.29448175 -0.381370932
v -0.218418404 -1.47489643 -0.295541614
v -0.2054649 -1.47906899 -0.317330152
v 0.012973249 -0.619084716 -0.31483236
v 0.50534755 -0.224757731 -0.159462243
v -0.00823942572 -0.613118172 -0.298297524
v 0.456545234 -0.218562946 -0.225271016
v -0.0699281916 -0.599719107 -0.337538064
v 0.456247777 -0.215371326 -0.193730071
v 0.446916461 0.0169868972 -0.224572569
v 0.505948067 0.211793587 -0.148045793
v 0.534752309 0.235549837 -0.175523072
v 0.525123537 0 -0.174824625
v 0.505948067 0.211793587 -0.148045793
v 0.495718777 0.0107920915 -0.158763796
v -0.0652338415 -0.602097809 -0.364580303
v -0.366291791 -1.27653217 -0.39993012
v -0.0699281916 -0.599719107 -0.337538064
v -0.289908946 -1.29448175 -0.381370932
v -0.00823942572 -0.613118172 -0.298297524
v -0.317640215 -1.28709936 -0.368982613
v -0.101829588 -0.946517885 -0.0259576067
v -0.211253241 -0.33373031 -0.0740967318
v -0.0784272477 -0.945545018 -0.0690819472
v -0.501583517 0.973616421 -0.195829317
v -0.543283403 0.956225574 -0.218850985
v -0.947843015 1.66755366 -0.488267124
v -0.211253241 -0.33373031 -0.0740967318
v -0.176192567 -0.319108307 -0.0547404326
v -0.0784272477 -0.945545018 -0.0690819472
v -0.196275294 0.318696737 -0.00978340954
v -0.501583517 0.973616421 -0.195829317
v -0.52498585 0.972643554 -0.152704984
v -0.23797518 0.30130586 -0.0328050777
v -0.543283403 0.956225574 -0.218850985
v -0.210606754 0.303932786 -0.0737398192
v -0.196275294 -0.318696737 -0.00978340954
v -0.13638176 -0.00132965948 -0.0413794667
v -0.154263079 0 0.00479290634
v -0.101829588 -0.946517885 -0.0259576067
v -0.176192567 -0.319108307 -0.0547404326
v -0.196275294 -0.318696737 -0.00978340954
v -0.327004552 0 -0.390966892
v -0.660732925 1.03444648 -0.40108937
v -0.360741764 -0.0136602418 -0.340736777
v -0.680174291 1.01810253 -0.41431874
v -0.660732925 1.03444648 -0.40108937
v -0.602652609 1.83212626 -0.438649178
v -0.0284298975 -0.0121444222 -0.288461477
v -0.0468847044 -0.0276590474 -0.30101952
v 0.418267608 0.00760434195 -0.17087996
v -0.629292071 1.04617631 -0.452882081
v -0.602652609 1.83212626 -0.438649178
v -0.660732925 1.03444648 -0.40108937
v -0.35202989 -0.021038359 -0.407996058
v -0.680174291 1.01810253 -0.41431874
v -0.654317439 1.0251379 -0.469911247
v -0.654317439 1.0251379 -0.469911247
v -0.602652609 1.83212626 -0.438649178
v -0.574003756 1.84150887 -0.492341787
v 0.857703149 0.140815943 0.469802946
v 0.88336271 0.0795269981 0.408954829
v 0.872131765 -0.0657027811 0.417753547
v 0.923281968 0.216454819 0.352553874
v -0.23797518 -0.336087614 -0.0328050777
v -0.470546782 -0.500929952 -0.18362692
v -0.412735999 0 -0.192864209
v -0.52498585 -0.972643554 -0.152704984
v -0.720997393 -0.813041091 -0.317176491
v -0.0333567262 -1.15621114 -0.15828231
v -0.567984164 -1.47755659 -0.204404861
v -0.101829588 -0.946517885 -0.0259576067
v -0.234701216 -1.43552744 -0.255810767
v -0.101829588 -0.946517885 -0.0259576067
v -0.52498585 -0.972643554 -0.152704984
v -0.23797518 -0.336087614 -0.0328050777
v -0.567984164 -1.47755659 -0.204404861
v -0.0333567262 -1.15621114 -0.15828231
v 0.0389122367 -1.09189773 -0.270110279
v -0.2054649 -1.47906899 -0.317330152
v 0.172930658 -0.834312856 -0.0557745919
v 0.687844694 0 0.367686003
v 0.567612588 0 0.272129506
v 0.593822896 0.106715694 0.276082188
v 0.695057333 0.106715694 0.358769387
v 0.839104593 0 0.482146651
v 0.857703149 0.140815943 0.469802946
v 0.894281924 -0.21531418 0.338338494
v 0.913417757 -0.168477088 0.293357104
v 0.892648757 -0.246396124 0.169928819
v 0.921728015 -0.173305303 0.158036381
v -0.0333567262 1.15621114 -0.15828231
v -0.101829588 0.946517885 -0.0259576067
v -0.567984164 1.47755659 -0.204404861
v -0.234701216 1.43552744 -0.255810767
v -0.101829588 0.946517885 -0.0259576067
v -0.196275294 0.318696737 -0.00978340954
v -0.52498585 0.972643554 -0.152704984
v -0.567984164 1.47755659 -0.204404861
v -0.2054649 1.47906899 -0.317330152
v 0.0389122367 1.09189773 -0.270110279
v -0.0333567262 1.15621114 -0.15828231
v 0.172930658 0.834312856 -0.0557745919
v -0.566685736 0.955252707 -0.175726652
v -0.470546782 0.500929952 -0.18362692
v -0.720997393 0.813041091 -0.317176491
v -0.23797518 0.30130586 -0.0328050777
v -0.289908946 1.29448175 -0.381370932
v -0.2054649 1.47906899 -0.317330152
v -0.396163046 1.71725488 -0.366089016
v 0.0389122367 1.09189773 -0.270110279
v -0.396163046 1.71725488 -0.366089016
v -0.2054649 1.47906899 -0.317330152
v -0.234701216 1.43552744 -0.255810767
v -0.470471442 1.69673872 -0.292361766
v 0.525123537 0 -0.174824625
v 0.495718777 0.0107920915 -0.158763796
v 0.50534755 -0.224757731 -0.159462243
v 0.534752309 -0.235549837 -0.175523072
v 0.446916461 0.0169868972 -0.224572569
v 0.456545234 -0.218562946 -0.225271016
v 0.456247777 -0.215371326 -0.193730071
v 0.446619004 0.0201785099 -0.193031624
v -0.210606754 0.303932786 -0.0737398192
v -0.13638176 -0.00132965948 -0.0413794667
v -0.167039618 -0.0141154742 -0.0583050549
v -0.176839054 0.318015546 -0.0550973453
v -0.501583517 0.973616421 -0.195829317
v -0.543283403 0.956225574 -0.218850985
v -0.23797518 0.30130586 -0.0328050777
v -0.210606754 0.303932786 -0.0737398192
v -0.167039618 -0.0141154742 -0.0583050549
v -0.195962965 -0.0173908714 -0.01822876
v -0.971245348 1.6665808 -0.445142776
v -0.52498585 0.972643554 -0.152704984
v -0.501583517 0.973616421 -0.195829317
v -0.947843015 1.66755366 -0.488267124
v -0.154263079 0 0.00479290634
v -0.13638176 -0.00132965948 -0.0413794667
v -0.176839054 0.318015546 -0.0550973453
v -0.196275294 0.318696737 -0.00978340954
v -0.195962965 -0.0173908714 -0.01822876
v -0.167039618 -0.0141154742 -0.0583050549
v -0.211253241 -0.33373031 -0.0740967318
v -0.23797518 -0.336087614 -0.0328050777
v -0.971245348 1.6665808 -0.445142776
v -0.947843015 1.66755366 -0.488267124
v -0.543283403 0.956225574 -0.218850985
v -0.566685736 0.955252707 -0.175726652
v -0.0468847044 -0.0276590474 -0.30101952
v -0.360741764 -0.0136602418 -0.340736777
v -0.375590384 -0.0261432268 -0.350840956
v -0.0284298975 -0.0121444222 -0.288461477
v 0.00350421667 0 -0.339918524
v -0.0284298975 -0.0121444222 -0.288461477
v 0.418267608 0.00760434195 -0.17087996
v 0.446916461 0.0169868972 -0.224572569
v -0.327004552 0 -0.390966892
v -0.360741764 -0.0136602418 -0.340736777
v -0.0284298975 -0.0121444222 -0.288461477
v 0.00350421667 0 -0.339918524
v -0.35202989 -0.021038359 -0.407996058
v -0.0215211324 -0.021038359 -0.35694769
v -0.0468847044 -0.0276590474 -0.30101952
v -0.375590384 -0.0261432268 -0.350840956
v -0.0215211324 -0.021038359 -0.35694769
v 0.446916461 0.0169868972 -0.224572569
v 0.418267608 0.00760434195 -0.17087996
v -0.0468847044 -0.0276590474 -0.30101952
v 0.446619004 0.0201785099 -0.193031624
v 0.495718777 0.0107920915 -0.158763796
v 0.505948067 0.211793587 -0.148045793
v 0.456247777 -0.215371326 -0.193730071
v 0.50534755 -0.224757731 -0.159462243
v -0.317640215 -1.28709936 -0.368982613
v -0.0699281916 -0.599719107 -0.337538064
v -0.366291791 -1.27653217 -0.39993012
v -0.00823942572 -0.613118172 -0.298297524
v -0.167039618 -0.0141154742 -0.0583050549
v -0.176192567 -0.319108307 -0.0547404326
v -0.211253241 -0.33373031 -0.0740967318
v -0.13638176 -0.00132965948 -0.0413794667
v -0.680174291 1.01810253 -0.41431874
v -0.360741764 -0.0136602418 -0.340736777
v -0.660732925 1.03444648 -0.40108937
v -0.375590384 -0.0261432268 -0.350840956
vt 0.980957031 0.639648438
vt 0.980957031 0.639648438
vt 0.980957031 0.639648438
vt 0.0154037476 0.888671875
vt 0.0154037476 0.888671875
vt 0.0154037476 0.888671875
vt 0.0154037476 0.888671875
vt 0.0154037476 0.888671875
vt 0.0154037476 0.888671875
vt 0.980957031 0.639648438
vt 0.980957031 0.639648438
vt 0.980957031 0.639648438
vt 0.980957031 0.639648438
vt 0.980957031 0.639648438
vt 0.980957031 0.639648438
vt 0.980957031 0.639648438
vt 0.980957031 0.639648438
vt 0.980957031 0.639648438
vt 0.980957031 0.639648438
vt 0.980957031 0.639648438
vt 0.980957031 0.639648438
vt 0.980957031 0.639648438
vt 0.0154037476 0.888671875
vt 0.0154037476 0.888671875
vt 0.0154037476 0.888671875
vt 0.0154037476 0.888671875
vt 0.0154037476 0.888671875
vt 0.0154037476 0.888671875
vt 0.980957031 0.639648438
vt 0.980957031 0.639648438
vt 0.980957031 0.639648438
vt 0.980957031 0.639648438
vt 0.980957031 0.639648438
vt 0.980957031 0.639648438
vt 0.980957031 0.639648438
vt 0.980957031 0.639648438
vt 0.980957031 0.639648438
vt 0.980957031 0.639648438
vt 0.980957031 0.639648438
vt 0.980957031 0.639648438
vt 0.980957031 0.639648438
vt 0.980957031 0.639648438
vt 0.980957031 0.639648438
vt 0.0154037476 0.888671875
vt 0.0154037476 0.888671875
vt 0.0154037476 0.888671875
vt 0.980957031 0.639648438
vt 0.980957031 0.639648438
vt 0.980957031 0.639648438
vt 0.0154037476 0.888671875
vt 0.0154037476 0.888671875
vt 0.0154037476 0.888671875
vt 0.0154037476 0.888671875
vt 0.0154037476 0.888671875
vt 0.0154037476 0.888671875
vt 0.0154037476 0.888671875
vt 0.0154037476 0.888671875
vt 0.0154037476 0.888671875
vt 0.0154037476 0.888671875
vt 0.0154037476 0.888671875
vt 0.0154037476 0.888671875
vt 0.980957031 0.639648438
vt 0.980957031 0.639648438
vt 0.980957031 0.639648438
vt 0.980957031 0.639648438
vt 0.980957031 0.639648438
vt 0.980957031 0.639648438
vt 0.980957031 0.639648438
vt 0.980957031 0.639648438
vt 0.980957031 0.639648438
vt 0.980957031 0.639648438
vt 0.980957031 0.639648438
vt 0.980957031 0.639648438
vt 0.980957031 0.639648438
vt 0.980957031 0.639648438
vt 0.980957031 0.639648438
vt 0.980957031 0.639648438
vt 0.980957031 0.639648438
vt 0.980957031 0.639648438
vt 0.980957031 0.639648438
vt 0.980957031 0.639648438
vt 0.980957031 0.639648438
vt 0.980957031 0.639648438
vt 0.980957031 0.639648438
vt 0.980957031 0.639648438
vt 0.980957031 0.639648438
vt 0.980957031 0.639648438
vt 0.980957031 0.639648438
vt 0.980957031 0.639648438
vt 0.980957031 0.639648438
vt 0.980957031 0.639648438
vt 0.980957031 0.639648438
vt 0.980957031 0.639648438
vt 0.980957031 0.639648438
vt 0.980957031 0.639648438
vt 0.980957031 0.639648438
vt 0.980957031 0.639648438
vt 0.980957031 0.639648438
vt 0.980957031 0.639648438
vt 0.980957031 0.639648438
vt 0.980957031 0.639648438
vt 0.980957031 0.639648438
vt 0.980957031 0.639648438
vt 0.980957031 0.639648438
vt 0.980957031 0.639648438
vt 0.980957031 0.639648438
vt 0.980957031 0.639648438
vt 0.980957031 0.639648438
vt 0.980957031 0.639648438
vt 0.980957031 0.639648438
vt 0.980957031 0.639648438
vt 0.980957031 0.639648438
vt 0.980957031 0.639648438
vt 0.980957031 0.639648438
vt 0.980957031 0.639648438
vt 0.980957031 0.639648438
vt 0.980957031 0.639648438
vt 0.980957031 0.639648438
vt 0.980957031 0.639648438
vt 0.980957031 0.639648438
vt 0.980957031 0.639648438
vt 0.980957031 0.639648438
vt 0.980957031 0.639648438
vt 0.980957031 0.639648438
vt 0.980957031 0.639648438
vt 0.980957031 0.639648438
vt 0.980957031 0.639648438
vt 0.980957031 0.639648438
vt 0.980957031 0.639648438
vt 0.980957031 0.639648438
vt 0.980957031 0.639648438
vt 0.980957031 0.639648438
vt 0.980957031 0.639648438
vt 0.980957031 0.639648438
vt 0.980957031 0.639648438
vt 0.980957031 0.639648438
vt 0.980957031 0.639648438
vt 0.980957031 0.639648438
vt 0.980957031 0.639648438
vt 0.980957031 0.639648438
vt 0.980957031 0.639648438
vt 0.980957031 0.639648438
vt 0.980957031 0.639648438
vt 0.980957031 0.639648438
vt 0.980957031 0.639648438
vt 0.980957031 0.639648438
vt 0.980957031 0.639648438
vt 0.980957031 0.639648438
vt 0.980957031 0.639648438
vt 0.980957031 0.639648438
vt 0.980957031 0.639648438
vt 0.980957031 0.639648438
vt 0.980957031 0.639648438
vt 0.980957031 0.639648438
vt 0.980957031 0.639648438
vt 0.980957031 0.639648438
vt 0.980957031 0.639648438
vt 0.980957031 0.639648438
vt 0.980957031 0.639648438
vt 0.980957031 0.639648438
vt 0.980957031 0.639648438
vt 0.980957031 0.639648438
vt 0.980957031 0.639648438
vt 0.980957031 0.639648438
vt 0.980957031 0.639648438
vt 0.980957031 0.639648438
vt 0.980957031 0.639648438
vt 0.980957031 0.639648438
vt 0.980957031 0.639648438
vt 0.980957031 0.639648438
vt 0.980957031 0.639648438
vt 0.980957031 0.639648438
vt 0.980957031 0.639648438
vt 0.980957031 0.639648438
vt 0.980957031 0.639648438
vt 0.980957031 0.639648438
vt 0.980957031 0.639648438
vt 0.980957031 0.639648438
vt 0.980957031 0.639648438
vt 0.980957031 0.639648438
vt 0.980957031 0.639648438
vt 0.980957031 0.639648438
vt 0.980957031 0.639648438
vt 0.980957031 0.639648438
vt 0.980957031 0.639648438
vt 0.980957031 0.639648438
vt 0.980957031 0.639648438
vt 0.980957031 0.639648438
vt 0.980957031 0.639648438
vt 0.0154037476 0.888671875
vt 0.0154037476 0.888671875
vt 0.0154037476 0.888671875
vt 0.980957031 0.639648438
vt 0.980957031 0.639648438
vt 0.980957031 0.639648438
vt 0.0154037476 0.888671875
vt 0.0154037476 0.888671875
vt 0.0154037476 0.888671875
vt 0.0154037476 0.888671875
vt 0.0154037476 0.888671875
vt 0.0154037476 0.888671875
vt 0.980957031 0.639648438
vt 0.980957031 0.639648438
vt 0.980957031 0.639648438
vt 0.0154037476 0.888671875
vt 0.0154037476 0.888671875
vt 0.0154037476 0.888671875
vt 0.0154037476 0.888671875
vt 0.0154037476 0.888671875
vt 0.0154037476 0.888671875
vt 0.0154037476 0.888671875
vt 0.0154037476 0.888671875
vt 0.0154037476 0.888671875
vt 0.0154037476 0.888671875
vt 0.0154037476 0.888671875
vt 0.0154037476 0.888671875
vt 0.0154037476 0.888671875
vt 0.0154037476 0.888671875
vt 0.0154037476 0.888671875
vt 0.980957031 0.639648438
vt 0.980957031 0.639648438
vt 0.980957031 0.639648438
vt 0.0154037476 0.888671875
vt 0.0154037476 0.888671875
vt 0.0154037476 0.888671875
vt 0.0154037476 0.888671875
vt 0.0154037476 0.888671875
vt 0.0154037476 0.888671875
vt 0.980957031 0.639648438
vt 0.980957031 0.639648438
vt 0.980957031 0.639648438
vt 0.980957031 0.639648438
vt 0.980957031 0.639648438
vt 0.980957031 0.639648438
vt 0.980957031 0.639648438
vt 0.980957031 0.639648438
vt 0.980957031 0.639648438
vt 0.980957031 0.639648438
vt 0.980957031 0.639648438
vt 0.980957031 0.639648438
vt 0.980957031 0.639648438
vt 0.980957031 0.639648438
vt 0.980957031 0.639648438
vt 0.980957031 0.639648438
vt 0.980957031 0.639648438
vt 0.980957031 0.639648438
vt 0.0154037476 0.888671875
vt 0.0154037476 0.888671875
vt 0.0154037476 0.888671875
vt 0.0154037476 0.888671875
vt 0.0154037476 0.888671875
vt 0.0154037476 0.888671875
vt 0.0154037476 0.888671875
vt 0.0154037476 0.888671875
vt 0.0154037476 0.888671875
vt 0.0154037476 0.888671875
vt 0.0154037476 0.888671875
vt 0.0154037476 0.888671875
vt 0.0154037476 0.888671875
vt 0.0154037476 0.888671875
vt 0.0154037476 0.888671875
vt 0.0154037476 0.888671875
vt 0.0154037476 0.888671875
vt 0.0154037476 0.888671875
vt 0.0154037476 0.888671875
vt 0.0154037476 0.888671875
vt 0.0154037476 0.888671875
vt 0.0154037476 0.888671875
vt 0.0154037476 0.888671875
vt 0.0154037476 0.888671875
vt 0.0154037476 0.888671875
vt 0.0154037476 0.888671875
vt 0.0154037476 0.888671875
vt 0.0154037476 0.888671875
vt 0.0154037476 0.888671875
vt 0.0154037476 0.888671875
vt 0.0154037476 0.888671875
vt 0.0154037476 0.888671875
vt 0.0154037476 0.888671875
vt 0.0154037476 0.888671875
vt 0.0154037476 0.888671875
vt 0.0154037476 0.888671875
vt 0.980957031 0.639648438
vt 0.980957031 0.639648438
vt 0.980957031 0.639648438
vt 0.980957031 0.639648438
vt 0.980957031 0.639648438
vt 0.980957031 0.639648438
vt 0.980957031 0.639648438
vt 0.980957031 0.639648438
vt 0.980957031 0.639648438
vt 0.980957031 0.639648438
vt 0.980957031 0.639648438
vt 0.980957031 0.639648438
vt 0.980957031 0.639648438
vt 0.980957031 0.639648438
vt 0.980957031 0.639648438
vt 0.980957031 0.639648438
vt 0.980957031 0.639648438
vt 0.980957031 0.639648438
vt 0.980957031 0.639648438
vt 0.980957031 0.639648438
vt 0.980957031 0.639648438
vt 0.980957031 0.639648438
vt 0.980957031 0.639648438
vt 0.980957031 0.639648438
vt 0.980957031 0.639648438
vt 0.980957031 0.639648438
vt 0.980957031 0.639648438
vt 0.980957031 0.639648438
vt 0.980957031 0.639648438
vt 0.980957031 0.639648438
vt 0.980957031 0.639648438
vt 0.980957031 0.639648438
vt 0.980957031 0.639648438
vt 0.980957031 0.639648438
vt 0.980957031 0.639648438
vt 0.980957031 0.639648438
vt 0.980957031 0.639648438
vt 0.980957031 0.639648438
vt 0.980957031 0.639648438
vt 0.980957031 0.639648438
vt 0.980957031 0.639648438
vt 0.980957031 0.639648438
vt 0.980957031 0.639648438
vt 0.980957031 0.639648438
vt 0.980957031 0.639648438
vt 0.980957031 0.639648438
vt 0.980957031 0.639648438
vt 0.980957031 0.639648438
vt 0.980957031 0.639648438
vt 0.980957031 0.639648438
vt 0.980957031 0.639648438
vt 0.980957031 0.639648438
vt 0.980957031 0.639648438
vt 0.980957031 0.639648438
vt 0.980957031 0.639648438
vt 0.980957031 0.639648438
vt 0.980957031 0.639648438
vt 0.980957031 0.639648438
vt 0.980957031 0.639648438
vt 0.980957031 0.639648438
vt 0.980957031 0.639648438
vt 0.980957031 0.639648438
vt 0.980957031 0.639648438
vt 0.980957031 0.639648438
vt 0.980957031 0.639648438
vt 0.980957031 0.639648438
vt 0.980957031 0.639648438
vt 0.980957031 0.639648438
vt 0.980957031 0.639648438
vt 0.980957031 0.639648438
vt 0.980957031 0.639648438
vt 0.980957031 0.639648438
vt 0.980957031 0.639648438
vt 0.980957031 0.639648438
vt 0.980957031 0.639648438
vt 0.980957031 0.639648438
vt 0.980957031 0.639648438
vt 0.980957031 0.639648438
vt 0.980957031 0.639648438
vt 0.980957031 0.639648438
vt 0.980957031 0.639648438
vt 0.980957031 0.639648438
vt 0.980957031 0.639648438
vt 0.980957031 0.639648438
vt 0.980957031 0.639648438
vt 0.980957031 0.639648438
vt 0.980957031 0.639648438
vt 0.980957031 0.639648438
vt 0.980957031 0.639648438
vt 0.980957031 0.639648438
vt 0.980957031 0.639648438
vt 0.980957031 0.639648438
vt 0.980957031 0.639648438
vt 0.980957031 0.639648438
vt 0.980957031 0.639648438
vt 0.980957031 0.639648438
vt 0.980957031 0.639648438
vt 0.980957031 0.639648438
vt 0.980957031 0.639648438
vt 0.980957031 0.639648438
vt 0.980957031 0.639648438
vt 0.980957031 0.639648438
vt 0.980957031 0.639648438
vt 0.980957031 0.639648438
vt 0.980957031 0.639648438
vt 0.980957031 0.639648438
vt 0.980957031 0.639648438
vt 0.980957031 0.639648438
vt 0.980957031 0.639648438
vt 0.980957031 0.639648438
vt 0.980957031 0.639648438
vt 0.980957031 0.639648438
vt 0.980957031 0.639648438
vt 0.980957031 0.639648438
vt 0.980957031 0.639648438
vt 0.980957031 0.639648438
vt 0.980957031 0.639648438
vt 0.980957031 0.639648438
vt 0.980957031 0.639648438
vt 0.980957031 0.639648438
vt 0.980957031 0.639648438
vt 0.980957031 0.639648438
vt 0.980957031 0.639648438
vt 0.0154037476 0.888671875
vt 0.0154037476 0.888671875
vt 0.0154037476 0.888671875
vt 0.0154037476 0.888671875
vt 0.0154037476 0.888671875
vt 0.0154037476 0.888671875
vt 0.0154037476 0.888671875
vt 0.0154037476 0.888671875
vt 0.0154037476 0.888671875
vt 0.0154037476 0.888671875
vt 0.0154037476 0.888671875
vt 0.0154037476 0.888671875
vt 0.0154037476 0.888671875
vt 0.0154037476 0.888671875
vt 0.0154037476 0.888671875
vt 0.0154037476 0.888671875
vt 0.0154037476 0.888671875
vt 0.0154037476 0.888671875
vt 0.0154037476 0.888671875
vt 0.0154037476 0.888671875
vt 0.0154037476 0.888671875
vt 0.980957031 0.639648438
vt 0.980957031 0.639648438
vt 0.980957031 0.639648438
vt 0.0783691406 0.980957031
vt 0.0783691406 0.980957031
vt 0.0783691406 0.980957031
vt 0.980957031 0.639648438
vt 0.980957031 0.639648438
vt 0.980957031 0.639648438
vt 0.980957031 0.639648438
vt 0.980957031 0.639648438
vt 0.980957031 0.639648438
vt 0.980957031 0.639648438
vt 0.980957031 0.639648438
vt 0.980957031 0.639648438
vt 0.980957031 0.639648438
vt 0.980957031 0.639648438
vt 0.980957031 0.639648438
vt 0.980957031 0.639648438
vt 0.980957031 0.639648438
vt 0.980957031 0.639648438
vt 0.980957031 0.639648438
vt 0.980957031 0.639648438
vt 0.980957031 0.639648438
vt 0.980957031 0.639648438
vt 0.980957031 0.639648438
vt 0.980957031 0.639648438
vt 0.980957031 0.639648438
vt 0.980957031 0.639648438
vt 0.980957031 0.639648438
vt 0.980957031 0.639648438
vt 0.980957031 0.639648438
vt 0.980957031 0.639648438
vt 0.980957031 0.639648438
vt 0.980957031 0.639648438
vt 0.980957031 0.639648438
vt 0.980957031 0.639648438
vt 0.980957031 0.639648438
vt 0.980957031 0.639648438
vt 0.980957031 0.639648438
vt 0.980957031 0.639648438
vt 0.980957031 0.639648438
vt 0.980957031 0.639648438
vt 0.980957031 0.639648438
vt 0.980957031 0.639648438
vt 0.980957031 0.639648438
vt 0.980957031 0.639648438
vt 0.980957031 0.639648438
vt 0.980957031 0.639648438
vt 0.980957031 0.639648438
vt 0.980957031 0.639648438
vt 0.980957031 0.639648438
vt 0.980957031 0.639648438
vt 0.980957031 0.639648438
vt 0.980957031 0.639648438
vt 0.980957031 0.639648438
vt 0.980957031 0.639648438
vt 0.980957031 0.639648438
vt 0.980957031 0.639648438
vt 0.980957031 0.639648438
vt 0.980957031 0.639648438
vt 0.980957031 0.639648438
vt 0.980957031 0.639648438
vt 0.980957031 0.639648438
vt 0.980957031 0.639648438
vt 0.980957031 0.639648438
vt 0.980957031 0.639648438
vt 0.980957031 0.639648438
vt 0.980957031 0.639648438
vt 0.980957031 0.639648438
vt 0.980957031 0.639648438
vt 0.980957031 0.639648438
vt 0.980957031 0.639648438
vt 0.980957031 0.639648438
vt 0.980957031 0.639648438
vt 0.980957031 0.639648438
vt 0.980957031 0.639648438
vt 0.980957031 0.639648438
vt 0.980957031 0.639648438
vt 0.980957031 0.639648438
vt 0.980957031 0.639648438
vt 0.980957031 0.639648438
vt 0.980957031 0.639648438
vt 0.980957031 0.639648438
vt 0.980957031 0.639648438
vt 0.980957031 0.639648438
vt 0.980957031 0.639648438
vt 0.980957031 0.639648438
vt 0.980957031 0.639648438
vt 0.980957031 0.639648438
vt 0.980957031 0.639648438
vt 0.980957031 0.639648438
vt 0.980957031 0.639648438
vt 0.980957031 0.639648438
vt 0.980957031 0.639648438
vt 0.980957031 0.639648438
vt 0.980957031 0.639648438
vt 0.980957031 0.639648438
vt 0.980957031 0.639648438
vt 0.980957031 0.639648438
vt 0.980957031 0.639648438
vt 0.980957031 0.639648438
vt 0.980957031 0.639648438
vt 0.980957031 0.639648438
vt 0.980957031 0.639648438
vt 0.980957031 0.639648438
vt 0.980957031 0.639648438
vt 0.980957031 0.639648438
vt 0.980957031 0.639648438
vt 0.980957031 0.639648438
vt 0.980957031 0.639648438
vt 0.980957031 0.639648438
vt 0.980957031 0.639648438
vt 0.980957031 0.639648438
vt 0.980957031 0.639648438
vt 0.980957031 0.639648438
vt 0.980957031 0.639648438
vt 0.980957031 0.639648438
vt 0.980957031 0.639648438
vt 0.980957031 0.639648438
vt 0.980957031 0.639648438
vt 0.980957031 0.639648438
vt 0.980957031 0.639648438
vt 0.980957031 0.639648438
vt 0.980957031 0.639648438
vt 0.980957031 0.639648438
vt 0.980957031 0.639648438
vt 0.980957031 0.639648438
vt 0.980957031 0.639648438
vt 0.980957031 0.639648438
vt 0.980957031 0.639648438
vt 0.980957031 0.639648438
vt 0.980957031 0.639648438
vt 0.980957031 0.639648438
vt 0.980957031 0.639648438
vt 0.980957031 0.639648438
vt 0.980957031 0.639648438
vt 0.980957031 0.639648438
vt 0.980957031 0.639648438
vt 0.980957031 0.639648438
vt 0.980957031 0.639648438
vt 0.980957031 0.639648438
vt 0.980957031 0.639648438
vt 0.980957031 0.639648438
vt 0.980957031 0.639648438
vt 0.980957031 0.639648438
vt 0.980957031 0.639648438
vt 0.980957031 0.639648438
vt 0.980957031 0.639648438
vt 0.980957031 0.639648438
vt 0.980957031 0.639648438
vt 0.980957031 0.639648438
vt 0.0783691406 0.980957031
vt 0.0783691406 0.980957031
vt 0.0783691406 0.980957031
vt 0.0783691406 0.980957031
vt 0.0783691406 0.980957031
vt 0.0783691406 0.980957031
vt 0.980957031 0.639648438
vt 0.980957031 0.639648438
vt 0.980957031 0.639648438
vt 0.980957031 0.639648438
vt 0.980957031 0.639648438
vt 0.980957031 0.639648438
vt 0.980957031 0.639648438
vt 0.980957031 0.639648438
vt 0.980957031 0.639648438
vt 0.980957031 0.639648438
vt 0.980957031 0.639648438
vt 0.980957031 0.639648438
vt 0.980957031 0.639648438
vt 0.980957031 0.639648438
vt 0.980957031 0.639648438
vt 0.980957031 0.639648438
vt 0.980957031 0.639648438
vt 0.980957031 0.639648438
vt 0.980957031 0.639648438
vt 0.980957031 0.639648438
vt 0.980957031 0.639648438
vt 0.980957031 0.639648438
vt 0.980957031 0.639648438
vt 0.980957031 0.639648438
vt 0.0810546875 0.979980469
vt 0.0810546875 0.979980469
vt 0.0810546875 0.979980469
vt 0.0810546875 0.979980469
vt 0.0810546875 0.979980469
vt 0.0810546875 0.979980469
vt 0.980957031 0.639648438
vt 0.980957031 0.639648438
vt 0.980957031 0.639648438
vt 0.980957031 0.639648438
vt 0.980957031 0.639648438
vt 0.980957031 0.639648438
vt 0.980957031 0.639648438
vt 0.980957031 0.639648438
vt 0.980957031 0.639648438
vt 0.980957031 0.639648438
vt 0.980957031 0.639648438
vt 0.980957031 0.639648438
vt 0.980957031 0.639648438
vt 0.980957031 0.639648438
vt 0.980957031 0.639648438
vt 0.0780639648 0.981933594
vt 0.0780639648 0.981933594
vt 0.0780639648 0.981933594
vt 0.0780639648 0.981933594
vt 0.0780639648 0.981933594
vt 0.0780639648 0.981933594
vt 0.980957031 0.639648438
vt 0.980957031 0.639648438
vt 0.980957031 0.639648438
vt 0.980957031 0.639648438
vt 0.980957031 0.639648438
vt 0.980957031 0.639648438
vt 0.980957031 0.639648438
vt 0.980957031 0.639648438
vt 0.980957031 0.639648438
vt 0.0154037476 0.888671875
vt 0.0154037476 0.888671875
vt 0.0154037476 0.888671875
vt 0.0154037476 0.888671875
vt 0.980957031 0.639648438
vt 0.980957031 0.639648438
vt 0.980957031 0.639648438
vt 0.980957031 0.639648438
vt 0.980957031 0.639648438
vt 0.980957031 0.639648438
vt 0.980957031 0.639648438
vt 0.980957031 0.639648438
vt 0.980957031 0.639648438
vt 0.980957031 0.639648438
vt 0.980957031 0.639648438
vt 0.980957031 0.639648438
vt 0.980957031 0.639648438
vt 0.980957031 0.639648438
vt 0.980957031 0.639648438
vt 0.980957031 0.639648438
vt 0.980957031 0.639648438
vt 0.980957031 0.639648438
vt 0.980957031 0.639648438
vt 0.980957031 0.639648438
vt 0.980957031 0.639648438
vt 0.980957031 0.639648438
vt 0.980957031 0.639648438
vt 0.0154037476 0.888671875
vt 0.0154037476 0.888671875
vt 0.0154037476 0.888671875
vt 0.0154037476 0.888671875
vt 0.980957031 0.639648438
vt 0.980957031 0.639648438
vt 0.980957031 0.639648438
vt 0.980957031 0.639648438
vt 0.980957031 0.639648438
vt 0.980957031 0.639648438
vt 0.980957031 0.639648438
vt 0.980957031 0.639648438
vt 0.980957031 0.639648438
vt 0.980957031 0.639648438
vt 0.980957031 0.639648438
vt 0.980957031 0.639648438
vt 0.980957031 0.639648438
vt 0.980957031 0.639648438
vt 0.980957031 0.639648438
vt 0.980957031 0.639648438
vt 0.980957031 0.639648438
vt 0.980957031 0.639648438
vt 0.980957031 0.639648438
vt 0.980957031 0.639648438
vt 0.980957031 0.639648438
vt 0.980957031 0.639648438
vt 0.980957031 0.639648438
vt 0.980957031 0.639648438
vt 0.980957031 0.639648438
vt 0.980957031 0.639648438
vt 0.980957031 0.639648438
vt 0.980957031 0.639648438
vt 0.980957031 0.639648438
vt 0.980957031 0.639648438
vt 0.980957031 0.639648438
vt 0.980957031 0.639648438
vt 0.0810546875 0.979980469
vt 0.0810546875 0.979980469
vt 0.0810546875 0.979980469
vt 0.0810546875 0.979980469
vt 0.0810546875 0.979980469
vt 0.0810546875 0.979980469
vt 0.980957031 0.639648438
vt 0.980957031 0.639648438
vt 0.980957031 0.639648438
vt 0.980957031 0.639648438
vt 0.980957031 0.639648438
vt 0.980957031 0.639648438
vt 0.980957031 0.639648438
vt 0.980957031 0.639648438
vt 0.980957031 0.639648438
vt 0.980957031 0.639648438
vt 0.980957031 0.639648438
vt 0.980957031 0.639648438
vt 0.980957031 0.639648438
vt 0.980957031 0.639648438
vt 0.980957031 0.639648438
vt 0.980957031 0.639648438
vt 0.980957031 0.639648438
vt 0.980957031 0.639648438
vt 0.980957031 0.639648438
vt 0.980957031 0.639648438
vt 0.0780639648 0.981933594
vt 0.0780639648 0.981933594
vt 0.0780639648 0.981933594
vt 0.0780639648 0.981933594
vt 0.980957031 0.639648438
vt 0.980957031 0.639648438
vt 0.980957031 0.639648438
vt 0.980957031 0.639648438
vt 0.980957031 0.639648438
vt 0.980957031 0.639648438
vt 0.980957031 0.639648438
vt 0.980957031 0.639648438
vt 0.980957031 0.639648438
vt 0.980957031 0.639648438
vt 0.980957031 0.639648438
vt 0.980957031 0.639648438
vt 0.980957031 0.639648438
vt 0.980957031 0.639648438
vt 0.980957031 0.639648438
vt 0.980957031 0.639648438
vt 0.0783691406 0.980957031
vt 0.0783691406 0.980957031
vt 0.0783691406 0.980957031
vt 0.0783691406 0.980957031
vt 0.0783691406 0.980957031
vt 0.0783691406 0.980957031
vt 0.0783691406 0.980957031
vt 0.0783691406 0.980957031
vt 0.0783691406 0.980957031
vt 0.0810546875 0.979980469
vt 0.0810546875 0.979980469
vt 0.0810546875 0.979980469
vt 0.0810546875 0.979980469
vt 0.0780639648 0.981933594
vt 0.0780639648 0.981933594
vt 0.0780639648 0.981933594
vt 0.0780639648 0.981933594
vn 0.259765625 -0.67578125 0.689941406
vn 0.259765625 -0.67578125 0.689941406
vn 0.259765625 -0.67578125 0.689941406
vn 0.987792969 -0.0678710938 0.140380859
vn 0.987792969 -0.0678710938 0.140380859
vn 0.987792969 -0.0678710938 0.140380859
vn 0.991210938 0.0570983887 0.119140625
vn 0.991210938 0.0570983887 0.119140625
vn 0.991210938 0.0570983887 0.119140625
vn -0.578613281 -0.146728516 0.802246094
vn -0.578613281 -0.146728516 0.802246094
vn -0.578613281 -0.146728516 0.802246094
vn -0.62890625 -0.106872559 0.770019531
vn -0.62890625 -0.106872559 0.770019531
vn -0.62890625 -0.106872559 0.770019531
vn -0.617675781 -0.12286377 0.776855469
vn 0.5703125 -0.699707031 -0.430175781
vn 0.5703125 -0.699707031 -0.430175781
vn 0.5703125 -0.699707031 -0.430175781
vn -0.208862305 -0.427734375 0.879394531
vn -0.208862305 -0.427734375 0.879394531
vn -0.208862305 -0.427734375 0.879394531
vn 0.963378906 -0.161376953 0.213623047
vn 0.963378906 -0.161376953 0.213623047
vn 0.963378906 -0.161376953 0.213623047
vn 0.958496094 -0.285644531 -0.00947570801
vn 0.958496094 -0.285644531 -0.00947570801
vn 0.958496094 -0.285644531 -0.00947570801
vn 0.197265625 -0.0255279541 -0.979980469
vn 0.197265625 -0.0255279541 -0.979980469
vn 0.197265625 -0.0255279541 -0.979980469
vn -0.449707031 -0.703125 0.55078125
vn -0.449707031 -0.703125 0.55078125
vn -0.449707031 -0.703125 0.55078125
vn 0.563964844 -0.823730469 -0.0553894043
vn 0.563964844 -0.823730469 -0.0553894043
vn 0.563964844 -0.823730469 -0.0553894043
vn -0.431396484 -0.0726318359 0.899414062
vn -0.431396484 -0.0726318359 0.899414062
vn -0.431396484 -0.0726318359 0.899414062
vn -0.5 -0.692382812 0.520019531
vn -0.5 -0.692382812 0.520019531
vn -0.5 -0.692382812 0.520019531
vn 0.95703125 -0.275146484 -0.0909423828
vn 0.95703125 -0.275146484 -0.0909423828
vn 0.95703125 -0.275146484 -0.0909423828
vn -0.243164062 -0.871582031 0.426025391
vn -0.243164062 -0.871582031 0.426025391
vn -0.243164062 -0.871582031 0.426025391
vn 0.990234375 0.0079574585 0.139892578
vn 0.990234375 0.0079574585 0.139892578
vn 0.990234375 0.0079574585 0.139892578
vn 0.994628906 0.0827636719 0.0581359863
vn 0.994628906 0.0827636719 0.0581359863
vn 0.994628906 0.0827636719 0.0581359863
vn 0.9609375 -0.202758789 0.187866211
vn 0.9609375 -0.202758789 0.187866211
vn 0.9609375 -0.202758789 0.187866211
vn 0.997070312 -0.0560302734 0.0541687012
vn 0.997070312 -0.0560302734 0.0541687012
vn 0.997070312 -0.0560302734 0.0541687012
vn -0.127197266 -0.975097656 0.181274414
vn -0.127197266 -0.975097656 0.181274414
vn -0.127197266 -0.975097656 0.181274414
vn -0.062286377 -0.955566406 0.288330078
vn -0.062286377 -0.955566406 0.288330078
vn -0.062286377 -0.955566406 0.288330078
vn 0.2578125 -0.885742188 -0.386474609
vn 0.2578125 -0.885742188 -0.386474609
vn 0.2578125 -0.885742188 -0.386474609
vn -0.26953125 -0.0085067749 0.962890625
vn -0.26953125 -0.0085067749 0.962890625
vn -0.26953125 -0.0085067749 0.962890625
vn -0.26953125 0.0085067749 0.962890625
vn -0.26953125 0.0085067749 0.962890625
vn 0.365478516 -0.46875 0.804199219
vn 0.365478516 -0.46875 0.804199219
vn 0.365478516 -0.46875 0.804199219
vn 0.491455078 -0.385009766 -0.78125
vn 0.491455078 -0.385009766 -0.78125
vn 0.491455078 -0.385009766 -0.78125
vn 0.270751953 0.013923645 -0.962402344
vn 0.270751953 0.013923645 -0.962402344
vn 0.270751953 0.013923645 -0.962402344
vn -0.183105469 -0.308837891 0.933105469
vn -0.183105469 -0.308837891 0.933105469
vn -0.183105469 -0.308837891 0.933105469
vn 0.7734375 -0.6328125 -0.0318908691
vn 0.7734375 -0.6328125 -0.0318908691
vn 0.7734375 -0.6328125 -0.0318908691
vn 0.357421875 -0.0684814453 -0.931640625
vn 0.357421875 -0.0684814453 -0.931640625
vn 0.357421875 -0.0684814453 -0.931640625
vn 0.152587891 0.00149822235 -0.98828125
vn 0.152587891 0.00149822235 -0.98828125
vn 0.152587891 0.00149822235 -0.98828125
vn -0.844726562 0.196411133 0.498046875
vn -0.844726562 0.196411133 0.498046875
vn -0.844726562 0.196411133 0.498046875
vn -0.117004395 0.0521240234 -0.991699219
vn -0.117004395 0.0521240234 -0.991699219
vn -0.117004395 0.0521240234 -0.991699219
vn 0.0993652344 0.0562133789 -0.993652344
vn 0.0993652344 0.0562133789 -0.993652344
vn 0.0993652344 0.0562133789 -0.993652344
vn -0.744140625 0.184082031 0.642089844
vn -0.744140625 0.184082031 0.642089844
vn -0.744140625 0.184082031 0.642089844
vn 0.000508308411 -0.0830688477 -0.996582031
vn 0.000508308411 -0.0830688477 -0.996582031
vn 0.000508308411 -0.0830688477 -0.996582031
vn -0.540527344 0.0881347656 0.836425781
vn -0.540527344 0.0881347656 0.836425781
vn -0.540527344 0.0881347656 0.836425781
vn -0.495849609 -0.0465698242 0.8671875
vn -0.495849609 -0.0465698242 0.8671875
vn -0.495849609 -0.0465698242 0.8671875
vn -0.212402344 -0.182617188 0.959960938
vn -0.212402344 -0.182617188 0.959960938
vn -0.212402344 -0.182617188 0.959960938
vn 0.375732422 -0.92578125 0.0424499512
vn 0.375732422 -0.92578125 0.0424499512
vn 0.375732422 -0.92578125 0.0424499512
vn -0.212280273 0.0999755859 -0.972167969
vn -0.212280273 0.0999755859 -0.972167969
vn -0.212280273 0.0999755859 -0.972167969
vn -0.624511719 0.046661377 0.779785156
vn -0.624511719 0.046661377 0.779785156
vn -0.624511719 0.046661377 0.779785156
vn -0.128051758 -0.0196075439 0.991699219
vn -0.128051758 -0.0196075439 0.991699219
vn -0.128051758 -0.0196075439 0.991699219
vn -0.611816406 0.0611572266 0.788574219
vn -0.611816406 0.0611572266 0.788574219
vn -0.611816406 0.0611572266 0.788574219
vn -0.0931396484 0.0428771973 -0.994628906
vn -0.0931396484 0.0428771973 -0.994628906
vn -0.0931396484 0.0428771973 -0.994628906
vn -0.805664062 0.150268555 0.573242188
vn -0.805664062 0.150268555 0.573242188
vn -0.805664062 0.150268555 0.573242188
vn 0.167236328 0.00888061523 -0.985839844
vn 0.167236328 0.00888061523 -0.985839844
vn 0.167236328 0.00888061523 -0.985839844
vn 0.211547852 0.0288238525 -0.977050781
vn 0.211547852 0.0288238525 -0.977050781
vn 0.211547852 0.0288238525 -0.977050781
vn 0.127929688 0.00882720947 -0.991699219
vn 0.127929688 0.00882720947 -0.991699219
vn 0.127929688 0.00882720947 -0.991699219
vn 0.330078125 -0.393554688 -0.857910156
vn 0.330078125 -0.393554688 -0.857910156
vn 0.330078125 -0.393554688 -0.857910156
vn -0.317382812 -0.143920898 0.9375
vn -0.317382812 -0.143920898 0.9375
vn -0.317382812 -0.143920898 0.9375
vn -0.399169922 -0.123901367 0.908691406
vn -0.399169922 -0.123901367 0.908691406
vn -0.399169922 -0.123901367 0.908691406
vn 0.701660156 -0.569335938 -0.428466797
vn 0.701660156 -0.569335938 -0.428466797
vn 0.701660156 -0.569335938 -0.428466797
vn 0.455810547 -0.625488281 0.633300781
vn 0.455810547 -0.625488281 0.633300781
vn 0.455810547 -0.625488281 0.633300781
vn 0.107299805 -0.328857422 0.938476562
vn 0.107299805 -0.328857422 0.938476562
vn 0.107299805 -0.328857422 0.938476562
vn 0.181884766 -0.295410156 0.937988281
vn 0.181884766 -0.295410156 0.937988281
vn 0.181884766 -0.295410156 0.937988281
vn -0.167724609 -0.0505981445 0.984375
vn -0.167724609 -0.0505981445 0.984375
vn -0.167724609 -0.0505981445 0.984375
vn 0.855957031 -0.510742188 0.0785522461
vn 0.855957031 -0.510742188 0.0785522461
vn 0.855957031 -0.510742188 0.0785522461
vn 0.274902344 -0.447265625 0.851074219
vn 0.274902344 -0.447265625 0.851074219
vn 0.274902344 -0.447265625 0.851074219
vn 0.448242188 -0.0597839355 -0.892089844
vn 0.448242188 -0.0597839355 -0.892089844
vn 0.448242188 -0.0597839355 -0.892089844
vn -0.54296875 0.078125 0.8359375
vn -0.54296875 0.078125 0.8359375
vn -0.54296875 0.078125 0.8359375
vn 0.640625 -0.152099609 -0.752441406
vn 0.640625 -0.152099609 -0.752441406
vn 0.640625 -0.152099609 -0.752441406
vn 0.958984375 -0.216308594 0.182739258
vn 0.958984375 -0.216308594 0.182739258
vn 0.958984375 -0.216308594 0.182739258
vn 0.370361328 0.8125 0.449707031
vn 0.370361328 0.8125 0.449707031
vn 0.370361328 0.8125 0.449707031
vn 0.961425781 0.172485352 0.213500977
vn 0.961425781 0.172485352 0.213500977
vn 0.961425781 0.172485352 0.213500977
vn 0.919921875 0.387695312 0.0625610352
vn 0.919921875 0.387695312 0.0625610352
vn 0.919921875 0.387695312 0.0625610352
vn 0.5703125 0.699707031 -0.430175781
vn 0.5703125 0.699707031 -0.430175781
vn 0.5703125 0.699707031 -0.430175781
vn 0.946289062 0.0999755859 0.308105469
vn 0.946289062 0.0999755859 0.308105469
vn 0.946289062 0.0999755859 0.308105469
vn 0.922851562 -0.378662109 -0.0704345703
vn 0.922851562 -0.378662109 -0.0704345703
vn 0.922851562 -0.378662109 -0.0704345703
vn 0.937011719 -0.124694824 0.326660156
vn 0.937011719 -0.124694824 0.326660156
vn 0.937011719 -0.124694824 0.326660156
vn 0.959960938 -0.20300293 0.192993164
vn 0.959960938 -0.20300293 0.192993164
vn 0.959960938 -0.20300293 0.192993164
vn 0.999511719 0.0178375244 -0.0252380371
vn 0.999511719 0.0178375244 -0.0252380371
vn 0.999511719 0.0178375244 -0.0252380371
vn -0.208862305 0.427734375 0.879394531
vn -0.208862305 0.427734375 0.879394531
vn -0.208862305 0.427734375 0.879394531
vn 0.940429688 0.262939453 0.215209961
vn 0.940429688 0.262939453 0.215209961
vn 0.940429688 0.262939453 0.215209961
vn 0.959960938 0.279785156 -0.0234069824
vn 0.959960938 0.279785156 -0.0234069824
vn 0.959960938 0.279785156 -0.0234069824
vn 0.197265625 0.0255279541 -0.979980469
vn 0.197265625 0.0255279541 -0.979980469
vn 0.197265625 0.0255279541 -0.979980469
vn -0.449707031 0.703125 0.55078125
vn -0.449707031 0.703125 0.55078125
vn -0.449707031 0.703125 0.55078125
vn 0.563964844 0.823730469 -0.0553894043
vn 0.563964844 0.823730469 -0.0553894043
vn 0.563964844 0.823730469 -0.0553894043
vn -0.431396484 0.0726318359 0.899414062
vn -0.431396484 0.0726318359 0.899414062
vn -0.431396484 0.0726318359 0.899414062
vn -0.5 0.692382812 0.520019531
vn -0.5 0.692382812 0.520019531
vn -0.5 0.692382812 0.520019531
vn -0.243164062 0.871582031 0.426025391
vn -0.243164062 0.871582031 0.426025391
vn -0.243164062 0.871582031 0.426025391
vn 0.985839844 -0.0471801758 0.161621094
vn 0.985839844 -0.0471801758 0.161621094
vn 0.985839844 -0.0471801758 0.161621094
vn 0.873046875 -0.278564453 0.400634766
vn 0.873046875 -0.278564453 0.400634766
vn 0.873046875 -0.278564453 0.400634766
vn 0.945800781 0.26171875 0.192626953
vn 0.945800781 0.26171875 0.192626953
vn 0.945800781 0.26171875 0.192626953
vn 0.99609375 -0.0825195312 0.0293121338
vn 0.99609375 -0.0825195312 0.0293121338
vn 0.99609375 -0.0825195312 0.0293121338
vn 0.988769531 0.0307922363 0.144897461
vn 0.988769531 0.0307922363 0.144897461
vn 0.988769531 0.0307922363 0.144897461
vn 0.919921875 0.0880126953 0.382080078
vn 0.919921875 0.0880126953 0.382080078
vn 0.919921875 0.0880126953 0.382080078
vn 0.955078125 -0.159301758 0.250732422
vn 0.955078125 -0.159301758 0.250732422
vn 0.955078125 -0.159301758 0.250732422
vn 0.899414062 0.11895752 0.420898438
vn 0.899414062 0.11895752 0.420898438
vn 0.899414062 0.11895752 0.420898438
vn 0.952148438 -0.146728516 0.267822266
vn 0.952148438 -0.146728516 0.267822266
vn 0.952148438 -0.146728516 0.267822266
vn 0.931640625 0.204467773 0.301025391
vn 0.931640625 0.204467773 0.301025391
vn 0.931640625 0.204467773 0.301025391
vn 0.866699219 -0.455078125 0.204711914
vn 0.866699219 -0.455078125 0.204711914
vn 0.866699219 -0.455078125 0.204711914
vn 0.950195312 -0.308349609 -0.049407959
vn 0.950195312 -0.308349609 -0.049407959
vn 0.950195312 -0.308349609 -0.049407959
vn -0.113769531 0.981445312 0.153320312
vn -0.113769531 0.981445312 0.153320312
vn -0.113769531 0.981445312 0.153320312
vn -0.062286377 0.955566406 0.288330078
vn -0.062286377 0.955566406 0.288330078
vn -0.062286377 0.955566406 0.288330078
vn 0.2578125 0.885742188 -0.386474609
vn 0.2578125 0.885742188 -0.386474609
vn 0.2578125 0.885742188 -0.386474609
vn 0.437011719 0.580078125 0.6875
vn 0.437011719 0.580078125 0.6875
vn 0.437011719 0.580078125 0.6875
vn 0.491455078 0.385009766 -0.78125
vn 0.491455078 0.385009766 -0.78125
vn 0.491455078 0.385009766 -0.78125
vn 0.245849609 0.117126465 -0.962402344
vn 0.245849609 0.117126465 -0.962402344
vn 0.245849609 0.117126465 -0.962402344
vn -0.183105469 0.308837891 0.933105469
vn -0.183105469 0.308837891 0.933105469
vn -0.183105469 0.308837891 0.933105469
vn 0.7734375 0.6328125 -0.0318908691
vn 0.7734375 0.6328125 -0.0318908691
vn 0.7734375 0.6328125 -0.0318908691
vn -0.591308594 -0.0830688477 0.802246094
vn -0.591308594 -0.0830688477 0.802246094
vn -0.591308594 -0.0830688477 0.802246094
vn 0.357421875 0.0684814453 -0.931640625
vn 0.357421875 0.0684814453 -0.931640625
vn 0.357421875 0.0684814453 -0.931640625
vn 0.152587891 0.037689209 -0.987792969
vn 0.152587891 0.037689209 -0.987792969
vn 0.152587891 0.037689209 -0.987792969
vn -0.844726562 -0.196411133 0.498046875
vn -0.844726562 -0.196411133 0.498046875
vn -0.844726562 -0.196411133 0.498046875
vn -0.225708008 -0.0739746094 -0.971191406
vn -0.225708008 -0.0739746094 -0.971191406
vn -0.225708008 -0.0739746094 -0.971191406
vn 0.0993652344 -0.0562133789 -0.993652344
vn 0.0993652344 -0.0562133789 -0.993652344
vn 0.0993652344 -0.0562133789 -0.993652344
vn -0.744140625 -0.184082031 0.642089844
vn -0.744140625 -0.184082031 0.642089844
vn -0.744140625 -0.184082031 0.642089844
vn 0.000508308411 0.0830688477 -0.996582031
vn 0.000508308411 0.0830688477 -0.996582031
vn 0.000508308411 0.0830688477 -0.996582031
vn -0.540527344 -0.0881347656 0.836425781
vn -0.540527344 -0.0881347656 0.836425781
vn -0.540527344 -0.0881347656 0.836425781
vn -0.495849609 0.0465698242 0.8671875
vn -0.495849609 0.0465698242 0.8671875
vn -0.495849609 0.0465698242 0.8671875
vn -0.212402344 0.182617188 0.959960938
vn -0.212402344 0.182617188 0.959960938
vn -0.212402344 0.182617188 0.959960938
vn 0.375732422 0.92578125 0.0424499512
vn 0.375732422 0.92578125 0.0424499512
vn 0.375732422 0.92578125 0.0424499512
vn -0.245361328 -0.125366211 -0.961425781
vn -0.245361328 -0.125366211 -0.961425781
vn -0.245361328 -0.125366211 -0.961425781
vn -0.62890625 -0.0474243164 0.775878906
vn -0.62890625 -0.0474243164 0.775878906
vn -0.62890625 -0.0474243164 0.775878906
vn -0.128051758 0.0196075439 0.991699219
vn -0.128051758 0.0196075439 0.991699219
vn -0.128051758 0.0196075439 0.991699219
vn -0.637207031 -0.0717773438 0.767089844
vn -0.637207031 -0.0717773438 0.767089844
vn -0.637207031 -0.0717773438 0.767089844
vn -0.076171875 -0.0198974609 -0.997070312
vn -0.076171875 -0.0198974609 -0.997070312
vn -0.076171875 -0.0198974609 -0.997070312
vn -0.805664062 -0.150268555 0.573242188
vn -0.805664062 -0.150268555 0.573242188
vn -0.805664062 -0.150268555 0.573242188
vn 0.253417969 -0.0202789307 -0.967285156
vn 0.253417969 -0.0202789307 -0.967285156
vn 0.253417969 -0.0202789307 -0.967285156
vn 0.290527344 0.0360412598 -0.956054688
vn 0.290527344 0.0360412598 -0.956054688
vn 0.290527344 0.0360412598 -0.956054688
vn 0.118530273 -0.0245056152 -0.992675781
vn 0.118530273 -0.0245056152 -0.992675781
vn 0.118530273 -0.0245056152 -0.992675781
vn 0.330078125 0.393554688 -0.857910156
vn 0.330078125 0.393554688 -0.857910156
vn 0.330078125 0.393554688 -0.857910156
vn -0.317382812 0.143920898 0.9375
vn -0.317382812 0.143920898 0.9375
vn -0.317382812 0.143920898 0.9375
vn -0.399169922 0.123901367 0.908691406
vn -0.399169922 0.123901367 0.908691406
vn -0.399169922 0.123901367 0.908691406
vn 0.701660156 0.569335938 -0.428466797
vn 0.701660156 0.569335938 -0.428466797
vn 0.701660156 0.569335938 -0.428466797
vn 0.455810547 0.625488281 0.633300781
vn 0.455810547 0.625488281 0.633300781
vn 0.455810547 0.625488281 0.633300781
vn 0.107299805 0.328857422 0.938476562
vn 0.107299805 0.328857422 0.938476562
vn 0.107299805 0.328857422 0.938476562
vn 0.181884766 0.295410156 0.937988281
vn 0.181884766 0.295410156 0.937988281
vn 0.181884766 0.295410156 0.937988281
vn -0.167724609 0.0505981445 0.984375
vn -0.167724609 0.0505981445 0.984375
vn -0.167724609 0.0505981445 0.984375
vn 0.855957031 0.510742188 0.0785522461
vn 0.855957031 0.510742188 0.0785522461
vn 0.855957031 0.510742188 0.0785522461
vn 0.295166016 0.5078125 0.809082031
vn 0.295166016 0.5078125 0.809082031
vn 0.295166016 0.5078125 0.809082031
vn 0.448242188 0.0597839355 -0.892089844
vn 0.448242188 0.0597839355 -0.892089844
vn 0.448242188 0.0597839355 -0.892089844
vn -0.54296875 -0.078125 0.8359375
vn -0.54296875 -0.078125 0.8359375
vn -0.54296875 -0.078125 0.8359375
vn 0.99609375 0.0401916504 0.0786132812
vn 0.99609375 0.0401916504 0.0786132812
vn 0.99609375 0.0401916504 0.0786132812
vn 0.997558594 -0.0260009766 -0.0635375977
vn 0.997558594 -0.0260009766 -0.0635375977
vn 0.997558594 -0.0260009766 -0.0635375977
vn 0.999511719 -0.0148849487 0.0249176025
vn 0.999511719 -0.0148849487 0.0249176025
vn 0.999511719 -0.0148849487 0.0249176025
vn 0.987304688 0.129150391 -0.0910644531
vn 0.987304688 0.129150391 -0.0910644531
vn 0.987304688 0.129150391 -0.0910644531
vn 0.966308594 0.166259766 0.197631836
vn 0.966308594 0.166259766 0.197631836
vn 0.966308594 0.166259766 0.197631836
vn 0.857421875 -0.0686035156 0.509765625
vn 0.857421875 -0.0686035156 0.509765625
vn 0.857421875 -0.0686035156 0.509765625
vn 0.993652344 -0.0720214844 -0.0863647461
vn 0.993652344 -0.0720214844 -0.0863647461
vn 0.993652344 -0.0720214844 -0.0863647461
vn 0.69140625 0.664550781 0.283691406
vn 0.69140625 0.664550781 0.283691406
vn 0.69140625 0.664550781 0.283691406
vn 0.486816406 -0.359375 -0.795898438
vn 0.486816406 -0.359375 -0.795898438
vn 0.486816406 -0.359375 -0.795898438
vn -0.459716797 -0.5234375 -0.717285156
vn -0.459716797 -0.5234375 -0.717285156
vn -0.459716797 -0.5234375 -0.717285156
vn -0.216308594 0.579589844 -0.785644531
vn -0.216308594 0.579589844 -0.785644531
vn -0.216308594 0.579589844 -0.785644531
vn 0.554199219 -0.814941406 0.16796875
vn 0.554199219 -0.814941406 0.16796875
vn 0.554199219 -0.814941406 0.16796875
vn 0.951660156 -0.303955078 0.0397338867
vn 0.951660156 -0.303955078 0.0397338867
vn 0.951660156 -0.303955078 0.0397338867
vn -0.701171875 0.0265655518 -0.712402344
vn -0.701171875 0.0265655518 -0.712402344
vn -0.701171875 0.0265655518 -0.712402344
vn 0.913085938 -0.405517578 -0.0408935547
vn 0.913085938 -0.405517578 -0.0408935547
vn 0.913085938 -0.405517578 -0.0408935547
vn -0.52734375 0.314208984 -0.789550781
vn -0.52734375 0.314208984 -0.789550781
vn -0.52734375 0.314208984 -0.789550781
vn 0.819335938 0.188842773 0.541015625
vn 0.819335938 0.188842773 0.541015625
vn 0.819335938 0.188842773 0.541015625
vn -0.811523438 -0.475097656 -0.340820312
vn -0.811523438 -0.475097656 -0.340820312
vn -0.811523438 -0.475097656 -0.340820312
vn 0.767089844 0.478759766 0.427001953
vn 0.767089844 0.478759766 0.427001953
vn 0.767089844 0.478759766 0.427001953
vn -0.904785156 0.130371094 -0.405273438
vn -0.904785156 0.130371094 -0.405273438
vn -0.904785156 0.130371094 -0.405273438
vn -0.870605469 -0.125 -0.475341797
vn -0.870605469 -0.125 -0.475341797
vn -0.870605469 -0.125 -0.475341797
vn -0.797363281 -0.262451172 -0.543457031
vn -0.797363281 -0.262451172 -0.543457031
vn -0.797363281 -0.262451172 -0.543457031
vn -0.884277344 0.0383911133 -0.465087891
vn -0.884277344 0.0383911133 -0.465087891
vn -0.884277344 0.0383911133 -0.465087891
vn 0.878417969 0.279785156 0.387207031
vn 0.878417969 0.279785156 0.387207031
vn 0.878417969 0.279785156 0.387207031
vn 0.907714844 -0.0740966797 0.412841797
vn 0.907714844 -0.0740966797 0.412841797
vn 0.907714844 -0.0740966797 0.412841797
vn 0.370361328 -0.8125 0.449707031
vn 0.370361328 -0.8125 0.449707031
vn 0.370361328 -0.8125 0.449707031
vn -0.334472656 -0.362304688 0.870117188
vn -0.334472656 -0.362304688 0.870117188
vn -0.334472656 -0.362304688 0.870117188
vn 0.203735352 0.0112304688 -0.979003906
vn 0.203735352 0.0112304688 -0.979003906
vn 0.203735352 0.0112304688 -0.979003906
vn 0.622558594 -0.759277344 -0.189819336
vn 0.622558594 -0.759277344 -0.189819336
vn 0.622558594 -0.759277344 -0.189819336
vn 0.437011719 -0.580078125 0.6875
vn 0.437011719 -0.580078125 0.6875
vn 0.437011719 -0.580078125 0.6875
vn 0.433105469 -0.080078125 -0.897949219
vn 0.433105469 -0.080078125 -0.897949219
vn 0.433105469 -0.080078125 -0.897949219
vn 0.262695312 -0.00709915161 -0.96484375
vn 0.262695312 -0.00709915161 -0.96484375
vn 0.262695312 -0.00709915161 -0.96484375
vn 0.755371094 -0.654785156 0.0189971924
vn 0.755371094 -0.654785156 0.0189971924
vn 0.755371094 -0.654785156 0.0189971924
vn 0.391845703 -0.136352539 -0.909667969
vn 0.391845703 -0.136352539 -0.909667969
vn 0.391845703 -0.136352539 -0.909667969
vn 0.426269531 -0.158935547 -0.890625
vn 0.426269531 -0.158935547 -0.890625
vn 0.493896484 -0.581542969 0.646484375
vn 0.527832031 -0.554199219 0.643554688
vn 0.493896484 -0.581542969 0.646484375
vn 0.527832031 -0.554199219 0.643554688
vn 0.527832031 -0.554199219 0.643554688
vn 0.506835938 -0.550292969 0.663574219
vn -0.117004395 0.0521240234 -0.991699219
vn -0.117004395 0.0521240234 -0.991699219
vn -0.117004395 0.0521240234 -0.991699219
vn -0.12878418 0.0955810547 -0.986816406
vn -0.12878418 0.0955810547 -0.986816406
vn -0.12878418 0.0955810547 -0.986816406
vn 0.145141602 0.0323181152 -0.988769531
vn 0.145141602 0.0323181152 -0.988769531
vn 0.145141602 0.0323181152 -0.988769531
vn 0.560058594 -0.649414062 0.514648438
vn 0.560058594 -0.649414062 0.514648438
vn 0.560058594 -0.649414062 0.514648438
vn 0.295166016 -0.5078125 0.809082031
vn 0.295166016 -0.5078125 0.809082031
vn 0.295166016 -0.5078125 0.809082031
vn 0.259765625 0.67578125 0.689941406
vn 0.259765625 0.67578125 0.689941406
vn 0.259765625 0.67578125 0.689941406
vn -0.334472656 0.362304688 0.870117188
vn -0.334472656 0.362304688 0.870117188
vn -0.334472656 0.362304688 0.870117188
vn 0.203735352 -0.0112304688 -0.979003906
vn 0.203735352 -0.0112304688 -0.979003906
vn 0.203735352 -0.0112304688 -0.979003906
vn 0.622558594 0.759277344 -0.189819336
vn 0.622558594 0.759277344 -0.189819336
vn 0.622558594 0.759277344 -0.189819336
vn 0.365478516 0.46875 0.804199219
vn 0.365478516 0.46875 0.804199219
vn 0.365478516 0.46875 0.804199219
vn 0.433105469 0.080078125 -0.897949219
vn 0.433105469 0.080078125 -0.897949219
vn 0.433105469 0.080078125 -0.897949219
vn 0.281494141 0.0345458984 -0.958984375
vn 0.281494141 0.0345458984 -0.958984375
vn 0.281494141 0.0345458984 -0.958984375
vn 0.755371094 0.654785156 0.0189971924
vn 0.755371094 0.654785156 0.0189971924
vn 0.755371094 0.654785156 0.0189971924
vn 0.493896484 0.581542969 0.646484375
vn 0.493896484 0.581542969 0.646484375
vn 0.493896484 0.581542969 0.646484375
vn -0.225708008 -0.0739746094 -0.971191406
vn -0.225708008 -0.0739746094 -0.971191406
vn -0.225708008 -0.0739746094 -0.971191406
vn -0.233520508 -0.124511719 -0.964355469
vn -0.233520508 -0.124511719 -0.964355469
vn -0.233520508 -0.124511719 -0.964355469
vn 0.394042969 0.0181884766 -0.918945312
vn 0.394042969 0.0181884766 -0.918945312
vn 0.394042969 0.0181884766 -0.918945312
vn 0.560058594 0.649414062 0.514648438
vn 0.560058594 0.649414062 0.514648438
vn 0.560058594 0.649414062 0.514648438
vn 0.274902344 0.447265625 0.851074219
vn 0.274902344 0.447265625 0.851074219
vn 0.274902344 0.447265625 0.851074219
vn 0.653320312 0.190673828 -0.732421875
vn 0.653320312 0.190673828 -0.732421875
vn 0.653320312 0.190673828 -0.732421875
vn 0.794433594 0.604003906 -0.0651245117
vn 0.794433594 0.604003906 -0.0651245117
vn 0.794433594 0.604003906 -0.0651245117
vn 0.527832031 -0.0526428223 -0.84765625
vn 0.527832031 -0.0526428223 -0.84765625
vn 0.527832031 -0.0526428223 -0.84765625
vn 0.458740234 -0.317626953 -0.829589844
vn 0.458740234 -0.317626953 -0.829589844
vn 0.458740234 -0.317626953 -0.829589844
vn -0.787109375 -0.489990234 -0.374267578
vn -0.787109375 -0.489990234 -0.374267578
vn -0.787109375 -0.489990234 -0.374267578
vn -0.328613281 0.671875 -0.6640625
vn -0.328613281 0.671875 -0.6640625
vn -0.328613281 0.671875 -0.6640625
vn 0.571777344 -0.815917969 0.0879516602
vn 0.571777344 -0.815917969 0.0879516602
vn 0.571777344 -0.815917969 0.0879516602
vn 0.783203125 -0.41796875 0.459960938
vn 0.783203125 -0.41796875 0.459960938
vn 0.783203125 -0.41796875 0.459960938
vn -0.458007812 0.0705566406 -0.886230469
vn -0.458007812 0.0705566406 -0.886230469
vn -0.458007812 0.0705566406 -0.886230469
vn 0.892578125 -0.408447266 0.190917969
vn 0.892578125 -0.408447266 0.190917969
vn 0.892578125 -0.408447266 0.190917969
vn -0.338378906 0.250488281 -0.907226562
vn -0.338378906 0.250488281 -0.907226562
vn -0.338378906 0.250488281 -0.907226562
vn 0.860839844 0.190795898 0.471435547
vn 0.860839844 0.190795898 0.471435547
vn 0.860839844 0.190795898 0.471435547
vn -0.497314453 0.0453491211 0.866210938
vn -0.497314453 0.0453491211 0.866210938
vn -0.497314453 0.0453491211 0.866210938
vn -0.451904297 -0.0908813477 0.887207031
vn -0.451904297 -0.0908813477 0.887207031
vn -0.451904297 -0.0908813477 0.887207031
vn -0.767089844 -0.478759766 -0.427001953
vn -0.767089844 -0.478759766 -0.427001953
vn -0.767089844 -0.478759766 -0.427001953
vn 0.715820312 0.478271484 0.509277344
vn 0.715820312 0.478271484 0.509277344
vn 0.715820312 0.478271484 0.509277344
vn -0.922363281 0.138061523 -0.361083984
vn -0.922363281 0.138061523 -0.361083984
vn -0.922363281 0.138061523 -0.361083984
vn -0.90625 -0.125976562 -0.403564453
vn -0.90625 -0.125976562 -0.403564453
vn -0.90625 -0.125976562 -0.403564453
vn -0.76953125 -0.25390625 -0.5859375
vn -0.76953125 -0.25390625 -0.5859375
vn -0.76953125 -0.25390625 -0.5859375
vn 0.606445312 -0.0814208984 -0.791015625
vn 0.606445312 -0.0814208984 -0.791015625
vn 0.606445312 -0.0814208984 -0.791015625
vn 0.208007812 0.453857422 -0.866210938
vn 0.208007812 0.453857422 -0.866210938
vn 0.208007812 0.453857422 -0.866210938
vn -0.857910156 0.0383605957 -0.512207031
vn -0.857910156 0.0383605957 -0.512207031
vn -0.857910156 0.0383605957 -0.512207031
vn 0.858398438 0.273681641 0.433837891
vn 0.858398438 0.273681641 0.433837891
vn 0.858398438 0.273681641 0.433837891
vn 0.885253906 -0.0744628906 0.459228516
vn 0.885253906 -0.0744628906 0.459228516
vn 0.885253906 -0.0744628906 0.459228516
vn 0.903808594 -0.0440979004 0.425537109
vn 0.903808594 -0.0440979004 0.425537109
vn 0.903808594 -0.0440979004 0.425537109
vn 0.890136719 -0.0740966797 0.449951172
vn -0.582519531 0.0821533203 0.80859375
vn -0.582519531 0.0821533203 0.80859375
vn -0.582519531 0.0821533203 0.80859375
vn -0.579101562 0.119689941 0.806152344
vn -0.579101562 0.119689941 0.806152344
vn 0.209716797 -0.471923828 0.856445312
vn 0.209716797 -0.471923828 0.856445312
vn 0.209716797 -0.471923828 0.856445312
vn 0.191040039 -0.443359375 0.875488281
vn -0.283447266 -0.0524902344 0.957519531
vn -0.283447266 -0.0524902344 0.957519531
vn -0.283447266 -0.0524902344 0.957519531
vn -0.281982422 -0.0739135742 0.956542969
vn 0.813964844 -0.540039062 0.215332031
vn 0.813964844 -0.540039062 0.215332031
vn 0.813964844 -0.540039062 0.215332031
vn 0.798828125 -0.571777344 0.1875
vn -0.600097656 0.106811523 0.79296875
vn -0.617675781 0.12286377 0.776855469
vn -0.617675781 0.12286377 0.776855469
vn -0.600097656 0.106811523 0.79296875
vn -0.600097656 0.106811523 0.79296875
vn -0.578613281 0.146728516 0.802246094
vn 0.940917969 -0.333984375 0.052520752
vn 0.940917969 -0.333984375 0.052520752
vn 0.940917969 -0.333984375 0.052520752
vn 0.930664062 -0.358886719 0.0699462891
vn 0.209716797 0.471923828 0.856445312
vn 0.209716797 0.471923828 0.856445312
vn 0.209716797 0.471923828 0.856445312
vn 0.191040039 0.443359375 0.875488281
vn -0.282470703 0.0671386719 0.95703125
vn -0.282470703 0.0671386719 0.95703125
vn -0.282470703 0.0671386719 0.95703125
vn -0.281982422 0.0739135742 0.956542969
vn 0.813964844 0.540039062 0.215332031
vn 0.813964844 0.540039062 0.215332031
vn 0.813964844 0.540039062 0.215332031
vn 0.798828125 0.571777344 0.1875
vn -0.596191406 -0.139892578 0.790527344
vn -0.596191406 -0.139892578 0.790527344
vn -0.596191406 -0.139892578 0.790527344
vn -0.623046875 -0.145263672 0.768554688
vn 0.397949219 0.1328125 -0.907714844
vn 0.397949219 0.1328125 -0.907714844
vn 0.397949219 0.1328125 -0.907714844
vn 0.391845703 0.136352539 -0.909667969
vn 0.527832031 0.554199219 0.643554688
vn 0.527832031 0.554199219 0.643554688
vn 0.527832031 0.554199219 0.643554688
vn 0.506835938 0.550292969 0.663574219
vn -0.484130859 -0.0171966553 -0.875
vn -0.484130859 -0.0171966553 -0.875
vn -0.484130859 -0.0171966553 -0.875
vn -0.484130859 -0.0171966553 -0.875
vn 0.999023438 0.0408325195 0.00529098511
vn 0.999023438 0.0408325195 0.00529098511
vn 0.999023438 0.0408325195 0.00529098511
vn 0.999023438 0.0408325195 0.00529098511
vn -0.476074219 -0.0225372314 0.879394531
vn -0.476074219 -0.0225372314 0.879394531
vn -0.476074219 -0.0225372314 0.879394531
vn -0.468994141 -0.0429992676 0.882324219
vn -0.468994141 -0.0429992676 0.882324219
vn -0.468994141 -0.0429992676 0.882324219
vn 0.818847656 0.139160156 0.556640625
vn 0.818847656 0.139160156 0.556640625
vn 0.818847656 0.139160156 0.556640625
vn 0.798828125 0.132080078 0.587402344
vn -0.69140625 -0.608886719 -0.388916016
vn -0.69140625 -0.608886719 -0.388916016
vn -0.69140625 -0.608886719 -0.388916016
vn -0.69140625 -0.608886719 -0.388916016
vn -0.92578125 -0.132446289 -0.354736328
vn -0.92578125 -0.132446289 -0.354736328
vn -0.92578125 -0.132446289 -0.354736328
vn -0.911132812 -0.137817383 -0.388671875
vn 0.808105469 -0.140014648 0.571777344
vn 0.808105469 -0.140014648 0.571777344
vn 0.808105469 -0.140014648 0.571777344
vn 0.835449219 -0.134521484 0.532714844
vn 0.721191406 0.562988281 0.404052734
vn 0.721191406 0.562988281 0.404052734
vn 0.721191406 0.562988281 0.404052734
vn 0.721191406 0.562988281 0.404052734
vn 0.129882812 0.525878906 -0.840332031
vn 0.129882812 0.525878906 -0.840332031
vn 0.129882812 0.525878906 -0.840332031
vn 0.129882812 0.525878906 -0.840332031
vn 0.0895996094 -0.98046875 -0.17578125
vn 0.0895996094 -0.98046875 -0.17578125
vn 0.0895996094 -0.98046875 -0.17578125
vn 0.0726928711 -0.98828125 -0.133911133
vn 0.0415649414 -0.970703125 -0.236083984
vn 0.0415649414 -0.970703125 -0.236083984
vn 0.0415649414 -0.970703125 -0.236083984
vn 0.0325012207 -0.977050781 -0.210449219
vn -0.0169830322 0.993652344 0.109924316
vn -0.0169830322 0.993652344 0.109924316
vn -0.0169830322 0.993652344 0.109924316
vn -0.0083694458 0.99609375 0.0855102539
vn -0.111999512 0.987304688 0.112731934
vn -0.111999512 0.987304688 0.112731934
vn -0.111999512 0.987304688 0.112731934
vn -0.0959472656 0.992675781 0.0739746094
vn 0.575683594 0.0259399414 -0.817382812
vn 0.575683594 0.0259399414 -0.817382812
vn 0.57421875 0.0144348145 -0.818847656
vn 0.575683594 0.0259399414 -0.817382812
vn 0.575683594 0.0259399414 -0.817382812
vn 0.508789062 -0.14440918 -0.848632812
vn 0.508789062 -0.14440918 -0.848632812
vn 0.508789062 -0.14440918 -0.848632812
vn 0.508789062 -0.14440918 -0.848632812
vn -0.491210938 0.0249176025 0.870605469
vn -0.491210938 0.0249176025 0.870605469
vn -0.491210938 0.0249176025 0.870605469
vn -0.491210938 0.0249176025 0.870605469
vn 0.504394531 0.094909668 -0.858398438
vn 0.504394531 0.094909668 -0.858398438
vn 0.504394531 0.094909668 -0.858398438
vn 0.504394531 0.094909668 -0.858398438
g WhaleFin_0
f 3/3/3 2/2/2 1/1/1
f 6/6/6 5/5/5 4/4/4
f 9/9/9 8/8/8 7/7/7
f 12/12/12 11/11/11 10/10/10
f 14/14/14 13/13/13 10/10/10
f 15/15/15 13/13/13 14/14/14
f 16/16/16 15/15/15 14/14/14
f 19/19/19 18/18/18 17/17/17
f 22/22/22 21/21/21 20/20/20
f 25/25/25 24/24/24 23/23/23
f 28/28/28 27/27/27 26/26/26
f 31/31/31 30/30/30 29/29/29
f 34/34/34 33/33/33 32/32/32
f 37/37/37 36/36/36 35/35/35
f 40/40/40 39/39/39 38/38/38
f 43/43/43 42/42/42 41/41/41
f 46/46/46 45/45/45 44/44/44
f 49/49/49 48/48/48 47/47/47
f 52/52/52 51/51/51 50/50/50
f 55/55/55 54/54/54 53/53/53
f 58/58/58 57/57/57 56/56/56
f 61/61/61 60/60/60 59/59/59
f 64/64/64 63/63/63 62/62/62
f 67/67/67 66/66/66 65/65/65
f 70/70/70 69/69/69 68/68/68
f 73/73/73 72/72/72 71/71/71
f 75/75/75 73/73/73 74/74/74
f 78/78/78 77/77/77 76/76/76
f 81/81/81 80/80/80 79/79/79
f 84/84/84 83/83/83 82/82/82
f 87/87/87 86/86/86 85/85/85
f 90/90/90 89/89/89 88/88/88
f 93/93/93 92/92/92 91/91/91
f 96/96/96 95/95/95 94/94/94
f 99/99/99 98/98/98 97/97/97
f 102/102/102 101/101/101 100/100/100
f 105/105/105 104/104/104 103/103/103
f 108/108/108 107/107/107 106/106/106
f 111/111/111 110/110/110 109/109/109
f 114/114/114 113/113/113 112/112/112
f 117/117/117 116/116/116 115/115/115
f 120/120/120 119/119/119 118/118/118
f 123/123/123 122/122/122 121/121/121
f 126/126/126 125/125/125 124/124/124
f 129/129/129 128/128/128 127/127/127
f 132/132/132 131/131/131 130/130/130
f 135/135/135 134/134/134 133/133/133
f 138/138/138 137/137/137 136/136/136
f 141/141/141 140/140/140 139/139/139
f 144/144/144 143/143/143 142/142/142
f 147/147/147 146/146/146 145/145/145
f 150/150/150 149/149/149 148/148/148
f 153/153/153 152/152/152 151/151/151
f 156/156/156 155/155/155 154/154/154
f 159/159/159 158/158/158 157/157/157
f 162/162/162 161/161/161 160/160/160
f 165/165/165 164/164/164 163/163/163
f 168/168/168 167/167/167 166/166/166
f 171/171/171 170/170/170 169/169/169
f 174/174/174 173/173/173 172/172/172
f 177/177/177 176/176/176 175/175/175
f 180/180/180 179/179/179 178/178/178
f 183/183/183 182/182/182 181/181/181
f 186/186/186 185/185/185 184/184/184
f 189/189/189 188/188/188 187/187/187
f 192/192/192 191/191/191 190/190/190
f 195/195/195 194/194/194 193/193/193
f 198/198/198 197/197/197 196/196/196
f 201/201/201 200/200/200 199/199/199
f 204/204/204 203/203/203 202/202/202
f 207/207/207 206/206/206 205/205/205
f 210/210/210 209/209/209 208/208/208
f 213/213/213 212/212/212 211/211/211
f 216/216/216 215/215/215 214/214/214
f 219/219/219 218/218/218 217/217/217
f 222/222/222 221/221/221 220/220/220
f 225/225/225 224/224/224 223/223/223
f 228/228/228 227/227/227 226/226/226
f 231/231/231 230/230/230 229/229/229
f 234/234/234 233/233/233 232/232/232
f 237/237/237 236/236/236 235/235/235
f 240/240/240 239/239/239 238/238/238
f 243/243/243 242/242/242 241/241/241
f 246/246/246 245/245/245 244/244/244
f 249/249/249 248/248/248 247/247/247
f 252/252/252 251/251/251 250/250/250
f 255/255/255 254/254/254 253/253/253
f 258/258/258 257/257/257 256/256/256
f 261/261/261 260/260/260 259/259/259
f 264/264/264 263/263/263 262/262/262
f 267/267/267 266/266/266 265/265/265
f 270/270/270 269/269/269 268/268/268
f 273/273/273 272/272/272 271/271/271
f 276/276/276 275/275/275 274/274/274
f 279/279/279 278/278/278 277/277/277
f 282/282/282 281/281/281 280/280/280
f 285/285/285 284/284/284 283/283/283
f 288/288/288 287/287/287 286/286/286
f 291/291/291 290/290/290 289/289/289
f 294/294/294 293/293/293 292/292/292
f 297/297/297 296/296/296 295/295/295
f 300/300/300 299/299/299 298/298/298
f 303/303/303 302/302/302 301/301/301
f 306/306/306 305/305/305 304/304/304
f 309/309/309 308/308/308 307/307/307
f 312/312/312 311/311/311 310/310/310
f 315/315/315 314/314/314 313/313/313
f 318/318/318 317/317/317 316/316/316
f 321/321/321 320/320/320 319/319/319
f 324/324/324 323/323/323 322/322/322
f 327/327/327 326/326/326 325/325/325
f 330/330/330 329/329/329 328/328/328
f 333/333/333 332/332/332 331/331/331
f 336/336/336 335/335/335 334/334/334
f 339/339/339 338/338/338 337/337/337
f 342/342/342 341/341/341 340/340/340
f 345/345/345 344/344/344 343/343/343
f 348/348/348 347/347/347 346/346/346
f 351/351/351 350/350/350 349/349/349
f 354/354/354 353/353/353 352/352/352
f 357/357/357 356/356/356 355/355/355
f 360/360/360 359/359/359 358/358/358
f 363/363/363 362/362/362 361/361/361
f 366/366/366 365/365/365 364/364/364
f 369/369/369 368/368/368 367/367/367
f 372/372/372 371/371/371 370/370/370
f 375/375/375 374/374/374 373/373/373
f 378/378/378 377/377/377 376/376/376
f 381/381/381 380/380/380 379/379/379
f 384/384/384 383/383/383 382/382/382
f 387/387/387 386/386/386 385/385/385
f 390/390/390 389/389/389 388/388/388
f 393/393/393 392/392/392 391/391/391
f 396/396/396 395/395/395 394/394/394
f 399/399/399 398/398/398 397/397/397
f 402/402/402 401/401/401 400/400/400
f 405/405/405 404/404/404 403/403/403
f 408/408/408 407/407/407 406/406/406
f 411/411/411 410/410/410 409/409/409
f 414/414/414 413/413/413 412/412/412
f 417/417/417 416/416/416 415/415/415
f 420/420/420 419/419/419 418/418/418
f 423/423/423 422/422/422 421/421/421
f 426/426/426 425/425/425 424/424/424
f 429/429/429 428/428/428 427/427/427
f 432/432/432 431/431/431 430/430/430
f 435/435/435 434/434/434 433/433/433
f 438/438/438 437/437/437 436/436/436
f 441/441/441 440/440/440 439/439/439
f 444/444/444 443/443/443 442/442/442
f 447/447/447 446/446/446 445/445/445
f 450/450/450 449/449/449 448/448/448
f 453/453/453 452/452/452 451/451/451
f 456/456/456 455/455/455 454/454/454
f 459/459/459 458/458/458 457/457/457
f 462/462/462 461/461/461 460/460/460
f 465/465/465 464/464/464 463/463/463
f 468/468/468 467/467/467 466/466/466
f 471/471/471 470/470/470 469/469/469
f 474/474/474 473/473/473 472/472/472
f 477/477/477 476/476/476 475/475/475
f 480/480/480 479/479/479 478/478/478
f 483/483/483 482/482/482 481/481/481
f 486/486/486 485/485/485 484/484/484
f 489/489/489 488/488/488 487/487/487
f 492/492/492 491/491/491 490/490/490
f 495/495/495 494/494/494 493/493/493
f 498/498/498 497/497/497 496/496/496
f 501/501/501 500/500/500 499/499/499
f 504/504/504 503/503/503 502/502/502
f 507/507/507 506/506/506 505/505/505
f 507/507/507 509/509/509 508/508/508
f 512/512/512 511/511/511 510/510/510
f 514/514/514 511/511/511 513/513/513
f 515/515/515 514/514/514 513/513/513
f 518/518/518 517/517/517 516/516/516
f 521/521/521 520/520/520 519/519/519
f 524/524/524 523/523/523 522/522/522
f 527/527/527 526/526/526 525/525/525
f 530/530/530 529/529/529 528/528/528
f 533/533/533 532/532/532 531/531/531
f 536/536/536 535/535/535 534/534/534
f 539/539/539 538/538/538 537/537/537
f 542/542/542 541/541/541 540/540/540
f 545/545/545 544/544/544 543/543/543
f 548/548/548 547/547/547 546/546/546
f 551/551/551 550/550/550 549/549/549
f 554/554/554 553/553/553 552/552/552
f 557/557/557 556/556/556 555/555/555
f 560/560/560 559/559/559 558/558/558
f 563/563/563 562/562/562 561/561/561
f 566/566/566 565/565/565 564/564/564
f 569/569/569 568/568/568 567/567/567
f 572/572/572 571/571/571 570/570/570
f 575/575/575 574/574/574 573/573/573
f 578/578/578 577/577/577 576/576/576
f 581/581/581 580/580/580 579/579/579
f 584/584/584 583/583/583 582/582/582
f 587/587/587 586/586/586 585/585/585
f 590/590/590 589/589/589 588/588/588
f 593/593/593 592/592/592 591/591/591
f 596/596/596 595/595/595 594/594/594
f 599/599/599 598/598/598 597/597/597
f 602/602/602 601/601/601 600/600/600
f 605/605/605 604/604/604 603/603/603
f 608/608/608 607/607/607 606/606/606
f 611/611/611 610/610/610 609/609/609
f 614/614/614 613/613/613 612/612/612
f 617/617/617 616/616/616 615/615/615
f 620/620/620 619/619/619 618/618/618
f 623/623/623 622/622/622 621/621/621
f 626/626/626 625/625/625 624/624/624
f 629/629/629 628/628/628 627/627/627
f 632/632/632 631/631/631 630/630/630
f 635/635/635 634/634/634 633/633/633
f 638/638/638 637/637/637 636/636/636
f 641/641/641 640/640/640 639/639/639
f 644/644/644 643/643/643 642/642/642
f 647/647/647 646/646/646 645/645/645
f 646/646/646 648/648/648 645/645/645
f 651/651/651 650/650/650 649/649/649
f 652/652/652 649/649/649 650/650/650
f 650/650/650 653/653/653 652/652/652
f 656/656/656 655/655/655 654/654/654
f 654/654/654 655/655/655 657/657/657
f 660/660/660 659/659/659 658/658/658
f 661/661/661 658/658/658 659/659/659
f 664/664/664 663/663/663 662/662/662
f 662/662/662 663/663/663 665/665/665
f 668/668/668 667/667/667 666/666/666
f 669/669/669 668/668/668 666/666/666
f 669/669/669 666/666/666 670/670/670
f 671/671/671 669/669/669 670/670/670
f 674/674/674 673/673/673 672/672/672
f 675/675/675 673/673/673 674/674/674
f 678/678/678 677/677/677 676/676/676
f 676/676/676 679/679/679 678/678/678
f 682/682/682 681/681/681 680/680/680
f 680/680/680 683/683/683 682/682/682
f 686/686/686 685/685/685 684/684/684
f 686/686/686 687/687/687 685/685/685
f 690/690/690 689/689/689 688/688/688
f 691/691/691 688/688/688 689/689/689
f 694/694/694 693/693/693 692/692/692
f 693/693/693 695/695/695 692/692/692
f 698/698/698 697/697/697 696/696/696
f 699/699/699 698/698/698 696/696/696
f 702/702/702 701/701/701 700/700/700
f 703/703/703 702/702/702 700/700/700
f 706/706/706 705/705/705 704/704/704
f 707/707/707 706/706/706 704/704/704
f 710/710/710 709/709/709 708/708/708
f 708/708/708 709/709/709 711/711/711
f 712/712/712 708/708/708 711/711/711
f 713/713/713 708/708/708 712/712/712
f 716/716/716 715/715/715 714/714/714
f 717/717/717 716/716/716 714/714/714
f 720/720/720 719/719/719 718/718/718
f 721/721/721 720/720/720 718/718/718
f 724/724/724 723/723/723 722/722/722
f 725/725/725 724/724/724 722/722/722
f 728/728/728 727/727/727 726/726/726
f 729/729/729 728/728/728 726/726/726
f 732/732/732 731/731/731 730/730/730
f 733/733/733 732/732/732 730/730/730
f 736/736/736 735/735/735 734/734/734
f 737/737/737 734/734/734 735/735/735
f 740/740/740 739/739/739 738/738/738
f 741/741/741 740/740/740 738/738/738
f 744/744/744 743/743/743 742/742/742
f 745/745/745 744/744/744 742/742/742
f 748/748/748 747/747/747 746/746/746
f 749/749/749 748/748/748 746/746/746
f 752/752/752 751/751/751 750/750/750
f 753/753/753 752/752/752 750/750/750
f 756/756/756 755/755/755 754/754/754
f 754/754/754 755/755/755 757/757/757
f 755/755/755 758/758/758 757/757/757
f 761/761/761 760/760/760 759/759/759
f 759/759/759 760/760/760 762/762/762
f 765/765/765 764/764/764 763/763/763
f 764/764/764 766/766/766 763/763/763
f 769/769/769 768/768/768 767/767/767
f 767/767/767 768/768/768 770/770/770