version 1
nodes
0 "root" -1
end
skeleton
time 0
0 0 0 0 0 0 0
end
triangles
Default
0 2.609985 -0.456207 1.810150 -0.020487 -0.942478 0.333640 0.108887 0.642090 1 0 1.0
0 3.563631 -0.456207 1.868707 -0.020487 -0.942478 0.333640 0.108887 0.642090 1 0 1.0
0 3.398060 0.000000 3.147250 -0.020487 -0.942478 0.333640 0.108887 0.642090 1 0 1.0
Default
0 6.928568 -0.000000 -1.445064 0.578154 -0.112230 -0.808172 0.232910 0.425049 1 0 1.0
0 8.339161 -0.000000 -0.435948 0.578154 -0.112230 -0.808172 0.232910 0.425049 1 0 1.0
0 8.256719 -1.041135 -0.350344 0.578154 -0.112230 -0.808172 0.232910 0.425049 1 0 1.0
Default
0 -1.817107 -0.000000 -1.097841 -0.204231 -0.367887 -0.907165 0.232910 0.425049 1 0 1.0
0 0.255379 -0.000000 -1.564422 -0.204231 -0.367887 -0.907165 0.232910 0.425049 1 0 1.0
0 0.336741 -0.805935 -1.255904 -0.204231 -0.367887 -0.907165 0.232910 0.425049 1 0 1.0
Default
0 0.336741 -0.805935 -1.255904 -0.094753 -0.364228 -0.926477 0.232910 0.425049 1 0 1.0
0 0.255379 -0.000000 -1.564422 -0.094753 -0.364228 -0.926477 0.232910 0.425049 1 0 1.0
0 2.165105 -0.000000 -1.759735 -0.094753 -0.364228 -0.926477 0.232910 0.425049 1 0 1.0
Default
0 7.774925 -0.000000 1.810150 0.107058 -0.044399 0.993261 0.234375 0.578125 1 0 1.0
0 5.962856 -0.000000 2.005463 0.107058 -0.044399 0.993261 0.234375 0.578125 1 0 1.0
0 5.972663 -0.862679 1.965844 0.107058 -0.044399 0.993261 0.234375 0.578125 1 0 1.0
Default
0 5.972663 -0.862679 1.965844 -0.056260 -0.046443 0.997335 0.234375 0.578125 1 0 1.0
0 5.962856 -0.000000 2.005463 -0.056260 -0.046443 0.997335 0.234375 0.578125 1 0 1.0
0 3.846966 0.000000 1.886105 -0.056260 -0.046443 0.997335 0.234375 0.578125 1 0 1.0
Default
0 3.563631 -0.456207 1.868707 -0.042281 -0.011840 0.999036 0.234375 0.578125 1 0 1.0
0 5.972663 -0.862679 1.965844 -0.056260 -0.046443 0.997335 0.234375 0.578125 1 0 1.0
0 3.846966 0.000000 1.886105 -0.042281 0.011840 0.999036 0.234375 0.578125 1 0 1.0
Default
0 5.972663 0.862679 1.965844 -0.042281 0.011840 0.999036 0.234375 0.578125 1 0 1.0
0 3.563631 0.456207 1.868707 -0.042281 0.011840 0.999036 0.234375 0.578125 1 0 1.0
0 3.846966 0.000000 1.886105 -0.042281 0.011840 0.999036 0.234375 0.578125 1 0 1.0
Default
0 5.962856 -0.000000 2.005463 -0.056260 0.046443 0.997335 0.234375 0.578125 1 0 1.0
0 5.972663 0.862679 1.965844 -0.042281 0.011840 0.999036 0.234375 0.578125 1 0 1.0
0 3.846966 0.000000 1.886105 -0.042281 0.011840 0.999036 0.234375 0.578125 1 0 1.0
Default
0 -8.080276 -0.000000 -0.877968 0.250971 -0.581452 -0.773903 0.108887 0.642090 1 0 1.0
0 -5.278485 -0.000000 0.030633 0.250971 -0.581452 -0.773903 0.108887 0.642090 1 0 1.0
0 -6.211646 -0.301684 -0.045322 0.250971 -0.581452 -0.773903 0.108887 0.642090 1 0 1.0
Default
0 -3.911294 -0.165228 1.538882 0.054007 -0.727551 0.683924 0.234375 0.578125 1 0 1.0
0 -5.596136 -0.585102 1.225270 0.054007 -0.727551 0.683924 0.234375 0.578125 1 0 1.0
0 -3.421131 -0.776163 0.850269 0.054007 -0.727551 0.683924 0.234375 0.578125 1 0 1.0
Default
0 3.398060 0.000000 3.147250 0.808592 -0.513166 0.287819 0.108887 0.642090 1 0 1.0
0 3.563631 -0.456207 1.868707 0.808592 -0.513166 0.287819 0.108887 0.642090 1 0 1.0
0 3.846966 0.000000 1.886105 0.808592 -0.513166 0.287819 0.108887 0.642090 1 0 1.0
Default
0 1.542588 0.000000 3.036572 0.026326 -0.929228 0.368569 0.108887 0.642090 1 0 1.0
0 1.394704 -0.456207 1.896956 0.026326 -0.929228 0.368569 0.108887 0.642090 1 0 1.0
0 2.609985 -0.456207 1.810150 0.026326 -0.929228 0.368569 0.108887 0.642090 1 0 1.0
Default
0 -3.911294 -0.165228 1.538882 -0.123250 -0.953182 0.276139 0.108887 0.642090 1 0 1.0
0 -1.296273 -0.456207 1.701643 -0.123250 -0.953182 0.276139 0.108887 0.642090 1 0 1.0
0 -2.130914 0.000000 2.903861 -0.123250 -0.953182 0.276139 0.108887 0.642090 1 0 1.0
Default
0 -6.211646 -0.301684 -0.045322 0.081127 0.000000 -0.996704 0.234375 0.578125 1 0 1.0
0 -5.278485 -0.000000 0.030633 0.081127 0.000000 -0.996704 0.234375 0.578125 1 0 1.0
0 -5.278485 -0.324365 0.030633 0.081127 0.000000 -0.996704 0.234375 0.578125 1 0 1.0
Default
0 -5.278485 -0.000000 0.030633 0.081127 0.000000 -0.996704 0.234375 0.578125 1 0 1.0
0 -6.211646 0.301684 -0.045322 0.081127 0.000000 -0.996704 0.234375 0.578125 1 0 1.0
0 -5.278485 0.324365 0.030633 0.081127 0.000000 -0.996704 0.234375 0.578125 1 0 1.0
Default
0 9.085166 -0.353244 -0.113348 0.911380 -0.411544 0.004329 0.232910 0.425049 1 0 1.0
0 9.066158 -0.393139 0.095737 0.911380 -0.411544 0.004329 0.232910 0.425049 1 0 1.0
0 8.610431 -1.399630 0.356154 0.911380 -0.411544 0.004329 0.232910 0.425049 1 0 1.0
Default
0 4.487635 -1.008425 -1.538641 -0.098937 -0.923183 -0.371409 0.232910 0.425049 1 0 1.0
0 5.257793 -1.599462 -0.274702 -0.098937 -0.923183 -0.371409 0.232910 0.425049 1 0 1.0
0 3.198876 -1.368940 -0.299236 -0.098937 -0.923183 -0.371409 0.232910 0.425049 1 0 1.0
Default
0 7.407761 -1.741700 -0.088001 0.483880 -0.753221 -0.445553 0.232910 0.425049 1 0 1.0
0 6.880601 -1.468703 -1.122018 0.483880 -0.753221 -0.445553 0.232910 0.425049 1 0 1.0
0 8.256719 -1.041135 -0.350344 0.483880 -0.753221 -0.445553 0.232910 0.425049 1 0 1.0
Default
0 8.256719 -1.041135 -0.350344 0.612341 -0.537817 -0.579475 0.232910 0.425049 1 0 1.0
0 9.085166 -0.353244 -0.113348 0.612341 -0.537817 -0.579475 0.232910 0.425049 1 0 1.0
0 8.610431 -1.399630 0.356154 0.612341 -0.537817 -0.579475 0.232910 0.425049 1 0 1.0
Default
0 8.610431 -1.399630 0.356154 0.688316 -0.574823 0.442492 0.232910 0.425049 1 0 1.0
0 9.011907 -0.517956 0.876989 0.688316 -0.574823 0.442492 0.232910 0.425049 1 0 1.0
0 8.863222 -0.517956 1.108276 0.688316 -0.574823 0.442492 0.232910 0.425049 1 0 1.0
Default
0 6.360224 -1.671915 0.763231 0.078621 -0.815169 0.573863 0.234375 0.578125 1 0 1.0
0 7.792472 -0.852171 1.731451 0.078621 -0.815169 0.573863 0.234375 0.578125 1 0 1.0
0 5.972663 -0.862679 1.965844 0.078621 -0.815169 0.573863 0.234375 0.578125 1 0 1.0
Default
0 7.500588 -1.519207 0.986966 0.498008 -0.733749 0.462168 0.234375 0.578125 1 0 1.0
0 8.863222 -0.517956 1.108276 0.498008 -0.733749 0.462168 0.234375 0.578125 1 0 1.0
0 7.792472 -0.852171 1.731451 0.498008 -0.733749 0.462168 0.234375 0.578125 1 0 1.0
Default
0 7.500588 -1.519207 0.986966 -0.033470 -0.737810 0.674178 0.234375 0.578125 1 0 1.0
0 7.792472 -0.852171 1.731451 -0.033470 -0.737810 0.674178 0.234375 0.578125 1 0 1.0
0 6.360224 -1.671915 0.763231 -0.033470 -0.737810 0.674178 0.234375 0.578125 1 0 1.0
Default
0 6.360224 -1.671915 0.763231 -0.162817 -0.842092 0.514172 0.234375 0.578125 1 0 1.0
0 5.972663 -0.862679 1.965844 -0.162817 -0.842092 0.514172 0.234375 0.578125 1 0 1.0
0 3.563631 -0.456207 1.868707 -0.162817 -0.842092 0.514172 0.234375 0.578125 1 0 1.0
Default
0 0.628877 -1.241419 1.056099 -0.051253 -0.706205 0.706150 0.234375 0.578125 1 0 1.0
0 1.394704 -0.456207 1.896956 -0.051253 -0.706205 0.706150 0.234375 0.578125 1 0 1.0
0 -1.296273 -0.456207 1.701643 -0.051253 -0.706205 0.706150 0.234375 0.578125 1 0 1.0
Default
0 0.628877 -1.241419 1.056099 0.047038 -0.751079 0.658534 0.234375 0.578125 1 0 1.0
0 2.609985 -0.456207 1.810150 0.047038 -0.751079 0.658534 0.234375 0.578125 1 0 1.0
0 1.394704 -0.456207 1.896956 0.047038 -0.751079 0.658534 0.234375 0.578125 1 0 1.0
Default
0 -3.421131 -0.776163 0.850269 -0.125103 -0.784694 0.607129 0.234375 0.578125 1 0 1.0
0 -1.296273 -0.456207 1.701643 -0.125103 -0.784694 0.607129 0.234375 0.578125 1 0 1.0
0 -3.911294 -0.165228 1.538882 -0.125103 -0.784694 0.607129 0.234375 0.578125 1 0 1.0
Default
0 3.458771 -1.395358 1.171512 0.055288 -0.599132 0.798739 0.234375 0.578125 1 0 1.0
0 6.360224 -1.671915 0.763231 0.055288 -0.599132 0.798739 0.234375 0.578125 1 0 1.0
0 3.563631 -0.456207 1.868707 0.055288 -0.599132 0.798739 0.234375 0.578125 1 0 1.0
Default
0 7.500588 -1.519207 0.986966 0.425555 -0.654824 0.624587 0.232910 0.425049 1 0 1.0
0 8.610431 -1.399630 0.356154 0.425555 -0.654824 0.624587 0.232910 0.425049 1 0 1.0
0 8.863222 -0.517956 1.108276 0.425555 -0.654824 0.624587 0.232910 0.425049 1 0 1.0
Default
0 7.407761 -1.741700 -0.088001 0.412346 -0.712354 -0.567910 0.232910 0.425049 1 0 1.0
0 8.256719 -1.041135 -0.350344 0.412346 -0.712354 -0.567910 0.232910 0.425049 1 0 1.0
0 8.610431 -1.399630 0.356154 0.412346 -0.712354 -0.567910 0.232910 0.425049 1 0 1.0
Default
0 7.407761 -1.741700 -0.088001 0.206570 -0.961512 0.181173 0.232910 0.425049 1 0 1.0
0 8.610431 -1.399630 0.356154 0.206570 -0.961512 0.181173 0.232910 0.425049 1 0 1.0
0 7.500588 -1.519207 0.986966 0.206570 -0.961512 0.181173 0.232910 0.425049 1 0 1.0
Default
0 -1.921130 -1.112491 0.232000 -0.194768 -0.862110 0.467795 0.234375 0.578125 1 0 1.0
0 0.628877 -1.241419 1.056099 -0.194768 -0.862110 0.467795 0.234375 0.578125 1 0 1.0
0 -1.296273 -0.456207 1.701643 -0.194768 -0.862110 0.467795 0.234375 0.578125 1 0 1.0
Default
0 -5.596136 -0.585102 1.225270 -0.360165 -0.922240 0.140552 0.234375 0.578125 1 0 1.0
0 -6.059736 -0.301684 1.896956 -0.360165 -0.922240 0.140552 0.234375 0.578125 1 0 1.0
0 -6.406959 -0.301684 1.007197 -0.360165 -0.922240 0.140552 0.234375 0.578125 1 0 1.0
Default
0 -5.539886 -0.585102 0.662769 0.008299 -0.925622 -0.378359 0.234375 0.578125 1 0 1.0
0 -6.211646 -0.301684 -0.045322 0.008299 -0.925622 -0.378359 0.234375 0.578125 1 0 1.0
0 -5.278485 -0.324365 0.030633 0.008299 -0.925622 -0.378359 0.234375 0.578125 1 0 1.0
Default
0 -5.278485 -0.324365 0.030633 -0.165152 -0.885811 -0.433664 0.234375 0.578125 1 0 1.0
0 -3.831736 -0.701570 0.250153 -0.165152 -0.885811 -0.433664 0.234375 0.578125 1 0 1.0
0 -5.539886 -0.585102 0.662769 -0.165152 -0.885811 -0.433664 0.234375 0.578125 1 0 1.0
Default
0 -1.921130 -1.112491 0.232000 -0.031014 -0.907678 0.418519 0.234375 0.578125 1 0 1.0
0 -1.296273 -0.456207 1.701643 -0.031014 -0.907678 0.418519 0.234375 0.578125 1 0 1.0
0 -3.421131 -0.776163 0.850269 -0.031014 -0.907678 0.418519 0.234375 0.578125 1 0 1.0
Default
0 -1.921130 -1.112491 0.232000 -0.300103 -0.927445 -0.223124 0.232910 0.425049 1 0 1.0
0 -3.641100 -0.423294 -0.319373 -0.300103 -0.927445 -0.223124 0.232910 0.425049 1 0 1.0
0 -1.849986 -0.885299 -0.808048 -0.300103 -0.927445 -0.223124 0.232910 0.425049 1 0 1.0
Default
0 -3.831736 -0.701570 0.250153 -0.210013 -0.977447 0.022198 0.234375 0.578125 1 0 1.0
0 -1.921130 -1.112491 0.232000 -0.210013 -0.977447 0.022198 0.234375 0.578125 1 0 1.0
0 -3.421131 -0.776163 0.850269 -0.210013 -0.977447 0.022198 0.234375 0.578125 1 0 1.0
Default
0 -5.596136 -0.585102 1.225270 -0.069700 -0.997544 -0.006970 0.234375 0.578125 1 0 1.0
0 -5.539886 -0.585102 0.662769 -0.069700 -0.997544 -0.006970 0.234375 0.578125 1 0 1.0
0 -3.831736 -0.701570 0.250153 -0.069700 -0.997544 -0.006970 0.234375 0.578125 1 0 1.0
Default
0 -3.831736 -0.701570 0.250153 -0.097122 -0.993636 -0.057056 0.234375 0.578125 1 0 1.0
0 -3.421131 -0.776163 0.850269 -0.097122 -0.993636 -0.057056 0.234375 0.578125 1 0 1.0
0 -5.596136 -0.585102 1.225270 -0.097122 -0.993636 -0.057056 0.234375 0.578125 1 0 1.0
Default
0 3.198876 -1.368940 -0.299236 -0.053974 -0.998507 -0.008398 0.234375 0.578125 1 0 1.0
0 3.458771 -1.395358 1.171512 -0.053974 -0.998507 -0.008398 0.234375 0.578125 1 0 1.0
0 0.628877 -1.241419 1.056099 -0.053974 -0.998507 -0.008398 0.234375 0.578125 1 0 1.0
Default
0 -1.849986 -0.885299 -0.808048 -0.102502 -0.970331 -0.218975 0.232910 0.425049 1 0 1.0
0 0.546415 -1.289358 -0.139311 -0.102502 -0.970331 -0.218975 0.232910 0.425049 1 0 1.0
0 -1.921130 -1.112491 0.232000 -0.102502 -0.970331 -0.218975 0.232910 0.425049 1 0 1.0
Default
0 3.198876 -1.368940 -0.299236 -0.065136 -0.937963 -0.340562 0.232910 0.425049 1 0 1.0
0 2.355760 -0.866456 -1.521901 -0.065136 -0.937963 -0.340562 0.232910 0.425049 1 0 1.0
0 4.487635 -1.008425 -1.538641 -0.065136 -0.937963 -0.340562 0.232910 0.425049 1 0 1.0
Default
0 0.546415 -1.289358 -0.139311 -0.046394 -0.919845 -0.389530 0.232910 0.425049 1 0 1.0
0 2.355760 -0.866456 -1.521901 -0.078133 -0.920146 -0.383701 0.232910 0.425049 1 0 1.0
0 3.198876 -1.368940 -0.299236 -0.065136 -0.937963 -0.340562 0.232910 0.425049 1 0 1.0
Default
0 0.546415 -1.289358 -0.139311 -0.046394 -0.919845 -0.389530 0.232910 0.425049 1 0 1.0
0 0.336741 -0.805935 -1.255904 -0.046394 -0.919845 -0.389530 0.232910 0.425049 1 0 1.0
0 2.355760 -0.866456 -1.521901 -0.078133 -0.920146 -0.383701 0.232910 0.425049 1 0 1.0
Default
0 0.546415 -1.289358 -0.139311 -0.046394 -0.919845 -0.389530 0.232910 0.425049 1 0 1.0
0 -1.849986 -0.885299 -0.808048 -0.046394 -0.919845 -0.389530 0.232910 0.425049 1 0 1.0
0 0.336741 -0.805935 -1.255904 -0.046394 -0.919845 -0.389530 0.232910 0.425049 1 0 1.0
Default
0 5.257793 -1.599462 -0.274702 -0.175483 -0.865254 -0.469618 0.232910 0.425049 1 0 1.0
0 5.959199 -1.070753 -1.510924 -0.175483 -0.865254 -0.469618 0.232910 0.425049 1 0 1.0
0 6.880601 -1.468703 -1.122018 -0.175483 -0.865254 -0.469618 0.232910 0.425049 1 0 1.0
Default
0 5.257793 -1.599462 -0.274702 -0.030968 -0.912527 -0.407842 0.232910 0.425049 1 0 1.0
0 4.487635 -1.008425 -1.538641 -0.030968 -0.912527 -0.407842 0.232910 0.425049 1 0 1.0
0 5.959199 -1.070753 -1.510924 -0.030968 -0.912527 -0.407842 0.232910 0.425049 1 0 1.0
Default
0 6.360224 -1.671915 0.763231 0.092689 -0.976588 0.194128 0.232910 0.425049 1 0 1.0
0 7.407761 -1.741700 -0.088001 0.092689 -0.976588 0.194128 0.232910 0.425049 1 0 1.0
0 7.500588 -1.519207 0.986966 0.092689 -0.976588 0.194128 0.232910 0.425049 1 0 1.0
Default
0 5.257793 -1.599462 -0.274702 -0.043933 -0.971238 -0.234024 0.232910 0.425049 1 0 1.0
0 6.880601 -1.468703 -1.122018 -0.043933 -0.971238 -0.234024 0.232910 0.425049 1 0 1.0
0 7.407761 -1.741700 -0.088001 -0.043933 -0.971238 -0.234024 0.232910 0.425049 1 0 1.0
Default
0 7.407761 -1.741700 -0.088001 -0.066058 -0.997816 0.000511 0.232910 0.425049 1 0 1.0
0 6.360224 -1.671915 0.763231 -0.066058 -0.997816 0.000511 0.232910 0.425049 1 0 1.0
0 5.257793 -1.599462 -0.274702 -0.066058 -0.997816 0.000511 0.232910 0.425049 1 0 1.0
Default
0 -8.880431 -0.000000 -0.415597 -0.089679 -0.983805 -0.155194 0.108887 0.642090 1 0 1.0
0 -8.080276 -0.000000 -0.877968 -0.089679 -0.983805 -0.155194 0.108887 0.642090 1 0 1.0
0 -6.211646 -0.301684 -0.045322 -0.089679 -0.983805 -0.155194 0.108887 0.642090 1 0 1.0
Default
0 5.023276 -1.668640 -0.127737 -0.828579 0.542633 -0.137860 0.232910 0.425049 1 0 1.0
0 4.607362 -2.576470 -1.201299 -0.828579 0.542633 -0.137860 0.232910 0.425049 1 0 1.0
0 4.112561 -2.897451 0.509178 -0.828579 0.542633 -0.137860 0.232910 0.425049 1 0 1.0
Default
0 4.112561 -2.897451 0.509178 0.833102 -0.452757 0.317729 0.232910 0.425049 1 0 1.0
0 4.868932 -2.706031 -1.201299 0.833102 -0.452757 0.317729 0.232910 0.425049 1 0 1.0
0 5.023276 -1.668640 -0.127737 0.833102 -0.452757 0.317729 0.232910 0.425049 1 0 1.0
Default
0 5.023276 -1.668640 -0.127737 0.325069 0.656279 -0.680902 0.232910 0.425049 1 0 1.0
0 4.868932 -2.706031 -1.201299 0.325069 0.656279 -0.680902 0.232910 0.425049 1 0 1.0
0 4.607362 -2.576470 -1.201299 0.325069 0.656279 -0.680902 0.232910 0.425049 1 0 1.0
Default
0 4.868932 -2.706031 -1.201299 0.068545 0.138384 -0.988004 0.232910 0.425049 1 0 1.0
0 3.952084 -3.997964 -1.445860 0.068545 0.138384 -0.988004 0.232910 0.425049 1 0 1.0
0 4.607362 -2.576470 -1.201299 0.068545 0.138384 -0.988004 0.232910 0.425049 1 0 1.0
Default
0 4.068620 -4.008272 -0.324729 -0.948445 0.213421 -0.234314 0.232910 0.425049 1 0 1.0
0 4.112561 -2.897451 0.509178 -0.948445 0.213421 -0.234314 0.232910 0.425049 1 0 1.0
0 4.607362 -2.576470 -1.201299 -0.948445 0.213421 -0.234314 0.232910 0.425049 1 0 1.0
Default
0 4.068620 -4.008272 -0.324729 0.820168 -0.564928 -0.090446 0.232910 0.425049 1 0 1.0
0 3.952084 -3.997964 -1.445860 0.820168 -0.564928 -0.090446 0.232910 0.425049 1 0 1.0
0 4.868932 -2.706031 -1.201299 0.820168 -0.564928 -0.090446 0.232910 0.425049 1 0 1.0
Default
0 7.499676 -1.041267 1.445297 0.829325 -0.282029 -0.482369 0.234375 0.578125 1 0 1.0
0 7.284072 -1.592183 1.396717 0.829325 -0.282029 -0.482369 0.234375 0.578125 1 0 1.0
0 7.303877 -1.273029 1.244168 0.829325 -0.282029 -0.482369 0.234375 0.578125 1 0 1.0
Default
0 6.960225 -1.608185 1.808595 0.306047 -0.929790 0.204513 0.234375 0.578125 1 0 1.0
0 7.284072 -1.592183 1.396717 0.306047 -0.929790 0.204513 0.234375 0.578125 1 0 1.0
0 7.351360 -1.480623 1.803218 0.306047 -0.929790 0.204513 0.234375 0.578125 1 0 1.0
Default
0 7.022689 -0.947077 1.665463 -0.386674 0.586398 -0.711773 0.234375 0.578125 1 0 1.0
0 7.303877 -1.273029 1.244168 -0.386674 0.586398 -0.711773 0.234375 0.578125 1 0 1.0
0 6.871614 -1.431804 1.348190 -0.386674 0.586398 -0.711773 0.234375 0.578125 1 0 1.0
Default
0 7.022689 -0.947077 1.665463 -0.166784 0.722847 -0.670578 0.234375 0.578125 1 0 1.0
0 7.499676 -1.041267 1.445297 -0.166784 0.722847 -0.670578 0.234375 0.578125 1 0 1.0
0 7.303877 -1.273029 1.244168 -0.166784 0.722847 -0.670578 0.234375 0.578125 1 0 1.0
Default
0 7.499676 -1.041267 1.445297 0.931442 -0.359634 -0.055483 0.234375 0.578125 1 0 1.0
0 7.351360 -1.480623 1.803218 0.931442 -0.359634 -0.055483 0.234375 0.578125 1 0 1.0
0 7.284072 -1.592183 1.396717 0.931442 -0.359634 -0.055483 0.234375 0.578125 1 0 1.0
Default
0 7.022689 -0.947077 1.665463 0.361791 0.827208 0.429924 0.234375 0.578125 1 0 1.0
0 7.231091 -1.142107 1.865341 0.361791 0.827208 0.429924 0.234375 0.578125 1 0 1.0
0 7.499676 -1.041267 1.445297 0.361791 0.827208 0.429924 0.234375 0.578125 1 0 1.0
Default
0 6.960225 -1.608185 1.808595 0.088531 -0.230609 0.969011 0.234375 0.578125 1 0 1.0
0 7.351360 -1.480623 1.803218 0.088531 -0.230609 0.969011 0.234375 0.578125 1 0 1.0
0 6.925591 -1.309342 1.882880 0.088531 -0.230609 0.969011 0.234375 0.578125 1 0 1.0
Default
0 7.231091 -1.142107 1.865341 0.129841 -0.134157 0.982417 0.234375 0.578125 1 0 1.0
0 6.925591 -1.309342 1.882880 0.129841 -0.134157 0.982417 0.234375 0.578125 1 0 1.0
0 7.351360 -1.480623 1.803218 0.129841 -0.134157 0.982417 0.234375 0.578125 1 0 1.0
Default
0 6.871614 -1.431804 1.348190 -0.960174 0.277400 0.033394 0.234375 0.578125 1 0 1.0
0 6.925591 -1.309342 1.882880 -0.960174 0.277400 0.033394 0.234375 0.578125 1 0 1.0
0 7.022689 -0.947077 1.665463 -0.960174 0.277400 0.033394 0.234375 0.578125 1 0 1.0
Default
0 7.284072 -1.592183 1.396717 -0.060072 -0.427433 -0.902049 0.234375 0.578125 1 0 1.0
0 6.871614 -1.431804 1.348190 -0.060072 -0.427433 -0.902049 0.234375 0.578125 1 0 1.0
0 7.303877 -1.273029 1.244168 -0.060072 -0.427433 -0.902049 0.234375 0.578125 1 0 1.0
Default
0 6.960225 -1.608185 1.808595 -0.318024 -0.904175 -0.285182 0.234375 0.578125 1 0 1.0
0 6.871614 -1.431804 1.348190 -0.318024 -0.904175 -0.285182 0.234375 0.578125 1 0 1.0
0 7.284072 -1.592183 1.396717 -0.318024 -0.904175 -0.285182 0.234375 0.578125 1 0 1.0
Default
0 6.925591 -1.309342 1.882880 -0.980285 -0.146556 0.132524 0.234375 0.578125 1 0 1.0
0 6.871614 -1.431804 1.348190 -0.980285 -0.146556 0.132524 0.234375 0.578125 1 0 1.0
0 6.960225 -1.608185 1.808595 -0.980285 -0.146556 0.132524 0.234375 0.578125 1 0 1.0
Default
0 7.351360 -1.480623 1.803218 0.807461 0.184020 0.560485 0.234375 0.578125 1 0 1.0
0 7.499676 -1.041267 1.445297 0.807461 0.184020 0.560485 0.234375 0.578125 1 0 1.0
0 7.231091 -1.142107 1.865341 0.807461 0.184020 0.560485 0.234375 0.578125 1 0 1.0
Default
0 7.022689 -0.947077 1.665463 -0.253537 0.546838 0.797927 0.234375 0.578125 1 0 1.0
0 6.925591 -1.309342 1.882880 -0.253537 0.546838 0.797927 0.234375 0.578125 1 0 1.0
0 7.231091 -1.142107 1.865341 -0.253537 0.546838 0.797927 0.234375 0.578125 1 0 1.0
Default
0 3.054046 -0.807936 -1.516614 0.094312 0.779872 -0.618793 0.232910 0.425049 1 0 1.0
0 4.410444 -0.967887 -1.511468 0.094312 0.779872 -0.618793 0.232910 0.425049 1 0 1.0
0 4.027690 -1.756697 -2.563952 0.094312 0.779872 -0.618793 0.232910 0.425049 1 0 1.0
Default
0 4.410444 -0.967887 -1.511468 -0.008047 -0.798769 0.601584 0.232910 0.425049 1 0 1.0
0 2.605345 -1.827402 -2.676859 -0.008047 -0.798769 0.601584 0.232910 0.425049 1 0 1.0
0 4.027690 -1.756697 -2.563952 -0.008047 -0.798769 0.601584 0.232910 0.425049 1 0 1.0
Default
0 2.605345 -1.827402 -2.676859 0.024191 -0.955600 0.293672 0.232910 0.425049 1 0 1.0
0 3.044329 -1.963825 -3.156937 0.024191 -0.955600 0.293672 0.232910 0.425049 1 0 1.0
0 4.027690 -1.756697 -2.563952 0.024191 -0.955600 0.293672 0.232910 0.425049 1 0 1.0
Default
0 3.044329 -1.963825 -3.156937 0.065423 0.946395 -0.316317 0.232910 0.425049 1 0 1.0
0 1.407051 -1.927191 -3.385966 0.065423 0.946395 -0.316317 0.232910 0.425049 1 0 1.0
0 0.857710 -1.666315 -2.719062 0.065423 0.946395 -0.316317 0.232910 0.425049 1 0 1.0
Default
0 1.407051 -1.927191 -3.385966 -0.053557 -0.972342 0.227337 0.232910 0.425049 1 0 1.0
0 3.044329 -1.963825 -3.156937 -0.053557 -0.972342 0.227337 0.232910 0.425049 1 0 1.0
0 2.605345 -1.827402 -2.676859 -0.053557 -0.972342 0.227337 0.232910 0.425049 1 0 1.0
Default
0 -3.416513 -0.346337 -0.368353 0.008783 0.968077 -0.250500 0.234131 0.579102 1 0 1.0
0 0.192923 -0.613680 -1.274972 0.008783 0.968077 -0.250500 0.234131 0.579102 1 0 1.0
0 -0.122015 -0.826424 -2.108178 0.008783 0.968077 -0.250500 0.234131 0.579102 1 0 1.0
Default
0 -1.981403 -0.897129 -1.520307 0.058314 -0.870427 0.488832 0.234131 0.579102 1 0 1.0
0 0.192923 -0.613680 -1.274972 0.058314 -0.870427 0.488832 0.234131 0.579102 1 0 1.0
0 -3.416513 -0.346337 -0.368353 0.058314 -0.870427 0.488832 0.234131 0.579102 1 0 1.0
Default
0 0.192923 -0.613680 -1.274972 0.103148 -0.972397 0.209296 0.234131 0.579102 1 0 1.0
0 -1.981403 -0.897129 -1.520307 0.103148 -0.972397 0.209296 0.234131 0.579102 1 0 1.0
0 -0.122015 -0.826424 -2.108178 0.103148 -0.972397 0.209296 0.234131 0.579102 1 0 1.0
Default
0 -3.488642 -0.996919 -1.931347 -0.062810 0.961024 -0.269235 0.234131 0.579102 1 0 1.0
0 -4.663409 -0.736043 -0.726098 -0.062810 0.961024 -0.269235 0.234131 0.579102 1 0 1.0
0 -0.122015 -0.826424 -2.108178 -0.062810 0.961024 -0.269235 0.234131 0.579102 1 0 1.0
Default
0 3.398060 0.000000 3.147250 -0.020487 0.942478 0.333640 0.108887 0.642090 1 0 1.0
0 3.563631 0.456207 1.868707 -0.020487 0.942478 0.333640 0.108887 0.642090 1 0 1.0
0 2.609985 0.456207 1.810150 -0.020487 0.942478 0.333640 0.108887 0.642090 1 0 1.0
Default
0 8.256719 1.041135 -0.350344 0.578154 0.112230 -0.808172 0.232910 0.425049 1 0 1.0
0 8.339161 -0.000000 -0.435948 0.578154 0.112230 -0.808172 0.232910 0.425049 1 0 1.0
0 6.928568 -0.000000 -1.445064 0.578154 0.112230 -0.808172 0.232910 0.425049 1 0 1.0
Default
0 -3.641100 0.423294 -0.319373 -0.319868 0.284001 -0.903896 0.232910 0.425049 1 0 1.0
0 -1.849986 0.885299 -0.808048 -0.319868 0.284001 -0.903896 0.232910 0.425049 1 0 1.0
0 -1.817107 -0.000000 -1.097841 -0.319868 0.284001 -0.903896 0.232910 0.425049 1 0 1.0
Default
0 0.336741 0.805935 -1.255904 -0.204231 0.367887 -0.907165 0.232910 0.425049 1 0 1.0
0 0.255379 -0.000000 -1.564422 -0.204231 0.367887 -0.907165 0.232910 0.425049 1 0 1.0
0 -1.817107 -0.000000 -1.097841 -0.204231 0.367887 -0.907165 0.232910 0.425049 1 0 1.0
Default
0 0.336741 0.805935 -1.255904 -0.133548 0.289548 -0.947801 0.232910 0.425049 1 0 1.0
0 2.355760 0.866456 -1.521901 -0.133548 0.289548 -0.947801 0.232910 0.425049 1 0 1.0
0 2.165105 -0.000000 -1.759735 -0.133548 0.289548 -0.947801 0.232910 0.425049 1 0 1.0
Default
0 5.972663 0.862679 1.965844 0.107058 0.044399 0.993261 0.234375 0.578125 1 0 1.0
0 5.962856 -0.000000 2.005463 0.107058 0.044399 0.993261 0.234375 0.578125 1 0 1.0
0 7.774925 -0.000000 1.810150 0.107058 0.044399 0.993261 0.234375 0.578125 1 0 1.0
Default
0 -5.278485 -0.000000 0.030633 0.250971 0.581452 -0.773903 0.108887 0.642090 1 0 1.0
0 -8.080276 -0.000000 -0.877968 0.250971 0.581452 -0.773903 0.108887 0.642090 1 0 1.0
0 -6.211646 0.301684 -0.045322 0.250971 0.581452 -0.773903 0.108887 0.642090 1 0 1.0
Default
0 -5.596136 0.585102 1.225270 0.054007 0.727551 0.683924 0.234375 0.578125 1 0 1.0
0 -3.911294 0.165228 1.538882 0.054007 0.727551 0.683924 0.234375 0.578125 1 0 1.0
0 -3.421131 0.776163 0.850269 0.054007 0.727551 0.683924 0.234375 0.578125 1 0 1.0
Default
0 3.563631 0.456207 1.868707 0.808592 0.513166 0.287819 0.108887 0.642090 1 0 1.0
0 3.398060 0.000000 3.147250 0.808592 0.513166 0.287819 0.108887 0.642090 1 0 1.0
0 3.846966 0.000000 1.886105 0.808592 0.513166 0.287819 0.108887 0.642090 1 0 1.0
Default
0 1.542588 0.000000 3.036572 -0.108324 0.958860 0.262400 0.108887 0.642090 1 0 1.0
0 2.388944 0.000000 3.385966 -0.108324 0.958860 0.262400 0.108887 0.642090 1 0 1.0
0 2.609985 0.456207 1.810150 -0.108324 0.958860 0.262400 0.108887 0.642090 1 0 1.0
Default
0 -2.130914 0.000000 2.903861 -0.123250 0.953182 0.276139 0.108887 0.642090 1 0 1.0
0 -1.296273 0.456207 1.701643 -0.123250 0.953182 0.276139 0.108887 0.642090 1 0 1.0
0 -3.911294 0.165228 1.538882 -0.123250 0.953182 0.276139 0.108887 0.642090 1 0 1.0
Default
0 9.066158 0.393139 0.095737 0.911380 0.411544 0.004329 0.232910 0.425049 1 0 1.0
0 9.085166 0.353244 -0.113348 0.911380 0.411544 0.004329 0.232910 0.425049 1 0 1.0
0 8.610431 1.399630 0.356154 0.911380 0.411544 0.004329 0.232910 0.425049 1 0 1.0
Default
0 5.257793 1.599462 -0.274702 -0.098937 0.923183 -0.371409 0.232910 0.425049 1 0 1.0
0 4.487635 1.008425 -1.538641 -0.098937 0.923183 -0.371409 0.232910 0.425049 1 0 1.0
0 3.198876 1.368940 -0.299236 -0.098937 0.923183 -0.371409 0.232910 0.425049 1 0 1.0
Default
0 6.880601 1.468703 -1.122018 0.483880 0.753221 -0.445553 0.232910 0.425049 1 0 1.0
0 7.407761 1.741700 -0.088001 0.483880 0.753221 -0.445553 0.232910 0.425049 1 0 1.0
0 8.256719 1.041135 -0.350344 0.483880 0.753221 -0.445553 0.232910 0.425049 1 0 1.0
Default
0 9.085166 0.353244 -0.113348 0.612341 0.537817 -0.579475 0.232910 0.425049 1 0 1.0
0 8.256719 1.041135 -0.350344 0.612341 0.537817 -0.579475 0.232910 0.425049 1 0 1.0
0 8.610431 1.399630 0.356154 0.612341 0.537817 -0.579475 0.232910 0.425049 1 0 1.0
Default
0 9.011907 0.517956 0.876989 0.688316 0.574823 0.442492 0.232910 0.425049 1 0 1.0
0 8.610431 1.399630 0.356154 0.688316 0.574823 0.442492 0.232910 0.425049 1 0 1.0
0 8.863222 0.517956 1.108276 0.688316 0.574823 0.442492 0.232910 0.425049 1 0 1.0
Default
0 7.792472 0.852171 1.731451 0.078621 0.815169 0.573863 0.234375 0.578125 1 0 1.0
0 6.360224 1.671915 0.763231 0.078621 0.815169 0.573863 0.234375 0.578125 1 0 1.0
0 5.972663 0.862679 1.965844 0.078621 0.815169 0.573863 0.234375 0.578125 1 0 1.0
Default
0 8.863222 0.517956 1.108276 0.498008 0.733749 0.462168 0.234375 0.578125 1 0 1.0
0 7.500588 1.519207 0.986966 0.498008 0.733749 0.462168 0.234375 0.578125 1 0 1.0
0 7.792472 0.852171 1.731451 0.498008 0.733749 0.462168 0.234375 0.578125 1 0 1.0
Default
0 7.792472 0.852171 1.731451 -0.033470 0.737810 0.674178 0.234375 0.578125 1 0 1.0
0 7.500588 1.519207 0.986966 -0.033470 0.737810 0.674178 0.234375 0.578125 1 0 1.0
0 6.360224 1.671915 0.763231 -0.033470 0.737810 0.674178 0.234375 0.578125 1 0 1.0
Default
0 5.972663 0.862679 1.965844 -0.162817 0.842092 0.514172 0.234375 0.578125 1 0 1.0
0 6.360224 1.671915 0.763231 -0.162817 0.842092 0.514172 0.234375 0.578125 1 0 1.0
0 3.563631 0.456207 1.868707 -0.162817 0.842092 0.514172 0.234375 0.578125 1 0 1.0
Default
0 1.394704 0.456207 1.896956 -0.051253 0.706205 0.706150 0.234375 0.578125 1 0 1.0
0 0.628877 1.241419 1.056099 -0.051253 0.706205 0.706150 0.234375 0.578125 1 0 1.0
0 -1.296273 0.456207 1.701643 -0.051253 0.706205 0.706150 0.234375 0.578125 1 0 1.0
Default
0 2.609985 0.456207 1.810150 0.047038 0.751079 0.658534 0.234375 0.578125 1 0 1.0
0 0.628877 1.241419 1.056099 0.047038 0.751079 0.658534 0.234375 0.578125 1 0 1.0
0 1.394704 0.456207 1.896956 0.047038 0.751079 0.658534 0.234375 0.578125 1 0 1.0
Default
0 -1.296273 0.456207 1.701643 -0.125103 0.784694 0.607129 0.234375 0.578125 1 0 1.0
0 -3.421131 0.776163 0.850269 -0.125103 0.784694 0.607129 0.234375 0.578125 1 0 1.0
0 -3.911294 0.165228 1.538882 -0.125103 0.784694 0.607129 0.234375 0.578125 1 0 1.0
Default
0 6.360224 1.671915 0.763231 0.055288 0.599132 0.798739 0.234375 0.578125 1 0 1.0
0 3.458771 1.395358 1.171512 0.055288 0.599132 0.798739 0.234375 0.578125 1 0 1.0
0 3.563631 0.456207 1.868707 0.055288 0.599132 0.798739 0.234375 0.578125 1 0 1.0
Default
0 8.610431 1.399630 0.356154 0.425555 0.654824 0.624587 0.232910 0.425049 1 0 1.0
0 7.500588 1.519207 0.986966 0.425555 0.654824 0.624587 0.232910 0.425049 1 0 1.0
0 8.863222 0.517956 1.108276 0.425555 0.654824 0.624587 0.232910 0.425049 1 0 1.0
Default
0 8.256719 1.041135 -0.350344 0.412346 0.712354 -0.567910 0.232910 0.425049 1 0 1.0
0 7.407761 1.741700 -0.088001 0.412346 0.712354 -0.567910 0.232910 0.425049 1 0 1.0
0 8.610431 1.399630 0.356154 0.412346 0.712354 -0.567910 0.232910 0.425049 1 0 1.0
Default
0 8.610431 1.399630 0.356154 0.206570 0.961512 0.181173 0.232910 0.425049 1 0 1.0
0 7.407761 1.741700 -0.088001 0.206570 0.961512 0.181173 0.232910 0.425049 1 0 1.0
0 7.500588 1.519207 0.986966 0.206570 0.961512 0.181173 0.232910 0.425049 1 0 1.0
Default
0 0.628877 1.241419 1.056099 -0.194768 0.862110 0.467795 0.234375 0.578125 1 0 1.0
0 -1.921130 1.112491 0.232000 -0.194768 0.862110 0.467795 0.234375 0.578125 1 0 1.0
0 -1.296273 0.456207 1.701643 -0.194768 0.862110 0.467795 0.234375 0.578125 1 0 1.0
Default
0 -6.059736 0.301684 1.896956 -0.360165 0.922240 0.140552 0.234375 0.578125 1 0 1.0
0 -5.596136 0.585102 1.225270 -0.360165 0.922240 0.140552 0.234375 0.578125 1 0 1.0
0 -6.406959 0.301684 1.007197 -0.360165 0.922240 0.140552 0.234375 0.578125 1 0 1.0
Default
0 -6.211646 0.301684 -0.045322 0.008299 0.925622 -0.378359 0.234375 0.578125 1 0 1.0
0 -5.539886 0.585102 0.662769 0.008299 0.925622 -0.378359 0.234375 0.578125 1 0 1.0
0 -5.278485 0.324365 0.030633 0.008299 0.925622 -0.378359 0.234375 0.578125 1 0 1.0
Default
0 -3.831736 0.701570 0.250153 -0.165152 0.885811 -0.433664 0.234375 0.578125 1 0 1.0
0 -5.278485 0.324365 0.030633 -0.165152 0.885811 -0.433664 0.234375 0.578125 1 0 1.0
0 -5.539886 0.585102 0.662769 -0.165152 0.885811 -0.433664 0.234375 0.578125 1 0 1.0
Default
0 -1.296273 0.456207 1.701643 -0.031014 0.907678 0.418519 0.234375 0.578125 1 0 1.0
0 -1.921130 1.112491 0.232000 -0.031014 0.907678 0.418519 0.234375 0.578125 1 0 1.0
0 -3.421131 0.776163 0.850269 -0.031014 0.907678 0.418519 0.234375 0.578125 1 0 1.0
Default
0 -3.641100 0.423294 -0.319373 -0.300103 0.927445 -0.223124 0.232910 0.425049 1 0 1.0
0 -1.921130 1.112491 0.232000 -0.300103 0.927445 -0.223124 0.232910 0.425049 1 0 1.0
0 -1.849986 0.885299 -0.808048 -0.300103 0.927445 -0.223124 0.232910 0.425049 1 0 1.0
Default
0 -1.921130 1.112491 0.232000 -0.210013 0.977447 0.022198 0.234375 0.578125 1 0 1.0
0 -3.831736 0.701570 0.250153 -0.210013 0.977447 0.022198 0.234375 0.578125 1 0 1.0
0 -3.421131 0.776163 0.850269 -0.210013 0.977447 0.022198 0.234375 0.578125 1 0 1.0
Default
0 -5.539886 0.585102 0.662769 -0.069700 0.997544 -0.006970 0.234375 0.578125 1 0 1.0
0 -5.596136 0.585102 1.225270 -0.069700 0.997544 -0.006970 0.234375 0.578125 1 0 1.0
0 -3.831736 0.701570 0.250153 -0.069700 0.997544 -0.006970 0.234375 0.578125 1 0 1.0
Default
0 -3.421131 0.776163 0.850269 -0.097122 0.993636 -0.057056 0.234375 0.578125 1 0 1.0
0 -3.831736 0.701570 0.250153 -0.097122 0.993636 -0.057056 0.234375 0.578125 1 0 1.0
0 -5.596136 0.585102 1.225270 -0.097122 0.993636 -0.057056 0.234375 0.578125 1 0 1.0
Default
0 3.458771 1.395358 1.171512 -0.053974 0.998507 -0.008398 0.234375 0.578125 1 0 1.0
0 3.198876 1.368940 -0.299236 -0.053974 0.998507 -0.008398 0.234375 0.578125 1 0 1.0
0 0.628877 1.241419 1.056099 -0.053974 0.998507 -0.008398 0.234375 0.578125 1 0 1.0
Default
0 0.546415 1.289358 -0.139311 -0.102502 0.970331 -0.218975 0.232910 0.425049 1 0 1.0
0 -1.849986 0.885299 -0.808048 -0.102502 0.970331 -0.218975 0.232910 0.425049 1 0 1.0
0 -1.921130 1.112491 0.232000 -0.102502 0.970331 -0.218975 0.232910 0.425049 1 0 1.0
Default
0 2.355760 0.866456 -1.521901 -0.065136 0.937963 -0.340562 0.232910 0.425049 1 0 1.0
0 3.198876 1.368940 -0.299236 -0.065136 0.937963 -0.340562 0.232910 0.425049 1 0 1.0
0 4.487635 1.008425 -1.538641 -0.065136 0.937963 -0.340562 0.232910 0.425049 1 0 1.0
Default
0 2.355760 0.866456 -1.521901 -0.078133 0.920146 -0.383701 0.232910 0.425049 1 0 1.0
0 0.546415 1.289358 -0.139311 -0.046394 0.919845 -0.389530 0.232910 0.425049 1 0 1.0
0 3.198876 1.368940 -0.299236 -0.065136 0.937963 -0.340562 0.232910 0.425049 1 0 1.0
Default
0 0.336741 0.805935 -1.255904 -0.046394 0.919845 -0.389530 0.232910 0.425049 1 0 1.0
0 0.546415 1.289358 -0.139311 -0.046394 0.919845 -0.389530 0.232910 0.425049 1 0 1.0
0 2.355760 0.866456 -1.521901 -0.078133 0.920146 -0.383701 0.232910 0.425049 1 0 1.0
Default
0 -1.849986 0.885299 -0.808048 -0.046394 0.919845 -0.389530 0.232910 0.425049 1 0 1.0
0 0.546415 1.289358 -0.139311 -0.046394 0.919845 -0.389530 0.232910 0.425049 1 0 1.0
0 0.336741 0.805935 -1.255904 -0.046394 0.919845 -0.389530 0.232910 0.425049 1 0 1.0
Default
0 5.959199 1.070753 -1.510924 -0.175483 0.865254 -0.469618 0.232910 0.425049 1 0 1.0
0 5.257793 1.599462 -0.274702 -0.175483 0.865254 -0.469618 0.232910 0.425049 1 0 1.0
0 6.880601 1.468703 -1.122018 -0.175483 0.865254 -0.469618 0.232910 0.425049 1 0 1.0
Default
0 4.487635 1.008425 -1.538641 -0.030968 0.912527 -0.407842 0.232910 0.425049 1 0 1.0
0 5.257793 1.599462 -0.274702 -0.030968 0.912527 -0.407842 0.232910 0.425049 1 0 1.0
0 5.959199 1.070753 -1.510924 -0.030968 0.912527 -0.407842 0.232910 0.425049 1 0 1.0
Default
0 7.407761 1.741700 -0.088001 0.092689 0.976588 0.194128 0.232910 0.425049 1 0 1.0
0 6.360224 1.671915 0.763231 0.092689 0.976588 0.194128 0.232910 0.425049 1 0 1.0
0 7.500588 1.519207 0.986966 0.092689 0.976588 0.194128 0.232910 0.425049 1 0 1.0
Default
0 6.880601 1.468703 -1.122018 -0.043933 0.971238 -0.234024 0.232910 0.425049 1 0 1.0
0 5.257793 1.599462 -0.274702 -0.043933 0.971238 -0.234024 0.232910 0.425049 1 0 1.0
0 7.407761 1.741700 -0.088001 -0.043933 0.971238 -0.234024 0.232910 0.425049 1 0 1.0
Default
0 6.360224 1.671915 0.763231 -0.066058 0.997816 0.000511 0.232910 0.425049 1 0 1.0
0 7.407761 1.741700 -0.088001 -0.066058 0.997816 0.000511 0.232910 0.425049 1 0 1.0
0 5.257793 1.599462 -0.274702 -0.066058 0.997816 0.000511 0.232910 0.425049 1 0 1.0
Default
0 -8.080276 -0.000000 -0.877968 -0.089679 0.983805 -0.155194 0.108887 0.642090 1 0 1.0
0 -8.880431 -0.000000 -0.415597 -0.089679 0.983805 -0.155194 0.108887 0.642090 1 0 1.0
0 -6.211646 0.301684 -0.045322 -0.089679 0.983805 -0.155194 0.108887 0.642090 1 0 1.0
Default
0 4.112561 2.897451 0.509178 -0.828579 -0.542633 -0.137860 0.232910 0.425049 1 0 1.0
0 4.607362 2.576470 -1.201299 -0.828579 -0.542633 -0.137860 0.232910 0.425049 1 0 1.0
0 5.023276 1.668640 -0.127737 -0.828579 -0.542633 -0.137860 0.232910 0.425049 1 0 1.0
Default
0 4.868932 2.706031 -1.201299 0.325069 -0.656279 -0.680902 0.232910 0.425049 1 0 1.0
0 5.023276 1.668640 -0.127737 0.325069 -0.656279 -0.680902 0.232910 0.425049 1 0 1.0
0 4.607362 2.576470 -1.201299 0.325069 -0.656279 -0.680902 0.232910 0.425049 1 0 1.0
Default
0 3.952084 3.997964 -1.445860 0.068545 -0.138384 -0.988004 0.232910 0.425049 1 0 1.0
0 4.868932 2.706031 -1.201299 0.068545 -0.138384 -0.988004 0.232910 0.425049 1 0 1.0
0 4.607362 2.576470 -1.201299 0.068545 -0.138384 -0.988004 0.232910 0.425049 1 0 1.0
Default
0 4.607362 2.576470 -1.201299 -0.948445 -0.213421 -0.234313 0.232910 0.425049 1 0 1.0
0 4.112561 2.897451 0.509178 -0.948445 -0.213421 -0.234313 0.232910 0.425049 1 0 1.0
0 4.068620 4.008272 -0.324729 -0.948445 -0.213421 -0.234313 0.232910 0.425049 1 0 1.0
Default
0 4.068620 4.008272 -0.324729 0.883693 0.302866 0.356874 0.232910 0.425049 1 0 1.0
0 4.112561 2.897451 0.509178 0.883693 0.302866 0.356874 0.232910 0.425049 1 0 1.0
0 4.868932 2.706031 -1.201299 0.883693 0.302866 0.356874 0.232910 0.425049 1 0 1.0
Default
0 7.284072 1.592183 1.396717 0.829325 0.282029 -0.482369 0.234375 0.578125 1 0 1.0
0 7.499676 1.041267 1.445297 0.829325 0.282029 -0.482369 0.234375 0.578125 1 0 1.0
0 7.303877 1.273029 1.244168 0.829325 0.282029 -0.482369 0.234375 0.578125 1 0 1.0
Default
0 7.284072 1.592183 1.396717 0.306047 0.929790 0.204513 0.234375 0.578125 1 0 1.0
0 6.960225 1.608185 1.808595 0.306047 0.929790 0.204513 0.234375 0.578125 1 0 1.0
0 7.351360 1.480623 1.803218 0.306047 0.929790 0.204513 0.234375 0.578125 1 0 1.0
Default
0 7.303877 1.273029 1.244168 -0.386674 -0.586398 -0.711773 0.234375 0.578125 1 0 1.0
0 7.022689 0.947077 1.665463 -0.386674 -0.586398 -0.711773 0.234375 0.578125 1 0 1.0
0 6.871614 1.431804 1.348190 -0.386674 -0.586398 -0.711773 0.234375 0.578125 1 0 1.0
Default
0 7.499676 1.041267 1.445297 -0.166784 -0.722847 -0.670578 0.234375 0.578125 1 0 1.0
0 7.022689 0.947077 1.665463 -0.166784 -0.722847 -0.670578 0.234375 0.578125 1 0 1.0
0 7.303877 1.273029 1.244168 -0.166784 -0.722847 -0.670578 0.234375 0.578125 1 0 1.0
Default
0 7.351360 1.480623 1.803218 0.931442 0.359634 -0.055483 0.234375 0.578125 1 0 1.0
0 7.499676 1.041267 1.445297 0.931442 0.359634 -0.055483 0.234375 0.578125 1 0 1.0
0 7.284072 1.592183 1.396717 0.931442 0.359634 -0.055483 0.234375 0.578125 1 0 1.0
Default
0 7.231091 1.142107 1.865341 0.361791 -0.827208 0.429924 0.234375 0.578125 1 0 1.0
0 7.022689 0.947077 1.665463 0.361791 -0.827208 0.429924 0.234375 0.578125 1 0 1.0
0 7.499676 1.041267 1.445297 0.361791 -0.827208 0.429924 0.234375 0.578125 1 0 1.0
Default
0 7.351360 1.480623 1.803218 0.088531 0.230609 0.969011 0.234375 0.578125 1 0 1.0
0 6.960225 1.608185 1.808595 0.088531 0.230609 0.969011 0.234375 0.578125 1 0 1.0
0 6.925591 1.309342 1.882880 0.088531 0.230609 0.969011 0.234375 0.578125 1 0 1.0
Default
0 6.925591 1.309342 1.882880 0.129841 0.134157 0.982417 0.234375 0.578125 1 0 1.0
0 7.231091 1.142107 1.865341 0.129841 0.134157 0.982417 0.234375 0.578125 1 0 1.0
0 7.351360 1.480623 1.803218 0.129841 0.134157 0.982417 0.234375 0.578125 1 0 1.0
Default
0 6.925591 1.309342 1.882880 -0.960174 -0.277400 0.033394 0.234375 0.578125 1 0 1.0
0 6.871614 1.431804 1.348190 -0.960174 -0.277400 0.033394 0.234375 0.578125 1 0 1.0
0 7.022689 0.947077 1.665463 -0.960174 -0.277400 0.033394 0.234375 0.578125 1 0 1.0
Default
0 6.871614 1.431804 1.348190 -0.060072 0.427433 -0.902049 0.234375 0.578125 1 0 1.0
0 7.284072 1.592183 1.396717 -0.060072 0.427433 -0.902049 0.234375 0.578125 1 0 1.0
0 7.303877 1.273029 1.244168 -0.060072 0.427433 -0.902049 0.234375 0.578125 1 0 1.0
Default
0 6.871614 1.431804 1.348190 -0.318024 0.904175 -0.285182 0.234375 0.578125 1 0 1.0
0 6.960225 1.608185 1.808595 -0.318024 0.904175 -0.285182 0.234375 0.578125 1 0 1.0
0 7.284072 1.592183 1.396717 -0.318024 0.904175 -0.285182 0.234375 0.578125 1 0 1.0
Default
0 6.871614 1.431804 1.348190 -0.980285 0.146556 0.132524 0.234375 0.578125 1 0 1.0
0 6.925591 1.309342 1.882880 -0.980285 0.146556 0.132524 0.234375 0.578125 1 0 1.0
0 6.960225 1.608185 1.808595 -0.980285 0.146556 0.132524 0.234375 0.578125 1 0 1.0
Default
0 7.499676 1.041267 1.445297 0.807461 -0.184020 0.560485 0.234375 0.578125 1 0 1.0
0 7.351360 1.480623 1.803218 0.807461 -0.184020 0.560485 0.234375 0.578125 1 0 1.0
0 7.231091 1.142107 1.865341 0.807461 -0.184020 0.560485 0.234375 0.578125 1 0 1.0
Default
0 6.925591 1.309342 1.882880 -0.253537 -0.546838 0.797927 0.234375 0.578125 1 0 1.0
0 7.022689 0.947077 1.665463 -0.253537 -0.546838 0.797927 0.234375 0.578125 1 0 1.0
0 7.231091 1.142107 1.865341 -0.253537 -0.546838 0.797927 0.234375 0.578125 1 0 1.0
Default
0 3.054046 0.807936 -1.516614 0.053240 -0.764200 -0.642778 0.232910 0.425049 1 0 1.0
0 0.857710 1.666315 -2.719062 0.053240 -0.764200 -0.642778 0.232910 0.425049 1 0 1.0
0 4.027690 1.756697 -2.563952 0.053240 -0.764200 -0.642778 0.232910 0.425049 1 0 1.0
Default
0 2.605345 1.827402 -2.676859 -0.008047 0.798769 0.601584 0.232910 0.425049 1 0 1.0
0 4.410444 0.967887 -1.511468 -0.008047 0.798769 0.601584 0.232910 0.425049 1 0 1.0
0 4.027690 1.756697 -2.563952 -0.008047 0.798769 0.601584 0.232910 0.425049 1 0 1.0
Default
0 3.044329 1.963825 -3.156937 0.024191 0.955600 0.293672 0.232910 0.425049 1 0 1.0
0 2.605345 1.827402 -2.676859 0.024191 0.955600 0.293672 0.232910 0.425049 1 0 1.0
0 4.027690 1.756697 -2.563952 0.024191 0.955600 0.293672 0.232910 0.425049 1 0 1.0
Default
0 3.044329 1.963825 -3.156937 0.045520 -0.917183 -0.395857 0.232910 0.425049 1 0 1.0
0 4.027690 1.756697 -2.563952 0.045520 -0.917183 -0.395857 0.232910 0.425049 1 0 1.0
0 0.857710 1.666315 -2.719062 0.045520 -0.917183 -0.395857 0.232910 0.425049 1 0 1.0
Default
0 1.407051 1.927191 -3.385966 -0.094766 0.951100 0.293987 0.232910 0.425049 1 0 1.0
0 0.857710 1.666315 -2.719062 -0.094766 0.951100 0.293987 0.232910 0.425049 1 0 1.0
0 2.605345 1.827402 -2.676859 -0.094766 0.951100 0.293987 0.232910 0.425049 1 0 1.0
Default
0 -3.416513 0.346337 -0.368353 -0.130679 -0.864182 -0.485914 0.234131 0.579102 1 0 1.0
0 -4.663409 0.736043 -0.726098 -0.130679 -0.864182 -0.485914 0.234131 0.579102 1 0 1.0
0 -0.122015 0.826424 -2.108178 -0.130679 -0.864182 -0.485914 0.234131 0.579102 1 0 1.0
Default
0 -3.416513 0.346337 -0.368353 0.058314 0.870427 0.488832 0.234131 0.579102 1 0 1.0
0 0.192923 0.613680 -1.274972 0.058314 0.870427 0.488832 0.234131 0.579102 1 0 1.0
0 -1.981403 0.897129 -1.520307 0.058314 0.870427 0.488832 0.234131 0.579102 1 0 1.0
Default
0 -1.981403 0.897129 -1.520307 0.103148 0.972397 0.209296 0.234131 0.579102 1 0 1.0
0 0.192923 0.613680 -1.274972 0.103148 0.972397 0.209296 0.234131 0.579102 1 0 1.0
0 -0.122015 0.826424 -2.108178 0.103148 0.972397 0.209296 0.234131 0.579102 1 0 1.0
Default
0 -0.122015 0.826424 -2.108178 -0.062810 -0.961024 -0.269235 0.234131 0.579102 1 0 1.0
0 -4.663409 0.736043 -0.726098 -0.062810 -0.961024 -0.269235 0.234131 0.579102 1 0 1.0
0 -3.488642 0.996919 -1.931347 -0.062810 -0.961024 -0.269235 0.234131 0.579102 1 0 1.0
Default
0 -3.488642 0.996919 -1.931347 0.005536 0.976223 0.216700 0.234131 0.579102 1 0 1.0
0 -4.663409 0.736043 -0.726098 0.005536 0.976223 0.216700 0.234131 0.579102 1 0 1.0
0 -1.981403 0.897129 -1.520307 0.005536 0.976223 0.216700 0.234131 0.579102 1 0 1.0
Default
0 2.388944 0.000000 3.385966 0.067703 -0.955775 0.286199 0.108887 0.642090 1 0 1.0
0 2.609985 -0.456207 1.810150 0.067703 -0.955775 0.286199 0.108887 0.642090 1 0 1.0
0 3.398060 0.000000 3.147250 0.067703 -0.955775 0.286199 0.108887 0.642090 1 0 1.0
Default
0 6.880601 -1.468703 -1.122018 0.525651 -0.199087 -0.827077 0.232910 0.425049 1 0 1.0
0 6.928568 -0.000000 -1.445064 0.525651 -0.199087 -0.827077 0.232910 0.425049 1 0 1.0
0 8.256719 -1.041135 -0.350344 0.525651 -0.199087 -0.827077 0.232910 0.425049 1 0 1.0
Default
0 -1.849986 -0.885299 -0.808048 -0.319868 -0.284001 -0.903896 0.232910 0.425049 1 0 1.0
0 -3.641100 -0.423294 -0.319373 -0.319868 -0.284001 -0.903896 0.232910 0.425049 1 0 1.0
0 -1.817107 -0.000000 -1.097841 -0.319868 -0.284001 -0.903896 0.232910 0.425049 1 0 1.0
Default
0 -1.849986 -0.885299 -0.808048 -0.180950 -0.299884 -0.936657 0.232910 0.425049 1 0 1.0
0 -1.817107 -0.000000 -1.097841 -0.180950 -0.299884 -0.936657 0.232910 0.425049 1 0 1.0
0 0.336741 -0.805935 -1.255904 -0.180950 -0.299884 -0.936657 0.232910 0.425049 1 0 1.0
Default
0 2.355760 -0.866456 -1.521901 -0.133548 -0.289548 -0.947801 0.232910 0.425049 1 0 1.0
0 0.336741 -0.805935 -1.255904 -0.133548 -0.289548 -0.947801 0.232910 0.425049 1 0 1.0
0 2.165105 -0.000000 -1.759735 -0.133548 -0.289548 -0.947801 0.232910 0.425049 1 0 1.0
Default
0 7.792472 -0.852171 1.731451 0.127746 -0.088599 0.987842 0.234375 0.578125 1 0 1.0
0 7.774925 -0.000000 1.810150 0.127746 -0.088599 0.987842 0.234375 0.578125 1 0 1.0
0 5.972663 -0.862679 1.965844 0.127746 -0.088599 0.987842 0.234375 0.578125 1 0 1.0
Default
0 2.388944 0.000000 3.385966 -0.108324 -0.958860 0.262400 0.108887 0.642090 1 0 1.0
0 1.542588 0.000000 3.036572 -0.108324 -0.958860 0.262400 0.108887 0.642090 1 0 1.0
0 2.609985 -0.456207 1.810150 -0.108324 -0.958860 0.262400 0.108887 0.642090 1 0 1.0
Default
0 -4.554963 0.000000 2.250649 -0.049383 -0.981823 0.183260 0.108887 0.642090 1 0 1.0
0 -3.911294 -0.165228 1.538882 -0.049383 -0.981823 0.183260 0.108887 0.642090 1 0 1.0
0 -2.130914 0.000000 2.903861 -0.049383 -0.981823 0.183260 0.108887 0.642090 1 0 1.0
Default
0 4.827019 -1.401297 0.701838 -0.831362 0.440610 -0.338674 0.232910 0.425049 1 0 1.0
0 5.023276 -1.668640 -0.127737 -0.831362 0.440610 -0.338674 0.232910 0.425049 1 0 1.0
0 4.112561 -2.897451 0.509178 -0.831362 0.440610 -0.338674 0.232910 0.425049 1 0 1.0
Default
0 3.952084 -3.997964 -1.445860 -0.910077 0.402614 0.098299 0.232910 0.425049 1 0 1.0
0 4.068620 -4.008272 -0.324729 -0.910077 0.402614 0.098299 0.232910 0.425049 1 0 1.0
0 4.607362 -2.576470 -1.201299 -0.910077 0.402614 0.098299 0.232910 0.425049 1 0 1.0
Default
0 4.112561 -2.897451 0.509178 0.883693 -0.302866 0.356874 0.232910 0.425049 1 0 1.0
0 4.068620 -4.008272 -0.324729 0.883693 -0.302866 0.356874 0.232910 0.425049 1 0 1.0
0 4.868932 -2.706031 -1.201299 0.883693 -0.302866 0.356874 0.232910 0.425049 1 0 1.0
Default
0 0.857710 -1.666315 -2.719062 0.053240 0.764200 -0.642778 0.232910 0.425049 1 0 1.0
0 3.054046 -0.807936 -1.516614 0.053240 0.764200 -0.642778 0.232910 0.425049 1 0 1.0
0 4.027690 -1.756697 -2.563952 0.053240 0.764200 -0.642778 0.232910 0.425049 1 0 1.0
Default
0 4.027690 -1.756697 -2.563952 0.045520 0.917183 -0.395857 0.232910 0.425049 1 0 1.0
0 3.044329 -1.963825 -3.156937 0.045520 0.917183 -0.395857 0.232910 0.425049 1 0 1.0
0 0.857710 -1.666315 -2.719062 0.045520 0.917183 -0.395857 0.232910 0.425049 1 0 1.0
Default
0 0.857710 -1.666315 -2.719062 -0.094766 -0.951100 0.293987 0.232910 0.425049 1 0 1.0
0 1.407051 -1.927191 -3.385966 -0.094766 -0.951100 0.293987 0.232910 0.425049 1 0 1.0
0 2.605345 -1.827402 -2.676859 -0.094766 -0.951100 0.293987 0.232910 0.425049 1 0 1.0
Default
0 -4.663409 -0.736043 -0.726098 -0.130679 0.864182 -0.485914 0.234131 0.579102 1 0 1.0
0 -3.416513 -0.346337 -0.368353 -0.130679 0.864182 -0.485914 0.234131 0.579102 1 0 1.0
0 -0.122015 -0.826424 -2.108178 -0.130679 0.864182 -0.485914 0.234131 0.579102 1 0 1.0
Default
0 -4.663409 -0.736043 -0.726098 0.108215 -0.837677 0.535338 0.234131 0.579102 1 0 1.0
0 -1.981403 -0.897129 -1.520307 0.108215 -0.837677 0.535338 0.234131 0.579102 1 0 1.0
0 -3.416513 -0.346337 -0.368353 0.108215 -0.837677 0.535338 0.234131 0.579102 1 0 1.0
Default
0 -1.783547 -1.033552 -2.764787 -0.058432 0.984922 -0.162835 0.234131 0.579102 1 0 1.0
0 -3.488642 -0.996919 -1.931347 -0.058432 0.984922 -0.162835 0.234131 0.579102 1 0 1.0
0 -0.122015 -0.826424 -2.108178 -0.058432 0.984922 -0.162835 0.234131 0.579102 1 0 1.0
Default
0 -4.663409 -0.736043 -0.726098 0.005536 -0.976223 0.216700 0.234131 0.579102 1 0 1.0
0 -3.488642 -0.996919 -1.931347 0.005536 -0.976223 0.216700 0.234131 0.579102 1 0 1.0
0 -1.981403 -0.897129 -1.520307 0.005536 -0.976223 0.216700 0.234131 0.579102 1 0 1.0
Default
0 2.388944 0.000000 3.385966 0.067703 0.955775 0.286199 0.108887 0.642090 1 0 1.0
0 3.398060 0.000000 3.147250 0.067703 0.955775 0.286199 0.108887 0.642090 1 0 1.0
0 2.609985 0.456207 1.810150 0.067703 0.955775 0.286199 0.108887 0.642090 1 0 1.0
Default
0 6.880601 1.468703 -1.122018 0.525651 0.199087 -0.827077 0.232910 0.425049 1 0 1.0
0 8.256719 1.041135 -0.350344 0.525651 0.199087 -0.827077 0.232910 0.425049 1 0 1.0
0 6.928568 -0.000000 -1.445064 0.525651 0.199087 -0.827077 0.232910 0.425049 1 0 1.0
Default
0 -1.849986 0.885299 -0.808048 -0.180950 0.299884 -0.936657 0.232910 0.425049 1 0 1.0
0 0.336741 0.805935 -1.255904 -0.180950 0.299884 -0.936657 0.232910 0.425049 1 0 1.0
0 -1.817107 -0.000000 -1.097841 -0.180950 0.299884 -0.936657 0.232910 0.425049 1 0 1.0
Default
0 0.255379 -0.000000 -1.564422 -0.094753 0.364228 -0.926477 0.232910 0.425049 1 0 1.0
0 0.336741 0.805935 -1.255904 -0.094753 0.364228 -0.926477 0.232910 0.425049 1 0 1.0
0 2.165105 -0.000000 -1.759735 -0.094753 0.364228 -0.926477 0.232910 0.425049 1 0 1.0
Default
0 7.792472 0.852171 1.731451 0.127746 0.088599 0.987842 0.234375 0.578125 1 0 1.0
0 5.972663 0.862679 1.965844 0.127746 0.088599 0.987842 0.234375 0.578125 1 0 1.0
0 7.774925 -0.000000 1.810150 0.127746 0.088599 0.987842 0.234375 0.578125 1 0 1.0
Default
0 1.394704 0.456207 1.896956 0.026326 0.929228 0.368569 0.108887 0.642090 1 0 1.0
0 1.542588 0.000000 3.036572 0.026326 0.929228 0.368569 0.108887 0.642090 1 0 1.0
0 2.609985 0.456207 1.810150 0.026326 0.929228 0.368569 0.108887 0.642090 1 0 1.0
Default
0 -4.554963 0.000000 2.250649 -0.049383 0.981823 0.183260 0.108887 0.642090 1 0 1.0
0 -2.130914 0.000000 2.903861 -0.049383 0.981823 0.183260 0.108887 0.642090 1 0 1.0
0 -3.911294 0.165228 1.538882 -0.049383 0.981823 0.183260 0.108887 0.642090 1 0 1.0
Default
0 4.827019 1.401297 0.701838 -0.831362 -0.440610 -0.338674 0.232910 0.425049 1 0 1.0
0 4.112561 2.897451 0.509178 -0.831362 -0.440610 -0.338674 0.232910 0.425049 1 0 1.0
0 5.023276 1.668640 -0.127737 -0.831362 -0.440610 -0.338674 0.232910 0.425049 1 0 1.0
Default
0 4.868932 2.706031 -1.201299 0.833102 0.452757 0.317729 0.232910 0.425049 1 0 1.0
0 4.112561 2.897451 0.509178 0.833102 0.452757 0.317729 0.232910 0.425049 1 0 1.0
0 5.023276 1.668640 -0.127737 0.833102 0.452757 0.317729 0.232910 0.425049 1 0 1.0
Default
0 3.952084 3.997964 -1.445860 -0.910077 -0.402614 0.098299 0.232910 0.425049 1 0 1.0
0 4.607362 2.576470 -1.201299 -0.910077 -0.402614 0.098299 0.232910 0.425049 1 0 1.0
0 4.068620 4.008272 -0.324729 -0.910077 -0.402614 0.098299 0.232910 0.425049 1 0 1.0
Default
0 3.952084 3.997964 -1.445860 0.820168 0.564928 -0.090446 0.232910 0.425049 1 0 1.0
0 4.068620 4.008272 -0.324729 0.820168 0.564928 -0.090446 0.232910 0.425049 1 0 1.0
0 4.868932 2.706031 -1.201299 0.820168 0.564928 -0.090446 0.232910 0.425049 1 0 1.0
Default
0 4.410444 0.967887 -1.511468 0.094312 -0.779872 -0.618793 0.232910 0.425049 1 0 1.0
0 3.054046 0.807936 -1.516614 0.094312 -0.779872 -0.618793 0.232910 0.425049 1 0 1.0
0 4.027690 1.756697 -2.563952 0.094312 -0.779872 -0.618793 0.232910 0.425049 1 0 1.0
Default
0 1.407051 1.927191 -3.385966 0.065423 -0.946395 -0.316317 0.232910 0.425049 1 0 1.0
0 3.044329 1.963825 -3.156937 0.065423 -0.946395 -0.316317 0.232910 0.425049 1 0 1.0
0 0.857710 1.666315 -2.719062 0.065423 -0.946395 -0.316317 0.232910 0.425049 1 0 1.0
Default
0 3.044329 1.963825 -3.156937 -0.053557 0.972342 0.227337 0.232910 0.425049 1 0 1.0
0 1.407051 1.927191 -3.385966 -0.053557 0.972342 0.227337 0.232910 0.425049 1 0 1.0
0 2.605345 1.827402 -2.676859 -0.053557 0.972342 0.227337 0.232910 0.425049 1 0 1.0
Default
0 0.192923 0.613680 -1.274972 0.008783 -0.968077 -0.250500 0.234131 0.579102 1 0 1.0
0 -3.416513 0.346337 -0.368353 0.008783 -0.968077 -0.250500 0.234131 0.579102 1 0 1.0
0 -0.122015 0.826424 -2.108178 0.008783 -0.968077 -0.250500 0.234131 0.579102 1 0 1.0
Default
0 -4.663409 0.736043 -0.726098 0.108215 0.837677 0.535338 0.234131 0.579102 1 0 1.0
0 -3.416513 0.346337 -0.368353 0.108215 0.837677 0.535338 0.234131 0.579102 1 0 1.0
0 -1.981403 0.897129 -1.520307 0.108215 0.837677 0.535338 0.234131 0.579102 1 0 1.0
Default
0 -1.783547 1.033552 -2.764787 -0.058432 -0.984922 -0.162835 0.234131 0.579102 1 0 1.0
0 -0.122015 0.826424 -2.108178 -0.058432 -0.984922 -0.162835 0.234131 0.579102 1 0 1.0
0 -3.488642 0.996919 -1.931347 -0.058432 -0.984922 -0.162835 0.234131 0.579102 1 0 1.0
Default
0 -5.278485 -0.324365 0.030633 -0.339173 0.000000 -0.940724 0.232910 0.425049 1 0 1.0
0 -5.278485 -0.000000 0.030633 -0.339173 0.000000 -0.940724 0.232910 0.425049 1 0 1.0
0 -3.683430 -0.000000 -0.544455 -0.339173 0.000000 -0.940724 0.232910 0.425049 1 0 1.0
Default
0 -5.278485 -0.000000 0.030633 -0.339173 0.000000 -0.940724 0.232910 0.425049 1 0 1.0
0 -5.278485 0.324365 0.030633 -0.339173 0.000000 -0.940724 0.232910 0.425049 1 0 1.0
0 -3.683430 -0.000000 -0.544455 -0.339173 0.000000 -0.940724 0.232910 0.425049 1 0 1.0
Default
0 -1.296273 -0.456207 1.701643 -0.024324 -0.941858 0.335130 0.108887 0.642090 1 0 1.0
0 1.394704 -0.456207 1.896956 -0.024324 -0.941858 0.335130 0.108887 0.642090 1 0 1.0
0 0.592615 0.000000 3.120875 -0.024324 -0.941858 0.335130 0.108887 0.642090 1 0 1.0
Default
0 -2.130914 0.000000 2.903861 -0.026952 -0.940672 0.338246 0.108887 0.642090 1 0 1.0
0 -1.296273 -0.456207 1.701643 -0.024324 -0.941858 0.335130 0.108887 0.642090 1 0 1.0
0 0.592615 0.000000 3.120875 -0.024324 -0.941858 0.335130 0.108887 0.642090 1 0 1.0
Default
0 8.339161 -0.000000 -0.435948 0.363213 -0.080629 -0.928211 0.232910 0.425049 1 0 1.0
0 9.087860 -0.000000 -0.142979 0.363213 -0.080629 -0.928211 0.232910 0.425049 1 0 1.0
0 9.085166 -0.353244 -0.113348 0.363213 -0.080629 -0.928211 0.232910 0.425049 1 0 1.0
Default
0 8.256719 -1.041135 -0.350344 0.352693 -0.104387 -0.929898 0.232910 0.425049 1 0 1.0
0 8.339161 -0.000000 -0.435948 0.363213 -0.080629 -0.928211 0.232910 0.425049 1 0 1.0
0 9.085166 -0.353244 -0.113348 0.363213 -0.080629 -0.928211 0.232910 0.425049 1 0 1.0
Default
0 -3.641100 -0.423294 -0.319373 -0.250323 -0.473941 -0.844227 0.232910 0.425049 1 0 1.0
0 -3.683430 -0.000000 -0.544455 -0.250323 -0.473941 -0.844227 0.232910 0.425049 1 0 1.0
0 -1.817107 -0.000000 -1.097841 -0.250323 -0.473941 -0.844227 0.232910 0.425049 1 0 1.0
Default
0 -3.641100 -0.423294 -0.319373 -0.250323 -0.473941 -0.844227 0.232910 0.425049 1 0 1.0
0 -5.278485 -0.324365 0.030633 -0.211285 -0.475280 -0.854088 0.232910 0.425049 1 0 1.0
0 -3.683430 -0.000000 -0.544455 -0.250323 -0.473941 -0.844227 0.232910 0.425049 1 0 1.0
Default
0 0.592615 0.000000 3.120875 -0.000000 1.000000 0.000000 0.108887 0.642090 1 0 1.0
0 1.394704 0.000000 1.896956 -0.000000 1.000000 0.000000 0.108887 0.642090 1 0 1.0
0 -1.296272 0.000000 1.701643 -0.000000 1.000000 0.000000 0.108887 0.642090 1 0 1.0
Default
0 -2.130914 0.000000 2.903861 -0.000000 1.000000 0.000000 0.108887 0.642090 1 0 1.0
0 0.592615 0.000000 3.120875 -0.000000 1.000000 0.000000 0.108887 0.642090 1 0 1.0
0 -1.296272 0.000000 1.701643 -0.000000 1.000000 0.000000 0.108887 0.642090 1 0 1.0
Default
0 -2.130914 0.000000 2.903861 -0.000000 1.000000 0.000000 0.108887 0.642090 1 0 1.0
0 -1.296272 0.000000 1.701643 -0.000000 1.000000 0.000000 0.108887 0.642090 1 0 1.0
0 -3.911294 0.000000 1.538882 -0.000000 1.000000 0.000000 0.108887 0.642090 1 0 1.0
Default
0 -4.554963 0.000000 2.250649 -0.000000 1.000000 0.000000 0.108887 0.642090 1 0 1.0
0 -2.130914 0.000000 2.903861 -0.000000 1.000000 0.000000 0.108887 0.642090 1 0 1.0
0 -3.911294 0.000000 1.538882 -0.000000 1.000000 0.000000 0.108887 0.642090 1 0 1.0
Default
0 8.863222 -0.517956 1.108276 0.515732 -0.073109 0.853625 0.234375 0.578125 1 0 1.0
0 8.816594 -0.000000 1.180809 0.515732 -0.073109 0.853625 0.234375 0.578125 1 0 1.0
0 7.774925 -0.000000 1.810150 0.515732 -0.073109 0.853625 0.234375 0.578125 1 0 1.0
Default
0 7.792472 -0.852171 1.731451 0.517636 -0.068109 0.852885 0.234375 0.578125 1 0 1.0
0 8.863222 -0.517956 1.108276 0.515732 -0.073109 0.853625 0.234375 0.578125 1 0 1.0
0 7.774925 -0.000000 1.810150 0.515732 -0.073109 0.853625 0.234375 0.578125 1 0 1.0
Default
0 2.355760 -0.866456 -1.521901 -0.011472 -0.267029 -0.963620 0.232910 0.425049 1 0 1.0
0 2.165105 -0.000000 -1.759735 -0.011472 -0.267029 -0.963620 0.232910 0.425049 1 0 1.0
0 3.988025 -0.000000 -1.781436 -0.011472 -0.267029 -0.963620 0.232910 0.425049 1 0 1.0
Default
0 4.487635 -1.008425 -1.538641 -0.023939 -0.245206 -0.969175 0.232910 0.425049 1 0 1.0
0 2.355760 -0.866456 -1.521901 -0.011472 -0.267029 -0.963620 0.232910 0.425049 1 0 1.0
0 3.988025 -0.000000 -1.781436 -0.011472 -0.267029 -0.963620 0.232910 0.425049 1 0 1.0
Default
0 -6.192873 0.000000 2.538494 0.148172 -0.882751 0.445865 0.108887 0.642090 1 0 1.0
0 -6.059736 -0.301684 1.896956 0.148172 -0.882751 0.445865 0.108887 0.642090 1 0 1.0
0 -5.126574 -0.265622 1.658240 0.148172 -0.882751 0.445865 0.108887 0.642090 1 0 1.0
Default
0 -7.960553 0.000000 3.236094 0.177066 -0.875978 0.448676 0.108887 0.642090 1 0 1.0
0 -6.059736 -0.301684 1.896956 0.148172 -0.882751 0.445865 0.108887 0.642090 1 0 1.0
0 -6.192873 0.000000 2.538494 0.148172 -0.882751 0.445865 0.108887 0.642090 1 0 1.0
Default
0 4.487635 -1.008425 -1.538641 0.025786 -0.221906 -0.974727 0.232910 0.425049 1 0 1.0
0 3.988025 -0.000000 -1.781436 0.025786 -0.221906 -0.974727 0.232910 0.425049 1 0 1.0
0 6.038810 -0.000000 -1.727183 0.025786 -0.221906 -0.974727 0.232910 0.425049 1 0 1.0
Default
0 5.959199 -1.070753 -1.510924 0.010043 -0.198679 -0.980013 0.232910 0.425049 1 0 1.0
0 4.487635 -1.008425 -1.538641 0.025786 -0.221906 -0.974727 0.232910 0.425049 1 0 1.0
0 6.038810 -0.000000 -1.727183 0.025786 -0.221906 -0.974727 0.232910 0.425049 1 0 1.0
Default
0 3.398060 0.000000 3.147250 -0.000000 1.000000 0.000000 0.108887 0.642090 1 0 1.0
0 3.846966 0.000000 1.886105 -0.000000 1.000000 0.000000 0.108887 0.642090 1 0 1.0
0 2.609985 0.000000 1.810150 -0.000000 1.000000 0.000000 0.108887 0.642090 1 0 1.0
Default
0 2.388944 0.000000 3.385966 -0.000000 1.000000 0.000000 0.108887 0.642090 1 0 1.0
0 3.398060 0.000000 3.147250 -0.000000 1.000000 0.000000 0.108887 0.642090 1 0 1.0
0 2.609985 0.000000 1.810150 -0.000000 1.000000 0.000000 0.108887 0.642090 1 0 1.0
Default
0 2.388944 0.000000 3.385966 -0.000000 1.000000 0.000000 0.108887 0.642090 1 0 1.0
0 2.609985 0.000000 1.810150 -0.000000 1.000000 0.000000 0.108887 0.642090 1 0 1.0
0 1.542588 0.000000 3.036572 -0.000000 1.000000 0.000000 0.108887 0.642090 1 0 1.0
Default
0 2.609985 0.000000 1.810150 -0.000000 1.000000 0.000000 0.108887 0.642090 1 0 1.0
0 1.394704 0.000000 1.896956 -0.000000 1.000000 0.000000 0.108887 0.642090 1 0 1.0
0 1.542588 0.000000 3.036572 -0.000000 1.000000 0.000000 0.108887 0.642090 1 0 1.0
Default
0 5.959199 -1.070753 -1.510924 0.295492 -0.210192 -0.931936 0.232910 0.425049 1 0 1.0
0 6.038810 -0.000000 -1.727183 0.295492 -0.210192 -0.931936 0.232910 0.425049 1 0 1.0
0 6.928568 -0.000000 -1.445064 0.295492 -0.210192 -0.931936 0.232910 0.425049 1 0 1.0
Default
0 6.880601 -1.468703 -1.122018 0.299834 -0.214266 -0.929618 0.232910 0.425049 1 0 1.0
0 5.959199 -1.070753 -1.510924 0.295492 -0.210192 -0.931936 0.232910 0.425049 1 0 1.0
0 6.928568 -0.000000 -1.445064 0.295492 -0.210192 -0.931936 0.232910 0.425049 1 0 1.0
Default
0 1.542588 0.000000 3.036572 -0.991685 0.000000 0.128687 0.234375 0.578125 1 0 1.0
0 1.394704 0.000000 1.896956 -0.991685 0.000000 0.128687 0.234375 0.578125 1 0 1.0
0 1.394704 -0.456207 1.896956 -0.991685 0.000000 0.128687 0.234375 0.578125 1 0 1.0
Default
0 1.394704 0.000000 1.896956 -0.991685 0.000000 0.128687 0.234375 0.578125 1 0 1.0
0 1.542588 0.000000 3.036572 -0.991685 0.000000 0.128687 0.234375 0.578125 1 0 1.0
0 1.394704 0.456207 1.896956 -0.991685 0.000000 0.128687 0.234375 0.578125 1 0 1.0
Default
0 0.592615 0.000000 3.120875 0.836395 0.000000 0.548127 0.234375 0.578125 1 0 1.0
0 1.394704 -0.456207 1.896956 0.836395 0.000000 0.548127 0.234375 0.578125 1 0 1.0
0 1.394704 0.000000 1.896956 0.836395 0.000000 0.548127 0.234375 0.578125 1 0 1.0
Default
0 1.394704 0.456207 1.896956 0.836395 0.000000 0.548127 0.234375 0.578125 1 0 1.0
0 0.592615 0.000000 3.120875 0.836395 0.000000 0.548127 0.234375 0.578125 1 0 1.0
0 1.394704 0.000000 1.896956 0.836395 0.000000 0.548127 0.234375 0.578125 1 0 1.0
Default
0 -4.554963 0.000000 2.250649 -0.741697 0.000000 -0.670735 0.234375 0.578125 1 0 1.0
0 -3.911294 0.000000 1.538882 -0.741697 0.000000 -0.670735 0.234375 0.578125 1 0 1.0
0 -3.911294 -0.165228 1.538882 -0.741697 0.000000 -0.670735 0.234375 0.578125 1 0 1.0
Default
0 -3.911294 0.000000 1.538882 -0.741697 0.000000 -0.670735 0.234375 0.578125 1 0 1.0
0 -4.554963 0.000000 2.250649 -0.741697 0.000000 -0.670735 0.234375 0.578125 1 0 1.0
0 -3.911294 0.165228 1.538882 -0.741697 0.000000 -0.670735 0.234375 0.578125 1 0 1.0
Default
0 -6.192873 0.000000 2.538494 0.636623 0.000000 0.771175 0.108887 0.642090 1 0 1.0
0 -5.126574 -0.265622 1.658240 0.636623 0.000000 0.771175 0.108887 0.642090 1 0 1.0
0 -5.126574 0.000000 1.658240 0.636623 0.000000 0.771175 0.108887 0.642090 1 0 1.0
Default
0 -5.126574 0.265622 1.658240 0.636623 0.000000 0.771175 0.108887 0.642090 1 0 1.0
0 -6.192873 0.000000 2.538494 0.636623 0.000000 0.771175 0.108887 0.642090 1 0 1.0
0 -5.126574 0.000000 1.658240 0.636623 0.000000 0.771175 0.108887 0.642090 1 0 1.0
Default
0 -6.406959 -0.301684 1.007197 -0.123391 -0.991189 0.048152 0.108887 0.642090 1 0 1.0
0 -6.059736 -0.301684 1.896956 -0.123391 -0.991189 0.048152 0.108887 0.642090 1 0 1.0
0 -7.960553 0.000000 3.236094 -0.123391 -0.991189 0.048152 0.108887 0.642090 1 0 1.0
Default
0 -9.087860 0.000000 1.551684 -0.098369 -0.992970 0.065834 0.108887 0.642090 1 0 1.0
0 -6.406959 -0.301684 1.007197 -0.123391 -0.991189 0.048152 0.108887 0.642090 1 0 1.0
0 -7.960553 0.000000 3.236094 -0.123391 -0.991189 0.048152 0.108887 0.642090 1 0 1.0
Default
0 -6.192873 0.000000 2.538494 -0.000000 1.000000 0.000000 0.108887 0.642090 1 0 1.0
0 -5.126574 0.000000 1.658240 -0.000000 1.000000 0.000000 0.108887 0.642090 1 0 1.0
0 -6.059736 0.000000 1.896956 -0.000000 1.000000 0.000000 0.108887 0.642090 1 0 1.0
Default
0 -7.960553 0.000000 3.236094 -0.000000 1.000000 0.000000 0.108887 0.642090 1 0 1.0
0 -6.192873 0.000000 2.538494 -0.000000 1.000000 0.000000 0.108887 0.642090 1 0 1.0
0 -6.059736 0.000000 1.896956 -0.000000 1.000000 0.000000 0.108887 0.642090 1 0 1.0
Default
0 -7.960553 0.000000 3.236094 -0.000000 1.000000 0.000000 0.108887 0.642090 1 0 1.0
0 -6.059736 0.000000 1.896956 -0.000000 1.000000 0.000000 0.108887 0.642090 1 0 1.0
0 -6.406959 -0.000000 1.007197 -0.000000 1.000000 0.000000 0.108887 0.642090 1 0 1.0
Default
0 -9.087860 0.000000 1.551684 -0.000000 1.000000 0.000000 0.108887 0.642090 1 0 1.0
0 -7.960553 0.000000 3.236094 -0.000000 1.000000 0.000000 0.108887 0.642090 1 0 1.0
0 -6.406959 -0.000000 1.007197 -0.000000 1.000000 0.000000 0.108887 0.642090 1 0 1.0
Default
0 -9.087860 0.000000 1.551684 -0.000000 1.000000 0.000000 0.108887 0.642090 1 0 1.0
0 -6.406959 -0.000000 1.007197 -0.000000 1.000000 0.000000 0.108887 0.642090 1 0 1.0
0 -8.880431 -0.000000 -0.415597 -0.000000 1.000000 0.000000 0.108887 0.642090 1 0 1.0
Default
0 -6.406959 -0.000000 1.007197 -0.000000 1.000000 0.000000 0.108887 0.642090 1 0 1.0
0 -6.211646 -0.000000 -0.045322 -0.000000 1.000000 0.000000 0.108887 0.642090 1 0 1.0
0 -8.880431 -0.000000 -0.415597 -0.000000 1.000000 0.000000 0.108887 0.642090 1 0 1.0
Default
0 -8.880431 -0.000000 -0.415597 -0.000000 1.000000 0.000000 0.108887 0.642090 1 0 1.0
0 -6.211646 -0.000000 -0.045322 -0.000000 1.000000 0.000000 0.108887 0.642090 1 0 1.0
0 -8.080276 -0.000000 -0.877968 -0.000000 1.000000 0.000000 0.108887 0.642090 1 0 1.0
Default
0 -6.211646 -0.000000 -0.045322 -0.000000 1.000000 0.000000 0.108887 0.642090 1 0 1.0
0 -5.278485 -0.000000 0.030633 -0.000000 1.000000 0.000000 0.108887 0.642090 1 0 1.0
0 -8.080276 -0.000000 -0.877968 -0.000000 1.000000 0.000000 0.108887 0.642090 1 0 1.0
Default
0 -8.880431 -0.000000 -0.415597 -0.109518 -0.993777 -0.020323 0.108887 0.642090 1 0 1.0
0 -6.211646 -0.301684 -0.045322 -0.109518 -0.993777 -0.020323 0.108887 0.642090 1 0 1.0
0 -6.406959 -0.301684 1.007197 -0.109518 -0.993777 -0.020323 0.108887 0.642090 1 0 1.0
Default
0 -9.087860 0.000000 1.551684 -0.114232 -0.993381 -0.012045 0.108887 0.642090 1 0 1.0
0 -8.880431 -0.000000 -0.415597 -0.109518 -0.993777 -0.020323 0.108887 0.642090 1 0 1.0
0 -6.406959 -0.301684 1.007197 -0.109518 -0.993777 -0.020323 0.108887 0.642090 1 0 1.0
Default
0 3.458771 -1.395358 1.171512 -0.049404 -0.591781 0.804584 0.234375 0.578125 1 0 1.0
0 3.563631 -0.456207 1.868707 -0.049404 -0.591781 0.804584 0.234375 0.578125 1 0 1.0
0 2.609985 -0.456207 1.810150 -0.049404 -0.591781 0.804584 0.234375 0.578125 1 0 1.0
Default
0 0.628877 -1.241419 1.056099 -0.065174 -0.600733 0.796789 0.234375 0.578125 1 0 1.0
0 3.458771 -1.395358 1.171512 -0.049404 -0.591781 0.804584 0.234375 0.578125 1 0 1.0
0 2.609985 -0.456207 1.810150 -0.049404 -0.591781 0.804584 0.234375 0.578125 1 0 1.0
Default
0 3.458771 -1.395358 1.171512 -0.091054 -0.995474 0.027224 0.234375 0.578125 1 0 1.0
0 5.257793 -1.599462 -0.274702 -0.091054 -0.995474 0.027224 0.234375 0.578125 1 0 1.0
0 6.360224 -1.671915 0.763231 -0.091054 -0.995474 0.027224 0.234375 0.578125 1 0 1.0
Default
0 3.458771 -1.395358 1.171512 -0.091054 -0.995474 0.027224 0.234375 0.578125 1 0 1.0
0 3.198876 -1.368940 -0.299236 -0.111289 -0.993786 0.001815 0.234375 0.578125 1 0 1.0
0 5.257793 -1.599462 -0.274702 -0.091054 -0.995474 0.027224 0.234375 0.578125 1 0 1.0
Default
0 -5.596136 -0.585102 1.225270 0.154447 -0.867594 0.472681 0.234375 0.578125 1 0 1.0
0 -5.126574 -0.265622 1.658240 0.154447 -0.867594 0.472681 0.234375 0.578125 1 0 1.0
0 -6.059736 -0.301684 1.896956 0.154447 -0.867594 0.472681 0.234375 0.578125 1 0 1.0
Default
0 -5.596136 -0.585102 1.225270 0.154447 -0.867594 0.472681 0.234375 0.578125 1 0 1.0
0 -3.911294 -0.165228 1.538882 0.120052 -0.856579 0.501856 0.234375 0.578125 1 0 1.0
0 -5.126574 -0.265622 1.658240 0.154447 -0.867594 0.472681 0.234375 0.578125 1 0 1.0
Default
0 -5.539886 -0.585102 0.662769 -0.332136 -0.941216 -0.061634 0.234375 0.578125 1 0 1.0
0 -6.406959 -0.301684 1.007197 -0.332136 -0.941216 -0.061634 0.234375 0.578125 1 0 1.0
0 -6.211646 -0.301684 -0.045322 -0.332136 -0.941216 -0.061634 0.234375 0.578125 1 0 1.0
Default
0 -6.406959 -0.301684 1.007197 -0.332136 -0.941216 -0.061634 0.234375 0.578125 1 0 1.0
0 -5.539886 -0.585102 0.662769 -0.332136 -0.941216 -0.061634 0.234375 0.578125 1 0 1.0
0 -5.596136 -0.585102 1.225270 -0.322066 -0.946169 -0.032207 0.234375 0.578125 1 0 1.0
Default
0 -5.278485 -0.324365 0.030633 -0.153863 -0.866496 -0.474880 0.232910 0.425049 1 0 1.0
0 -3.641100 -0.423294 -0.319373 -0.153863 -0.866496 -0.474880 0.232910 0.425049 1 0 1.0
0 -3.831736 -0.701570 0.250153 -0.153863 -0.866496 -0.474880 0.232910 0.425049 1 0 1.0
Default
0 -3.641100 -0.423294 -0.319373 -0.153863 -0.866496 -0.474880 0.232910 0.425049 1 0 1.0
0 -1.921130 -1.112491 0.232000 -0.188669 -0.855963 -0.481384 0.232910 0.425049 1 0 1.0
0 -3.831736 -0.701570 0.250153 -0.153863 -0.866496 -0.474880 0.232910 0.425049 1 0 1.0
Default
0 -1.921130 -1.112491 0.232000 -0.064768 -0.996910 0.044447 0.234375 0.578125 1 0 1.0
0 0.546415 -1.289358 -0.139311 -0.064768 -0.996910 0.044447 0.234375 0.578125 1 0 1.0
0 0.628877 -1.241419 1.056099 -0.064768 -0.996910 0.044447 0.234375 0.578125 1 0 1.0
Default
0 3.198876 -1.368940 -0.299236 -0.027436 -0.998743 0.041945 0.234375 0.578125 1 0 1.0
0 0.628877 -1.241419 1.056099 -0.064768 -0.996910 0.044447 0.234375 0.578125 1 0 1.0
0 0.546415 -1.289358 -0.139311 -0.064768 -0.996910 0.044447 0.234375 0.578125 1 0 1.0
Default
0 2.605345 -1.827402 -2.676859 -0.088765 -0.730973 0.676608 0.232910 0.425049 1 0 1.0
0 4.410444 -0.967887 -1.511468 -0.088765 -0.730973 0.676608 0.232910 0.425049 1 0 1.0
0 3.054046 -0.807936 -1.516614 -0.088765 -0.730973 0.676608 0.232910 0.425049 1 0 1.0
Default
0 0.857710 -1.666315 -2.719062 -0.083817 -0.732272 0.675835 0.232910 0.425049 1 0 1.0
0 2.605345 -1.827402 -2.676859 -0.088765 -0.730973 0.676608 0.232910 0.425049 1 0 1.0
0 3.054046 -0.807936 -1.516614 -0.088765 -0.730973 0.676608 0.232910 0.425049 1 0 1.0
Default
0 -1.981403 -0.897129 -1.520307 0.075752 -0.989813 0.120549 0.234131 0.579102 1 0 1.0
0 -1.783547 -1.033552 -2.764787 0.075752 -0.989813 0.120549 0.234131 0.579102 1 0 1.0
0 -0.122015 -0.826424 -2.108178 0.075752 -0.989813 0.120549 0.234131 0.579102 1 0 1.0
Default
0 -3.488642 -0.996919 -1.931347 0.034554 -0.992842 0.114331 0.234131 0.579102 1 0 1.0
0 -1.783547 -1.033552 -2.764787 0.075752 -0.989813 0.120549 0.234131 0.579102 1 0 1.0
0 -1.981403 -0.897129 -1.520307 0.075752 -0.989813 0.120549 0.234131 0.579102 1 0 1.0
Default
0 -5.278485 0.324365 0.030633 -0.211285 0.475280 -0.854088 0.232910 0.425049 1 0 1.0
0 -3.641100 0.423294 -0.319373 -0.211285 0.475280 -0.854088 0.232910 0.425049 1 0 1.0
0 -3.683430 -0.000000 -0.544455 -0.211285 0.475280 -0.854088 0.232910 0.425049 1 0 1.0
Default
0 -3.683430 -0.000000 -0.544455 -0.211285 0.475280 -0.854088 0.232910 0.425049 1 0 1.0
0 -3.641100 0.423294 -0.319373 -0.211285 0.475280 -0.854088 0.232910 0.425049 1 0 1.0
0 -1.817107 -0.000000 -1.097841 -0.250323 0.473941 -0.844227 0.232910 0.425049 1 0 1.0
Default
0 0.592615 0.000000 3.120875 -0.024324 0.941858 0.335130 0.108887 0.642090 1 0 1.0
0 1.394704 0.456207 1.896956 -0.024324 0.941858 0.335130 0.108887 0.642090 1 0 1.0
0 -1.296273 0.456207 1.701643 -0.024324 0.941858 0.335130 0.108887 0.642090 1 0 1.0
Default
0 -2.130914 0.000000 2.903861 -0.026952 0.940672 0.338246 0.108887 0.642090 1 0 1.0
0 0.592615 0.000000 3.120875 -0.024324 0.941858 0.335130 0.108887 0.642090 1 0 1.0
0 -1.296273 0.456207 1.701643 -0.024324 0.941858 0.335130 0.108887 0.642090 1 0 1.0
Default
0 9.085166 0.353244 -0.113348 0.363213 0.080628 -0.928211 0.232910 0.425049 1 0 1.0
0 9.087860 -0.000000 -0.142979 0.363213 0.080628 -0.928211 0.232910 0.425049 1 0 1.0
0 8.339161 -0.000000 -0.435948 0.363213 0.080628 -0.928211 0.232910 0.425049 1 0 1.0
Default
0 8.256719 1.041135 -0.350344 0.352693 0.104387 -0.929898 0.232910 0.425049 1 0 1.0
0 9.085166 0.353244 -0.113348 0.363213 0.080628 -0.928211 0.232910 0.425049 1 0 1.0
0 8.339161 -0.000000 -0.435948 0.363213 0.080628 -0.928211 0.232910 0.425049 1 0 1.0
Default
0 9.085166 0.353244 -0.113348 0.995893 0.000000 0.090537 0.232910 0.425049 1 0 1.0
0 9.066158 0.393139 0.095737 0.995893 0.000000 0.090537 0.232910 0.425049 1 0 1.0
0 9.066158 -0.000000 0.095737 0.995893 0.000000 0.090537 0.232910 0.425049 1 0 1.0
Default
0 9.087860 -0.000000 -0.142979 0.995893 0.000000 0.090537 0.232910 0.425049 1 0 1.0
0 9.085166 0.353244 -0.113348 0.995893 0.000000 0.090537 0.232910 0.425049 1 0 1.0
0 9.066158 -0.000000 0.095737 0.995893 0.000000 0.090537 0.232910 0.425049 1 0 1.0
Default
0 9.085166 -0.353244 -0.113348 0.995893 0.000000 0.090537 0.232910 0.425049 1 0 1.0
0 9.087860 -0.000000 -0.142979 0.995893 0.000000 0.090537 0.232910 0.425049 1 0 1.0
0 9.066158 -0.000000 0.095737 0.995893 0.000000 0.090537 0.232910 0.425049 1 0 1.0
Default
0 9.066158 -0.393139 0.095737 0.995893 0.000000 0.090537 0.232910 0.425049 1 0 1.0
0 9.085166 -0.353244 -0.113348 0.995893 0.000000 0.090537 0.232910 0.425049 1 0 1.0
0 9.066158 -0.000000 0.095737 0.995893 0.000000 0.090537 0.232910 0.425049 1 0 1.0
Default
0 -3.911294 0.165228 1.538882 0.097744 0.000000 0.995212 0.234375 0.578125 1 0 1.0
0 -5.126574 0.265622 1.658240 0.097744 0.000000 0.995212 0.234375 0.578125 1 0 1.0
0 -5.126574 0.000000 1.658240 0.097744 0.000000 0.995212 0.234375 0.578125 1 0 1.0
Default
0 -3.911294 0.000000 1.538882 0.097744 0.000000 0.995212 0.234375 0.578125 1 0 1.0
0 -3.911294 0.165228 1.538882 0.097744 0.000000 0.995212 0.234375 0.578125 1 0 1.0
0 -5.126574 0.000000 1.658240 0.097744 0.000000 0.995212 0.234375 0.578125 1 0 1.0
Default
0 -3.911294 -0.165228 1.538882 0.097744 0.000000 0.995212 0.234375 0.578125 1 0 1.0
0 -3.911294 0.000000 1.538882 0.097744 0.000000 0.995212 0.234375 0.578125 1 0 1.0
0 -5.126574 0.000000 1.658240 0.097744 0.000000 0.995212 0.234375 0.578125 1 0 1.0
Default
0 -5.126574 -0.265622 1.658240 0.097744 0.000000 0.995212 0.234375 0.578125 1 0 1.0
0 -3.911294 -0.165228 1.538882 0.097744 0.000000 0.995212 0.234375 0.578125 1 0 1.0
0 -5.126574 0.000000 1.658240 0.097744 0.000000 0.995212 0.234375 0.578125 1 0 1.0
Default
0 9.066158 0.393139 0.095737 0.496141 0.000000 0.868242 0.236572 0.356201 1 0 1.0
0 8.610431 1.399630 0.356154 0.496141 0.000000 0.868242 0.236572 0.356201 1 0 1.0
0 8.610431 -0.000000 0.356154 0.496141 0.000000 0.868242 0.236572 0.356201 1 0 1.0
Default
0 9.066158 -0.000000 0.095737 0.496141 0.000000 0.868242 0.236572 0.356201 1 0 1.0
0 9.066158 0.393139 0.095737 0.496141 0.000000 0.868242 0.236572 0.356201 1 0 1.0
0 8.610431 -0.000000 0.356154 0.496141 0.000000 0.868242 0.236572 0.356201 1 0 1.0
Default
0 9.066158 -0.393139 0.095737 0.496141 0.000000 0.868242 0.236572 0.356201 1 0 1.0
0 9.066158 -0.000000 0.095737 0.496141 0.000000 0.868242 0.236572 0.356201 1 0 1.0
0 8.610431 -0.000000 0.356154 0.496141 0.000000 0.868242 0.236572 0.356201 1 0 1.0
Default
0 8.610431 -1.399630 0.356154 0.496141 0.000000 0.868242 0.236572 0.356201 1 0 1.0
0 9.066158 -0.393139 0.095737 0.496141 0.000000 0.868242 0.236572 0.356201 1 0 1.0
0 8.610431 -0.000000 0.356154 0.496141 0.000000 0.868242 0.236572 0.356201 1 0 1.0
Default
0 8.863222 0.517956 1.108276 0.517636 0.068109 0.852885 0.234375 0.578125 1 0 1.0
0 7.792472 0.852171 1.731451 0.517636 0.068109 0.852885 0.234375 0.578125 1 0 1.0
0 7.774925 -0.000000 1.810150 0.517636 0.068109 0.852885 0.234375 0.578125 1 0 1.0
Default
0 8.816594 -0.000000 1.180809 0.515732 0.073109 0.853625 0.234375 0.578125 1 0 1.0
0 8.863222 0.517956 1.108276 0.517636 0.068109 0.852885 0.234375 0.578125 1 0 1.0
0 7.774925 -0.000000 1.810150 0.517636 0.068109 0.852885 0.234375 0.578125 1 0 1.0
Default
0 2.355760 0.866456 -1.521901 -0.023939 0.245206 -0.969175 0.232910 0.425049 1 0 1.0
0 4.487635 1.008425 -1.538641 -0.023939 0.245206 -0.969175 0.232910 0.425049 1 0 1.0
0 3.988025 -0.000000 -1.781436 -0.023939 0.245206 -0.969175 0.232910 0.425049 1 0 1.0
Default
0 2.165105 -0.000000 -1.759735 -0.011472 0.267029 -0.963620 0.232910 0.425049 1 0 1.0
0 2.355760 0.866456 -1.521901 -0.023939 0.245206 -0.969175 0.232910 0.425049 1 0 1.0
0 3.988025 -0.000000 -1.781436 -0.023939 0.245206 -0.969175 0.232910 0.425049 1 0 1.0
Default
0 -6.059736 0.301684 1.896956 0.148172 0.882751 0.445865 0.108887 0.642090 1 0 1.0
0 -6.192873 0.000000 2.538494 0.148172 0.882751 0.445865 0.108887 0.642090 1 0 1.0
0 -5.126574 0.265622 1.658240 0.148172 0.882751 0.445865 0.108887 0.642090 1 0 1.0
Default
0 -6.059736 0.301684 1.896956 0.148172 0.882751 0.445865 0.108887 0.642090 1 0 1.0
0 -7.960553 0.000000 3.236094 0.177066 0.875978 0.448676 0.108887 0.642090 1 0 1.0
0 -6.192873 0.000000 2.538494 0.148172 0.882751 0.445865 0.108887 0.642090 1 0 1.0
Default
0 4.487635 1.008425 -1.538641 0.010043 0.198679 -0.980013 0.232910 0.425049 1 0 1.0
0 5.959199 1.070753 -1.510924 0.010043 0.198679 -0.980013 0.232910 0.425049 1 0 1.0
0 6.038810 -0.000000 -1.727183 0.010043 0.198679 -0.980013 0.232910 0.425049 1 0 1.0
Default
0 3.988025 -0.000000 -1.781436 0.025786 0.221906 -0.974727 0.232910 0.425049 1 0 1.0
0 4.487635 1.008425 -1.538641 0.010043 0.198679 -0.980013 0.232910 0.425049 1 0 1.0
0 6.038810 -0.000000 -1.727183 0.010043 0.198679 -0.980013 0.232910 0.425049 1 0 1.0
Default
0 5.959199 1.070753 -1.510924 0.299834 0.214266 -0.929618 0.232910 0.425049 1 0 1.0
0 6.880601 1.468703 -1.122018 0.299834 0.214266 -0.929618 0.232910 0.425049 1 0 1.0
0 6.928568 -0.000000 -1.445064 0.299834 0.214266 -0.929618 0.232910 0.425049 1 0 1.0
Default
0 6.038810 -0.000000 -1.727183 0.295492 0.210192 -0.931936 0.232910 0.425049 1 0 1.0
0 5.959199 1.070753 -1.510924 0.299834 0.214266 -0.929618 0.232910 0.425049 1 0 1.0
0 6.928568 -0.000000 -1.445064 0.299834 0.214266 -0.929618 0.232910 0.425049 1 0 1.0
Default
0 -7.960553 0.000000 3.236094 -0.123391 0.991189 0.048152 0.108887 0.642090 1 0 1.0
0 -6.059736 0.301684 1.896956 -0.123391 0.991189 0.048152 0.108887 0.642090 1 0 1.0
0 -6.406959 0.301684 1.007197 -0.123391 0.991189 0.048152 0.108887 0.642090 1 0 1.0
Default
0 -9.087860 0.000000 1.551684 -0.098369 0.992970 0.065834 0.108887 0.642090 1 0 1.0
0 -7.960553 0.000000 3.236094 -0.123391 0.991189 0.048152 0.108887 0.642090 1 0 1.0
0 -6.406959 0.301684 1.007197 -0.123391 0.991189 0.048152 0.108887 0.642090 1 0 1.0
Default
0 -8.880431 -0.000000 -0.415597 -0.114232 0.993381 -0.012045 0.108887 0.642090 1 0 1.0
0 -9.087860 0.000000 1.551684 -0.114232 0.993381 -0.012045 0.108887 0.642090 1 0 1.0
0 -6.406959 0.301684 1.007197 -0.114232 0.993381 -0.012045 0.108887 0.642090 1 0 1.0
Default
0 -6.211646 0.301684 -0.045322 -0.109518 0.993777 -0.020323 0.108887 0.642090 1 0 1.0
0 -8.880431 -0.000000 -0.415597 -0.114232 0.993381 -0.012045 0.108887 0.642090 1 0 1.0
0 -6.406959 0.301684 1.007197 -0.114232 0.993381 -0.012045 0.108887 0.642090 1 0 1.0
Default
0 3.563631 0.456207 1.868707 -0.049404 0.591781 0.804584 0.234375 0.578125 1 0 1.0
0 3.458771 1.395358 1.171512 -0.049404 0.591781 0.804584 0.234375 0.578125 1 0 1.0
0 2.609985 0.456207 1.810150 -0.049404 0.591781 0.804584 0.234375 0.578125 1 0 1.0
Default
0 3.458771 1.395358 1.171512 -0.049404 0.591781 0.804584 0.234375 0.578125 1 0 1.0
0 0.628877 1.241419 1.056099 -0.065174 0.600733 0.796789 0.234375 0.578125 1 0 1.0
0 2.609985 0.456207 1.810150 -0.049404 0.591781 0.804584 0.234375 0.578125 1 0 1.0
Default
0 5.257793 1.599462 -0.274702 -0.091054 0.995474 0.027224 0.234375 0.578125 1 0 1.0
0 3.458771 1.395358 1.171512 -0.091054 0.995474 0.027224 0.234375 0.578125 1 0 1.0
0 6.360224 1.671915 0.763231 -0.091054 0.995474 0.027224 0.234375 0.578125 1 0 1.0
Default
0 3.198876 1.368940 -0.299236 -0.111289 0.993786 0.001815 0.234375 0.578125 1 0 1.0
0 3.458771 1.395358 1.171512 -0.091054 0.995474 0.027224 0.234375 0.578125 1 0 1.0
0 5.257793 1.599462 -0.274702 -0.091054 0.995474 0.027224 0.234375 0.578125 1 0 1.0
Default
0 -5.126574 0.265622 1.658240 0.154447 0.867594 0.472681 0.234375 0.578125 1 0 1.0
0 -5.596136 0.585102 1.225270 0.154447 0.867594 0.472681 0.234375 0.578125 1 0 1.0
0 -6.059736 0.301684 1.896956 0.154447 0.867594 0.472681 0.234375 0.578125 1 0 1.0
Default
0 -3.911294 0.165228 1.538882 0.120052 0.856579 0.501856 0.234375 0.578125 1 0 1.0
0 -5.596136 0.585102 1.225270 0.154447 0.867594 0.472681 0.234375 0.578125 1 0 1.0
0 -5.126574 0.265622 1.658240 0.154447 0.867594 0.472681 0.234375 0.578125 1 0 1.0
Default
0 -6.406959 0.301684 1.007197 -0.332136 0.941216 -0.061634 0.234375 0.578125 1 0 1.0
0 -5.539886 0.585102 0.662769 -0.332136 0.941216 -0.061634 0.234375 0.578125 1 0 1.0
0 -6.211646 0.301684 -0.045322 -0.332136 0.941216 -0.061634 0.234375 0.578125 1 0 1.0
Default
0 -5.539886 0.585102 0.662769 -0.332136 0.941216 -0.061634 0.234375 0.578125 1 0 1.0
0 -6.406959 0.301684 1.007197 -0.332136 0.941216 -0.061634 0.234375 0.578125 1 0 1.0
0 -5.596136 0.585102 1.225270 -0.322066 0.946169 -0.032207 0.234375 0.578125 1 0 1.0
Default
0 -3.641100 0.423294 -0.319373 -0.153863 0.866496 -0.474880 0.232910 0.425049 1 0 1.0
0 -5.278485 0.324365 0.030633 -0.153863 0.866496 -0.474880 0.232910 0.425049 1 0 1.0
0 -3.831736 0.701570 0.250153 -0.153863 0.866496 -0.474880 0.232910 0.425049 1 0 1.0
Default
0 -1.921130 1.112491 0.232000 -0.188669 0.855963 -0.481384 0.232910 0.425049 1 0 1.0
0 -3.641100 0.423294 -0.319373 -0.153863 0.866496 -0.474880 0.232910 0.425049 1 0 1.0
0 -3.831736 0.701570 0.250153 -0.153863 0.866496 -0.474880 0.232910 0.425049 1 0 1.0
Default
0 0.546415 1.289358 -0.139311 -0.064768 0.996910 0.044447 0.234375 0.578125 1 0 1.0
0 -1.921130 1.112491 0.232000 -0.064768 0.996910 0.044447 0.234375 0.578125 1 0 1.0
0 0.628877 1.241419 1.056099 -0.064768 0.996910 0.044447 0.234375 0.578125 1 0 1.0
Default
0 0.628877 1.241419 1.056099 -0.064768 0.996910 0.044447 0.234375 0.578125 1 0 1.0
0 3.198876 1.368940 -0.299236 -0.027436 0.998743 0.041945 0.234375 0.578125 1 0 1.0
0 0.546415 1.289358 -0.139311 -0.064768 0.996910 0.044447 0.234375 0.578125 1 0 1.0
Default
0 3.054046 0.807936 -1.516614 -0.088765 0.730973 0.676608 0.232910 0.425049 1 0 1.0
0 4.410444 0.967887 -1.511468 -0.088765 0.730973 0.676608 0.232910 0.425049 1 0 1.0
0 2.605345 1.827402 -2.676859 -0.088765 0.730973 0.676608 0.232910 0.425049 1 0 1.0
Default
0 0.857710 1.666315 -2.719062 -0.083817 0.732272 0.675835 0.232910 0.425049 1 0 1.0
0 3.054046 0.807936 -1.516614 -0.088765 0.730973 0.676608 0.232910 0.425049 1 0 1.0
0 2.605345 1.827402 -2.676859 -0.088765 0.730973 0.676608 0.232910 0.425049 1 0 1.0
Default
0 -1.783547 1.033552 -2.764787 0.075752 0.989813 0.120549 0.234131 0.579102 1 0 1.0
0 -1.981403 0.897129 -1.520307 0.075752 0.989813 0.120549 0.234131 0.579102 1 0 1.0
0 -0.122015 0.826424 -2.108178 0.075752 0.989813 0.120549 0.234131 0.579102 1 0 1.0
Default
0 -1.783547 1.033552 -2.764787 0.075752 0.989813 0.120549 0.234131 0.579102 1 0 1.0
0 -3.488642 0.996919 -1.931347 0.034554 0.992842 0.114331 0.234131 0.579102 1 0 1.0
0 -1.981403 0.897129 -1.520307 0.075752 0.989813 0.120549 0.234131 0.579102 1 0 1.0
Default
0 8.610431 -1.399630 0.356154 0.792010 0.000000 -0.610508 0.236572 0.356201 1 0 1.0
0 8.610431 -0.000000 0.356154 0.792010 0.000000 -0.610508 0.236572 0.356201 1 0 1.0
0 9.011907 -0.517956 0.876989 0.792010 0.000000 -0.610508 0.236572 0.356201 1 0 1.0
Default
0 8.610431 -0.000000 0.356154 0.792010 0.000000 -0.610508 0.236572 0.356201 1 0 1.0
0 9.011907 -0.000000 0.876989 0.792010 0.000000 -0.610508 0.236572 0.356201 1 0 1.0
0 9.011907 -0.517956 0.876989 0.792010 0.000000 -0.610508 0.236572 0.356201 1 0 1.0
Default
0 9.011907 0.517956 0.876989 0.792010 0.000000 -0.610508 0.236572 0.356201 1 0 1.0
0 9.011907 -0.000000 0.876989 0.792010 0.000000 -0.610508 0.236572 0.356201 1 0 1.0
0 8.610431 -0.000000 0.356154 0.792010 0.000000 -0.610508 0.236572 0.356201 1 0 1.0
Default
0 8.610431 1.399630 0.356154 0.792010 0.000000 -0.610508 0.236572 0.356201 1 0 1.0
0 9.011907 0.517956 0.876989 0.792010 0.000000 -0.610508 0.236572 0.356201 1 0 1.0
0 8.610431 -0.000000 0.356154 0.792010 0.000000 -0.610508 0.236572 0.356201 1 0 1.0
Default
0 9.011907 -0.517956 0.876989 0.841177 0.000000 0.540760 0.233154 0.425537 1 0 1.0
0 9.011907 -0.000000 0.876989 0.841178 0.000000 0.540758 0.233154 0.425537 1 0 1.0
0 8.863222 -0.517956 1.108276 0.841178 0.000000 0.540758 0.233154 0.425537 1 0 1.0
Default
0 9.011907 -0.000000 0.876989 0.841178 0.000000 0.540758 0.233154 0.425537 1 0 1.0
0 8.816594 -0.000000 1.180809 0.841178 0.000000 0.540758 0.233154 0.425537 1 0 1.0
0 8.863222 -0.517956 1.108276 0.841178 0.000000 0.540758 0.233154 0.425537 1 0 1.0
Default
0 8.863222 0.517956 1.108276 0.841178 0.000000 0.540758 0.233154 0.425537 1 0 1.0
0 8.816594 -0.000000 1.180809 0.841178 0.000000 0.540758 0.233154 0.425537 1 0 1.0
0 9.011907 -0.000000 0.876989 0.841178 0.000000 0.540758 0.233154 0.425537 1 0 1.0
Default
0 9.011907 0.517956 0.876989 0.841177 0.000000 0.540760 0.233154 0.425537 1 0 1.0
0 8.863222 0.517956 1.108276 0.841178 0.000000 0.540758 0.233154 0.425537 1 0 1.0
0 9.011907 -0.000000 0.876989 0.841178 0.000000 0.540758 0.233154 0.425537 1 0 1.0
end
