version 1
nodes
0 "root" -1
end
skeleton
time 0
0 0 0 0 0 0 0
end
triangles
Default
0 4.833762 -1.544198 -1.345280 0.009445 -0.086182 -0.996094 0.608398 0.018280 1 0 1.0
0 -0.756841 -2.157189 -1.345280 0.009445 -0.086182 -0.996094 0.608398 0.018280 1 0 1.0
0 -0.341621 0.619128 -1.581465 0.009445 -0.086182 -0.996094 0.608398 0.018280 1 0 1.0
Default
0 4.833762 -1.544198 -1.345280 0.274902 -0.066284 -0.958984 0.608398 0.018280 1 0 1.0
0 7.100527 0.424925 -0.831433 0.274902 -0.066284 -0.958984 0.608398 0.018280 1 0 1.0
0 6.834609 -2.474454 -0.707262 0.274902 -0.066284 -0.958984 0.608398 0.018280 1 0 1.0
Default
0 -0.756841 -2.157189 -1.345280 -0.046021 -0.077820 -0.996094 0.608398 0.018280 1 0 1.0
0 -5.454389 0.619128 -1.345276 -0.046021 -0.077820 -0.996094 0.608398 0.018280 1 0 1.0
0 -0.341621 0.619128 -1.581465 -0.046021 -0.077820 -0.996094 0.608398 0.018280 1 0 1.0
Default
0 -5.454389 0.619128 -1.345276 -0.046082 0.052094 -0.997559 0.608398 0.018280 1 0 1.0
0 -2.259914 3.444495 -1.345280 -0.046082 0.052094 -0.997559 0.608398 0.018280 1 0 1.0
0 -0.341621 0.619128 -1.581465 -0.046082 0.052094 -0.997559 0.608398 0.018280 1 0 1.0
Default
0 -2.259914 3.444495 -1.345280 0.007675 0.088501 -0.996094 0.608398 0.018280 1 0 1.0
0 3.438837 2.950118 -1.345280 0.007675 0.088501 -0.996094 0.608398 0.018280 1 0 1.0
0 -0.341621 0.619128 -1.581465 0.007675 0.088501 -0.996094 0.608398 0.018280 1 0 1.0
Default
0 7.100527 0.424925 -0.831433 0.377197 -0.074097 -0.923340 0.608398 0.018280 1 0 1.0
0 8.790537 -1.331343 0.000000 0.377197 -0.074097 -0.923340 0.608398 0.018280 1 0 1.0
0 6.834609 -2.474454 -0.707262 0.377197 -0.074097 -0.923340 0.608398 0.018280 1 0 1.0
Default
0 2.876877 -3.902744 -0.831436 -0.050537 -0.844238 -0.533691 0.608398 0.018280 1 0 1.0
0 0.509076 -4.286781 0.000000 -0.050537 -0.844238 -0.533691 0.608398 0.018280 1 0 1.0
0 -1.644395 -3.710544 -0.707263 -0.050537 -0.844238 -0.533691 0.608398 0.018280 1 0 1.0
Default
0 -4.793497 -1.827710 -0.831434 -0.379883 -0.343018 -0.858887 0.608398 0.018280 1 0 1.0
0 -8.730251 0.450164 0.000000 -0.379883 -0.343018 -0.858887 0.608398 0.018280 1 0 1.0
0 -7.782796 1.171740 -0.707256 -0.379883 -0.343018 -0.858887 0.608398 0.018280 1 0 1.0
Default
0 -6.509392 3.182012 -0.831434 -0.129883 0.819824 -0.557129 0.608398 0.018280 1 0 1.0
0 -5.657389 3.882103 0.000000 -0.129883 0.819824 -0.557129 0.608398 0.018280 1 0 1.0
0 -2.953540 3.829730 -0.707263 -0.129883 0.819824 -0.557129 0.608398 0.018280 1 0 1.0
Default
0 8.790537 -1.331343 0.000000 0.565918 -0.725098 -0.392334 0.608398 0.018280 1 0 1.0
0 5.699254 -3.742558 0.000000 0.565918 -0.725098 -0.392334 0.608398 0.018280 1 0 1.0
0 6.834609 -2.474454 -0.707262 0.565918 -0.725098 -0.392334 0.608398 0.018280 1 0 1.0
Default
0 0.509076 -4.286781 0.000000 -0.247803 -0.968262 -0.034210 0.608398 0.018280 1 0 1.0
0 -3.906624 -3.156467 0.000000 -0.247803 -0.968262 -0.034210 0.608398 0.018280 1 0 1.0
0 -1.644395 -3.710544 -0.707263 -0.247803 -0.968262 -0.034210 0.608398 0.018280 1 0 1.0
Default
0 -8.730251 0.450164 0.000000 -0.590332 -0.015564 -0.807129 0.608398 0.018280 1 0 1.0
0 -8.790537 2.737263 0.000000 -0.590332 -0.015564 -0.807129 0.608398 0.018280 1 0 1.0
0 -7.782796 1.171740 -0.707256 -0.590332 -0.015564 -0.807129 0.608398 0.018280 1 0 1.0
Default
0 -5.657389 3.882103 0.000000 -0.075378 0.931152 -0.357178 0.608398 0.018280 1 0 1.0
0 -0.659087 4.286781 0.000000 -0.075378 0.931152 -0.357178 0.608398 0.018280 1 0 1.0
0 -2.953540 3.829730 -0.707263 -0.075378 0.931152 -0.357178 0.608398 0.018280 1 0 1.0
Default
0 4.346193 3.882103 0.000000 0.348877 0.929199 -0.122070 0.608398 0.018280 1 0 1.0
0 7.395612 2.737263 0.000000 0.348877 0.929199 -0.122070 0.608398 0.018280 1 0 1.0
0 5.617908 3.311731 -0.707262 0.348877 0.929199 -0.122070 0.608398 0.018280 1 0 1.0
Default
0 6.530370 -2.344735 0.831433 0.116089 -0.298828 0.947266 0.608398 0.046600 1 0 1.0
0 2.172697 -2.408370 1.345280 0.116089 -0.298828 0.947266 0.608398 0.046600 1 0 1.0
0 2.993006 -4.112675 0.707262 0.116089 -0.298828 0.947266 0.608398 0.046600 1 0 1.0
Default
0 -1.528265 -3.500613 0.831435 -0.192993 -0.373535 0.907227 0.608398 0.046600 1 0 1.0
0 -3.627224 -1.167426 1.345280 -0.192993 -0.373535 0.907227 0.608398 0.046600 1 0 1.0
0 -5.097735 -1.957429 0.707262 -0.192993 -0.373535 0.907227 0.608398 0.046600 1 0 1.0
Default
0 -7.779082 1.171740 0.831433 -0.272217 0.177734 0.945801 0.608398 0.046600 1 0 1.0
0 -4.833762 2.950118 1.345280 -0.272217 0.177734 0.945801 0.608398 0.046600 1 0 1.0
0 -6.813629 3.311731 0.707262 -0.272217 0.177734 0.945801 0.608398 0.046600 1 0 1.0
Default
0 -2.837410 3.619798 0.831435 -0.026382 0.871582 0.489258 0.608398 0.046600 1 0 1.0
0 0.899876 3.444495 1.345280 -0.026382 0.871582 0.489258 0.608398 0.046600 1 0 1.0
0 1.794793 3.829730 0.707262 -0.026382 0.871582 0.489258 0.608398 0.046600 1 0 1.0
Default
0 5.313667 3.182012 0.831433 0.236084 0.141968 0.961426 0.608398 0.046600 1 0 1.0
0 4.875806 0.430742 1.345276 0.236084 0.141968 0.961426 0.608398 0.046600 1 0 1.0
0 7.476582 0.424925 0.707256 0.236084 0.141968 0.961426 0.608398 0.046600 1 0 1.0
Default
0 0.899876 3.444495 1.345280 0.047394 0.062500 0.997070 0.611328 0.082764 1 0 1.0
0 -0.341621 0.619128 1.581465 0.047394 0.062500 0.997070 0.611328 0.082764 1 0 1.0
0 4.875806 0.430742 1.345276 0.047394 0.062500 0.997070 0.611328 0.082764 1 0 1.0
Default
0 5.313667 3.182012 0.831433 0.123657 0.163086 0.979004 0.608398 0.046600 1 0 1.0
0 0.899876 3.444495 1.345280 0.123657 0.163086 0.979004 0.608398 0.046600 1 0 1.0
0 4.875806 0.430742 1.345276 0.123657 0.163086 0.979004 0.608398 0.046600 1 0 1.0
Default
0 1.794793 3.829730 0.707262 0.119019 0.767090 0.630371 0.608398 0.046600 1 0 1.0
0 0.899876 3.444495 1.345280 0.119019 0.767090 0.630371 0.608398 0.046600 1 0 1.0
0 5.313667 3.182012 0.831433 0.119019 0.767090 0.630371 0.608398 0.046600 1 0 1.0
Default
0 -4.833762 2.950118 1.345280 -0.007462 0.086548 0.996094 0.611328 0.082764 1 0 1.0
0 -0.341621 0.619128 1.581465 -0.007462 0.086548 0.996094 0.611328 0.082764 1 0 1.0
0 0.899876 3.444495 1.345280 -0.007462 0.086548 0.996094 0.611328 0.082764 1 0 1.0
Default
0 -3.627224 -1.167426 1.345280 -0.061890 -0.018127 0.998047 0.611328 0.082764 1 0 1.0
0 -0.341621 0.619128 1.581465 -0.061890 -0.018127 0.998047 0.611328 0.082764 1 0 1.0
0 -4.833762 2.950118 1.345280 -0.061890 -0.018127 0.998047 0.611328 0.082764 1 0 1.0
Default
0 -7.779082 1.171740 0.831433 -0.146484 -0.042938 0.988281 0.611328 0.082764 1 0 1.0
0 -3.627224 -1.167426 1.345280 -0.146484 -0.042938 0.988281 0.611328 0.082764 1 0 1.0
0 -4.833762 2.950118 1.345280 -0.146484 -0.042938 0.988281 0.611328 0.082764 1 0 1.0
Default
0 -5.097735 -1.957429 0.707262 -0.262451 -0.261719 0.928711 0.608398 0.046600 1 0 1.0
0 -3.627224 -1.167426 1.345280 -0.262451 -0.261719 0.928711 0.608398 0.046600 1 0 1.0
0 -7.779082 1.171740 0.831433 -0.262451 -0.261719 0.928711 0.608398 0.046600 1 0 1.0
Default
0 2.172697 -2.408370 1.345280 -0.020203 -0.094421 0.995117 0.611328 0.082764 1 0 1.0
0 -0.341621 0.619128 1.581465 -0.020203 -0.094421 0.995117 0.611328 0.082764 1 0 1.0
0 -3.627224 -1.167426 1.345280 -0.020203 -0.094421 0.995117 0.611328 0.082764 1 0 1.0
Default
0 -1.528265 -3.500613 0.831435 -0.056213 -0.262695 0.963379 0.608398 0.046600 1 0 1.0
0 2.172697 -2.408370 1.345280 -0.056213 -0.262695 0.963379 0.608398 0.046600 1 0 1.0
0 -3.627224 -1.167426 1.345280 -0.056213 -0.262695 0.963379 0.608398 0.046600 1 0 1.0
Default
0 2.993006 -4.112675 0.707262 -0.023163 -0.360352 0.932617 0.608398 0.046600 1 0 1.0
0 2.172697 -2.408370 1.345280 -0.023163 -0.360352 0.932617 0.608398 0.046600 1 0 1.0
0 -1.528265 -3.500613 0.831435 -0.023163 -0.360352 0.932617 0.608398 0.046600 1 0 1.0
Default
0 4.875806 0.430742 1.345276 0.043671 -0.041595 0.998047 0.611328 0.082764 1 0 1.0
0 -0.341621 0.619128 1.581465 0.043671 -0.041595 0.998047 0.611328 0.082764 1 0 1.0
0 2.172697 -2.408370 1.345280 0.043671 -0.041595 0.998047 0.611328 0.082764 1 0 1.0
Default
0 6.530370 -2.344735 0.831433 0.117981 -0.112305 0.986816 0.608398 0.046600 1 0 1.0
0 4.875806 0.430742 1.345276 0.117981 -0.112305 0.986816 0.608398 0.046600 1 0 1.0
0 2.172697 -2.408370 1.345280 0.117981 -0.112305 0.986816 0.608398 0.046600 1 0 1.0
Default
0 7.476582 0.424925 0.707256 0.238037 -0.037811 0.970703 0.608398 0.046600 1 0 1.0
0 4.875806 0.430742 1.345276 0.238037 -0.037811 0.970703 0.608398 0.046600 1 0 1.0
0 6.530370 -2.344735 0.831433 0.238037 -0.037811 0.970703 0.608398 0.046600 1 0 1.0
Default
0 5.313667 3.182012 0.831433 0.406982 0.280273 0.869141 0.608398 0.018280 1 0 1.0
0 7.476582 0.424925 0.707256 0.406982 0.280273 0.869141 0.608398 0.018280 1 0 1.0
0 7.395612 2.737263 0.000000 0.406982 0.280273 0.869141 0.608398 0.018280 1 0 1.0
Default
0 4.346193 3.882103 0.000000 0.328613 0.875488 0.354736 0.608398 0.018280 1 0 1.0
0 5.313667 3.182012 0.831433 0.328613 0.875488 0.354736 0.608398 0.018280 1 0 1.0
0 7.395612 2.737263 0.000000 0.328613 0.875488 0.354736 0.608398 0.018280 1 0 1.0
Default
0 1.794793 3.829730 0.707262 0.133423 0.829102 0.542969 0.608398 0.018280 1 0 1.0
0 5.313667 3.182012 0.831433 0.133423 0.829102 0.542969 0.608398 0.018280 1 0 1.0
0 4.346193 3.882103 0.000000 0.133423 0.829102 0.542969 0.608398 0.018280 1 0 1.0
Default
0 -2.837410 3.619798 0.831435 -0.020630 0.805664 0.592285 0.608398 0.018280 1 0 1.0
0 1.794793 3.829730 0.707262 -0.020630 0.805664 0.592285 0.608398 0.018280 1 0 1.0
0 -0.659087 4.286781 0.000000 -0.020630 0.805664 0.592285 0.608398 0.018280 1 0 1.0
Default
0 -7.779082 1.171740 0.831433 -0.385742 0.225952 0.894531 0.608398 0.046600 1 0 1.0
0 -6.813629 3.311731 0.707262 -0.385742 0.225952 0.894531 0.608398 0.046600 1 0 1.0
0 -8.790537 2.737263 0.000000 -0.385742 0.225952 0.894531 0.608398 0.046600 1 0 1.0
Default
0 -8.730251 0.450164 0.000000 -0.650391 -0.017151 0.759277 0.608398 0.046600 1 0 1.0
0 -7.779082 1.171740 0.831433 -0.650391 -0.017151 0.759277 0.608398 0.046600 1 0 1.0
0 -8.790537 2.737263 0.000000 -0.650391 -0.017151 0.759277 0.608398 0.046600 1 0 1.0
Default
0 -5.097735 -1.957429 0.707262 -0.418945 -0.391602 0.819336 0.608398 0.046600 1 0 1.0
0 -7.779082 1.171740 0.831433 -0.418945 -0.391602 0.819336 0.608398 0.046600 1 0 1.0
0 -8.730251 0.450164 0.000000 -0.418945 -0.391602 0.819336 0.608398 0.046600 1 0 1.0
Default
0 -1.528265 -3.500613 0.831435 -0.324219 -0.698242 0.638184 0.608398 0.018280 1 0 1.0
0 -5.097735 -1.957429 0.707262 -0.324219 -0.698242 0.638184 0.608398 0.018280 1 0 1.0
0 -3.906624 -3.156467 0.000000 -0.324219 -0.698242 0.638184 0.608398 0.018280 1 0 1.0
Default
0 0.509076 -4.286781 0.000000 -0.236938 -0.925781 0.294678 0.608398 0.018280 1 0 1.0
0 -1.528265 -3.500613 0.831435 -0.236938 -0.925781 0.294678 0.608398 0.018280 1 0 1.0
0 -3.906624 -3.156467 0.000000 -0.236938 -0.925781 0.294678 0.608398 0.018280 1 0 1.0
Default
0 2.993006 -4.112675 0.707262 -0.097534 -0.831543 0.547363 0.608398 0.018280 1 0 1.0
0 -1.528265 -3.500613 0.831435 -0.097534 -0.831543 0.547363 0.608398 0.018280 1 0 1.0
0 0.509076 -4.286781 0.000000 -0.097534 -0.831543 0.547363 0.608398 0.018280 1 0 1.0
Default
0 6.530370 -2.344735 0.831433 0.277588 -0.607422 0.744141 0.608398 0.018280 1 0 1.0
0 2.993006 -4.112675 0.707262 0.277588 -0.607422 0.744141 0.608398 0.018280 1 0 1.0
0 5.699254 -3.742558 0.000000 0.277588 -0.607422 0.744141 0.608398 0.018280 1 0 1.0
Default
0 8.790537 -1.331343 0.000000 0.501465 -0.642578 0.579590 0.608398 0.018280 1 0 1.0
0 6.530370 -2.344735 0.831433 0.501465 -0.642578 0.579590 0.608398 0.018280 1 0 1.0
0 5.699254 -3.742558 0.000000 0.501465 -0.642578 0.579590 0.608398 0.018280 1 0 1.0
Default
0 7.476582 0.424925 0.707256 0.378418 -0.087952 0.921387 0.608398 0.018280 1 0 1.0
0 6.530370 -2.344735 0.831433 0.378418 -0.087952 0.921387 0.608398 0.018280 1 0 1.0
0 8.790537 -1.331343 0.000000 0.378418 -0.087952 0.921387 0.608398 0.018280 1 0 1.0
Default
0 -0.659087 4.286781 0.000000 0.075684 0.936523 0.342529 0.608398 0.018280 1 0 1.0
0 1.794793 3.829730 0.707262 0.075684 0.936523 0.342529 0.608398 0.018280 1 0 1.0
0 4.346193 3.882103 0.000000 0.075684 0.936523 0.342529 0.608398 0.018280 1 0 1.0
Default
0 -2.953540 3.829730 -0.707263 0.020798 0.807617 -0.589355 0.608398 0.018280 1 0 1.0
0 -0.659087 4.286781 0.000000 0.020798 0.807617 -0.589355 0.608398 0.018280 1 0 1.0
0 1.678664 3.619798 -0.831436 0.020798 0.807617 -0.589355 0.608398 0.018280 1 0 1.0
Default
0 -8.790537 2.737263 0.000000 -0.336670 0.921875 0.192749 0.608398 0.018280 1 0 1.0
0 -6.813629 3.311731 0.707262 -0.336670 0.921875 0.192749 0.608398 0.018280 1 0 1.0
0 -5.657389 3.882103 0.000000 -0.336670 0.921875 0.192749 0.608398 0.018280 1 0 1.0
Default
0 -6.509392 3.182012 -0.831434 -0.314209 0.859863 -0.402100 0.608398 0.018280 1 0 1.0
0 -8.790537 2.737263 0.000000 -0.314209 0.859863 -0.402100 0.608398 0.018280 1 0 1.0
0 -5.657389 3.882103 0.000000 -0.314209 0.859863 -0.402100 0.608398 0.018280 1 0 1.0
Default
0 -7.782796 1.171740 -0.707256 -0.367188 0.176147 -0.913086 0.608398 0.018280 1 0 1.0
0 -8.790537 2.737263 0.000000 -0.367188 0.176147 -0.913086 0.608398 0.018280 1 0 1.0
0 -6.509392 3.182012 -0.831434 -0.367188 0.176147 -0.913086 0.608398 0.018280 1 0 1.0
Default
0 -3.906624 -3.156467 0.000000 -0.565430 -0.755859 0.329834 0.608398 0.018280 1 0 1.0
0 -5.097735 -1.957429 0.707262 -0.565430 -0.755859 0.329834 0.608398 0.018280 1 0 1.0
0 -8.730251 0.450164 0.000000 -0.565430 -0.755859 0.329834 0.608398 0.018280 1 0 1.0
Default
0 -4.793497 -1.827710 -0.831434 -0.503906 -0.674316 -0.539551 0.608398 0.018280 1 0 1.0
0 -3.906624 -3.156467 0.000000 -0.503906 -0.674316 -0.539551 0.608398 0.018280 1 0 1.0
0 -8.730251 0.450164 0.000000 -0.503906 -0.674316 -0.539551 0.608398 0.018280 1 0 1.0
Default
0 -1.644395 -3.710544 -0.707263 -0.366943 -0.656738 -0.658691 0.608398 0.018280 1 0 1.0
0 -3.906624 -3.156467 0.000000 -0.366943 -0.656738 -0.658691 0.608398 0.018280 1 0 1.0
0 -4.793497 -1.827710 -0.831434 -0.366943 -0.656738 -0.658691 0.608398 0.018280 1 0 1.0
Default
0 6.834609 -2.474454 -0.707262 0.251465 -0.633301 -0.731934 0.608398 0.018280 1 0 1.0
0 5.699254 -3.742558 0.000000 0.251465 -0.633301 -0.731934 0.608398 0.018280 1 0 1.0
0 2.876877 -3.902744 -0.831436 0.251465 -0.633301 -0.731934 0.608398 0.018280 1 0 1.0
Default
0 7.395612 2.737263 0.000000 0.685059 0.234863 0.689453 0.608398 0.018280 1 0 1.0
0 7.476582 0.424925 0.707256 0.685059 0.234863 0.689453 0.608398 0.018280 1 0 1.0
0 8.790537 -1.331343 0.000000 0.685059 0.234863 0.689453 0.608398 0.018280 1 0 1.0
Default
0 7.100527 0.424925 -0.831433 0.594727 0.203857 -0.777832 0.608398 0.018280 1 0 1.0
0 7.395612 2.737263 0.000000 0.594727 0.203857 -0.777832 0.608398 0.018280 1 0 1.0
0 8.790537 -1.331343 0.000000 0.594727 0.203857 -0.777832 0.608398 0.018280 1 0 1.0
Default
0 5.617908 3.311731 -0.707262 0.427734 0.257080 -0.866699 0.608398 0.018280 1 0 1.0
0 7.395612 2.737263 0.000000 0.427734 0.257080 -0.866699 0.608398 0.018280 1 0 1.0
0 7.100527 0.424925 -0.831433 0.427734 0.257080 -0.866699 0.608398 0.018280 1 0 1.0
Default
0 -2.953540 3.829730 -0.707263 0.026047 0.868164 -0.495850 0.608398 0.018280 1 0 1.0
0 1.678664 3.619798 -0.831436 0.026047 0.868164 -0.495850 0.608398 0.018280 1 0 1.0
0 -2.259914 3.444495 -1.345280 0.026047 0.868164 -0.495850 0.608398 0.018280 1 0 1.0
Default
0 -6.509392 3.182012 -0.831434 -0.121887 0.785645 -0.606934 0.608398 0.018280 1 0 1.0
0 -2.953540 3.829730 -0.707263 -0.121887 0.785645 -0.606934 0.608398 0.018280 1 0 1.0
0 -2.259914 3.444495 -1.345280 -0.121887 0.785645 -0.606934 0.608398 0.018280 1 0 1.0
Default
0 -5.454389 0.619128 -1.345276 -0.127563 0.144287 -0.981445 0.608398 0.018280 1 0 1.0
0 -6.509392 3.182012 -0.831434 -0.127563 0.144287 -0.981445 0.608398 0.018280 1 0 1.0
0 -2.259914 3.444495 -1.345280 -0.127563 0.144287 -0.981445 0.608398 0.018280 1 0 1.0
Default
0 -7.782796 1.171740 -0.707256 -0.242310 0.093872 -0.965820 0.608398 0.018280 1 0 1.0
0 -6.509392 3.182012 -0.831434 -0.242310 0.093872 -0.965820 0.608398 0.018280 1 0 1.0
0 -5.454389 0.619128 -1.345276 -0.242310 0.093872 -0.965820 0.608398 0.018280 1 0 1.0
Default
0 -4.793497 -1.827710 -0.831434 -0.314453 -0.275635 -0.908203 0.608398 0.018280 1 0 1.0
0 -7.782796 1.171740 -0.707256 -0.314453 -0.275635 -0.908203 0.608398 0.018280 1 0 1.0
0 -5.454389 0.619128 -1.345276 -0.314453 -0.275635 -0.908203 0.608398 0.018280 1 0 1.0
Default
0 -0.756841 -2.157189 -1.345280 -0.141846 -0.239990 -0.960449 0.608398 0.018280 1 0 1.0
0 -4.793497 -1.827710 -0.831434 -0.141846 -0.239990 -0.960449 0.608398 0.018280 1 0 1.0
0 -5.454389 0.619128 -1.345276 -0.141846 -0.239990 -0.960449 0.608398 0.018280 1 0 1.0
Default
0 -1.644395 -3.710544 -0.707263 -0.144653 -0.304199 -0.941406 0.608398 0.018280 1 0 1.0
0 -4.793497 -1.827710 -0.831434 -0.144653 -0.304199 -0.941406 0.608398 0.018280 1 0 1.0
0 -0.756841 -2.157189 -1.345280 -0.144653 -0.304199 -0.941406 0.608398 0.018280 1 0 1.0
Default
0 3.438837 2.950118 -1.345280 0.250732 0.169800 -0.953125 0.608398 0.018280 1 0 1.0
0 5.617908 3.311731 -0.707262 0.250732 0.169800 -0.953125 0.608398 0.018280 1 0 1.0
0 7.100527 0.424925 -0.831433 0.250732 0.169800 -0.953125 0.608398 0.018280 1 0 1.0
Default
0 4.833762 -1.544198 -1.345280 0.175537 0.054474 -0.982910 0.608398 0.018280 1 0 1.0
0 3.438837 2.950118 -1.345280 0.175537 0.054474 -0.982910 0.608398 0.018280 1 0 1.0
0 7.100527 0.424925 -0.831433 0.175537 0.054474 -0.982910 0.608398 0.018280 1 0 1.0
Default
0 -0.341621 0.619128 -1.581465 0.052368 0.016251 -0.998535 0.608398 0.018280 1 0 1.0
0 3.438837 2.950118 -1.345280 0.052368 0.016251 -0.998535 0.608398 0.018280 1 0 1.0
0 4.833762 -1.544198 -1.345280 0.052368 0.016251 -0.998535 0.608398 0.018280 1 0 1.0
Default
0 2.876877 -3.902744 -0.831436 -0.040894 -0.359619 -0.932129 0.608398 0.018280 1 0 1.0
0 -1.644395 -3.710544 -0.707263 -0.040894 -0.359619 -0.932129 0.608398 0.018280 1 0 1.0
0 -0.756841 -2.157189 -1.345280 -0.040894 -0.359619 -0.932129 0.608398 0.018280 1 0 1.0
Default
0 4.833762 -1.544198 -1.345280 0.025543 -0.233032 -0.972168 0.608398 0.018280 1 0 1.0
0 2.876877 -3.902744 -0.831436 0.025543 -0.233032 -0.972168 0.608398 0.018280 1 0 1.0
0 -0.756841 -2.157189 -1.345280 0.025543 -0.233032 -0.972168 0.608398 0.018280 1 0 1.0
Default
0 6.834609 -2.474454 -0.707262 0.146729 -0.325195 -0.934082 0.608398 0.018280 1 0 1.0
0 2.876877 -3.902744 -0.831436 0.146729 -0.325195 -0.934082 0.608398 0.018280 1 0 1.0
0 4.833762 -1.544198 -1.345280 0.146729 -0.325195 -0.934082 0.608398 0.018280 1 0 1.0
Default
0 1.678664 3.619798 -0.831436 0.076294 0.854004 -0.514160 0.608398 0.018280 1 0 1.0
0 4.346193 3.882103 0.000000 0.076294 0.854004 -0.514160 0.608398 0.018280 1 0 1.0
0 5.617908 3.311731 -0.707262 0.082703 0.843262 -0.531250 0.608398 0.018280 1 0 1.0
Default
0 1.678664 3.619798 -0.831436 0.076294 0.854004 -0.514160 0.608398 0.018280 1 0 1.0
0 -0.659087 4.286781 0.000000 0.069946 0.864746 -0.497070 0.608398 0.018280 1 0 1.0
0 4.346193 3.882103 0.000000 0.076294 0.854004 -0.514160 0.608398 0.018280 1 0 1.0
Default
0 -2.837410 3.619798 0.831435 -0.070068 0.730469 0.679688 0.608398 0.046600 1 0 1.0
0 -4.833762 2.950118 1.345280 -0.070068 0.730469 0.679688 0.608398 0.046600 1 0 1.0
0 0.899876 3.444495 1.345280 -0.061829 0.716797 0.694336 0.608398 0.046600 1 0 1.0
Default
0 -6.813629 3.311731 0.707262 -0.078308 0.743164 0.664551 0.608398 0.046600 1 0 1.0
0 -4.833762 2.950118 1.345280 -0.070068 0.730469 0.679688 0.608398 0.046600 1 0 1.0
0 -2.837410 3.619798 0.831435 -0.070068 0.730469 0.679688 0.608398 0.046600 1 0 1.0
Default
0 -5.657389 3.882103 0.000000 -0.075684 0.848145 0.524414 0.608398 0.018280 1 0 1.0
0 -2.837410 3.619798 0.831435 -0.075684 0.848145 0.524414 0.608398 0.018280 1 0 1.0
0 -0.659087 4.286781 0.000000 -0.069580 0.859375 0.506836 0.608398 0.018280 1 0 1.0
Default
0 -6.813629 3.311731 0.707262 -0.081726 0.836914 0.541504 0.608398 0.018280 1 0 1.0
0 -2.837410 3.619798 0.831435 -0.075684 0.848145 0.524414 0.608398 0.018280 1 0 1.0
0 -5.657389 3.882103 0.000000 -0.075684 0.848145 0.524414 0.608398 0.018280 1 0 1.0
Default
0 5.699254 -3.742558 0.000000 0.103271 -0.984863 -0.140503 0.608398 0.018280 1 0 1.0
0 2.993006 -4.112675 0.707262 0.103516 -0.987305 -0.120544 0.608398 0.018280 1 0 1.0
0 0.509076 -4.286781 0.000000 0.103271 -0.984863 -0.140503 0.608398 0.018280 1 0 1.0
Default
0 2.876877 -3.902744 -0.831436 0.102966 -0.981445 -0.160278 0.608398 0.018280 1 0 1.0
0 5.699254 -3.742558 0.000000 0.103271 -0.984863 -0.140503 0.608398 0.018280 1 0 1.0
0 0.509076 -4.286781 0.000000 0.103271 -0.984863 -0.140503 0.608398 0.018280 1 0 1.0
Default
0 1.678664 3.619798 -0.831436 0.069763 0.716309 -0.694336 0.608398 0.018280 1 0 1.0
0 5.617908 3.311731 -0.707262 0.078430 0.728516 -0.680664 0.608398 0.018280 1 0 1.0
0 3.438837 2.950118 -1.345280 0.069763 0.716309 -0.694336 0.608398 0.018280 1 0 1.0
Default
0 -2.259914 3.444495 -1.345280 0.061035 0.703613 -0.708008 0.608398 0.018280 1 0 1.0
0 1.678664 3.619798 -0.831436 0.069763 0.716309 -0.694336 0.608398 0.018280 1 0 1.0
0 3.438837 2.950118 -1.345280 0.069763 0.716309 -0.694336 0.608398 0.018280 1 0 1.0
end
