version 1
nodes
0 "root" -1
end
skeleton
time 0
0 0 0 0 0 0 0
end
triangles
phy
0 -12.8034 -4.5000 -4.5000 0 0 1 0 0 1 0 1.0
0 12.8034 -4.5000 -4.5000 0 0 1 0 0 1 0 1.0
0 12.8034 4.5000 -4.5000 0 0 1 0 0 1 0 1.0
phy
0 -12.8034 -4.5000 -4.5000 0 0 1 0 0 1 0 1.0
0 12.8034 4.5000 -4.5000 0 0 1 0 0 1 0 1.0
0 -12.8034 4.5000 -4.5000 0 0 1 0 0 1 0 1.0
phy
0 -12.8034 -4.5000 4.5000 0 0 1 0 0 1 0 1.0
0 -12.8034 4.5000 4.5000 0 0 1 0 0 1 0 1.0
0 12.8034 4.5000 4.5000 0 0 1 0 0 1 0 1.0
phy
0 -12.8034 -4.5000 4.5000 0 0 1 0 0 1 0 1.0
0 12.8034 4.5000 4.5000 0 0 1 0 0 1 0 1.0
0 12.8034 -4.5000 4.5000 0 0 1 0 0 1 0 1.0
phy
0 -12.8034 -4.5000 -4.5000 0 0 1 0 0 1 0 1.0
0 -12.8034 -4.5000 4.5000 0 0 1 0 0 1 0 1.0
0 12.8034 -4.5000 4.5000 0 0 1 0 0 1 0 1.0
phy
0 -12.8034 -4.5000 -4.5000 0 0 1 0 0 1 0 1.0
0 12.8034 -4.5000 4.5000 0 0 1 0 0 1 0 1.0
0 12.8034 -4.5000 -4.5000 0 0 1 0 0 1 0 1.0
phy
0 12.8034 4.5000 -4.5000 0 0 1 0 0 1 0 1.0
0 12.8034 4.5000 4.5000 0 0 1 0 0 1 0 1.0
0 -12.8034 4.5000 4.5000 0 0 1 0 0 1 0 1.0
phy
0 12.8034 4.5000 -4.5000 0 0 1 0 0 1 0 1.0
0 -12.8034 4.5000 4.5000 0 0 1 0 0 1 0 1.0
0 -12.8034 4.5000 -4.5000 0 0 1 0 0 1 0 1.0
phy
0 -12.8034 -4.5000 -4.5000 0 0 1 0 0 1 0 1.0
0 -12.8034 4.5000 -4.5000 0 0 1 0 0 1 0 1.0
0 -12.8034 4.5000 4.5000 0 0 1 0 0 1 0 1.0
phy
0 -12.8034 -4.5000 -4.5000 0 0 1 0 0 1 0 1.0
0 -12.8034 4.5000 4.5000 0 0 1 0 0 1 0 1.0
0 -12.8034 -4.5000 4.5000 0 0 1 0 0 1 0 1.0
phy
0 12.8034 -4.5000 -4.5000 0 0 1 0 0 1 0 1.0
0 12.8034 -4.5000 4.5000 0 0 1 0 0 1 0 1.0
0 12.8034 4.5000 4.5000 0 0 1 0 0 1 0 1.0
phy
0 12.8034 -4.5000 -4.5000 0 0 1 0 0 1 0 1.0
0 12.8034 4.5000 4.5000 0 0 1 0 0 1 0 1.0
0 12.8034 4.5000 -4.5000 0 0 1 0 0 1 0 1.0
end
