version 1
nodes
0 "root" -1
end
skeleton
time 0
0 0 0 0 0 0 0
end
triangles
phy
0 -8.6561 -8.2402 -8.1065 0 0 1 0 0 1 0 1.0
0 8.6561 -8.2402 -8.1065 0 0 1 0 0 1 0 1.0
0 8.6561 8.2402 -8.1065 0 0 1 0 0 1 0 1.0
phy
0 -8.6561 -8.2402 -8.1065 0 0 1 0 0 1 0 1.0
0 8.6561 8.2402 -8.1065 0 0 1 0 0 1 0 1.0
0 -8.6561 8.2402 -8.1065 0 0 1 0 0 1 0 1.0
phy
0 -8.6561 -8.2402 8.1065 0 0 1 0 0 1 0 1.0
0 -8.6561 8.2402 8.1065 0 0 1 0 0 1 0 1.0
0 8.6561 8.2402 8.1065 0 0 1 0 0 1 0 1.0
phy
0 -8.6561 -8.2402 8.1065 0 0 1 0 0 1 0 1.0
0 8.6561 8.2402 8.1065 0 0 1 0 0 1 0 1.0
0 8.6561 -8.2402 8.1065 0 0 1 0 0 1 0 1.0
phy
0 -8.6561 -8.2402 -8.1065 0 0 1 0 0 1 0 1.0
0 -8.6561 -8.2402 8.1065 0 0 1 0 0 1 0 1.0
0 8.6561 -8.2402 8.1065 0 0 1 0 0 1 0 1.0
phy
0 -8.6561 -8.2402 -8.1065 0 0 1 0 0 1 0 1.0
0 8.6561 -8.2402 8.1065 0 0 1 0 0 1 0 1.0
0 8.6561 -8.2402 -8.1065 0 0 1 0 0 1 0 1.0
phy
0 8.6561 8.2402 -8.1065 0 0 1 0 0 1 0 1.0
0 8.6561 8.2402 8.1065 0 0 1 0 0 1 0 1.0
0 -8.6561 8.2402 8.1065 0 0 1 0 0 1 0 1.0
phy
0 8.6561 8.2402 -8.1065 0 0 1 0 0 1 0 1.0
0 -8.6561 8.2402 8.1065 0 0 1 0 0 1 0 1.0
0 -8.6561 8.2402 -8.1065 0 0 1 0 0 1 0 1.0
phy
0 -8.6561 -8.2402 -8.1065 0 0 1 0 0 1 0 1.0
0 -8.6561 8.2402 -8.1065 0 0 1 0 0 1 0 1.0
0 -8.6561 8.2402 8.1065 0 0 1 0 0 1 0 1.0
phy
0 -8.6561 -8.2402 -8.1065 0 0 1 0 0 1 0 1.0
0 -8.6561 8.2402 8.1065 0 0 1 0 0 1 0 1.0
0 -8.6561 -8.2402 8.1065 0 0 1 0 0 1 0 1.0
phy
0 8.6561 -8.2402 -8.1065 0 0 1 0 0 1 0 1.0
0 8.6561 -8.2402 8.1065 0 0 1 0 0 1 0 1.0
0 8.6561 8.2402 8.1065 0 0 1 0 0 1 0 1.0
phy
0 8.6561 -8.2402 -8.1065 0 0 1 0 0 1 0 1.0
0 8.6561 8.2402 8.1065 0 0 1 0 0 1 0 1.0
0 8.6561 8.2402 -8.1065 0 0 1 0 0 1 0 1.0
end
