version 1
nodes
0 "root" -1
end
skeleton
time 0
0 0 0 0 0 0 0
end
triangles
phy
0 -17.0268 -4.5000 -12.9694 0 0 1 0 0 1 0 1.0
0 17.0268 -4.5000 -12.9694 0 0 1 0 0 1 0 1.0
0 17.0268 4.5000 -12.9694 0 0 1 0 0 1 0 1.0
phy
0 -17.0268 -4.5000 -12.9694 0 0 1 0 0 1 0 1.0
0 17.0268 4.5000 -12.9694 0 0 1 0 0 1 0 1.0
0 -17.0268 4.5000 -12.9694 0 0 1 0 0 1 0 1.0
phy
0 -17.0268 -4.5000 12.9694 0 0 1 0 0 1 0 1.0
0 -17.0268 4.5000 12.9694 0 0 1 0 0 1 0 1.0
0 17.0268 4.5000 12.9694 0 0 1 0 0 1 0 1.0
phy
0 -17.0268 -4.5000 12.9694 0 0 1 0 0 1 0 1.0
0 17.0268 4.5000 12.9694 0 0 1 0 0 1 0 1.0
0 17.0268 -4.5000 12.9694 0 0 1 0 0 1 0 1.0
phy
0 -17.0268 -4.5000 -12.9694 0 0 1 0 0 1 0 1.0
0 -17.0268 -4.5000 12.9694 0 0 1 0 0 1 0 1.0
0 17.0268 -4.5000 12.9694 0 0 1 0 0 1 0 1.0
phy
0 -17.0268 -4.5000 -12.9694 0 0 1 0 0 1 0 1.0
0 17.0268 -4.5000 12.9694 0 0 1 0 0 1 0 1.0
0 17.0268 -4.5000 -12.9694 0 0 1 0 0 1 0 1.0
phy
0 17.0268 4.5000 -12.9694 0 0 1 0 0 1 0 1.0
0 17.0268 4.5000 12.9694 0 0 1 0 0 1 0 1.0
0 -17.0268 4.5000 12.9694 0 0 1 0 0 1 0 1.0
phy
0 17.0268 4.5000 -12.9694 0 0 1 0 0 1 0 1.0
0 -17.0268 4.5000 12.9694 0 0 1 0 0 1 0 1.0
0 -17.0268 4.5000 -12.9694 0 0 1 0 0 1 0 1.0
phy
0 -17.0268 -4.5000 -12.9694 0 0 1 0 0 1 0 1.0
0 -17.0268 4.5000 -12.9694 0 0 1 0 0 1 0 1.0
0 -17.0268 4.5000 12.9694 0 0 1 0 0 1 0 1.0
phy
0 -17.0268 -4.5000 -12.9694 0 0 1 0 0 1 0 1.0
0 -17.0268 4.5000 12.9694 0 0 1 0 0 1 0 1.0
0 -17.0268 -4.5000 12.9694 0 0 1 0 0 1 0 1.0
phy
0 17.0268 -4.5000 -12.9694 0 0 1 0 0 1 0 1.0
0 17.0268 -4.5000 12.9694 0 0 1 0 0 1 0 1.0
0 17.0268 4.5000 12.9694 0 0 1 0 0 1 0 1.0
phy
0 17.0268 -4.5000 -12.9694 0 0 1 0 0 1 0 1.0
0 17.0268 4.5000 12.9694 0 0 1 0 0 1 0 1.0
0 17.0268 4.5000 -12.9694 0 0 1 0 0 1 0 1.0
end
