version 1
nodes
0 "root" -1
end
skeleton
time 0
0 0 0 0 0 0 0
end
triangles
phy
0 -13.3751 -5.1083 -13.5239 0 0 1 0 0 1 0 1.0
0 13.3751 -5.1083 -13.5239 0 0 1 0 0 1 0 1.0
0 13.3751 5.1083 -13.5239 0 0 1 0 0 1 0 1.0
phy
0 -13.3751 -5.1083 -13.5239 0 0 1 0 0 1 0 1.0
0 13.3751 5.1083 -13.5239 0 0 1 0 0 1 0 1.0
0 -13.3751 5.1083 -13.5239 0 0 1 0 0 1 0 1.0
phy
0 -13.3751 -5.1083 13.5239 0 0 1 0 0 1 0 1.0
0 -13.3751 5.1083 13.5239 0 0 1 0 0 1 0 1.0
0 13.3751 5.1083 13.5239 0 0 1 0 0 1 0 1.0
phy
0 -13.3751 -5.1083 13.5239 0 0 1 0 0 1 0 1.0
0 13.3751 5.1083 13.5239 0 0 1 0 0 1 0 1.0
0 13.3751 -5.1083 13.5239 0 0 1 0 0 1 0 1.0
phy
0 -13.3751 -5.1083 -13.5239 0 0 1 0 0 1 0 1.0
0 -13.3751 -5.1083 13.5239 0 0 1 0 0 1 0 1.0
0 13.3751 -5.1083 13.5239 0 0 1 0 0 1 0 1.0
phy
0 -13.3751 -5.1083 -13.5239 0 0 1 0 0 1 0 1.0
0 13.3751 -5.1083 13.5239 0 0 1 0 0 1 0 1.0
0 13.3751 -5.1083 -13.5239 0 0 1 0 0 1 0 1.0
phy
0 13.3751 5.1083 -13.5239 0 0 1 0 0 1 0 1.0
0 13.3751 5.1083 13.5239 0 0 1 0 0 1 0 1.0
0 -13.3751 5.1083 13.5239 0 0 1 0 0 1 0 1.0
phy
0 13.3751 5.1083 -13.5239 0 0 1 0 0 1 0 1.0
0 -13.3751 5.1083 13.5239 0 0 1 0 0 1 0 1.0
0 -13.3751 5.1083 -13.5239 0 0 1 0 0 1 0 1.0
phy
0 -13.3751 -5.1083 -13.5239 0 0 1 0 0 1 0 1.0
0 -13.3751 5.1083 -13.5239 0 0 1 0 0 1 0 1.0
0 -13.3751 5.1083 13.5239 0 0 1 0 0 1 0 1.0
phy
0 -13.3751 -5.1083 -13.5239 0 0 1 0 0 1 0 1.0
0 -13.3751 5.1083 13.5239 0 0 1 0 0 1 0 1.0
0 -13.3751 -5.1083 13.5239 0 0 1 0 0 1 0 1.0
phy
0 13.3751 -5.1083 -13.5239 0 0 1 0 0 1 0 1.0
0 13.3751 -5.1083 13.5239 0 0 1 0 0 1 0 1.0
0 13.3751 5.1083 13.5239 0 0 1 0 0 1 0 1.0
phy
0 13.3751 -5.1083 -13.5239 0 0 1 0 0 1 0 1.0
0 13.3751 5.1083 13.5239 0 0 1 0 0 1 0 1.0
0 13.3751 5.1083 -13.5239 0 0 1 0 0 1 0 1.0
end
