version 1
nodes
0 "root" -1
end
skeleton
time 0
0 0 0 0 0 0 0
end
triangles
Default
0 0.431943 -0.743541 0.077512 0.030991 -0.830566 -0.555664 0.102844 0.953125 1 0 1.0
0 0.674487 0.000000 -1.020594 0.030991 -0.830566 -0.555664 0.102844 0.953125 1 0 1.0
0 2.761970 0.000000 -0.904178 0.041931 -0.810059 -0.584961 0.102844 0.953125 1 0 1.0
Default
0 2.711001 -0.743541 -0.019156 0.041931 -0.810059 -0.584961 0.102844 0.953125 1 0 1.0
0 2.761970 0.000000 -0.904178 0.041931 -0.810059 -0.584961 0.102844 0.953125 1 0 1.0
0 4.654343 0.000000 -0.909317 0.041931 -0.810059 -0.584961 0.102844 0.953125 1 0 1.0
Default
0 4.654343 -0.466547 -0.122614 0.041931 -0.810059 -0.584961 0.102844 0.953125 1 0 1.0
0 2.711001 -0.743541 -0.019156 0.041931 -0.810059 -0.584961 0.102844 0.953125 1 0 1.0
0 4.654343 0.000000 -0.909317 0.041931 -0.810059 -0.584961 0.102844 0.953125 1 0 1.0
Default
0 2.761970 0.000000 -0.904178 -0.027313 -0.764648 -0.644043 0.102844 0.953125 1 0 1.0
0 2.711001 -0.743541 -0.019156 -0.027313 -0.764648 -0.644043 0.102844 0.953125 1 0 1.0
0 0.431943 -0.743541 0.077512 -0.027313 -0.764648 -0.644043 0.102844 0.953125 1 0 1.0
Default
0 4.412709 0.000000 -0.493566 -0.849609 -0.498535 -0.172363 0.982910 0.519531 1 0 1.0
0 4.671646 -0.599180 -0.037095 -0.849609 -0.498535 -0.172363 0.982910 0.519531 1 0 1.0
0 4.296241 0.000000 0.080379 -0.849609 -0.498535 -0.172363 0.982910 0.519531 1 0 1.0
Default
0 4.671646 -0.599180 -0.037095 -0.518066 -0.465332 0.717773 0.982910 0.519531 1 0 1.0
0 4.661787 0.000000 0.344334 -0.518066 -0.465332 0.717773 0.982910 0.519531 1 0 1.0
0 4.296241 0.000000 0.080379 -0.518066 -0.465332 0.717773 0.982910 0.519531 1 0 1.0
Default
0 4.412709 0.000000 -0.493566 -0.243286 -0.652344 -0.717773 0.982910 0.519531 1 0 1.0
0 5.134982 -0.269608 -0.493424 -0.243286 -0.652344 -0.717773 0.982910 0.519531 1 0 1.0
0 4.671646 -0.599180 -0.037095 -0.243286 -0.652344 -0.717773 0.982910 0.519531 1 0 1.0
Default
0 4.671646 -0.599180 -0.037095 0.117432 -0.531738 0.838379 0.982910 0.519531 1 0 1.0
0 5.324587 -0.302168 0.059839 0.117432 -0.531738 0.838379 0.982910 0.519531 1 0 1.0
0 4.661787 0.000000 0.344334 0.117432 -0.531738 0.838379 0.982910 0.519531 1 0 1.0
Default
0 4.886923 0.000000 -0.622553 -0.214600 -0.575684 -0.789062 0.982910 0.519531 1 0 1.0
0 5.134982 -0.269608 -0.493424 -0.214600 -0.575684 -0.789062 0.982910 0.519531 1 0 1.0
0 4.412709 0.000000 -0.493566 -0.214600 -0.575684 -0.789062 0.982910 0.519531 1 0 1.0
Default
0 5.134982 -0.269608 -0.493424 0.430176 -0.880371 -0.199219 0.982910 0.519531 1 0 1.0
0 5.324587 -0.302168 0.059839 0.430176 -0.880371 -0.199219 0.982910 0.519531 1 0 1.0
0 4.671646 -0.599180 -0.037095 0.430176 -0.880371 -0.199219 0.982910 0.519531 1 0 1.0
Default
0 5.324587 -0.302168 0.059839 0.375000 -0.048859 0.925781 0.982910 0.519531 1 0 1.0
0 5.202603 0.000000 0.125212 0.375000 -0.048859 0.925781 0.982910 0.519531 1 0 1.0
0 4.661787 0.000000 0.344334 0.375000 -0.048859 0.925781 0.982910 0.519531 1 0 1.0
Default
0 4.886923 0.000000 -0.622553 0.587402 0.160522 -0.793457 0.982910 0.519531 1 0 1.0
0 5.261948 0.000000 -0.344854 0.587402 0.160522 -0.793457 0.982910 0.519531 1 0 1.0
0 5.134982 -0.269608 -0.493424 0.587402 0.160522 -0.793457 0.982910 0.519531 1 0 1.0
Default
0 5.134982 -0.269608 -0.493424 0.911621 -0.249023 -0.327148 0.982910 0.519531 1 0 1.0
0 5.261948 0.000000 -0.344854 0.911621 -0.249023 -0.327148 0.982910 0.519531 1 0 1.0
0 5.324587 -0.302168 0.059839 0.911621 -0.249023 -0.327148 0.982910 0.519531 1 0 1.0
Default
0 5.324587 -0.302168 0.059839 0.929199 0.349854 0.117310 0.982910 0.519531 1 0 1.0
0 5.261948 0.000000 -0.344854 0.929199 0.349854 0.117310 0.982910 0.519531 1 0 1.0
0 5.202603 0.000000 0.125212 0.929199 0.349854 0.117310 0.982910 0.519531 1 0 1.0
Default
0 4.654343 0.000000 0.457909 0.309570 -0.741211 0.595703 0.102844 0.953125 1 0 1.0
0 4.654343 -0.466547 -0.122614 0.309570 -0.741211 0.595703 0.102844 0.953125 1 0 1.0
0 5.913710 0.000000 -0.196682 0.309570 -0.741211 0.595703 0.102844 0.953125 1 0 1.0
Default
0 4.654343 0.000000 -0.909317 0.277344 -0.826172 -0.489990 0.102844 0.953125 1 0 1.0
0 5.913710 0.000000 -0.196682 0.277344 -0.826172 -0.489990 0.102844 0.953125 1 0 1.0
0 4.654343 -0.466547 -0.122614 0.277344 -0.826172 -0.489990 0.102844 0.953125 1 0 1.0
Default
0 2.761970 0.000000 -0.904178 0.041931 0.810059 -0.584961 0.102844 0.953125 1 0 1.0
0 0.674487 0.000000 -1.020594 0.030991 0.830566 -0.555664 0.102844 0.953125 1 0 1.0
0 0.431943 0.743541 0.077512 0.030991 0.830566 -0.555664 0.102844 0.953125 1 0 1.0
Default
0 2.761970 0.000000 -0.904178 0.041931 0.810059 -0.584961 0.102844 0.953125 1 0 1.0
0 2.711001 0.743541 -0.019156 0.041931 0.810059 -0.584961 0.102844 0.953125 1 0 1.0
0 4.654343 0.000000 -0.909317 0.041931 0.810059 -0.584961 0.102844 0.953125 1 0 1.0
Default
0 2.711001 0.743541 -0.019156 0.041931 0.810059 -0.584961 0.102844 0.953125 1 0 1.0
0 4.654343 0.466547 -0.122614 0.041931 0.810059 -0.584961 0.102844 0.953125 1 0 1.0
0 4.654343 0.000000 -0.909317 0.041931 0.810059 -0.584961 0.102844 0.953125 1 0 1.0
Default
0 0.431943 0.743541 0.077512 -0.027313 0.764648 -0.644043 0.102844 0.953125 1 0 1.0
0 2.711001 0.743541 -0.019156 -0.027313 0.764648 -0.644043 0.102844 0.953125 1 0 1.0
0 2.761970 0.000000 -0.904178 -0.027313 0.764648 -0.644043 0.102844 0.953125 1 0 1.0
Default
0 4.671646 0.599180 -0.037095 -0.849609 0.498535 -0.172363 0.982910 0.519531 1 0 1.0
0 4.412709 0.000000 -0.493566 -0.849609 0.498535 -0.172363 0.982910 0.519531 1 0 1.0
0 4.296241 0.000000 0.080379 -0.849609 0.498535 -0.172363 0.982910 0.519531 1 0 1.0
Default
0 4.661787 0.000000 0.344334 -0.518066 0.465332 0.717773 0.982910 0.519531 1 0 1.0
0 4.671646 0.599180 -0.037095 -0.518066 0.465332 0.717773 0.982910 0.519531 1 0 1.0
0 4.296241 0.000000 0.080379 -0.518066 0.465332 0.717773 0.982910 0.519531 1 0 1.0
Default
0 5.134982 0.269608 -0.493424 -0.243286 0.652344 -0.717773 0.982910 0.519531 1 0 1.0
0 4.412709 0.000000 -0.493566 -0.243286 0.652344 -0.717773 0.982910 0.519531 1 0 1.0
0 4.671646 0.599180 -0.037095 -0.243286 0.652344 -0.717773 0.982910 0.519531 1 0 1.0
Default
0 5.324587 0.302168 0.059839 0.117432 0.531738 0.838379 0.982910 0.519531 1 0 1.0
0 4.671646 0.599180 -0.037095 0.117432 0.531738 0.838379 0.982910 0.519531 1 0 1.0
0 4.661787 0.000000 0.344334 0.117432 0.531738 0.838379 0.982910 0.519531 1 0 1.0
Default
0 5.134982 0.269608 -0.493424 -0.214600 0.575684 -0.789062 0.982910 0.519531 1 0 1.0
0 4.886923 0.000000 -0.622553 -0.214600 0.575684 -0.789062 0.982910 0.519531 1 0 1.0
0 4.412709 0.000000 -0.493566 -0.214600 0.575684 -0.789062 0.982910 0.519531 1 0 1.0
Default
0 5.324587 0.302168 0.059839 0.430176 0.880371 -0.199219 0.982910 0.519531 1 0 1.0
0 5.134982 0.269608 -0.493424 0.430176 0.880371 -0.199219 0.982910 0.519531 1 0 1.0
0 4.671646 0.599180 -0.037095 0.430176 0.880371 -0.199219 0.982910 0.519531 1 0 1.0
Default
0 5.202603 0.000000 0.125212 0.375000 0.048859 0.925781 0.982910 0.519531 1 0 1.0
0 5.324587 0.302168 0.059839 0.375000 0.048859 0.925781 0.982910 0.519531 1 0 1.0
0 4.661787 0.000000 0.344334 0.375000 0.048859 0.925781 0.982910 0.519531 1 0 1.0
Default
0 5.261948 0.000000 -0.344854 0.587402 -0.160522 -0.793457 0.982910 0.519531 1 0 1.0
0 4.886923 0.000000 -0.622553 0.587402 -0.160522 -0.793457 0.982910 0.519531 1 0 1.0
0 5.134982 0.269608 -0.493424 0.587402 -0.160522 -0.793457 0.982910 0.519531 1 0 1.0
Default
0 5.261948 0.000000 -0.344854 0.911621 0.249023 -0.327148 0.982910 0.519531 1 0 1.0
0 5.134982 0.269608 -0.493424 0.911621 0.249023 -0.327148 0.982910 0.519531 1 0 1.0
0 5.324587 0.302168 0.059839 0.911621 0.249023 -0.327148 0.982910 0.519531 1 0 1.0
Default
0 5.261948 0.000000 -0.344854 0.929199 -0.349854 0.117310 0.982910 0.519531 1 0 1.0
0 5.324587 0.302168 0.059839 0.929199 -0.349854 0.117310 0.982910 0.519531 1 0 1.0
0 5.202603 0.000000 0.125212 0.929199 -0.349854 0.117310 0.982910 0.519531 1 0 1.0
Default
0 4.654343 0.466547 -0.122614 0.309570 0.741211 0.595703 0.102844 0.953125 1 0 1.0
0 4.654343 0.000000 0.457909 0.309570 0.741211 0.595703 0.102844 0.953125 1 0 1.0
0 5.913710 0.000000 -0.196682 0.309570 0.741211 0.595703 0.102844 0.953125 1 0 1.0
Default
0 5.913710 0.000000 -0.196682 0.277344 0.826172 -0.489990 0.102844 0.953125 1 0 1.0
0 4.654343 0.000000 -0.909317 0.277344 0.826172 -0.489990 0.102844 0.953125 1 0 1.0
0 4.654343 0.466547 -0.122614 0.277344 0.826172 -0.489990 0.102844 0.953125 1 0 1.0
Default
0 -4.315866 0.000000 0.065252 -0.000000 -1.000000 0.000000 0.987305 0.764648 1 0 1.0
0 -4.274709 0.000000 0.482610 -0.000000 -1.000000 0.000000 0.987305 0.764648 1 0 1.0
0 -5.913710 0.000000 0.387931 -0.000000 -1.000000 0.000000 0.987305 0.764648 1 0 1.0
Default
0 -5.913710 0.000000 0.387931 -0.000000 -1.000000 0.000000 0.987305 0.764648 1 0 1.0
0 -5.547117 0.000000 -0.263346 -0.000000 -1.000000 0.000000 0.987305 0.764648 1 0 1.0
0 -4.315866 0.000000 0.065252 -0.000000 -1.000000 0.000000 0.987305 0.764648 1 0 1.0
Default
0 -4.151236 0.000000 -0.324256 -0.000000 -1.000000 0.000000 0.987305 0.764648 1 0 1.0
0 -4.315866 0.000000 0.065252 -0.000000 -1.000000 0.000000 0.987305 0.764648 1 0 1.0
0 -5.547117 0.000000 -0.263346 -0.000000 -1.000000 0.000000 0.987305 0.764648 1 0 1.0
Default
0 -5.651540 0.000000 -0.991576 -0.000000 -1.000000 0.000000 0.987305 0.764648 1 0 1.0
0 -4.151236 0.000000 -0.324256 -0.000000 -1.000000 0.000000 0.987305 0.764648 1 0 1.0
0 -5.547117 0.000000 -0.263346 -0.000000 -1.000000 0.000000 0.987305 0.764648 1 0 1.0
Default
0 -2.095650 -0.743541 0.180340 -0.049377 -0.687500 0.724609 0.102844 0.953125 1 0 1.0
0 0.431943 -0.743541 0.077512 -0.049377 -0.687500 0.724609 0.102844 0.953125 1 0 1.0
0 0.247597 0.000000 1.045462 -0.049377 -0.687500 0.724609 0.102844 0.953125 1 0 1.0
Default
0 -2.095650 0.000000 0.610694 -0.049377 -0.687500 0.724609 0.102844 0.953125 1 0 1.0
0 -2.095650 -0.743541 0.180340 -0.049377 -0.687500 0.724609 0.102844 0.953125 1 0 1.0
0 0.247597 0.000000 1.045462 -0.049377 -0.687500 0.724609 0.102844 0.953125 1 0 1.0
Default
0 0.431943 -0.743541 0.077512 0.039917 -0.773438 0.632324 0.102844 0.953125 1 0 1.0
0 2.711001 -0.743541 -0.019156 0.039917 -0.773438 0.632324 0.102844 0.953125 1 0 1.0
0 2.711001 0.000000 0.842895 0.039917 -0.773438 0.632324 0.102844 0.953125 1 0 1.0
Default
0 0.247597 0.000000 1.045462 0.039917 -0.773438 0.632324 0.102844 0.953125 1 0 1.0
0 0.431943 -0.743541 0.077512 0.039917 -0.773438 0.632324 0.102844 0.953125 1 0 1.0
0 2.711001 0.000000 0.842895 0.039917 -0.773438 0.632324 0.102844 0.953125 1 0 1.0
Default
0 -1.244475 0.000000 1.837089 -0.000000 -1.000000 0.000000 0.987305 0.764648 1 0 1.0
0 -1.399350 0.000000 0.933976 -0.000000 -1.000000 0.000000 0.987305 0.764648 1 0 1.0
0 -2.095650 0.000000 0.610694 -0.000000 -1.000000 0.000000 0.987305 0.764648 1 0 1.0
Default
0 0.247597 0.000000 1.045462 -0.000000 -1.000000 0.000000 0.987305 0.764648 1 0 1.0
0 -1.244475 0.000000 1.837089 -0.000000 -1.000000 0.000000 0.987305 0.764648 1 0 1.0
0 -2.095650 0.000000 0.610694 -0.000000 -1.000000 0.000000 0.987305 0.764648 1 0 1.0
Default
0 2.711001 -0.743541 -0.019156 0.134155 -0.759277 0.636719 0.102844 0.953125 1 0 1.0
0 4.654343 -0.466547 -0.122614 0.134155 -0.759277 0.636719 0.102844 0.953125 1 0 1.0
0 4.654343 0.000000 0.457909 0.134155 -0.759277 0.636719 0.102844 0.953125 1 0 1.0
Default
0 2.711001 0.000000 0.842895 0.134155 -0.759277 0.636719 0.102844 0.953125 1 0 1.0
0 2.711001 -0.743541 -0.019156 0.134155 -0.759277 0.636719 0.102844 0.953125 1 0 1.0
0 4.654343 0.000000 0.457909 0.134155 -0.759277 0.636719 0.102844 0.953125 1 0 1.0
Default
0 -2.095650 -0.743541 0.180340 -0.111633 -0.708984 -0.696289 0.102844 0.953125 1 0 1.0
0 -2.095650 0.000000 -0.274304 -0.111633 -0.708984 -0.696289 0.102844 0.953125 1 0 1.0
0 0.674487 0.000000 -1.020594 -0.111633 -0.708984 -0.696289 0.102844 0.953125 1 0 1.0
Default
0 0.431943 -0.743541 0.077512 -0.111633 -0.708984 -0.696289 0.102844 0.953125 1 0 1.0
0 -2.095650 -0.743541 0.180340 -0.111633 -0.708984 -0.696289 0.102844 0.953125 1 0 1.0
0 0.674487 0.000000 -1.020594 -0.111633 -0.708984 -0.696289 0.102844 0.953125 1 0 1.0
Default
0 -4.151236 0.000000 -0.324256 -0.303955 -0.771484 -0.558594 0.102844 0.953125 1 0 1.0
0 -3.623510 0.000000 -0.311432 -0.303955 -0.771484 -0.558594 0.102844 0.953125 1 0 1.0
0 -3.738640 -0.442580 0.062599 -0.303955 -0.771484 -0.558594 0.102844 0.953125 1 0 1.0
Default
0 -4.315866 0.000000 0.065252 -0.303955 -0.771484 -0.558594 0.102844 0.953125 1 0 1.0
0 -4.151236 0.000000 -0.324256 -0.303955 -0.771484 -0.558594 0.102844 0.953125 1 0 1.0
0 -3.738640 -0.442580 0.062599 -0.303955 -0.771484 -0.558594 0.102844 0.953125 1 0 1.0
Default
0 -3.738640 -0.442580 0.062599 -0.106750 -0.592285 0.798340 0.102844 0.953125 1 0 1.0
0 -2.095650 -0.743541 0.180340 -0.106750 -0.592285 0.798340 0.102844 0.953125 1 0 1.0
0 -2.095650 0.000000 0.610694 -0.106750 -0.592285 0.798340 0.102844 0.953125 1 0 1.0
Default
0 -3.715285 0.000000 0.515493 -0.106750 -0.592285 0.798340 0.102844 0.953125 1 0 1.0
0 -3.738640 -0.442580 0.062599 -0.106750 -0.592285 0.798340 0.102844 0.953125 1 0 1.0
0 -2.095650 0.000000 0.610694 -0.106750 -0.592285 0.798340 0.102844 0.953125 1 0 1.0
Default
0 -4.315866 0.000000 0.065252 -0.334961 -0.829590 0.446777 0.102844 0.953125 1 0 1.0
0 -3.738640 -0.442580 0.062599 -0.334961 -0.829590 0.446777 0.102844 0.953125 1 0 1.0
0 -3.715285 0.000000 0.515493 -0.334961 -0.829590 0.446777 0.102844 0.953125 1 0 1.0
Default
0 -4.274709 0.000000 0.482610 -0.334961 -0.829590 0.446777 0.102844 0.953125 1 0 1.0
0 -4.315866 0.000000 0.065252 -0.334961 -0.829590 0.446777 0.102844 0.953125 1 0 1.0
0 -3.715285 0.000000 0.515493 -0.334961 -0.829590 0.446777 0.102844 0.953125 1 0 1.0
Default
0 -3.623510 0.000000 -0.311432 -0.014198 -0.571777 -0.820312 0.102844 0.953125 1 0 1.0
0 -2.095650 0.000000 -0.274304 -0.014198 -0.571777 -0.820312 0.102844 0.953125 1 0 1.0
0 -2.095650 -0.743541 0.180340 -0.014198 -0.571777 -0.820312 0.102844 0.953125 1 0 1.0
Default
0 -3.738640 -0.442580 0.062599 -0.014198 -0.571777 -0.820312 0.102844 0.953125 1 0 1.0
0 -3.623510 0.000000 -0.311432 -0.014198 -0.571777 -0.820312 0.102844 0.953125 1 0 1.0
0 -2.095650 -0.743541 0.180340 -0.014198 -0.571777 -0.820312 0.102844 0.953125 1 0 1.0
Default
0 -3.623510 0.000000 -0.311432 -0.000000 -1.000000 0.000000 0.987305 0.764648 1 0 1.0
0 -2.141241 0.000000 -0.614165 -0.000000 -1.000000 0.000000 0.987305 0.764648 1 0 1.0
0 -2.095650 0.000000 -0.274304 -0.000000 -1.000000 0.000000 0.987305 0.764648 1 0 1.0
Default
0 -2.095650 0.000000 -0.274304 -0.000000 -1.000000 0.000000 0.987305 0.764648 1 0 1.0
0 -2.141241 0.000000 -0.614165 -0.000000 -1.000000 0.000000 0.987305 0.764648 1 0 1.0
0 -1.175539 0.000000 -0.601731 -0.000000 -1.000000 0.000000 0.987305 0.764648 1 0 1.0
Default
0 -2.095650 0.000000 -0.274304 -0.000000 -1.000000 0.000000 0.987305 0.764648 1 0 1.0
0 -1.175539 0.000000 -0.601731 -0.000000 -1.000000 0.000000 0.987305 0.764648 1 0 1.0
0 0.674487 0.000000 -1.020594 -0.000000 -1.000000 0.000000 0.987305 0.764648 1 0 1.0
Default
0 -0.606208 0.000000 -1.837089 -0.000000 -1.000000 0.000000 0.987305 0.764648 1 0 1.0
0 0.674487 0.000000 -1.020594 -0.000000 -1.000000 0.000000 0.987305 0.764648 1 0 1.0
0 -1.175539 0.000000 -0.601731 -0.000000 -1.000000 0.000000 0.987305 0.764648 1 0 1.0
Default
0 -5.913710 0.000000 0.387931 -0.000000 1.000000 0.000000 0.987305 0.764648 1 0 1.0
0 -4.274709 0.000000 0.482610 -0.000000 1.000000 0.000000 0.987305 0.764648 1 0 1.0
0 -4.315866 0.000000 0.065252 -0.000000 1.000000 0.000000 0.987305 0.764648 1 0 1.0
Default
0 -4.315866 0.000000 0.065252 -0.000000 1.000000 0.000000 0.987305 0.764648 1 0 1.0
0 -5.547117 0.000000 -0.263346 -0.000000 1.000000 0.000000 0.987305 0.764648 1 0 1.0
0 -5.913710 0.000000 0.387931 -0.000000 1.000000 0.000000 0.987305 0.764648 1 0 1.0
Default
0 -4.315866 0.000000 0.065252 -0.000000 1.000000 0.000000 0.987305 0.764648 1 0 1.0
0 -4.151236 0.000000 -0.324256 -0.000000 1.000000 0.000000 0.987305 0.764648 1 0 1.0
0 -5.547117 0.000000 -0.263346 -0.000000 1.000000 0.000000 0.987305 0.764648 1 0 1.0
Default
0 -4.151236 0.000000 -0.324256 -0.000000 1.000000 0.000000 0.987305 0.764648 1 0 1.0
0 -5.651540 0.000000 -0.991576 -0.000000 1.000000 0.000000 0.987305 0.764648 1 0 1.0
0 -5.547117 0.000000 -0.263346 -0.000000 1.000000 0.000000 0.987305 0.764648 1 0 1.0
Default
0 -1.244475 0.000000 1.837089 -0.000000 1.000000 0.000000 0.987305 0.764648 1 0 1.0
0 0.247597 0.000000 1.045462 -0.000000 1.000000 0.000000 0.987305 0.764648 1 0 1.0
0 -2.095650 0.000000 0.610694 -0.000000 1.000000 0.000000 0.987305 0.764648 1 0 1.0
Default
0 -1.399350 0.000000 0.933976 -0.000000 1.000000 0.000000 0.987305 0.764648 1 0 1.0
0 -1.244475 0.000000 1.837089 -0.000000 1.000000 0.000000 0.987305 0.764648 1 0 1.0
0 -2.095650 0.000000 0.610694 -0.000000 1.000000 0.000000 0.987305 0.764648 1 0 1.0
Default
0 -2.141241 0.000000 -0.614165 -0.000000 1.000000 0.000000 0.987305 0.764648 1 0 1.0
0 -3.623510 0.000000 -0.311432 -0.000000 1.000000 0.000000 0.987305 0.764648 1 0 1.0
0 -2.095650 0.000000 -0.274304 -0.000000 1.000000 0.000000 0.987305 0.764648 1 0 1.0
Default
0 -2.141241 0.000000 -0.614165 -0.000000 1.000000 0.000000 0.987305 0.764648 1 0 1.0
0 -2.095650 0.000000 -0.274304 -0.000000 1.000000 0.000000 0.987305 0.764648 1 0 1.0
0 -1.175539 0.000000 -0.601731 -0.000000 1.000000 0.000000 0.987305 0.764648 1 0 1.0
Default
0 -1.175539 0.000000 -0.601731 -0.000000 1.000000 0.000000 0.987305 0.764648 1 0 1.0
0 -2.095650 0.000000 -0.274304 -0.000000 1.000000 0.000000 0.987305 0.764648 1 0 1.0
0 0.674487 0.000000 -1.020594 -0.000000 1.000000 0.000000 0.987305 0.764648 1 0 1.0
Default
0 0.674487 0.000000 -1.020594 -0.000000 1.000000 0.000000 0.987305 0.764648 1 0 1.0
0 -0.606208 0.000000 -1.837089 -0.000000 1.000000 0.000000 0.987305 0.764648 1 0 1.0
0 -1.175539 0.000000 -0.601731 -0.000000 1.000000 0.000000 0.987305 0.764648 1 0 1.0
Default
0 -2.095650 0.743541 0.180340 -0.049377 0.687500 0.724609 0.102844 0.953125 1 0 1.0
0 -2.095650 0.000000 0.610694 -0.049377 0.687500 0.724609 0.102844 0.953125 1 0 1.0
0 0.247597 0.000000 1.045462 -0.049377 0.687500 0.724609 0.102844 0.953125 1 0 1.0
Default
0 0.431943 0.743541 0.077512 -0.049377 0.687500 0.724609 0.102844 0.953125 1 0 1.0
0 -2.095650 0.743541 0.180340 -0.049377 0.687500 0.724609 0.102844 0.953125 1 0 1.0
0 0.247597 0.000000 1.045462 -0.049377 0.687500 0.724609 0.102844 0.953125 1 0 1.0
Default
0 0.431943 0.743541 0.077512 0.039917 0.773438 0.632324 0.102844 0.953125 1 0 1.0
0 0.247597 0.000000 1.045462 0.039917 0.773438 0.632324 0.102844 0.953125 1 0 1.0
0 2.711001 0.000000 0.842895 0.039917 0.773438 0.632324 0.102844 0.953125 1 0 1.0
Default
0 2.711001 0.743541 -0.019156 0.039917 0.773438 0.632324 0.102844 0.953125 1 0 1.0
0 0.431943 0.743541 0.077512 0.039917 0.773438 0.632324 0.102844 0.953125 1 0 1.0
0 2.711001 0.000000 0.842895 0.039917 0.773438 0.632324 0.102844 0.953125 1 0 1.0
Default
0 2.711001 0.743541 -0.019156 0.134155 0.759277 0.636719 0.102844 0.953125 1 0 1.0
0 2.711001 0.000000 0.842895 0.134155 0.759277 0.636719 0.102844 0.953125 1 0 1.0
0 4.654343 0.000000 0.457909 0.134155 0.759277 0.636719 0.102844 0.953125 1 0 1.0
Default
0 4.654343 0.466547 -0.122614 0.134155 0.759277 0.636719 0.102844 0.953125 1 0 1.0
0 2.711001 0.743541 -0.019156 0.134155 0.759277 0.636719 0.102844 0.953125 1 0 1.0
0 4.654343 0.000000 0.457909 0.134155 0.759277 0.636719 0.102844 0.953125 1 0 1.0
Default
0 -2.095650 0.743541 0.180340 -0.111633 0.708984 -0.696289 0.102844 0.953125 1 0 1.0
0 0.431943 0.743541 0.077512 -0.111633 0.708984 -0.696289 0.102844 0.953125 1 0 1.0
0 0.674487 0.000000 -1.020594 -0.111633 0.708984 -0.696289 0.102844 0.953125 1 0 1.0
Default
0 -2.095650 0.000000 -0.274304 -0.111633 0.708984 -0.696289 0.102844 0.953125 1 0 1.0
0 -2.095650 0.743541 0.180340 -0.111633 0.708984 -0.696289 0.102844 0.953125 1 0 1.0
0 0.674487 0.000000 -1.020594 -0.111633 0.708984 -0.696289 0.102844 0.953125 1 0 1.0
Default
0 -4.151236 0.000000 -0.324256 -0.303955 0.771484 -0.558594 0.102844 0.953125 1 0 1.0
0 -4.315866 0.000000 0.065252 -0.303955 0.771484 -0.558594 0.102844 0.953125 1 0 1.0
0 -3.738640 0.442580 0.062599 -0.303955 0.771484 -0.558594 0.102844 0.953125 1 0 1.0
Default
0 -3.623510 0.000000 -0.311432 -0.303955 0.771484 -0.558594 0.102844 0.953125 1 0 1.0
0 -4.151236 0.000000 -0.324256 -0.303955 0.771484 -0.558594 0.102844 0.953125 1 0 1.0
0 -3.738640 0.442580 0.062599 -0.303955 0.771484 -0.558594 0.102844 0.953125 1 0 1.0
Default
0 -3.738640 0.442580 0.062599 -0.106750 0.592285 0.798340 0.102844 0.953125 1 0 1.0
0 -3.715285 0.000000 0.515493 -0.106750 0.592285 0.798340 0.102844 0.953125 1 0 1.0
0 -2.095650 0.000000 0.610694 -0.106750 0.592285 0.798340 0.102844 0.953125 1 0 1.0
Default
0 -2.095650 0.743541 0.180340 -0.106750 0.592285 0.798340 0.102844 0.953125 1 0 1.0
0 -3.738640 0.442580 0.062599 -0.106750 0.592285 0.798340 0.102844 0.953125 1 0 1.0
0 -2.095650 0.000000 0.610694 -0.106750 0.592285 0.798340 0.102844 0.953125 1 0 1.0
Default
0 -4.315866 0.000000 0.065252 -0.334961 0.829590 0.446777 0.102844 0.953125 1 0 1.0
0 -4.274709 0.000000 0.482610 -0.334961 0.829590 0.446777 0.102844 0.953125 1 0 1.0
0 -3.715285 0.000000 0.515493 -0.334961 0.829590 0.446777 0.102844 0.953125 1 0 1.0
Default
0 -3.738640 0.442580 0.062599 -0.334961 0.829590 0.446777 0.102844 0.953125 1 0 1.0
0 -4.315866 0.000000 0.065252 -0.334961 0.829590 0.446777 0.102844 0.953125 1 0 1.0
0 -3.715285 0.000000 0.515493 -0.334961 0.829590 0.446777 0.102844 0.953125 1 0 1.0
Default
0 -3.623510 0.000000 -0.311432 -0.014198 0.571777 -0.820312 0.102844 0.953125 1 0 1.0
0 -3.738640 0.442580 0.062599 -0.014198 0.571777 -0.820312 0.102844 0.953125 1 0 1.0
0 -2.095650 0.743541 0.180340 -0.014198 0.571777 -0.820312 0.102844 0.953125 1 0 1.0
Default
0 -2.095650 0.000000 -0.274304 -0.014198 0.571777 -0.820312 0.102844 0.953125 1 0 1.0
0 -3.623510 0.000000 -0.311432 -0.014198 0.571777 -0.820312 0.102844 0.953125 1 0 1.0
0 -2.095650 0.743541 0.180340 -0.014198 0.571777 -0.820312 0.102844 0.953125 1 0 1.0
Default
0 5.202603 0.000000 0.125212 -0.000000 1.000000 0.000000 0.982910 0.519531 1 0 1.0
0 5.261948 0.000000 -0.344854 -0.000000 1.000000 0.000000 0.982910 0.519531 1 0 1.0
0 5.063596 0.000000 -0.387644 -0.000000 1.000000 0.000000 0.982910 0.519531 1 0 1.0
Default
0 5.063596 0.000000 -0.387644 -0.000000 1.000000 0.000000 0.982910 0.519531 1 0 1.0
0 5.261948 0.000000 -0.344854 -0.000000 1.000000 0.000000 0.982910 0.519531 1 0 1.0
0 4.886923 0.000000 -0.622553 -0.000000 1.000000 0.000000 0.982910 0.519531 1 0 1.0
Default
0 5.202603 0.000000 0.125212 -0.000000 1.000000 0.000000 0.982910 0.519531 1 0 1.0
0 5.063596 0.000000 -0.387644 -0.000000 1.000000 0.000000 0.982910 0.519531 1 0 1.0
0 4.698505 0.000000 0.145837 -0.000000 1.000000 0.000000 0.982910 0.519531 1 0 1.0
Default
0 4.661787 0.000000 0.344334 -0.000000 1.000000 0.000000 0.982910 0.519531 1 0 1.0
0 5.202603 0.000000 0.125212 -0.000000 1.000000 0.000000 0.982910 0.519531 1 0 1.0
0 4.698505 0.000000 0.145837 -0.000000 1.000000 0.000000 0.982910 0.519531 1 0 1.0
Default
0 4.661787 0.000000 0.344334 -0.000000 1.000000 0.000000 0.982910 0.519531 1 0 1.0
0 4.698505 0.000000 0.145837 -0.000000 1.000000 0.000000 0.982910 0.519531 1 0 1.0
0 4.296241 0.000000 0.080379 -0.000000 1.000000 0.000000 0.982910 0.519531 1 0 1.0
Default
0 5.063596 0.000000 -0.387644 -0.000000 1.000000 0.000000 0.982910 0.519531 1 0 1.0
0 4.886923 0.000000 -0.622553 -0.000000 1.000000 0.000000 0.982910 0.519531 1 0 1.0
0 4.457579 0.000000 -0.428192 -0.000000 1.000000 0.000000 0.982910 0.519531 1 0 1.0
Default
0 4.698505 0.000000 0.145837 -0.000000 1.000000 0.000000 0.982910 0.519531 1 0 1.0
0 5.063596 0.000000 -0.387644 -0.000000 1.000000 0.000000 0.982910 0.519531 1 0 1.0
0 4.457579 0.000000 -0.428192 -0.000000 1.000000 0.000000 0.982910 0.519531 1 0 1.0
Default
0 4.698505 0.000000 0.145837 -0.000000 1.000000 0.000000 0.982910 0.519531 1 0 1.0
0 4.457579 0.000000 -0.428192 -0.000000 1.000000 0.000000 0.982910 0.519531 1 0 1.0
0 4.296241 0.000000 0.080379 -0.000000 1.000000 0.000000 0.982910 0.519531 1 0 1.0
Default
0 4.457579 0.000000 -0.428192 -0.000000 1.000000 0.000000 0.982910 0.519531 1 0 1.0
0 4.886923 0.000000 -0.622553 -0.000000 1.000000 0.000000 0.982910 0.519531 1 0 1.0
0 4.412709 0.000000 -0.493566 -0.000000 1.000000 0.000000 0.982910 0.519531 1 0 1.0
Default
0 4.296241 0.000000 0.080379 -0.000000 1.000000 0.000000 0.982910 0.519531 1 0 1.0
0 4.457579 0.000000 -0.428192 -0.000000 1.000000 0.000000 0.982910 0.519531 1 0 1.0
0 4.412709 0.000000 -0.493566 -0.000000 1.000000 0.000000 0.982910 0.519531 1 0 1.0
end
