version 1
nodes
0 "root" -1
end
skeleton
time 0
0 0 0 0 0 0 0
end
triangles
phy
0 -12.9509 -6.2055 -5.9607 0 0 1 0 0 1 0 1.0
0 12.9509 -6.2055 -5.9607 0 0 1 0 0 1 0 1.0
0 12.9509 6.2055 -5.9607 0 0 1 0 0 1 0 1.0
phy
0 -12.9509 -6.2055 -5.9607 0 0 1 0 0 1 0 1.0
0 12.9509 6.2055 -5.9607 0 0 1 0 0 1 0 1.0
0 -12.9509 6.2055 -5.9607 0 0 1 0 0 1 0 1.0
phy
0 -12.9509 -6.2055 5.9607 0 0 1 0 0 1 0 1.0
0 -12.9509 6.2055 5.9607 0 0 1 0 0 1 0 1.0
0 12.9509 6.2055 5.9607 0 0 1 0 0 1 0 1.0
phy
0 -12.9509 -6.2055 5.9607 0 0 1 0 0 1 0 1.0
0 12.9509 6.2055 5.9607 0 0 1 0 0 1 0 1.0
0 12.9509 -6.2055 5.9607 0 0 1 0 0 1 0 1.0
phy
0 -12.9509 -6.2055 -5.9607 0 0 1 0 0 1 0 1.0
0 -12.9509 -6.2055 5.9607 0 0 1 0 0 1 0 1.0
0 12.9509 -6.2055 5.9607 0 0 1 0 0 1 0 1.0
phy
0 -12.9509 -6.2055 -5.9607 0 0 1 0 0 1 0 1.0
0 12.9509 -6.2055 5.9607 0 0 1 0 0 1 0 1.0
0 12.9509 -6.2055 -5.9607 0 0 1 0 0 1 0 1.0
phy
0 12.9509 6.2055 -5.9607 0 0 1 0 0 1 0 1.0
0 12.9509 6.2055 5.9607 0 0 1 0 0 1 0 1.0
0 -12.9509 6.2055 5.9607 0 0 1 0 0 1 0 1.0
phy
0 12.9509 6.2055 -5.9607 0 0 1 0 0 1 0 1.0
0 -12.9509 6.2055 5.9607 0 0 1 0 0 1 0 1.0
0 -12.9509 6.2055 -5.9607 0 0 1 0 0 1 0 1.0
phy
0 -12.9509 -6.2055 -5.9607 0 0 1 0 0 1 0 1.0
0 -12.9509 6.2055 -5.9607 0 0 1 0 0 1 0 1.0
0 -12.9509 6.2055 5.9607 0 0 1 0 0 1 0 1.0
phy
0 -12.9509 -6.2055 -5.9607 0 0 1 0 0 1 0 1.0
0 -12.9509 6.2055 5.9607 0 0 1 0 0 1 0 1.0
0 -12.9509 -6.2055 5.9607 0 0 1 0 0 1 0 1.0
phy
0 12.9509 -6.2055 -5.9607 0 0 1 0 0 1 0 1.0
0 12.9509 -6.2055 5.9607 0 0 1 0 0 1 0 1.0
0 12.9509 6.2055 5.9607 0 0 1 0 0 1 0 1.0
phy
0 12.9509 -6.2055 -5.9607 0 0 1 0 0 1 0 1.0
0 12.9509 6.2055 5.9607 0 0 1 0 0 1 0 1.0
0 12.9509 6.2055 -5.9607 0 0 1 0 0 1 0 1.0
end
