version 1
nodes
0 "root" -1
end
skeleton
time 0
0 0 0 0 0 0 0
end
triangles
phy
0 -11.3131 -4.5000 -5.9338 0 0 1 0 0 1 0 1.0
0 11.3131 -4.5000 -5.9338 0 0 1 0 0 1 0 1.0
0 11.3131 4.5000 -5.9338 0 0 1 0 0 1 0 1.0
phy
0 -11.3131 -4.5000 -5.9338 0 0 1 0 0 1 0 1.0
0 11.3131 4.5000 -5.9338 0 0 1 0 0 1 0 1.0
0 -11.3131 4.5000 -5.9338 0 0 1 0 0 1 0 1.0
phy
0 -11.3131 -4.5000 5.9338 0 0 1 0 0 1 0 1.0
0 -11.3131 4.5000 5.9338 0 0 1 0 0 1 0 1.0
0 11.3131 4.5000 5.9338 0 0 1 0 0 1 0 1.0
phy
0 -11.3131 -4.5000 5.9338 0 0 1 0 0 1 0 1.0
0 11.3131 4.5000 5.9338 0 0 1 0 0 1 0 1.0
0 11.3131 -4.5000 5.9338 0 0 1 0 0 1 0 1.0
phy
0 -11.3131 -4.5000 -5.9338 0 0 1 0 0 1 0 1.0
0 -11.3131 -4.5000 5.9338 0 0 1 0 0 1 0 1.0
0 11.3131 -4.5000 5.9338 0 0 1 0 0 1 0 1.0
phy
0 -11.3131 -4.5000 -5.9338 0 0 1 0 0 1 0 1.0
0 11.3131 -4.5000 5.9338 0 0 1 0 0 1 0 1.0
0 11.3131 -4.5000 -5.9338 0 0 1 0 0 1 0 1.0
phy
0 11.3131 4.5000 -5.9338 0 0 1 0 0 1 0 1.0
0 11.3131 4.5000 5.9338 0 0 1 0 0 1 0 1.0
0 -11.3131 4.5000 5.9338 0 0 1 0 0 1 0 1.0
phy
0 11.3131 4.5000 -5.9338 0 0 1 0 0 1 0 1.0
0 -11.3131 4.5000 5.9338 0 0 1 0 0 1 0 1.0
0 -11.3131 4.5000 -5.9338 0 0 1 0 0 1 0 1.0
phy
0 -11.3131 -4.5000 -5.9338 0 0 1 0 0 1 0 1.0
0 -11.3131 4.5000 -5.9338 0 0 1 0 0 1 0 1.0
0 -11.3131 4.5000 5.9338 0 0 1 0 0 1 0 1.0
phy
0 -11.3131 -4.5000 -5.9338 0 0 1 0 0 1 0 1.0
0 -11.3131 4.5000 5.9338 0 0 1 0 0 1 0 1.0
0 -11.3131 -4.5000 5.9338 0 0 1 0 0 1 0 1.0
phy
0 11.3131 -4.5000 -5.9338 0 0 1 0 0 1 0 1.0
0 11.3131 -4.5000 5.9338 0 0 1 0 0 1 0 1.0
0 11.3131 4.5000 5.9338 0 0 1 0 0 1 0 1.0
phy
0 11.3131 -4.5000 -5.9338 0 0 1 0 0 1 0 1.0
0 11.3131 4.5000 5.9338 0 0 1 0 0 1 0 1.0
0 11.3131 4.5000 -5.9338 0 0 1 0 0 1 0 1.0
end
