version 1
nodes
0 "root" -1
end
skeleton
time 0
0 0 0 0 0 0 0
end
triangles
Default
0 -2.539910 -1.344164 1.232331 0.732910 -0.674316 0.089783 0.985352 0.547363 1 0 1.0
0 -2.142090 -0.861410 1.610723 0.732910 -0.674316 0.089783 0.985352 0.547363 1 0 1.0
0 -2.625068 -1.344163 1.927406 0.732910 -0.674316 0.089783 0.985352 0.547363 1 0 1.0
Default
0 -3.133004 -1.321380 -0.507843 -0.405273 -0.905273 -0.126099 0.985352 0.547363 1 0 1.0
0 -3.998691 -1.175084 1.223533 -0.405273 -0.905273 -0.126099 0.985352 0.547363 1 0 1.0
0 -4.789086 -0.544171 -0.766904 -0.405273 -0.905273 -0.126099 0.985352 0.547363 1 0 1.0
Default
0 -2.625068 -1.344163 1.927406 0.312256 -0.719238 -0.620117 0.985352 0.547363 1 0 1.0
0 -2.142090 -0.861410 1.610723 0.312256 -0.719238 -0.620117 0.985352 0.547363 1 0 1.0
0 -2.038080 -1.174875 2.026642 0.312256 -0.719238 -0.620117 0.985352 0.547363 1 0 1.0
Default
0 5.137887 -2.165268 -3.031439 0.680176 -0.725098 -0.105225 0.985352 0.547363 1 0 1.0
0 6.464850 -0.978695 -2.629444 0.680176 -0.725098 -0.105225 0.985352 0.547363 1 0 1.0
0 5.137887 -2.305678 -2.063443 0.680176 -0.725098 -0.105225 0.985352 0.547363 1 0 1.0
Default
0 -2.625068 -1.344163 1.927406 -0.051971 -0.961914 0.267822 0.985352 0.547363 1 0 1.0
0 -2.259053 -1.276740 2.240695 -0.051971 -0.961914 0.267822 0.985352 0.547363 1 0 1.0
0 -2.334140 -1.217694 2.438259 -0.051971 -0.961914 0.267822 0.985352 0.547363 1 0 1.0
Default
0 -2.334140 -1.217694 2.438259 0.002790 -0.958008 0.287354 0.985352 0.547363 1 0 1.0
0 -3.605197 -1.175084 2.514194 -0.017548 -0.968262 0.249634 0.985352 0.547363 1 0 1.0
0 -2.625068 -1.344163 1.927406 -0.051971 -0.961914 0.267822 0.985352 0.547363 1 0 1.0
Default
0 -1.444649 -1.276740 2.232789 0.002790 -0.958008 0.287354 0.985352 0.547363 1 0 1.0
0 -2.334140 -1.217694 2.438259 0.002790 -0.958008 0.287354 0.985352 0.547363 1 0 1.0
0 -2.259053 -1.276740 2.240695 0.002790 -0.958008 0.287354 0.985352 0.547363 1 0 1.0
Default
0 -3.605197 -1.175084 2.514194 -0.144165 -0.988770 0.043976 0.985352 0.547363 1 0 1.0
0 -3.998691 -1.175084 1.223533 -0.115234 -0.993164 0.026276 0.985352 0.547363 1 0 1.0
0 -2.625068 -1.344163 1.927406 -0.144165 -0.988770 0.043976 0.985352 0.547363 1 0 1.0
Default
0 -3.998691 -1.175084 1.223533 -0.115234 -0.993164 0.026276 0.985352 0.547363 1 0 1.0
0 -3.133004 -1.321380 -0.507843 -0.115234 -0.993164 0.026276 0.985352 0.547363 1 0 1.0
0 -2.539910 -1.344164 1.232331 -0.115234 -0.993164 0.026276 0.985352 0.547363 1 0 1.0
Default
0 -2.625068 -1.344163 1.927406 -0.115051 -0.993164 -0.014091 0.985352 0.547363 1 0 1.0
0 -3.998691 -1.175084 1.223533 -0.115234 -0.993164 0.026276 0.985352 0.547363 1 0 1.0
0 -2.539910 -1.344164 1.232331 -0.115234 -0.993164 0.026276 0.985352 0.547363 1 0 1.0
Default
0 -2.038080 -1.174875 2.026642 -0.225586 -0.958008 0.175903 0.985352 0.547363 1 0 1.0
0 -1.531087 -1.344164 1.754759 -0.225586 -0.958008 0.175903 0.985352 0.547363 1 0 1.0
0 -1.444649 -1.276740 2.232789 -0.225586 -0.958008 0.175903 0.985352 0.547363 1 0 1.0
Default
0 2.517213 -2.749750 -0.623253 -0.490234 -0.871094 -0.021347 0.985352 0.547363 1 0 1.0
0 1.088552 -1.937595 -0.958915 -0.490234 -0.871094 -0.021347 0.985352 0.547363 1 0 1.0
0 2.290896 -2.600119 -1.532760 -0.490234 -0.871094 -0.021347 0.985352 0.547363 1 0 1.0
Default
0 -0.788142 -1.573279 3.815366 -0.525879 -0.836914 -0.151733 0.985352 0.547363 1 0 1.0
0 -0.991434 -1.217694 2.558528 -0.525879 -0.836914 -0.151733 0.985352 0.547363 1 0 1.0
0 0.958974 -2.457412 2.634883 -0.525879 -0.836914 -0.151733 0.985352 0.547363 1 0 1.0
Default
0 1.242290 -2.039188 3.697318 0.292725 -0.681641 0.670410 0.985352 0.547363 1 0 1.0
0 3.083845 -2.177666 2.752930 0.292725 -0.681641 0.670410 0.985352 0.547363 1 0 1.0
0 3.539876 -0.708911 4.046841 0.292725 -0.681641 0.670410 0.985352 0.547363 1 0 1.0
Default
0 1.572826 -2.546919 -0.080232 0.000993 -0.995117 -0.099243 0.985352 0.547363 1 0 1.0
0 3.910184 -2.638792 0.864157 0.000993 -0.995117 -0.099243 0.985352 0.547363 1 0 1.0
0 1.478387 -2.685964 1.312741 0.000993 -0.995117 -0.099243 0.985352 0.547363 1 0 1.0
Default
0 2.517213 -2.749750 -0.623253 0.100586 -0.984863 0.140259 0.985352 0.547363 1 0 1.0
0 3.603259 -2.749750 -1.402372 0.100586 -0.984863 0.140259 0.985352 0.547363 1 0 1.0
0 4.524036 -2.544762 -0.623253 0.100586 -0.984863 0.140259 0.985352 0.547363 1 0 1.0
Default
0 -4.789086 -0.544171 -0.766904 -0.477539 -0.874023 -0.087524 0.985352 0.547363 1 0 1.0
0 -3.998691 -1.175084 1.223533 -0.477539 -0.874023 -0.087524 0.985352 0.547363 1 0 1.0
0 -5.339977 -0.406079 0.859538 -0.477539 -0.874023 -0.087524 0.985352 0.547363 1 0 1.0
Default
0 -3.110177 -0.690801 -1.803106 -0.331543 -0.845703 -0.417725 0.985352 0.547363 1 0 1.0
0 -3.133004 -1.321380 -0.507843 -0.331543 -0.845703 -0.417725 0.985352 0.547363 1 0 1.0
0 -4.789086 -0.544171 -0.766904 -0.331543 -0.845703 -0.417725 0.985352 0.547363 1 0 1.0
Default
0 -0.985308 -0.825965 -1.265331 0.090698 -0.820312 -0.564453 0.985352 0.547363 1 0 1.0
0 -1.763642 -1.595832 -0.271747 0.090698 -0.820312 -0.564453 0.985352 0.547363 1 0 1.0
0 -3.110177 -0.690801 -1.803106 0.090698 -0.820312 -0.564453 0.985352 0.547363 1 0 1.0
Default
0 -3.110177 -0.690801 -1.803106 -0.103760 -0.893555 -0.436768 0.985352 0.547363 1 0 1.0
0 -1.763642 -1.595832 -0.271747 -0.103760 -0.893555 -0.436768 0.985352 0.547363 1 0 1.0
0 -3.133004 -1.321380 -0.507843 -0.103760 -0.893555 -0.436768 0.985352 0.547363 1 0 1.0
Default
0 -0.541898 -1.275934 -0.621895 0.041290 -0.805176 -0.591797 0.985352 0.547363 1 0 1.0
0 -1.763642 -1.595832 -0.271747 0.041290 -0.805176 -0.591797 0.985352 0.547363 1 0 1.0
0 -0.985308 -0.825965 -1.265331 0.041290 -0.805176 -0.591797 0.985352 0.547363 1 0 1.0
Default
0 -0.037778 -1.908132 1.224443 -0.156982 -0.946777 -0.281250 0.985352 0.547363 1 0 1.0
0 -0.865010 -1.738697 1.115916 -0.156982 -0.946777 -0.281250 0.985352 0.547363 1 0 1.0
0 -0.541898 -1.275934 -0.621895 -0.156982 -0.946777 -0.281250 0.985352 0.547363 1 0 1.0
Default
0 -0.541898 -1.275934 -0.621895 0.187622 -0.957520 -0.220093 0.985352 0.547363 1 0 1.0
0 -0.865010 -1.738697 1.115916 0.187622 -0.957520 -0.220093 0.985352 0.547363 1 0 1.0
0 -1.763642 -1.595832 -0.271747 0.187622 -0.957520 -0.220093 0.985352 0.547363 1 0 1.0
Default
0 -0.991434 -1.217694 2.558528 -0.229736 -0.921875 0.312744 0.985352 0.547363 1 0 1.0
0 -0.865010 -1.738697 1.115916 -0.229736 -0.921875 0.312744 0.985352 0.547363 1 0 1.0
0 -0.037778 -1.908132 1.224443 -0.229736 -0.921875 0.312744 0.985352 0.547363 1 0 1.0
Default
0 -2.539910 -1.344164 1.232331 0.020676 -0.627441 0.778320 0.985352 0.547363 1 0 1.0
0 -1.847114 -1.344164 1.213927 0.020676 -0.627441 0.778320 0.985352 0.547363 1 0 1.0
0 -2.142090 -0.861410 1.610723 0.020676 -0.627441 0.778320 0.985352 0.547363 1 0 1.0
Default
0 -1.531087 -1.344164 1.754759 -0.628418 -0.685547 0.367188 0.985352 0.547363 1 0 1.0
0 -2.142090 -0.861410 1.610723 -0.628418 -0.685547 0.367188 0.985352 0.547363 1 0 1.0
0 -1.847114 -1.344164 1.213927 -0.628418 -0.685547 0.367188 0.985352 0.547363 1 0 1.0
Default
0 -2.038080 -1.174875 2.026642 -0.488770 -0.750977 -0.443848 0.985352 0.547363 1 0 1.0
0 -2.142090 -0.861410 1.610723 -0.488770 -0.750977 -0.443848 0.985352 0.547363 1 0 1.0
0 -1.531087 -1.344164 1.754759 -0.488770 -0.750977 -0.443848 0.985352 0.547363 1 0 1.0
Default
0 -1.847114 -1.344164 1.213927 -0.357422 -0.923828 0.136475 0.985352 0.547363 1 0 1.0
0 -1.763642 -1.595832 -0.271747 -0.357422 -0.923828 0.136475 0.985352 0.547363 1 0 1.0
0 -0.865010 -1.738697 1.115916 -0.357422 -0.923828 0.136475 0.985352 0.547363 1 0 1.0
Default
0 -2.539910 -1.344164 1.232331 0.004444 -0.985840 0.167236 0.985352 0.547363 1 0 1.0
0 -1.763642 -1.595832 -0.271747 0.004444 -0.985840 0.167236 0.985352 0.547363 1 0 1.0
0 -1.847114 -1.344164 1.213927 0.004444 -0.985840 0.167236 0.985352 0.547363 1 0 1.0
Default
0 -1.763642 -1.595832 -0.271747 -0.205688 -0.977051 0.057312 0.985352 0.547363 1 0 1.0
0 -2.539910 -1.344164 1.232331 -0.205688 -0.977051 0.057312 0.985352 0.547363 1 0 1.0
0 -3.133004 -1.321380 -0.507843 -0.205688 -0.977051 0.057312 0.985352 0.547363 1 0 1.0
Default
0 6.464850 -0.978695 -2.629444 0.674316 -0.736816 -0.050507 0.985352 0.547363 1 0 1.0
0 5.137887 -2.165268 -3.031439 0.674316 -0.736816 -0.050507 0.985352 0.547363 1 0 1.0
0 6.241869 -1.065868 -4.334586 0.674316 -0.736816 -0.050507 0.985352 0.547363 1 0 1.0
Default
0 6.228753 -0.870165 -0.425876 0.726074 -0.678711 0.111206 0.985352 0.547363 1 0 1.0
0 5.137887 -2.305678 -2.063443 0.726074 -0.678711 0.111206 0.985352 0.547363 1 0 1.0
0 6.464850 -0.978695 -2.629444 0.726074 -0.678711 0.111206 0.985352 0.547363 1 0 1.0
Default
0 5.137887 -2.165268 -3.031439 0.532227 -0.813477 -0.235474 0.985352 0.547363 1 0 1.0
0 5.114581 -1.852256 -4.165163 0.532227 -0.813477 -0.235474 0.985352 0.547363 1 0 1.0
0 6.241869 -1.065868 -4.334586 0.532227 -0.813477 -0.235474 0.985352 0.547363 1 0 1.0
Default
0 4.524036 -2.544762 -0.623253 0.680176 -0.712891 0.171631 0.985352 0.547363 1 0 1.0
0 5.137887 -2.305678 -2.063443 0.680176 -0.712891 0.171631 0.985352 0.547363 1 0 1.0
0 6.228753 -0.870165 -0.425876 0.680176 -0.712891 0.171631 0.985352 0.547363 1 0 1.0
Default
0 3.274631 -2.600119 -2.370757 0.128540 -0.955078 -0.266357 0.985352 0.547363 1 0 1.0
0 5.114581 -1.852256 -4.165163 0.128540 -0.955078 -0.266357 0.985352 0.547363 1 0 1.0
0 5.137887 -2.165268 -3.031439 0.128540 -0.955078 -0.266357 0.985352 0.547363 1 0 1.0
Default
0 -0.865010 -1.738697 1.115916 -0.114014 -0.937500 0.328613 0.985352 0.547363 1 0 1.0
0 -0.991434 -1.217694 2.558528 -0.114014 -0.937500 0.328613 0.985352 0.547363 1 0 1.0
0 -1.444649 -1.276740 2.232789 -0.114014 -0.937500 0.328613 0.985352 0.547363 1 0 1.0
Default
0 -2.038080 -1.174875 2.026642 0.296631 -0.944336 -0.143188 0.985352 0.547363 1 0 1.0
0 -2.259053 -1.276740 2.240695 0.296631 -0.944336 -0.143188 0.985352 0.547363 1 0 1.0
0 -2.625068 -1.344163 1.927406 0.296631 -0.944336 -0.143188 0.985352 0.547363 1 0 1.0
Default
0 -0.991434 -1.217694 2.558528 -0.018158 -0.979004 0.202759 0.985352 0.547363 1 0 1.0
0 -2.334140 -1.217694 2.438259 -0.018158 -0.979004 0.202759 0.985352 0.547363 1 0 1.0
0 -1.444649 -1.276740 2.232789 -0.018158 -0.979004 0.202759 0.985352 0.547363 1 0 1.0
Default
0 -2.259053 -1.276740 2.240695 -0.004208 -0.901367 -0.433350 0.985352 0.547363 1 0 1.0
0 -2.038080 -1.174875 2.026642 -0.004208 -0.901367 -0.433350 0.985352 0.547363 1 0 1.0
0 -1.444649 -1.276740 2.232789 -0.004208 -0.901367 -0.433350 0.985352 0.547363 1 0 1.0
Default
0 -0.037778 -1.908132 1.224443 -0.476562 -0.863281 -0.165527 0.985352 0.547363 1 0 1.0
0 -0.541898 -1.275934 -0.621895 -0.476562 -0.863281 -0.165527 0.985352 0.547363 1 0 1.0
0 1.572826 -2.546919 -0.080232 -0.476562 -0.863281 -0.165527 0.985352 0.547363 1 0 1.0
Default
0 -0.037778 -1.908132 1.224443 -0.537109 -0.841797 0.051727 0.985352 0.547363 1 0 1.0
0 0.958974 -2.457412 2.634883 -0.537109 -0.841797 0.051727 0.985352 0.547363 1 0 1.0
0 -0.991434 -1.217694 2.558528 -0.537109 -0.841797 0.051727 0.985352 0.547363 1 0 1.0
Default
0 1.478387 -2.685964 1.312741 -0.455078 -0.890137 -0.024963 0.985352 0.547363 1 0 1.0
0 0.958974 -2.457412 2.634883 -0.455078 -0.890137 -0.024963 0.985352 0.547363 1 0 1.0
0 -0.037778 -1.908132 1.224443 -0.455078 -0.890137 -0.024963 0.985352 0.547363 1 0 1.0
Default
0 3.083845 -2.177666 2.752930 0.115845 -0.970215 0.213257 0.985352 0.547363 1 0 1.0
0 0.958974 -2.457412 2.634883 0.115845 -0.970215 0.213257 0.985352 0.547363 1 0 1.0
0 1.478387 -2.685964 1.312741 0.115845 -0.970215 0.213257 0.985352 0.547363 1 0 1.0
Default
0 1.242290 -2.039188 3.697318 -0.182495 -0.897461 0.401855 0.985352 0.547363 1 0 1.0
0 -0.788142 -1.573279 3.815366 -0.182495 -0.897461 0.401855 0.985352 0.547363 1 0 1.0
0 0.958974 -2.457412 2.634883 -0.182495 -0.897461 0.401855 0.985352 0.547363 1 0 1.0
Default
0 -2.649907 -1.174875 3.553074 -0.170166 -0.955078 -0.242676 0.985352 0.547363 1 0 1.0
0 -0.991434 -1.217694 2.558528 -0.170166 -0.955078 -0.242676 0.985352 0.547363 1 0 1.0
0 -0.788142 -1.573279 3.815366 -0.170166 -0.955078 -0.242676 0.985352 0.547363 1 0 1.0
Default
0 -2.649907 -1.174875 3.553074 -0.244141 -0.894531 0.374512 0.985352 0.547363 1 0 1.0
0 -0.788142 -1.573279 3.815366 -0.244141 -0.894531 0.374512 0.985352 0.547363 1 0 1.0
0 -3.005245 -0.552709 4.807597 -0.244141 -0.894531 0.374512 0.985352 0.547363 1 0 1.0
Default
0 0.958974 -2.457412 2.634883 0.104126 -0.934570 0.340088 0.985352 0.547363 1 0 1.0
0 3.083845 -2.177666 2.752930 0.104126 -0.934570 0.340088 0.985352 0.547363 1 0 1.0
0 1.242290 -2.039188 3.697318 0.104126 -0.934570 0.340088 0.985352 0.547363 1 0 1.0
Default
0 0.273874 -0.708911 5.292906 0.270020 -0.652344 0.708008 0.985352 0.547363 1 0 1.0
0 1.242290 -2.039188 3.697318 0.270020 -0.652344 0.708008 0.985352 0.547363 1 0 1.0
0 3.539876 -0.708911 4.046841 0.270020 -0.652344 0.708008 0.985352 0.547363 1 0 1.0
Default
0 5.428648 -0.713024 1.895739 0.657715 -0.701660 0.274170 0.985352 0.547363 1 0 1.0
0 4.524036 -2.544762 -0.623253 0.657715 -0.701660 0.274170 0.985352 0.547363 1 0 1.0
0 6.228753 -0.870165 -0.425876 0.657715 -0.701660 0.274170 0.985352 0.547363 1 0 1.0
Default
0 3.539876 -0.708911 4.046841 0.582031 -0.631836 0.512207 0.985352 0.547363 1 0 1.0
0 3.083845 -2.177666 2.752930 0.582031 -0.631836 0.512207 0.985352 0.547363 1 0 1.0
0 5.428648 -0.713024 1.895739 0.582031 -0.631836 0.512207 0.985352 0.547363 1 0 1.0
Default
0 4.524036 -2.544762 -0.623253 0.693848 -0.677734 0.243530 0.985352 0.547363 1 0 1.0
0 5.428648 -0.713024 1.895739 0.693848 -0.677734 0.243530 0.985352 0.547363 1 0 1.0
0 3.910184 -2.638792 0.864157 0.693848 -0.677734 0.243530 0.985352 0.547363 1 0 1.0
Default
0 1.478387 -2.685964 1.312741 0.067444 -0.961914 0.264404 0.985352 0.547363 1 0 1.0
0 3.910184 -2.638792 0.864157 0.067444 -0.961914 0.264404 0.985352 0.547363 1 0 1.0
0 3.083845 -2.177666 2.752930 0.067444 -0.961914 0.264404 0.985352 0.547363 1 0 1.0
Default
0 3.910184 -2.638792 0.864157 0.586426 -0.689941 0.424805 0.985352 0.547363 1 0 1.0
0 5.428648 -0.713024 1.895739 0.586426 -0.689941 0.424805 0.985352 0.547363 1 0 1.0
0 3.083845 -2.177666 2.752930 0.586426 -0.689941 0.424805 0.985352 0.547363 1 0 1.0
Default
0 -0.037778 -1.908132 1.224443 -0.447754 -0.886230 -0.118835 0.985352 0.547363 1 0 1.0
0 1.572826 -2.546919 -0.080232 -0.447754 -0.886230 -0.118835 0.985352 0.547363 1 0 1.0
0 1.478387 -2.685964 1.312741 -0.447754 -0.886230 -0.118835 0.985352 0.547363 1 0 1.0
Default
0 3.910184 -2.638792 0.864157 0.101624 -0.994629 -0.020950 0.985352 0.547363 1 0 1.0
0 2.517213 -2.749750 -0.623253 0.101624 -0.994629 -0.020950 0.985352 0.547363 1 0 1.0
0 4.524036 -2.544762 -0.623253 0.101624 -0.994629 -0.020950 0.985352 0.547363 1 0 1.0
Default
0 1.572826 -2.546919 -0.080232 -0.109314 -0.978516 0.175415 0.985352 0.547363 1 0 1.0
0 2.517213 -2.749750 -0.623253 -0.109314 -0.978516 0.175415 0.985352 0.547363 1 0 1.0
0 3.910184 -2.638792 0.864157 -0.109314 -0.978516 0.175415 0.985352 0.547363 1 0 1.0
Default
0 5.137887 -2.305678 -2.063443 0.177246 -0.974121 -0.141235 0.985352 0.547363 1 0 1.0
0 3.274631 -2.600119 -2.370757 0.177246 -0.974121 -0.141235 0.985352 0.547363 1 0 1.0
0 5.137887 -2.165268 -3.031439 0.177246 -0.974121 -0.141235 0.985352 0.547363 1 0 1.0
Default
0 4.524036 -2.544762 -0.623253 0.257568 -0.964844 -0.050446 0.985352 0.547363 1 0 1.0
0 3.603259 -2.749750 -1.402372 0.257568 -0.964844 -0.050446 0.985352 0.547363 1 0 1.0
0 5.137887 -2.305678 -2.063443 0.257568 -0.964844 -0.050446 0.985352 0.547363 1 0 1.0
Default
0 3.274631 -2.600119 -2.370757 0.186523 -0.959473 -0.211548 0.985352 0.547363 1 0 1.0
0 5.137887 -2.305678 -2.063443 0.186523 -0.959473 -0.211548 0.985352 0.547363 1 0 1.0
0 3.603259 -2.749750 -1.402372 0.186523 -0.959473 -0.211548 0.985352 0.547363 1 0 1.0
Default
0 1.626842 0.000000 -4.738520 0.396484 0.371338 -0.839355 0.013931 0.888184 1 0 1.0
0 3.069656 0.000000 -4.056970 0.396484 0.371338 -0.839355 0.013931 0.888184 1 0 1.0
0 2.943146 -1.683905 -4.861623 0.396484 0.371338 -0.839355 0.013931 0.888184 1 0 1.0
Default
0 -6.453008 0.000000 -1.604375 -0.982910 -0.184814 0.009819 0.015511 0.828613 1 0 1.0
0 -6.464850 0.000000 -2.789868 -0.982910 -0.184814 0.009819 0.015511 0.828613 1 0 1.0
0 -6.347090 -0.619583 -2.663803 -0.982910 -0.184814 0.009819 0.015511 0.828613 1 0 1.0
Default
0 0.539494 -1.330617 -4.931040 -0.416016 0.453857 -0.788086 0.013931 0.888184 1 0 1.0
0 0.397170 0.000000 -4.089327 -0.416016 0.453857 -0.788086 0.013931 0.888184 1 0 1.0
0 1.626842 0.000000 -4.738520 -0.416016 0.453857 -0.788086 0.013931 0.888184 1 0 1.0
Default
0 -1.275182 0.000000 -4.692305 0.286865 0.533691 -0.795410 0.013931 0.888184 1 0 1.0
0 0.397170 0.000000 -4.089327 0.286865 0.533691 -0.795410 0.013931 0.888184 1 0 1.0
0 0.539494 -1.330617 -4.931040 0.286865 0.533691 -0.795410 0.013931 0.888184 1 0 1.0
Default
0 -4.400638 0.000000 -1.184888 0.320068 -0.309326 0.895508 0.015511 0.828613 1 0 1.0
0 -5.712928 0.000000 -0.715824 0.320068 -0.309326 0.895508 0.015511 0.828613 1 0 1.0
0 -5.697926 -0.475333 -0.885332 0.320068 -0.309326 0.895508 0.015511 0.828613 1 0 1.0
Default
0 3.069656 0.000000 -4.056970 -0.475586 0.084778 -0.875488 0.013931 0.888184 1 0 1.0
0 4.432613 0.000000 -4.797151 -0.475586 0.084778 -0.875488 0.013931 0.888184 1 0 1.0
0 4.261539 -1.607175 -4.859878 -0.475586 0.084778 -0.875488 0.013931 0.888184 1 0 1.0
Default
0 -5.763047 -0.929471 -3.463933 0.412598 -0.267090 -0.870605 0.013931 0.888184 1 0 1.0
0 -5.880072 0.000000 -3.804575 0.412598 -0.267090 -0.870605 0.013931 0.888184 1 0 1.0
0 -4.860357 0.000000 -3.321361 0.412598 -0.267090 -0.870605 0.013931 0.888184 1 0 1.0
Default
0 -3.362891 0.000000 -4.390487 0.230713 0.472412 -0.850586 0.013931 0.888184 1 0 1.0
0 -2.158800 0.000000 -4.063996 0.230713 0.472412 -0.850586 0.013931 0.888184 1 0 1.0
0 -2.158800 -1.140366 -4.697086 0.230713 0.472412 -0.850586 0.013931 0.888184 1 0 1.0
Default
0 -2.158800 -1.140366 -4.697086 -0.527832 0.412109 -0.742676 0.013931 0.888184 1 0 1.0
0 -2.158800 0.000000 -4.063996 -0.527832 0.412109 -0.742676 0.013931 0.888184 1 0 1.0
0 -1.275182 0.000000 -4.692305 -0.527832 0.412109 -0.742676 0.013931 0.888184 1 0 1.0
Default
0 -4.941390 -1.145145 -2.819464 -0.336426 -0.934570 0.116272 0.015511 0.828613 1 0 1.0
0 -6.347090 -0.619583 -2.663803 -0.336426 -0.934570 0.116272 0.015511 0.828613 1 0 1.0
0 -5.763047 -0.929471 -3.463933 -0.336426 -0.934570 0.116272 0.015511 0.828613 1 0 1.0
Default
0 -3.362891 -0.942346 -4.789222 -0.085571 -0.992188 -0.091248 0.015511 0.828613 1 0 1.0
0 -2.737819 -1.088758 -3.783527 -0.085571 -0.992188 -0.091248 0.015511 0.828613 1 0 1.0
0 -4.860357 -0.885076 -4.008154 -0.085571 -0.992188 -0.091248 0.015511 0.828613 1 0 1.0
Default
0 3.577773 -1.444939 -3.586778 0.004684 -0.983398 0.182007 0.015511 0.828613 1 0 1.0
0 1.669323 -1.585121 -4.295068 0.004684 -0.983398 0.182007 0.015511 0.828613 1 0 1.0
0 2.943146 -1.683905 -4.861623 0.004684 -0.983398 0.182007 0.015511 0.828613 1 0 1.0
Default
0 -1.340913 -0.905366 -1.638979 -0.052490 -0.934570 0.351807 0.015511 0.828613 1 0 1.0
0 -2.855868 -1.109047 -2.406295 -0.052490 -0.934570 0.351807 0.015511 0.828613 1 0 1.0
0 -1.085141 -1.408388 -2.937512 -0.052490 -0.934570 0.351807 0.015511 0.828613 1 0 1.0
Default
0 -4.941390 -1.145145 -2.819464 0.019882 -0.999512 -0.013023 0.015511 0.828613 1 0 1.0
0 -2.737819 -1.088758 -3.783527 0.019882 -0.999512 -0.013023 0.015511 0.828613 1 0 1.0
0 -2.855868 -1.109047 -2.406295 0.019882 -0.999512 -0.013023 0.015511 0.828613 1 0 1.0
Default
0 -2.855868 -1.109047 -2.406295 -0.137817 -0.645020 0.751953 0.015511 0.828613 1 0 1.0
0 -2.718144 -0.615849 -1.957908 -0.137817 -0.645020 0.751953 0.015511 0.828613 1 0 1.0
0 -4.941390 -1.145145 -2.819464 -0.137817 -0.645020 0.751953 0.015511 0.828613 1 0 1.0
Default
0 -5.610332 -1.004742 -1.875076 -0.472168 -0.881348 0.010529 0.015511 0.828613 1 0 1.0
0 -6.305787 -0.629617 -1.651668 -0.472168 -0.881348 0.010529 0.015511 0.828613 1 0 1.0
0 -6.347090 -0.619583 -2.663803 -0.472168 -0.881348 0.010529 0.015511 0.828613 1 0 1.0
Default
0 -5.610332 -1.004742 -1.875076 -0.320312 -0.846680 0.424561 0.015511 0.828613 1 0 1.0
0 -5.697926 -0.475333 -0.885332 -0.320312 -0.846680 0.424561 0.015511 0.828613 1 0 1.0
0 -6.305787 -0.629617 -1.651668 -0.320312 -0.846680 0.424561 0.015511 0.828613 1 0 1.0
Default
0 -6.347090 -0.619583 -2.663803 -0.359131 -0.925781 -0.116699 0.015511 0.828613 1 0 1.0
0 -4.941390 -1.145145 -2.819464 -0.359131 -0.925781 -0.116699 0.015511 0.828613 1 0 1.0
0 -5.610332 -1.004742 -1.875076 -0.359131 -0.925781 -0.116699 0.015511 0.828613 1 0 1.0
Default
0 0.539494 -1.330617 -4.931040 -0.155396 -0.980957 -0.116577 0.015511 0.828613 1 0 1.0
0 1.669323 -1.585121 -4.295068 -0.155396 -0.980957 -0.116577 0.015511 0.828613 1 0 1.0
0 0.783959 -1.557123 -3.350681 -0.155396 -0.980957 -0.116577 0.015511 0.828613 1 0 1.0
Default
0 3.364777 -1.755201 -2.331703 -0.144043 -0.954590 -0.260498 0.013931 0.888184 1 0 1.0
0 1.905420 -1.444939 -2.662066 -0.144043 -0.954590 -0.260498 0.013931 0.888184 1 0 1.0
0 3.577773 -1.444939 -3.586778 -0.144043 -0.954590 -0.260498 0.013931 0.888184 1 0 1.0
Default
0 2.446623 -2.028831 -1.511922 -0.369629 -0.887207 -0.276367 0.013931 0.888184 1 0 1.0
0 0.626563 -1.200000 -1.737354 -0.369629 -0.887207 -0.276367 0.013931 0.888184 1 0 1.0
0 1.905420 -1.444939 -2.662066 -0.369629 -0.887207 -0.276367 0.013931 0.888184 1 0 1.0
Default
0 -0.520984 -0.777863 -0.495394 -0.134888 -0.969238 0.204834 0.015511 0.828613 1 0 1.0
0 -1.340913 -0.905366 -1.638979 -0.134888 -0.969238 0.204834 0.015511 0.828613 1 0 1.0
0 0.626563 -1.200000 -1.737354 -0.134888 -0.969238 0.204834 0.015511 0.828613 1 0 1.0
Default
0 0.626563 -1.200000 -1.737354 -0.366455 -0.930176 -0.022430 0.013931 0.888184 1 0 1.0
0 1.282534 -1.478484 -0.905284 -0.366455 -0.930176 -0.022430 0.013931 0.888184 1 0 1.0
0 -0.520984 -0.777863 -0.495394 -0.366455 -0.930176 -0.022430 0.013931 0.888184 1 0 1.0
Default
0 0.626563 -1.200000 -1.737354 -0.416748 -0.908691 0.024490 0.013931 0.888184 1 0 1.0
0 2.446623 -2.028831 -1.511922 -0.416748 -0.908691 0.024490 0.013931 0.888184 1 0 1.0
0 1.282534 -1.478484 -0.905284 -0.416748 -0.908691 0.024490 0.013931 0.888184 1 0 1.0
Default
0 1.905420 -1.444939 -2.662066 -0.098999 -0.905273 -0.413086 0.013931 0.888184 1 0 1.0
0 3.364777 -1.755201 -2.331703 -0.098999 -0.905273 -0.413086 0.013931 0.888184 1 0 1.0
0 2.446623 -2.028831 -1.511922 -0.098999 -0.905273 -0.413086 0.013931 0.888184 1 0 1.0
Default
0 3.577773 -1.444939 -3.586778 0.110657 -0.969238 -0.220825 0.013931 0.888184 1 0 1.0
0 5.020734 -1.199999 -3.938473 0.110657 -0.969238 -0.220825 0.013931 0.888184 1 0 1.0
0 3.364777 -1.755201 -2.331703 0.110657 -0.969238 -0.220825 0.013931 0.888184 1 0 1.0
Default
0 3.577773 -1.444939 -3.586778 0.218628 -0.946289 0.238037 0.015511 0.828613 1 0 1.0
0 4.261539 -1.607175 -4.859878 0.218628 -0.946289 0.238037 0.015511 0.828613 1 0 1.0
0 5.020734 -1.199999 -3.938473 0.218628 -0.946289 0.238037 0.015511 0.828613 1 0 1.0
Default
0 3.577773 -1.444939 -3.586778 0.057190 -0.985840 0.156372 0.015511 0.828613 1 0 1.0
0 2.943146 -1.683905 -4.861623 0.057190 -0.985840 0.156372 0.015511 0.828613 1 0 1.0
0 4.261539 -1.607175 -4.859878 0.057190 -0.985840 0.156372 0.015511 0.828613 1 0 1.0
Default
0 1.669323 -1.585121 -4.295068 -0.202881 -0.934082 -0.293213 0.015511 0.828613 1 0 1.0
0 1.737537 -1.330617 -5.153253 -0.202881 -0.934082 -0.293213 0.015511 0.828613 1 0 1.0
0 2.943146 -1.683905 -4.861623 -0.202881 -0.934082 -0.293213 0.015511 0.828613 1 0 1.0
Default
0 1.669323 -1.585121 -4.295068 -0.053375 -0.956055 -0.287842 0.015511 0.828613 1 0 1.0
0 0.539494 -1.330617 -4.931040 -0.053375 -0.956055 -0.287842 0.015511 0.828613 1 0 1.0
0 1.737537 -1.330617 -5.153253 -0.053375 -0.956055 -0.287842 0.015511 0.828613 1 0 1.0
Default
0 -2.718144 -0.615849 -1.957908 -0.099915 -0.994141 0.039948 0.015511 0.828613 1 0 1.0
0 -0.520984 -0.777863 -0.495394 -0.099915 -0.994141 0.039948 0.015511 0.828613 1 0 1.0
0 -4.400638 -0.415714 -1.184888 -0.099915 -0.994141 0.039948 0.015511 0.828613 1 0 1.0
Default
0 -2.718144 -0.615849 -1.957908 -0.260742 -0.920898 0.289551 0.015511 0.828613 1 0 1.0
0 -1.340913 -0.905366 -1.638979 -0.260742 -0.920898 0.289551 0.015511 0.828613 1 0 1.0
0 -0.520984 -0.777863 -0.495394 -0.260742 -0.920898 0.289551 0.015511 0.828613 1 0 1.0
Default
0 -1.085141 -1.408388 -2.937512 -0.122925 -0.933105 0.337402 0.015511 0.828613 1 0 1.0
0 0.626563 -1.200000 -1.737354 -0.122925 -0.933105 0.337402 0.015511 0.828613 1 0 1.0
0 -1.340913 -0.905366 -1.638979 -0.122925 -0.933105 0.337402 0.015511 0.828613 1 0 1.0
Default
0 -1.085141 -1.408388 -2.937512 -0.081177 -0.996582 -0.008469 0.015511 0.828613 1 0 1.0
0 -0.534247 -1.440220 -4.472142 -0.081177 -0.996582 -0.008469 0.015511 0.828613 1 0 1.0
0 0.783959 -1.557123 -3.350681 -0.081177 -0.996582 -0.008469 0.015511 0.828613 1 0 1.0
Default
0 -2.855868 -1.109047 -2.406295 -0.297852 -0.595215 0.746094 0.015511 0.828613 1 0 1.0
0 -1.340913 -0.905366 -1.638979 -0.297852 -0.595215 0.746094 0.015511 0.828613 1 0 1.0
0 -2.718144 -0.615849 -1.957908 -0.297852 -0.595215 0.746094 0.015511 0.828613 1 0 1.0
Default
0 -2.718144 -0.615849 -1.957908 0.136108 -0.961426 0.239380 0.015511 0.828613 1 0 1.0
0 -5.610332 -1.004742 -1.875076 0.136108 -0.961426 0.239380 0.015511 0.828613 1 0 1.0
0 -4.941390 -1.145145 -2.819464 0.136108 -0.961426 0.239380 0.015511 0.828613 1 0 1.0
Default
0 -2.142090 0.861410 1.610723 0.732910 0.674316 0.089783 0.985352 0.547363 1 0 1.0
0 -2.539910 1.344164 1.232331 0.732910 0.674316 0.089783 0.985352 0.547363 1 0 1.0
0 -2.625068 1.344163 1.927406 0.732910 0.674316 0.089783 0.985352 0.547363 1 0 1.0
Default
0 -3.998691 1.175084 1.223533 -0.405273 0.905273 -0.126099 0.985352 0.547363 1 0 1.0
0 -3.133004 1.321380 -0.507843 -0.405273 0.905273 -0.126099 0.985352 0.547363 1 0 1.0
0 -4.789086 0.544171 -0.766904 -0.405273 0.905273 -0.126099 0.985352 0.547363 1 0 1.0
Default
0 -2.142090 0.861410 1.610723 0.312256 0.719238 -0.620117 0.985352 0.547363 1 0 1.0
0 -2.625068 1.344163 1.927406 0.312256 0.719238 -0.620117 0.985352 0.547363 1 0 1.0
0 -2.038080 1.174875 2.026642 0.312256 0.719238 -0.620117 0.985352 0.547363 1 0 1.0
Default
0 6.464850 0.978695 -2.629444 0.680176 0.725098 -0.105225 0.985352 0.547363 1 0 1.0
0 5.137887 2.165268 -3.031439 0.680176 0.725098 -0.105225 0.985352 0.547363 1 0 1.0
0 5.137887 2.305678 -2.063443 0.680176 0.725098 -0.105225 0.985352 0.547363 1 0 1.0
Default
0 -2.259053 1.276740 2.240695 -0.051971 0.961914 0.267822 0.985352 0.547363 1 0 1.0
0 -2.625068 1.344163 1.927406 -0.051971 0.961914 0.267822 0.985352 0.547363 1 0 1.0
0 -2.334140 1.217694 2.438259 -0.051971 0.961914 0.267822 0.985352 0.547363 1 0 1.0
Default
0 -3.605197 1.175084 2.514194 -0.017548 0.968262 0.249634 0.985352 0.547363 1 0 1.0
0 -2.334140 1.217694 2.438259 0.002790 0.958008 0.287354 0.985352 0.547363 1 0 1.0
0 -2.625068 1.344163 1.927406 -0.051971 0.961914 0.267822 0.985352 0.547363 1 0 1.0
Default
0 -2.334140 1.217694 2.438259 0.002790 0.958008 0.287354 0.985352 0.547363 1 0 1.0
0 -1.444649 1.276740 2.232789 0.002790 0.958008 0.287354 0.985352 0.547363 1 0 1.0
0 -2.259053 1.276740 2.240695 0.002790 0.958008 0.287354 0.985352 0.547363 1 0 1.0
Default
0 -3.998691 1.175084 1.223533 -0.115234 0.993164 0.026276 0.985352 0.547363 1 0 1.0
0 -3.605197 1.175084 2.514194 -0.144165 0.988770 0.043976 0.985352 0.547363 1 0 1.0
0 -2.625068 1.344163 1.927406 -0.144165 0.988770 0.043976 0.985352 0.547363 1 0 1.0
Default
0 -3.133004 1.321380 -0.507843 -0.115234 0.993164 0.026276 0.985352 0.547363 1 0 1.0
0 -3.998691 1.175084 1.223533 -0.115234 0.993164 0.026276 0.985352 0.547363 1 0 1.0
0 -2.539910 1.344164 1.232331 -0.115234 0.993164 0.026276 0.985352 0.547363 1 0 1.0
Default
0 -3.998691 1.175084 1.223533 -0.115234 0.993164 0.026276 0.985352 0.547363 1 0 1.0
0 -2.625068 1.344163 1.927406 -0.115051 0.993164 -0.014091 0.985352 0.547363 1 0 1.0
0 -2.539910 1.344164 1.232331 -0.115234 0.993164 0.026276 0.985352 0.547363 1 0 1.0
Default
0 -1.531087 1.344164 1.754759 -0.225586 0.958008 0.175903 0.985352 0.547363 1 0 1.0
0 -2.038080 1.174875 2.026642 -0.225586 0.958008 0.175903 0.985352 0.547363 1 0 1.0
0 -1.444649 1.276740 2.232789 -0.225586 0.958008 0.175903 0.985352 0.547363 1 0 1.0
Default
0 1.088552 1.937595 -0.958915 -0.490234 0.871094 -0.021347 0.985352 0.547363 1 0 1.0
0 2.517213 2.749750 -0.623253 -0.490234 0.871094 -0.021347 0.985352 0.547363 1 0 1.0
0 2.290896 2.600119 -1.532760 -0.490234 0.871094 -0.021347 0.985352 0.547363 1 0 1.0
Default
0 -0.991434 1.217694 2.558528 -0.525879 0.836914 -0.151733 0.985352 0.547363 1 0 1.0
0 -0.788142 1.573279 3.815366 -0.525879 0.836914 -0.151733 0.985352 0.547363 1 0 1.0
0 0.958974 2.457412 2.634883 -0.525879 0.836914 -0.151733 0.985352 0.547363 1 0 1.0
Default
0 3.083845 2.177666 2.752930 0.292725 0.681641 0.670410 0.985352 0.547363 1 0 1.0
0 1.242290 2.039188 3.697318 0.292725 0.681641 0.670410 0.985352 0.547363 1 0 1.0
0 3.539876 0.708911 4.046841 0.292725 0.681641 0.670410 0.985352 0.547363 1 0 1.0
Default
0 3.910184 2.638792 0.864157 0.000993 0.995117 -0.099243 0.985352 0.547363 1 0 1.0
0 1.572826 2.546919 -0.080232 0.000993 0.995117 -0.099243 0.985352 0.547363 1 0 1.0
0 1.478387 2.685964 1.312741 0.000993 0.995117 -0.099243 0.985352 0.547363 1 0 1.0
Default
0 3.603259 2.749750 -1.402372 0.100586 0.984863 0.140259 0.985352 0.547363 1 0 1.0
0 2.517213 2.749750 -0.623253 0.100586 0.984863 0.140259 0.985352 0.547363 1 0 1.0
0 4.524036 2.544762 -0.623253 0.100586 0.984863 0.140259 0.985352 0.547363 1 0 1.0
Default
0 -3.998691 1.175084 1.223533 -0.477539 0.874023 -0.087524 0.985352 0.547363 1 0 1.0
0 -4.789086 0.544171 -0.766904 -0.477539 0.874023 -0.087524 0.985352 0.547363 1 0 1.0
0 -5.339977 0.406079 0.859538 -0.477539 0.874023 -0.087524 0.985352 0.547363 1 0 1.0
Default
0 -3.133004 1.321380 -0.507843 -0.331543 0.845703 -0.417725 0.985352 0.547363 1 0 1.0
0 -3.110177 0.690801 -1.803106 -0.331543 0.845703 -0.417725 0.985352 0.547363 1 0 1.0
0 -4.789086 0.544171 -0.766904 -0.331543 0.845703 -0.417725 0.985352 0.547363 1 0 1.0
Default
0 -1.763642 1.595832 -0.271747 0.090698 0.820312 -0.564453 0.985352 0.547363 1 0 1.0
0 -0.985308 0.825965 -1.265331 0.090698 0.820312 -0.564453 0.985352 0.547363 1 0 1.0
0 -3.110177 0.690801 -1.803106 0.090698 0.820312 -0.564453 0.985352 0.547363 1 0 1.0
Default
0 -1.763642 1.595832 -0.271747 -0.103760 0.893555 -0.436768 0.985352 0.547363 1 0 1.0
0 -3.110177 0.690801 -1.803106 -0.103760 0.893555 -0.436768 0.985352 0.547363 1 0 1.0
0 -3.133004 1.321380 -0.507843 -0.103760 0.893555 -0.436768 0.985352 0.547363 1 0 1.0
Default
0 -1.763642 1.595832 -0.271747 0.041290 0.805176 -0.591797 0.985352 0.547363 1 0 1.0
0 -0.541898 1.275934 -0.621895 0.041290 0.805176 -0.591797 0.985352 0.547363 1 0 1.0
0 -0.985308 0.825965 -1.265331 0.041290 0.805176 -0.591797 0.985352 0.547363 1 0 1.0
Default
0 -0.865010 1.738697 1.115916 -0.156982 0.946777 -0.281250 0.985352 0.547363 1 0 1.0
0 -0.037778 1.908132 1.224443 -0.156982 0.946777 -0.281250 0.985352 0.547363 1 0 1.0
0 -0.541898 1.275934 -0.621895 -0.156982 0.946777 -0.281250 0.985352 0.547363 1 0 1.0
Default
0 -0.865010 1.738697 1.115916 0.187622 0.957520 -0.220093 0.985352 0.547363 1 0 1.0
0 -0.541898 1.275934 -0.621895 0.187622 0.957520 -0.220093 0.985352 0.547363 1 0 1.0
0 -1.763642 1.595832 -0.271747 0.187622 0.957520 -0.220093 0.985352 0.547363 1 0 1.0
Default
0 -0.865010 1.738697 1.115916 -0.229736 0.921875 0.312744 0.985352 0.547363 1 0 1.0
0 -0.991434 1.217694 2.558528 -0.229736 0.921875 0.312744 0.985352 0.547363 1 0 1.0
0 -0.037778 1.908132 1.224443 -0.229736 0.921875 0.312744 0.985352 0.547363 1 0 1.0
Default
0 -1.847114 1.344164 1.213927 0.020676 0.627441 0.778320 0.985352 0.547363 1 0 1.0
0 -2.539910 1.344164 1.232331 0.020676 0.627441 0.778320 0.985352 0.547363 1 0 1.0
0 -2.142090 0.861410 1.610723 0.020676 0.627441 0.778320 0.985352 0.547363 1 0 1.0
Default
0 -2.142090 0.861410 1.610723 -0.628418 0.685547 0.367188 0.985352 0.547363 1 0 1.0
0 -1.531087 1.344164 1.754759 -0.628418 0.685547 0.367188 0.985352 0.547363 1 0 1.0
0 -1.847114 1.344164 1.213927 -0.628418 0.685547 0.367188 0.985352 0.547363 1 0 1.0
Default
0 -2.142090 0.861410 1.610723 -0.488770 0.750977 -0.443848 0.985352 0.547363 1 0 1.0
0 -2.038080 1.174875 2.026642 -0.488770 0.750977 -0.443848 0.985352 0.547363 1 0 1.0
0 -1.531087 1.344164 1.754759 -0.488770 0.750977 -0.443848 0.985352 0.547363 1 0 1.0
Default
0 -1.763642 1.595832 -0.271747 -0.357422 0.923828 0.136475 0.985352 0.547363 1 0 1.0
0 -1.847114 1.344164 1.213927 -0.357422 0.923828 0.136475 0.985352 0.547363 1 0 1.0
0 -0.865010 1.738697 1.115916 -0.357422 0.923828 0.136475 0.985352 0.547363 1 0 1.0
Default
0 -1.763642 1.595832 -0.271747 0.004444 0.985840 0.167236 0.985352 0.547363 1 0 1.0
0 -2.539910 1.344164 1.232331 0.004444 0.985840 0.167236 0.985352 0.547363 1 0 1.0
0 -1.847114 1.344164 1.213927 0.004444 0.985840 0.167236 0.985352 0.547363 1 0 1.0
Default
0 -2.539910 1.344164 1.232331 -0.205688 0.977051 0.057312 0.985352 0.547363 1 0 1.0
0 -1.763642 1.595832 -0.271747 -0.205688 0.977051 0.057312 0.985352 0.547363 1 0 1.0
0 -3.133004 1.321380 -0.507843 -0.205688 0.977051 0.057312 0.985352 0.547363 1 0 1.0
Default
0 5.137887 2.165268 -3.031439 0.674316 0.736816 -0.050507 0.985352 0.547363 1 0 1.0
0 6.464850 0.978695 -2.629444 0.674316 0.736816 -0.050507 0.985352 0.547363 1 0 1.0
0 6.241869 1.065868 -4.334586 0.674316 0.736816 -0.050507 0.985352 0.547363 1 0 1.0
Default
0 5.137887 2.305678 -2.063443 0.726074 0.678711 0.111206 0.985352 0.547363 1 0 1.0
0 6.228753 0.870165 -0.425876 0.726074 0.678711 0.111206 0.985352 0.547363 1 0 1.0
0 6.464850 0.978695 -2.629444 0.726074 0.678711 0.111206 0.985352 0.547363 1 0 1.0
Default
0 5.114581 1.852256 -4.165163 0.532227 0.813477 -0.235474 0.985352 0.547363 1 0 1.0
0 5.137887 2.165268 -3.031439 0.532227 0.813477 -0.235474 0.985352 0.547363 1 0 1.0
0 6.241869 1.065868 -4.334586 0.532227 0.813477 -0.235474 0.985352 0.547363 1 0 1.0
Default
0 5.137887 2.305678 -2.063443 0.680176 0.712891 0.171631 0.985352 0.547363 1 0 1.0
0 4.524036 2.544762 -0.623253 0.680176 0.712891 0.171631 0.985352 0.547363 1 0 1.0
0 6.228753 0.870165 -0.425876 0.680176 0.712891 0.171631 0.985352 0.547363 1 0 1.0
Default
0 5.114581 1.852256 -4.165163 0.128540 0.955078 -0.266357 0.985352 0.547363 1 0 1.0
0 3.274631 2.600119 -2.370757 0.128540 0.955078 -0.266357 0.985352 0.547363 1 0 1.0
0 5.137887 2.165268 -3.031439 0.128540 0.955078 -0.266357 0.985352 0.547363 1 0 1.0
Default
0 -0.991434 1.217694 2.558528 -0.114014 0.937500 0.328613 0.985352 0.547363 1 0 1.0
0 -0.865010 1.738697 1.115916 -0.114014 0.937500 0.328613 0.985352 0.547363 1 0 1.0
0 -1.444649 1.276740 2.232789 -0.114014 0.937500 0.328613 0.985352 0.547363 1 0 1.0
Default
0 -2.259053 1.276740 2.240695 0.296631 0.944336 -0.143188 0.985352 0.547363 1 0 1.0
0 -2.038080 1.174875 2.026642 0.296631 0.944336 -0.143188 0.985352 0.547363 1 0 1.0
0 -2.625068 1.344163 1.927406 0.296631 0.944336 -0.143188 0.985352 0.547363 1 0 1.0
Default
0 -2.334140 1.217694 2.438259 -0.018158 0.979004 0.202759 0.985352 0.547363 1 0 1.0
0 -0.991434 1.217694 2.558528 -0.018158 0.979004 0.202759 0.985352 0.547363 1 0 1.0
0 -1.444649 1.276740 2.232789 -0.018158 0.979004 0.202759 0.985352 0.547363 1 0 1.0
Default
0 -2.038080 1.174875 2.026642 -0.004208 0.901367 -0.433350 0.985352 0.547363 1 0 1.0
0 -2.259053 1.276740 2.240695 -0.004208 0.901367 -0.433350 0.985352 0.547363 1 0 1.0
0 -1.444649 1.276740 2.232789 -0.004208 0.901367 -0.433350 0.985352 0.547363 1 0 1.0
Default
0 -0.541898 1.275934 -0.621895 -0.476562 0.863281 -0.165527 0.985352 0.547363 1 0 1.0
0 -0.037778 1.908132 1.224443 -0.476562 0.863281 -0.165527 0.985352 0.547363 1 0 1.0
0 1.572826 2.546919 -0.080232 -0.476562 0.863281 -0.165527 0.985352 0.547363 1 0 1.0
Default
0 0.958974 2.457412 2.634883 -0.537109 0.841797 0.051727 0.985352 0.547363 1 0 1.0
0 -0.037778 1.908132 1.224443 -0.537109 0.841797 0.051727 0.985352 0.547363 1 0 1.0
0 -0.991434 1.217694 2.558528 -0.537109 0.841797 0.051727 0.985352 0.547363 1 0 1.0
Default
0 0.958974 2.457412 2.634883 -0.455078 0.890137 -0.024963 0.985352 0.547363 1 0 1.0
0 1.478387 2.685964 1.312741 -0.455078 0.890137 -0.024963 0.985352 0.547363 1 0 1.0
0 -0.037778 1.908132 1.224443 -0.455078 0.890137 -0.024963 0.985352 0.547363 1 0 1.0
Default
0 0.958974 2.457412 2.634883 0.115845 0.970215 0.213257 0.985352 0.547363 1 0 1.0
0 3.083845 2.177666 2.752930 0.115845 0.970215 0.213257 0.985352 0.547363 1 0 1.0
0 1.478387 2.685964 1.312741 0.115845 0.970215 0.213257 0.985352 0.547363 1 0 1.0
Default
0 -0.788142 1.573279 3.815366 -0.182495 0.897461 0.401855 0.985352 0.547363 1 0 1.0
0 1.242290 2.039188 3.697318 -0.182495 0.897461 0.401855 0.985352 0.547363 1 0 1.0
0 0.958974 2.457412 2.634883 -0.182495 0.897461 0.401855 0.985352 0.547363 1 0 1.0
Default
0 -0.991434 1.217694 2.558528 -0.170166 0.955078 -0.242676 0.985352 0.547363 1 0 1.0
0 -2.649907 1.174875 3.553074 -0.170166 0.955078 -0.242676 0.985352 0.547363 1 0 1.0
0 -0.788142 1.573279 3.815366 -0.170166 0.955078 -0.242676 0.985352 0.547363 1 0 1.0
Default
0 -0.788142 1.573279 3.815366 -0.244141 0.894531 0.374512 0.985352 0.547363 1 0 1.0
0 -2.649907 1.174875 3.553074 -0.244141 0.894531 0.374512 0.985352 0.547363 1 0 1.0
0 -3.005245 0.552709 4.807597 -0.244141 0.894531 0.374512 0.985352 0.547363 1 0 1.0
Default
0 3.083845 2.177666 2.752930 0.104126 0.934570 0.340088 0.985352 0.547363 1 0 1.0
0 0.958974 2.457412 2.634883 0.104126 0.934570 0.340088 0.985352 0.547363 1 0 1.0
0 1.242290 2.039188 3.697318 0.104126 0.934570 0.340088 0.985352 0.547363 1 0 1.0
Default
0 1.242290 2.039188 3.697318 0.270020 0.652344 0.708008 0.985352 0.547363 1 0 1.0
0 0.273874 0.708911 5.292906 0.270020 0.652344 0.708008 0.985352 0.547363 1 0 1.0
0 3.539876 0.708911 4.046841 0.270020 0.652344 0.708008 0.985352 0.547363 1 0 1.0
Default
0 4.524036 2.544762 -0.623253 0.657715 0.701660 0.274170 0.985352 0.547363 1 0 1.0
0 5.428648 0.713024 1.895739 0.657715 0.701660 0.274170 0.985352 0.547363 1 0 1.0
0 6.228753 0.870165 -0.425876 0.657715 0.701660 0.274170 0.985352 0.547363 1 0 1.0
Default
0 3.083845 2.177666 2.752930 0.582031 0.631836 0.512207 0.985352 0.547363 1 0 1.0
0 3.539876 0.708911 4.046841 0.582031 0.631836 0.512207 0.985352 0.547363 1 0 1.0
0 5.428648 0.713024 1.895739 0.582031 0.631836 0.512207 0.985352 0.547363 1 0 1.0
Default
0 5.428648 0.713024 1.895739 0.693848 0.677734 0.243530 0.985352 0.547363 1 0 1.0
0 4.524036 2.544762 -0.623253 0.693848 0.677734 0.243530 0.985352 0.547363 1 0 1.0
0 3.910184 2.638792 0.864157 0.693848 0.677734 0.243530 0.985352 0.547363 1 0 1.0
Default
0 3.910184 2.638792 0.864157 0.067444 0.961914 0.264404 0.985352 0.547363 1 0 1.0
0 1.478387 2.685964 1.312741 0.067444 0.961914 0.264404 0.985352 0.547363 1 0 1.0
0 3.083845 2.177666 2.752930 0.067444 0.961914 0.264404 0.985352 0.547363 1 0 1.0
Default
0 5.428648 0.713024 1.895739 0.586426 0.689941 0.424805 0.985352 0.547363 1 0 1.0
0 3.910184 2.638792 0.864157 0.586426 0.689941 0.424805 0.985352 0.547363 1 0 1.0
0 3.083845 2.177666 2.752930 0.586426 0.689941 0.424805 0.985352 0.547363 1 0 1.0
Default
0 1.572826 2.546919 -0.080232 -0.447754 0.886230 -0.118835 0.985352 0.547363 1 0 1.0
0 -0.037778 1.908132 1.224443 -0.447754 0.886230 -0.118835 0.985352 0.547363 1 0 1.0
0 1.478387 2.685964 1.312741 -0.447754 0.886230 -0.118835 0.985352 0.547363 1 0 1.0
Default
0 2.517213 2.749750 -0.623253 0.101624 0.994629 -0.020950 0.985352 0.547363 1 0 1.0
0 3.910184 2.638792 0.864157 0.101624 0.994629 -0.020950 0.985352 0.547363 1 0 1.0
0 4.524036 2.544762 -0.623253 0.101624 0.994629 -0.020950 0.985352 0.547363 1 0 1.0
Default
0 2.517213 2.749750 -0.623253 -0.109314 0.978516 0.175415 0.985352 0.547363 1 0 1.0
0 1.572826 2.546919 -0.080232 -0.109314 0.978516 0.175415 0.985352 0.547363 1 0 1.0
0 3.910184 2.638792 0.864157 -0.109314 0.978516 0.175415 0.985352 0.547363 1 0 1.0
Default
0 3.274631 2.600119 -2.370757 0.177246 0.974121 -0.141235 0.985352 0.547363 1 0 1.0
0 5.137887 2.305678 -2.063443 0.177246 0.974121 -0.141235 0.985352 0.547363 1 0 1.0
0 5.137887 2.165268 -3.031439 0.177246 0.974121 -0.141235 0.985352 0.547363 1 0 1.0
Default
0 3.603259 2.749750 -1.402372 0.257568 0.964844 -0.050446 0.985352 0.547363 1 0 1.0
0 4.524036 2.544762 -0.623253 0.257568 0.964844 -0.050446 0.985352 0.547363 1 0 1.0
0 5.137887 2.305678 -2.063443 0.257568 0.964844 -0.050446 0.985352 0.547363 1 0 1.0
Default
0 5.137887 2.305678 -2.063443 0.186523 0.959473 -0.211548 0.985352 0.547363 1 0 1.0
0 3.274631 2.600119 -2.370757 0.186523 0.959473 -0.211548 0.985352 0.547363 1 0 1.0
0 3.603259 2.749750 -1.402372 0.186523 0.959473 -0.211548 0.985352 0.547363 1 0 1.0
Default
0 2.943146 1.683905 -4.861623 0.396484 -0.371338 -0.839355 0.013931 0.888184 1 0 1.0
0 3.069656 0.000000 -4.056970 0.396484 -0.371338 -0.839355 0.013931 0.888184 1 0 1.0
0 1.626842 0.000000 -4.738520 0.396484 -0.371338 -0.839355 0.013931 0.888184 1 0 1.0
Default
0 -6.347090 0.619583 -2.663803 -0.982910 0.184814 0.009819 0.015511 0.828613 1 0 1.0
0 -6.464850 0.000000 -2.789868 -0.982910 0.184814 0.009819 0.015511 0.828613 1 0 1.0
0 -6.453008 0.000000 -1.604375 -0.982910 0.184814 0.009819 0.015511 0.828613 1 0 1.0
Default
0 0.539494 1.330617 -4.931040 -0.175049 -0.279785 -0.943848 0.013931 0.888184 1 0 1.0
0 1.737537 1.330617 -5.153253 -0.175049 -0.279785 -0.943848 0.013931 0.888184 1 0 1.0
0 1.626842 0.000000 -4.738520 -0.175049 -0.279785 -0.943848 0.013931 0.888184 1 0 1.0
Default
0 0.539494 1.330617 -4.931040 0.286865 -0.533691 -0.795410 0.013931 0.888184 1 0 1.0
0 0.397170 0.000000 -4.089327 0.286865 -0.533691 -0.795410 0.013931 0.888184 1 0 1.0
0 -1.275182 0.000000 -4.692305 0.286865 -0.533691 -0.795410 0.013931 0.888184 1 0 1.0
Default
0 -5.697926 0.475333 -0.885332 0.320068 0.309326 0.895508 0.015511 0.828613 1 0 1.0
0 -5.712928 0.000000 -0.715824 0.320068 0.309326 0.895508 0.015511 0.828613 1 0 1.0
0 -4.400638 0.000000 -1.184888 0.320068 0.309326 0.895508 0.015511 0.828613 1 0 1.0
Default
0 4.261539 1.607175 -4.859878 -0.475586 -0.084778 -0.875488 0.013931 0.888184 1 0 1.0
0 4.432613 0.000000 -4.797151 -0.475586 -0.084778 -0.875488 0.013931 0.888184 1 0 1.0
0 3.069656 0.000000 -4.056970 -0.475586 -0.084778 -0.875488 0.013931 0.888184 1 0 1.0
Default
0 -4.860357 0.885076 -4.008154 -0.421875 -0.353271 -0.834961 0.013931 0.888184 1 0 1.0
0 -3.362891 0.942346 -4.789222 -0.421875 -0.353271 -0.834961 0.013931 0.888184 1 0 1.0
0 -3.362891 0.000000 -4.390487 -0.421875 -0.353271 -0.834961 0.013931 0.888184 1 0 1.0
Default
0 -2.158800 1.140366 -4.697086 0.230713 -0.472412 -0.850586 0.013931 0.888184 1 0 1.0
0 -2.158800 0.000000 -4.063996 0.230713 -0.472412 -0.850586 0.013931 0.888184 1 0 1.0
0 -3.362891 0.000000 -4.390487 0.230713 -0.472412 -0.850586 0.013931 0.888184 1 0 1.0
Default
0 -2.158800 1.140366 -4.697086 -0.412354 -0.323242 -0.851562 0.013931 0.888184 1 0 1.0
0 -1.077511 1.330617 -5.292906 -0.412354 -0.323242 -0.851562 0.013931 0.888184 1 0 1.0
0 -1.275182 0.000000 -4.692305 -0.412354 -0.323242 -0.851562 0.013931 0.888184 1 0 1.0
Default
0 -6.347090 0.619583 -2.663803 -0.336426 0.934570 0.116272 0.015511 0.828613 1 0 1.0
0 -4.941390 1.145145 -2.819464 -0.336426 0.934570 0.116272 0.015511 0.828613 1 0 1.0
0 -5.763047 0.929471 -3.463933 -0.336426 0.934570 0.116272 0.015511 0.828613 1 0 1.0
Default
0 -2.737819 1.088758 -3.783527 -0.085571 0.992188 -0.091248 0.015511 0.828613 1 0 1.0
0 -3.362891 0.942346 -4.789222 -0.085571 0.992188 -0.091248 0.015511 0.828613 1 0 1.0
0 -4.860357 0.885076 -4.008154 -0.085571 0.992188 -0.091248 0.015511 0.828613 1 0 1.0
Default
0 1.669323 1.585121 -4.295068 0.004684 0.983398 0.182007 0.015511 0.828613 1 0 1.0
0 3.577773 1.444939 -3.586778 0.004684 0.983398 0.182007 0.015511 0.828613 1 0 1.0
0 2.943146 1.683905 -4.861623 0.004684 0.983398 0.182007 0.015511 0.828613 1 0 1.0
Default
0 -2.855868 1.109047 -2.406295 -0.052490 0.934570 0.351807 0.015511 0.828613 1 0 1.0
0 -1.340913 0.905366 -1.638979 -0.052490 0.934570 0.351807 0.015511 0.828613 1 0 1.0
0 -1.085141 1.408388 -2.937512 -0.052490 0.934570 0.351807 0.015511 0.828613 1 0 1.0
Default
0 -2.737819 1.088758 -3.783527 0.019882 0.999512 -0.013023 0.015511 0.828613 1 0 1.0
0 -4.941390 1.145145 -2.819464 0.019882 0.999512 -0.013023 0.015511 0.828613 1 0 1.0
0 -2.855868 1.109047 -2.406295 0.019882 0.999512 -0.013023 0.015511 0.828613 1 0 1.0
Default
0 -2.718144 0.615849 -1.957908 -0.137817 0.645020 0.751953 0.015511 0.828613 1 0 1.0
0 -2.855868 1.109047 -2.406295 -0.137817 0.645020 0.751953 0.015511 0.828613 1 0 1.0
0 -4.941390 1.145145 -2.819464 -0.137817 0.645020 0.751953 0.015511 0.828613 1 0 1.0
Default
0 -6.305787 0.629617 -1.651668 -0.472168 0.881348 0.010529 0.015511 0.828613 1 0 1.0
0 -5.610332 1.004742 -1.875076 -0.472168 0.881348 0.010529 0.015511 0.828613 1 0 1.0
0 -6.347090 0.619583 -2.663803 -0.472168 0.881348 0.010529 0.015511 0.828613 1 0 1.0
Default
0 -5.697926 0.475333 -0.885332 -0.320312 0.846680 0.424561 0.015511 0.828613 1 0 1.0
0 -5.610332 1.004742 -1.875076 -0.320312 0.846680 0.424561 0.015511 0.828613 1 0 1.0
0 -6.305787 0.629617 -1.651668 -0.320312 0.846680 0.424561 0.015511 0.828613 1 0 1.0
Default
0 -4.941390 1.145145 -2.819464 -0.359131 0.925781 -0.116699 0.015511 0.828613 1 0 1.0
0 -6.347090 0.619583 -2.663803 -0.359131 0.925781 -0.116699 0.015511 0.828613 1 0 1.0
0 -5.610332 1.004742 -1.875076 -0.359131 0.925781 -0.116699 0.015511 0.828613 1 0 1.0
Default
0 1.669323 1.585121 -4.295068 -0.155396 0.980957 -0.116577 0.015511 0.828613 1 0 1.0
0 0.539494 1.330617 -4.931040 -0.155396 0.980957 -0.116577 0.015511 0.828613 1 0 1.0
0 0.783959 1.557123 -3.350681 -0.155396 0.980957 -0.116577 0.015511 0.828613 1 0 1.0
Default
0 1.905420 1.444939 -2.662066 -0.144043 0.954590 -0.260498 0.013931 0.888184 1 0 1.0
0 3.364777 1.755201 -2.331703 -0.144043 0.954590 -0.260498 0.013931 0.888184 1 0 1.0
0 3.577773 1.444939 -3.586778 -0.144043 0.954590 -0.260498 0.013931 0.888184 1 0 1.0
Default
0 0.626563 1.200000 -1.737354 -0.369629 0.887207 -0.276367 0.013931 0.888184 1 0 1.0
0 2.446623 2.028831 -1.511922 -0.369629 0.887207 -0.276367 0.013931 0.888184 1 0 1.0
0 1.905420 1.444939 -2.662066 -0.369629 0.887207 -0.276367 0.013931 0.888184 1 0 1.0
Default
0 -1.340913 0.905366 -1.638979 -0.134888 0.969238 0.204834 0.015511 0.828613 1 0 1.0
0 -0.520984 0.777863 -0.495394 -0.134888 0.969238 0.204834 0.015511 0.828613 1 0 1.0
0 0.626563 1.200000 -1.737354 -0.134888 0.969238 0.204834 0.015511 0.828613 1 0 1.0
Default
0 1.282534 1.478484 -0.905284 -0.366455 0.930176 -0.022430 0.013931 0.888184 1 0 1.0
0 0.626563 1.200000 -1.737354 -0.366455 0.930176 -0.022430 0.013931 0.888184 1 0 1.0
0 -0.520984 0.777863 -0.495394 -0.366455 0.930176 -0.022430 0.013931 0.888184 1 0 1.0
Default
0 2.446623 2.028831 -1.511922 -0.416748 0.908691 0.024490 0.013931 0.888184 1 0 1.0
0 0.626563 1.200000 -1.737354 -0.416748 0.908691 0.024490 0.013931 0.888184 1 0 1.0
0 1.282534 1.478484 -0.905284 -0.416748 0.908691 0.024490 0.013931 0.888184 1 0 1.0
Default
0 3.364777 1.755201 -2.331703 -0.098999 0.905273 -0.413086 0.013931 0.888184 1 0 1.0
0 1.905420 1.444939 -2.662066 -0.098999 0.905273 -0.413086 0.013931 0.888184 1 0 1.0
0 2.446623 2.028831 -1.511922 -0.098999 0.905273 -0.413086 0.013931 0.888184 1 0 1.0
Default
0 5.020734 1.199999 -3.938473 0.110657 0.969238 -0.220825 0.013931 0.888184 1 0 1.0
0 3.577773 1.444939 -3.586778 0.110657 0.969238 -0.220825 0.013931 0.888184 1 0 1.0
0 3.364777 1.755201 -2.331703 0.110657 0.969238 -0.220825 0.013931 0.888184 1 0 1.0
Default
0 4.261539 1.607175 -4.859878 0.218628 0.946289 0.238037 0.015511 0.828613 1 0 1.0
0 3.577773 1.444939 -3.586778 0.218628 0.946289 0.238037 0.015511 0.828613 1 0 1.0
0 5.020734 1.199999 -3.938473 0.218628 0.946289 0.238037 0.015511 0.828613 1 0 1.0
Default
0 2.943146 1.683905 -4.861623 0.057190 0.985840 0.156372 0.015511 0.828613 1 0 1.0
0 3.577773 1.444939 -3.586778 0.057190 0.985840 0.156372 0.015511 0.828613 1 0 1.0
0 4.261539 1.607175 -4.859878 0.057190 0.985840 0.156372 0.015511 0.828613 1 0 1.0
Default
0 1.737537 1.330617 -5.153253 -0.202881 0.934082 -0.293213 0.015511 0.828613 1 0 1.0
0 1.669323 1.585121 -4.295068 -0.202881 0.934082 -0.293213 0.015511 0.828613 1 0 1.0
0 2.943146 1.683905 -4.861623 -0.202881 0.934082 -0.293213 0.015511 0.828613 1 0 1.0
Default
0 0.539494 1.330617 -4.931040 -0.053375 0.956055 -0.287842 0.015511 0.828613 1 0 1.0
0 1.669323 1.585121 -4.295068 -0.053375 0.956055 -0.287842 0.015511 0.828613 1 0 1.0
0 1.737537 1.330617 -5.153253 -0.053375 0.956055 -0.287842 0.015511 0.828613 1 0 1.0
Default
0 -0.520984 0.777863 -0.495394 -0.099915 0.994141 0.039948 0.015511 0.828613 1 0 1.0
0 -2.718144 0.615849 -1.957908 -0.099915 0.994141 0.039948 0.015511 0.828613 1 0 1.0
0 -4.400638 0.415714 -1.184888 -0.099915 0.994141 0.039948 0.015511 0.828613 1 0 1.0
Default
0 -1.340913 0.905366 -1.638979 -0.260742 0.920898 0.289551 0.015511 0.828613 1 0 1.0
0 -2.718144 0.615849 -1.957908 -0.260742 0.920898 0.289551 0.015511 0.828613 1 0 1.0
0 -0.520984 0.777863 -0.495394 -0.260742 0.920898 0.289551 0.015511 0.828613 1 0 1.0
Default
0 0.626563 1.200000 -1.737354 -0.122925 0.933105 0.337402 0.015511 0.828613 1 0 1.0
0 -1.085141 1.408388 -2.937512 -0.122925 0.933105 0.337402 0.015511 0.828613 1 0 1.0
0 -1.340913 0.905366 -1.638979 -0.122925 0.933105 0.337402 0.015511 0.828613 1 0 1.0
Default
0 -0.534247 1.440220 -4.472142 -0.081177 0.996582 -0.008469 0.015511 0.828613 1 0 1.0
0 -1.085141 1.408388 -2.937512 -0.081177 0.996582 -0.008469 0.015511 0.828613 1 0 1.0
0 0.783959 1.557123 -3.350681 -0.081177 0.996582 -0.008469 0.015511 0.828613 1 0 1.0
Default
0 -1.340913 0.905366 -1.638979 -0.297852 0.595215 0.746094 0.015511 0.828613 1 0 1.0
0 -2.855868 1.109047 -2.406295 -0.297852 0.595215 0.746094 0.015511 0.828613 1 0 1.0
0 -2.718144 0.615849 -1.957908 -0.297852 0.595215 0.746094 0.015511 0.828613 1 0 1.0
Default
0 -5.610332 1.004742 -1.875076 0.136108 0.961426 0.239380 0.015511 0.828613 1 0 1.0
0 -2.718144 0.615849 -1.957908 0.136108 0.961426 0.239380 0.015511 0.828613 1 0 1.0
0 -4.941390 1.145145 -2.819464 0.136108 0.961426 0.239380 0.015511 0.828613 1 0 1.0
Default
0 1.737537 -1.330617 -5.153253 0.307617 0.306396 -0.900879 0.013931 0.888184 1 0 1.0
0 1.626842 0.000000 -4.738520 0.307617 0.306396 -0.900879 0.013931 0.888184 1 0 1.0
0 2.943146 -1.683905 -4.861623 0.307617 0.306396 -0.900879 0.013931 0.888184 1 0 1.0
Default
0 -6.305787 -0.629617 -1.651668 -0.972656 -0.230225 0.037415 0.015511 0.828613 1 0 1.0
0 -6.453008 0.000000 -1.604375 -0.972656 -0.230225 0.037415 0.015511 0.828613 1 0 1.0
0 -6.347090 -0.619583 -2.663803 -0.972656 -0.230225 0.037415 0.015511 0.828613 1 0 1.0
Default
0 1.737537 -1.330617 -5.153253 -0.175049 0.279785 -0.943848 0.013931 0.888184 1 0 1.0
0 0.539494 -1.330617 -4.931040 -0.175049 0.279785 -0.943848 0.013931 0.888184 1 0 1.0
0 1.626842 0.000000 -4.738520 -0.175049 0.279785 -0.943848 0.013931 0.888184 1 0 1.0
Default
0 -1.077511 -1.330617 -5.292906 0.197388 0.427490 -0.882324 0.013931 0.888184 1 0 1.0
0 -1.275182 0.000000 -4.692305 0.197388 0.427490 -0.882324 0.013931 0.888184 1 0 1.0
0 0.539494 -1.330617 -4.931040 0.197388 0.427490 -0.882324 0.013931 0.888184 1 0 1.0
Default
0 -4.400638 -0.415714 -1.184888 0.224976 0.000000 0.974121 0.015511 0.828613 1 0 1.0
0 -4.400638 0.000000 -1.184888 0.224976 0.000000 0.974121 0.015511 0.828613 1 0 1.0
0 -5.697926 -0.475333 -0.885332 0.224976 0.000000 0.974121 0.015511 0.828613 1 0 1.0
Default
0 -4.400638 0.415714 -1.184888 0.224976 0.000000 0.974121 0.015511 0.828613 1 0 1.0
0 -5.697926 0.475333 -0.885332 0.224976 0.000000 0.974121 0.015511 0.828613 1 0 1.0
0 -4.400638 0.000000 -1.184888 0.224976 0.000000 0.974121 0.015511 0.828613 1 0 1.0
Default
0 2.943146 -1.683905 -4.861623 -0.023972 0.432373 -0.901367 0.013931 0.888184 1 0 1.0
0 3.069656 0.000000 -4.056970 -0.023972 0.432373 -0.901367 0.013931 0.888184 1 0 1.0
0 4.261539 -1.607175 -4.859878 -0.023972 0.432373 -0.901367 0.013931 0.888184 1 0 1.0
Default
0 4.261539 -1.607175 -4.859878 0.783203 -0.059204 -0.619141 0.013931 0.888184 1 0 1.0
0 4.432613 0.000000 -4.797151 0.783203 -0.059204 -0.619141 0.013931 0.888184 1 0 1.0
0 5.020734 -1.199999 -3.938473 0.783203 -0.059204 -0.619141 0.013931 0.888184 1 0 1.0
Default
0 -3.362891 -0.942346 -4.789222 -0.421875 0.353271 -0.834961 0.013931 0.888184 1 0 1.0
0 -4.860357 -0.885076 -4.008154 -0.421875 0.353271 -0.834961 0.013931 0.888184 1 0 1.0
0 -3.362891 0.000000 -4.390487 -0.421875 0.353271 -0.834961 0.013931 0.888184 1 0 1.0
Default
0 -3.362891 -0.942346 -4.789222 0.133301 0.386230 -0.912598 0.013931 0.888184 1 0 1.0
0 -3.362891 0.000000 -4.390487 0.133301 0.386230 -0.912598 0.013931 0.888184 1 0 1.0
0 -2.158800 -1.140366 -4.697086 0.133301 0.386230 -0.912598 0.013931 0.888184 1 0 1.0
Default
0 -1.077511 -1.330617 -5.292906 -0.412354 0.323242 -0.851562 0.013931 0.888184 1 0 1.0
0 -2.158800 -1.140366 -4.697086 -0.412354 0.323242 -0.851562 0.013931 0.888184 1 0 1.0
0 -1.275182 0.000000 -4.692305 -0.412354 0.323242 -0.851562 0.013931 0.888184 1 0 1.0
Default
0 1.737537 1.330617 -5.153253 0.307617 -0.306396 -0.900879 0.013931 0.888184 1 0 1.0
0 2.943146 1.683905 -4.861623 0.307617 -0.306396 -0.900879 0.013931 0.888184 1 0 1.0
0 1.626842 0.000000 -4.738520 0.307617 -0.306396 -0.900879 0.013931 0.888184 1 0 1.0
Default
0 -6.305787 0.629617 -1.651668 -0.972656 0.230225 0.037415 0.015511 0.828613 1 0 1.0
0 -6.347090 0.619583 -2.663803 -0.972656 0.230225 0.037415 0.015511 0.828613 1 0 1.0
0 -6.453008 0.000000 -1.604375 -0.972656 0.230225 0.037415 0.015511 0.828613 1 0 1.0
Default
0 0.397170 0.000000 -4.089327 -0.416016 -0.453857 -0.788086 0.013931 0.888184 1 0 1.0
0 0.539494 1.330617 -4.931040 -0.416016 -0.453857 -0.788086 0.013931 0.888184 1 0 1.0
0 1.626842 0.000000 -4.738520 -0.416016 -0.453857 -0.788086 0.013931 0.888184 1 0 1.0
Default
0 -1.077511 1.330617 -5.292906 0.197388 -0.427490 -0.882324 0.013931 0.888184 1 0 1.0
0 0.539494 1.330617 -4.931040 0.197388 -0.427490 -0.882324 0.013931 0.888184 1 0 1.0
0 -1.275182 0.000000 -4.692305 0.197388 -0.427490 -0.882324 0.013931 0.888184 1 0 1.0
Default
0 2.943146 1.683905 -4.861623 -0.023972 -0.432617 -0.901367 0.013931 0.888184 1 0 1.0
0 4.261539 1.607175 -4.859878 -0.023972 -0.432617 -0.901367 0.013931 0.888184 1 0 1.0
0 3.069656 0.000000 -4.056970 -0.023972 -0.432617 -0.901367 0.013931 0.888184 1 0 1.0
Default
0 -5.880072 0.000000 -3.804575 0.412598 0.267090 -0.870605 0.013931 0.888184 1 0 1.0
0 -5.763047 0.929471 -3.463933 0.412598 0.267090 -0.870605 0.013931 0.888184 1 0 1.0
0 -4.860357 0.000000 -3.321361 0.412598 0.267090 -0.870605 0.013931 0.888184 1 0 1.0
Default
0 4.261539 1.607175 -4.859878 0.783203 0.059204 -0.619141 0.013931 0.888184 1 0 1.0
0 5.020734 1.199999 -3.938473 0.783203 0.059204 -0.619141 0.013931 0.888184 1 0 1.0
0 4.432613 0.000000 -4.797151 0.783203 0.059204 -0.619141 0.013931 0.888184 1 0 1.0
Default
0 -3.362891 0.942346 -4.789222 0.133301 -0.386230 -0.912598 0.013931 0.888184 1 0 1.0
0 -2.158800 1.140366 -4.697086 0.133301 -0.386230 -0.912598 0.013931 0.888184 1 0 1.0
0 -3.362891 0.000000 -4.390487 0.133301 -0.386230 -0.912598 0.013931 0.888184 1 0 1.0
Default
0 -2.158800 0.000000 -4.063996 -0.527832 -0.412109 -0.742676 0.013931 0.888184 1 0 1.0
0 -2.158800 1.140366 -4.697086 -0.527832 -0.412109 -0.742676 0.013931 0.888184 1 0 1.0
0 -1.275182 0.000000 -4.692305 -0.527832 -0.412109 -0.742676 0.013931 0.888184 1 0 1.0
Default
0 1.088552 -1.937595 -0.958915 -0.430664 0.000000 -0.902344 0.985352 0.547363 1 0 1.0
0 1.088552 -0.382569 -0.958915 -0.430664 0.000000 -0.902344 0.985352 0.547363 1 0 1.0
0 2.290896 0.000000 -1.532760 -0.430664 0.000000 -0.902344 0.985352 0.547363 1 0 1.0
Default
0 2.290896 -2.600119 -1.532760 -0.430664 0.000000 -0.902344 0.985352 0.547363 1 0 1.0
0 1.088552 -1.937595 -0.958915 -0.430664 0.000000 -0.902344 0.985352 0.547363 1 0 1.0
0 2.290896 0.000000 -1.532760 -0.430664 0.000000 -0.902344 0.985352 0.547363 1 0 1.0
Default
0 1.088552 1.937595 -0.958915 -0.430664 0.000000 -0.902344 0.985352 0.547363 1 0 1.0
0 2.290896 2.600119 -1.532760 -0.430664 0.000000 -0.902344 0.985352 0.547363 1 0 1.0
0 2.290896 0.000000 -1.532760 -0.430664 0.000000 -0.902344 0.985352 0.547363 1 0 1.0
Default
0 1.088552 0.382569 -0.958915 -0.430664 0.000000 -0.902344 0.985352 0.547363 1 0 1.0
0 1.088552 1.937595 -0.958915 -0.430664 0.000000 -0.902344 0.985352 0.547363 1 0 1.0
0 2.290896 0.000000 -1.532760 -0.430664 0.000000 -0.902344 0.985352 0.547363 1 0 1.0
Default
0 -3.005245 -0.552709 4.807597 -0.388428 -0.864746 0.318848 0.985352 0.547363 1 0 1.0
0 -4.828435 -0.406079 2.984407 -0.388428 -0.864746 0.318848 0.985352 0.547363 1 0 1.0
0 -2.649907 -1.174875 3.553074 -0.388428 -0.864746 0.318848 0.985352 0.547363 1 0 1.0
Default
0 -2.649907 -1.174875 3.553074 -0.388428 -0.864746 0.318848 0.985352 0.547363 1 0 1.0
0 -4.828435 -0.406079 2.984407 -0.388428 -0.864746 0.318848 0.985352 0.547363 1 0 1.0
0 -3.605197 -1.175084 2.514194 -0.392822 -0.845703 0.361328 0.985352 0.547363 1 0 1.0
Default
0 -3.605197 -1.175084 2.514194 -0.031738 -0.999023 0.029388 0.985352 0.547363 1 0 1.0
0 -2.334140 -1.217694 2.438259 -0.031738 -0.999023 0.029388 0.985352 0.547363 1 0 1.0
0 -2.649907 -1.174875 3.553074 -0.031738 -0.999023 0.029388 0.985352 0.547363 1 0 1.0
Default
0 -2.334140 -1.217694 2.438259 -0.031738 -0.999023 0.029388 0.985352 0.547363 1 0 1.0
0 -0.991434 -1.217694 2.558528 -0.003353 -0.999512 0.037445 0.985352 0.547363 1 0 1.0
0 -2.649907 -1.174875 3.553074 -0.031738 -0.999023 0.029388 0.985352 0.547363 1 0 1.0
Default
0 -0.541898 -1.275934 -0.621895 -0.413574 -0.838867 -0.353760 0.985352 0.547363 1 0 1.0
0 1.088552 -1.937595 -0.958915 -0.413574 -0.838867 -0.353760 0.985352 0.547363 1 0 1.0
0 1.572826 -2.546919 -0.080232 -0.413574 -0.838867 -0.353760 0.985352 0.547363 1 0 1.0
Default
0 1.572826 -2.546919 -0.080232 -0.413574 -0.838867 -0.353760 0.985352 0.547363 1 0 1.0
0 1.088552 -1.937595 -0.958915 -0.413574 -0.838867 -0.353760 0.985352 0.547363 1 0 1.0
0 2.517213 -2.749750 -0.623253 -0.392578 -0.842773 -0.368164 0.985352 0.547363 1 0 1.0
Default
0 -5.339977 -0.406079 0.859538 -0.518555 -0.845703 0.124878 0.985352 0.547363 1 0 1.0
0 -3.998691 -1.175084 1.223533 -0.518555 -0.845703 0.124878 0.985352 0.547363 1 0 1.0
0 -4.828435 -0.406079 2.984407 -0.518555 -0.845703 0.124878 0.985352 0.547363 1 0 1.0
Default
0 -3.605197 -1.175084 2.514194 -0.485107 -0.861816 0.147827 0.985352 0.547363 1 0 1.0
0 -4.828435 -0.406079 2.984407 -0.518555 -0.845703 0.124878 0.985352 0.547363 1 0 1.0
0 -3.998691 -1.175084 1.223533 -0.518555 -0.845703 0.124878 0.985352 0.547363 1 0 1.0
Default
0 -1.531087 -1.344164 1.754759 -0.347412 -0.915527 0.203003 0.985352 0.547363 1 0 1.0
0 -1.847114 -1.344164 1.213927 -0.347412 -0.915527 0.203003 0.985352 0.547363 1 0 1.0
0 -0.865010 -1.738697 1.115916 -0.347412 -0.915527 0.203003 0.985352 0.547363 1 0 1.0
Default
0 -0.865010 -1.738697 1.115916 -0.347412 -0.915527 0.203003 0.985352 0.547363 1 0 1.0
0 -1.444649 -1.276740 2.232789 -0.356201 -0.914062 0.193359 0.985352 0.547363 1 0 1.0
0 -1.531087 -1.344164 1.754759 -0.347412 -0.915527 0.203003 0.985352 0.547363 1 0 1.0
Default
0 3.274631 -2.600119 -2.370757 -0.100891 -0.987793 -0.118408 0.985352 0.547363 1 0 1.0
0 3.603259 -2.749750 -1.402372 -0.100891 -0.987793 -0.118408 0.985352 0.547363 1 0 1.0
0 2.290896 -2.600119 -1.532760 -0.100891 -0.987793 -0.118408 0.985352 0.547363 1 0 1.0
Default
0 2.517213 -2.749750 -0.623253 -0.098694 -0.985352 -0.137573 0.985352 0.547363 1 0 1.0
0 2.290896 -2.600119 -1.532760 -0.100891 -0.987793 -0.118408 0.985352 0.547363 1 0 1.0
0 3.603259 -2.749750 -1.402372 -0.100891 -0.987793 -0.118408 0.985352 0.547363 1 0 1.0
Default
0 -0.788142 -1.573279 3.815366 -0.122498 -0.815918 0.565430 0.985352 0.547363 1 0 1.0
0 0.273874 -0.708911 5.292906 -0.122498 -0.815918 0.565430 0.985352 0.547363 1 0 1.0
0 -3.005245 -0.552709 4.807597 -0.122498 -0.815918 0.565430 0.985352 0.547363 1 0 1.0
Default
0 1.242290 -2.039188 3.697318 -0.150513 -0.802246 0.577637 0.985352 0.547363 1 0 1.0
0 0.273874 -0.708911 5.292906 -0.122498 -0.815918 0.565430 0.985352 0.547363 1 0 1.0
0 -0.788142 -1.573279 3.815366 -0.122498 -0.815918 0.565430 0.985352 0.547363 1 0 1.0
Default
0 -5.697926 -0.475333 -0.885332 -0.745117 -0.244751 0.620605 0.015511 0.828613 1 0 1.0
0 -5.712928 0.000000 -0.715824 -0.745117 -0.244751 0.620605 0.015511 0.828613 1 0 1.0
0 -6.453008 0.000000 -1.604375 -0.745117 -0.244751 0.620605 0.015511 0.828613 1 0 1.0
Default
0 -6.305787 -0.629617 -1.651668 -0.741699 -0.221069 0.632812 0.015511 0.828613 1 0 1.0
0 -5.697926 -0.475333 -0.885332 -0.745117 -0.244751 0.620605 0.015511 0.828613 1 0 1.0
0 -6.453008 0.000000 -1.604375 -0.745117 -0.244751 0.620605 0.015511 0.828613 1 0 1.0
Default
0 -5.763047 -0.929471 -3.463933 -0.083862 -0.972168 -0.218384 0.015511 0.828613 1 0 1.0
0 -4.860357 -0.885076 -4.008154 -0.083862 -0.972168 -0.218384 0.015511 0.828613 1 0 1.0
0 -4.941390 -1.145145 -2.819464 -0.083862 -0.972168 -0.218384 0.015511 0.828613 1 0 1.0
Default
0 -2.737819 -1.088758 -3.783527 -0.070374 -0.973633 -0.217773 0.015511 0.828613 1 0 1.0
0 -4.941390 -1.145145 -2.819464 -0.083862 -0.972168 -0.218384 0.015511 0.828613 1 0 1.0
0 -4.860357 -0.885076 -4.008154 -0.083862 -0.972168 -0.218384 0.015511 0.828613 1 0 1.0
Default
0 -6.464850 0.000000 -2.789868 -0.831543 -0.280273 -0.479248 0.015511 0.828613 1 0 1.0
0 -5.880072 0.000000 -3.804575 -0.831543 -0.280273 -0.479248 0.015511 0.828613 1 0 1.0
0 -5.763047 -0.929471 -3.463933 -0.831543 -0.280273 -0.479248 0.015511 0.828613 1 0 1.0
Default
0 -6.347090 -0.619583 -2.663803 -0.825195 -0.259033 -0.501953 0.015511 0.828613 1 0 1.0
0 -6.464850 0.000000 -2.789868 -0.831543 -0.280273 -0.479248 0.015511 0.828613 1 0 1.0
0 -5.763047 -0.929471 -3.463933 -0.831543 -0.280273 -0.479248 0.015511 0.828613 1 0 1.0
Default
0 4.432613 0.000000 -4.797151 0.825195 0.000000 -0.564941 0.013931 0.888184 1 0 1.0
0 5.020734 0.000000 -3.938472 0.825195 0.000000 -0.564941 0.013931 0.888184 1 0 1.0
0 5.020734 -1.199999 -3.938473 0.825195 0.000000 -0.564941 0.013931 0.888184 1 0 1.0
Default
0 5.020734 1.199999 -3.938473 0.825195 0.000000 -0.564941 0.013931 0.888184 1 0 1.0
0 5.020734 0.000000 -3.938472 0.825195 0.000000 -0.564941 0.013931 0.888184 1 0 1.0
0 4.432613 0.000000 -4.797151 0.825195 0.000000 -0.564941 0.013931 0.888184 1 0 1.0
Default
0 -4.860357 -0.885076 -4.008154 -0.491211 0.534180 -0.687988 0.013931 0.888184 1 0 1.0
0 -4.860357 0.000000 -3.321361 -0.491211 0.534180 -0.687988 0.013931 0.888184 1 0 1.0
0 -3.362891 0.000000 -4.390487 -0.491211 0.534180 -0.687988 0.013931 0.888184 1 0 1.0
Default
0 -4.860357 -0.885076 -4.008154 -0.491211 0.534180 -0.687988 0.013931 0.888184 1 0 1.0
0 -5.763047 -0.929471 -3.463933 -0.451904 0.546875 -0.704590 0.013931 0.888184 1 0 1.0
0 -4.860357 0.000000 -3.321361 -0.491211 0.534180 -0.687988 0.013931 0.888184 1 0 1.0
Default
0 -5.610332 -1.004742 -1.875076 0.149902 -0.866211 0.476562 0.015511 0.828613 1 0 1.0
0 -4.400638 -0.415714 -1.184888 0.149902 -0.866211 0.476562 0.015511 0.828613 1 0 1.0
0 -5.697926 -0.475333 -0.885332 0.149902 -0.866211 0.476562 0.015511 0.828613 1 0 1.0
Default
0 -5.610332 -1.004742 -1.875076 0.149902 -0.866211 0.476562 0.015511 0.828613 1 0 1.0
0 -2.718144 -0.615849 -1.957908 0.129272 -0.854492 0.502930 0.015511 0.828613 1 0 1.0
0 -4.400638 -0.415714 -1.184888 0.149902 -0.866211 0.476562 0.015511 0.828613 1 0 1.0
Default
0 -2.737819 -1.088758 -3.783527 -0.158813 -0.986328 -0.044922 0.015511 0.828613 1 0 1.0
0 -3.362891 -0.942346 -4.789222 -0.158813 -0.986328 -0.044922 0.015511 0.828613 1 0 1.0
0 -2.158800 -1.140366 -4.697086 -0.158813 -0.986328 -0.044922 0.015511 0.828613 1 0 1.0
Default
0 -2.158800 -1.140366 -4.697086 -0.158813 -0.986328 -0.044922 0.015511 0.828613 1 0 1.0
0 -1.085141 -1.408388 -2.937512 -0.165283 -0.984863 -0.049164 0.015511 0.828613 1 0 1.0
0 -2.737819 -1.088758 -3.783527 -0.158813 -0.986328 -0.044922 0.015511 0.828613 1 0 1.0
Default
0 -1.085141 -1.408388 -2.937512 -0.165283 -0.984863 -0.049164 0.015511 0.828613 1 0 1.0
0 -2.855868 -1.109047 -2.406295 -0.175171 -0.983887 -0.029510 0.015511 0.828613 1 0 1.0
0 -2.737819 -1.088758 -3.783527 -0.158813 -0.986328 -0.044922 0.015511 0.828613 1 0 1.0
Default
0 -2.158800 -1.140366 -4.697086 -0.158813 -0.986328 -0.044922 0.015511 0.828613 1 0 1.0
0 -0.534247 -1.440220 -4.472142 -0.175659 -0.983398 -0.042633 0.015511 0.828613 1 0 1.0
0 -1.085141 -1.408388 -2.937512 -0.165283 -0.984863 -0.049164 0.015511 0.828613 1 0 1.0
Default
0 -0.534247 -1.440220 -4.472142 -0.175659 -0.983398 -0.042633 0.015511 0.828613 1 0 1.0
0 -2.158800 -1.140366 -4.697086 -0.158813 -0.986328 -0.044922 0.015511 0.828613 1 0 1.0
0 -1.077511 -1.330617 -5.292906 -0.179810 -0.983398 -0.012306 0.015511 0.828613 1 0 1.0
Default
0 0.539494 -1.330617 -4.931040 0.037842 -0.988281 -0.147461 0.015511 0.828613 1 0 1.0
0 0.783959 -1.557123 -3.350681 0.037842 -0.988281 -0.147461 0.015511 0.828613 1 0 1.0
0 -0.534247 -1.440220 -4.472142 0.037842 -0.988281 -0.147461 0.015511 0.828613 1 0 1.0
Default
0 -0.534247 -1.440220 -4.472142 0.037842 -0.988281 -0.147461 0.015511 0.828613 1 0 1.0
0 -1.077511 -1.330617 -5.292906 0.034637 -0.987305 -0.154785 0.015511 0.828613 1 0 1.0
0 0.539494 -1.330617 -4.931040 0.037842 -0.988281 -0.147461 0.015511 0.828613 1 0 1.0
Default
0 0.783959 -1.557123 -3.350681 -0.033051 -0.976562 0.212891 0.015511 0.828613 1 0 1.0
0 1.905420 -1.444939 -2.662066 -0.033051 -0.976562 0.212891 0.015511 0.828613 1 0 1.0
0 0.626563 -1.200000 -1.737354 -0.033051 -0.976562 0.212891 0.015511 0.828613 1 0 1.0
Default
0 0.783959 -1.557123 -3.350681 -0.033051 -0.976562 0.212891 0.015511 0.828613 1 0 1.0
0 0.626563 -1.200000 -1.737354 -0.033051 -0.976562 0.212891 0.015511 0.828613 1 0 1.0
0 -1.085141 -1.408388 -2.937512 -0.030579 -0.976562 0.213135 0.015511 0.828613 1 0 1.0
Default
0 1.669323 -1.585121 -4.295068 0.043762 -0.996094 0.079163 0.015511 0.828613 1 0 1.0
0 3.577773 -1.444939 -3.586778 0.043762 -0.996094 0.079163 0.015511 0.828613 1 0 1.0
0 1.905420 -1.444939 -2.662066 0.043762 -0.996094 0.079163 0.015511 0.828613 1 0 1.0
Default
0 0.783959 -1.557123 -3.350681 0.051697 -0.995605 0.078003 0.015511 0.828613 1 0 1.0
0 1.669323 -1.585121 -4.295068 0.043762 -0.996094 0.079163 0.015511 0.828613 1 0 1.0
0 1.905420 -1.444939 -2.662066 0.043762 -0.996094 0.079163 0.015511 0.828613 1 0 1.0
Default
0 -3.110177 0.690801 -1.803106 0.245361 0.000000 -0.969238 0.985352 0.547363 1 0 1.0
0 -0.985308 0.825965 -1.265331 0.245361 0.000000 -0.969238 0.985352 0.547363 1 0 1.0
0 -0.985308 0.000000 -1.265331 0.245361 0.000000 -0.969238 0.985352 0.547363 1 0 1.0
Default
0 -3.110177 0.000000 -1.803106 0.245361 0.000000 -0.969238 0.985352 0.547363 1 0 1.0
0 -3.110177 0.690801 -1.803106 0.245361 0.000000 -0.969238 0.985352 0.547363 1 0 1.0
0 -0.985308 0.000000 -1.265331 0.245361 0.000000 -0.969238 0.985352 0.547363 1 0 1.0
Default
0 -3.110177 -0.690801 -1.803106 0.245361 0.000000 -0.969238 0.985352 0.547363 1 0 1.0
0 -3.110177 0.000000 -1.803106 0.245361 0.000000 -0.969238 0.985352 0.547363 1 0 1.0
0 -0.985308 0.000000 -1.265331 0.245361 0.000000 -0.969238 0.985352 0.547363 1 0 1.0
Default
0 -0.985308 -0.825965 -1.265331 0.245361 0.000000 -0.969238 0.985352 0.547363 1 0 1.0
0 -3.110177 -0.690801 -1.803106 0.245361 0.000000 -0.969238 0.985352 0.547363 1 0 1.0
0 -0.985308 0.000000 -1.265331 0.245361 0.000000 -0.969238 0.985352 0.547363 1 0 1.0
Default
0 -0.985308 0.825965 -1.265331 0.823242 0.000000 -0.567383 0.985352 0.547363 1 0 1.0
0 -0.541898 1.275934 -0.621895 0.823242 0.000000 -0.567383 0.985352 0.547363 1 0 1.0
0 -0.541898 0.000000 -0.621895 0.823242 0.000000 -0.567383 0.985352 0.547363 1 0 1.0
Default
0 -0.985308 0.000000 -1.265331 0.823242 0.000000 -0.567383 0.985352 0.547363 1 0 1.0
0 -0.985308 0.825965 -1.265331 0.823242 0.000000 -0.567383 0.985352 0.547363 1 0 1.0
0 -0.541898 0.000000 -0.621895 0.823242 0.000000 -0.567383 0.985352 0.547363 1 0 1.0
Default
0 -0.985308 -0.825965 -1.265331 0.823242 0.000000 -0.567383 0.985352 0.547363 1 0 1.0
0 -0.985308 0.000000 -1.265331 0.823242 0.000000 -0.567383 0.985352 0.547363 1 0 1.0
0 -0.541898 0.000000 -0.621895 0.823242 0.000000 -0.567383 0.985352 0.547363 1 0 1.0
Default
0 -0.541898 -1.275934 -0.621895 0.823242 0.000000 -0.567383 0.985352 0.547363 1 0 1.0
0 -0.985308 -0.825965 -1.265331 0.823242 0.000000 -0.567383 0.985352 0.547363 1 0 1.0
0 -0.541898 0.000000 -0.621895 0.823242 0.000000 -0.567383 0.985352 0.547363 1 0 1.0
Default
0 -0.541898 1.275934 -0.621895 -0.202393 0.000000 -0.979492 0.985352 0.547363 1 0 1.0
0 1.088552 1.937595 -0.958915 -0.202393 0.000000 -0.979492 0.985352 0.547363 1 0 1.0
0 1.088552 0.382569 -0.958915 -0.202393 0.000000 -0.979492 0.985352 0.547363 1 0 1.0
Default
0 -0.541898 0.000000 -0.621895 -0.202393 0.000000 -0.979492 0.985352 0.547363 1 0 1.0
0 -0.541898 1.275934 -0.621895 -0.202393 0.000000 -0.979492 0.985352 0.547363 1 0 1.0
0 1.088552 0.382569 -0.958915 -0.202393 0.000000 -0.979492 0.985352 0.547363 1 0 1.0
Default
0 -0.541898 -1.275934 -0.621895 -0.202393 0.000000 -0.979492 0.985352 0.547363 1 0 1.0
0 -0.541898 0.000000 -0.621895 -0.202393 0.000000 -0.979492 0.985352 0.547363 1 0 1.0
0 1.088552 -0.382569 -0.958915 -0.202393 0.000000 -0.979492 0.985352 0.547363 1 0 1.0
Default
0 1.088552 -1.937595 -0.958915 -0.202393 0.000000 -0.979492 0.985352 0.547363 1 0 1.0
0 -0.541898 -1.275934 -0.621895 -0.202393 0.000000 -0.979492 0.985352 0.547363 1 0 1.0
0 1.088552 -0.382569 -0.958915 -0.202393 0.000000 -0.979492 0.985352 0.547363 1 0 1.0
Default
0 -5.339977 0.406079 0.859538 -0.947266 0.000000 -0.320801 0.985352 0.547363 1 0 1.0
0 -4.789086 0.544171 -0.766904 -0.947266 0.000000 -0.320801 0.985352 0.547363 1 0 1.0
0 -4.789086 0.000000 -0.766904 -0.947266 0.000000 -0.320801 0.985352 0.547363 1 0 1.0
Default
0 -5.339977 0.000000 0.859538 -0.947266 0.000000 -0.320801 0.985352 0.547363 1 0 1.0
0 -5.339977 0.406079 0.859538 -0.947266 0.000000 -0.320801 0.985352 0.547363 1 0 1.0
0 -4.789086 0.000000 -0.766904 -0.947266 0.000000 -0.320801 0.985352 0.547363 1 0 1.0
Default
0 -5.339977 -0.406079 0.859538 -0.947266 0.000000 -0.320801 0.985352 0.547363 1 0 1.0
0 -5.339977 0.000000 0.859538 -0.947266 0.000000 -0.320801 0.985352 0.547363 1 0 1.0
0 -4.789086 0.000000 -0.766904 -0.947266 0.000000 -0.320801 0.985352 0.547363 1 0 1.0
Default
0 -4.789086 -0.544171 -0.766904 -0.947266 0.000000 -0.320801 0.985352 0.547363 1 0 1.0
0 -5.339977 -0.406079 0.859538 -0.947266 0.000000 -0.320801 0.985352 0.547363 1 0 1.0
0 -4.789086 0.000000 -0.766904 -0.947266 0.000000 -0.320801 0.985352 0.547363 1 0 1.0
Default
0 -4.789086 0.544171 -0.766904 -0.525391 0.000000 -0.851074 0.985352 0.547363 1 0 1.0
0 -3.110177 0.690801 -1.803106 -0.525391 0.000000 -0.851074 0.985352 0.547363 1 0 1.0
0 -3.110177 0.000000 -1.803106 -0.525391 0.000000 -0.851074 0.985352 0.547363 1 0 1.0
Default
0 -4.789086 0.000000 -0.766904 -0.525391 0.000000 -0.851074 0.985352 0.547363 1 0 1.0
0 -4.789086 0.544171 -0.766904 -0.525391 0.000000 -0.851074 0.985352 0.547363 1 0 1.0
0 -3.110177 0.000000 -1.803106 -0.525391 0.000000 -0.851074 0.985352 0.547363 1 0 1.0
Default
0 -4.789086 -0.544171 -0.766904 -0.525391 0.000000 -0.851074 0.985352 0.547363 1 0 1.0
0 -4.789086 0.000000 -0.766904 -0.525391 0.000000 -0.851074 0.985352 0.547363 1 0 1.0
0 -3.110177 0.000000 -1.803106 -0.525391 0.000000 -0.851074 0.985352 0.547363 1 0 1.0
Default
0 -3.110177 -0.690801 -1.803106 -0.525391 0.000000 -0.851074 0.985352 0.547363 1 0 1.0
0 -4.789086 -0.544171 -0.766904 -0.525391 0.000000 -0.851074 0.985352 0.547363 1 0 1.0
0 -3.110177 0.000000 -1.803106 -0.525391 0.000000 -0.851074 0.985352 0.547363 1 0 1.0
Default
0 -4.828435 0.406079 2.984407 -0.388428 0.864746 0.318848 0.985352 0.547363 1 0 1.0
0 -3.005245 0.552709 4.807597 -0.388428 0.864746 0.318848 0.985352 0.547363 1 0 1.0
0 -2.649907 1.174875 3.553074 -0.388428 0.864746 0.318848 0.985352 0.547363 1 0 1.0
Default
0 -4.828435 0.406079 2.984407 -0.388428 0.864746 0.318848 0.985352 0.547363 1 0 1.0
0 -2.649907 1.174875 3.553074 -0.388428 0.864746 0.318848 0.985352 0.547363 1 0 1.0
0 -3.605197 1.175084 2.514194 -0.392822 0.845703 0.361328 0.985352 0.547363 1 0 1.0
Default
0 -2.334140 1.217694 2.438259 -0.031738 0.999023 0.029388 0.985352 0.547363 1 0 1.0
0 -3.605197 1.175084 2.514194 -0.031738 0.999023 0.029388 0.985352 0.547363 1 0 1.0
0 -2.649907 1.174875 3.553074 -0.031738 0.999023 0.029388 0.985352 0.547363 1 0 1.0
Default
0 -0.991434 1.217694 2.558528 -0.003353 0.999512 0.037445 0.985352 0.547363 1 0 1.0
0 -2.334140 1.217694 2.438259 -0.031738 0.999023 0.029388 0.985352 0.547363 1 0 1.0
0 -2.649907 1.174875 3.553074 -0.031738 0.999023 0.029388 0.985352 0.547363 1 0 1.0
Default
0 1.088552 1.937595 -0.958915 -0.413574 0.838867 -0.353760 0.985352 0.547363 1 0 1.0
0 -0.541898 1.275934 -0.621895 -0.413574 0.838867 -0.353760 0.985352 0.547363 1 0 1.0
0 1.572826 2.546919 -0.080232 -0.413574 0.838867 -0.353760 0.985352 0.547363 1 0 1.0
Default
0 1.088552 1.937595 -0.958915 -0.413574 0.838867 -0.353760 0.985352 0.547363 1 0 1.0
0 1.572826 2.546919 -0.080232 -0.413574 0.838867 -0.353760 0.985352 0.547363 1 0 1.0
0 2.517213 2.749750 -0.623253 -0.392578 0.842773 -0.368164 0.985352 0.547363 1 0 1.0
Default
0 -3.998691 1.175084 1.223533 -0.518555 0.845703 0.124878 0.985352 0.547363 1 0 1.0
0 -5.339977 0.406079 0.859538 -0.518555 0.845703 0.124878 0.985352 0.547363 1 0 1.0
0 -4.828435 0.406079 2.984407 -0.518555 0.845703 0.124878 0.985352 0.547363 1 0 1.0
Default
0 -4.828435 0.406079 2.984407 -0.518555 0.845703 0.124878 0.985352 0.547363 1 0 1.0
0 -3.605197 1.175084 2.514194 -0.485107 0.861816 0.147827 0.985352 0.547363 1 0 1.0
0 -3.998691 1.175084 1.223533 -0.518555 0.845703 0.124878 0.985352 0.547363 1 0 1.0
Default
0 -1.847114 1.344164 1.213927 -0.347412 0.915527 0.203003 0.985352 0.547363 1 0 1.0
0 -1.531087 1.344164 1.754759 -0.347412 0.915527 0.203003 0.985352 0.547363 1 0 1.0
0 -0.865010 1.738697 1.115916 -0.347412 0.915527 0.203003 0.985352 0.547363 1 0 1.0
Default
0 -1.444649 1.276740 2.232789 -0.356201 0.914062 0.193359 0.985352 0.547363 1 0 1.0
0 -0.865010 1.738697 1.115916 -0.347412 0.915527 0.203003 0.985352 0.547363 1 0 1.0
0 -1.531087 1.344164 1.754759 -0.347412 0.915527 0.203003 0.985352 0.547363 1 0 1.0
Default
0 3.603259 2.749750 -1.402372 -0.100891 0.987793 -0.118408 0.985352 0.547363 1 0 1.0
0 3.274631 2.600119 -2.370757 -0.100891 0.987793 -0.118408 0.985352 0.547363 1 0 1.0
0 2.290896 2.600119 -1.532760 -0.100891 0.987793 -0.118408 0.985352 0.547363 1 0 1.0
Default
0 2.290896 2.600119 -1.532760 -0.100891 0.987793 -0.118408 0.985352 0.547363 1 0 1.0
0 2.517213 2.749750 -0.623253 -0.098694 0.985352 -0.137573 0.985352 0.547363 1 0 1.0
0 3.603259 2.749750 -1.402372 -0.100891 0.987793 -0.118408 0.985352 0.547363 1 0 1.0
Default
0 0.273874 0.708911 5.292906 -0.122498 0.815918 0.565430 0.985352 0.547363 1 0 1.0
0 -0.788142 1.573279 3.815366 -0.122498 0.815918 0.565430 0.985352 0.547363 1 0 1.0
0 -3.005245 0.552709 4.807597 -0.122498 0.815918 0.565430 0.985352 0.547363 1 0 1.0
Default
0 0.273874 0.708911 5.292906 -0.122498 0.815918 0.565430 0.985352 0.547363 1 0 1.0
0 1.242290 2.039188 3.697318 -0.150513 0.802246 0.577637 0.985352 0.547363 1 0 1.0
0 -0.788142 1.573279 3.815366 -0.122498 0.815918 0.565430 0.985352 0.547363 1 0 1.0
Default
0 -5.697926 0.475333 -0.885332 -0.741699 0.221069 0.632812 0.015511 0.828613 1 0 1.0
0 -6.305787 0.629617 -1.651668 -0.741699 0.221069 0.632812 0.015511 0.828613 1 0 1.0
0 -6.453008 0.000000 -1.604375 -0.741699 0.221069 0.632812 0.015511 0.828613 1 0 1.0
Default
0 -5.712928 0.000000 -0.715824 -0.745117 0.244751 0.620605 0.015511 0.828613 1 0 1.0
0 -5.697926 0.475333 -0.885332 -0.741699 0.221069 0.632812 0.015511 0.828613 1 0 1.0
0 -6.453008 0.000000 -1.604375 -0.741699 0.221069 0.632812 0.015511 0.828613 1 0 1.0
Default
0 -4.860357 0.885076 -4.008154 -0.083862 0.972168 -0.218384 0.015511 0.828613 1 0 1.0
0 -5.763047 0.929471 -3.463933 -0.083862 0.972168 -0.218384 0.015511 0.828613 1 0 1.0
0 -4.941390 1.145145 -2.819464 -0.083862 0.972168 -0.218384 0.015511 0.828613 1 0 1.0
Default
0 -4.941390 1.145145 -2.819464 -0.083862 0.972168 -0.218384 0.015511 0.828613 1 0 1.0
0 -2.737819 1.088758 -3.783527 -0.070374 0.973633 -0.217773 0.015511 0.828613 1 0 1.0
0 -4.860357 0.885076 -4.008154 -0.083862 0.972168 -0.218384 0.015511 0.828613 1 0 1.0
Default
0 -5.763047 0.929471 -3.463933 -0.831543 0.280273 -0.479248 0.015511 0.828613 1 0 1.0
0 -5.880072 0.000000 -3.804575 -0.831543 0.280273 -0.479248 0.015511 0.828613 1 0 1.0
0 -6.464850 0.000000 -2.789868 -0.831543 0.280273 -0.479248 0.015511 0.828613 1 0 1.0
Default
0 -6.347090 0.619583 -2.663803 -0.825195 0.259033 -0.501953 0.015511 0.828613 1 0 1.0
0 -5.763047 0.929471 -3.463933 -0.831543 0.280273 -0.479248 0.015511 0.828613 1 0 1.0
0 -6.464850 0.000000 -2.789868 -0.831543 0.280273 -0.479248 0.015511 0.828613 1 0 1.0
Default
0 -5.763047 0.929471 -3.463933 -0.451904 -0.546875 -0.704590 0.013931 0.888184 1 0 1.0
0 -4.860357 0.885076 -4.008154 -0.451904 -0.546875 -0.704590 0.013931 0.888184 1 0 1.0
0 -4.860357 0.000000 -3.321361 -0.451904 -0.546875 -0.704590 0.013931 0.888184 1 0 1.0
Default
0 -4.860357 0.000000 -3.321361 -0.451904 -0.546875 -0.704590 0.013931 0.888184 1 0 1.0
0 -4.860357 0.885076 -4.008154 -0.451904 -0.546875 -0.704590 0.013931 0.888184 1 0 1.0
0 -3.362891 0.000000 -4.390487 -0.491211 -0.534180 -0.687988 0.013931 0.888184 1 0 1.0
Default
0 3.364777 1.755201 -2.331703 0.696289 0.000000 0.717773 0.015511 0.828613 1 0 1.0
0 2.446623 2.028831 -1.511922 0.666016 0.000000 0.746094 0.015511 0.828613 1 0 1.0
0 2.446623 0.000000 -1.511922 0.666016 0.000000 0.746094 0.015511 0.828613 1 0 1.0
Default
0 3.364777 0.000000 -2.331702 0.696289 0.000000 0.717773 0.015511 0.828613 1 0 1.0
0 3.364777 1.755201 -2.331703 0.696289 0.000000 0.717773 0.015511 0.828613 1 0 1.0
0 2.446623 0.000000 -1.511922 0.666016 0.000000 0.746094 0.015511 0.828613 1 0 1.0
Default
0 5.020734 1.199999 -3.938473 0.696289 0.000000 0.717773 0.015511 0.828613 1 0 1.0
0 3.364777 1.755201 -2.331703 0.696289 0.000000 0.717773 0.015511 0.828613 1 0 1.0
0 3.364777 0.000000 -2.331702 0.696289 0.000000 0.717773 0.015511 0.828613 1 0 1.0
Default
0 5.020734 0.000000 -3.938472 0.696289 0.000000 0.717773 0.015511 0.828613 1 0 1.0
0 5.020734 1.199999 -3.938473 0.696289 0.000000 0.717773 0.015511 0.828613 1 0 1.0
0 3.364777 0.000000 -2.331702 0.696289 0.000000 0.717773 0.015511 0.828613 1 0 1.0
Default
0 5.020734 -1.199999 -3.938473 0.696289 0.000000 0.717773 0.015511 0.828613 1 0 1.0
0 5.020734 0.000000 -3.938472 0.696289 0.000000 0.717773 0.015511 0.828613 1 0 1.0
0 3.364777 0.000000 -2.331702 0.696289 0.000000 0.717773 0.015511 0.828613 1 0 1.0
Default
0 3.364777 -1.755201 -2.331703 0.666016 0.000000 0.746094 0.015511 0.828613 1 0 1.0
0 5.020734 -1.199999 -3.938473 0.696289 0.000000 0.717773 0.015511 0.828613 1 0 1.0
0 3.364777 0.000000 -2.331702 0.696289 0.000000 0.717773 0.015511 0.828613 1 0 1.0
Default
0 3.364777 -1.755201 -2.331703 0.666016 0.000000 0.746094 0.015511 0.828613 1 0 1.0
0 3.364777 0.000000 -2.331702 0.696289 0.000000 0.717773 0.015511 0.828613 1 0 1.0
0 2.446623 0.000000 -1.511922 0.666016 0.000000 0.746094 0.015511 0.828613 1 0 1.0
Default
0 2.446623 -2.028831 -1.511922 0.666016 0.000000 0.746094 0.015511 0.828613 1 0 1.0
0 3.364777 -1.755201 -2.331703 0.666016 0.000000 0.746094 0.015511 0.828613 1 0 1.0
0 2.446623 0.000000 -1.511922 0.666016 0.000000 0.746094 0.015511 0.828613 1 0 1.0
Default
0 -4.400638 0.415714 -1.184888 0.149902 0.866211 0.476562 0.015511 0.828613 1 0 1.0
0 -5.610332 1.004742 -1.875076 0.149902 0.866211 0.476562 0.015511 0.828613 1 0 1.0
0 -5.697926 0.475333 -0.885332 0.149902 0.866211 0.476562 0.015511 0.828613 1 0 1.0
Default
0 -2.718144 0.615849 -1.957908 0.129272 0.854492 0.502930 0.015511 0.828613 1 0 1.0
0 -5.610332 1.004742 -1.875076 0.149902 0.866211 0.476562 0.015511 0.828613 1 0 1.0
0 -4.400638 0.415714 -1.184888 0.149902 0.866211 0.476562 0.015511 0.828613 1 0 1.0
Default
0 -3.362891 0.942346 -4.789222 -0.158813 0.986328 -0.044922 0.015511 0.828613 1 0 1.0
0 -2.737819 1.088758 -3.783527 -0.158813 0.986328 -0.044922 0.015511 0.828613 1 0 1.0
0 -2.158800 1.140366 -4.697086 -0.158813 0.986328 -0.044922 0.015511 0.828613 1 0 1.0
Default
0 -1.085141 1.408388 -2.937512 -0.165283 0.984863 -0.049164 0.015511 0.828613 1 0 1.0
0 -2.158800 1.140366 -4.697086 -0.158813 0.986328 -0.044922 0.015511 0.828613 1 0 1.0
0 -2.737819 1.088758 -3.783527 -0.158813 0.986328 -0.044922 0.015511 0.828613 1 0 1.0
Default
0 -2.855868 1.109047 -2.406295 -0.175171 0.983887 -0.029510 0.015511 0.828613 1 0 1.0
0 -1.085141 1.408388 -2.937512 -0.165283 0.984863 -0.049164 0.015511 0.828613 1 0 1.0
0 -2.737819 1.088758 -3.783527 -0.158813 0.986328 -0.044922 0.015511 0.828613 1 0 1.0
Default
0 -0.534247 1.440220 -4.472142 -0.175659 0.983398 -0.042633 0.015511 0.828613 1 0 1.0
0 -2.158800 1.140366 -4.697086 -0.158813 0.986328 -0.044922 0.015511 0.828613 1 0 1.0
0 -1.085141 1.408388 -2.937512 -0.165283 0.984863 -0.049164 0.015511 0.828613 1 0 1.0
Default
0 -2.158800 1.140366 -4.697086 -0.158813 0.986328 -0.044922 0.015511 0.828613 1 0 1.0
0 -0.534247 1.440220 -4.472142 -0.175659 0.983398 -0.042633 0.015511 0.828613 1 0 1.0
0 -1.077511 1.330617 -5.292906 -0.179810 0.983398 -0.012306 0.015511 0.828613 1 0 1.0
Default
0 0.783959 1.557123 -3.350681 0.037842 0.988281 -0.147461 0.015511 0.828613 1 0 1.0
0 0.539494 1.330617 -4.931040 0.037842 0.988281 -0.147461 0.015511 0.828613 1 0 1.0
0 -0.534247 1.440220 -4.472142 0.037842 0.988281 -0.147461 0.015511 0.828613 1 0 1.0
Default
0 -1.077511 1.330617 -5.292906 0.034637 0.987305 -0.154785 0.015511 0.828613 1 0 1.0
0 -0.534247 1.440220 -4.472142 0.037842 0.988281 -0.147461 0.015511 0.828613 1 0 1.0
0 0.539494 1.330617 -4.931040 0.037842 0.988281 -0.147461 0.015511 0.828613 1 0 1.0
Default
0 1.905420 1.444939 -2.662066 -0.033051 0.976562 0.212891 0.015511 0.828613 1 0 1.0
0 0.783959 1.557123 -3.350681 -0.033051 0.976562 0.212891 0.015511 0.828613 1 0 1.0
0 0.626563 1.200000 -1.737354 -0.033051 0.976562 0.212891 0.015511 0.828613 1 0 1.0
Default
0 0.626563 1.200000 -1.737354 -0.033051 0.976562 0.212891 0.015511 0.828613 1 0 1.0
0 0.783959 1.557123 -3.350681 -0.033051 0.976562 0.212891 0.015511 0.828613 1 0 1.0
0 -1.085141 1.408388 -2.937512 -0.030579 0.976562 0.213135 0.015511 0.828613 1 0 1.0
Default
0 3.577773 1.444939 -3.586778 0.043762 0.996094 0.079163 0.015511 0.828613 1 0 1.0
0 1.669323 1.585121 -4.295068 0.043762 0.996094 0.079163 0.015511 0.828613 1 0 1.0
0 1.905420 1.444939 -2.662066 0.043762 0.996094 0.079163 0.015511 0.828613 1 0 1.0
Default
0 1.669323 1.585121 -4.295068 0.043762 0.996094 0.079163 0.015511 0.828613 1 0 1.0
0 0.783959 1.557123 -3.350681 0.051697 0.995605 0.078003 0.015511 0.828613 1 0 1.0
0 1.905420 1.444939 -2.662066 0.043762 0.996094 0.079163 0.015511 0.828613 1 0 1.0
Default
0 6.228753 -0.870165 -0.425876 0.945312 0.000000 0.325928 0.985352 0.547363 1 0 1.0
0 6.228753 0.000000 -0.425876 0.945312 0.000000 0.325928 0.985352 0.547363 1 0 1.0
0 5.428648 -0.713024 1.895739 0.945312 0.000000 0.325928 0.985352 0.547363 1 0 1.0
Default
0 6.228753 0.000000 -0.425876 0.945312 0.000000 0.325928 0.985352 0.547363 1 0 1.0
0 5.428648 0.000000 1.895739 0.945312 0.000000 0.325928 0.985352 0.547363 1 0 1.0
0 5.428648 -0.713024 1.895739 0.945312 0.000000 0.325928 0.985352 0.547363 1 0 1.0
Default
0 5.428648 0.713024 1.895739 0.945312 0.000000 0.325928 0.985352 0.547363 1 0 1.0
0 5.428648 0.000000 1.895739 0.945312 0.000000 0.325928 0.985352 0.547363 1 0 1.0
0 6.228753 0.000000 -0.425876 0.945312 0.000000 0.325928 0.985352 0.547363 1 0 1.0
Default
0 6.228753 0.870165 -0.425876 0.945312 0.000000 0.325928 0.985352 0.547363 1 0 1.0
0 5.428648 0.713024 1.895739 0.945312 0.000000 0.325928 0.985352 0.547363 1 0 1.0
0 6.228753 0.000000 -0.425876 0.945312 0.000000 0.325928 0.985352 0.547363 1 0 1.0
Default
0 5.428648 -0.713024 1.895739 0.751465 0.000000 0.659668 0.985352 0.547363 1 0 1.0
0 5.428648 0.000000 1.895739 0.751465 0.000000 0.659668 0.985352 0.547363 1 0 1.0
0 3.539876 -0.708911 4.046841 0.751465 0.000000 0.659668 0.985352 0.547363 1 0 1.0
Default
0 5.428648 0.000000 1.895739 0.751465 0.000000 0.659668 0.985352 0.547363 1 0 1.0
0 3.539876 0.000000 4.046841 0.751465 0.000000 0.659668 0.985352 0.547363 1 0 1.0
0 3.539876 -0.708911 4.046841 0.751465 0.000000 0.659668 0.985352 0.547363 1 0 1.0
Default
0 3.539876 0.708911 4.046841 0.751465 0.000000 0.659668 0.985352 0.547363 1 0 1.0
0 3.539876 0.000000 4.046841 0.751465 0.000000 0.659668 0.985352 0.547363 1 0 1.0
0 5.428648 0.000000 1.895739 0.751465 0.000000 0.659668 0.985352 0.547363 1 0 1.0
Default
0 5.428648 0.713024 1.895739 0.751465 0.000000 0.659668 0.985352 0.547363 1 0 1.0
0 3.539876 0.708911 4.046841 0.751465 0.000000 0.659668 0.985352 0.547363 1 0 1.0
0 5.428648 0.000000 1.895739 0.751465 0.000000 0.659668 0.985352 0.547363 1 0 1.0
Default
0 3.539876 -0.708911 4.046841 0.356445 0.000000 0.934082 0.985352 0.547363 1 0 1.0
0 3.539876 0.000000 4.046841 0.356445 0.000000 0.934082 0.985352 0.547363 1 0 1.0
0 0.273874 -0.708911 5.292906 0.356445 0.000000 0.934082 0.985352 0.547363 1 0 1.0
Default
0 3.539876 0.000000 4.046841 0.356445 0.000000 0.934082 0.985352 0.547363 1 0 1.0
0 0.273874 0.000000 5.292906 0.356445 0.000000 0.934082 0.985352 0.547363 1 0 1.0
0 0.273874 -0.708911 5.292906 0.356445 0.000000 0.934082 0.985352 0.547363 1 0 1.0
Default
0 0.273874 0.708911 5.292906 0.356445 0.000000 0.934082 0.985352 0.547363 1 0 1.0
0 0.273874 0.000000 5.292906 0.356445 0.000000 0.934082 0.985352 0.547363 1 0 1.0
0 3.539876 0.000000 4.046841 0.356445 0.000000 0.934082 0.985352 0.547363 1 0 1.0
Default
0 3.539876 0.708911 4.046841 0.356445 0.000000 0.934082 0.985352 0.547363 1 0 1.0
0 0.273874 0.708911 5.292906 0.356445 0.000000 0.934082 0.985352 0.547363 1 0 1.0
0 3.539876 0.000000 4.046841 0.356445 0.000000 0.934082 0.985352 0.547363 1 0 1.0
Default
0 0.273874 -0.708911 5.292906 -0.146362 0.000000 0.989258 0.985352 0.547363 1 0 1.0
0 0.273874 0.000000 5.292906 -0.146362 0.000000 0.989258 0.985352 0.547363 1 0 1.0
0 -3.005245 -0.552709 4.807597 -0.146362 0.000000 0.989258 0.985352 0.547363 1 0 1.0
Default
0 0.273874 0.000000 5.292906 -0.146362 0.000000 0.989258 0.985352 0.547363 1 0 1.0
0 -3.005245 0.000000 4.807597 -0.146362 0.000000 0.989258 0.985352 0.547363 1 0 1.0
0 -3.005245 -0.552709 4.807597 -0.146362 0.000000 0.989258 0.985352 0.547363 1 0 1.0
Default
0 -3.005245 0.552709 4.807597 -0.146362 0.000000 0.989258 0.985352 0.547363 1 0 1.0
0 -3.005245 0.000000 4.807597 -0.146362 0.000000 0.989258 0.985352 0.547363 1 0 1.0
0 0.273874 0.000000 5.292906 -0.146362 0.000000 0.989258 0.985352 0.547363 1 0 1.0
Default
0 0.273874 0.708911 5.292906 -0.146362 0.000000 0.989258 0.985352 0.547363 1 0 1.0
0 -3.005245 0.552709 4.807597 -0.146362 0.000000 0.989258 0.985352 0.547363 1 0 1.0
0 0.273874 0.000000 5.292906 -0.146362 0.000000 0.989258 0.985352 0.547363 1 0 1.0
Default
0 -3.005245 -0.552709 4.807597 -0.707031 0.000000 0.707031 0.985352 0.547363 1 0 1.0
0 -3.005245 0.000000 4.807597 -0.707031 0.000000 0.707031 0.985352 0.547363 1 0 1.0
0 -4.828435 -0.406079 2.984407 -0.707031 0.000000 0.707031 0.985352 0.547363 1 0 1.0
Default
0 -3.005245 0.000000 4.807597 -0.707031 0.000000 0.707031 0.985352 0.547363 1 0 1.0
0 -4.828435 0.000000 2.984407 -0.707031 0.000000 0.707031 0.985352 0.547363 1 0 1.0
0 -4.828435 -0.406079 2.984407 -0.707031 0.000000 0.707031 0.985352 0.547363 1 0 1.0
Default
0 -4.828435 0.406079 2.984407 -0.707031 0.000000 0.707031 0.985352 0.547363 1 0 1.0
0 -4.828435 0.000000 2.984407 -0.707031 0.000000 0.707031 0.985352 0.547363 1 0 1.0
0 -3.005245 0.000000 4.807597 -0.707031 0.000000 0.707031 0.985352 0.547363 1 0 1.0
Default
0 -3.005245 0.552709 4.807597 -0.707031 0.000000 0.707031 0.985352 0.547363 1 0 1.0
0 -4.828435 0.406079 2.984407 -0.707031 0.000000 0.707031 0.985352 0.547363 1 0 1.0
0 -3.005245 0.000000 4.807597 -0.707031 0.000000 0.707031 0.985352 0.547363 1 0 1.0
Default
0 2.290896 -2.600119 -1.532760 -0.648438 0.000000 -0.761230 0.985352 0.547363 1 0 1.0
0 2.290896 0.000000 -1.532760 -0.648438 0.000000 -0.761230 0.985352 0.547363 1 0 1.0
0 3.274631 -2.600119 -2.370757 -0.648438 0.000000 -0.761230 0.985352 0.547363 1 0 1.0
Default
0 2.290896 0.000000 -1.532760 -0.648438 0.000000 -0.761230 0.985352 0.547363 1 0 1.0
0 3.274631 0.000000 -2.370757 -0.648438 0.000000 -0.761230 0.985352 0.547363 1 0 1.0
0 3.274631 -2.600119 -2.370757 -0.648438 0.000000 -0.761230 0.985352 0.547363 1 0 1.0
Default
0 3.274631 2.600119 -2.370757 -0.648438 0.000000 -0.761230 0.985352 0.547363 1 0 1.0
0 3.274631 0.000000 -2.370757 -0.648438 0.000000 -0.761230 0.985352 0.547363 1 0 1.0
0 2.290896 0.000000 -1.532760 -0.648438 0.000000 -0.761230 0.985352 0.547363 1 0 1.0
Default
0 2.290896 2.600119 -1.532760 -0.648438 0.000000 -0.761230 0.985352 0.547363 1 0 1.0
0 3.274631 2.600119 -2.370757 -0.648438 0.000000 -0.761230 0.985352 0.547363 1 0 1.0
0 2.290896 0.000000 -1.532760 -0.648438 0.000000 -0.761230 0.985352 0.547363 1 0 1.0
Default
0 -4.828435 -0.406079 2.984407 -0.972168 0.000000 0.234009 0.985352 0.547363 1 0 1.0
0 -4.828435 0.000000 2.984407 -0.972168 0.000000 0.234009 0.985352 0.547363 1 0 1.0
0 -5.339977 -0.406079 0.859538 -0.972168 0.000000 0.234009 0.985352 0.547363 1 0 1.0
Default
0 -4.828435 0.000000 2.984407 -0.972168 0.000000 0.234009 0.985352 0.547363 1 0 1.0
0 -5.339977 0.000000 0.859538 -0.972168 0.000000 0.234009 0.985352 0.547363 1 0 1.0
0 -5.339977 -0.406079 0.859538 -0.972168 0.000000 0.234009 0.985352 0.547363 1 0 1.0
Default
0 -5.339977 0.406079 0.859538 -0.972168 0.000000 0.234009 0.985352 0.547363 1 0 1.0
0 -5.339977 0.000000 0.859538 -0.972168 0.000000 0.234009 0.985352 0.547363 1 0 1.0
0 -4.828435 0.000000 2.984407 -0.972168 0.000000 0.234009 0.985352 0.547363 1 0 1.0
Default
0 -4.828435 0.406079 2.984407 -0.972168 0.000000 0.234009 0.985352 0.547363 1 0 1.0
0 -5.339977 0.406079 0.859538 -0.972168 0.000000 0.234009 0.985352 0.547363 1 0 1.0
0 -4.828435 0.000000 2.984407 -0.972168 0.000000 0.234009 0.985352 0.547363 1 0 1.0
Default
0 6.241869 -1.065868 -4.334586 0.991699 0.000000 -0.129639 0.985352 0.547363 1 0 1.0
0 6.241869 0.000000 -4.334586 0.991699 0.000000 -0.129639 0.985352 0.547363 1 0 1.0
0 6.464850 -0.978695 -2.629444 0.991699 0.000000 -0.129639 0.985352 0.547363 1 0 1.0
Default
0 6.241869 0.000000 -4.334586 0.991699 0.000000 -0.129639 0.985352 0.547363 1 0 1.0
0 6.464850 0.000000 -2.629444 0.991699 0.000000 -0.129639 0.985352 0.547363 1 0 1.0
0 6.464850 -0.978695 -2.629444 0.991699 0.000000 -0.129639 0.985352 0.547363 1 0 1.0
Default
0 6.464850 0.978695 -2.629444 0.991699 0.000000 -0.129639 0.985352 0.547363 1 0 1.0
0 6.464850 0.000000 -2.629444 0.991699 0.000000 -0.129639 0.985352 0.547363 1 0 1.0
0 6.241869 0.000000 -4.334586 0.991699 0.000000 -0.129639 0.985352 0.547363 1 0 1.0
Default
0 6.241869 1.065868 -4.334586 0.991699 0.000000 -0.129639 0.985352 0.547363 1 0 1.0
0 6.464850 0.978695 -2.629444 0.991699 0.000000 -0.129639 0.985352 0.547363 1 0 1.0
0 6.241869 0.000000 -4.334586 0.991699 0.000000 -0.129639 0.985352 0.547363 1 0 1.0
Default
0 3.274631 -2.600119 -2.370757 -0.698242 0.000000 -0.715820 0.985352 0.547363 1 0 1.0
0 3.274631 0.000000 -2.370757 -0.698242 0.000000 -0.715820 0.985352 0.547363 1 0 1.0
0 5.114581 -1.852256 -4.165163 -0.698242 0.000000 -0.715820 0.985352 0.547363 1 0 1.0
Default
0 3.274631 0.000000 -2.370757 -0.698242 0.000000 -0.715820 0.985352 0.547363 1 0 1.0
0 5.114581 0.000000 -4.165163 -0.698242 0.000000 -0.715820 0.985352 0.547363 1 0 1.0
0 5.114581 -1.852256 -4.165163 -0.698242 0.000000 -0.715820 0.985352 0.547363 1 0 1.0
Default
0 5.114581 1.852256 -4.165163 -0.698242 0.000000 -0.715820 0.985352 0.547363 1 0 1.0
0 5.114581 0.000000 -4.165163 -0.698242 0.000000 -0.715820 0.985352 0.547363 1 0 1.0
0 3.274631 0.000000 -2.370757 -0.698242 0.000000 -0.715820 0.985352 0.547363 1 0 1.0
Default
0 3.274631 2.600119 -2.370757 -0.698242 0.000000 -0.715820 0.985352 0.547363 1 0 1.0
0 5.114581 1.852256 -4.165163 -0.698242 0.000000 -0.715820 0.985352 0.547363 1 0 1.0
0 3.274631 0.000000 -2.370757 -0.698242 0.000000 -0.715820 0.985352 0.547363 1 0 1.0
Default
0 6.464850 -0.978695 -2.629444 0.994141 0.000000 0.106506 0.985352 0.547363 1 0 1.0
0 6.464850 0.000000 -2.629444 0.994141 0.000000 0.106506 0.985352 0.547363 1 0 1.0
0 6.228753 -0.870165 -0.425876 0.994141 0.000000 0.106506 0.985352 0.547363 1 0 1.0
Default
0 6.464850 0.000000 -2.629444 0.994141 0.000000 0.106506 0.985352 0.547363 1 0 1.0
0 6.228753 0.000000 -0.425876 0.994141 0.000000 0.106506 0.985352 0.547363 1 0 1.0
0 6.228753 -0.870165 -0.425876 0.994141 0.000000 0.106506 0.985352 0.547363 1 0 1.0
Default
0 6.228753 0.870165 -0.425876 0.994141 0.000000 0.106506 0.985352 0.547363 1 0 1.0
0 6.228753 0.000000 -0.425876 0.994141 0.000000 0.106506 0.985352 0.547363 1 0 1.0
0 6.464850 0.000000 -2.629444 0.994141 0.000000 0.106506 0.985352 0.547363 1 0 1.0
Default
0 6.464850 0.978695 -2.629444 0.994141 0.000000 0.106506 0.985352 0.547363 1 0 1.0
0 6.228753 0.870165 -0.425876 0.994141 0.000000 0.106506 0.985352 0.547363 1 0 1.0
0 6.464850 0.000000 -2.629444 0.994141 0.000000 0.106506 0.985352 0.547363 1 0 1.0
Default
0 5.114581 -1.852256 -4.165163 -0.148682 0.000000 -0.988770 0.985352 0.547363 1 0 1.0
0 5.114581 0.000000 -4.165163 -0.148682 0.000000 -0.988770 0.985352 0.547363 1 0 1.0
0 6.241869 -1.065868 -4.334586 -0.148682 0.000000 -0.988770 0.985352 0.547363 1 0 1.0
Default
0 5.114581 0.000000 -4.165163 -0.148682 0.000000 -0.988770 0.985352 0.547363 1 0 1.0
0 6.241869 0.000000 -4.334586 -0.148682 0.000000 -0.988770 0.985352 0.547363 1 0 1.0
0 6.241869 -1.065868 -4.334586 -0.148682 0.000000 -0.988770 0.985352 0.547363 1 0 1.0
Default
0 6.241869 1.065868 -4.334586 -0.148682 0.000000 -0.988770 0.985352 0.547363 1 0 1.0
0 6.241869 0.000000 -4.334586 -0.148682 0.000000 -0.988770 0.985352 0.547363 1 0 1.0
0 5.114581 0.000000 -4.165163 -0.148682 0.000000 -0.988770 0.985352 0.547363 1 0 1.0
Default
0 5.114581 1.852256 -4.165163 -0.148682 0.000000 -0.988770 0.985352 0.547363 1 0 1.0
0 6.241869 1.065868 -4.334586 -0.148682 0.000000 -0.988770 0.985352 0.547363 1 0 1.0
0 5.114581 0.000000 -4.165163 -0.148682 0.000000 -0.988770 0.985352 0.547363 1 0 1.0
Default
0 1.282534 -1.478484 -0.905284 0.221680 0.000000 0.975098 0.015511 0.828613 1 0 1.0
0 1.282534 0.000000 -0.905284 0.221680 0.000000 0.975098 0.015511 0.828613 1 0 1.0
0 -0.520984 -0.777863 -0.495394 0.221680 0.000000 0.975098 0.015511 0.828613 1 0 1.0
Default
0 1.282534 0.000000 -0.905284 0.221680 0.000000 0.975098 0.015511 0.828613 1 0 1.0
0 -0.520984 0.000000 -0.495394 0.221680 0.000000 0.975098 0.015511 0.828613 1 0 1.0
0 -0.520984 -0.777863 -0.495394 0.221680 0.000000 0.975098 0.015511 0.828613 1 0 1.0
Default
0 -0.520984 0.777863 -0.495394 0.221680 0.000000 0.975098 0.015511 0.828613 1 0 1.0
0 -0.520984 0.000000 -0.495394 0.221680 0.000000 0.975098 0.015511 0.828613 1 0 1.0
0 1.282534 0.000000 -0.905284 0.221680 0.000000 0.975098 0.015511 0.828613 1 0 1.0
Default
0 1.282534 1.478484 -0.905284 0.221680 0.000000 0.975098 0.015511 0.828613 1 0 1.0
0 -0.520984 0.777863 -0.495394 0.221680 0.000000 0.975098 0.015511 0.828613 1 0 1.0
0 1.282534 0.000000 -0.905284 0.221680 0.000000 0.975098 0.015511 0.828613 1 0 1.0
Default
0 2.446623 -2.028831 -1.511922 0.462158 0.000000 0.886719 0.015511 0.828613 1 0 1.0
0 2.446623 0.000000 -1.511922 0.462158 0.000000 0.886719 0.015511 0.828613 1 0 1.0
0 1.282534 -1.478484 -0.905284 0.462158 0.000000 0.886719 0.015511 0.828613 1 0 1.0
Default
0 2.446623 0.000000 -1.511922 0.462158 0.000000 0.886719 0.015511 0.828613 1 0 1.0
0 1.282534 0.000000 -0.905284 0.462158 0.000000 0.886719 0.015511 0.828613 1 0 1.0
0 1.282534 -1.478484 -0.905284 0.462158 0.000000 0.886719 0.015511 0.828613 1 0 1.0
Default
0 1.282534 1.478484 -0.905284 0.462158 0.000000 0.886719 0.015511 0.828613 1 0 1.0
0 1.282534 0.000000 -0.905284 0.462158 0.000000 0.886719 0.015511 0.828613 1 0 1.0
0 2.446623 0.000000 -1.511922 0.462158 0.000000 0.886719 0.015511 0.828613 1 0 1.0
Default
0 2.446623 2.028831 -1.511922 0.462158 0.000000 0.886719 0.015511 0.828613 1 0 1.0
0 1.282534 1.478484 -0.905284 0.462158 0.000000 0.886719 0.015511 0.828613 1 0 1.0
0 2.446623 0.000000 -1.511922 0.462158 0.000000 0.886719 0.015511 0.828613 1 0 1.0
Default
0 -0.520984 -0.777863 -0.495394 -0.174927 0.000000 0.984375 0.015511 0.828613 1 0 1.0
0 -0.520984 0.000000 -0.495394 -0.174927 0.000000 0.984375 0.015511 0.828613 1 0 1.0
0 -4.400638 -0.415714 -1.184888 -0.174927 0.000000 0.984375 0.015511 0.828613 1 0 1.0
Default
0 -0.520984 0.000000 -0.495394 -0.174927 0.000000 0.984375 0.015511 0.828613 1 0 1.0
0 -4.400638 0.000000 -1.184888 -0.174927 0.000000 0.984375 0.015511 0.828613 1 0 1.0
0 -4.400638 -0.415714 -1.184888 -0.174927 0.000000 0.984375 0.015511 0.828613 1 0 1.0
Default
0 -4.400638 0.415714 -1.184888 -0.174927 0.000000 0.984375 0.015511 0.828613 1 0 1.0
0 -4.400638 0.000000 -1.184888 -0.174927 0.000000 0.984375 0.015511 0.828613 1 0 1.0
0 -0.520984 0.000000 -0.495394 -0.174927 0.000000 0.984375 0.015511 0.828613 1 0 1.0
Default
0 -0.520984 0.777863 -0.495394 -0.174927 0.000000 0.984375 0.015511 0.828613 1 0 1.0
0 -4.400638 0.415714 -1.184888 -0.174927 0.000000 0.984375 0.015511 0.828613 1 0 1.0
0 -0.520984 0.000000 -0.495394 -0.174927 0.000000 0.984375 0.015511 0.828613 1 0 1.0
end
