version 1
nodes
0 "root" -1
end
skeleton
time 0
0 0 0 0 0 0 0
end
triangles
Default
0 6.489497 -0.167171 -0.156574 -0.864746 -0.500000 -0.044006 0.982910 0.519531 1 0 1.0
0 6.722786 -0.620264 0.405248 -0.864746 -0.500000 -0.044006 0.982910 0.519531 1 0 1.0
0 6.365976 0.000000 0.372047 -0.864746 -0.500000 -0.044006 0.982910 0.519531 1 0 1.0
Default
0 6.365976 0.000000 0.372047 0.866699 0.496582 0.045532 0.982910 0.519531 1 0 1.0
0 6.530775 -0.244870 -0.095046 0.866699 0.496582 0.045532 0.982910 0.519531 1 0 1.0
0 6.489497 -0.167171 -0.156574 0.866699 0.496582 0.045532 0.982910 0.519531 1 0 1.0
Default
0 6.722786 -0.620264 0.405248 -0.568848 -0.286133 0.770996 0.982910 0.519531 1 0 1.0
0 6.708178 0.000000 0.624652 -0.568848 -0.286133 0.770996 0.982910 0.519531 1 0 1.0
0 6.365976 0.000000 0.372047 -0.568848 -0.286133 0.770996 0.982910 0.519531 1 0 1.0
Default
0 6.747505 0.000000 0.441750 0.080444 0.894043 -0.440430 0.982910 0.519531 1 0 1.0
0 6.530775 -0.244870 -0.095046 0.080444 0.894043 -0.440430 0.982910 0.519531 1 0 1.0
0 6.365976 0.000000 0.372047 0.080444 0.894043 -0.440430 0.982910 0.519531 1 0 1.0
Default
0 6.530775 -0.244870 -0.095046 0.097717 0.649414 0.754395 0.982910 0.519531 1 0 1.0
0 6.926392 -0.267430 -0.126867 0.097717 0.649414 0.754395 0.982910 0.519531 1 0 1.0
0 6.489497 -0.167171 -0.156574 0.097717 0.649414 0.754395 0.982910 0.519531 1 0 1.0
Default
0 6.489497 -0.167171 -0.156574 -0.099426 -0.794434 -0.599121 0.982910 0.519531 1 0 1.0
0 7.155600 -0.392009 0.030921 -0.099426 -0.794434 -0.599121 0.982910 0.519531 1 0 1.0
0 6.722786 -0.620264 0.405248 -0.099426 -0.794434 -0.599121 0.982910 0.519531 1 0 1.0
Default
0 6.722786 -0.620264 0.405248 0.099487 -0.329834 0.938965 0.982910 0.519531 1 0 1.0
0 7.343853 -0.323671 0.443620 0.099487 -0.329834 0.938965 0.982910 0.519531 1 0 1.0
0 6.708178 0.000000 0.624652 0.099487 -0.329834 0.938965 0.982910 0.519531 1 0 1.0
Default
0 6.747505 0.000000 0.441750 -0.129150 0.920898 -0.367920 0.982910 0.519531 1 0 1.0
0 7.106835 -0.143576 -0.043786 -0.129150 0.920898 -0.367920 0.982910 0.519531 1 0 1.0
0 6.530775 -0.244870 -0.095046 -0.129150 0.920898 -0.367920 0.982910 0.519531 1 0 1.0
Default
0 6.926392 -0.267430 -0.126867 -0.171509 -0.878906 -0.444824 0.982910 0.519531 1 0 1.0
0 7.155600 -0.392009 0.030921 -0.171509 -0.878906 -0.444824 0.982910 0.519531 1 0 1.0
0 6.489497 -0.167171 -0.156574 -0.171509 -0.878906 -0.444824 0.982910 0.519531 1 0 1.0
Default
0 7.155600 -0.392009 0.030921 0.432861 -0.900391 -0.048401 0.982910 0.519531 1 0 1.0
0 7.343853 -0.323671 0.443620 0.432861 -0.900391 -0.048401 0.982910 0.519531 1 0 1.0
0 6.722786 -0.620264 0.405248 0.432861 -0.900391 -0.048401 0.982910 0.519531 1 0 1.0
Default
0 7.343853 -0.323671 0.443620 0.340332 0.149292 0.928223 0.982910 0.519531 1 0 1.0
0 7.227878 0.000000 0.434077 0.340332 0.149292 0.928223 0.982910 0.519531 1 0 1.0
0 6.708178 0.000000 0.624652 0.340332 0.149292 0.928223 0.982910 0.519531 1 0 1.0
Default
0 7.106835 -0.143576 -0.043786 -0.031464 0.587891 -0.808105 0.982910 0.519531 1 0 1.0
0 6.926392 -0.267430 -0.126867 -0.031464 0.587891 -0.808105 0.982910 0.519531 1 0 1.0
0 6.530775 -0.244870 -0.095046 -0.031464 0.587891 -0.808105 0.982910 0.519531 1 0 1.0
Default
0 6.926392 -0.267430 -0.126867 0.411377 -0.322998 -0.852539 0.982910 0.519531 1 0 1.0
0 7.294732 -0.134045 0.000315 0.411377 -0.322998 -0.852539 0.982910 0.519531 1 0 1.0
0 7.155600 -0.392009 0.030921 0.411377 -0.322998 -0.852539 0.982910 0.519531 1 0 1.0
Default
0 7.155600 -0.392009 0.030921 0.825195 -0.480225 -0.296875 0.982910 0.519531 1 0 1.0
0 7.294732 -0.134045 0.000315 0.825195 -0.480225 -0.296875 0.982910 0.519531 1 0 1.0
0 7.343853 -0.323671 0.443620 0.825195 -0.480225 -0.296875 0.982910 0.519531 1 0 1.0
Default
0 7.343853 -0.323671 0.443620 0.940430 0.338135 0.040436 0.982910 0.519531 1 0 1.0
0 7.294732 -0.134045 0.000315 0.940430 0.338135 0.040436 0.982910 0.519531 1 0 1.0
0 7.227878 0.000000 0.434077 0.940430 0.338135 0.040436 0.982910 0.519531 1 0 1.0
Default
0 7.106835 -0.143576 -0.043786 0.200073 0.327881 -0.923340 0.982910 0.519531 1 0 1.0
0 7.294732 -0.134045 0.000315 0.200073 0.327881 -0.923340 0.982910 0.519531 1 0 1.0
0 6.926392 -0.267430 -0.126867 0.200073 0.327881 -0.923340 0.982910 0.519531 1 0 1.0
Default
0 12.560692 0.000000 0.150542 0.077820 -0.706543 0.703613 0.985352 0.732910 1 0 1.0
0 12.577903 -0.109727 0.038456 0.077820 -0.706543 0.703613 0.985352 0.732910 1 0 1.0
0 13.822042 0.000000 0.011029 0.077820 -0.706543 0.703613 0.985352 0.732910 1 0 1.0
Default
0 12.601227 0.000000 -0.113439 0.058990 -0.813477 -0.578613 0.984863 0.891602 1 0 1.0
0 13.822042 0.000000 0.011029 0.058990 -0.813477 -0.578613 0.984863 0.891602 1 0 1.0
0 12.577903 -0.109727 0.038456 0.058990 -0.813477 -0.578613 0.984863 0.891602 1 0 1.0
Default
0 9.753804 -0.208383 0.065054 0.023819 -0.817871 -0.574707 0.984863 0.891602 1 0 1.0
0 9.802866 0.000000 -0.232695 0.023819 -0.817871 -0.574707 0.984863 0.891602 1 0 1.0
0 12.601227 0.000000 -0.113439 0.058990 -0.813477 -0.578613 0.984863 0.891602 1 0 1.0
Default
0 12.577903 -0.109727 0.038456 0.023819 -0.817871 -0.574707 0.984863 0.891602 1 0 1.0
0 9.753804 -0.208383 0.065054 0.023819 -0.817871 -0.574707 0.984863 0.891602 1 0 1.0
0 12.601227 0.000000 -0.113439 0.058990 -0.813477 -0.578613 0.984863 0.891602 1 0 1.0
Default
0 6.722786 0.620264 0.405248 -0.864746 0.500000 -0.044006 0.982910 0.519531 1 0 1.0
0 6.489497 0.167171 -0.156574 -0.864746 0.500000 -0.044006 0.982910 0.519531 1 0 1.0
0 6.365976 0.000000 0.372047 -0.864746 0.500000 -0.044006 0.982910 0.519531 1 0 1.0
Default
0 6.530775 0.244870 -0.095046 0.866699 -0.496582 0.045532 0.982910 0.519531 1 0 1.0
0 6.365976 0.000000 0.372047 0.866699 -0.496582 0.045532 0.982910 0.519531 1 0 1.0
0 6.489497 0.167171 -0.156574 0.866699 -0.496582 0.045532 0.982910 0.519531 1 0 1.0
Default
0 6.708178 0.000000 0.624652 -0.568848 0.286133 0.770996 0.982910 0.519531 1 0 1.0
0 6.722786 0.620264 0.405248 -0.568848 0.286133 0.770996 0.982910 0.519531 1 0 1.0
0 6.365976 0.000000 0.372047 -0.568848 0.286133 0.770996 0.982910 0.519531 1 0 1.0
Default
0 6.530775 0.244870 -0.095046 0.080444 -0.894043 -0.440430 0.982910 0.519531 1 0 1.0
0 6.747505 0.000000 0.441750 0.080444 -0.894043 -0.440430 0.982910 0.519531 1 0 1.0
0 6.365976 0.000000 0.372047 0.080444 -0.894043 -0.440430 0.982910 0.519531 1 0 1.0
Default
0 6.926392 0.267430 -0.126867 0.097717 -0.649414 0.754395 0.982910 0.519531 1 0 1.0
0 6.530775 0.244870 -0.095046 0.097717 -0.649414 0.754395 0.982910 0.519531 1 0 1.0
0 6.489497 0.167171 -0.156574 0.097717 -0.649414 0.754395 0.982910 0.519531 1 0 1.0
Default
0 7.155600 0.392009 0.030921 -0.099426 0.794434 -0.599121 0.982910 0.519531 1 0 1.0
0 6.489497 0.167171 -0.156574 -0.099426 0.794434 -0.599121 0.982910 0.519531 1 0 1.0
0 6.722786 0.620264 0.405248 -0.099426 0.794434 -0.599121 0.982910 0.519531 1 0 1.0
Default
0 7.343853 0.323671 0.443620 0.099487 0.329834 0.938965 0.982910 0.519531 1 0 1.0
0 6.722786 0.620264 0.405248 0.099487 0.329834 0.938965 0.982910 0.519531 1 0 1.0
0 6.708178 0.000000 0.624652 0.099487 0.329834 0.938965 0.982910 0.519531 1 0 1.0
Default
0 7.106835 0.143576 -0.043786 -0.129150 -0.920898 -0.367920 0.982910 0.519531 1 0 1.0
0 6.747505 0.000000 0.441750 -0.129150 -0.920898 -0.367920 0.982910 0.519531 1 0 1.0
0 6.530775 0.244870 -0.095046 -0.129150 -0.920898 -0.367920 0.982910 0.519531 1 0 1.0
Default
0 7.155600 0.392009 0.030921 -0.171509 0.878906 -0.444824 0.982910 0.519531 1 0 1.0
0 6.926392 0.267430 -0.126867 -0.171509 0.878906 -0.444824 0.982910 0.519531 1 0 1.0
0 6.489497 0.167171 -0.156574 -0.171509 0.878906 -0.444824 0.982910 0.519531 1 0 1.0
Default
0 7.343853 0.323671 0.443620 0.432861 0.900391 -0.048401 0.982910 0.519531 1 0 1.0
0 7.155600 0.392009 0.030921 0.432861 0.900391 -0.048401 0.982910 0.519531 1 0 1.0
0 6.722786 0.620264 0.405248 0.432861 0.900391 -0.048401 0.982910 0.519531 1 0 1.0
Default
0 7.227878 0.000000 0.434077 0.340332 -0.149292 0.928223 0.982910 0.519531 1 0 1.0
0 7.343853 0.323671 0.443620 0.340332 -0.149292 0.928223 0.982910 0.519531 1 0 1.0
0 6.708178 0.000000 0.624652 0.340332 -0.149292 0.928223 0.982910 0.519531 1 0 1.0
Default
0 6.926392 0.267430 -0.126867 -0.031464 -0.587891 -0.808105 0.982910 0.519531 1 0 1.0
0 7.106835 0.143576 -0.043786 -0.031464 -0.587891 -0.808105 0.982910 0.519531 1 0 1.0
0 6.530775 0.244870 -0.095046 -0.031464 -0.587891 -0.808105 0.982910 0.519531 1 0 1.0
Default
0 7.294732 0.134045 0.000315 0.411377 0.322998 -0.852539 0.982910 0.519531 1 0 1.0
0 6.926392 0.267430 -0.126867 0.411377 0.322998 -0.852539 0.982910 0.519531 1 0 1.0
0 7.155600 0.392009 0.030921 0.411377 0.322998 -0.852539 0.982910 0.519531 1 0 1.0
Default
0 7.294732 0.134045 0.000315 0.825195 0.480225 -0.296875 0.982910 0.519531 1 0 1.0
0 7.155600 0.392009 0.030921 0.825195 0.480225 -0.296875 0.982910 0.519531 1 0 1.0
0 7.343853 0.323671 0.443620 0.825195 0.480225 -0.296875 0.982910 0.519531 1 0 1.0
Default
0 7.294732 0.134045 0.000315 0.940430 -0.338135 0.040436 0.982910 0.519531 1 0 1.0
0 7.343853 0.323671 0.443620 0.940430 -0.338135 0.040436 0.982910 0.519531 1 0 1.0
0 7.227878 0.000000 0.434077 0.940430 -0.338135 0.040436 0.982910 0.519531 1 0 1.0
Default
0 7.294732 0.134045 0.000315 0.200073 -0.327881 -0.923340 0.982910 0.519531 1 0 1.0
0 7.106835 0.143576 -0.043786 0.200073 -0.327881 -0.923340 0.982910 0.519531 1 0 1.0
0 6.926392 0.267430 -0.126867 0.200073 -0.327881 -0.923340 0.982910 0.519531 1 0 1.0
Default
0 12.577903 0.109727 0.038456 0.077820 0.706543 0.703613 0.985352 0.732910 1 0 1.0
0 12.560692 0.000000 0.150542 0.077820 0.706543 0.703613 0.985352 0.732910 1 0 1.0
0 13.822042 0.000000 0.011029 0.077820 0.706543 0.703613 0.985352 0.732910 1 0 1.0
Default
0 13.822042 0.000000 0.011029 0.058990 0.813477 -0.578613 0.984863 0.891602 1 0 1.0
0 12.601227 0.000000 -0.113439 0.058990 0.813477 -0.578613 0.984863 0.891602 1 0 1.0
0 12.577903 0.109727 0.038456 0.058990 0.813477 -0.578613 0.984863 0.891602 1 0 1.0
Default
0 9.753804 0.208383 0.065054 0.023819 0.817871 -0.574707 0.984863 0.891602 1 0 1.0
0 12.577903 0.109727 0.038456 0.023819 0.817871 -0.574707 0.984863 0.891602 1 0 1.0
0 12.601227 0.000000 -0.113439 0.058990 0.813477 -0.578613 0.984863 0.891602 1 0 1.0
Default
0 9.802866 0.000000 -0.232695 0.023819 0.817871 -0.574707 0.984863 0.891602 1 0 1.0
0 9.753804 0.208383 0.065054 0.023819 0.817871 -0.574707 0.984863 0.891602 1 0 1.0
0 12.601227 0.000000 -0.113439 0.058990 0.813477 -0.578613 0.984863 0.891602 1 0 1.0
Default
0 -11.680546 0.000000 0.079576 -0.000000 -1.000000 0.000000 0.987305 0.857422 1 0 1.0
0 -11.652593 0.000000 0.363038 -0.000000 -1.000000 0.000000 0.987305 0.857422 1 0 1.0
0 -13.822042 0.000000 0.987482 -0.000000 -1.000000 0.000000 0.987305 0.857422 1 0 1.0
Default
0 -13.822042 0.000000 0.987482 -0.000000 -1.000000 0.000000 0.987305 0.857422 1 0 1.0
0 -13.186422 0.000000 0.032311 -0.000000 -1.000000 0.000000 0.987305 0.857422 1 0 1.0
0 -11.680546 0.000000 0.079576 -0.000000 -1.000000 0.000000 0.987305 0.857422 1 0 1.0
Default
0 -11.568733 0.000000 -0.184971 -0.000000 -1.000000 0.000000 0.987305 0.857422 1 0 1.0
0 -11.680546 0.000000 0.079576 -0.000000 -1.000000 0.000000 0.987305 0.857422 1 0 1.0
0 -13.186422 0.000000 0.032311 -0.000000 -1.000000 0.000000 0.987305 0.857422 1 0 1.0
Default
0 -13.650962 0.000000 -1.049623 -0.000000 -1.000000 0.000000 0.987305 0.857422 1 0 1.0
0 -11.568733 0.000000 -0.184971 -0.000000 -1.000000 0.000000 0.987305 0.857422 1 0 1.0
0 -13.186422 0.000000 0.032311 -0.000000 -1.000000 0.000000 0.987305 0.857422 1 0 1.0
Default
0 3.665706 -0.398300 0.104690 -0.012207 -0.894043 -0.447998 0.984863 0.891602 1 0 1.0
0 3.712743 0.000000 -0.712039 -0.012207 -0.894043 -0.447998 0.984863 0.891602 1 0 1.0
0 6.903308 0.000000 -0.778382 -0.012207 -0.894043 -0.447998 0.984863 0.891602 1 0 1.0
Default
0 6.770572 -0.391690 -0.013664 -0.012207 -0.894043 -0.447998 0.984863 0.891602 1 0 1.0
0 3.665706 -0.398300 0.104690 -0.012207 -0.894043 -0.447998 0.984863 0.891602 1 0 1.0
0 6.903308 0.000000 -0.778382 -0.012207 -0.894043 -0.447998 0.984863 0.891602 1 0 1.0
Default
0 -6.650974 0.000000 -0.487492 -0.008369 -0.891113 -0.453613 0.984863 0.891602 1 0 1.0
0 3.712743 0.000000 -0.712039 -0.008369 -0.891113 -0.453613 0.984863 0.891602 1 0 1.0
0 3.665706 -0.398300 0.104690 -0.012207 -0.894043 -0.447998 0.984863 0.891602 1 0 1.0
Default
0 3.665706 -0.398300 0.104690 -0.012207 -0.894043 -0.447998 0.984863 0.891602 1 0 1.0
0 -6.697180 -0.332039 0.132314 -0.008369 -0.891113 -0.453613 0.984863 0.891602 1 0 1.0
0 -6.650974 0.000000 -0.487492 -0.008369 -0.891113 -0.453613 0.984863 0.891602 1 0 1.0
Default
0 -10.172615 -0.332039 0.134834 -0.028107 -0.762207 0.646973 0.985352 0.732910 1 0 1.0
0 -6.697180 -0.332039 0.132314 -0.028107 -0.762207 0.646973 0.985352 0.732910 1 0 1.0
0 -6.718152 0.000000 0.676115 -0.028107 -0.762207 0.646973 0.985352 0.732910 1 0 1.0
Default
0 -10.172615 0.000000 0.372458 -0.028107 -0.762207 0.646973 0.985352 0.732910 1 0 1.0
0 -10.172615 -0.332039 0.134834 -0.028107 -0.762207 0.646973 0.985352 0.732910 1 0 1.0
0 -6.718152 0.000000 0.676115 -0.028107 -0.762207 0.646973 0.985352 0.732910 1 0 1.0
Default
0 -6.718152 0.000000 0.676115 -0.007336 -0.877930 0.478760 0.985352 0.732910 1 0 1.0
0 -6.697180 -0.332039 0.132314 -0.007336 -0.877930 0.478760 0.985352 0.732910 1 0 1.0
0 3.665706 0.000000 0.900221 -0.007336 -0.877930 0.478760 0.985352 0.732910 1 0 1.0
Default
0 -6.697180 -0.332039 0.132314 -0.007336 -0.877930 0.478760 0.985352 0.732910 1 0 1.0
0 3.665706 -0.398300 0.104690 -0.007336 -0.877930 0.478760 0.985352 0.732910 1 0 1.0
0 3.665706 0.000000 0.900221 -0.007336 -0.877930 0.478760 0.985352 0.732910 1 0 1.0
Default
0 3.665706 0.000000 0.900221 -0.007336 -0.877930 0.478760 0.985352 0.732910 1 0 1.0
0 3.665706 -0.398300 0.104690 -0.007336 -0.877930 0.478760 0.985352 0.732910 1 0 1.0
0 6.678926 0.000000 0.669790 0.027878 -0.880859 0.472412 0.985352 0.732910 1 0 1.0
Default
0 3.665706 -0.398300 0.104690 -0.007336 -0.877930 0.478760 0.985352 0.732910 1 0 1.0
0 6.770572 -0.391690 -0.013664 0.027878 -0.880859 0.472412 0.985352 0.732910 1 0 1.0
0 6.678926 0.000000 0.669790 0.027878 -0.880859 0.472412 0.985352 0.732910 1 0 1.0
Default
0 -9.594512 0.000000 1.049623 -0.000000 -1.000000 0.000000 0.987305 0.857422 1 0 1.0
0 -9.699700 0.000000 0.550961 -0.000000 -1.000000 0.000000 0.987305 0.857422 1 0 1.0
0 -10.172615 0.000000 0.372458 -0.000000 -1.000000 0.000000 0.987305 0.857422 1 0 1.0
Default
0 -6.718152 0.000000 0.676115 -0.000000 -1.000000 0.000000 0.987305 0.857422 1 0 1.0
0 -9.594512 0.000000 1.049623 -0.000000 -1.000000 0.000000 0.987305 0.857422 1 0 1.0
0 -10.172615 0.000000 0.372458 -0.000000 -1.000000 0.000000 0.987305 0.857422 1 0 1.0
Default
0 -10.172615 -0.332039 0.134834 -0.032440 -0.793945 -0.606934 0.984863 0.891602 1 0 1.0
0 -10.172615 0.000000 -0.116201 -0.032440 -0.793945 -0.606934 0.984863 0.891602 1 0 1.0
0 -6.650974 0.000000 -0.487492 -0.032440 -0.793945 -0.606934 0.984863 0.891602 1 0 1.0
Default
0 -6.697180 -0.332039 0.132314 -0.032440 -0.793945 -0.606934 0.984863 0.891602 1 0 1.0
0 -10.172615 -0.332039 0.134834 -0.032440 -0.793945 -0.606934 0.984863 0.891602 1 0 1.0
0 -6.650974 0.000000 -0.487492 -0.032440 -0.793945 -0.606934 0.984863 0.891602 1 0 1.0
Default
0 -11.568733 0.000000 -0.184971 -0.157837 -0.943848 -0.290039 0.984863 0.891602 1 0 1.0
0 -11.210310 0.000000 -0.176261 -0.157837 -0.943848 -0.290039 0.984863 0.891602 1 0 1.0
0 -11.288505 -0.127632 0.077774 -0.157837 -0.943848 -0.290039 0.984863 0.891602 1 0 1.0
Default
0 -11.680546 0.000000 0.079576 -0.157837 -0.943848 -0.290039 0.984863 0.891602 1 0 1.0
0 -11.568733 0.000000 -0.184971 -0.157837 -0.943848 -0.290039 0.984863 0.891602 1 0 1.0
0 -11.288505 -0.127632 0.077774 -0.157837 -0.943848 -0.290039 0.984863 0.891602 1 0 1.0
Default
0 6.708178 0.000000 0.624652 -0.000000 1.000000 0.000000 0.982910 0.519531 1 0 1.0
0 6.747505 0.000000 0.441750 -0.000000 1.000000 0.000000 0.982910 0.519531 1 0 1.0
0 6.365976 0.000000 0.372047 -0.000000 1.000000 0.000000 0.982910 0.519531 1 0 1.0
Default
0 6.708178 0.000000 0.624652 -0.000000 1.000000 0.000000 0.982910 0.519531 1 0 1.0
0 7.227878 0.000000 0.434077 -0.000000 1.000000 0.000000 0.982910 0.519531 1 0 1.0
0 6.747505 0.000000 0.441750 -0.000000 1.000000 0.000000 0.982910 0.519531 1 0 1.0
Default
0 7.227878 0.000000 0.434077 -0.004578 0.958008 -0.286621 0.982910 0.519531 1 0 1.0
0 7.106835 -0.143576 -0.043786 -0.004578 0.958008 -0.286621 0.982910 0.519531 1 0 1.0
0 6.747505 0.000000 0.441750 -0.004578 0.958008 -0.286621 0.982910 0.519531 1 0 1.0
Default
0 7.227878 0.000000 0.434077 -0.004578 0.958008 -0.286621 0.982910 0.519531 1 0 1.0
0 7.294732 -0.134045 0.000315 0.020111 0.956055 -0.292480 0.982910 0.519531 1 0 1.0
0 7.106835 -0.143576 -0.043786 -0.004578 0.958008 -0.286621 0.982910 0.519531 1 0 1.0
Default
0 -11.288505 -0.127632 0.077774 -0.083008 -0.760742 0.643555 0.985352 0.732910 1 0 1.0
0 -10.172615 -0.332039 0.134834 -0.083008 -0.760742 0.643555 0.985352 0.732910 1 0 1.0
0 -10.172615 0.000000 0.372458 -0.083008 -0.760742 0.643555 0.985352 0.732910 1 0 1.0
Default
0 -11.272642 0.000000 0.385372 -0.083008 -0.760742 0.643555 0.985352 0.732910 1 0 1.0
0 -11.288505 -0.127632 0.077774 -0.083008 -0.760742 0.643555 0.985352 0.732910 1 0 1.0
0 -10.172615 0.000000 0.372458 -0.083008 -0.760742 0.643555 0.985352 0.732910 1 0 1.0
Default
0 -11.680546 0.000000 0.079576 -0.164795 -0.961426 0.219849 0.985352 0.732910 1 0 1.0
0 -11.288505 -0.127632 0.077774 -0.164795 -0.961426 0.219849 0.985352 0.732910 1 0 1.0
0 -11.272642 0.000000 0.385372 -0.164795 -0.961426 0.219849 0.985352 0.732910 1 0 1.0
Default
0 -11.652593 0.000000 0.363038 -0.164795 -0.961426 0.219849 0.985352 0.732910 1 0 1.0
0 -11.680546 0.000000 0.079576 -0.164795 -0.961426 0.219849 0.985352 0.732910 1 0 1.0
0 -11.272642 0.000000 0.385372 -0.164795 -0.961426 0.219849 0.985352 0.732910 1 0 1.0
Default
0 -11.210310 0.000000 -0.176261 -0.033173 -0.736816 -0.675293 0.984863 0.891602 1 0 1.0
0 -10.172615 0.000000 -0.116201 -0.033173 -0.736816 -0.675293 0.984863 0.891602 1 0 1.0
0 -10.172615 -0.332039 0.134834 -0.033173 -0.736816 -0.675293 0.984863 0.891602 1 0 1.0
Default
0 -11.288505 -0.127632 0.077774 -0.033173 -0.736816 -0.675293 0.984863 0.891602 1 0 1.0
0 -11.210310 0.000000 -0.176261 -0.033173 -0.736816 -0.675293 0.984863 0.891602 1 0 1.0
0 -10.172615 -0.332039 0.134834 -0.033173 -0.736816 -0.675293 0.984863 0.891602 1 0 1.0
Default
0 -11.210310 0.000000 -0.176261 -0.000000 -1.000000 0.000000 0.987305 0.857422 1 0 1.0
0 -10.203580 0.000000 -0.303858 -0.000000 -1.000000 0.000000 0.987305 0.857422 1 0 1.0
0 -10.172615 0.000000 -0.116201 -0.000000 -1.000000 0.000000 0.987305 0.857422 1 0 1.0
Default
0 -10.172615 0.000000 -0.116201 -0.000000 -1.000000 0.000000 0.987305 0.857422 1 0 1.0
0 -10.203580 0.000000 -0.303858 -0.000000 -1.000000 0.000000 0.987305 0.857422 1 0 1.0
0 -9.547692 0.000000 -0.296993 -0.000000 -1.000000 0.000000 0.987305 0.857422 1 0 1.0
Default
0 -10.172615 0.000000 -0.116201 -0.000000 -1.000000 0.000000 0.987305 0.857422 1 0 1.0
0 -9.547692 0.000000 -0.296993 -0.000000 -1.000000 0.000000 0.987305 0.857422 1 0 1.0
0 -6.650974 0.000000 -0.487492 -0.000000 -1.000000 0.000000 0.987305 0.857422 1 0 1.0
Default
0 -9.161012 0.000000 -0.979107 -0.000000 -1.000000 0.000000 0.987305 0.857422 1 0 1.0
0 -6.650974 0.000000 -0.487492 -0.000000 -1.000000 0.000000 0.987305 0.857422 1 0 1.0
0 -9.547692 0.000000 -0.296993 -0.000000 -1.000000 0.000000 0.987305 0.857422 1 0 1.0
Default
0 -11.680546 0.000000 0.079576 -0.000000 1.000000 0.000000 0.985352 0.732910 1 0 1.0
0 -13.186422 0.000000 0.032311 -0.000000 1.000000 0.000000 0.985352 0.732910 1 0 1.0
0 -13.822042 0.000000 0.987482 -0.000000 1.000000 0.000000 0.985352 0.732910 1 0 1.0
Default
0 -13.822042 0.000000 0.987482 -0.000000 1.000000 0.000000 0.985352 0.732910 1 0 1.0
0 -11.652593 0.000000 0.363038 -0.000000 1.000000 0.000000 0.985352 0.732910 1 0 1.0
0 -11.680546 0.000000 0.079576 -0.000000 1.000000 0.000000 0.985352 0.732910 1 0 1.0
Default
0 -9.594512 0.000000 1.049623 -0.000000 1.000000 0.000000 0.985352 0.732910 1 0 1.0
0 -6.718152 0.000000 0.676115 -0.000000 1.000000 0.000000 0.985352 0.732910 1 0 1.0
0 -10.172615 0.000000 0.372458 -0.000000 1.000000 0.000000 0.985352 0.732910 1 0 1.0
Default
0 -9.699700 0.000000 0.550961 -0.000000 1.000000 0.000000 0.985352 0.732910 1 0 1.0
0 -9.594512 0.000000 1.049623 -0.000000 1.000000 0.000000 0.985352 0.732910 1 0 1.0
0 -10.172615 0.000000 0.372458 -0.000000 1.000000 0.000000 0.985352 0.732910 1 0 1.0
Default
0 -11.568733 0.000000 -0.184971 -0.000000 1.000000 0.000000 0.987305 0.857422 1 0 1.0
0 -13.650962 0.000000 -1.049623 -0.000000 1.000000 0.000000 0.987305 0.857422 1 0 1.0
0 -13.186422 0.000000 0.032311 -0.000000 1.000000 0.000000 0.987305 0.857422 1 0 1.0
Default
0 -11.680546 0.000000 0.079576 -0.000000 1.000000 0.000000 0.987305 0.857422 1 0 1.0
0 -11.568733 0.000000 -0.184971 -0.000000 1.000000 0.000000 0.987305 0.857422 1 0 1.0
0 -13.186422 0.000000 0.032311 -0.000000 1.000000 0.000000 0.987305 0.857422 1 0 1.0
Default
0 -10.203580 0.000000 -0.303858 -0.000000 1.000000 0.000000 0.987305 0.857422 1 0 1.0
0 -11.210310 0.000000 -0.176261 -0.000000 1.000000 0.000000 0.987305 0.857422 1 0 1.0
0 -10.172615 0.000000 -0.116201 -0.000000 1.000000 0.000000 0.987305 0.857422 1 0 1.0
Default
0 -10.203580 0.000000 -0.303858 -0.000000 1.000000 0.000000 0.987305 0.857422 1 0 1.0
0 -10.172615 0.000000 -0.116201 -0.000000 1.000000 0.000000 0.987305 0.857422 1 0 1.0
0 -9.547692 0.000000 -0.296993 -0.000000 1.000000 0.000000 0.987305 0.857422 1 0 1.0
Default
0 -9.547692 0.000000 -0.296993 -0.000000 1.000000 0.000000 0.987305 0.857422 1 0 1.0
0 -10.172615 0.000000 -0.116201 -0.000000 1.000000 0.000000 0.987305 0.857422 1 0 1.0
0 -6.650974 0.000000 -0.487492 -0.000000 1.000000 0.000000 0.987305 0.857422 1 0 1.0
Default
0 -6.650974 0.000000 -0.487492 -0.000000 1.000000 0.000000 0.987305 0.857422 1 0 1.0
0 -9.161012 0.000000 -0.979107 -0.000000 1.000000 0.000000 0.987305 0.857422 1 0 1.0
0 -9.547692 0.000000 -0.296993 -0.000000 1.000000 0.000000 0.987305 0.857422 1 0 1.0
Default
0 9.753804 -0.208383 0.065054 0.034943 -0.744141 0.666992 0.985352 0.732910 1 0 1.0
0 12.577903 -0.109727 0.038456 0.034943 -0.744141 0.666992 0.985352 0.732910 1 0 1.0
0 12.560692 0.000000 0.150542 0.034943 -0.744141 0.666992 0.985352 0.732910 1 0 1.0
Default
0 9.718977 0.000000 0.310764 0.034943 -0.744141 0.666992 0.985352 0.732910 1 0 1.0
0 9.753804 -0.208383 0.065054 0.034943 -0.744141 0.666992 0.985352 0.732910 1 0 1.0
0 12.560692 0.000000 0.150542 0.034943 -0.744141 0.666992 0.985352 0.732910 1 0 1.0
Default
0 6.770572 -0.391690 -0.013664 0.050873 -0.835938 0.546875 0.985352 0.732910 1 0 1.0
0 9.753804 -0.208383 0.065054 0.050873 -0.835938 0.546875 0.985352 0.732910 1 0 1.0
0 9.718977 0.000000 0.310764 0.050873 -0.835938 0.546875 0.985352 0.732910 1 0 1.0
Default
0 6.678926 0.000000 0.669790 0.050873 -0.835938 0.546875 0.985352 0.732910 1 0 1.0
0 6.770572 -0.391690 -0.013664 0.050873 -0.835938 0.546875 0.985352 0.732910 1 0 1.0
0 9.718977 0.000000 0.310764 0.050873 -0.835938 0.546875 0.985352 0.732910 1 0 1.0
Default
0 6.770572 -0.391690 -0.013664 0.078186 -0.873535 -0.479980 0.984863 0.891602 1 0 1.0
0 6.903308 0.000000 -0.778382 0.078186 -0.873535 -0.479980 0.984863 0.891602 1 0 1.0
0 9.802866 0.000000 -0.232695 0.078186 -0.873535 -0.479980 0.984863 0.891602 1 0 1.0
Default
0 9.753804 -0.208383 0.065054 0.078186 -0.873535 -0.479980 0.984863 0.891602 1 0 1.0
0 6.770572 -0.391690 -0.013664 0.078186 -0.873535 -0.479980 0.984863 0.891602 1 0 1.0
0 9.802866 0.000000 -0.232695 0.078186 -0.873535 -0.479980 0.984863 0.891602 1 0 1.0
Default
0 3.665706 0.398300 0.104690 -0.012207 0.894043 -0.447998 0.984863 0.891602 1 0 1.0
0 6.770572 0.391690 -0.013664 -0.012207 0.894043 -0.447998 0.984863 0.891602 1 0 1.0
0 6.903308 0.000000 -0.778382 -0.012207 0.894043 -0.447998 0.984863 0.891602 1 0 1.0
Default
0 3.712743 0.000000 -0.712039 -0.012207 0.894043 -0.447998 0.984863 0.891602 1 0 1.0
0 3.665706 0.398300 0.104690 -0.012207 0.894043 -0.447998 0.984863 0.891602 1 0 1.0
0 6.903308 0.000000 -0.778382 -0.012207 0.894043 -0.447998 0.984863 0.891602 1 0 1.0
Default
0 3.665706 0.398300 0.104690 -0.012207 0.894043 -0.447998 0.984863 0.891602 1 0 1.0
0 3.712743 0.000000 -0.712039 -0.008369 0.891113 -0.453613 0.984863 0.891602 1 0 1.0
0 -6.650974 0.000000 -0.487492 -0.008369 0.891113 -0.453613 0.984863 0.891602 1 0 1.0
Default
0 -6.650974 0.000000 -0.487492 -0.008369 0.891113 -0.453613 0.984863 0.891602 1 0 1.0
0 -6.697180 0.332039 0.132314 -0.008369 0.891113 -0.453613 0.984863 0.891602 1 0 1.0
0 3.665706 0.398300 0.104690 -0.012207 0.894043 -0.447998 0.984863 0.891602 1 0 1.0
Default
0 -10.172615 0.332039 0.134834 -0.028107 0.762207 0.646973 0.985352 0.732910 1 0 1.0
0 -10.172615 0.000000 0.372458 -0.028107 0.762207 0.646973 0.985352 0.732910 1 0 1.0
0 -6.718152 0.000000 0.676115 -0.028107 0.762207 0.646973 0.985352 0.732910 1 0 1.0
Default
0 -6.697180 0.332039 0.132314 -0.028107 0.762207 0.646973 0.985352 0.732910 1 0 1.0
0 -10.172615 0.332039 0.134834 -0.028107 0.762207 0.646973 0.985352 0.732910 1 0 1.0
0 -6.718152 0.000000 0.676115 -0.028107 0.762207 0.646973 0.985352 0.732910 1 0 1.0
Default
0 -6.697180 0.332039 0.132314 -0.007336 0.877930 0.478760 0.985352 0.732910 1 0 1.0
0 -6.718152 0.000000 0.676115 -0.007336 0.877930 0.478760 0.985352 0.732910 1 0 1.0
0 3.665706 0.000000 0.900221 -0.007336 0.877930 0.478760 0.985352 0.732910 1 0 1.0
Default
0 3.665706 0.398300 0.104690 -0.007336 0.877930 0.478760 0.985352 0.732910 1 0 1.0
0 -6.697180 0.332039 0.132314 -0.007336 0.877930 0.478760 0.985352 0.732910 1 0 1.0
0 3.665706 0.000000 0.900221 -0.007336 0.877930 0.478760 0.985352 0.732910 1 0 1.0
Default
0 3.665706 0.398300 0.104690 -0.007336 0.877930 0.478760 0.985352 0.732910 1 0 1.0
0 3.665706 0.000000 0.900221 -0.007336 0.877930 0.478760 0.985352 0.732910 1 0 1.0
0 6.678926 0.000000 0.669790 0.027878 0.880859 0.472412 0.985352 0.732910 1 0 1.0
Default
0 6.770572 0.391690 -0.013664 0.027878 0.880859 0.472412 0.985352 0.732910 1 0 1.0
0 3.665706 0.398300 0.104690 -0.007336 0.877930 0.478760 0.985352 0.732910 1 0 1.0
0 6.678926 0.000000 0.669790 0.027878 0.880859 0.472412 0.985352 0.732910 1 0 1.0
Default
0 -10.172615 0.332039 0.134834 -0.032440 0.793945 -0.606934 0.984863 0.891602 1 0 1.0
0 -6.697180 0.332039 0.132314 -0.032440 0.793945 -0.606934 0.984863 0.891602 1 0 1.0
0 -6.650974 0.000000 -0.487492 -0.032440 0.793945 -0.606934 0.984863 0.891602 1 0 1.0
Default
0 -10.172615 0.000000 -0.116201 -0.032440 0.793945 -0.606934 0.984863 0.891602 1 0 1.0
0 -10.172615 0.332039 0.134834 -0.032440 0.793945 -0.606934 0.984863 0.891602 1 0 1.0
0 -6.650974 0.000000 -0.487492 -0.032440 0.793945 -0.606934 0.984863 0.891602 1 0 1.0
Default
0 -11.568733 0.000000 -0.184971 -0.157837 0.943848 -0.290039 0.984863 0.891602 1 0 1.0
0 -11.680546 0.000000 0.079576 -0.157837 0.943848 -0.290039 0.984863 0.891602 1 0 1.0
0 -11.288505 0.127632 0.077774 -0.157837 0.943848 -0.290039 0.984863 0.891602 1 0 1.0
Default
0 -11.210310 0.000000 -0.176261 -0.157837 0.943848 -0.290039 0.984863 0.891602 1 0 1.0
0 -11.568733 0.000000 -0.184971 -0.157837 0.943848 -0.290039 0.984863 0.891602 1 0 1.0
0 -11.288505 0.127632 0.077774 -0.157837 0.943848 -0.290039 0.984863 0.891602 1 0 1.0
Default
0 7.106835 0.143576 -0.043786 -0.004578 -0.958008 -0.286621 0.982910 0.519531 1 0 1.0
0 7.227878 0.000000 0.434077 -0.004578 -0.958008 -0.286621 0.982910 0.519531 1 0 1.0
0 6.747505 0.000000 0.441750 -0.004578 -0.958008 -0.286621 0.982910 0.519531 1 0 1.0
Default
0 7.294732 0.134045 0.000315 0.020111 -0.956055 -0.292480 0.982910 0.519531 1 0 1.0
0 7.227878 0.000000 0.434077 -0.004578 -0.958008 -0.286621 0.982910 0.519531 1 0 1.0
0 7.106835 0.143576 -0.043786 -0.004578 -0.958008 -0.286621 0.982910 0.519531 1 0 1.0
Default
0 -11.288505 0.127632 0.077774 -0.083008 0.760742 0.643555 0.985352 0.732910 1 0 1.0
0 -11.272642 0.000000 0.385372 -0.083008 0.760742 0.643555 0.985352 0.732910 1 0 1.0
0 -10.172615 0.000000 0.372458 -0.083008 0.760742 0.643555 0.985352 0.732910 1 0 1.0
Default
0 -10.172615 0.332039 0.134834 -0.083008 0.760742 0.643555 0.985352 0.732910 1 0 1.0
0 -11.288505 0.127632 0.077774 -0.083008 0.760742 0.643555 0.985352 0.732910 1 0 1.0
0 -10.172615 0.000000 0.372458 -0.083008 0.760742 0.643555 0.985352 0.732910 1 0 1.0
Default
0 -11.680546 0.000000 0.079576 -0.164795 0.961426 0.219849 0.985352 0.732910 1 0 1.0
0 -11.652593 0.000000 0.363038 -0.164795 0.961426 0.219849 0.985352 0.732910 1 0 1.0
0 -11.272642 0.000000 0.385372 -0.164795 0.961426 0.219849 0.985352 0.732910 1 0 1.0
Default
0 -11.288505 0.127632 0.077774 -0.164795 0.961426 0.219849 0.985352 0.732910 1 0 1.0
0 -11.680546 0.000000 0.079576 -0.164795 0.961426 0.219849 0.985352 0.732910 1 0 1.0
0 -11.272642 0.000000 0.385372 -0.164795 0.961426 0.219849 0.985352 0.732910 1 0 1.0
Default
0 -11.210310 0.000000 -0.176261 -0.033173 0.736816 -0.675293 0.984863 0.891602 1 0 1.0
0 -11.288505 0.127632 0.077774 -0.033173 0.736816 -0.675293 0.984863 0.891602 1 0 1.0
0 -10.172615 0.332039 0.134834 -0.033173 0.736816 -0.675293 0.984863 0.891602 1 0 1.0
Default
0 -10.172615 0.000000 -0.116201 -0.033173 0.736816 -0.675293 0.984863 0.891602 1 0 1.0
0 -11.210310 0.000000 -0.176261 -0.033173 0.736816 -0.675293 0.984863 0.891602 1 0 1.0
0 -10.172615 0.332039 0.134834 -0.033173 0.736816 -0.675293 0.984863 0.891602 1 0 1.0
Default
0 9.753804 0.208383 0.065054 0.034943 0.744141 0.666992 0.985352 0.732910 1 0 1.0
0 9.718977 0.000000 0.310764 0.034943 0.744141 0.666992 0.985352 0.732910 1 0 1.0
0 12.560692 0.000000 0.150542 0.034943 0.744141 0.666992 0.985352 0.732910 1 0 1.0
Default
0 12.577903 0.109727 0.038456 0.034943 0.744141 0.666992 0.985352 0.732910 1 0 1.0
0 9.753804 0.208383 0.065054 0.034943 0.744141 0.666992 0.985352 0.732910 1 0 1.0
0 12.560692 0.000000 0.150542 0.034943 0.744141 0.666992 0.985352 0.732910 1 0 1.0
Default
0 6.770572 0.391690 -0.013664 0.050873 0.835938 0.546875 0.985352 0.732910 1 0 1.0
0 6.678926 0.000000 0.669790 0.050873 0.835938 0.546875 0.985352 0.732910 1 0 1.0
0 9.718977 0.000000 0.310764 0.050873 0.835938 0.546875 0.985352 0.732910 1 0 1.0
Default
0 9.753804 0.208383 0.065054 0.050873 0.835938 0.546875 0.985352 0.732910 1 0 1.0
0 6.770572 0.391690 -0.013664 0.050873 0.835938 0.546875 0.985352 0.732910 1 0 1.0
0 9.718977 0.000000 0.310764 0.050873 0.835938 0.546875 0.985352 0.732910 1 0 1.0
Default
0 6.770572 0.391690 -0.013664 0.078186 0.873535 -0.479980 0.984863 0.891602 1 0 1.0
0 9.753804 0.208383 0.065054 0.078186 0.873535 -0.479980 0.984863 0.891602 1 0 1.0
0 9.802866 0.000000 -0.232695 0.078186 0.873535 -0.479980 0.984863 0.891602 1 0 1.0
Default
0 6.903308 0.000000 -0.778382 0.078186 0.873535 -0.479980 0.984863 0.891602 1 0 1.0
0 6.770572 0.391690 -0.013664 0.078186 0.873535 -0.479980 0.984863 0.891602 1 0 1.0
0 9.802866 0.000000 -0.232695 0.078186 0.873535 -0.479980 0.984863 0.891602 1 0 1.0
end
