version 1
nodes
0 "root" -1
end
skeleton
time 0
0 0 0 0 0 0 0
end
triangles
Default
0 2.337304 -1.799998 13.594637 -0.000000 -1.000000 0.000000 0.230103 0.730957 1 0 1.0
0 -0.844998 -1.799998 16.480436 -0.000000 -1.000000 0.000000 0.230103 0.730957 1 0 1.0
0 0.806127 -1.799998 4.069748 -0.000000 -1.000000 0.000000 0.230103 0.730957 1 0 1.0
Default
0 -0.844998 -1.799998 16.480436 -0.000000 -1.000000 0.000000 0.230103 0.730957 1 0 1.0
0 -2.563146 -1.799998 5.792456 -0.000000 -1.000000 0.000000 0.230103 0.730957 1 0 1.0
0 0.806127 -1.799998 4.069748 -0.000000 -1.000000 0.000000 0.230103 0.730957 1 0 1.0
Default
0 0.806127 -1.799998 4.069748 -0.000000 -1.000000 0.000000 0.230103 0.730957 1 0 1.0
0 -2.563146 -1.799998 5.792456 -0.000000 -1.000000 0.000000 0.230103 0.730957 1 0 1.0
0 0.952404 -1.799998 -5.607576 -0.000000 -1.000000 0.000000 0.230103 0.730957 1 0 1.0
Default
0 -2.563146 -1.799998 5.792456 -0.000000 -1.000000 0.000000 0.230103 0.730957 1 0 1.0
0 -2.626038 -1.799998 -6.001239 -0.000000 -1.000000 0.000000 0.230103 0.730957 1 0 1.0
0 0.952404 -1.799998 -5.607576 -0.000000 -1.000000 0.000000 0.230103 0.730957 1 0 1.0
Default
0 0.952404 -1.799998 -5.607576 -0.000000 -1.000000 0.000000 0.230103 0.730957 1 0 1.0
0 -2.626038 -1.799998 -6.001239 -0.000000 -1.000000 0.000000 0.230103 0.730957 1 0 1.0
0 1.975313 -1.799998 -15.200357 -0.000000 -1.000000 0.000000 0.230103 0.730957 1 0 1.0
Default
0 -2.626038 -1.799998 -6.001239 -0.000000 -1.000000 0.000000 0.230103 0.730957 1 0 1.0
0 -1.478224 -1.799998 -16.765394 -0.000000 -1.000000 0.000000 0.230103 0.730957 1 0 1.0
0 1.975313 -1.799998 -15.200357 -0.000000 -1.000000 0.000000 0.230103 0.730957 1 0 1.0
Default
0 -0.673175 1.799998 17.549372 -0.987305 0.000000 0.158691 0.230103 0.730957 1 0 1.0
0 -2.490318 1.799998 6.245513 -0.987305 0.000000 0.158691 0.230103 0.730957 1 0 1.0
0 -2.563146 -1.799998 5.792456 -0.987305 0.000000 0.158691 0.230103 0.730957 1 0 1.0
Default
0 -0.844998 -1.799998 16.480436 -0.987305 0.000000 0.158691 0.230103 0.730957 1 0 1.0
0 -0.673175 1.799998 17.549372 -0.987305 0.000000 0.158691 0.230103 0.730957 1 0 1.0
0 -2.563146 -1.799998 5.792456 -0.987305 0.000000 0.158691 0.230103 0.730957 1 0 1.0
Default
0 1.975313 -1.799998 -15.200357 0.283447 -0.323486 -0.902832 0.230103 0.730957 1 0 1.0
0 -1.478224 -1.799998 -16.765394 0.283447 -0.323486 -0.902832 0.230103 0.730957 1 0 1.0
0 -1.394625 1.799998 -17.549372 0.283447 -0.323486 -0.902832 0.230103 0.730957 1 0 1.0
Default
0 2.158003 1.799998 -16.913710 0.283447 -0.323486 -0.902832 0.230103 0.730957 1 0 1.0
0 1.975313 -1.799998 -15.200357 0.283447 -0.323486 -0.902832 0.230103 0.730957 1 0 1.0
0 -1.394625 1.799998 -17.549372 0.283447 -0.323486 -0.902832 0.230103 0.730957 1 0 1.0
Default
0 2.337304 -1.799998 13.594637 0.987305 0.000000 -0.158691 0.230103 0.730957 1 0 1.0
0 0.806127 -1.799998 4.069748 0.987305 0.000000 -0.158691 0.230103 0.730957 1 0 1.0
0 0.907461 1.799998 4.700089 0.987305 0.000000 -0.158691 0.230103 0.730957 1 0 1.0
Default
0 2.626038 1.799998 15.390730 0.987305 0.000000 -0.158691 0.230103 0.730957 1 0 1.0
0 2.337304 -1.799998 13.594637 0.987305 0.000000 -0.158691 0.230103 0.730957 1 0 1.0
0 0.907461 1.799998 4.700089 0.987305 0.000000 -0.158691 0.230103 0.730957 1 0 1.0
Default
0 -0.673175 1.799998 17.549372 -0.000000 1.000000 0.000000 0.230103 0.730957 1 0 1.0
0 2.626038 1.799998 15.390730 -0.000000 1.000000 0.000000 0.230103 0.730957 1 0 1.0
0 -2.490318 1.799998 6.245513 -0.000000 1.000000 0.000000 0.230103 0.730957 1 0 1.0
Default
0 2.626038 1.799998 15.390730 -0.000000 1.000000 0.000000 0.230103 0.730957 1 0 1.0
0 0.907461 1.799998 4.700089 -0.000000 1.000000 0.000000 0.230103 0.730957 1 0 1.0
0 -2.490318 1.799998 6.245513 -0.000000 1.000000 0.000000 0.230103 0.730957 1 0 1.0
Default
0 -2.490318 1.799998 6.245513 -0.000000 1.000000 0.000000 0.230103 0.730957 1 0 1.0
0 0.907461 1.799998 4.700089 -0.000000 1.000000 0.000000 0.230103 0.730957 1 0 1.0
0 -2.608550 1.799998 -6.165047 -0.000000 1.000000 0.000000 0.230103 0.730957 1 0 1.0
Default
0 0.907461 1.799998 4.700089 -0.000000 1.000000 0.000000 0.230103 0.730957 1 0 1.0
0 1.009911 1.799998 -6.146851 -0.000000 1.000000 0.000000 0.230103 0.730957 1 0 1.0
0 -2.608550 1.799998 -6.165047 -0.000000 1.000000 0.000000 0.230103 0.730957 1 0 1.0
Default
0 -2.608550 1.799998 -6.165047 -0.000000 1.000000 0.000000 0.230103 0.730957 1 0 1.0
0 1.009911 1.799998 -6.146851 -0.000000 1.000000 0.000000 0.230103 0.730957 1 0 1.0
0 -1.394625 1.799998 -17.549372 -0.000000 1.000000 0.000000 0.230103 0.730957 1 0 1.0
Default
0 1.009911 1.799998 -6.146851 -0.000000 1.000000 0.000000 0.230103 0.730957 1 0 1.0
0 2.158003 1.799998 -16.913710 -0.000000 1.000000 0.000000 0.230103 0.730957 1 0 1.0
0 -1.394625 1.799998 -17.549372 -0.000000 1.000000 0.000000 0.230103 0.730957 1 0 1.0
Default
0 -0.673175 1.799998 17.549372 0.579102 -0.333008 0.744141 0.230103 0.730957 1 0 1.0
0 -0.844998 -1.799998 16.480436 0.579102 -0.333008 0.744141 0.230103 0.730957 1 0 1.0
0 2.337304 -1.799998 13.594637 0.579102 -0.333008 0.744141 0.230103 0.730957 1 0 1.0
Default
0 2.626038 1.799998 15.390730 0.579102 -0.333008 0.744141 0.230103 0.730957 1 0 1.0
0 -0.673175 1.799998 17.549372 0.579102 -0.333008 0.744141 0.230103 0.730957 1 0 1.0
0 2.337304 -1.799998 13.594637 0.579102 -0.333008 0.744141 0.230103 0.730957 1 0 1.0
Default
0 0.952404 -1.799998 -5.607576 0.994141 0.000000 0.106018 0.230103 0.730957 1 0 1.0
0 1.975313 -1.799998 -15.200357 0.994141 0.000000 0.106018 0.230103 0.730957 1 0 1.0
0 2.158003 1.799998 -16.913710 0.994141 0.000000 0.106018 0.230103 0.730957 1 0 1.0
Default
0 1.009911 1.799998 -6.146851 0.994141 0.000000 0.106018 0.230103 0.730957 1 0 1.0
0 0.952404 -1.799998 -5.607576 0.994141 0.000000 0.106018 0.230103 0.730957 1 0 1.0
0 2.158003 1.799998 -16.913710 0.994141 0.000000 0.106018 0.230103 0.730957 1 0 1.0
Default
0 0.806127 -1.799998 4.069748 0.999512 -0.022202 0.012115 0.230103 0.730957 1 0 1.0
0 0.952404 -1.799998 -5.607576 0.999512 -0.022202 0.012115 0.230103 0.730957 1 0 1.0
0 1.009911 1.799998 -6.146851 0.999512 -0.022202 0.012115 0.230103 0.730957 1 0 1.0
Default
0 0.907461 1.799998 4.700089 0.999512 -0.022202 0.012115 0.230103 0.730957 1 0 1.0
0 0.806127 -1.799998 4.069748 0.999512 -0.022202 0.012115 0.230103 0.730957 1 0 1.0
0 1.009911 1.799998 -6.146851 0.999512 -0.022202 0.012115 0.230103 0.730957 1 0 1.0
Default
0 -2.608550 1.799998 -6.165047 -0.994141 0.000000 -0.106018 0.230103 0.730957 1 0 1.0
0 -1.394625 1.799998 -17.549372 -0.994141 0.000000 -0.106018 0.230103 0.730957 1 0 1.0
0 -1.478224 -1.799998 -16.765394 -0.994141 0.000000 -0.106018 0.230103 0.730957 1 0 1.0
Default
0 -2.626038 -1.799998 -6.001239 -0.994141 0.000000 -0.106018 0.230103 0.730957 1 0 1.0
0 -2.608550 1.799998 -6.165047 -0.994141 0.000000 -0.106018 0.230103 0.730957 1 0 1.0
0 -1.478224 -1.799998 -16.765394 -0.994141 0.000000 -0.106018 0.230103 0.730957 1 0 1.0
Default
0 -2.490318 1.799998 6.245513 -1.000000 0.012245 0.007481 0.230103 0.730957 1 0 1.0
0 -2.608550 1.799998 -6.165047 -1.000000 0.012245 0.007481 0.230103 0.730957 1 0 1.0
0 -2.626038 -1.799998 -6.001239 -1.000000 0.012245 0.007481 0.230103 0.730957 1 0 1.0
Default
0 -2.563146 -1.799998 5.792456 -1.000000 0.012245 0.007481 0.230103 0.730957 1 0 1.0
0 -2.490318 1.799998 6.245513 -1.000000 0.012245 0.007481 0.230103 0.730957 1 0 1.0
0 -2.626038 -1.799998 -6.001239 -1.000000 0.012245 0.007481 0.230103 0.730957 1 0 1.0
end
