version 1
nodes
0 "root" -1
end
skeleton
time 0
0 0 0 0 0 0 0
end
triangles
phy
0 -15.0117 -7.3783 -9.4674 0 0 1 0 0 1 0 1.0
0 15.0117 -7.3783 -9.4674 0 0 1 0 0 1 0 1.0
0 15.0117 7.3783 -9.4674 0 0 1 0 0 1 0 1.0
phy
0 -15.0117 -7.3783 -9.4674 0 0 1 0 0 1 0 1.0
0 15.0117 7.3783 -9.4674 0 0 1 0 0 1 0 1.0
0 -15.0117 7.3783 -9.4674 0 0 1 0 0 1 0 1.0
phy
0 -15.0117 -7.3783 9.4674 0 0 1 0 0 1 0 1.0
0 -15.0117 7.3783 9.4674 0 0 1 0 0 1 0 1.0
0 15.0117 7.3783 9.4674 0 0 1 0 0 1 0 1.0
phy
0 -15.0117 -7.3783 9.4674 0 0 1 0 0 1 0 1.0
0 15.0117 7.3783 9.4674 0 0 1 0 0 1 0 1.0
0 15.0117 -7.3783 9.4674 0 0 1 0 0 1 0 1.0
phy
0 -15.0117 -7.3783 -9.4674 0 0 1 0 0 1 0 1.0
0 -15.0117 -7.3783 9.4674 0 0 1 0 0 1 0 1.0
0 15.0117 -7.3783 9.4674 0 0 1 0 0 1 0 1.0
phy
0 -15.0117 -7.3783 -9.4674 0 0 1 0 0 1 0 1.0
0 15.0117 -7.3783 9.4674 0 0 1 0 0 1 0 1.0
0 15.0117 -7.3783 -9.4674 0 0 1 0 0 1 0 1.0
phy
0 15.0117 7.3783 -9.4674 0 0 1 0 0 1 0 1.0
0 15.0117 7.3783 9.4674 0 0 1 0 0 1 0 1.0
0 -15.0117 7.3783 9.4674 0 0 1 0 0 1 0 1.0
phy
0 15.0117 7.3783 -9.4674 0 0 1 0 0 1 0 1.0
0 -15.0117 7.3783 9.4674 0 0 1 0 0 1 0 1.0
0 -15.0117 7.3783 -9.4674 0 0 1 0 0 1 0 1.0
phy
0 -15.0117 -7.3783 -9.4674 0 0 1 0 0 1 0 1.0
0 -15.0117 7.3783 -9.4674 0 0 1 0 0 1 0 1.0
0 -15.0117 7.3783 9.4674 0 0 1 0 0 1 0 1.0
phy
0 -15.0117 -7.3783 -9.4674 0 0 1 0 0 1 0 1.0
0 -15.0117 7.3783 9.4674 0 0 1 0 0 1 0 1.0
0 -15.0117 -7.3783 9.4674 0 0 1 0 0 1 0 1.0
phy
0 15.0117 -7.3783 -9.4674 0 0 1 0 0 1 0 1.0
0 15.0117 -7.3783 9.4674 0 0 1 0 0 1 0 1.0
0 15.0117 7.3783 9.4674 0 0 1 0 0 1 0 1.0
phy
0 15.0117 -7.3783 -9.4674 0 0 1 0 0 1 0 1.0
0 15.0117 7.3783 9.4674 0 0 1 0 0 1 0 1.0
0 15.0117 7.3783 -9.4674 0 0 1 0 0 1 0 1.0
end
