version 1
nodes
0 "root" -1
end
skeleton
time 0
0 0 0 0 0 0 0
end
triangles
phy
0 -25.9556 -5.9633 -11.8318 0 0 1 0 0 1 0 1.0
0 25.9556 -5.9633 -11.8318 0 0 1 0 0 1 0 1.0
0 25.9556 5.9633 -11.8318 0 0 1 0 0 1 0 1.0
phy
0 -25.9556 -5.9633 -11.8318 0 0 1 0 0 1 0 1.0
0 25.9556 5.9633 -11.8318 0 0 1 0 0 1 0 1.0
0 -25.9556 5.9633 -11.8318 0 0 1 0 0 1 0 1.0
phy
0 -25.9556 -5.9633 11.8318 0 0 1 0 0 1 0 1.0
0 -25.9556 5.9633 11.8318 0 0 1 0 0 1 0 1.0
0 25.9556 5.9633 11.8318 0 0 1 0 0 1 0 1.0
phy
0 -25.9556 -5.9633 11.8318 0 0 1 0 0 1 0 1.0
0 25.9556 5.9633 11.8318 0 0 1 0 0 1 0 1.0
0 25.9556 -5.9633 11.8318 0 0 1 0 0 1 0 1.0
phy
0 -25.9556 -5.9633 -11.8318 0 0 1 0 0 1 0 1.0
0 -25.9556 -5.9633 11.8318 0 0 1 0 0 1 0 1.0
0 25.9556 -5.9633 11.8318 0 0 1 0 0 1 0 1.0
phy
0 -25.9556 -5.9633 -11.8318 0 0 1 0 0 1 0 1.0
0 25.9556 -5.9633 11.8318 0 0 1 0 0 1 0 1.0
0 25.9556 -5.9633 -11.8318 0 0 1 0 0 1 0 1.0
phy
0 25.9556 5.9633 -11.8318 0 0 1 0 0 1 0 1.0
0 25.9556 5.9633 11.8318 0 0 1 0 0 1 0 1.0
0 -25.9556 5.9633 11.8318 0 0 1 0 0 1 0 1.0
phy
0 25.9556 5.9633 -11.8318 0 0 1 0 0 1 0 1.0
0 -25.9556 5.9633 11.8318 0 0 1 0 0 1 0 1.0
0 -25.9556 5.9633 -11.8318 0 0 1 0 0 1 0 1.0
phy
0 -25.9556 -5.9633 -11.8318 0 0 1 0 0 1 0 1.0
0 -25.9556 5.9633 -11.8318 0 0 1 0 0 1 0 1.0
0 -25.9556 5.9633 11.8318 0 0 1 0 0 1 0 1.0
phy
0 -25.9556 -5.9633 -11.8318 0 0 1 0 0 1 0 1.0
0 -25.9556 5.9633 11.8318 0 0 1 0 0 1 0 1.0
0 -25.9556 -5.9633 11.8318 0 0 1 0 0 1 0 1.0
phy
0 25.9556 -5.9633 -11.8318 0 0 1 0 0 1 0 1.0
0 25.9556 -5.9633 11.8318 0 0 1 0 0 1 0 1.0
0 25.9556 5.9633 11.8318 0 0 1 0 0 1 0 1.0
phy
0 25.9556 -5.9633 -11.8318 0 0 1 0 0 1 0 1.0
0 25.9556 5.9633 11.8318 0 0 1 0 0 1 0 1.0
0 25.9556 5.9633 -11.8318 0 0 1 0 0 1 0 1.0
end
