version 1
nodes
0 "root" -1
end
skeleton
time 0
0 0 0 0 0 0 0
end
triangles
Default
0 0.453503 4.573155 -0.887786 0.886719 0.115845 -0.447510 0.014763 0.790039 1 0 1.0
0 0.756961 4.539038 -0.079237 0.886719 0.115845 -0.447510 0.014763 0.790039 1 0 1.0
0 1.123112 2.790892 -0.022434 0.886230 0.126587 -0.445312 0.014763 0.790039 1 0 1.0
Default
0 0.600320 2.933165 -0.805332 0.886230 0.126587 -0.445312 0.014763 0.790039 1 0 1.0
0 0.453503 4.573155 -0.887786 0.886719 0.115845 -0.447510 0.014763 0.790039 1 0 1.0
0 1.123112 2.790892 -0.022434 0.886230 0.126587 -0.445312 0.014763 0.790039 1 0 1.0
Default
0 0.600320 2.933165 -0.805332 0.886230 0.126587 -0.445312 0.014763 0.790039 1 0 1.0
0 1.123112 2.790892 -0.022434 0.886230 0.126587 -0.445312 0.014763 0.790039 1 0 1.0
0 0.949991 0.228330 -1.162215 0.885742 0.137329 -0.443115 0.014763 0.790039 1 0 1.0
Default
0 1.123112 2.790892 -0.022434 0.886230 0.126587 -0.445312 0.014763 0.790039 1 0 1.0
0 1.331466 0.344705 -0.145689 0.885742 0.137329 -0.443115 0.014763 0.790039 1 0 1.0
0 0.949991 0.228330 -1.162215 0.885742 0.137329 -0.443115 0.014763 0.790039 1 0 1.0
Default
0 -1.320665 2.690625 0.433358 -0.893555 -0.009064 0.448975 0.014763 0.790039 1 0 1.0
0 -1.518147 0.438414 -0.260042 -0.893555 -0.009064 0.448975 0.014763 0.790039 1 0 1.0
0 -1.136673 0.554789 0.756484 -0.893555 -0.009064 0.448975 0.014763 0.790039 1 0 1.0
Default
0 -0.797873 2.548353 1.216257 -0.893555 -0.009064 0.448975 0.014763 0.790039 1 0 1.0
0 -1.320665 2.690625 0.433358 -0.893555 -0.009064 0.448975 0.014763 0.790039 1 0 1.0
0 -1.136673 0.554789 0.756484 -0.893555 -0.009064 0.448975 0.014763 0.790039 1 0 1.0
Default
0 -0.885295 6.683651 0.543443 -0.917480 0.145630 0.370605 0.014763 0.790039 1 0 1.0
0 -1.162782 6.786070 -0.139043 -0.917480 0.145630 0.370605 0.014763 0.790039 1 0 1.0
0 -1.412202 5.162429 -0.162703 -0.917480 0.145630 0.370605 0.014763 0.790039 1 0 1.0
Default
0 -1.108746 5.128312 0.645847 -0.917480 0.145630 0.370605 0.014763 0.790039 1 0 1.0
0 -0.885295 6.683651 0.543443 -0.917480 0.145630 0.370605 0.014763 0.790039 1 0 1.0
0 -1.412202 5.162429 -0.162703 -0.917480 0.145630 0.370605 0.014763 0.790039 1 0 1.0
Default
0 -0.558863 -4.240064 1.134311 -0.406738 -0.123230 0.905273 0.014763 0.790039 1 0 1.0
0 0.320083 -4.190583 1.446117 -0.406738 -0.123230 0.905273 0.014763 0.790039 1 0 1.0
0 -0.326134 -1.463648 1.616767 -0.406738 -0.123230 0.905273 0.014763 0.790039 1 0 1.0
Default
0 -1.255001 -1.593799 1.091805 -0.406738 -0.123230 0.905273 0.014763 0.790039 1 0 1.0
0 -0.558863 -4.240064 1.134311 -0.406738 -0.123230 0.905273 0.014763 0.790039 1 0 1.0
0 -0.326134 -1.463648 1.616767 -0.406738 -0.123230 0.905273 0.014763 0.790039 1 0 1.0
Default
0 0.301228 -9.037809 -0.440808 0.419189 -0.231812 -0.877930 0.014763 0.790039 1 0 1.0
0 0.063303 -9.040308 -0.539366 0.419189 -0.231812 -0.877930 0.014763 0.790039 1 0 1.0
0 0.327212 -5.899850 -1.257109 0.419189 -0.231812 -0.877930 0.014763 0.790039 1 0 1.0
Default
0 1.055023 -5.881779 -0.899924 0.419189 -0.231812 -0.877930 0.014763 0.790039 1 0 1.0
0 0.301228 -9.037809 -0.440808 0.419189 -0.231812 -0.877930 0.014763 0.790039 1 0 1.0
0 0.327212 -5.899850 -1.257109 0.419189 -0.231812 -0.877930 0.014763 0.790039 1 0 1.0
Default
0 0.063303 -9.040308 -0.539366 -0.334717 -0.186401 -0.923828 0.014763 0.790039 1 0 1.0
0 -0.174629 -9.042808 -0.440808 -0.334717 -0.186401 -0.923828 0.014763 0.790039 1 0 1.0
0 -0.440211 -5.870284 -0.996733 -0.334717 -0.186401 -0.923828 0.014763 0.790039 1 0 1.0
Default
0 0.327212 -5.899850 -1.257109 -0.334717 -0.186401 -0.923828 0.014763 0.790039 1 0 1.0
0 0.063303 -9.040308 -0.539366 -0.334717 -0.186401 -0.923828 0.014763 0.790039 1 0 1.0
0 -0.440211 -5.870284 -0.996733 -0.334717 -0.186401 -0.923828 0.014763 0.790039 1 0 1.0
Default
0 0.425084 4.687506 0.704867 0.465088 0.215698 0.858398 0.014763 0.790039 1 0 1.0
0 -0.347717 4.931590 1.005206 0.465088 0.215698 0.858398 0.014763 0.790039 1 0 1.0
0 0.134439 2.518790 1.407045 0.465088 0.215698 0.858398 0.014763 0.790039 1 0 1.0
Default
0 0.930138 2.619252 0.893963 0.465088 0.215698 0.858398 0.014763 0.790039 1 0 1.0
0 0.425084 4.687506 0.704867 0.465088 0.215698 0.858398 0.014763 0.790039 1 0 1.0
0 0.134439 2.518790 1.407045 0.465088 0.215698 0.858398 0.014763 0.790039 1 0 1.0
Default
0 0.600320 2.933165 -0.805332 0.312012 0.202759 -0.928223 0.014763 0.790039 1 0 1.0
0 0.949991 0.228330 -1.162215 0.312012 0.202759 -0.928223 0.014763 0.790039 1 0 1.0
0 -0.042652 0.207573 -1.616767 0.312012 0.202759 -0.928223 0.014763 0.790039 1 0 1.0
Default
0 -0.331993 2.962727 -0.996121 0.312012 0.202759 -0.928223 0.014763 0.790039 1 0 1.0
0 0.600320 2.933165 -0.805332 0.312012 0.202759 -0.928223 0.014763 0.790039 1 0 1.0
0 -0.042652 0.207573 -1.616767 0.312012 0.202759 -0.928223 0.014763 0.790039 1 0 1.0
Default
0 0.191954 -5.737194 0.851333 0.373535 -0.320801 0.870605 0.014763 0.790039 1 0 1.0
0 0.959380 -5.766762 0.590957 0.373535 -0.320801 0.870605 0.014763 0.790039 1 0 1.0
0 1.157421 -4.083129 1.046698 0.373535 -0.320801 0.870605 0.014763 0.790039 1 0 1.0
Default
0 0.320083 -4.190583 1.446117 0.373535 -0.320801 0.870605 0.014763 0.790039 1 0 1.0
0 0.191954 -5.737194 0.851333 0.373535 -0.320801 0.870605 0.014763 0.790039 1 0 1.0
0 1.157421 -4.083129 1.046698 0.373535 -0.320801 0.870605 0.014763 0.790039 1 0 1.0
Default
0 0.486187 6.630362 -0.832857 0.931152 -0.010529 -0.363770 0.014763 0.790039 1 0 1.0
0 0.763675 6.527942 -0.150371 0.931152 -0.010529 -0.363770 0.014763 0.790039 1 0 1.0
0 0.756961 4.539038 -0.079237 0.931152 -0.010529 -0.363770 0.014763 0.790039 1 0 1.0
Default
0 0.453503 4.573155 -0.887786 0.931152 -0.010529 -0.363770 0.014763 0.790039 1 0 1.0
0 0.486187 6.630362 -0.832857 0.931152 -0.010529 -0.363770 0.014763 0.790039 1 0 1.0
0 0.756961 4.539038 -0.079237 0.931152 -0.010529 -0.363770 0.014763 0.790039 1 0 1.0
Default
0 0.301228 -9.037809 0.035077 0.868652 -0.252197 0.426514 0.014763 0.790039 1 0 1.0
0 0.399781 -9.036774 -0.202866 0.868652 -0.252197 0.426514 0.014763 0.790039 1 0 1.0
0 1.316876 -5.826651 -0.134456 0.868652 -0.252197 0.426514 0.014763 0.790039 1 0 1.0
Default
0 0.959380 -5.766762 0.590957 0.868652 -0.252197 0.426514 0.014763 0.790039 1 0 1.0
0 0.301228 -9.037809 0.035077 0.868652 -0.252197 0.426514 0.014763 0.790039 1 0 1.0
0 1.316876 -5.826651 -0.134456 0.868652 -0.252197 0.426514 0.014763 0.790039 1 0 1.0
Default
0 -1.162782 6.786070 -0.139043 -0.908691 0.137207 -0.393799 0.014763 0.790039 1 0 1.0
0 -0.876025 6.812884 -0.824847 -0.908691 0.137207 -0.393799 0.014763 0.790039 1 0 1.0
0 -1.080326 5.013959 -0.946806 -0.908691 0.137207 -0.393799 0.014763 0.790039 1 0 1.0
Default
0 -1.412202 5.162429 -0.162703 -0.908691 0.137207 -0.393799 0.014763 0.790039 1 0 1.0
0 -1.162782 6.786070 -0.139043 -0.908691 0.137207 -0.393799 0.014763 0.790039 1 0 1.0
0 -1.080326 5.013959 -0.946806 -0.908691 0.137207 -0.393799 0.014763 0.790039 1 0 1.0
Default
0 -0.347717 4.931590 1.005206 -0.379150 0.125244 0.916992 0.014763 0.790039 1 0 1.0
0 -0.206109 6.565626 0.822819 -0.371826 0.134033 0.918457 0.014763 0.790039 1 0 1.0
0 -1.108746 5.128312 0.645847 -0.379150 0.125244 0.916992 0.014763 0.790039 1 0 1.0
Default
0 -0.206109 6.565626 0.822819 -0.371826 0.134033 0.918457 0.014763 0.790039 1 0 1.0
0 -0.885295 6.683651 0.543443 -0.371826 0.134033 0.918457 0.014763 0.790039 1 0 1.0
0 -1.108746 5.128312 0.645847 -0.379150 0.125244 0.916992 0.014763 0.790039 1 0 1.0
Default
0 -0.206109 6.565626 0.822819 -0.371826 0.134033 0.918457 0.014763 0.790039 1 0 1.0
0 0.676880 8.262086 0.916813 -0.364258 0.142944 0.920410 0.014763 0.790039 1 0 1.0
0 -0.885295 6.683651 0.543443 -0.371826 0.134033 0.918457 0.014763 0.790039 1 0 1.0
Default
0 0.676880 8.262086 0.916813 -0.364258 0.142944 0.920410 0.014763 0.790039 1 0 1.0
0 0.080096 8.737119 0.598963 -0.364258 0.142944 0.920410 0.014763 0.790039 1 0 1.0
0 -0.885295 6.683651 0.543443 -0.371826 0.134033 0.918457 0.014763 0.790039 1 0 1.0
Default
0 0.756961 4.539038 -0.079237 0.928711 0.230713 0.289795 0.014763 0.790039 1 0 1.0
0 0.425084 4.687506 0.704867 0.928711 0.230713 0.289795 0.014763 0.790039 1 0 1.0
0 0.930138 2.619252 0.893963 0.928711 0.230713 0.289795 0.014763 0.790039 1 0 1.0
Default
0 1.123112 2.790892 -0.022434 0.928711 0.230713 0.289795 0.014763 0.790039 1 0 1.0
0 0.756961 4.539038 -0.079237 0.928711 0.230713 0.289795 0.014763 0.790039 1 0 1.0
0 0.930138 2.619252 0.893963 0.928711 0.230713 0.289795 0.014763 0.790039 1 0 1.0
Default
0 0.763675 6.527942 -0.150371 0.921875 0.010300 0.387207 0.014763 0.790039 1 0 1.0
0 0.476917 6.501129 0.535432 0.921875 0.010300 0.387207 0.014763 0.790039 1 0 1.0
0 0.425084 4.687506 0.704867 0.921875 0.010300 0.387207 0.014763 0.790039 1 0 1.0
Default
0 0.756961 4.539038 -0.079237 0.921875 0.010300 0.387207 0.014763 0.790039 1 0 1.0
0 0.763675 6.527942 -0.150371 0.921875 0.010300 0.387207 0.014763 0.790039 1 0 1.0
0 0.425084 4.687506 0.704867 0.921875 0.010300 0.387207 0.014763 0.790039 1 0 1.0
Default
0 0.930138 2.619252 0.893963 0.946289 0.019699 0.322266 0.014763 0.790039 1 0 1.0
0 0.878308 0.488527 0.837344 0.946289 0.019699 0.322266 0.014763 0.790039 1 0 1.0
0 1.331466 0.344705 -0.145689 0.946289 0.019699 0.322266 0.014763 0.790039 1 0 1.0
Default
0 1.123112 2.790892 -0.022434 0.946289 0.019699 0.322266 0.014763 0.790039 1 0 1.0
0 0.930138 2.619252 0.893963 0.946289 0.019699 0.322266 0.014763 0.790039 1 0 1.0
0 1.331466 0.344705 -0.145689 0.946289 0.019699 0.322266 0.014763 0.790039 1 0 1.0
Default
0 1.157421 -4.083129 1.046698 0.903809 0.074951 0.421631 0.014763 0.790039 1 0 1.0
0 1.462651 -3.980647 0.170028 0.903809 0.074951 0.421631 0.014763 0.790039 1 0 1.0
0 1.243307 -1.478869 0.399751 0.896973 0.069702 0.437012 0.014763 0.790039 1 0 1.0
Default
0 0.708700 -1.416043 1.330110 0.896973 0.069702 0.437012 0.014763 0.790039 1 0 1.0
0 1.157421 -4.083129 1.046698 0.903809 0.074951 0.421631 0.014763 0.790039 1 0 1.0
0 1.243307 -1.478869 0.399751 0.896973 0.069702 0.437012 0.014763 0.790039 1 0 1.0
Default
0 0.708700 -1.416043 1.330110 0.896973 0.069702 0.437012 0.014763 0.790039 1 0 1.0
0 1.243307 -1.478869 0.399751 0.896973 0.069702 0.437012 0.014763 0.790039 1 0 1.0
0 0.878308 0.488527 0.837344 0.889648 0.064453 0.452148 0.014763 0.790039 1 0 1.0
Default
0 1.243307 -1.478869 0.399751 0.896973 0.069702 0.437012 0.014763 0.790039 1 0 1.0
0 1.331466 0.344705 -0.145689 0.889648 0.064453 0.452148 0.014763 0.790039 1 0 1.0
0 0.878308 0.488527 0.837344 0.889648 0.064453 0.452148 0.014763 0.790039 1 0 1.0
Default
0 -0.999176 -1.793080 -0.867621 -0.302734 -0.203857 -0.931152 0.014763 0.790039 1 0 1.0
0 -1.064988 0.294594 -1.243075 -0.302734 -0.203857 -0.931152 0.014763 0.790039 1 0 1.0
0 -0.042652 0.207573 -1.616767 -0.302734 -0.203857 -0.931152 0.014763 0.790039 1 0 1.0
Default
0 0.035658 -1.745473 -1.154279 -0.302734 -0.203857 -0.931152 0.014763 0.790039 1 0 1.0
0 -0.999176 -1.793080 -0.867621 -0.302734 -0.203857 -0.931152 0.014763 0.790039 1 0 1.0
0 -0.042652 0.207573 -1.616767 -0.302734 -0.203857 -0.931152 0.014763 0.790039 1 0 1.0
Default
0 -0.535855 -5.755267 0.494148 -0.349121 -0.340088 0.873047 0.014763 0.790039 1 0 1.0
0 0.191954 -5.737194 0.851333 -0.349121 -0.340088 0.873047 0.014763 0.790039 1 0 1.0
0 0.320083 -4.190583 1.446117 -0.349121 -0.340088 0.873047 0.014763 0.790039 1 0 1.0
Default
0 -0.558863 -4.240064 1.134311 -0.349121 -0.340088 0.873047 0.014763 0.790039 1 0 1.0
0 -0.535855 -5.755267 0.494148 -0.349121 -0.340088 0.873047 0.014763 0.790039 1 0 1.0
0 0.320083 -4.190583 1.446117 -0.349121 -0.340088 0.873047 0.014763 0.790039 1 0 1.0
Default
0 0.708700 -1.416043 1.330110 0.303467 0.185791 0.934570 0.014763 0.790039 1 0 1.0
0 0.878308 0.488527 0.837344 0.303467 0.185791 0.934570 0.014763 0.790039 1 0 1.0
0 -0.144029 0.575546 1.211036 0.303467 0.185791 0.934570 0.014763 0.790039 1 0 1.0
Default
0 -0.326134 -1.463648 1.616767 0.303467 0.185791 0.934570 0.014763 0.790039 1 0 1.0
0 0.708700 -1.416043 1.330110 0.303467 0.185791 0.934570 0.014763 0.790039 1 0 1.0
0 -0.144029 0.575546 1.211036 0.303467 0.185791 0.934570 0.014763 0.790039 1 0 1.0
Default
0 -0.440211 -5.870284 -0.996733 -0.924316 0.005203 -0.382080 0.014763 0.790039 1 0 1.0
0 -0.797705 -5.810396 -0.271364 -0.924316 0.005203 -0.382080 0.014763 0.790039 1 0 1.0
0 -0.964543 -4.202585 0.293932 -0.924316 0.005203 -0.382080 0.014763 0.790039 1 0 1.0
Default
0 -0.659313 -4.100100 -0.582738 -0.924316 0.005203 -0.382080 0.014763 0.790039 1 0 1.0
0 -0.440211 -5.870284 -0.996733 -0.924316 0.005203 -0.382080 0.014763 0.790039 1 0 1.0
0 -0.964543 -4.202585 0.293932 -0.924316 0.005203 -0.382080 0.014763 0.790039 1 0 1.0
Default
0 -0.331993 2.962727 -0.996121 -0.430664 0.199829 -0.879883 0.014763 0.790039 1 0 1.0
0 -0.042652 0.207573 -1.616767 -0.430664 0.199829 -0.879883 0.014763 0.790039 1 0 1.0
0 -1.064988 0.294594 -1.243075 -0.430664 0.199829 -0.879883 0.014763 0.790039 1 0 1.0
Default
0 -1.127691 2.862264 -0.483039 -0.430664 0.199829 -0.879883 0.014763 0.790039 1 0 1.0
0 -0.331993 2.962727 -0.996121 -0.430664 0.199829 -0.879883 0.014763 0.790039 1 0 1.0
0 -1.064988 0.294594 -1.243075 -0.430664 0.199829 -0.879883 0.014763 0.790039 1 0 1.0
Default
0 1.462651 -3.980647 0.170028 0.934570 0.079773 -0.346436 0.014763 0.790039 1 0 1.0
0 1.056970 -3.943165 -0.670352 0.934570 0.079773 -0.346436 0.014763 0.790039 1 0 1.0
0 0.964525 -1.615324 -0.629316 0.934570 0.079773 -0.346436 0.014763 0.790039 1 0 1.0
Default
0 1.243307 -1.478869 0.399751 0.934570 0.079773 -0.346436 0.014763 0.790039 1 0 1.0
0 1.462651 -3.980647 0.170028 0.934570 0.079773 -0.346436 0.014763 0.790039 1 0 1.0
0 0.964525 -1.615324 -0.629316 0.934570 0.079773 -0.346436 0.014763 0.790039 1 0 1.0
Default
0 -0.273183 -9.043843 -0.202865 -0.928223 -0.146606 0.341553 0.014763 0.790039 1 0 1.0
0 -0.174629 -9.042808 0.035077 -0.928223 -0.146606 0.341553 0.014763 0.790039 1 0 1.0
0 -0.535855 -5.755267 0.494148 -0.928223 -0.146606 0.341553 0.014763 0.790039 1 0 1.0
Default
0 -0.797705 -5.810396 -0.271364 -0.928223 -0.146606 0.341553 0.014763 0.790039 1 0 1.0
0 -0.273183 -9.043843 -0.202865 -0.928223 -0.146606 0.341553 0.014763 0.790039 1 0 1.0
0 -0.535855 -5.755267 0.494148 -0.928223 -0.146606 0.341553 0.014763 0.790039 1 0 1.0
Default
0 -1.533784 -1.730253 0.062738 -0.889160 -0.084290 -0.449951 0.014763 0.790039 1 0 1.0
0 -1.518147 0.438414 -0.260042 -0.889160 -0.084290 -0.449951 0.014763 0.790039 1 0 1.0
0 -1.064988 0.294594 -1.243075 -0.889160 -0.084290 -0.449951 0.014763 0.790039 1 0 1.0
Default
0 -0.999176 -1.793080 -0.867621 -0.889160 -0.084290 -0.449951 0.014763 0.790039 1 0 1.0
0 -1.533784 -1.730253 0.062738 -0.889160 -0.084290 -0.449951 0.014763 0.790039 1 0 1.0
0 -1.064988 0.294594 -1.243075 -0.889160 -0.084290 -0.449951 0.014763 0.790039 1 0 1.0
Default
0 -1.108746 5.128312 0.645847 -0.885254 0.036530 0.463623 0.014763 0.790039 1 0 1.0
0 -1.412202 5.162429 -0.162703 -0.885254 0.036530 0.463623 0.014763 0.790039 1 0 1.0
0 -1.320665 2.690625 0.433358 -0.885254 0.036530 0.463623 0.014763 0.790039 1 0 1.0
Default
0 -0.797873 2.548353 1.216257 -0.885254 0.036530 0.463623 0.014763 0.790039 1 0 1.0
0 -1.108746 5.128312 0.645847 -0.885254 0.036530 0.463623 0.014763 0.790039 1 0 1.0
0 -1.320665 2.690625 0.433358 -0.885254 0.036530 0.463623 0.014763 0.790039 1 0 1.0
Default
0 0.178024 -3.992645 -0.982157 -0.331787 -0.128906 -0.934570 0.014763 0.790039 1 0 1.0
0 -0.659313 -4.100100 -0.582738 -0.331787 -0.128906 -0.934570 0.014763 0.790039 1 0 1.0
0 -0.999176 -1.793080 -0.867621 -0.331787 -0.128906 -0.934570 0.014763 0.790039 1 0 1.0
Default
0 0.035658 -1.745473 -1.154279 -0.331787 -0.128906 -0.934570 0.014763 0.790039 1 0 1.0
0 0.178024 -3.992645 -0.982157 -0.331787 -0.128906 -0.934570 0.014763 0.790039 1 0 1.0
0 -0.999176 -1.793080 -0.867621 -0.331787 -0.128906 -0.934570 0.014763 0.790039 1 0 1.0
Default
0 -0.797873 2.548353 1.216257 -0.316406 -0.107361 0.942383 0.014763 0.790039 1 0 1.0
0 -1.136673 0.554789 0.756484 -0.316406 -0.107361 0.942383 0.014763 0.790039 1 0 1.0
0 -0.144029 0.575546 1.211036 -0.316406 -0.107361 0.942383 0.014763 0.790039 1 0 1.0
Default
0 0.134439 2.518790 1.407045 -0.316406 -0.107361 0.942383 0.014763 0.790039 1 0 1.0
0 -0.797873 2.548353 1.216257 -0.316406 -0.107361 0.942383 0.014763 0.790039 1 0 1.0
0 -0.144029 0.575546 1.211036 -0.316406 -0.107361 0.942383 0.014763 0.790039 1 0 1.0
Default
0 1.316876 -5.826651 -0.134456 0.923340 0.018143 -0.384033 0.014763 0.790039 1 0 1.0
0 1.055023 -5.881779 -0.899924 0.923340 0.018143 -0.384033 0.014763 0.790039 1 0 1.0
0 1.056970 -3.943165 -0.670352 0.923340 0.018143 -0.384033 0.014763 0.790039 1 0 1.0
Default
0 1.462651 -3.980647 0.170028 0.923340 0.018143 -0.384033 0.014763 0.790039 1 0 1.0
0 1.316876 -5.826651 -0.134456 0.923340 0.018143 -0.384033 0.014763 0.790039 1 0 1.0
0 1.056970 -3.943165 -0.670352 0.923340 0.018143 -0.384033 0.014763 0.790039 1 0 1.0
Default
0 -1.255001 -1.593799 1.091805 -0.951660 0.074951 0.297852 0.014763 0.790039 1 0 1.0
0 -1.136673 0.554789 0.756484 -0.951660 0.074951 0.297852 0.014763 0.790039 1 0 1.0
0 -1.518147 0.438414 -0.260042 -0.951660 0.074951 0.297852 0.014763 0.790039 1 0 1.0
Default
0 -1.533784 -1.730253 0.062738 -0.951660 0.074951 0.297852 0.014763 0.790039 1 0 1.0
0 -1.255001 -1.593799 1.091805 -0.951660 0.074951 0.297852 0.014763 0.790039 1 0 1.0
0 -1.518147 0.438414 -0.260042 -0.951660 0.074951 0.297852 0.014763 0.790039 1 0 1.0
Default
0 -1.412202 5.162429 -0.162703 -0.952637 -0.076721 -0.294922 0.014763 0.790039 1 0 1.0
0 -1.080326 5.013959 -0.946806 -0.952637 -0.076721 -0.294922 0.014763 0.790039 1 0 1.0
0 -1.127691 2.862264 -0.483039 -0.952637 -0.076721 -0.294922 0.014763 0.790039 1 0 1.0
Default
0 -1.320665 2.690625 0.433358 -0.952637 -0.076721 -0.294922 0.014763 0.790039 1 0 1.0
0 -1.412202 5.162429 -0.162703 -0.952637 -0.076721 -0.294922 0.014763 0.790039 1 0 1.0
0 -1.127691 2.862264 -0.483039 -0.952637 -0.076721 -0.294922 0.014763 0.790039 1 0 1.0
Default
0 -1.080326 5.013959 -0.946806 -0.466064 -0.149048 -0.872070 0.014763 0.790039 1 0 1.0
0 -0.307526 4.769875 -1.247145 -0.466064 -0.149048 -0.872070 0.014763 0.790039 1 0 1.0
0 -0.331993 2.962727 -0.996121 -0.466064 -0.149048 -0.872070 0.014763 0.790039 1 0 1.0
Default
0 -1.127691 2.862264 -0.483039 -0.466064 -0.149048 -0.872070 0.014763 0.790039 1 0 1.0
0 -1.080326 5.013959 -0.946806 -0.466064 -0.149048 -0.872070 0.014763 0.790039 1 0 1.0
0 -0.331993 2.962727 -0.996121 -0.466064 -0.149048 -0.872070 0.014763 0.790039 1 0 1.0
Default
0 -0.307526 4.769875 -1.247145 0.298096 -0.081421 -0.951172 0.014763 0.790039 1 0 1.0
0 0.453503 4.573155 -0.887786 0.298096 -0.081421 -0.951172 0.014763 0.790039 1 0 1.0
0 0.600320 2.933165 -0.805332 0.298096 -0.081421 -0.951172 0.014763 0.790039 1 0 1.0
Default
0 -0.331993 2.962727 -0.996121 0.298096 -0.081421 -0.951172 0.014763 0.790039 1 0 1.0
0 -0.307526 4.769875 -1.247145 0.298096 -0.081421 -0.951172 0.014763 0.790039 1 0 1.0
0 0.600320 2.933165 -0.805332 0.298096 -0.081421 -0.951172 0.014763 0.790039 1 0 1.0
Default
0 -0.797705 -5.810396 -0.271364 -0.903809 -0.200806 0.377930 0.014763 0.790039 1 0 1.0
0 -0.535855 -5.755267 0.494148 -0.903809 -0.200806 0.377930 0.014763 0.790039 1 0 1.0
0 -0.558863 -4.240064 1.134311 -0.909668 -0.204224 0.362061 0.014763 0.790039 1 0 1.0
Default
0 -0.964543 -4.202585 0.293932 -0.909668 -0.204224 0.362061 0.014763 0.790039 1 0 1.0
0 -0.797705 -5.810396 -0.271364 -0.903809 -0.200806 0.377930 0.014763 0.790039 1 0 1.0
0 -0.558863 -4.240064 1.134311 -0.909668 -0.204224 0.362061 0.014763 0.790039 1 0 1.0
Default
0 -0.964543 -4.202585 0.293932 -0.909668 -0.204224 0.362061 0.014763 0.790039 1 0 1.0
0 -0.558863 -4.240064 1.134311 -0.909668 -0.204224 0.362061 0.014763 0.790039 1 0 1.0
0 -1.255001 -1.593799 1.091805 -0.915039 -0.207642 0.345947 0.014763 0.790039 1 0 1.0
Default
0 -1.533784 -1.730253 0.062738 -0.915039 -0.207642 0.345947 0.014763 0.790039 1 0 1.0
0 -0.964543 -4.202585 0.293932 -0.909668 -0.204224 0.362061 0.014763 0.790039 1 0 1.0
0 -1.255001 -1.593799 1.091805 -0.915039 -0.207642 0.345947 0.014763 0.790039 1 0 1.0
Default
0 0.320083 -4.190583 1.446117 0.344727 -0.009041 0.938477 0.014763 0.790039 1 0 1.0
0 1.157421 -4.083129 1.046698 0.344727 -0.009041 0.938477 0.014763 0.790039 1 0 1.0
0 0.708700 -1.416043 1.330110 0.344727 -0.009041 0.938477 0.014763 0.790039 1 0 1.0
Default
0 -0.326134 -1.463648 1.616767 0.344727 -0.009041 0.938477 0.014763 0.790039 1 0 1.0
0 0.320083 -4.190583 1.446117 0.344727 -0.009041 0.938477 0.014763 0.790039 1 0 1.0
0 0.708700 -1.416043 1.330110 0.344727 -0.009041 0.938477 0.014763 0.790039 1 0 1.0
Default
0 -0.192999 6.748389 -1.112233 0.410400 0.027908 -0.911621 0.014763 0.790039 1 0 1.0
0 0.486187 6.630362 -0.832857 0.410400 0.027908 -0.911621 0.014763 0.790039 1 0 1.0
0 0.453503 4.573155 -0.887786 0.410400 0.027908 -0.911621 0.014763 0.790039 1 0 1.0
Default
0 -0.307526 4.769875 -1.247145 0.410400 0.027908 -0.911621 0.014763 0.790039 1 0 1.0
0 -0.192999 6.748389 -1.112233 0.410400 0.027908 -0.911621 0.014763 0.790039 1 0 1.0
0 0.453503 4.573155 -0.887786 0.410400 0.027908 -0.911621 0.014763 0.790039 1 0 1.0
Default
0 0.063301 -9.040306 0.133635 0.322998 -0.217163 0.921387 0.014763 0.790039 1 0 1.0
0 0.301228 -9.037809 0.035077 0.322998 -0.217163 0.921387 0.014763 0.790039 1 0 1.0
0 0.959380 -5.766762 0.590957 0.322998 -0.217163 0.921387 0.014763 0.790039 1 0 1.0
Default
0 0.191954 -5.737194 0.851333 0.322998 -0.217163 0.921387 0.014763 0.790039 1 0 1.0
0 0.063301 -9.040306 0.133635 0.322998 -0.217163 0.921387 0.014763 0.790039 1 0 1.0
0 0.959380 -5.766762 0.590957 0.322998 -0.217163 0.921387 0.014763 0.790039 1 0 1.0
Default
0 0.134439 2.518790 1.407045 0.437012 -0.090942 0.895020 0.014763 0.790039 1 0 1.0
0 -0.144029 0.575546 1.211036 0.437012 -0.090942 0.895020 0.014763 0.790039 1 0 1.0
0 0.878308 0.488527 0.837344 0.437012 -0.090942 0.895020 0.014763 0.790039 1 0 1.0
Default
0 0.930138 2.619252 0.893963 0.437012 -0.090942 0.895020 0.014763 0.790039 1 0 1.0
0 0.134439 2.518790 1.407045 0.437012 -0.090942 0.895020 0.014763 0.790039 1 0 1.0
0 0.878308 0.488527 0.837344 0.437012 -0.090942 0.895020 0.014763 0.790039 1 0 1.0
Default
0 1.055023 -5.881779 -0.899924 0.375977 0.134644 -0.916992 0.014763 0.790039 1 0 1.0
0 0.327212 -5.899850 -1.257109 0.375977 0.134644 -0.916992 0.014763 0.790039 1 0 1.0
0 0.178024 -3.992645 -0.982157 0.375977 0.134644 -0.916992 0.014763 0.790039 1 0 1.0
Default
0 1.056970 -3.943165 -0.670352 0.375977 0.134644 -0.916992 0.014763 0.790039 1 0 1.0
0 1.055023 -5.881779 -0.899924 0.375977 0.134644 -0.916992 0.014763 0.790039 1 0 1.0
0 0.178024 -3.992645 -0.982157 0.375977 0.134644 -0.916992 0.014763 0.790039 1 0 1.0
Default
0 -1.127691 2.862264 -0.483039 -0.939941 0.122192 -0.318115 0.014763 0.790039 1 0 1.0
0 -1.064988 0.294594 -1.243075 -0.939941 0.122192 -0.318115 0.014763 0.790039 1 0 1.0
0 -1.518147 0.438414 -0.260042 -0.939941 0.122192 -0.318115 0.014763 0.790039 1 0 1.0
Default
0 -1.320665 2.690625 0.433358 -0.939941 0.122192 -0.318115 0.014763 0.790039 1 0 1.0
0 -1.127691 2.862264 -0.483039 -0.939941 0.122192 -0.318115 0.014763 0.790039 1 0 1.0
0 -1.518147 0.438414 -0.260042 -0.939941 0.122192 -0.318115 0.014763 0.790039 1 0 1.0
Default
0 0.476917 6.501129 0.535432 0.386475 0.072144 0.919434 0.014763 0.790039 1 0 1.0
0 -0.206109 6.565626 0.822819 0.386475 0.072144 0.919434 0.014763 0.790039 1 0 1.0
0 -0.347717 4.931590 1.005206 0.386475 0.072144 0.919434 0.014763 0.790039 1 0 1.0
Default
0 0.425084 4.687506 0.704867 0.386475 0.072144 0.919434 0.014763 0.790039 1 0 1.0
0 0.476917 6.501129 0.535432 0.386475 0.072144 0.919434 0.014763 0.790039 1 0 1.0
0 -0.347717 4.931590 1.005206 0.386475 0.072144 0.919434 0.014763 0.790039 1 0 1.0
Default
0 0.035658 -1.745473 -1.154279 0.456787 -0.215088 -0.863281 0.014763 0.790039 1 0 1.0
0 -0.042652 0.207573 -1.616767 0.456787 -0.215088 -0.863281 0.014763 0.790039 1 0 1.0
0 0.949991 0.228330 -1.162215 0.456787 -0.215088 -0.863281 0.014763 0.790039 1 0 1.0
Default
0 0.964525 -1.615324 -0.629316 0.456787 -0.215088 -0.863281 0.014763 0.790039 1 0 1.0
0 0.035658 -1.745473 -1.154279 0.456787 -0.215088 -0.863281 0.014763 0.790039 1 0 1.0
0 0.949991 0.228330 -1.162215 0.456787 -0.215088 -0.863281 0.014763 0.790039 1 0 1.0
Default
0 0.959380 -5.766762 0.590957 0.912109 -0.169189 0.372803 0.014763 0.790039 1 0 1.0
0 1.316876 -5.826651 -0.134456 0.912109 -0.169189 0.372803 0.014763 0.790039 1 0 1.0
0 1.462651 -3.980647 0.170028 0.912109 -0.169189 0.372803 0.014763 0.790039 1 0 1.0
Default
0 1.157421 -4.083129 1.046698 0.912109 -0.169189 0.372803 0.014763 0.790039 1 0 1.0
0 0.959380 -5.766762 0.590957 0.912109 -0.169189 0.372803 0.014763 0.790039 1 0 1.0
0 1.462651 -3.980647 0.170028 0.912109 -0.169189 0.372803 0.014763 0.790039 1 0 1.0
Default
0 -0.326134 -1.463648 1.616767 -0.457764 0.186646 0.869141 0.014763 0.790039 1 0 1.0
0 -0.144029 0.575546 1.211036 -0.457764 0.186646 0.869141 0.014763 0.790039 1 0 1.0
0 -1.136673 0.554789 0.756484 -0.457764 0.186646 0.869141 0.014763 0.790039 1 0 1.0
Default
0 -1.255001 -1.593799 1.091805 -0.457764 0.186646 0.869141 0.014763 0.790039 1 0 1.0
0 -0.326134 -1.463648 1.616767 -0.457764 0.186646 0.869141 0.014763 0.790039 1 0 1.0
0 -1.136673 0.554789 0.756484 -0.457764 0.186646 0.869141 0.014763 0.790039 1 0 1.0
Default
0 -0.174629 -9.042808 -0.440808 -0.896973 -0.151123 -0.415527 0.014763 0.790039 1 0 1.0
0 -0.273183 -9.043843 -0.202865 -0.896973 -0.151123 -0.415527 0.014763 0.790039 1 0 1.0
0 -0.797705 -5.810396 -0.271364 -0.896973 -0.151123 -0.415527 0.014763 0.790039 1 0 1.0
Default
0 -0.440211 -5.870284 -0.996733 -0.896973 -0.151123 -0.415527 0.014763 0.790039 1 0 1.0
0 -0.174629 -9.042808 -0.440808 -0.896973 -0.151123 -0.415527 0.014763 0.790039 1 0 1.0
0 -0.797705 -5.810396 -0.271364 -0.896973 -0.151123 -0.415527 0.014763 0.790039 1 0 1.0
Default
0 1.056970 -3.943165 -0.670352 0.420410 -0.004421 -0.907227 0.014763 0.790039 1 0 1.0
0 0.178024 -3.992645 -0.982157 0.420410 -0.004421 -0.907227 0.014763 0.790039 1 0 1.0
0 0.035658 -1.745473 -1.154279 0.420410 -0.004421 -0.907227 0.014763 0.790039 1 0 1.0
Default
0 0.964525 -1.615324 -0.629316 0.420410 -0.004421 -0.907227 0.014763 0.790039 1 0 1.0
0 1.056970 -3.943165 -0.670352 0.420410 -0.004421 -0.907227 0.014763 0.790039 1 0 1.0
0 0.035658 -1.745473 -1.154279 0.420410 -0.004421 -0.907227 0.014763 0.790039 1 0 1.0
Default
0 -0.347717 4.931590 1.005206 -0.289307 0.138550 0.947266 0.014763 0.790039 1 0 1.0
0 -1.108746 5.128312 0.645847 -0.289307 0.138550 0.947266 0.014763 0.790039 1 0 1.0
0 -0.797873 2.548353 1.216257 -0.289307 0.138550 0.947266 0.014763 0.790039 1 0 1.0
Default
0 0.134439 2.518790 1.407045 -0.289307 0.138550 0.947266 0.014763 0.790039 1 0 1.0
0 -0.347717 4.931590 1.005206 -0.289307 0.138550 0.947266 0.014763 0.790039 1 0 1.0
0 -0.797873 2.548353 1.216257 -0.289307 0.138550 0.947266 0.014763 0.790039 1 0 1.0
Default
0 0.399781 -9.036774 -0.202866 0.913574 -0.259033 -0.313721 0.014763 0.790039 1 0 1.0
0 0.301228 -9.037809 -0.440808 0.913574 -0.259033 -0.313721 0.014763 0.790039 1 0 1.0
0 1.055023 -5.881779 -0.899924 0.913574 -0.259033 -0.313721 0.014763 0.790039 1 0 1.0
Default
0 1.316876 -5.826651 -0.134456 0.913574 -0.259033 -0.313721 0.014763 0.790039 1 0 1.0
0 0.399781 -9.036774 -0.202866 0.913574 -0.259033 -0.313721 0.014763 0.790039 1 0 1.0
0 1.055023 -5.881779 -0.899924 0.913574 -0.259033 -0.313721 0.014763 0.790039 1 0 1.0
Default
0 0.964525 -1.615324 -0.629316 0.950195 -0.105408 -0.293701 0.014763 0.790039 1 0 1.0
0 0.949991 0.228330 -1.162215 0.950195 -0.105408 -0.293701 0.014763 0.790039 1 0 1.0
0 1.331466 0.344705 -0.145689 0.950195 -0.105408 -0.293701 0.014763 0.790039 1 0 1.0
Default
0 1.243307 -1.478869 0.399751 0.950195 -0.105408 -0.293701 0.014763 0.790039 1 0 1.0
0 0.964525 -1.615324 -0.629316 0.950195 -0.105408 -0.293701 0.014763 0.790039 1 0 1.0
0 1.331466 0.344705 -0.145689 0.950195 -0.105408 -0.293701 0.014763 0.790039 1 0 1.0
Default
0 -0.174629 -9.042808 0.035077 -0.417236 -0.173950 0.892090 0.014763 0.790039 1 0 1.0
0 0.063301 -9.040306 0.133635 -0.417236 -0.173950 0.892090 0.014763 0.790039 1 0 1.0
0 0.191954 -5.737194 0.851333 -0.417236 -0.173950 0.892090 0.014763 0.790039 1 0 1.0
Default
0 -0.535855 -5.755267 0.494148 -0.417236 -0.173950 0.892090 0.014763 0.790039 1 0 1.0
0 -0.174629 -9.042808 0.035077 -0.417236 -0.173950 0.892090 0.014763 0.790039 1 0 1.0
0 0.191954 -5.737194 0.851333 -0.417236 -0.173950 0.892090 0.014763 0.790039 1 0 1.0
Default
0 -0.876025 6.812884 -0.824847 -0.355713 0.093262 -0.930176 0.014763 0.790039 1 0 1.0
0 -0.192999 6.748389 -1.112233 -0.355713 0.093262 -0.930176 0.014763 0.790039 1 0 1.0
0 -0.307526 4.769875 -1.247145 -0.355713 0.093262 -0.930176 0.014763 0.790039 1 0 1.0
Default
0 -1.080326 5.013959 -0.946806 -0.355713 0.093262 -0.930176 0.014763 0.790039 1 0 1.0
0 -0.876025 6.812884 -0.824847 -0.355713 0.093262 -0.930176 0.014763 0.790039 1 0 1.0
0 -0.307526 4.769875 -1.247145 -0.355713 0.093262 -0.930176 0.014763 0.790039 1 0 1.0
Default
0 -0.659313 -4.100100 -0.582738 -0.884277 -0.213013 -0.415527 0.014763 0.790039 1 0 1.0
0 -0.964543 -4.202585 0.293932 -0.884277 -0.213013 -0.415527 0.014763 0.790039 1 0 1.0
0 -1.533784 -1.730253 0.062738 -0.884277 -0.213013 -0.415527 0.014763 0.790039 1 0 1.0
Default
0 -0.999176 -1.793080 -0.867621 -0.884277 -0.213013 -0.415527 0.014763 0.790039 1 0 1.0
0 -0.659313 -4.100100 -0.582738 -0.884277 -0.213013 -0.415527 0.014763 0.790039 1 0 1.0
0 -1.533784 -1.730253 0.062738 -0.884277 -0.213013 -0.415527 0.014763 0.790039 1 0 1.0
Default
0 0.327212 -5.899850 -1.257109 -0.382324 0.133057 -0.914551 0.014763 0.790039 1 0 1.0
0 -0.440211 -5.870284 -0.996733 -0.382324 0.133057 -0.914551 0.014763 0.790039 1 0 1.0
0 -0.659313 -4.100100 -0.582738 -0.382324 0.133057 -0.914551 0.014763 0.790039 1 0 1.0
Default
0 0.178024 -3.992645 -0.982157 -0.382324 0.133057 -0.914551 0.014763 0.790039 1 0 1.0
0 0.327212 -5.899850 -1.257109 -0.382324 0.133057 -0.914551 0.014763 0.790039 1 0 1.0
0 -0.659313 -4.100100 -0.582738 -0.382324 0.133057 -0.914551 0.014763 0.790039 1 0 1.0
Default
0 1.532671 7.585507 -0.151545 0.772461 -0.528320 0.352539 0.014763 0.790039 1 0 1.0
0 1.278556 7.785073 0.605943 0.772461 -0.528320 0.352539 0.014763 0.790039 1 0 1.0
0 0.476917 6.501129 0.535432 0.772461 -0.528320 0.352539 0.014763 0.790039 1 0 1.0
Default
0 0.763675 6.527942 -0.150371 0.772461 -0.528320 0.352539 0.014763 0.790039 1 0 1.0
0 1.532671 7.585507 -0.151545 0.772461 -0.528320 0.352539 0.014763 0.790039 1 0 1.0
0 0.476917 6.501129 0.535432 0.772461 -0.528320 0.352539 0.014763 0.790039 1 0 1.0
Default
0 0.091906 8.732340 -0.918905 -0.367920 0.142334 -0.918945 0.014763 0.790039 1 0 1.0
0 0.693583 8.255326 -1.229777 -0.367920 0.142334 -0.918945 0.014763 0.790039 1 0 1.0
0 -0.192999 6.748389 -1.112233 -0.367920 0.142334 -0.918945 0.014763 0.790039 1 0 1.0
Default
0 -0.876025 6.812884 -0.824847 -0.367920 0.142334 -0.918945 0.014763 0.790039 1 0 1.0
0 0.091906 8.732340 -0.918905 -0.367920 0.142334 -0.918945 0.014763 0.790039 1 0 1.0
0 -0.192999 6.748389 -1.112233 -0.367920 0.142334 -0.918945 0.014763 0.790039 1 0 1.0
Default
0 1.290369 7.780293 -0.911928 0.746094 -0.545898 -0.381348 0.014763 0.790039 1 0 1.0
0 1.532671 7.585507 -0.151545 0.746094 -0.545898 -0.381348 0.014763 0.790039 1 0 1.0
0 0.763675 6.527942 -0.150371 0.746094 -0.545898 -0.381348 0.014763 0.790039 1 0 1.0
Default
0 0.486187 6.630362 -0.832857 0.746094 -0.545898 -0.381348 0.014763 0.790039 1 0 1.0
0 1.290369 7.780293 -0.911928 0.746094 -0.545898 -0.381348 0.014763 0.790039 1 0 1.0
0 0.763675 6.527942 -0.150371 0.746094 -0.545898 -0.381348 0.014763 0.790039 1 0 1.0
Default
0 -0.162213 8.931903 -0.161416 -0.842773 0.397461 -0.363281 0.014763 0.790039 1 0 1.0
0 0.091906 8.732340 -0.918905 -0.842773 0.397461 -0.363281 0.014763 0.790039 1 0 1.0
0 -0.876025 6.812884 -0.824847 -0.842773 0.397461 -0.363281 0.014763 0.790039 1 0 1.0
Default
0 -1.162782 6.786070 -0.139043 -0.842773 0.397461 -0.363281 0.014763 0.790039 1 0 1.0
0 -0.162213 8.931903 -0.161416 -0.842773 0.397461 -0.363281 0.014763 0.790039 1 0 1.0
0 -0.876025 6.812884 -0.824847 -0.842773 0.397461 -0.363281 0.014763 0.790039 1 0 1.0
Default
0 0.080096 8.737119 0.598963 -0.837891 0.389404 0.382080 0.014763 0.790039 1 0 1.0
0 -0.162213 8.931903 -0.161416 -0.837891 0.389404 0.382080 0.014763 0.790039 1 0 1.0
0 -1.162782 6.786070 -0.139043 -0.837891 0.389404 0.382080 0.014763 0.790039 1 0 1.0
Default
0 -0.885295 6.683651 0.543443 -0.837891 0.389404 0.382080 0.014763 0.790039 1 0 1.0
0 0.080096 8.737119 0.598963 -0.837891 0.389404 0.382080 0.014763 0.790039 1 0 1.0
0 -1.162782 6.786070 -0.139043 -0.837891 0.389404 0.382080 0.014763 0.790039 1 0 1.0
Default
0 1.278556 7.785073 0.605943 0.326904 -0.235352 0.915039 0.014763 0.790039 1 0 1.0
0 0.676880 8.262086 0.916813 0.326904 -0.235352 0.915039 0.014763 0.790039 1 0 1.0
0 -0.206109 6.565626 0.822819 0.326904 -0.235352 0.915039 0.014763 0.790039 1 0 1.0
Default
0 0.476917 6.501129 0.535432 0.326904 -0.235352 0.915039 0.014763 0.790039 1 0 1.0
0 1.278556 7.785073 0.605943 0.326904 -0.235352 0.915039 0.014763 0.790039 1 0 1.0
0 -0.206109 6.565626 0.822819 0.326904 -0.235352 0.915039 0.014763 0.790039 1 0 1.0
Default
0 0.693583 8.255326 -1.229777 0.306152 -0.262695 -0.915039 0.014763 0.790039 1 0 1.0
0 1.290369 7.780293 -0.911928 0.306152 -0.262695 -0.915039 0.014763 0.790039 1 0 1.0
0 0.486187 6.630362 -0.832857 0.306152 -0.262695 -0.915039 0.014763 0.790039 1 0 1.0
Default
0 -0.192999 6.748389 -1.112233 0.306152 -0.262695 -0.915039 0.014763 0.790039 1 0 1.0
0 0.693583 8.255326 -1.229777 0.306152 -0.262695 -0.915039 0.014763 0.790039 1 0 1.0
0 0.486187 6.630362 -0.832857 0.306152 -0.262695 -0.915039 0.014763 0.790039 1 0 1.0
Default
0 -0.174629 -9.042808 -0.440808 0.010506 -1.000000 0.000000 0.014763 0.790039 1 0 1.0
0 0.063303 -9.040308 -0.539366 0.010506 -1.000000 0.000000 0.014763 0.790039 1 0 1.0
0 0.301228 -9.037809 -0.440808 0.010506 -1.000000 0.000000 0.014763 0.790039 1 0 1.0
Default
0 0.301228 -9.037809 -0.440808 0.010506 -1.000000 0.000000 0.014763 0.790039 1 0 1.0
0 0.399781 -9.036774 -0.202866 0.010506 -1.000000 0.000000 0.014763 0.790039 1 0 1.0
0 -0.174629 -9.042808 -0.440808 0.010506 -1.000000 0.000000 0.014763 0.790039 1 0 1.0
Default
0 0.399781 -9.036774 -0.202866 0.010506 -1.000000 0.000000 0.014763 0.790039 1 0 1.0
0 -0.273183 -9.043843 -0.202865 0.010506 -1.000000 0.000000 0.014763 0.790039 1 0 1.0
0 -0.174629 -9.042808 -0.440808 0.010506 -1.000000 0.000000 0.014763 0.790039 1 0 1.0
Default
0 0.399781 -9.036774 -0.202866 0.010506 -1.000000 0.000000 0.014763 0.790039 1 0 1.0
0 0.301228 -9.037809 0.035077 0.010506 -1.000000 0.000000 0.014763 0.790039 1 0 1.0
0 -0.273183 -9.043843 -0.202865 0.010506 -1.000000 0.000000 0.014763 0.790039 1 0 1.0
Default
0 0.301228 -9.037809 0.035077 0.010506 -1.000000 0.000000 0.014763 0.790039 1 0 1.0
0 -0.174629 -9.042808 0.035077 0.010506 -1.000000 0.000000 0.014763 0.790039 1 0 1.0
0 -0.273183 -9.043843 -0.202865 0.010506 -1.000000 0.000000 0.014763 0.790039 1 0 1.0
Default
0 0.301228 -9.037809 0.035077 0.010506 -1.000000 0.000000 0.014763 0.790039 1 0 1.0
0 0.063301 -9.040306 0.133635 0.010506 -1.000000 0.000024 0.014763 0.790039 1 0 1.0
0 -0.174629 -9.042808 0.035077 0.010506 -1.000000 0.000000 0.014763 0.790039 1 0 1.0
Default
0 0.942621 8.605409 0.717988 -0.034973 0.534180 0.844727 0.015991 0.890625 1 0 1.0
0 0.505044 8.930425 0.486954 -0.034973 0.534180 0.844727 0.015991 0.890625 1 0 1.0
0 0.080096 8.737119 0.598963 -0.034973 0.534180 0.844727 0.015991 0.890625 1 0 1.0
Default
0 0.676880 8.262086 0.916813 -0.034973 0.534180 0.844727 0.015991 0.890625 1 0 1.0
0 0.942621 8.605409 0.717988 -0.034973 0.534180 0.844727 0.015991 0.890625 1 0 1.0
0 0.080096 8.737119 0.598963 -0.034973 0.534180 0.844727 0.015991 0.890625 1 0 1.0
Default
0 0.903506 8.532993 -0.826835 0.653809 0.407959 -0.637207 0.015991 0.890625 1 0 1.0
0 1.341079 8.207976 -0.595804 0.653809 0.407959 -0.637207 0.015991 0.890625 1 0 1.0
0 1.290369 7.780293 -0.911928 0.653809 0.407959 -0.637207 0.015991 0.890625 1 0 1.0
Default
0 0.693583 8.255326 -1.229777 0.653809 0.407959 -0.637207 0.015991 0.890625 1 0 1.0
0 0.903506 8.532993 -0.826835 0.653809 0.407959 -0.637207 0.015991 0.890625 1 0 1.0
0 1.290369 7.780293 -0.911928 0.653809 0.407959 -0.637207 0.015991 0.890625 1 0 1.0
Default
0 1.368737 8.259183 0.496555 0.517090 0.095581 0.850586 0.015991 0.890625 1 0 1.0
0 0.942621 8.605409 0.717988 0.517090 0.095581 0.850586 0.015991 0.890625 1 0 1.0
0 0.676880 8.262086 0.916813 0.517090 0.095581 0.850586 0.015991 0.890625 1 0 1.0
Default
0 1.278556 7.785073 0.605943 0.517090 0.095581 0.850586 0.015991 0.890625 1 0 1.0
0 1.368737 8.259183 0.496555 0.517090 0.095581 0.850586 0.015991 0.890625 1 0 1.0
0 0.676880 8.262086 0.916813 0.517090 0.095581 0.850586 0.015991 0.890625 1 0 1.0
Default
0 0.505044 8.930425 0.486954 -0.301514 0.900879 0.312500 0.015991 0.890625 1 0 1.0
0 0.312338 9.043843 -0.061209 -0.301514 0.900879 0.312500 0.015991 0.890625 1 0 1.0
0 -0.162213 8.931903 -0.161416 -0.301514 0.900879 0.312500 0.015991 0.890625 1 0 1.0
Default
0 0.080096 8.737119 0.598963 -0.301514 0.900879 0.312500 0.015991 0.890625 1 0 1.0
0 0.505044 8.930425 0.486954 -0.301514 0.900879 0.312500 0.015991 0.890625 1 0 1.0
0 -0.162213 8.931903 -0.161416 -0.301514 0.900879 0.312500 0.015991 0.890625 1 0 1.0
Default
0 0.312338 9.043843 -0.061209 -0.135620 0.941895 -0.307129 0.015991 0.890625 1 0 1.0
0 0.477386 8.879221 -0.605401 -0.135620 0.941895 -0.307129 0.015991 0.890625 1 0 1.0
0 0.091906 8.732340 -0.918905 -0.135620 0.941895 -0.307129 0.015991 0.890625 1 0 1.0
Default
0 -0.162213 8.931903 -0.161416 -0.135620 0.941895 -0.307129 0.015991 0.890625 1 0 1.0
0 0.312338 9.043843 -0.061209 -0.135620 0.941895 -0.307129 0.015991 0.890625 1 0 1.0
0 0.091906 8.732340 -0.918905 -0.135620 0.941895 -0.307129 0.015991 0.890625 1 0 1.0
Default
0 1.341079 8.207976 -0.595804 0.951172 0.080688 -0.297363 0.015991 0.890625 1 0 1.0
0 1.533784 8.094560 -0.047637 0.951172 0.080688 -0.297363 0.015991 0.890625 1 0 1.0
0 1.532671 7.585507 -0.151545 0.951172 0.080688 -0.297363 0.015991 0.890625 1 0 1.0
Default
0 1.290369 7.780293 -0.911928 0.951172 0.080688 -0.297363 0.015991 0.890625 1 0 1.0
0 1.341079 8.207976 -0.595804 0.951172 0.080688 -0.297363 0.015991 0.890625 1 0 1.0
0 1.532671 7.585507 -0.151545 0.951172 0.080688 -0.297363 0.015991 0.890625 1 0 1.0
Default
0 0.477386 8.879221 -0.605401 0.250977 0.726562 -0.639160 0.015991 0.890625 1 0 1.0
0 0.903506 8.532993 -0.826835 0.250977 0.726562 -0.639160 0.015991 0.890625 1 0 1.0
0 0.693583 8.255326 -1.229777 0.250977 0.726562 -0.639160 0.015991 0.890625 1 0 1.0
Default
0 0.091906 8.732340 -0.918905 0.250977 0.726562 -0.639160 0.015991 0.890625 1 0 1.0
0 0.477386 8.879221 -0.605401 0.250977 0.726562 -0.639160 0.015991 0.890625 1 0 1.0
0 0.693583 8.255326 -1.229777 0.250977 0.726562 -0.639160 0.015991 0.890625 1 0 1.0
Default
0 1.533784 8.094560 -0.047637 0.940918 -0.085571 0.326904 0.015991 0.890625 1 0 1.0
0 1.368737 8.259183 0.496555 0.940918 -0.085571 0.326904 0.015991 0.890625 1 0 1.0
0 1.278556 7.785073 0.605943 0.940918 -0.085571 0.326904 0.015991 0.890625 1 0 1.0
Default
0 1.532671 7.585507 -0.151545 0.940918 -0.085571 0.326904 0.015991 0.890625 1 0 1.0
0 1.533784 8.094560 -0.047637 0.940918 -0.085571 0.326904 0.015991 0.890625 1 0 1.0
0 1.278556 7.785073 0.605943 0.940918 -0.085571 0.326904 0.015991 0.890625 1 0 1.0
Default
0 0.784362 8.380454 -0.773481 -0.151123 0.429443 0.890137 0.015991 0.890625 1 0 1.0
0 1.197541 8.073561 -0.555329 -0.151123 0.429443 0.890137 0.015991 0.890625 1 0 1.0
0 1.341079 8.207976 -0.595804 -0.151123 0.429443 0.890137 0.015991 0.890625 1 0 1.0
Default
0 0.903506 8.532993 -0.826835 -0.151123 0.429443 0.890137 0.015991 0.890625 1 0 1.0
0 0.784362 8.380454 -0.773481 -0.151123 0.429443 0.890137 0.015991 0.890625 1 0 1.0
0 1.341079 8.207976 -0.595804 -0.151123 0.429443 0.890137 0.015991 0.890625 1 0 1.0
Default
0 1.223656 8.121911 0.476121 -0.196899 0.344727 -0.917969 0.014763 0.790039 1 0 1.0
0 0.821297 8.448831 0.685214 -0.196899 0.344727 -0.917969 0.014763 0.790039 1 0 1.0
0 0.942621 8.605409 0.717988 -0.196899 0.344727 -0.917969 0.014763 0.790039 1 0 1.0
Default
0 1.368737 8.259183 0.496555 -0.196899 0.344727 -0.917969 0.014763 0.790039 1 0 1.0
0 1.223656 8.121911 0.476121 -0.196899 0.344727 -0.917969 0.014763 0.790039 1 0 1.0
0 0.942621 8.605409 0.717988 -0.196899 0.344727 -0.917969 0.014763 0.790039 1 0 1.0
Default
0 1.197541 8.073561 -0.555329 -0.583496 0.729980 0.356201 0.015991 0.890625 1 0 1.0
0 1.379501 7.966468 -0.037723 -0.583496 0.729980 0.356201 0.015991 0.890625 1 0 1.0
0 1.533784 8.094560 -0.047637 -0.583496 0.729980 0.356201 0.015991 0.890625 1 0 1.0
Default
0 1.341079 8.207976 -0.595804 -0.583496 0.729980 0.356201 0.015991 0.890625 1 0 1.0
0 1.197541 8.073561 -0.555329 -0.583496 0.729980 0.356201 0.015991 0.890625 1 0 1.0
0 1.533784 8.094560 -0.047637 -0.583496 0.729980 0.356201 0.015991 0.890625 1 0 1.0
Default
0 0.226156 8.862824 -0.050541 0.846191 -0.381104 0.372070 0.015991 0.890625 1 0 1.0
0 0.382004 8.707378 -0.564389 0.846191 -0.381104 0.372070 0.015991 0.890625 1 0 1.0
0 0.477386 8.879221 -0.605401 0.846191 -0.381104 0.372070 0.015991 0.890625 1 0 1.0
Default
0 0.312338 9.043843 -0.061209 0.846191 -0.381104 0.372070 0.015991 0.890625 1 0 1.0
0 0.226156 8.862824 -0.050541 0.846191 -0.381104 0.372070 0.015991 0.890625 1 0 1.0
0 0.477386 8.879221 -0.605401 0.846191 -0.381104 0.372070 0.015991 0.890625 1 0 1.0
Default
0 1.379501 7.966468 -0.037723 -0.602051 0.694824 -0.392822 0.015991 0.890625 1 0 1.0
0 1.223656 8.121911 0.476121 -0.602051 0.694824 -0.392822 0.015991 0.890625 1 0 1.0
0 1.368737 8.259183 0.496555 -0.602051 0.694824 -0.392822 0.015991 0.890625 1 0 1.0
Default
0 1.533784 8.094560 -0.047637 -0.602051 0.694824 -0.392822 0.015991 0.890625 1 0 1.0
0 1.379501 7.966468 -0.037723 -0.602051 0.694824 -0.392822 0.015991 0.890625 1 0 1.0
0 1.368737 8.259183 0.496555 -0.602051 0.694824 -0.392822 0.015991 0.890625 1 0 1.0
Default
0 0.821297 8.448831 0.685214 0.395264 -0.115540 -0.911133 0.014763 0.790039 1 0 1.0
0 0.408119 8.755730 0.467062 0.395264 -0.115540 -0.911133 0.014763 0.790039 1 0 1.0
0 0.505044 8.930425 0.486954 0.395264 -0.115540 -0.911133 0.014763 0.790039 1 0 1.0
Default
0 0.942621 8.605409 0.717988 0.395264 -0.115540 -0.911133 0.014763 0.790039 1 0 1.0
0 0.821297 8.448831 0.685214 0.395264 -0.115540 -0.911133 0.014763 0.790039 1 0 1.0
0 0.505044 8.930425 0.486954 0.395264 -0.115540 -0.911133 0.014763 0.790039 1 0 1.0
Default
0 0.382004 8.707378 -0.564389 0.441162 -0.030777 0.896973 0.015991 0.890625 1 0 1.0
0 0.784362 8.380454 -0.773481 0.441162 -0.030777 0.896973 0.015991 0.890625 1 0 1.0
0 0.903506 8.532993 -0.826835 0.441162 -0.030777 0.896973 0.015991 0.890625 1 0 1.0
Default
0 0.477386 8.879221 -0.605401 0.441162 -0.030777 0.896973 0.015991 0.890625 1 0 1.0
0 0.382004 8.707378 -0.564389 0.441162 -0.030777 0.896973 0.015991 0.890625 1 0 1.0
0 0.903506 8.532993 -0.826835 0.441162 -0.030777 0.896973 0.015991 0.890625 1 0 1.0
Default
0 0.408119 8.755730 0.467062 0.827637 -0.416260 -0.376953 0.014763 0.790039 1 0 1.0
0 0.226156 8.862824 -0.050541 0.827637 -0.416260 -0.376953 0.014763 0.790039 1 0 1.0
0 0.312338 9.043843 -0.061209 0.827637 -0.416260 -0.376953 0.014763 0.790039 1 0 1.0
Default
0 0.505044 8.930425 0.486954 0.827637 -0.416260 -0.376953 0.014763 0.790039 1 0 1.0
0 0.408119 8.755730 0.467062 0.827637 -0.416260 -0.376953 0.014763 0.790039 1 0 1.0
0 0.312338 9.043843 -0.061209 0.827637 -0.416260 -0.376953 0.014763 0.790039 1 0 1.0
Default
0 1.197541 8.073561 -0.555329 0.613281 0.788086 -0.052490 0.014763 0.829102 1 0 1.0
0 0.784362 8.380454 -0.773481 0.613281 0.788086 -0.052490 0.014763 0.829102 1 0 1.0
0 0.382004 8.707378 -0.564389 0.613281 0.788086 -0.052490 0.014763 0.829102 1 0 1.0
Default
0 0.382004 8.707378 -0.564389 0.613281 0.788086 -0.052490 0.014763 0.829102 1 0 1.0
0 0.226156 8.862824 -0.050541 0.613281 0.788086 -0.052460 0.014763 0.829102 1 0 1.0
0 1.197541 8.073561 -0.555329 0.613281 0.788086 -0.052490 0.014763 0.829102 1 0 1.0
Default
0 0.226156 8.862824 -0.050541 0.613281 0.788086 -0.052460 0.014763 0.829102 1 0 1.0
0 1.379501 7.966468 -0.037723 0.613281 0.788086 -0.052460 0.014763 0.829102 1 0 1.0
0 1.197541 8.073561 -0.555329 0.613281 0.788086 -0.052490 0.014763 0.829102 1 0 1.0
Default
0 0.226156 8.862824 -0.050541 0.613281 0.788086 -0.052460 0.014763 0.829102 1 0 1.0
0 0.408119 8.755730 0.467062 0.613281 0.788086 -0.052460 0.014763 0.829102 1 0 1.0
0 1.379501 7.966468 -0.037723 0.613281 0.788086 -0.052460 0.014763 0.829102 1 0 1.0
Default
0 0.408119 8.755730 0.467062 0.613281 0.788086 -0.052460 0.014763 0.829102 1 0 1.0
0 1.223656 8.121911 0.476121 0.613281 0.788086 -0.052460 0.014763 0.829102 1 0 1.0
0 1.379501 7.966468 -0.037723 0.613281 0.788086 -0.052460 0.014763 0.829102 1 0 1.0
Default
0 0.408119 8.755730 0.467062 0.613281 0.788086 -0.052460 0.014763 0.829102 1 0 1.0
0 0.821297 8.448831 0.685214 0.613281 0.788086 -0.052460 0.014763 0.829102 1 0 1.0
0 1.223656 8.121911 0.476121 0.613281 0.788086 -0.052460 0.014763 0.829102 1 0 1.0
end
