version 1
nodes
0 "root" -1
end
skeleton
time 0
0 0 0 0 0 0 0
end
triangles
Default
0 12.522485 3.422470 0.742264 0.167441 0.000000 0.985882 0.168091 0.636719 1 0 1.0
0 12.522485 0.022460 0.742264 0.167441 0.000000 0.985882 0.168091 0.636719 1 0 1.0
0 15.538845 -0.473839 0.229970 0.175047 -0.004527 0.984550 0.168091 0.636719 1 0 1.0
Default
0 15.787188 -3.328890 0.142353 0.332288 -0.226516 0.915574 0.166504 0.641602 1 0 1.0
0 12.522485 -5.693223 0.742263 0.332288 -0.226516 0.915574 0.166504 0.641602 1 0 1.0
0 12.516566 -7.926010 0.192012 0.332288 -0.226516 0.915574 0.166504 0.641602 1 0 1.0
Default
0 12.843970 1.824125 0.908124 0.127250 -0.426129 0.895668 0.982422 0.007912 1 0 1.0
0 12.055806 1.686999 0.954860 0.127250 -0.426129 0.895668 0.982422 0.007912 1 0 1.0
0 12.376473 1.276906 0.714194 0.127250 -0.426129 0.895668 0.982422 0.007912 1 0 1.0
Default
0 12.376473 1.276906 0.714194 0.734271 -0.668719 0.116878 0.982422 0.007912 1 0 1.0
0 12.879651 1.799464 0.542859 0.734271 -0.668719 0.116878 0.982422 0.007912 1 0 1.0
0 12.843970 1.824125 0.908124 0.734271 -0.668719 0.116878 0.982422 0.007912 1 0 1.0
Default
0 12.055806 1.686999 0.954860 -0.339907 -0.659344 0.670618 0.982422 0.007912 1 0 1.0
0 11.604367 1.577589 0.618475 -0.339907 -0.659344 0.670618 0.982422 0.007912 1 0 1.0
0 12.376473 1.276906 0.714194 -0.339907 -0.659344 0.670618 0.982422 0.007912 1 0 1.0
Default
0 11.604367 1.577589 0.618475 -0.212895 -0.747127 -0.629664 0.982422 0.007912 1 0 1.0
0 12.113538 1.647098 0.363843 -0.212895 -0.747127 -0.629664 0.982422 0.007912 1 0 1.0
0 12.376473 1.276906 0.714194 -0.212895 -0.747127 -0.629664 0.982422 0.007912 1 0 1.0
Default
0 12.113538 1.647098 0.363843 0.291859 -0.539898 -0.789512 0.982422 0.007912 1 0 1.0
0 12.879651 1.799464 0.542859 0.291859 -0.539898 -0.789512 0.982422 0.007912 1 0 1.0
0 12.376473 1.276906 0.714194 0.291859 -0.539898 -0.789512 0.982422 0.007912 1 0 1.0
Default
0 12.879651 1.799464 0.542859 0.995220 -0.004795 0.097543 0.982422 0.007912 1 0 1.0
0 12.869973 2.532517 0.677632 0.995220 -0.004795 0.097543 0.982422 0.007912 1 0 1.0
0 12.843970 1.824125 0.908124 0.995220 -0.004795 0.097543 0.982422 0.007912 1 0 1.0
Default
0 12.843970 1.824125 0.908124 0.058112 0.006231 0.998291 0.986328 0.513672 1 0 1.0
0 12.360797 2.463008 0.932263 0.058112 0.006231 0.998291 0.986328 0.513672 1 0 1.0
0 12.055806 1.686999 0.954860 0.058112 0.006231 0.998291 0.986328 0.513672 1 0 1.0
Default
0 12.055806 1.686999 0.954860 -0.565510 -0.156350 0.809785 0.982422 0.007912 1 0 1.0
0 11.594682 2.310642 0.753247 -0.565510 -0.156350 0.809785 0.982422 0.007912 1 0 1.0
0 11.604367 1.577589 0.618475 -0.565510 -0.156350 0.809785 0.982422 0.007912 1 0 1.0
Default
0 11.604367 1.577589 0.618475 -0.400901 -0.270118 -0.875394 0.982422 0.007912 1 0 1.0
0 11.630364 2.285981 0.387983 -0.400901 -0.270118 -0.875394 0.982422 0.007912 1 0 1.0
0 12.113538 1.647098 0.363843 -0.400901 -0.270118 -0.875394 0.982422 0.007912 1 0 1.0
Default
0 12.113538 1.647098 0.363843 0.249416 -0.125987 -0.960166 0.982422 0.007912 1 0 1.0
0 12.418528 2.423107 0.341246 0.249416 -0.125987 -0.960166 0.982422 0.007912 1 0 1.0
0 12.879651 1.799464 0.542859 0.249416 -0.125987 -0.960166 0.982422 0.007912 1 0 1.0
Default
0 12.869973 2.532517 0.677632 0.400898 0.270115 0.875397 0.986328 0.513672 1 0 1.0
0 12.360797 2.463008 0.932263 0.400898 0.270115 0.875397 0.986328 0.513672 1 0 1.0
0 12.843970 1.824125 0.908124 0.400898 0.270115 0.875397 0.986328 0.513672 1 0 1.0
Default
0 12.360797 2.463008 0.932263 -0.249416 0.125987 0.960166 0.982422 0.007912 1 0 1.0
0 11.594682 2.310642 0.753247 -0.249416 0.125987 0.960166 0.982422 0.007912 1 0 1.0
0 12.055806 1.686999 0.954860 -0.249416 0.125987 0.960166 0.982422 0.007912 1 0 1.0
Default
0 11.594682 2.310642 0.753247 -0.995220 0.004785 -0.097542 0.982422 0.007912 1 0 1.0
0 11.630364 2.285981 0.387983 -0.995220 0.004785 -0.097542 0.982422 0.007912 1 0 1.0
0 11.604367 1.577589 0.618475 -0.995220 0.004785 -0.097542 0.982422 0.007912 1 0 1.0
Default
0 11.630364 2.285981 0.387983 -0.058112 -0.006230 -0.998291 0.982422 0.007912 1 0 1.0
0 12.418528 2.423107 0.341246 -0.058112 -0.006230 -0.998291 0.982422 0.007912 1 0 1.0
0 12.113538 1.647098 0.363843 -0.058112 -0.006230 -0.998291 0.982422 0.007912 1 0 1.0
Default
0 12.418528 2.423107 0.341246 0.565507 0.156346 -0.809789 0.982422 0.007912 1 0 1.0
0 12.869973 2.532517 0.677632 0.565507 0.156346 -0.809789 0.982422 0.007912 1 0 1.0
0 12.879651 1.799464 0.542859 0.565507 0.156346 -0.809789 0.982422 0.007912 1 0 1.0
Default
0 12.869973 2.532517 0.677632 0.212892 0.747127 0.629665 0.982422 0.007912 1 0 1.0
0 12.097863 2.833199 0.581912 0.212892 0.747127 0.629665 0.982422 0.007912 1 0 1.0
0 12.360797 2.463008 0.932263 0.212892 0.747127 0.629665 0.982422 0.007912 1 0 1.0
Default
0 12.360797 2.463008 0.932263 -0.291858 0.539899 0.789511 0.982422 0.007912 1 0 1.0
0 12.097863 2.833199 0.581912 -0.291858 0.539899 0.789511 0.982422 0.007912 1 0 1.0
0 11.594682 2.310642 0.753247 -0.291858 0.539899 0.789511 0.982422 0.007912 1 0 1.0
Default
0 11.594682 2.310642 0.753247 -0.734269 0.668722 -0.116878 0.982422 0.007912 1 0 1.0
0 12.097863 2.833199 0.581912 -0.734269 0.668722 -0.116878 0.982422 0.007912 1 0 1.0
0 11.630364 2.285981 0.387983 -0.734269 0.668722 -0.116878 0.982422 0.007912 1 0 1.0
Default
0 11.630364 2.285981 0.387983 -0.127250 0.426130 -0.895668 0.982422 0.007912 1 0 1.0
0 12.097863 2.833199 0.581912 -0.127250 0.426130 -0.895668 0.982422 0.007912 1 0 1.0
0 12.418528 2.423107 0.341246 -0.127250 0.426130 -0.895668 0.982422 0.007912 1 0 1.0
Default
0 12.418528 2.423107 0.341246 0.339904 0.659342 -0.670621 0.982422 0.007912 1 0 1.0
0 12.097863 2.833199 0.581912 0.339904 0.659342 -0.670621 0.982422 0.007912 1 0 1.0
0 12.869973 2.532517 0.677632 0.339904 0.659342 -0.670621 0.982422 0.007912 1 0 1.0
Default
0 13.182456 -0.599979 0.834620 0.397459 0.517974 0.757449 0.982422 0.007912 1 0 1.0
0 13.617261 -1.239750 1.043965 0.397459 0.517974 0.757449 0.982422 0.007912 1 0 1.0
0 13.855180 -0.875652 0.670137 0.397459 0.517974 0.757449 0.982422 0.007912 1 0 1.0
Default
0 13.855180 -0.875652 0.670137 0.337205 0.925566 -0.172104 0.982422 0.007912 1 0 1.0
0 13.168872 -0.662387 0.472377 0.337205 0.925566 -0.172104 0.982422 0.007912 1 0 1.0
0 13.182456 -0.599979 0.834620 0.337205 0.925566 -0.172104 0.982422 0.007912 1 0 1.0
Default
0 13.617261 -1.239750 1.043965 0.779385 0.121741 0.614604 0.982422 0.007912 1 0 1.0
0 13.872404 -1.697572 0.811102 0.779385 0.121741 0.614604 0.982422 0.007912 1 0 1.0
0 13.855180 -0.875652 0.670137 0.779385 0.121741 0.614604 0.982422 0.007912 1 0 1.0
Default
0 13.872404 -1.697572 0.811102 0.731028 -0.100434 -0.674915 0.982422 0.007912 1 0 1.0
0 13.595281 -1.340737 0.457839 0.731028 -0.100434 -0.674915 0.982422 0.007912 1 0 1.0
0 13.855180 -0.875652 0.670137 0.731028 -0.100434 -0.674915 0.982422 0.007912 1 0 1.0
Default
0 13.595281 -1.340737 0.457839 0.334787 0.230031 -0.913785 0.982422 0.007912 1 0 1.0
0 13.168872 -0.662387 0.472377 0.334787 0.230031 -0.913785 0.982422 0.007912 1 0 1.0
0 13.855180 -0.875652 0.670137 0.334787 0.230031 -0.913785 0.982422 0.007912 1 0 1.0
Default
0 13.168872 -0.662387 0.472377 -0.375787 0.915507 -0.143634 0.982422 0.007912 1 0 1.0
0 12.506784 -0.894679 0.723981 -0.375787 0.915507 -0.143634 0.982422 0.007912 1 0 1.0
0 13.182456 -0.599979 0.834620 -0.375787 0.915507 -0.143634 0.982422 0.007912 1 0 1.0
Default
0 13.182456 -0.599979 0.834620 0.032986 0.331002 0.943053 0.986328 0.513672 1 0 1.0
0 12.783911 -1.251518 1.077244 0.032986 0.331002 0.943053 0.986328 0.513672 1 0 1.0
0 13.617261 -1.239750 1.043965 0.032986 0.331002 0.943053 0.986328 0.513672 1 0 1.0
Default
0 13.617261 -1.239750 1.043965 0.412915 -0.219479 0.883929 0.982422 0.007912 1 0 1.0
0 13.210319 -1.929869 1.062706 0.412915 -0.219479 0.883929 0.982422 0.007912 1 0 1.0
0 13.872404 -1.697572 0.811102 0.412915 -0.219479 0.883929 0.982422 0.007912 1 0 1.0
Default
0 13.872404 -1.697572 0.811102 0.350242 -0.507424 -0.787307 0.982422 0.007912 1 0 1.0
0 13.196737 -1.992277 0.700463 0.350242 -0.507424 -0.787307 0.982422 0.007912 1 0 1.0
0 13.595281 -1.340737 0.457839 0.350242 -0.507424 -0.787307 0.982422 0.007912 1 0 1.0
Default
0 13.595281 -1.340737 0.457839 -0.039851 -0.003635 -0.999199 0.982422 0.007912 1 0 1.0
0 12.761931 -1.352503 0.491118 -0.039851 -0.003635 -0.999199 0.982422 0.007912 1 0 1.0
0 13.168872 -0.662387 0.472377 -0.039851 -0.003635 -0.999199 0.982422 0.007912 1 0 1.0
Default
0 12.506784 -0.894679 0.723981 -0.350237 0.507421 0.787311 0.982422 0.007912 1 0 1.0
0 12.783911 -1.251518 1.077244 -0.350237 0.507421 0.787311 0.982422 0.007912 1 0 1.0
0 13.182456 -0.599979 0.834620 -0.350237 0.507421 0.787311 0.982422 0.007912 1 0 1.0
Default
0 12.783911 -1.251518 1.077244 0.039851 0.003636 0.999199 0.986328 0.513672 1 0 1.0
0 13.210319 -1.929869 1.062706 0.039851 0.003636 0.999199 0.986328 0.513672 1 0 1.0
0 13.617261 -1.239750 1.043965 0.039851 0.003636 0.999199 0.986328 0.513672 1 0 1.0
Default
0 13.210319 -1.929869 1.062706 0.375795 -0.915504 0.143636 0.982422 0.007912 1 0 1.0
0 13.196737 -1.992277 0.700463 0.375795 -0.915504 0.143636 0.982422 0.007912 1 0 1.0
0 13.872404 -1.697572 0.811102 0.375795 -0.915504 0.143636 0.982422 0.007912 1 0 1.0
Default
0 13.196737 -1.992277 0.700463 -0.032986 -0.331002 -0.943053 0.982422 0.007912 1 0 1.0
0 12.761931 -1.352503 0.491118 -0.032986 -0.331002 -0.943053 0.982422 0.007912 1 0 1.0
0 13.595281 -1.340737 0.457839 -0.032986 -0.331002 -0.943053 0.982422 0.007912 1 0 1.0
Default
0 12.761931 -1.352503 0.491118 -0.412911 0.219477 -0.883931 0.982422 0.007912 1 0 1.0
0 12.506784 -0.894679 0.723981 -0.412911 0.219477 -0.883931 0.982422 0.007912 1 0 1.0
0 13.168872 -0.662387 0.472377 -0.412911 0.219477 -0.883931 0.982422 0.007912 1 0 1.0
Default
0 12.506784 -0.894679 0.723981 -0.731023 0.100433 0.674921 0.982422 0.007912 1 0 1.0
0 12.524010 -1.716601 0.864946 -0.731023 0.100433 0.674921 0.982422 0.007912 1 0 1.0
0 12.783911 -1.251518 1.077244 -0.731023 0.100433 0.674921 0.982422 0.007912 1 0 1.0
Default
0 12.783911 -1.251518 1.077244 -0.334787 -0.230030 0.913785 0.982422 0.007912 1 0 1.0
0 12.524010 -1.716601 0.864946 -0.334787 -0.230030 0.913785 0.982422 0.007912 1 0 1.0
0 13.210319 -1.929869 1.062706 -0.334787 -0.230030 0.913785 0.982422 0.007912 1 0 1.0
Default
0 13.210319 -1.929869 1.062706 -0.337206 -0.925566 0.172104 0.982422 0.007912 1 0 1.0
0 12.524010 -1.716601 0.864946 -0.337206 -0.925566 0.172104 0.982422 0.007912 1 0 1.0
0 13.196737 -1.992277 0.700463 -0.337206 -0.925566 0.172104 0.982422 0.007912 1 0 1.0
Default
0 13.196737 -1.992277 0.700463 -0.397458 -0.517973 -0.757451 0.982422 0.007912 1 0 1.0
0 12.524010 -1.716601 0.864946 -0.397458 -0.517973 -0.757451 0.982422 0.007912 1 0 1.0
0 12.761931 -1.352503 0.491118 -0.397458 -0.517973 -0.757451 0.982422 0.007912 1 0 1.0
Default
0 12.761931 -1.352503 0.491118 -0.779381 -0.121744 -0.614608 0.982422 0.007912 1 0 1.0
0 12.524010 -1.716601 0.864946 -0.779381 -0.121744 -0.614608 0.982422 0.007912 1 0 1.0
0 12.506784 -0.894679 0.723981 -0.779381 -0.121744 -0.614608 0.982422 0.007912 1 0 1.0
Default
0 12.522485 0.022460 -0.742264 0.167441 0.000000 -0.985882 0.168091 0.636719 1 0 1.0
0 12.522485 3.422470 -0.742263 0.167441 0.000000 -0.985882 0.168091 0.636719 1 0 1.0
0 15.538845 -0.473839 -0.229970 0.175047 -0.004527 -0.984550 0.168091 0.636719 1 0 1.0
Default
0 12.522485 -5.693223 -0.742264 0.332288 -0.226516 -0.915573 0.166504 0.641602 1 0 1.0
0 15.787188 -3.328890 -0.142353 0.332288 -0.226516 -0.915573 0.166504 0.641602 1 0 1.0
0 12.516566 -7.926010 -0.192013 0.332288 -0.226516 -0.915573 0.166504 0.641602 1 0 1.0
Default
0 -16.755579 3.078107 0.101659 0.225303 0.974289 0.000000 0.168091 0.636719 1 0 1.0
0 -13.336857 2.287533 0.091054 0.225303 0.974289 0.000000 0.168091 0.636719 1 0 1.0
0 -13.336857 2.287533 0.000000 0.225303 0.974289 0.000000 0.168091 0.636719 1 0 1.0
Default
0 -16.755579 3.078107 0.000000 0.225303 0.974289 0.000000 0.168091 0.636719 1 0 1.0
0 -16.755579 3.078107 0.101659 0.225303 0.974289 0.000000 0.168091 0.636719 1 0 1.0
0 -13.336857 2.287533 0.000000 0.225303 0.974289 0.000000 0.168091 0.636719 1 0 1.0
Default
0 -16.755579 3.078107 -0.101658 0.225303 0.974289 0.000000 0.168091 0.636719 1 0 1.0
0 -16.755579 3.078107 0.000000 0.225303 0.974289 0.000000 0.168091 0.636719 1 0 1.0
0 -13.336857 2.287533 0.000000 0.225303 0.974289 0.000000 0.168091 0.636719 1 0 1.0
Default
0 -13.336857 2.287533 -0.091054 0.225303 0.974289 0.000000 0.168091 0.636719 1 0 1.0
0 -16.755579 3.078107 -0.101658 0.225303 0.974289 0.000000 0.168091 0.636719 1 0 1.0
0 -13.336857 2.287533 0.000000 0.225303 0.974289 0.000000 0.168091 0.636719 1 0 1.0
Default
0 -11.086776 -1.961633 0.122869 0.256583 -0.966522 0.000000 0.168091 0.636719 1 0 1.0
0 -13.185468 -2.518773 0.091055 0.256583 -0.966522 0.000000 0.168091 0.636719 1 0 1.0
0 -13.185468 -2.518773 0.000000 0.256583 -0.966522 0.000000 0.168091 0.636719 1 0 1.0
Default
0 -11.086776 -1.961633 0.000000 0.256583 -0.966522 0.000000 0.168091 0.636719 1 0 1.0
0 -11.086776 -1.961633 0.122869 0.256583 -0.966522 0.000000 0.168091 0.636719 1 0 1.0
0 -13.185468 -2.518773 0.000000 0.256583 -0.966522 0.000000 0.168091 0.636719 1 0 1.0
Default
0 -11.086776 -1.961633 -0.122869 0.256583 -0.966522 0.000000 0.168091 0.636719 1 0 1.0
0 -11.086776 -1.961633 0.000000 0.256583 -0.966522 0.000000 0.168091 0.636719 1 0 1.0
0 -13.185468 -2.518773 0.000000 0.256583 -0.966522 0.000000 0.168091 0.636719 1 0 1.0
Default
0 -13.185468 -2.518773 -0.091055 0.256583 -0.966522 0.000000 0.168091 0.636719 1 0 1.0
0 -11.086776 -1.961633 -0.122869 0.256583 -0.966522 0.000000 0.168091 0.636719 1 0 1.0
0 -13.185468 -2.518773 0.000000 0.256583 -0.966522 0.000000 0.168091 0.636719 1 0 1.0
Default
0 -16.755579 3.078107 0.101659 -0.991526 0.129906 0.000000 0.168091 0.636719 1 0 1.0
0 -16.755579 3.078107 0.000000 -0.991526 0.129906 0.000000 0.168091 0.636719 1 0 1.0
0 -17.216356 -0.438822 0.101660 -0.991526 0.129906 0.000000 0.168091 0.636719 1 0 1.0
Default
0 -16.755579 3.078107 0.000000 -0.991526 0.129906 0.000000 0.168091 0.636719 1 0 1.0
0 -17.216356 -0.438822 0.000000 -0.991526 0.129906 0.000000 0.168091 0.636719 1 0 1.0
0 -17.216356 -0.438822 0.101660 -0.991526 0.129906 0.000000 0.168091 0.636719 1 0 1.0
Default
0 -17.216356 -0.438822 0.000000 -0.991526 0.129906 0.000000 0.168091 0.636719 1 0 1.0
0 -16.755579 3.078107 0.000000 -0.991526 0.129906 0.000000 0.168091 0.636719 1 0 1.0
0 -17.216356 -0.438822 -0.101659 -0.991526 0.129906 0.000000 0.168091 0.636719 1 0 1.0
Default
0 -16.755579 3.078107 0.000000 -0.991526 0.129906 0.000000 0.168091 0.636719 1 0 1.0
0 -16.755579 3.078107 -0.101658 -0.991526 0.129906 0.000000 0.168091 0.636719 1 0 1.0
0 -17.216356 -0.438822 -0.101659 -0.991526 0.129906 0.000000 0.168091 0.636719 1 0 1.0
Default
0 12.516566 5.648786 0.192013 0.735114 0.677944 0.000000 0.168091 0.636719 1 0 1.0
0 16.627444 1.112618 0.036817 0.740989 0.671517 0.000000 0.168091 0.636719 1 0 1.0
0 16.627444 1.112618 0.000000 0.740989 0.671517 0.000000 0.168091 0.636719 1 0 1.0
Default
0 12.516566 5.648785 0.000000 0.735114 0.677944 0.000000 0.168091 0.636719 1 0 1.0
0 12.516566 5.648786 0.192013 0.735114 0.677944 0.000000 0.168091 0.636719 1 0 1.0
0 16.627444 1.112618 0.000000 0.740989 0.671517 0.000000 0.168091 0.636719 1 0 1.0
Default
0 9.426501 8.941437 0.344691 0.729183 0.684319 0.000000 0.168091 0.636719 1 0 1.0
0 12.516566 5.648786 0.192013 0.735114 0.677944 0.000000 0.168091 0.636719 1 0 1.0
0 12.516566 5.648785 0.000000 0.735114 0.677944 0.000000 0.168091 0.636719 1 0 1.0
Default
0 9.426501 8.941437 0.000001 0.729183 0.684319 0.000000 0.168091 0.636719 1 0 1.0
0 9.426501 8.941437 0.344691 0.729183 0.684319 0.000000 0.168091 0.636719 1 0 1.0
0 12.516566 5.648785 0.000000 0.735114 0.677944 0.000000 0.168091 0.636719 1 0 1.0
Default
0 9.426501 8.941437 -0.344690 0.729183 0.684319 0.000000 0.168091 0.636719 1 0 1.0
0 9.426501 8.941437 0.000001 0.729183 0.684319 0.000000 0.168091 0.636719 1 0 1.0
0 12.516566 5.648785 0.000000 0.735114 0.677944 0.000000 0.168091 0.636719 1 0 1.0
Default
0 12.516566 5.648785 -0.192011 0.735114 0.677944 0.000000 0.168091 0.636719 1 0 1.0
0 9.426501 8.941437 -0.344690 0.729183 0.684319 0.000000 0.168091 0.636719 1 0 1.0
0 12.516566 5.648785 0.000000 0.735114 0.677944 0.000000 0.168091 0.636719 1 0 1.0
Default
0 12.516566 5.648785 -0.192011 0.735114 0.677944 0.000000 0.168091 0.636719 1 0 1.0
0 12.516566 5.648785 0.000000 0.735114 0.677944 0.000000 0.168091 0.636719 1 0 1.0
0 16.627444 1.112618 0.000000 0.740989 0.671517 0.000000 0.168091 0.636719 1 0 1.0
Default
0 16.627444 1.112618 -0.036816 0.740989 0.671517 0.000000 0.168091 0.636719 1 0 1.0
0 12.516566 5.648785 -0.192011 0.735114 0.677944 0.000000 0.168091 0.636719 1 0 1.0
0 16.627444 1.112618 0.000000 0.740989 0.671517 0.000000 0.168091 0.636719 1 0 1.0
Default
0 5.933813 8.289372 1.130880 0.074124 0.000000 0.997249 0.168091 0.636719 1 0 1.0
0 5.933813 -0.003889 1.130879 0.074124 0.000000 0.997249 0.168091 0.636719 1 0 1.0
0 9.426501 0.000615 0.871273 0.057887 0.000000 0.998323 0.168091 0.636719 1 0 1.0
Default
0 9.426501 6.725353 0.871273 0.057887 0.000000 0.998323 0.168091 0.636719 1 0 1.0
0 5.933813 8.289372 1.130880 0.074124 0.000000 0.997249 0.168091 0.636719 1 0 1.0
0 9.426501 0.000615 0.871273 0.057887 0.000000 0.998323 0.168091 0.636719 1 0 1.0
Default
0 9.426501 6.725353 0.871273 0.057887 0.000000 0.998323 0.168091 0.636719 1 0 1.0
0 9.426501 0.000615 0.871273 0.057887 0.000000 0.998323 0.168091 0.636719 1 0 1.0
0 12.522485 0.022460 0.742264 0.041634 0.000000 0.999133 0.168091 0.636719 1 0 1.0
Default
0 12.522485 3.422470 0.742264 0.041634 0.000000 0.999133 0.168091 0.636719 1 0 1.0
0 9.426501 6.725353 0.871273 0.057887 0.000000 0.998323 0.168091 0.636719 1 0 1.0
0 12.522485 0.022460 0.742264 0.041634 0.000000 0.999133 0.168091 0.636719 1 0 1.0
Default
0 5.933813 8.289372 1.130880 -0.000000 0.000000 1.000000 0.168091 0.636719 1 0 1.0
0 2.290140 8.865057 1.130880 -0.000000 0.000000 1.000000 0.168091 0.636719 1 0 1.0
0 5.933813 -0.003889 1.130879 -0.000000 0.000000 1.000000 0.168091 0.636719 1 0 1.0
Default
0 2.290140 8.865057 1.130880 -0.000000 0.000000 1.000000 0.168091 0.636719 1 0 1.0
0 2.290141 0.026969 1.130879 -0.000000 0.000000 1.000000 0.168091 0.636719 1 0 1.0
0 5.933813 -0.003889 1.130879 -0.000000 0.000000 1.000000 0.168091 0.636719 1 0 1.0
Default
0 2.290140 8.865057 1.130880 -0.000000 0.000000 1.000000 0.168091 0.636719 1 0 1.0
0 -1.273006 8.291384 1.130880 -0.000000 0.000000 1.000000 0.168091 0.636719 1 0 1.0
0 2.290141 0.026969 1.130879 -0.000000 0.000000 1.000000 0.168091 0.636719 1 0 1.0
Default
0 -1.273006 8.291384 1.130880 -0.000000 0.000000 1.000000 0.168091 0.636719 1 0 1.0
0 -1.273006 -0.056957 1.130879 -0.000000 0.000000 1.000000 0.168091 0.636719 1 0 1.0
0 2.290141 0.026969 1.130879 -0.000000 0.000000 1.000000 0.168091 0.636719 1 0 1.0
Default
0 -1.273006 8.291384 1.130880 -0.000000 0.000000 1.000000 0.168091 0.636719 1 0 1.0
0 -5.379695 5.335372 1.130880 -0.000000 0.000000 1.000000 0.168091 0.636719 1 0 1.0
0 -1.273006 -0.056957 1.130879 -0.000000 0.000000 1.000000 0.168091 0.636719 1 0 1.0
Default
0 -5.379695 5.335372 1.130880 -0.000000 0.000000 1.000000 0.168091 0.636719 1 0 1.0
0 -5.379695 -0.031509 1.130879 -0.000000 0.000000 1.000000 0.168091 0.636719 1 0 1.0
0 -1.273006 -0.056957 1.130879 -0.000000 0.000000 1.000000 0.168091 0.636719 1 0 1.0
Default
0 -8.761661 1.922834 0.611243 -0.151867 0.000000 0.988401 0.168091 0.636719 1 0 1.0
0 -8.761661 0.111732 0.611243 -0.151867 0.000000 0.988401 0.168091 0.636719 1 0 1.0
0 -5.379695 -0.031509 1.130879 -0.151867 0.000000 0.988401 0.168091 0.636719 1 0 1.0
Default
0 -5.379695 5.335372 1.130880 -0.151867 0.000000 0.988401 0.168091 0.636719 1 0 1.0
0 -8.761661 1.922834 0.611243 -0.151867 0.000000 0.988401 0.168091 0.636719 1 0 1.0
0 -5.379695 -0.031509 1.130879 -0.151867 0.000000 0.988401 0.168091 0.636719 1 0 1.0
Default
0 -11.086776 1.585428 0.122869 -0.994566 0.104111 0.000000 0.168091 0.636719 1 0 1.0
0 -10.823826 4.097363 0.122869 -0.994566 0.104111 0.000000 0.168091 0.636719 1 0 1.0
0 -11.086776 1.585428 0.000000 -0.994566 0.104111 0.000000 0.168091 0.636719 1 0 1.0
Default
0 -10.823826 4.097363 0.122869 -0.994566 0.104111 0.000000 0.168091 0.636719 1 0 1.0
0 -10.823826 4.097363 0.000001 -0.994566 0.104111 0.000000 0.168091 0.636719 1 0 1.0
0 -11.086776 1.585428 0.000000 -0.994566 0.104111 0.000000 0.168091 0.636719 1 0 1.0
Default
0 -10.823826 4.097363 0.000001 -0.994566 0.104111 0.000000 0.168091 0.636719 1 0 1.0
0 -10.823826 4.097364 -0.122868 -0.994566 0.104111 0.000000 0.168091 0.636719 1 0 1.0
0 -11.086776 1.585428 0.000000 -0.994566 0.104111 0.000000 0.168091 0.636719 1 0 1.0
Default
0 -10.823826 4.097364 -0.122868 -0.994566 0.104111 0.000000 0.168091 0.636719 1 0 1.0
0 -11.086776 1.585428 -0.122868 -0.994566 0.104111 0.000000 0.168091 0.636719 1 0 1.0
0 -11.086776 1.585428 0.000000 -0.994566 0.104111 0.000000 0.168091 0.636719 1 0 1.0
Default
0 -16.521225 -0.266710 0.248912 -0.001324 -0.000040 0.999999 0.168091 0.636719 1 0 1.0
0 -16.104286 -3.011112 0.248912 -0.001333 -0.000189 0.999999 0.168091 0.636719 1 0 1.0
0 -13.228615 -1.855930 0.253002 -0.001333 -0.000189 0.999999 0.168091 0.636719 1 0 1.0
Default
0 -13.411892 -0.365404 0.253002 -0.001324 -0.000040 0.999999 0.168091 0.636719 1 0 1.0
0 -16.521225 -0.266710 0.248912 -0.001324 -0.000040 0.999999 0.168091 0.636719 1 0 1.0
0 -13.228615 -1.855930 0.253002 -0.001333 -0.000189 0.999999 0.168091 0.636719 1 0 1.0
Default
0 -16.302516 2.283802 0.248911 -0.001315 0.000109 0.999999 0.168091 0.636719 1 0 1.0
0 -16.521225 -0.266710 0.248912 -0.001324 -0.000040 0.999999 0.168091 0.636719 1 0 1.0
0 -13.411892 -0.365404 0.253002 -0.001324 -0.000040 0.999999 0.168091 0.636719 1 0 1.0
Default
0 -13.254606 1.610321 0.253002 -0.001315 0.000109 0.999999 0.168091 0.636719 1 0 1.0
0 -16.302516 2.283802 0.248911 -0.001315 0.000109 0.999999 0.168091 0.636719 1 0 1.0
0 -13.411892 -0.365404 0.253002 -0.001324 -0.000040 0.999999 0.168091 0.636719 1 0 1.0
Default
0 -8.761661 0.111732 0.611243 -0.151867 0.000000 0.988401 0.166504 0.641602 1 0 1.0
0 -8.761661 -1.214583 0.611243 -0.151867 0.000000 0.988401 0.166504 0.641602 1 0 1.0
0 -5.379695 -5.101950 1.130879 -0.151867 0.000000 0.988401 0.166504 0.641602 1 0 1.0
Default
0 -5.379695 -0.031509 1.130879 -0.151867 0.000000 0.988401 0.166504 0.641602 1 0 1.0
0 -8.761661 0.111732 0.611243 -0.151867 0.000000 0.988401 0.166504 0.641602 1 0 1.0
0 -5.379695 -5.101950 1.130879 -0.151867 0.000000 0.988401 0.166504 0.641602 1 0 1.0
Default
0 -5.379695 -0.031509 1.130879 -0.000000 0.000000 1.000000 0.166504 0.641602 1 0 1.0
0 -5.379695 -5.101950 1.130879 -0.000000 0.000000 1.000000 0.166504 0.641602 1 0 1.0
0 -1.273006 -7.642569 1.130879 -0.000000 0.000000 1.000000 0.166504 0.641602 1 0 1.0
Default
0 -1.273006 -0.056957 1.130879 -0.000000 0.000000 1.000000 0.166504 0.641602 1 0 1.0
0 -5.379695 -0.031509 1.130879 -0.000000 0.000000 1.000000 0.166504 0.641602 1 0 1.0
0 -1.273006 -7.642569 1.130879 -0.000000 0.000000 1.000000 0.166504 0.641602 1 0 1.0
Default
0 -1.273006 -0.056957 1.130879 -0.000000 0.000000 1.000000 0.166504 0.641602 1 0 1.0
0 -1.273006 -7.642569 1.130879 -0.000000 0.000000 1.000000 0.166504 0.641602 1 0 1.0
0 2.290141 -8.465327 1.130879 -0.000000 0.000000 1.000000 0.166504 0.641602 1 0 1.0
Default
0 2.290141 0.026969 1.130879 -0.000000 0.000000 1.000000 0.166504 0.641602 1 0 1.0
0 -1.273006 -0.056957 1.130879 -0.000000 0.000000 1.000000 0.166504 0.641602 1 0 1.0
0 2.290141 -8.465327 1.130879 -0.000000 0.000000 1.000000 0.166504 0.641602 1 0 1.0
Default
0 2.290141 0.026969 1.130879 -0.000000 0.000000 1.000000 0.166504 0.641602 1 0 1.0
0 2.290141 -8.465327 1.130879 -0.000000 0.000000 1.000000 0.166504 0.641602 1 0 1.0
0 5.933813 -8.777389 1.130879 -0.000000 0.000000 1.000000 0.166504 0.641602 1 0 1.0
Default
0 5.933813 -0.003889 1.130879 -0.000000 0.000000 1.000000 0.166504 0.641602 1 0 1.0
0 2.290141 0.026969 1.130879 -0.000000 0.000000 1.000000 0.166504 0.641602 1 0 1.0
0 5.933813 -8.777389 1.130879 -0.000000 0.000000 1.000000 0.166504 0.641602 1 0 1.0
Default
0 5.933813 -0.003889 1.130879 0.074124 0.000000 0.997249 0.166504 0.641602 1 0 1.0
0 5.933813 -8.777389 1.130879 0.074124 0.000000 0.997249 0.166504 0.641602 1 0 1.0
0 9.426501 -8.014545 0.871273 0.057887 0.000000 0.998323 0.166504 0.641602 1 0 1.0
Default
0 9.426501 0.000615 0.871273 0.057887 0.000000 0.998323 0.166504 0.641602 1 0 1.0
0 5.933813 -0.003889 1.130879 0.074124 0.000000 0.997249 0.166504 0.641602 1 0 1.0
0 9.426501 -8.014545 0.871273 0.057887 0.000000 0.998323 0.166504 0.641602 1 0 1.0
Default
0 9.426501 0.000615 0.871273 0.057887 0.000000 0.998323 0.166504 0.641602 1 0 1.0
0 9.426501 -8.014545 0.871273 0.057887 0.000000 0.998323 0.166504 0.641602 1 0 1.0
0 12.522485 -5.693223 0.742263 0.041634 0.000000 0.999133 0.166504 0.641602 1 0 1.0
Default
0 12.522485 0.022460 0.742264 0.041634 0.000000 0.999133 0.166504 0.641602 1 0 1.0
0 9.426501 0.000615 0.871273 0.057887 0.000000 0.998323 0.166504 0.641602 1 0 1.0
0 12.522485 -5.693223 0.742263 0.041634 0.000000 0.999133 0.166504 0.641602 1 0 1.0
Default
0 16.627444 1.112618 0.000000 0.824549 -0.565791 0.000000 0.168091 0.636719 1 0 1.0
0 16.627444 1.112618 0.036817 0.824549 -0.565791 0.000000 0.168091 0.636719 1 0 1.0
0 15.538845 -0.473839 0.229970 0.824549 -0.565791 0.000000 0.168091 0.636719 1 0 1.0
Default
0 15.538845 -0.473839 0.229970 0.824549 -0.565791 0.000000 0.168091 0.636719 1 0 1.0
0 15.538845 -0.473839 0.000000 0.824549 -0.565791 0.000000 0.168091 0.636719 1 0 1.0
0 16.627444 1.112618 0.000000 0.824549 -0.565791 0.000000 0.168091 0.636719 1 0 1.0
Default
0 16.627444 1.112618 0.000000 0.824549 -0.565791 0.000000 0.168091 0.636719 1 0 1.0
0 15.538845 -0.473839 0.000000 0.824549 -0.565791 0.000000 0.168091 0.636719 1 0 1.0
0 15.538845 -0.473839 -0.229970 0.824549 -0.565791 0.000000 0.168091 0.636719 1 0 1.0
Default
0 15.538845 -0.473839 -0.229970 0.824549 -0.565791 0.000000 0.168091 0.636719 1 0 1.0
0 16.627444 1.112618 -0.036816 0.824549 -0.565791 0.000000 0.168091 0.636719 1 0 1.0
0 16.627444 1.112618 0.000000 0.824549 -0.565791 0.000000 0.168091 0.636719 1 0 1.0
Default
0 5.933813 10.498097 0.339141 0.407089 0.913388 0.000000 0.168091 0.636719 1 0 1.0
0 9.426501 8.941437 0.344691 0.407089 0.913388 0.000000 0.168091 0.636719 1 0 1.0
0 9.426501 8.941437 0.000001 0.407089 0.913388 0.000000 0.168091 0.636719 1 0 1.0
Default
0 5.933813 10.498097 0.000001 0.407089 0.913388 0.000000 0.168091 0.636719 1 0 1.0
0 5.933813 10.498097 0.339141 0.407089 0.913388 0.000000 0.168091 0.636719 1 0 1.0
0 9.426501 8.941437 0.000001 0.407089 0.913388 0.000000 0.168091 0.636719 1 0 1.0
Default
0 5.933813 10.498097 -0.339139 0.407089 0.913388 0.000000 0.168091 0.636719 1 0 1.0
0 5.933813 10.498097 0.000001 0.407089 0.913388 0.000000 0.168091 0.636719 1 0 1.0
0 9.426501 8.941437 0.000001 0.407089 0.913388 0.000000 0.168091 0.636719 1 0 1.0
Default
0 9.426501 8.941437 -0.344690 0.407089 0.913388 0.000000 0.168091 0.636719 1 0 1.0
0 5.933813 10.498097 -0.339139 0.407089 0.913388 0.000000 0.168091 0.636719 1 0 1.0
0 9.426501 8.941437 0.000001 0.407089 0.913388 0.000000 0.168091 0.636719 1 0 1.0
Default
0 2.290141 11.072644 0.339141 0.155759 0.987795 0.000000 0.168091 0.636719 1 0 1.0
0 5.933813 10.498097 0.339141 0.155759 0.987795 0.000000 0.168091 0.636719 1 0 1.0
0 5.933813 10.498097 0.000001 0.155759 0.987795 0.000000 0.168091 0.636719 1 0 1.0
Default
0 2.290141 11.072644 0.000001 0.155759 0.987795 0.000000 0.168091 0.636719 1 0 1.0
0 2.290141 11.072644 0.339141 0.155759 0.987795 0.000000 0.168091 0.636719 1 0 1.0
0 5.933813 10.498097 0.000001 0.155759 0.987795 0.000000 0.168091 0.636719 1 0 1.0
Default
0 2.290141 11.072644 -0.339139 0.155759 0.987795 0.000000 0.168091 0.636719 1 0 1.0
0 2.290141 11.072644 0.000001 0.155759 0.987795 0.000000 0.168091 0.636719 1 0 1.0
0 5.933813 10.498097 0.000001 0.155759 0.987795 0.000000 0.168091 0.636719 1 0 1.0
Default
0 5.933813 10.498097 -0.339139 0.155759 0.987795 0.000000 0.168091 0.636719 1 0 1.0
0 2.290141 11.072644 -0.339139 0.155759 0.987795 0.000000 0.168091 0.636719 1 0 1.0
0 5.933813 10.498097 0.000001 0.155759 0.987795 0.000000 0.168091 0.636719 1 0 1.0
Default
0 -1.273006 10.912676 0.339141 -0.044850 0.998994 0.000000 0.168091 0.636719 1 0 1.0
0 2.290141 11.072644 0.339141 -0.044850 0.998994 0.000000 0.168091 0.636719 1 0 1.0
0 2.290141 11.072644 0.000001 -0.044850 0.998994 0.000000 0.168091 0.636719 1 0 1.0
Default
0 -1.273006 10.912676 0.000001 -0.044850 0.998994 0.000000 0.168091 0.636719 1 0 1.0
0 -1.273006 10.912676 0.339141 -0.044850 0.998994 0.000000 0.168091 0.636719 1 0 1.0
0 2.290141 11.072644 0.000001 -0.044850 0.998994 0.000000 0.168091 0.636719 1 0 1.0
Default
0 -1.273006 10.912676 -0.339139 -0.044850 0.998994 0.000000 0.168091 0.636719 1 0 1.0
0 -1.273006 10.912676 0.000001 -0.044850 0.998994 0.000000 0.168091 0.636719 1 0 1.0
0 2.290141 11.072644 0.000001 -0.044850 0.998994 0.000000 0.168091 0.636719 1 0 1.0
Default
0 2.290141 11.072644 -0.339139 -0.044850 0.998994 0.000000 0.168091 0.636719 1 0 1.0
0 -1.273006 10.912676 -0.339139 -0.044850 0.998994 0.000000 0.168091 0.636719 1 0 1.0
0 2.290141 11.072644 0.000001 -0.044850 0.998994 0.000000 0.168091 0.636719 1 0 1.0
Default
0 -3.301013 10.648992 0.000001 -0.128936 0.991653 0.000000 0.168091 0.636719 1 0 1.0
0 -3.301014 10.648992 0.227616 -0.128936 0.991653 0.000000 0.168091 0.636719 1 0 1.0
0 -1.273006 10.912676 0.339141 -0.128936 0.991653 0.000000 0.168091 0.636719 1 0 1.0
Default
0 -1.273006 10.912676 0.000001 -0.128936 0.991653 0.000000 0.168091 0.636719 1 0 1.0
0 -3.301013 10.648992 0.000001 -0.128936 0.991653 0.000000 0.168091 0.636719 1 0 1.0
0 -1.273006 10.912676 0.339141 -0.128936 0.991653 0.000000 0.168091 0.636719 1 0 1.0
Default
0 -3.301013 10.648992 0.000001 -0.128936 0.991653 0.000000 0.168091 0.636719 1 0 1.0
0 -1.273006 10.912676 0.000001 -0.128936 0.991653 0.000000 0.168091 0.636719 1 0 1.0
0 -1.273006 10.912676 -0.339139 -0.128936 0.991653 0.000000 0.168091 0.636719 1 0 1.0
Default
0 -3.301014 10.648992 -0.227615 -0.128936 0.991653 0.000000 0.168091 0.636719 1 0 1.0
0 -3.301013 10.648992 0.000001 -0.128936 0.991653 0.000000 0.168091 0.636719 1 0 1.0
0 -1.273006 10.912676 -0.339139 -0.128936 0.991653 0.000000 0.168091 0.636719 1 0 1.0
Default
0 -13.336857 2.287533 0.091054 0.297871 0.954606 0.000000 0.168091 0.636719 1 0 1.0
0 -11.086776 1.585428 0.122869 0.297871 0.954606 0.000000 0.168091 0.636719 1 0 1.0
0 -11.086776 1.585428 0.000000 0.297871 0.954606 0.000000 0.168091 0.636719 1 0 1.0
Default
0 -13.336857 2.287533 0.000000 0.297871 0.954606 0.000000 0.168091 0.636719 1 0 1.0
0 -13.336857 2.287533 0.091054 0.297871 0.954606 0.000000 0.168091 0.636719 1 0 1.0
0 -11.086776 1.585428 0.000000 0.297871 0.954606 0.000000 0.168091 0.636719 1 0 1.0
Default
0 -13.336857 2.287533 -0.091054 0.297871 0.954606 0.000000 0.168091 0.636719 1 0 1.0
0 -13.336857 2.287533 0.000000 0.297871 0.954606 0.000000 0.168091 0.636719 1 0 1.0
0 -11.086776 1.585428 0.000000 0.297871 0.954606 0.000000 0.168091 0.636719 1 0 1.0
Default
0 -11.086776 1.585428 -0.122868 0.297871 0.954606 0.000000 0.168091 0.636719 1 0 1.0
0 -13.336857 2.287533 -0.091054 0.297871 0.954606 0.000000 0.168091 0.636719 1 0 1.0
0 -11.086776 1.585428 0.000000 0.297871 0.954606 0.000000 0.168091 0.636719 1 0 1.0
Default
0 -13.411892 -0.365404 0.253002 -0.069978 -0.001415 0.997547 0.168091 0.636719 1 0 1.0
0 -13.228615 -1.855930 0.253002 -0.069473 -0.008380 0.997549 0.168091 0.636719 1 0 1.0
0 -11.086776 -0.216938 0.416180 -0.076539 -0.004190 0.997058 0.168091 0.636719 1 0 1.0
Default
0 -11.086776 -0.188103 0.416180 -0.076791 -0.000708 0.997047 0.168091 0.636719 1 0 1.0
0 -13.411892 -0.365404 0.253002 -0.069978 -0.001415 0.997547 0.168091 0.636719 1 0 1.0
0 -11.086776 -0.216938 0.416180 -0.076539 -0.004190 0.997058 0.168091 0.636719 1 0 1.0
Default
0 -13.254606 1.610321 0.253002 -0.070480 0.005550 0.997498 0.168091 0.636719 1 0 1.0
0 -13.411892 -0.365404 0.253002 -0.069978 -0.001415 0.997547 0.168091 0.636719 1 0 1.0
0 -11.086776 -0.188103 0.416180 -0.076791 -0.000708 0.997047 0.168091 0.636719 1 0 1.0
Default
0 -11.086776 -0.166483 0.416180 -0.077042 0.002775 0.997024 0.168091 0.636719 1 0 1.0
0 -13.254606 1.610321 0.253002 -0.070480 0.005550 0.997498 0.168091 0.636719 1 0 1.0
0 -11.086776 -0.188103 0.416180 -0.076791 -0.000708 0.997047 0.168091 0.636719 1 0 1.0
Default
0 -11.086776 -0.166483 0.416180 -0.077042 0.002775 0.997024 0.168091 0.636719 1 0 1.0
0 -11.086776 -0.188103 0.416180 -0.076791 -0.000708 0.997047 0.168091 0.636719 1 0 1.0
0 -8.761661 0.111732 0.611243 -0.083600 0.000000 0.996499 0.168091 0.636719 1 0 1.0
Default
0 -8.761661 1.922834 0.611243 -0.083600 0.000000 0.996499 0.168091 0.636719 1 0 1.0
0 -11.086776 -0.166483 0.416180 -0.077042 0.002775 0.997024 0.168091 0.636719 1 0 1.0
0 -8.761661 0.111732 0.611243 -0.083600 0.000000 0.996499 0.168091 0.636719 1 0 1.0
Default
0 -6.749681 -8.347171 0.076325 -0.065627 -0.108248 0.991955 0.173096 0.608887 1 0 1.0
0 -2.329873 -10.978887 0.076325 -0.065627 -0.108248 0.991955 0.173096 0.608887 1 0 1.0
0 -1.273006 -9.874682 0.271966 -0.065627 -0.108248 0.991955 0.173096 0.608887 1 0 1.0
Default
0 -5.379695 -7.337105 0.271966 -0.065627 -0.108248 0.991955 0.173096 0.608887 1 0 1.0
0 -6.749681 -8.347171 0.076325 -0.065627 -0.108248 0.991955 0.173096 0.608887 1 0 1.0
0 -1.273006 -9.874682 0.271966 -0.065627 -0.108248 0.991955 0.173096 0.608887 1 0 1.0
Default
0 -8.883285 -5.693216 0.050942 -0.104449 -0.079731 0.991329 0.173096 0.608887 1 0 1.0
0 -6.749681 -8.347171 0.076325 -0.065627 -0.108248 0.991955 0.173096 0.608887 1 0 1.0
0 -5.379695 -7.337105 0.271966 -0.065627 -0.108248 0.991955 0.173096 0.608887 1 0 1.0
Default
0 -8.761661 -3.453905 0.246582 -0.104449 -0.079731 0.991329 0.173096 0.608887 1 0 1.0
0 -8.883285 -5.693216 0.050942 -0.104449 -0.079731 0.991329 0.173096 0.608887 1 0 1.0
0 -5.379695 -7.337105 0.271966 -0.065627 -0.108248 0.991955 0.173096 0.608887 1 0 1.0
Default
0 -10.363255 -4.232306 0.000000 -0.111245 -0.084776 0.990171 0.173096 0.608887 1 0 1.0
0 -8.883285 -5.693216 0.050942 -0.104449 -0.079731 0.991329 0.173096 0.608887 1 0 1.0
0 -8.761661 -3.453905 0.246582 -0.104449 -0.079731 0.991329 0.173096 0.608887 1 0 1.0
Default
0 -11.086776 -1.961633 0.122869 -0.111245 -0.084776 0.990171 0.173096 0.608887 1 0 1.0
0 -10.363255 -4.232306 0.000000 -0.111245 -0.084776 0.990171 0.173096 0.608887 1 0 1.0
0 -8.761661 -3.453905 0.246582 -0.104449 -0.079731 0.991329 0.173096 0.608887 1 0 1.0
Default
0 -11.086776 -0.188103 0.416180 -0.076791 -0.000708 0.997047 0.166504 0.641602 1 0 1.0
0 -11.086776 -0.216938 0.416180 -0.076539 -0.004190 0.997058 0.166504 0.641602 1 0 1.0
0 -8.761661 -1.214583 0.611243 -0.083600 0.000000 0.996499 0.166504 0.641602 1 0 1.0
Default
0 -8.761661 0.111732 0.611243 -0.083600 0.000000 0.996499 0.166504 0.641602 1 0 1.0
0 -11.086776 -0.188103 0.416180 -0.076791 -0.000708 0.997047 0.166504 0.641602 1 0 1.0
0 -8.761661 -1.214583 0.611243 -0.083600 0.000000 0.996499 0.166504 0.641602 1 0 1.0
Default
0 -11.086776 -1.961633 0.000000 -0.952800 -0.303598 0.000000 0.174683 0.604492 1 0 1.0
0 -10.363255 -4.232306 0.000000 -0.952800 -0.303598 0.000000 0.174683 0.604492 1 0 1.0
0 -11.086776 -1.961633 0.122869 -0.952800 -0.303598 0.000000 0.174683 0.604492 1 0 1.0
Default
0 -10.363255 -4.232306 0.000000 -0.952800 -0.303598 0.000000 0.174683 0.604492 1 0 1.0
0 -11.086776 -1.961633 0.000000 -0.952800 -0.303598 0.000000 0.174683 0.604492 1 0 1.0
0 -11.086776 -1.961633 -0.122869 -0.952800 -0.303598 0.000000 0.174683 0.604492 1 0 1.0
Default
0 -2.329873 -10.978887 0.076325 -0.058001 -0.158052 0.985726 0.173096 0.608887 1 0 1.0
0 -0.191859 -11.072644 0.143499 -0.058001 -0.158052 0.985726 0.173096 0.608887 1 0 1.0
0 2.290141 -11.035200 0.339140 -0.058001 -0.158052 0.985726 0.173096 0.608887 1 0 1.0
Default
0 -1.273006 -9.874682 0.271966 -0.058001 -0.158052 0.985726 0.173096 0.608887 1 0 1.0
0 -2.329873 -10.978887 0.076325 -0.058001 -0.158052 0.985726 0.173096 0.608887 1 0 1.0
0 2.290141 -11.035200 0.339140 -0.058001 -0.158052 0.985726 0.173096 0.608887 1 0 1.0
Default
0 9.426501 -10.245852 0.344690 0.213114 -0.977027 0.000000 0.166504 0.641602 1 0 1.0
0 5.933813 -11.007693 0.339140 0.213114 -0.977027 0.000000 0.166504 0.641602 1 0 1.0
0 5.933813 -11.007693 -0.000000 0.213114 -0.977027 0.000000 0.166504 0.641602 1 0 1.0
Default
0 9.426501 -10.245852 -0.000000 0.213114 -0.977027 0.000000 0.166504 0.641602 1 0 1.0
0 9.426501 -10.245852 0.344690 0.213114 -0.977027 0.000000 0.166504 0.641602 1 0 1.0
0 5.933813 -11.007693 -0.000000 0.213114 -0.977027 0.000000 0.166504 0.641602 1 0 1.0
Default
0 9.426501 -10.245852 -0.344691 0.213114 -0.977027 0.000000 0.166504 0.641602 1 0 1.0
0 9.426501 -10.245852 -0.000000 0.213114 -0.977027 0.000000 0.166504 0.641602 1 0 1.0
0 5.933813 -11.007693 -0.000000 0.213114 -0.977027 0.000000 0.166504 0.641602 1 0 1.0
Default
0 5.933813 -11.007693 -0.339140 0.213114 -0.977027 0.000000 0.166504 0.641602 1 0 1.0
0 9.426501 -10.245852 -0.344691 0.213114 -0.977027 0.000000 0.166504 0.641602 1 0 1.0
0 5.933813 -11.007693 -0.000000 0.213114 -0.977027 0.000000 0.166504 0.641602 1 0 1.0
Default
0 12.516566 -7.926010 0.192012 0.600380 -0.799715 0.000000 0.166504 0.641602 1 0 1.0
0 9.426501 -10.245852 0.344690 0.600380 -0.799715 0.000000 0.166504 0.641602 1 0 1.0
0 9.426501 -10.245852 -0.000000 0.600380 -0.799715 0.000000 0.166504 0.641602 1 0 1.0
Default
0 12.516566 -7.926010 -0.000000 0.600380 -0.799715 0.000000 0.166504 0.641602 1 0 1.0
0 12.516566 -7.926010 0.192012 0.600380 -0.799715 0.000000 0.166504 0.641602 1 0 1.0
0 9.426501 -10.245852 -0.000000 0.600380 -0.799715 0.000000 0.166504 0.641602 1 0 1.0
Default
0 12.516566 -7.926010 -0.192013 0.600380 -0.799715 0.000000 0.166504 0.641602 1 0 1.0
0 12.516566 -7.926010 -0.000000 0.600380 -0.799715 0.000000 0.166504 0.641602 1 0 1.0
0 9.426501 -10.245852 -0.000000 0.600380 -0.799715 0.000000 0.166504 0.641602 1 0 1.0
Default
0 9.426501 -10.245852 -0.344691 0.600380 -0.799715 0.000000 0.166504 0.641602 1 0 1.0
0 12.516566 -7.926010 -0.192013 0.600380 -0.799715 0.000000 0.166504 0.641602 1 0 1.0
0 9.426501 -10.245852 -0.000000 0.600380 -0.799715 0.000000 0.166504 0.641602 1 0 1.0
Default
0 15.787188 -3.328890 0.142353 0.814825 -0.579707 0.000000 0.166504 0.641602 1 0 1.0
0 12.516566 -7.926010 0.192012 0.814825 -0.579707 0.000000 0.166504 0.641602 1 0 1.0
0 12.516566 -7.926010 -0.000000 0.814825 -0.579707 0.000000 0.166504 0.641602 1 0 1.0
Default
0 15.787188 -3.328890 0.000000 0.814825 -0.579707 0.000000 0.166504 0.641602 1 0 1.0
0 15.787188 -3.328890 0.142353 0.814825 -0.579707 0.000000 0.166504 0.641602 1 0 1.0
0 12.516566 -7.926010 -0.000000 0.814825 -0.579707 0.000000 0.166504 0.641602 1 0 1.0
Default
0 15.787188 -3.328890 -0.142353 0.814825 -0.579707 0.000000 0.166504 0.641602 1 0 1.0
0 15.787188 -3.328890 0.000000 0.814825 -0.579707 0.000000 0.166504 0.641602 1 0 1.0
0 12.516566 -7.926010 -0.000000 0.814825 -0.579707 0.000000 0.166504 0.641602 1 0 1.0
Default
0 12.516566 -7.926010 -0.192013 0.814825 -0.579707 0.000000 0.166504 0.641602 1 0 1.0
0 15.787188 -3.328890 -0.142353 0.814825 -0.579707 0.000000 0.166504 0.641602 1 0 1.0
0 12.516566 -7.926010 -0.000000 0.814825 -0.579707 0.000000 0.166504 0.641602 1 0 1.0
Default
0 12.522485 0.022460 0.742264 0.167441 0.000000 0.985882 0.166504 0.641602 1 0 1.0
0 12.522485 -5.693223 0.742263 0.178846 -0.006790 0.983854 0.166504 0.641602 1 0 1.0
0 15.538845 -0.473839 0.229970 0.175047 -0.004527 0.984550 0.166504 0.641602 1 0 1.0
Default
0 15.538845 -0.473839 0.229970 0.175047 -0.004527 0.984550 0.166504 0.641602 1 0 1.0
0 12.522485 -5.693223 0.742263 0.178846 -0.006790 0.983854 0.166504 0.641602 1 0 1.0
0 15.787188 -3.328890 0.142353 0.190219 -0.013580 0.981648 0.166504 0.641602 1 0 1.0
Default
0 -13.185468 -2.518773 0.091055 0.351464 -0.936202 0.000000 0.168091 0.636719 1 0 1.0
0 -16.443232 -3.741785 0.101660 0.351464 -0.936202 0.000000 0.168091 0.636719 1 0 1.0
0 -16.443232 -3.741785 0.000000 0.351464 -0.936202 0.000000 0.168091 0.636719 1 0 1.0
Default
0 -13.185468 -2.518773 0.000000 0.351464 -0.936202 0.000000 0.168091 0.636719 1 0 1.0
0 -13.185468 -2.518773 0.091055 0.351464 -0.936202 0.000000 0.168091 0.636719 1 0 1.0
0 -16.443232 -3.741785 0.000000 0.351464 -0.936202 0.000000 0.168091 0.636719 1 0 1.0
Default
0 -13.185468 -2.518773 -0.091055 0.351464 -0.936202 0.000000 0.168091 0.636719 1 0 1.0
0 -13.185468 -2.518773 0.000000 0.351464 -0.936202 0.000000 0.168091 0.636719 1 0 1.0
0 -16.443232 -3.741785 0.000000 0.351464 -0.936202 0.000000 0.168091 0.636719 1 0 1.0
Default
0 -16.443232 -3.741785 -0.101660 0.351464 -0.936202 0.000000 0.168091 0.636719 1 0 1.0
0 -13.185468 -2.518773 -0.091055 0.351464 -0.936202 0.000000 0.168091 0.636719 1 0 1.0
0 -16.443232 -3.741785 0.000000 0.351464 -0.936202 0.000000 0.168091 0.636719 1 0 1.0
Default
0 -16.755579 3.078107 0.101659 -0.234963 0.026313 0.971648 0.168091 0.636719 1 0 1.0
0 -17.216356 -0.438822 0.101660 -0.234963 0.026313 0.971648 0.168091 0.636719 1 0 1.0
0 -16.521225 -0.266710 0.248912 -0.234963 0.026313 0.971648 0.168091 0.636719 1 0 1.0
Default
0 -16.302516 2.283802 0.248911 -0.234963 0.026313 0.971648 0.168091 0.636719 1 0 1.0
0 -16.755579 3.078107 0.101659 -0.234963 0.026313 0.971648 0.168091 0.636719 1 0 1.0
0 -16.521225 -0.266710 0.248912 -0.234963 0.026313 0.971648 0.168091 0.636719 1 0 1.0
Default
0 -16.755579 3.078107 0.101659 0.051531 0.223279 0.973392 0.168091 0.636719 1 0 1.0
0 -16.302516 2.283802 0.248911 0.051531 0.223279 0.973392 0.168091 0.636719 1 0 1.0
0 -13.336857 2.287533 0.091054 0.056278 0.204609 0.977225 0.168091 0.636719 1 0 1.0
Default
0 -16.302516 2.283802 0.248911 0.051531 0.223279 0.973392 0.168091 0.636719 1 0 1.0
0 -13.254606 1.610321 0.253002 0.056278 0.204609 0.977225 0.168091 0.636719 1 0 1.0
0 -13.336857 2.287533 0.091054 0.056278 0.204609 0.977225 0.168091 0.636719 1 0 1.0
Default
0 -13.336857 2.287533 0.091054 0.056278 0.204609 0.977225 0.168091 0.636719 1 0 1.0
0 -13.254606 1.610321 0.253002 0.056278 0.204609 0.977225 0.168091 0.636719 1 0 1.0
0 -11.086776 1.585428 0.122869 0.061003 0.185861 0.980680 0.168091 0.636719 1 0 1.0
Default
0 -13.254606 1.610321 0.253002 0.056278 0.204609 0.977225 0.168091 0.636719 1 0 1.0
0 -11.086776 -0.166483 0.416180 0.061003 0.185861 0.980680 0.168091 0.636719 1 0 1.0
0 -11.086776 1.585428 0.122869 0.061003 0.185861 0.980680 0.168091 0.636719 1 0 1.0
Default
0 -13.228615 -1.855930 0.253002 0.091854 -0.234244 0.967829 0.168091 0.636719 1 0 1.0
0 -16.104286 -3.011112 0.248912 0.091854 -0.234244 0.967829 0.168091 0.636719 1 0 1.0
0 -16.443232 -3.741785 0.101660 0.091854 -0.234244 0.967829 0.168091 0.636719 1 0 1.0
Default
0 -13.185468 -2.518773 0.091055 0.091854 -0.234244 0.967829 0.168091 0.636719 1 0 1.0
0 -13.228615 -1.855930 0.253002 0.091854 -0.234244 0.967829 0.168091 0.636719 1 0 1.0
0 -16.443232 -3.741785 0.101660 0.091854 -0.234244 0.967829 0.168091 0.636719 1 0 1.0
Default
0 -8.761661 -1.214583 0.611243 -0.153057 -0.161026 0.975010 0.166504 0.641602 1 0 1.0
0 -11.086776 -0.216938 0.416180 -0.153057 -0.161026 0.975010 0.166504 0.641602 1 0 1.0
0 -11.086776 -1.961633 0.122869 -0.153057 -0.161026 0.975010 0.166504 0.641602 1 0 1.0
Default
0 -8.761661 -3.453905 0.246582 -0.153057 -0.161026 0.975010 0.166504 0.641602 1 0 1.0
0 -8.761661 -1.214583 0.611243 -0.153057 -0.161026 0.975010 0.166504 0.641602 1 0 1.0
0 -11.086776 -1.961633 0.122869 -0.153057 -0.161026 0.975010 0.166504 0.641602 1 0 1.0
Default
0 -5.379695 -5.101950 1.130879 -0.355831 -0.246508 0.901453 0.166504 0.641602 1 0 1.0
0 -8.761661 -1.214583 0.611243 -0.355831 -0.246508 0.901453 0.166504 0.641602 1 0 1.0
0 -8.761661 -3.453905 0.246582 -0.355831 -0.246508 0.901453 0.166504 0.641602 1 0 1.0
Default
0 -5.379695 -7.337105 0.271966 -0.355831 -0.246508 0.901453 0.166504 0.641602 1 0 1.0
0 -5.379695 -5.101950 1.130879 -0.355831 -0.246508 0.901453 0.166504 0.641602 1 0 1.0
0 -8.761661 -3.453905 0.246582 -0.355831 -0.246508 0.901453 0.166504 0.641602 1 0 1.0
Default
0 -1.273006 -7.642569 1.130879 -0.216641 -0.350391 0.911204 0.166504 0.641602 1 0 1.0
0 -5.379695 -5.101950 1.130879 -0.216641 -0.350391 0.911204 0.166504 0.641602 1 0 1.0
0 -5.379695 -7.337105 0.271966 -0.216641 -0.350391 0.911204 0.166504 0.641602 1 0 1.0
Default
0 -1.273006 -9.874682 0.271966 -0.216641 -0.350391 0.911204 0.166504 0.641602 1 0 1.0
0 -1.273006 -7.642569 1.130879 -0.216641 -0.350391 0.911204 0.166504 0.641602 1 0 1.0
0 -5.379695 -7.337105 0.271966 -0.216641 -0.350391 0.911204 0.166504 0.641602 1 0 1.0
Default
0 2.290141 -8.465327 1.130879 -0.098897 -0.323481 0.941052 0.166504 0.641602 1 0 1.0
0 -1.273006 -7.642569 1.130879 -0.098897 -0.323481 0.941052 0.166504 0.641602 1 0 1.0
0 -1.273006 -9.874682 0.271966 -0.098897 -0.323481 0.941052 0.166504 0.641602 1 0 1.0
Default
0 2.290141 -11.035200 0.339140 -0.098897 -0.323481 0.941052 0.166504 0.641602 1 0 1.0
0 2.290141 -8.465327 1.130879 -0.098897 -0.323481 0.941052 0.166504 0.641602 1 0 1.0
0 -1.273006 -9.874682 0.271966 -0.098897 -0.323481 0.941052 0.166504 0.641602 1 0 1.0
Default
0 5.933813 -8.777389 1.130879 -0.012232 -0.313251 0.949592 0.166504 0.641602 1 0 1.0
0 2.290141 -8.465327 1.130879 -0.012232 -0.313251 0.949592 0.166504 0.641602 1 0 1.0
0 2.290141 -11.035200 0.339140 -0.012232 -0.313251 0.949592 0.166504 0.641602 1 0 1.0
Default
0 5.933813 -11.007693 0.339140 -0.012232 -0.313251 0.949592 0.166504 0.641602 1 0 1.0
0 5.933813 -8.777389 1.130879 -0.012232 -0.313251 0.949592 0.166504 0.641602 1 0 1.0
0 2.290141 -11.035200 0.339140 -0.012232 -0.313251 0.949592 0.166504 0.641602 1 0 1.0
Default
0 9.426501 -8.014545 0.871273 0.096280 -0.282053 0.954556 0.166504 0.641602 1 0 1.0
0 5.933813 -8.777389 1.130879 0.096280 -0.282053 0.954556 0.166504 0.641602 1 0 1.0
0 5.933813 -11.007693 0.339140 0.096280 -0.282053 0.954556 0.166504 0.641602 1 0 1.0
Default
0 9.426501 -10.245852 0.344690 0.096280 -0.282053 0.954556 0.166504 0.641602 1 0 1.0
0 9.426501 -8.014545 0.871273 0.096280 -0.282053 0.954556 0.166504 0.641602 1 0 1.0
0 5.933813 -11.007693 0.339140 0.096280 -0.282053 0.954556 0.166504 0.641602 1 0 1.0
Default
0 12.522485 -5.693223 0.742263 0.215238 -0.229269 0.949267 0.166504 0.641602 1 0 1.0
0 9.426501 -8.014545 0.871273 0.215238 -0.229269 0.949267 0.166504 0.641602 1 0 1.0
0 9.426501 -10.245852 0.344690 0.215238 -0.229269 0.949267 0.166504 0.641602 1 0 1.0
Default
0 12.516566 -7.926010 0.192012 0.215238 -0.229269 0.949267 0.166504 0.641602 1 0 1.0
0 12.522485 -5.693223 0.742263 0.215238 -0.229269 0.949267 0.166504 0.641602 1 0 1.0
0 9.426501 -10.245852 0.344690 0.215238 -0.229269 0.949267 0.166504 0.641602 1 0 1.0
Default
0 12.522485 3.422470 0.742264 0.234171 0.121573 0.964564 0.168091 0.636719 1 0 1.0
0 15.538845 -0.473839 0.229970 0.234171 0.121573 0.964564 0.168091 0.636719 1 0 1.0
0 16.627444 1.112618 0.036817 0.234171 0.121573 0.964564 0.168091 0.636719 1 0 1.0
Default
0 12.516566 5.648786 0.192013 0.234171 0.121573 0.964564 0.168091 0.636719 1 0 1.0
0 12.522485 3.422470 0.742264 0.234171 0.121573 0.964564 0.168091 0.636719 1 0 1.0
0 16.627444 1.112618 0.036817 0.234171 0.121573 0.964564 0.168091 0.636719 1 0 1.0
Default
0 9.426501 6.725353 0.871273 0.283667 0.226257 0.931848 0.168091 0.636719 1 0 1.0
0 12.522485 3.422470 0.742264 0.283667 0.226257 0.931848 0.168091 0.636719 1 0 1.0
0 12.516566 5.648786 0.192013 0.283667 0.226257 0.931848 0.168091 0.636719 1 0 1.0
Default
0 9.426501 8.941437 0.344691 0.283667 0.226257 0.931848 0.168091 0.636719 1 0 1.0
0 9.426501 6.725353 0.871273 0.283667 0.226257 0.931848 0.168091 0.636719 1 0 1.0
0 12.516566 5.648786 0.192013 0.283667 0.226257 0.931848 0.168091 0.636719 1 0 1.0
Default
0 5.933813 8.289372 1.130880 0.160316 0.281842 0.945973 0.168091 0.636719 1 0 1.0
0 9.426501 6.725353 0.871273 0.160316 0.281842 0.945973 0.168091 0.636719 1 0 1.0
0 9.426501 8.941437 0.344691 0.160316 0.281842 0.945973 0.168091 0.636719 1 0 1.0
Default
0 5.933813 10.498097 0.339141 0.160316 0.281842 0.945973 0.168091 0.636719 1 0 1.0
0 5.933813 8.289372 1.130880 0.160316 0.281842 0.945973 0.168091 0.636719 1 0 1.0
0 9.426501 8.941437 0.344691 0.160316 0.281842 0.945973 0.168091 0.636719 1 0 1.0
Default
0 2.290140 8.865057 1.130880 0.053197 0.337035 0.939988 0.168091 0.636719 1 0 1.0
0 5.933813 8.289372 1.130880 0.053197 0.337035 0.939988 0.168091 0.636719 1 0 1.0
0 5.933813 10.498097 0.339141 0.053197 0.337035 0.939988 0.168091 0.636719 1 0 1.0
Default
0 2.290141 11.072644 0.339141 0.053197 0.337035 0.939988 0.168091 0.636719 1 0 1.0
0 2.290140 8.865057 1.130880 0.053197 0.337035 0.939988 0.168091 0.636719 1 0 1.0
0 5.933813 10.498097 0.339141 0.053197 0.337035 0.939988 0.168091 0.636719 1 0 1.0
Default
0 -1.273006 8.291384 1.130880 -0.032062 0.311433 0.949727 0.168091 0.636719 1 0 1.0
0 2.290140 8.865057 1.130880 -0.032062 0.311433 0.949727 0.168091 0.636719 1 0 1.0
0 2.290141 11.072644 0.339141 -0.032062 0.311433 0.949727 0.168091 0.636719 1 0 1.0
Default
0 -1.273006 10.912676 0.339141 -0.032062 0.311433 0.949727 0.168091 0.636719 1 0 1.0
0 -1.273006 8.291384 1.130880 -0.032062 0.311433 0.949727 0.168091 0.636719 1 0 1.0
0 2.290141 11.072644 0.339141 -0.032062 0.311433 0.949727 0.168091 0.636719 1 0 1.0
Default
0 -5.379695 5.335372 1.130880 -0.231945 0.302046 0.924646 0.168091 0.636719 1 0 1.0
0 -1.273006 8.291384 1.130880 -0.231945 0.302046 0.924646 0.168091 0.636719 1 0 1.0
0 -1.273006 10.912676 0.339141 -0.231945 0.302046 0.924646 0.168091 0.636719 1 0 1.0
Default
0 -5.379695 7.561533 0.339141 -0.231945 0.302046 0.924646 0.168091 0.636719 1 0 1.0
0 -5.379695 5.335372 1.130880 -0.231945 0.302046 0.924646 0.168091 0.636719 1 0 1.0
0 -1.273006 10.912676 0.339141 -0.231945 0.302046 0.924646 0.168091 0.636719 1 0 1.0
Default
0 -8.761661 1.922834 0.611243 -0.302027 0.225842 0.926162 0.168091 0.636719 1 0 1.0
0 -5.379695 5.335372 1.130880 -0.302027 0.225842 0.926162 0.168091 0.636719 1 0 1.0
0 -5.379695 7.561533 0.339141 -0.302027 0.225842 0.926162 0.168091 0.636719 1 0 1.0
Default
0 -8.761661 4.163506 0.313757 -0.302027 0.225842 0.926162 0.168091 0.636719 1 0 1.0
0 -8.761661 1.922834 0.611243 -0.302027 0.225842 0.926162 0.168091 0.636719 1 0 1.0
0 -5.379695 7.561533 0.339141 -0.302027 0.225842 0.926162 0.168091 0.636719 1 0 1.0
Default
0 -11.086776 -0.216938 0.416180 0.050518 -0.184693 0.981497 0.168091 0.636719 1 0 1.0
0 -13.228615 -1.855930 0.253002 0.050518 -0.184693 0.981497 0.168091 0.636719 1 0 1.0
0 -13.185468 -2.518773 0.091055 0.050518 -0.184693 0.981497 0.168091 0.636719 1 0 1.0
Default
0 -11.086776 -1.961633 0.122869 0.050518 -0.184693 0.981497 0.168091 0.636719 1 0 1.0
0 -11.086776 -0.216938 0.416180 0.050518 -0.184693 0.981497 0.168091 0.636719 1 0 1.0
0 -13.185468 -2.518773 0.091055 0.050518 -0.184693 0.981497 0.168091 0.636719 1 0 1.0
Default
0 -11.086776 -0.166483 0.416180 -0.223242 0.142685 0.964263 0.168091 0.636719 1 0 1.0
0 -8.761661 1.922834 0.611243 -0.223242 0.142685 0.964263 0.168091 0.636719 1 0 1.0
0 -8.761661 4.163506 0.313757 -0.223242 0.142685 0.964263 0.168091 0.636719 1 0 1.0
Default
0 -11.086776 1.585428 0.122869 -0.223242 0.142685 0.964263 0.168091 0.636719 1 0 1.0
0 -11.086776 -0.166483 0.416180 -0.223242 0.142685 0.964263 0.168091 0.636719 1 0 1.0
0 -8.761661 4.163506 0.313757 -0.223242 0.142685 0.964263 0.168091 0.636719 1 0 1.0
Default
0 -17.216356 -0.438822 0.101660 -0.235914 -0.046425 0.970664 0.168091 0.636719 1 0 1.0
0 -16.443232 -3.741785 0.101660 -0.235914 -0.046425 0.970664 0.168091 0.636719 1 0 1.0
0 -16.104286 -3.011112 0.248912 -0.235914 -0.046425 0.970664 0.168091 0.636719 1 0 1.0
Default
0 -16.521225 -0.266710 0.248912 -0.235914 -0.046425 0.970664 0.168091 0.636719 1 0 1.0
0 -17.216356 -0.438822 0.101660 -0.235914 -0.046425 0.970664 0.168091 0.636719 1 0 1.0
0 -16.104286 -3.011112 0.248912 -0.235914 -0.046425 0.970664 0.168091 0.636719 1 0 1.0
Default
0 -17.216356 -0.438822 0.101660 -0.973682 -0.227910 0.000000 0.168091 0.636719 1 0 1.0
0 -17.216356 -0.438822 0.000000 -0.973682 -0.227910 0.000000 0.168091 0.636719 1 0 1.0
0 -16.443232 -3.741785 0.101660 -0.973682 -0.227910 0.000000 0.168091 0.636719 1 0 1.0
Default
0 -17.216356 -0.438822 0.000000 -0.973682 -0.227910 0.000000 0.168091 0.636719 1 0 1.0
0 -16.443232 -3.741785 0.000000 -0.973682 -0.227910 0.000000 0.168091 0.636719 1 0 1.0
0 -16.443232 -3.741785 0.101660 -0.973682 -0.227910 0.000000 0.168091 0.636719 1 0 1.0
Default
0 -16.443232 -3.741785 0.000000 -0.973682 -0.227910 0.000000 0.168091 0.636719 1 0 1.0
0 -17.216356 -0.438822 0.000000 -0.973682 -0.227910 0.000000 0.168091 0.636719 1 0 1.0
0 -16.443232 -3.741785 -0.101660 -0.973682 -0.227910 0.000000 0.168091 0.636719 1 0 1.0
Default
0 -17.216356 -0.438822 0.000000 -0.973682 -0.227910 0.000000 0.168091 0.636719 1 0 1.0
0 -17.216356 -0.438822 -0.101659 -0.973682 -0.227910 0.000000 0.168091 0.636719 1 0 1.0
0 -16.443232 -3.741785 -0.101660 -0.973682 -0.227910 0.000000 0.168091 0.636719 1 0 1.0
Default
0 17.216356 -0.866011 0.036817 -0.000000 0.000000 1.000000 0.166504 0.641602 1 0 1.0
0 17.068683 0.039479 0.036817 -0.000000 0.000000 1.000000 0.166504 0.641602 1 0 1.0
0 16.845128 -0.531862 0.036817 -0.000000 0.000000 1.000000 0.166504 0.641602 1 0 1.0
Default
0 16.588962 -2.462189 0.036816 -0.000000 0.000000 1.000000 0.166504 0.641602 1 0 1.0
0 17.216356 -0.866011 0.036817 -0.000000 0.000000 1.000000 0.166504 0.641602 1 0 1.0
0 16.845128 -0.531862 0.036817 -0.000000 0.000000 1.000000 0.166504 0.641602 1 0 1.0
Default
0 15.538845 -0.473839 0.229970 0.696529 0.717529 0.000000 0.168091 0.636719 1 0 1.0
0 15.955357 -0.878161 0.229970 0.696529 0.717529 0.000000 0.168091 0.636719 1 0 1.0
0 15.538845 -0.473839 0.000000 0.696529 0.717529 0.000000 0.168091 0.636719 1 0 1.0
Default
0 15.955357 -0.878161 0.229970 0.696529 0.717529 0.000000 0.168091 0.636719 1 0 1.0
0 15.955357 -0.878161 0.000000 0.696529 0.717529 0.000000 0.168091 0.636719 1 0 1.0
0 15.538845 -0.473839 0.000000 0.696529 0.717529 0.000000 0.168091 0.636719 1 0 1.0
Default
0 15.955357 -0.878161 0.000000 0.696529 0.717529 0.000000 0.168091 0.636719 1 0 1.0
0 15.955357 -0.878161 -0.229970 0.696529 0.717529 0.000000 0.168091 0.636719 1 0 1.0
0 15.538845 -0.473839 0.000000 0.696529 0.717529 0.000000 0.168091 0.636719 1 0 1.0
Default
0 15.955357 -0.878161 -0.229970 0.696529 0.717529 0.000000 0.168091 0.636719 1 0 1.0
0 15.538845 -0.473839 -0.229970 0.696529 0.717529 0.000000 0.168091 0.636719 1 0 1.0
0 15.538845 -0.473839 0.000000 0.696529 0.717529 0.000000 0.168091 0.636719 1 0 1.0
Default
0 16.588962 -2.462189 0.036816 0.102242 -0.042548 0.993849 0.166504 0.641602 1 0 1.0
0 15.955357 -0.878161 0.229970 0.102242 -0.042548 0.993849 0.166504 0.641602 1 0 1.0
0 15.538845 -0.473839 0.229970 0.102242 -0.042548 0.993849 0.166504 0.641602 1 0 1.0
Default
0 15.787188 -3.328890 0.142353 0.102242 -0.042548 0.993849 0.166504 0.641602 1 0 1.0
0 16.588962 -2.462189 0.036816 0.102242 -0.042548 0.993849 0.166504 0.641602 1 0 1.0
0 15.538845 -0.473839 0.229970 0.102242 -0.042548 0.993849 0.166504 0.641602 1 0 1.0
Default
0 16.588962 -2.462189 0.000000 0.734067 -0.679077 0.000000 0.166504 0.641602 1 0 1.0
0 16.588962 -2.462189 0.036816 0.734067 -0.679077 0.000000 0.166504 0.641602 1 0 1.0
0 15.787188 -3.328890 0.142353 0.734067 -0.679077 0.000000 0.166504 0.641602 1 0 1.0
Default
0 15.787188 -3.328890 0.000000 0.734067 -0.679077 0.000000 0.166504 0.641602 1 0 1.0
0 16.588962 -2.462189 0.000000 0.734067 -0.679077 0.000000 0.166504 0.641602 1 0 1.0
0 15.787188 -3.328890 0.142353 0.734067 -0.679077 0.000000 0.166504 0.641602 1 0 1.0
Default
0 16.588962 -2.462189 0.000000 0.734067 -0.679077 0.000000 0.166504 0.641602 1 0 1.0
0 15.787188 -3.328890 0.000000 0.734067 -0.679077 0.000000 0.166504 0.641602 1 0 1.0
0 15.787188 -3.328890 -0.142353 0.734067 -0.679077 0.000000 0.166504 0.641602 1 0 1.0
Default
0 16.588962 -2.462189 -0.036816 0.734067 -0.679077 0.000000 0.166504 0.641602 1 0 1.0
0 16.588962 -2.462189 0.000000 0.734067 -0.679077 0.000000 0.166504 0.641602 1 0 1.0
0 15.787188 -3.328890 -0.142353 0.734067 -0.679077 0.000000 0.166504 0.641602 1 0 1.0
Default
0 16.439518 -0.757645 0.229970 -0.486374 0.873751 0.000000 0.168091 0.636719 1 0 1.0
0 16.845128 -0.531862 0.036817 -0.486374 0.873751 0.000000 0.168091 0.636719 1 0 1.0
0 16.845128 -0.531862 0.000000 -0.486374 0.873751 0.000000 0.168091 0.636719 1 0 1.0
Default
0 16.845128 -0.531862 0.000000 -0.486374 0.873751 0.000000 0.168091 0.636719 1 0 1.0
0 16.439518 -0.757645 0.000000 -0.486374 0.873751 0.000000 0.168091 0.636719 1 0 1.0
0 16.439518 -0.757645 0.229970 -0.486374 0.873751 0.000000 0.168091 0.636719 1 0 1.0
Default
0 16.439518 -0.757645 0.000000 -0.486374 0.873751 0.000000 0.168091 0.636719 1 0 1.0
0 16.845128 -0.531862 0.000000 -0.486374 0.873751 0.000000 0.168091 0.636719 1 0 1.0
0 16.845128 -0.531862 -0.036816 -0.486374 0.873751 0.000000 0.168091 0.636719 1 0 1.0
Default
0 16.845128 -0.531862 -0.036816 -0.486374 0.873751 0.000000 0.168091 0.636719 1 0 1.0
0 16.439518 -0.757645 -0.229970 -0.486374 0.873751 0.000000 0.168091 0.636719 1 0 1.0
0 16.439518 -0.757645 0.000000 -0.486374 0.873751 0.000000 0.168091 0.636719 1 0 1.0
Default
0 15.955357 -0.878161 0.229970 -0.241546 0.970389 0.000000 0.168091 0.636719 1 0 1.0
0 16.439518 -0.757645 0.229970 -0.241546 0.970389 0.000000 0.168091 0.636719 1 0 1.0
0 15.955357 -0.878161 0.000000 -0.241546 0.970389 0.000000 0.168091 0.636719 1 0 1.0
Default
0 16.439518 -0.757645 0.229970 -0.241546 0.970389 0.000000 0.168091 0.636719 1 0 1.0
0 16.439518 -0.757645 0.000000 -0.241546 0.970389 0.000000 0.168091 0.636719 1 0 1.0
0 15.955357 -0.878161 0.000000 -0.241546 0.970389 0.000000 0.168091 0.636719 1 0 1.0
Default
0 16.439518 -0.757645 0.000000 -0.241546 0.970389 0.000000 0.168091 0.636719 1 0 1.0
0 16.439518 -0.757645 -0.229970 -0.241546 0.970389 0.000000 0.168091 0.636719 1 0 1.0
0 15.955357 -0.878161 0.000000 -0.241546 0.970389 0.000000 0.168091 0.636719 1 0 1.0
Default
0 16.439518 -0.757645 -0.229970 -0.241546 0.970389 0.000000 0.168091 0.636719 1 0 1.0
0 15.955357 -0.878161 -0.229970 -0.241546 0.970389 0.000000 0.168091 0.636719 1 0 1.0
0 15.955357 -0.878161 0.000000 -0.241546 0.970389 0.000000 0.168091 0.636719 1 0 1.0
Default
0 16.845128 -0.531862 0.036817 0.243926 -0.088054 0.965788 0.166504 0.641602 1 0 1.0
0 16.439518 -0.757645 0.229970 0.243926 -0.088054 0.965788 0.166504 0.641602 1 0 1.0
0 15.955357 -0.878161 0.229970 0.243926 -0.088054 0.965788 0.166504 0.641602 1 0 1.0
Default
0 16.588962 -2.462189 0.036816 0.243926 -0.088054 0.965788 0.166504 0.641602 1 0 1.0
0 16.845128 -0.531862 0.036817 0.243926 -0.088054 0.965788 0.166504 0.641602 1 0 1.0
0 15.955357 -0.878161 0.229970 0.243926 -0.088054 0.965788 0.166504 0.641602 1 0 1.0
Default
0 -8.883285 -5.693216 -0.000000 -0.702509 -0.711675 0.000000 0.173096 0.608887 1 0 1.0
0 -8.883285 -5.693216 0.050942 -0.702509 -0.711675 0.000000 0.173096 0.608887 1 0 1.0
0 -10.363255 -4.232306 0.000000 -0.702509 -0.711675 0.000000 0.173096 0.608887 1 0 1.0
Default
0 -8.883285 -5.693216 -0.050942 -0.702509 -0.711675 0.000000 0.173096 0.608887 1 0 1.0
0 -8.883285 -5.693216 -0.000000 -0.702509 -0.711675 0.000000 0.173096 0.608887 1 0 1.0
0 -10.363255 -4.232306 0.000000 -0.702509 -0.711675 0.000000 0.173096 0.608887 1 0 1.0
Default
0 -6.749681 -8.347171 0.076325 -0.779371 -0.626563 0.000000 0.173096 0.608887 1 0 1.0
0 -8.883285 -5.693216 0.050942 -0.779371 -0.626563 0.000000 0.173096 0.608887 1 0 1.0
0 -8.883285 -5.693216 -0.000000 -0.779371 -0.626563 0.000000 0.173096 0.608887 1 0 1.0
Default
0 -6.749681 -8.347171 -0.000000 -0.779371 -0.626563 0.000000 0.173096 0.608887 1 0 1.0
0 -6.749681 -8.347171 0.076325 -0.779371 -0.626563 0.000000 0.173096 0.608887 1 0 1.0
0 -8.883285 -5.693216 -0.000000 -0.779371 -0.626563 0.000000 0.173096 0.608887 1 0 1.0
Default
0 -6.749681 -8.347171 -0.076326 -0.779371 -0.626563 0.000000 0.173096 0.608887 1 0 1.0
0 -6.749681 -8.347171 -0.000000 -0.779371 -0.626563 0.000000 0.173096 0.608887 1 0 1.0
0 -8.883285 -5.693216 -0.000000 -0.779371 -0.626563 0.000000 0.173096 0.608887 1 0 1.0
Default
0 -8.883285 -5.693216 -0.050942 -0.779371 -0.626563 0.000000 0.173096 0.608887 1 0 1.0
0 -6.749681 -8.347171 -0.076326 -0.779371 -0.626563 0.000000 0.173096 0.608887 1 0 1.0
0 -8.883285 -5.693216 -0.000000 -0.779371 -0.626563 0.000000 0.173096 0.608887 1 0 1.0
Default
0 -2.329873 -10.978887 0.076325 -0.511610 -0.859218 0.000000 0.173096 0.608887 1 0 1.0
0 -6.749681 -8.347171 0.076325 -0.511610 -0.859218 0.000000 0.173096 0.608887 1 0 1.0
0 -6.749681 -8.347171 -0.000000 -0.511610 -0.859218 0.000000 0.173096 0.608887 1 0 1.0
Default
0 -2.329873 -10.978887 -0.000000 -0.511610 -0.859218 0.000000 0.173096 0.608887 1 0 1.0
0 -2.329873 -10.978887 0.076325 -0.511610 -0.859218 0.000000 0.173096 0.608887 1 0 1.0
0 -6.749681 -8.347171 -0.000000 -0.511610 -0.859218 0.000000 0.173096 0.608887 1 0 1.0
Default
0 -2.329873 -10.978887 -0.076326 -0.511610 -0.859218 0.000000 0.173096 0.608887 1 0 1.0
0 -2.329873 -10.978887 -0.000000 -0.511610 -0.859218 0.000000 0.173096 0.608887 1 0 1.0
0 -6.749681 -8.347171 -0.000000 -0.511610 -0.859218 0.000000 0.173096 0.608887 1 0 1.0
Default
0 -6.749681 -8.347171 -0.076326 -0.511610 -0.859218 0.000000 0.173096 0.608887 1 0 1.0
0 -2.329873 -10.978887 -0.076326 -0.511610 -0.859218 0.000000 0.173096 0.608887 1 0 1.0
0 -6.749681 -8.347171 -0.000000 -0.511610 -0.859218 0.000000 0.173096 0.608887 1 0 1.0
Default
0 -0.191859 -11.072644 0.143499 -0.043810 -0.999040 0.000000 0.173096 0.608887 1 0 1.0
0 -2.329873 -10.978887 0.076325 -0.043810 -0.999040 0.000000 0.173096 0.608887 1 0 1.0
0 -2.329873 -10.978887 -0.000000 -0.043810 -0.999040 0.000000 0.173096 0.608887 1 0 1.0
Default
0 -0.191860 -11.072644 -0.000000 -0.043810 -0.999040 0.000000 0.173096 0.608887 1 0 1.0
0 -0.191859 -11.072644 0.143499 -0.043810 -0.999040 0.000000 0.173096 0.608887 1 0 1.0
0 -2.329873 -10.978887 -0.000000 -0.043810 -0.999040 0.000000 0.173096 0.608887 1 0 1.0
Default
0 -0.191859 -11.072644 -0.143501 -0.043810 -0.999040 0.000000 0.173096 0.608887 1 0 1.0
0 -0.191860 -11.072644 -0.000000 -0.043810 -0.999040 0.000000 0.173096 0.608887 1 0 1.0
0 -2.329873 -10.978887 -0.000000 -0.043810 -0.999040 0.000000 0.173096 0.608887 1 0 1.0
Default
0 -2.329873 -10.978887 -0.076326 -0.043810 -0.999040 0.000000 0.173096 0.608887 1 0 1.0
0 -0.191859 -11.072644 -0.143501 -0.043810 -0.999040 0.000000 0.173096 0.608887 1 0 1.0
0 -2.329873 -10.978887 -0.000000 -0.043810 -0.999040 0.000000 0.173096 0.608887 1 0 1.0
Default
0 -10.823826 4.097363 0.122869 -0.786653 0.617395 0.000000 0.174683 0.604492 1 0 1.0
0 -9.440550 5.859863 0.158727 -0.786653 0.617395 0.000000 0.174683 0.604492 1 0 1.0
0 -9.440550 5.859863 0.000001 -0.786653 0.617395 0.000000 0.174683 0.604492 1 0 1.0
Default
0 -10.823826 4.097363 0.000001 -0.786653 0.617395 0.000000 0.174683 0.604492 1 0 1.0
0 -10.823826 4.097363 0.122869 -0.786653 0.617395 0.000000 0.174683 0.604492 1 0 1.0
0 -9.440550 5.859863 0.000001 -0.786653 0.617395 0.000000 0.174683 0.604492 1 0 1.0
Default
0 -10.823826 4.097364 -0.122868 -0.786653 0.617395 0.000000 0.174683 0.604492 1 0 1.0
0 -10.823826 4.097363 0.000001 -0.786653 0.617395 0.000000 0.174683 0.604492 1 0 1.0
0 -9.440550 5.859863 0.000001 -0.786653 0.617395 0.000000 0.174683 0.604492 1 0 1.0
Default
0 -9.440550 5.859863 -0.158726 -0.786653 0.617395 0.000000 0.174683 0.604492 1 0 1.0
0 -10.823826 4.097364 -0.122868 -0.786653 0.617395 0.000000 0.174683 0.604492 1 0 1.0
0 -9.440550 5.859863 0.000001 -0.786653 0.617395 0.000000 0.174683 0.604492 1 0 1.0
Default
0 -6.084039 8.901520 0.184111 -0.531766 0.846891 0.000000 0.174683 0.604492 1 0 1.0
0 -3.301014 10.648992 0.227616 -0.531766 0.846891 0.000000 0.174683 0.604492 1 0 1.0
0 -3.301013 10.648992 0.000001 -0.531766 0.846891 0.000000 0.174683 0.604492 1 0 1.0
Default
0 -6.084039 8.901520 0.000001 -0.531766 0.846891 0.000000 0.174683 0.604492 1 0 1.0
0 -6.084039 8.901520 0.184111 -0.531766 0.846891 0.000000 0.174683 0.604492 1 0 1.0
0 -3.301013 10.648992 0.000001 -0.531766 0.846891 0.000000 0.174683 0.604492 1 0 1.0
Default
0 -6.084039 8.901520 -0.184109 -0.531766 0.846891 0.000000 0.174683 0.604492 1 0 1.0
0 -6.084039 8.901520 0.000001 -0.531766 0.846891 0.000000 0.174683 0.604492 1 0 1.0
0 -3.301013 10.648992 0.000001 -0.531766 0.846891 0.000000 0.174683 0.604492 1 0 1.0
Default
0 -3.301014 10.648992 -0.227615 -0.531766 0.846891 0.000000 0.174683 0.604492 1 0 1.0
0 -6.084039 8.901520 -0.184109 -0.531766 0.846891 0.000000 0.174683 0.604492 1 0 1.0
0 -3.301013 10.648992 0.000001 -0.531766 0.846891 0.000000 0.174683 0.604492 1 0 1.0
Default
0 -9.440550 5.859863 0.158727 -0.671497 0.741007 0.000000 0.174683 0.604492 1 0 1.0
0 -6.084039 8.901520 0.184111 -0.671497 0.741007 0.000000 0.174683 0.604492 1 0 1.0
0 -6.084039 8.901520 0.000001 -0.671497 0.741007 0.000000 0.174683 0.604492 1 0 1.0
Default
0 -9.440550 5.859863 0.000001 -0.671497 0.741007 0.000000 0.174683 0.604492 1 0 1.0
0 -9.440550 5.859863 0.158727 -0.671497 0.741007 0.000000 0.174683 0.604492 1 0 1.0
0 -6.084039 8.901520 0.000001 -0.671497 0.741007 0.000000 0.174683 0.604492 1 0 1.0
Default
0 -9.440550 5.859863 -0.158726 -0.671497 0.741007 0.000000 0.174683 0.604492 1 0 1.0
0 -9.440550 5.859863 0.000001 -0.671497 0.741007 0.000000 0.174683 0.604492 1 0 1.0
0 -6.084039 8.901520 0.000001 -0.671497 0.741007 0.000000 0.174683 0.604492 1 0 1.0
Default
0 -6.084039 8.901520 -0.184109 -0.671497 0.741007 0.000000 0.174683 0.604492 1 0 1.0
0 -9.440550 5.859863 -0.158726 -0.671497 0.741007 0.000000 0.174683 0.604492 1 0 1.0
0 -6.084039 8.901520 0.000001 -0.671497 0.741007 0.000000 0.174683 0.604492 1 0 1.0
Default
0 -9.440550 5.859863 0.158727 -0.072871 0.068408 0.994993 0.174683 0.604492 1 0 1.0
0 -10.823826 4.097363 0.122869 -0.093011 0.027472 0.995286 0.174683 0.604492 1 0 1.0
0 -11.086776 1.585428 0.122869 -0.093011 0.027472 0.995286 0.174683 0.604492 1 0 1.0
Default
0 -8.761661 4.163506 0.313757 -0.072871 0.068408 0.994993 0.174683 0.604492 1 0 1.0
0 -9.440550 5.859863 0.158727 -0.072871 0.068408 0.994993 0.174683 0.604492 1 0 1.0
0 -11.086776 1.585428 0.122869 -0.093011 0.027472 0.995286 0.174683 0.604492 1 0 1.0
Default
0 -6.084039 8.901520 0.184111 -0.069190 0.074221 0.994839 0.174683 0.604492 1 0 1.0
0 -9.440550 5.859863 0.158727 -0.072871 0.068408 0.994993 0.174683 0.604492 1 0 1.0
0 -8.761661 4.163506 0.313757 -0.072871 0.068408 0.994993 0.174683 0.604492 1 0 1.0
Default
0 -5.379695 7.561533 0.339141 -0.069190 0.074221 0.994839 0.174683 0.604492 1 0 1.0
0 -6.084039 8.901520 0.184111 -0.069190 0.074221 0.994839 0.174683 0.604492 1 0 1.0
0 -8.761661 4.163506 0.313757 -0.072871 0.068408 0.994993 0.174683 0.604492 1 0 1.0
Default
0 -3.301014 10.648992 0.227616 -0.065507 0.080031 0.994638 0.174683 0.604492 1 0 1.0
0 -6.084039 8.901520 0.184111 -0.069190 0.074221 0.994839 0.174683 0.604492 1 0 1.0
0 -5.379695 7.561533 0.339141 -0.069190 0.074221 0.994839 0.174683 0.604492 1 0 1.0
Default
0 -1.273006 10.912676 0.339141 -0.065507 0.080031 0.994638 0.174683 0.604492 1 0 1.0
0 -3.301014 10.648992 0.227616 -0.065507 0.080031 0.994638 0.174683 0.604492 1 0 1.0
0 -5.379695 7.561533 0.339141 -0.069190 0.074221 0.994839 0.174683 0.604492 1 0 1.0
Default
0 17.068683 0.039479 0.000000 0.986961 0.160960 0.000000 0.166504 0.641602 1 0 1.0
0 17.068683 0.039479 0.036817 0.986961 0.160960 0.000000 0.166504 0.641602 1 0 1.0
0 17.216356 -0.866011 0.036817 0.986961 0.160960 0.000000 0.166504 0.641602 1 0 1.0
Default
0 17.216356 -0.866011 0.000000 0.986961 0.160960 0.000000 0.166504 0.641602 1 0 1.0
0 17.068683 0.039479 0.000000 0.986961 0.160960 0.000000 0.166504 0.641602 1 0 1.0
0 17.216356 -0.866011 0.036817 0.986961 0.160960 0.000000 0.166504 0.641602 1 0 1.0
Default
0 17.068683 0.039479 0.000000 0.986961 0.160960 0.000000 0.166504 0.641602 1 0 1.0
0 17.216356 -0.866011 0.000000 0.986961 0.160960 0.000000 0.166504 0.641602 1 0 1.0
0 17.216356 -0.866011 -0.036816 0.986961 0.160960 0.000000 0.166504 0.641602 1 0 1.0
Default
0 17.068683 0.039479 -0.036816 0.986961 0.160960 0.000000 0.166504 0.641602 1 0 1.0
0 17.068683 0.039479 0.000000 0.986961 0.160960 0.000000 0.166504 0.641602 1 0 1.0
0 17.216356 -0.866011 -0.036816 0.986961 0.160960 0.000000 0.166504 0.641602 1 0 1.0
Default
0 17.216356 -0.866011 0.000000 0.930687 -0.365816 0.000000 0.166504 0.641602 1 0 1.0
0 17.216356 -0.866011 0.036817 0.930687 -0.365816 0.000000 0.166504 0.641602 1 0 1.0
0 16.588962 -2.462189 0.036816 0.930687 -0.365816 0.000000 0.166504 0.641602 1 0 1.0
Default
0 16.588962 -2.462189 0.000000 0.930687 -0.365816 0.000000 0.166504 0.641602 1 0 1.0
0 17.216356 -0.866011 0.000000 0.930687 -0.365816 0.000000 0.166504 0.641602 1 0 1.0
0 16.588962 -2.462189 0.036816 0.930687 -0.365816 0.000000 0.166504 0.641602 1 0 1.0
Default
0 17.216356 -0.866011 0.000000 0.930687 -0.365816 0.000000 0.166504 0.641602 1 0 1.0
0 16.588962 -2.462189 0.000000 0.930687 -0.365816 0.000000 0.166504 0.641602 1 0 1.0
0 16.588962 -2.462189 -0.036816 0.930687 -0.365816 0.000000 0.166504 0.641602 1 0 1.0
Default
0 17.216356 -0.866011 -0.036816 0.930687 -0.365816 0.000000 0.166504 0.641602 1 0 1.0
0 17.216356 -0.866011 0.000000 0.930687 -0.365816 0.000000 0.166504 0.641602 1 0 1.0
0 16.588962 -2.462189 -0.036816 0.930687 -0.365816 0.000000 0.166504 0.641602 1 0 1.0
Default
0 16.845128 -0.531862 0.036817 -0.931250 0.364380 0.000000 0.168091 0.636719 1 0 1.0
0 17.068683 0.039479 0.036817 -0.931250 0.364380 0.000000 0.168091 0.636719 1 0 1.0
0 16.845128 -0.531862 0.000000 -0.931250 0.364380 0.000000 0.168091 0.636719 1 0 1.0
Default
0 17.068683 0.039479 0.036817 -0.931250 0.364380 0.000000 0.168091 0.636719 1 0 1.0
0 17.068683 0.039479 0.000000 -0.931250 0.364380 0.000000 0.168091 0.636719 1 0 1.0
0 16.845128 -0.531862 0.000000 -0.931250 0.364380 0.000000 0.168091 0.636719 1 0 1.0
Default
0 17.068683 0.039479 0.000000 -0.931250 0.364380 0.000000 0.168091 0.636719 1 0 1.0
0 17.068683 0.039479 -0.036816 -0.931250 0.364380 0.000000 0.168091 0.636719 1 0 1.0
0 16.845128 -0.531862 0.000000 -0.931250 0.364380 0.000000 0.168091 0.636719 1 0 1.0
Default
0 17.068683 0.039479 -0.036816 -0.931250 0.364380 0.000000 0.168091 0.636719 1 0 1.0
0 16.845128 -0.531862 -0.036816 -0.931250 0.364380 0.000000 0.168091 0.636719 1 0 1.0
0 16.845128 -0.531862 0.000000 -0.931250 0.364380 0.000000 0.168091 0.636719 1 0 1.0
Default
0 5.933813 -0.003889 -1.130879 0.074124 0.000000 -0.997249 0.168091 0.636719 1 0 1.0
0 5.933813 8.289372 -1.130878 0.074124 0.000000 -0.997249 0.168091 0.636719 1 0 1.0
0 9.426501 0.000615 -0.871272 0.057887 0.000000 -0.998323 0.168091 0.636719 1 0 1.0
Default
0 5.933813 8.289372 -1.130878 0.074124 0.000000 -0.997249 0.168091 0.636719 1 0 1.0
0 9.426501 6.725353 -0.871272 0.057887 0.000000 -0.998323 0.168091 0.636719 1 0 1.0
0 9.426501 0.000615 -0.871272 0.057887 0.000000 -0.998323 0.168091 0.636719 1 0 1.0
Default
0 9.426501 0.000615 -0.871272 0.057887 0.000000 -0.998323 0.168091 0.636719 1 0 1.0
0 9.426501 6.725353 -0.871272 0.057887 0.000000 -0.998323 0.168091 0.636719 1 0 1.0
0 12.522485 0.022460 -0.742264 0.041634 0.000000 -0.999133 0.168091 0.636719 1 0 1.0
Default
0 9.426501 6.725353 -0.871272 0.057887 0.000000 -0.998323 0.168091 0.636719 1 0 1.0
0 12.522485 3.422470 -0.742263 0.041634 0.000000 -0.999133 0.168091 0.636719 1 0 1.0
0 12.522485 0.022460 -0.742264 0.041634 0.000000 -0.999133 0.168091 0.636719 1 0 1.0
Default
0 2.290140 8.865057 -1.130878 -0.000000 0.000000 -1.000000 0.168091 0.636719 1 0 1.0
0 5.933813 8.289372 -1.130878 -0.000000 0.000000 -1.000000 0.168091 0.636719 1 0 1.0
0 5.933813 -0.003889 -1.130879 -0.000000 0.000000 -1.000000 0.168091 0.636719 1 0 1.0
Default
0 2.290141 0.026969 -1.130879 -0.000000 0.000000 -1.000000 0.168091 0.636719 1 0 1.0
0 2.290140 8.865057 -1.130878 -0.000000 0.000000 -1.000000 0.168091 0.636719 1 0 1.0
0 5.933813 -0.003889 -1.130879 -0.000000 0.000000 -1.000000 0.168091 0.636719 1 0 1.0
Default
0 -1.273006 8.291384 -1.130878 -0.000000 0.000000 -1.000000 0.168091 0.636719 1 0 1.0
0 2.290140 8.865057 -1.130878 -0.000000 0.000000 -1.000000 0.168091 0.636719 1 0 1.0
0 2.290141 0.026969 -1.130879 -0.000000 0.000000 -1.000000 0.168091 0.636719 1 0 1.0
Default
0 -1.273006 -0.056957 -1.130879 -0.000000 0.000000 -1.000000 0.168091 0.636719 1 0 1.0
0 -1.273006 8.291384 -1.130878 -0.000000 0.000000 -1.000000 0.168091 0.636719 1 0 1.0
0 2.290141 0.026969 -1.130879 -0.000000 0.000000 -1.000000 0.168091 0.636719 1 0 1.0
Default
0 -5.379695 5.335372 -1.130878 -0.000000 0.000000 -1.000000 0.168091 0.636719 1 0 1.0
0 -1.273006 8.291384 -1.130878 -0.000000 0.000000 -1.000000 0.168091 0.636719 1 0 1.0
0 -1.273006 -0.056957 -1.130879 -0.000000 0.000000 -1.000000 0.168091 0.636719 1 0 1.0
Default
0 -5.379695 -0.031509 -1.130879 -0.000000 0.000000 -1.000000 0.168091 0.636719 1 0 1.0
0 -5.379695 5.335372 -1.130878 -0.000000 0.000000 -1.000000 0.168091 0.636719 1 0 1.0
0 -1.273006 -0.056957 -1.130879 -0.000000 0.000000 -1.000000 0.168091 0.636719 1 0 1.0
Default
0 -8.761661 1.922834 -0.611242 -0.151867 0.000000 -0.988401 0.168091 0.636719 1 0 1.0
0 -5.379695 5.335372 -1.130878 -0.151867 0.000000 -0.988401 0.168091 0.636719 1 0 1.0
0 -5.379695 -0.031509 -1.130879 -0.151867 0.000000 -0.988401 0.168091 0.636719 1 0 1.0
Default
0 -8.761661 0.111732 -0.611242 -0.151867 0.000000 -0.988401 0.168091 0.636719 1 0 1.0
0 -8.761661 1.922834 -0.611242 -0.151867 0.000000 -0.988401 0.168091 0.636719 1 0 1.0
0 -5.379695 -0.031509 -1.130879 -0.151867 0.000000 -0.988401 0.168091 0.636719 1 0 1.0
Default
0 -16.104286 -3.011112 -0.248913 -0.001333 -0.000189 -0.999999 0.168091 0.636719 1 0 1.0
0 -16.521225 -0.266710 -0.248911 -0.001324 -0.000040 -0.999999 0.168091 0.636719 1 0 1.0
0 -13.228615 -1.855930 -0.253002 -0.001333 -0.000189 -0.999999 0.168091 0.636719 1 0 1.0
Default
0 -16.521225 -0.266710 -0.248911 -0.001324 -0.000040 -0.999999 0.168091 0.636719 1 0 1.0
0 -13.411892 -0.365404 -0.253001 -0.001324 -0.000040 -0.999999 0.168091 0.636719 1 0 1.0
0 -13.228615 -1.855930 -0.253002 -0.001333 -0.000189 -0.999999 0.168091 0.636719 1 0 1.0
Default
0 -16.521225 -0.266710 -0.248911 -0.001324 -0.000040 -0.999999 0.168091 0.636719 1 0 1.0
0 -16.302516 2.283802 -0.248910 -0.001315 0.000110 -0.999999 0.168091 0.636719 1 0 1.0
0 -13.411892 -0.365404 -0.253001 -0.001324 -0.000040 -0.999999 0.168091 0.636719 1 0 1.0
Default
0 -16.302516 2.283802 -0.248910 -0.001315 0.000110 -0.999999 0.168091 0.636719 1 0 1.0
0 -13.254606 1.610321 -0.253001 -0.001315 0.000110 -0.999999 0.168091 0.636719 1 0 1.0
0 -13.411892 -0.365404 -0.253001 -0.001324 -0.000040 -0.999999 0.168091 0.636719 1 0 1.0
Default
0 -8.761661 0.111732 -0.611242 -0.151867 0.000000 -0.988401 0.166504 0.641602 1 0 1.0
0 -5.379695 -0.031509 -1.130879 -0.151867 0.000000 -0.988401 0.166504 0.641602 1 0 1.0
0 -5.379695 -5.101950 -1.130879 -0.151867 0.000000 -0.988401 0.166504 0.641602 1 0 1.0
Default
0 -8.761661 -1.214583 -0.611242 -0.151867 0.000000 -0.988401 0.166504 0.641602 1 0 1.0
0 -8.761661 0.111732 -0.611242 -0.151867 0.000000 -0.988401 0.166504 0.641602 1 0 1.0
0 -5.379695 -5.101950 -1.130879 -0.151867 0.000000 -0.988401 0.166504 0.641602 1 0 1.0
Default
0 -5.379695 -5.101950 -1.130879 -0.000000 0.000000 -1.000000 0.166504 0.641602 1 0 1.0
0 -5.379695 -0.031509 -1.130879 -0.000000 0.000000 -1.000000 0.166504 0.641602 1 0 1.0
0 -1.273006 -7.642569 -1.130879 -0.000000 0.000000 -1.000000 0.166504 0.641602 1 0 1.0
Default
0 -5.379695 -0.031509 -1.130879 -0.000000 0.000000 -1.000000 0.166504 0.641602 1 0 1.0
0 -1.273006 -0.056957 -1.130879 -0.000000 0.000000 -1.000000 0.166504 0.641602 1 0 1.0
0 -1.273006 -7.642569 -1.130879 -0.000000 0.000000 -1.000000 0.166504 0.641602 1 0 1.0
Default
0 -1.273006 -7.642569 -1.130879 -0.000000 0.000000 -1.000000 0.166504 0.641602 1 0 1.0
0 -1.273006 -0.056957 -1.130879 -0.000000 0.000000 -1.000000 0.166504 0.641602 1 0 1.0
0 2.290141 -8.465327 -1.130880 -0.000000 0.000000 -1.000000 0.166504 0.641602 1 0 1.0
Default
0 -1.273006 -0.056957 -1.130879 -0.000000 0.000000 -1.000000 0.166504 0.641602 1 0 1.0
0 2.290141 0.026969 -1.130879 -0.000000 0.000000 -1.000000 0.166504 0.641602 1 0 1.0
0 2.290141 -8.465327 -1.130880 -0.000000 0.000000 -1.000000 0.166504 0.641602 1 0 1.0
Default
0 2.290141 -8.465327 -1.130880 -0.000000 0.000000 -1.000000 0.166504 0.641602 1 0 1.0
0 2.290141 0.026969 -1.130879 -0.000000 0.000000 -1.000000 0.166504 0.641602 1 0 1.0
0 5.933813 -8.777389 -1.130880 -0.000000 0.000000 -1.000000 0.166504 0.641602 1 0 1.0
Default
0 2.290141 0.026969 -1.130879 -0.000000 0.000000 -1.000000 0.166504 0.641602 1 0 1.0
0 5.933813 -0.003889 -1.130879 -0.000000 0.000000 -1.000000 0.166504 0.641602 1 0 1.0
0 5.933813 -8.777389 -1.130880 -0.000000 0.000000 -1.000000 0.166504 0.641602 1 0 1.0
Default
0 5.933813 -8.777389 -1.130880 0.074124 0.000000 -0.997249 0.166504 0.641602 1 0 1.0
0 5.933813 -0.003889 -1.130879 0.074124 0.000000 -0.997249 0.166504 0.641602 1 0 1.0
0 9.426501 -8.014545 -0.871273 0.057887 0.000000 -0.998323 0.166504 0.641602 1 0 1.0
Default
0 5.933813 -0.003889 -1.130879 0.074124 0.000000 -0.997249 0.166504 0.641602 1 0 1.0
0 9.426501 0.000615 -0.871272 0.057887 0.000000 -0.998323 0.166504 0.641602 1 0 1.0
0 9.426501 -8.014545 -0.871273 0.057887 0.000000 -0.998323 0.166504 0.641602 1 0 1.0
Default
0 9.426501 -8.014545 -0.871273 0.057887 0.000000 -0.998323 0.166504 0.641602 1 0 1.0
0 9.426501 0.000615 -0.871272 0.057887 0.000000 -0.998323 0.166504 0.641602 1 0 1.0
0 12.522485 -5.693223 -0.742264 0.041634 0.000000 -0.999133 0.166504 0.641602 1 0 1.0
Default
0 9.426501 0.000615 -0.871272 0.057887 0.000000 -0.998323 0.166504 0.641602 1 0 1.0
0 12.522485 0.022460 -0.742264 0.041634 0.000000 -0.999133 0.166504 0.641602 1 0 1.0
0 12.522485 -5.693223 -0.742264 0.041634 0.000000 -0.999133 0.166504 0.641602 1 0 1.0
Default
0 -13.228615 -1.855930 -0.253002 -0.069473 -0.008380 -0.997549 0.168091 0.636719 1 0 1.0
0 -13.411892 -0.365404 -0.253001 -0.069978 -0.001415 -0.997547 0.168091 0.636719 1 0 1.0
0 -11.086776 -0.216938 -0.416179 -0.076539 -0.004190 -0.997058 0.168091 0.636719 1 0 1.0
Default
0 -13.411892 -0.365404 -0.253001 -0.069978 -0.001415 -0.997547 0.168091 0.636719 1 0 1.0
0 -11.086776 -0.188103 -0.416179 -0.076791 -0.000707 -0.997047 0.168091 0.636719 1 0 1.0
0 -11.086776 -0.216938 -0.416179 -0.076539 -0.004190 -0.997058 0.168091 0.636719 1 0 1.0
Default
0 -13.411892 -0.365404 -0.253001 -0.069978 -0.001415 -0.997547 0.168091 0.636719 1 0 1.0
0 -13.254606 1.610321 -0.253001 -0.070480 0.005550 -0.997498 0.168091 0.636719 1 0 1.0
0 -11.086776 -0.188103 -0.416179 -0.076791 -0.000707 -0.997047 0.168091 0.636719 1 0 1.0
Default
0 -13.254606 1.610321 -0.253001 -0.070480 0.005550 -0.997498 0.168091 0.636719 1 0 1.0
0 -11.086776 -0.166483 -0.416179 -0.077042 0.002775 -0.997024 0.168091 0.636719 1 0 1.0
0 -11.086776 -0.188103 -0.416179 -0.076791 -0.000707 -0.997047 0.168091 0.636719 1 0 1.0
Default
0 -11.086776 -0.188103 -0.416179 -0.076791 -0.000707 -0.997047 0.168091 0.636719 1 0 1.0
0 -11.086776 -0.166483 -0.416179 -0.077042 0.002775 -0.997024 0.168091 0.636719 1 0 1.0
0 -8.761661 0.111732 -0.611242 -0.083600 0.000000 -0.996499 0.168091 0.636719 1 0 1.0
Default
0 -11.086776 -0.166483 -0.416179 -0.077042 0.002775 -0.997024 0.168091 0.636719 1 0 1.0
0 -8.761661 1.922834 -0.611242 -0.083600 0.000000 -0.996499 0.168091 0.636719 1 0 1.0
0 -8.761661 0.111732 -0.611242 -0.083600 0.000000 -0.996499 0.168091 0.636719 1 0 1.0
Default
0 -2.329873 -10.978887 -0.076326 -0.065627 -0.108248 -0.991955 0.173096 0.608887 1 0 1.0
0 -6.749681 -8.347171 -0.076326 -0.065627 -0.108248 -0.991955 0.173096 0.608887 1 0 1.0
0 -1.273006 -9.874682 -0.271966 -0.065627 -0.108248 -0.991955 0.173096 0.608887 1 0 1.0
Default
0 -6.749681 -8.347171 -0.076326 -0.065627 -0.108248 -0.991955 0.173096 0.608887 1 0 1.0
0 -5.379695 -7.337105 -0.271966 -0.065627 -0.108248 -0.991955 0.173096 0.608887 1 0 1.0
0 -1.273006 -9.874682 -0.271966 -0.065627 -0.108248 -0.991955 0.173096 0.608887 1 0 1.0
Default
0 -6.749681 -8.347171 -0.076326 -0.065627 -0.108248 -0.991955 0.173096 0.608887 1 0 1.0
0 -8.883285 -5.693216 -0.050942 -0.104449 -0.079730 -0.991329 0.173096 0.608887 1 0 1.0
0 -5.379695 -7.337105 -0.271966 -0.065627 -0.108248 -0.991955 0.173096 0.608887 1 0 1.0
Default
0 -8.883285 -5.693216 -0.050942 -0.104449 -0.079730 -0.991329 0.173096 0.608887 1 0 1.0
0 -8.761661 -3.453905 -0.246582 -0.104449 -0.079730 -0.991329 0.173096 0.608887 1 0 1.0
0 -5.379695 -7.337105 -0.271966 -0.065627 -0.108248 -0.991955 0.173096 0.608887 1 0 1.0
Default
0 -8.883285 -5.693216 -0.050942 -0.104449 -0.079730 -0.991329 0.173096 0.608887 1 0 1.0
0 -10.363255 -4.232306 0.000000 -0.111245 -0.084775 -0.990171 0.173096 0.608887 1 0 1.0
0 -8.761661 -3.453905 -0.246582 -0.104449 -0.079730 -0.991329 0.173096 0.608887 1 0 1.0
Default
0 -10.363255 -4.232306 0.000000 -0.111245 -0.084775 -0.990171 0.173096 0.608887 1 0 1.0
0 -11.086776 -1.961633 -0.122869 -0.111245 -0.084775 -0.990171 0.173096 0.608887 1 0 1.0
0 -8.761661 -3.453905 -0.246582 -0.104449 -0.079730 -0.991329 0.173096 0.608887 1 0 1.0
Default
0 -11.086776 -0.188103 -0.416179 -0.076791 -0.000707 -0.997047 0.166504 0.641602 1 0 1.0
0 -8.761661 0.111732 -0.611242 -0.083600 0.000000 -0.996499 0.166504 0.641602 1 0 1.0
0 -8.761661 -1.214583 -0.611242 -0.083600 0.000000 -0.996499 0.166504 0.641602 1 0 1.0
Default
0 -11.086776 -0.216938 -0.416179 -0.076539 -0.004190 -0.997058 0.166504 0.641602 1 0 1.0
0 -11.086776 -0.188103 -0.416179 -0.076791 -0.000707 -0.997047 0.166504 0.641602 1 0 1.0
0 -8.761661 -1.214583 -0.611242 -0.083600 0.000000 -0.996499 0.166504 0.641602 1 0 1.0
Default
0 -2.329873 -10.978887 -0.076326 -0.058001 -0.158051 -0.985726 0.173096 0.608887 1 0 1.0
0 -1.273006 -9.874682 -0.271966 -0.058001 -0.158051 -0.985726 0.173096 0.608887 1 0 1.0
0 2.290141 -11.035200 -0.339140 -0.058001 -0.158051 -0.985726 0.173096 0.608887 1 0 1.0
Default
0 -0.191859 -11.072644 -0.143501 -0.058001 -0.158051 -0.985726 0.173096 0.608887 1 0 1.0
0 -2.329873 -10.978887 -0.076326 -0.058001 -0.158051 -0.985726 0.173096 0.608887 1 0 1.0
0 2.290141 -11.035200 -0.339140 -0.058001 -0.158051 -0.985726 0.173096 0.608887 1 0 1.0
Default
0 12.522485 -5.693223 -0.742264 0.178846 -0.006790 -0.983854 0.166504 0.641602 1 0 1.0
0 12.522485 0.022460 -0.742264 0.167441 0.000000 -0.985882 0.166504 0.641602 1 0 1.0
0 15.538845 -0.473839 -0.229970 0.175047 -0.004527 -0.984550 0.166504 0.641602 1 0 1.0
Default
0 12.522485 -5.693223 -0.742264 0.178846 -0.006790 -0.983854 0.166504 0.641602 1 0 1.0
0 15.538845 -0.473839 -0.229970 0.175047 -0.004527 -0.984550 0.166504 0.641602 1 0 1.0
0 15.787188 -3.328890 -0.142353 0.190219 -0.013579 -0.981648 0.166504 0.641602 1 0 1.0
Default
0 -16.755579 3.078107 -0.101658 -0.234963 0.026313 -0.971648 0.168091 0.636719 1 0 1.0
0 -16.302516 2.283802 -0.248910 -0.234963 0.026313 -0.971648 0.168091 0.636719 1 0 1.0
0 -16.521225 -0.266710 -0.248911 -0.234963 0.026313 -0.971648 0.168091 0.636719 1 0 1.0
Default
0 -17.216356 -0.438822 -0.101659 -0.234963 0.026313 -0.971648 0.168091 0.636719 1 0 1.0
0 -16.755579 3.078107 -0.101658 -0.234963 0.026313 -0.971648 0.168091 0.636719 1 0 1.0
0 -16.521225 -0.266710 -0.248911 -0.234963 0.026313 -0.971648 0.168091 0.636719 1 0 1.0
Default
0 -16.302516 2.283802 -0.248910 0.051531 0.223278 -0.973392 0.168091 0.636719 1 0 1.0
0 -16.755579 3.078107 -0.101658 0.051531 0.223278 -0.973392 0.168091 0.636719 1 0 1.0
0 -13.336857 2.287533 -0.091054 0.056278 0.204609 -0.977225 0.168091 0.636719 1 0 1.0
Default
0 -13.254606 1.610321 -0.253001 0.056278 0.204609 -0.977225 0.168091 0.636719 1 0 1.0
0 -16.302516 2.283802 -0.248910 0.051531 0.223278 -0.973392 0.168091 0.636719 1 0 1.0
0 -13.336857 2.287533 -0.091054 0.056278 0.204609 -0.977225 0.168091 0.636719 1 0 1.0
Default
0 -13.254606 1.610321 -0.253001 0.056278 0.204609 -0.977225 0.168091 0.636719 1 0 1.0
0 -13.336857 2.287533 -0.091054 0.056278 0.204609 -0.977225 0.168091 0.636719 1 0 1.0
0 -11.086776 1.585428 -0.122868 0.061003 0.185861 -0.980680 0.168091 0.636719 1 0 1.0
Default
0 -11.086776 -0.166483 -0.416179 0.061003 0.185861 -0.980680 0.168091 0.636719 1 0 1.0
0 -13.254606 1.610321 -0.253001 0.056278 0.204609 -0.977225 0.168091 0.636719 1 0 1.0
0 -11.086776 1.585428 -0.122868 0.061003 0.185861 -0.980680 0.168091 0.636719 1 0 1.0
Default
0 -13.228615 -1.855930 -0.253002 0.091855 -0.234244 -0.967829 0.168091 0.636719 1 0 1.0
0 -13.185468 -2.518773 -0.091055 0.091855 -0.234244 -0.967829 0.168091 0.636719 1 0 1.0
0 -16.443232 -3.741785 -0.101660 0.091855 -0.234244 -0.967829 0.168091 0.636719 1 0 1.0
Default
0 -16.104286 -3.011112 -0.248913 0.091855 -0.234244 -0.967829 0.168091 0.636719 1 0 1.0
0 -13.228615 -1.855930 -0.253002 0.091855 -0.234244 -0.967829 0.168091 0.636719 1 0 1.0
0 -16.443232 -3.741785 -0.101660 0.091855 -0.234244 -0.967829 0.168091 0.636719 1 0 1.0
Default
0 -8.761661 -1.214583 -0.611242 -0.153057 -0.161025 -0.975010 0.166504 0.641602 1 0 1.0
0 -8.761661 -3.453905 -0.246582 -0.153057 -0.161025 -0.975010 0.166504 0.641602 1 0 1.0
0 -11.086776 -1.961633 -0.122869 -0.153057 -0.161025 -0.975010 0.166504 0.641602 1 0 1.0
Default
0 -11.086776 -0.216938 -0.416179 -0.153057 -0.161025 -0.975010 0.166504 0.641602 1 0 1.0
0 -8.761661 -1.214583 -0.611242 -0.153057 -0.161025 -0.975010 0.166504 0.641602 1 0 1.0
0 -11.086776 -1.961633 -0.122869 -0.153057 -0.161025 -0.975010 0.166504 0.641602 1 0 1.0
Default
0 -5.379695 -5.101950 -1.130879 -0.355831 -0.246508 -0.901453 0.166504 0.641602 1 0 1.0
0 -5.379695 -7.337105 -0.271966 -0.355831 -0.246508 -0.901453 0.166504 0.641602 1 0 1.0
0 -8.761661 -3.453905 -0.246582 -0.355831 -0.246508 -0.901453 0.166504 0.641602 1 0 1.0
Default
0 -8.761661 -1.214583 -0.611242 -0.355831 -0.246508 -0.901453 0.166504 0.641602 1 0 1.0
0 -5.379695 -5.101950 -1.130879 -0.355831 -0.246508 -0.901453 0.166504 0.641602 1 0 1.0
0 -8.761661 -3.453905 -0.246582 -0.355831 -0.246508 -0.901453 0.166504 0.641602 1 0 1.0
Default
0 -1.273006 -7.642569 -1.130879 -0.216641 -0.350391 -0.911204 0.166504 0.641602 1 0 1.0
0 -1.273006 -9.874682 -0.271966 -0.216641 -0.350391 -0.911204 0.166504 0.641602 1 0 1.0
0 -5.379695 -7.337105 -0.271966 -0.216641 -0.350391 -0.911204 0.166504 0.641602 1 0 1.0
Default
0 -5.379695 -5.101950 -1.130879 -0.216641 -0.350391 -0.911204 0.166504 0.641602 1 0 1.0
0 -1.273006 -7.642569 -1.130879 -0.216641 -0.350391 -0.911204 0.166504 0.641602 1 0 1.0
0 -5.379695 -7.337105 -0.271966 -0.216641 -0.350391 -0.911204 0.166504 0.641602 1 0 1.0
Default
0 2.290141 -8.465327 -1.130880 -0.098897 -0.323481 -0.941052 0.166504 0.641602 1 0 1.0
0 2.290141 -11.035200 -0.339140 -0.098897 -0.323481 -0.941052 0.166504 0.641602 1 0 1.0
0 -1.273006 -9.874682 -0.271966 -0.098897 -0.323481 -0.941052 0.166504 0.641602 1 0 1.0
Default
0 -1.273006 -7.642569 -1.130879 -0.098897 -0.323481 -0.941052 0.166504 0.641602 1 0 1.0
0 2.290141 -8.465327 -1.130880 -0.098897 -0.323481 -0.941052 0.166504 0.641602 1 0 1.0
0 -1.273006 -9.874682 -0.271966 -0.098897 -0.323481 -0.941052 0.166504 0.641602 1 0 1.0
Default
0 5.933813 -8.777389 -1.130880 -0.012232 -0.313251 -0.949592 0.166504 0.641602 1 0 1.0
0 5.933813 -11.007693 -0.339140 -0.012232 -0.313251 -0.949592 0.166504 0.641602 1 0 1.0
0 2.290141 -11.035200 -0.339140 -0.012232 -0.313251 -0.949592 0.166504 0.641602 1 0 1.0
Default
0 2.290141 -8.465327 -1.130880 -0.012232 -0.313251 -0.949592 0.166504 0.641602 1 0 1.0
0 5.933813 -8.777389 -1.130880 -0.012232 -0.313251 -0.949592 0.166504 0.641602 1 0 1.0
0 2.290141 -11.035200 -0.339140 -0.012232 -0.313251 -0.949592 0.166504 0.641602 1 0 1.0
Default
0 9.426501 -8.014545 -0.871273 0.096280 -0.282053 -0.954556 0.166504 0.641602 1 0 1.0
0 9.426501 -10.245852 -0.344691 0.096280 -0.282053 -0.954556 0.166504 0.641602 1 0 1.0
0 5.933813 -11.007693 -0.339140 0.096280 -0.282053 -0.954556 0.166504 0.641602 1 0 1.0
Default
0 5.933813 -8.777389 -1.130880 0.096280 -0.282053 -0.954556 0.166504 0.641602 1 0 1.0
0 9.426501 -8.014545 -0.871273 0.096280 -0.282053 -0.954556 0.166504 0.641602 1 0 1.0
0 5.933813 -11.007693 -0.339140 0.096280 -0.282053 -0.954556 0.166504 0.641602 1 0 1.0
Default
0 12.522485 -5.693223 -0.742264 0.215238 -0.229269 -0.949267 0.166504 0.641602 1 0 1.0
0 12.516566 -7.926010 -0.192013 0.215238 -0.229269 -0.949267 0.166504 0.641602 1 0 1.0
0 9.426501 -10.245852 -0.344691 0.215238 -0.229269 -0.949267 0.166504 0.641602 1 0 1.0
Default
0 9.426501 -8.014545 -0.871273 0.215238 -0.229269 -0.949267 0.166504 0.641602 1 0 1.0
0 12.522485 -5.693223 -0.742264 0.215238 -0.229269 -0.949267 0.166504 0.641602 1 0 1.0
0 9.426501 -10.245852 -0.344691 0.215238 -0.229269 -0.949267 0.166504 0.641602 1 0 1.0
Default
0 12.522485 3.422470 -0.742263 0.234171 0.121573 -0.964564 0.168091 0.636719 1 0 1.0
0 12.516566 5.648785 -0.192011 0.234171 0.121573 -0.964564 0.168091 0.636719 1 0 1.0
0 16.627444 1.112618 -0.036816 0.234171 0.121573 -0.964564 0.168091 0.636719 1 0 1.0
Default
0 15.538845 -0.473839 -0.229970 0.234171 0.121573 -0.964564 0.168091 0.636719 1 0 1.0
0 12.522485 3.422470 -0.742263 0.234171 0.121573 -0.964564 0.168091 0.636719 1 0 1.0
0 16.627444 1.112618 -0.036816 0.234171 0.121573 -0.964564 0.168091 0.636719 1 0 1.0
Default
0 9.426501 6.725353 -0.871272 0.283667 0.226257 -0.931848 0.168091 0.636719 1 0 1.0
0 9.426501 8.941437 -0.344690 0.283667 0.226257 -0.931848 0.168091 0.636719 1 0 1.0
0 12.516566 5.648785 -0.192011 0.283667 0.226257 -0.931848 0.168091 0.636719 1 0 1.0
Default
0 12.522485 3.422470 -0.742263 0.283667 0.226257 -0.931848 0.168091 0.636719 1 0 1.0
0 9.426501 6.725353 -0.871272 0.283667 0.226257 -0.931848 0.168091 0.636719 1 0 1.0
0 12.516566 5.648785 -0.192011 0.283667 0.226257 -0.931848 0.168091 0.636719 1 0 1.0
Default
0 5.933813 8.289372 -1.130878 0.160316 0.281842 -0.945973 0.168091 0.636719 1 0 1.0
0 5.933813 10.498097 -0.339139 0.160316 0.281842 -0.945973 0.168091 0.636719 1 0 1.0
0 9.426501 8.941437 -0.344690 0.160316 0.281842 -0.945973 0.168091 0.636719 1 0 1.0
Default
0 9.426501 6.725353 -0.871272 0.160316 0.281842 -0.945973 0.168091 0.636719 1 0 1.0
0 5.933813 8.289372 -1.130878 0.160316 0.281842 -0.945973 0.168091 0.636719 1 0 1.0
0 9.426501 8.941437 -0.344690 0.160316 0.281842 -0.945973 0.168091 0.636719 1 0 1.0
Default
0 2.290140 8.865057 -1.130878 0.053198 0.337035 -0.939988 0.168091 0.636719 1 0 1.0
0 2.290141 11.072644 -0.339139 0.053198 0.337035 -0.939988 0.168091 0.636719 1 0 1.0
0 5.933813 10.498097 -0.339139 0.053198 0.337035 -0.939988 0.168091 0.636719 1 0 1.0
Default
0 5.933813 8.289372 -1.130878 0.053198 0.337035 -0.939988 0.168091 0.636719 1 0 1.0
0 2.290140 8.865057 -1.130878 0.053198 0.337035 -0.939988 0.168091 0.636719 1 0 1.0
0 5.933813 10.498097 -0.339139 0.053198 0.337035 -0.939988 0.168091 0.636719 1 0 1.0
Default
0 -1.273006 8.291384 -1.130878 -0.032062 0.311433 -0.949727 0.168091 0.636719 1 0 1.0
0 -1.273006 10.912676 -0.339139 -0.032062 0.311433 -0.949727 0.168091 0.636719 1 0 1.0
0 2.290141 11.072644 -0.339139 -0.032062 0.311433 -0.949727 0.168091 0.636719 1 0 1.0
Default
0 2.290140 8.865057 -1.130878 -0.032062 0.311433 -0.949727 0.168091 0.636719 1 0 1.0
0 -1.273006 8.291384 -1.130878 -0.032062 0.311433 -0.949727 0.168091 0.636719 1 0 1.0
0 2.290141 11.072644 -0.339139 -0.032062 0.311433 -0.949727 0.168091 0.636719 1 0 1.0
Default
0 -5.379695 5.335372 -1.130878 -0.231945 0.302047 -0.924645 0.168091 0.636719 1 0 1.0
0 -5.379695 7.561533 -0.339139 -0.231945 0.302047 -0.924645 0.168091 0.636719 1 0 1.0
0 -1.273006 10.912676 -0.339139 -0.231945 0.302047 -0.924645 0.168091 0.636719 1 0 1.0
Default
0 -1.273006 8.291384 -1.130878 -0.231945 0.302047 -0.924645 0.168091 0.636719 1 0 1.0
0 -5.379695 5.335372 -1.130878 -0.231945 0.302047 -0.924645 0.168091 0.636719 1 0 1.0
0 -1.273006 10.912676 -0.339139 -0.231945 0.302047 -0.924645 0.168091 0.636719 1 0 1.0
Default
0 -8.761661 1.922834 -0.611242 -0.302027 0.225842 -0.926162 0.168091 0.636719 1 0 1.0
0 -8.761661 4.163506 -0.313756 -0.302027 0.225842 -0.926162 0.168091 0.636719 1 0 1.0
0 -5.379695 7.561533 -0.339139 -0.302027 0.225842 -0.926162 0.168091 0.636719 1 0 1.0
Default
0 -5.379695 5.335372 -1.130878 -0.302027 0.225842 -0.926162 0.168091 0.636719 1 0 1.0
0 -8.761661 1.922834 -0.611242 -0.302027 0.225842 -0.926162 0.168091 0.636719 1 0 1.0
0 -5.379695 7.561533 -0.339139 -0.302027 0.225842 -0.926162 0.168091 0.636719 1 0 1.0
Default
0 -11.086776 -0.216938 -0.416179 0.050519 -0.184692 -0.981497 0.168091 0.636719 1 0 1.0
0 -11.086776 -1.961633 -0.122869 0.050519 -0.184692 -0.981497 0.168091 0.636719 1 0 1.0
0 -13.185468 -2.518773 -0.091055 0.050519 -0.184692 -0.981497 0.168091 0.636719 1 0 1.0
Default
0 -13.228615 -1.855930 -0.253002 0.050519 -0.184692 -0.981497 0.168091 0.636719 1 0 1.0
0 -11.086776 -0.216938 -0.416179 0.050519 -0.184692 -0.981497 0.168091 0.636719 1 0 1.0
0 -13.185468 -2.518773 -0.091055 0.050519 -0.184692 -0.981497 0.168091 0.636719 1 0 1.0
Default
0 -11.086776 -0.166483 -0.416179 -0.223242 0.142686 -0.964263 0.168091 0.636719 1 0 1.0
0 -11.086776 1.585428 -0.122868 -0.223242 0.142686 -0.964263 0.168091 0.636719 1 0 1.0
0 -8.761661 4.163506 -0.313756 -0.223242 0.142686 -0.964263 0.168091 0.636719 1 0 1.0
Default
0 -8.761661 1.922834 -0.611242 -0.223242 0.142686 -0.964263 0.168091 0.636719 1 0 1.0
0 -11.086776 -0.166483 -0.416179 -0.223242 0.142686 -0.964263 0.168091 0.636719 1 0 1.0
0 -8.761661 4.163506 -0.313756 -0.223242 0.142686 -0.964263 0.168091 0.636719 1 0 1.0
Default
0 -17.216356 -0.438822 -0.101659 -0.235914 -0.046425 -0.970664 0.168091 0.636719 1 0 1.0
0 -16.521225 -0.266710 -0.248911 -0.235914 -0.046425 -0.970664 0.168091 0.636719 1 0 1.0
0 -16.104286 -3.011112 -0.248913 -0.235914 -0.046425 -0.970664 0.168091 0.636719 1 0 1.0
Default
0 -16.443232 -3.741785 -0.101660 -0.235914 -0.046425 -0.970664 0.168091 0.636719 1 0 1.0
0 -17.216356 -0.438822 -0.101659 -0.235914 -0.046425 -0.970664 0.168091 0.636719 1 0 1.0
0 -16.104286 -3.011112 -0.248913 -0.235914 -0.046425 -0.970664 0.168091 0.636719 1 0 1.0
Default
0 17.216356 -0.866011 -0.036816 -0.000000 0.000000 -1.000000 0.166504 0.641602 1 0 1.0
0 16.588962 -2.462189 -0.036816 -0.000000 0.000000 -1.000000 0.166504 0.641602 1 0 1.0
0 16.845128 -0.531862 -0.036816 -0.000000 0.000000 -1.000000 0.166504 0.641602 1 0 1.0
Default
0 17.068683 0.039479 -0.036816 -0.000000 0.000000 -1.000000 0.166504 0.641602 1 0 1.0
0 17.216356 -0.866011 -0.036816 -0.000000 0.000000 -1.000000 0.166504 0.641602 1 0 1.0
0 16.845128 -0.531862 -0.036816 -0.000000 0.000000 -1.000000 0.166504 0.641602 1 0 1.0
Default
0 16.588962 -2.462189 -0.036816 0.102242 -0.042547 -0.993849 0.166504 0.641602 1 0 1.0
0 15.787188 -3.328890 -0.142353 0.102242 -0.042547 -0.993849 0.166504 0.641602 1 0 1.0
0 15.538845 -0.473839 -0.229970 0.102242 -0.042547 -0.993849 0.166504 0.641602 1 0 1.0
Default
0 15.955357 -0.878161 -0.229970 0.102242 -0.042547 -0.993849 0.166504 0.641602 1 0 1.0
0 16.588962 -2.462189 -0.036816 0.102242 -0.042547 -0.993849 0.166504 0.641602 1 0 1.0
0 15.538845 -0.473839 -0.229970 0.102242 -0.042547 -0.993849 0.166504 0.641602 1 0 1.0
Default
0 16.845128 -0.531862 -0.036816 0.243926 -0.088054 -0.965788 0.166504 0.641602 1 0 1.0
0 16.588962 -2.462189 -0.036816 0.243926 -0.088054 -0.965788 0.166504 0.641602 1 0 1.0
0 15.955357 -0.878161 -0.229970 0.243926 -0.088054 -0.965788 0.166504 0.641602 1 0 1.0
Default
0 16.439518 -0.757645 -0.229970 0.243926 -0.088054 -0.965788 0.166504 0.641602 1 0 1.0
0 16.845128 -0.531862 -0.036816 0.243926 -0.088054 -0.965788 0.166504 0.641602 1 0 1.0
0 15.955357 -0.878161 -0.229970 0.243926 -0.088054 -0.965788 0.166504 0.641602 1 0 1.0
Default
0 -10.823826 4.097364 -0.122868 -0.093011 0.027472 -0.995286 0.174683 0.604492 1 0 1.0
0 -9.440550 5.859863 -0.158726 -0.072871 0.068408 -0.994993 0.174683 0.604492 1 0 1.0
0 -11.086776 1.585428 -0.122868 -0.093011 0.027472 -0.995286 0.174683 0.604492 1 0 1.0
Default
0 -9.440550 5.859863 -0.158726 -0.072871 0.068408 -0.994993 0.174683 0.604492 1 0 1.0
0 -8.761661 4.163506 -0.313756 -0.072871 0.068408 -0.994993 0.174683 0.604492 1 0 1.0
0 -11.086776 1.585428 -0.122868 -0.093011 0.027472 -0.995286 0.174683 0.604492 1 0 1.0
Default
0 -9.440550 5.859863 -0.158726 -0.072871 0.068408 -0.994993 0.174683 0.604492 1 0 1.0
0 -6.084039 8.901520 -0.184109 -0.069190 0.074221 -0.994839 0.174683 0.604492 1 0 1.0
0 -8.761661 4.163506 -0.313756 -0.072871 0.068408 -0.994993 0.174683 0.604492 1 0 1.0
Default
0 -6.084039 8.901520 -0.184109 -0.069190 0.074221 -0.994839 0.174683 0.604492 1 0 1.0
0 -5.379695 7.561533 -0.339139 -0.069190 0.074221 -0.994839 0.174683 0.604492 1 0 1.0
0 -8.761661 4.163506 -0.313756 -0.072871 0.068408 -0.994993 0.174683 0.604492 1 0 1.0
Default
0 -6.084039 8.901520 -0.184109 -0.069190 0.074221 -0.994839 0.174683 0.604492 1 0 1.0
0 -3.301014 10.648992 -0.227615 -0.065506 0.080031 -0.994638 0.174683 0.604492 1 0 1.0
0 -5.379695 7.561533 -0.339139 -0.069190 0.074221 -0.994839 0.174683 0.604492 1 0 1.0
Default
0 -3.301014 10.648992 -0.227615 -0.065506 0.080031 -0.994638 0.174683 0.604492 1 0 1.0
0 -1.273006 10.912676 -0.339139 -0.065506 0.080031 -0.994638 0.174683 0.604492 1 0 1.0
0 -5.379695 7.561533 -0.339139 -0.069190 0.074221 -0.994839 0.174683 0.604492 1 0 1.0
Default
0 -0.191859 -11.072644 -0.143501 0.015085 -0.999886 0.000000 0.166504 0.641602 1 0 1.0
0 2.290141 -11.035200 -0.339140 0.011317 -0.999936 0.000000 0.166504 0.641602 1 0 1.0
0 2.290140 -11.035200 -0.000000 0.011317 -0.999936 0.000000 0.166504 0.641602 1 0 1.0
Default
0 -0.191860 -11.072644 -0.000000 0.015085 -0.999886 0.000000 0.166504 0.641602 1 0 1.0
0 -0.191859 -11.072644 -0.143501 0.015085 -0.999886 0.000000 0.166504 0.641602 1 0 1.0
0 2.290140 -11.035200 -0.000000 0.011317 -0.999936 0.000000 0.166504 0.641602 1 0 1.0
Default
0 2.290141 -11.035200 -0.339140 0.011317 -0.999936 0.000000 0.166504 0.641602 1 0 1.0
0 5.933813 -11.007693 -0.339140 0.007549 -0.999972 0.000000 0.166504 0.641602 1 0 1.0
0 2.290140 -11.035200 -0.000000 0.011317 -0.999936 0.000000 0.166504 0.641602 1 0 1.0
Default
0 -0.191859 -11.072644 0.143499 0.015085 -0.999886 0.000000 0.166504 0.641602 1 0 1.0
0 -0.191860 -11.072644 -0.000000 0.015085 -0.999886 0.000000 0.166504 0.641602 1 0 1.0
0 2.290140 -11.035200 -0.000000 0.011317 -0.999936 0.000000 0.166504 0.641602 1 0 1.0
Default
0 5.933813 -11.007693 -0.339140 0.007549 -0.999972 0.000000 0.166504 0.641602 1 0 1.0
0 5.933813 -11.007693 -0.000000 0.007549 -0.999972 0.000000 0.166504 0.641602 1 0 1.0
0 2.290140 -11.035200 -0.000000 0.011317 -0.999936 0.000000 0.166504 0.641602 1 0 1.0
Default
0 2.290141 -11.035200 0.339140 0.011317 -0.999936 0.000000 0.166504 0.641602 1 0 1.0
0 -0.191859 -11.072644 0.143499 0.015085 -0.999886 0.000000 0.166504 0.641602 1 0 1.0
0 2.290140 -11.035200 -0.000000 0.011317 -0.999936 0.000000 0.166504 0.641602 1 0 1.0
Default
0 5.933813 -11.007693 -0.000000 0.007549 -0.999972 0.000000 0.166504 0.641602 1 0 1.0
0 5.933813 -11.007693 0.339140 0.007549 -0.999972 0.000000 0.166504 0.641602 1 0 1.0
0 2.290140 -11.035200 -0.000000 0.011317 -0.999936 0.000000 0.166504 0.641602 1 0 1.0
Default
0 5.933813 -11.007693 0.339140 0.007549 -0.999972 0.000000 0.166504 0.641602 1 0 1.0
0 2.290141 -11.035200 0.339140 0.011317 -0.999936 0.000000 0.166504 0.641602 1 0 1.0
0 2.290140 -11.035200 -0.000000 0.011317 -0.999936 0.000000 0.166504 0.641602 1 0 1.0
end
