version 1
nodes
0 "root" -1
end
skeleton
time 0
0 0 0 0 0 0 0
end
triangles
phy
0 -11.4551 -4.5000 -5.9567 0 0 1 0 0 1 0 1.0
0 11.4551 -4.5000 -5.9567 0 0 1 0 0 1 0 1.0
0 11.4551 4.5000 -5.9567 0 0 1 0 0 1 0 1.0
phy
0 -11.4551 -4.5000 -5.9567 0 0 1 0 0 1 0 1.0
0 11.4551 4.5000 -5.9567 0 0 1 0 0 1 0 1.0
0 -11.4551 4.5000 -5.9567 0 0 1 0 0 1 0 1.0
phy
0 -11.4551 -4.5000 5.9567 0 0 1 0 0 1 0 1.0
0 -11.4551 4.5000 5.9567 0 0 1 0 0 1 0 1.0
0 11.4551 4.5000 5.9567 0 0 1 0 0 1 0 1.0
phy
0 -11.4551 -4.5000 5.9567 0 0 1 0 0 1 0 1.0
0 11.4551 4.5000 5.9567 0 0 1 0 0 1 0 1.0
0 11.4551 -4.5000 5.9567 0 0 1 0 0 1 0 1.0
phy
0 -11.4551 -4.5000 -5.9567 0 0 1 0 0 1 0 1.0
0 -11.4551 -4.5000 5.9567 0 0 1 0 0 1 0 1.0
0 11.4551 -4.5000 5.9567 0 0 1 0 0 1 0 1.0
phy
0 -11.4551 -4.5000 -5.9567 0 0 1 0 0 1 0 1.0
0 11.4551 -4.5000 5.9567 0 0 1 0 0 1 0 1.0
0 11.4551 -4.5000 -5.9567 0 0 1 0 0 1 0 1.0
phy
0 11.4551 4.5000 -5.9567 0 0 1 0 0 1 0 1.0
0 11.4551 4.5000 5.9567 0 0 1 0 0 1 0 1.0
0 -11.4551 4.5000 5.9567 0 0 1 0 0 1 0 1.0
phy
0 11.4551 4.5000 -5.9567 0 0 1 0 0 1 0 1.0
0 -11.4551 4.5000 5.9567 0 0 1 0 0 1 0 1.0
0 -11.4551 4.5000 -5.9567 0 0 1 0 0 1 0 1.0
phy
0 -11.4551 -4.5000 -5.9567 0 0 1 0 0 1 0 1.0
0 -11.4551 4.5000 -5.9567 0 0 1 0 0 1 0 1.0
0 -11.4551 4.5000 5.9567 0 0 1 0 0 1 0 1.0
phy
0 -11.4551 -4.5000 -5.9567 0 0 1 0 0 1 0 1.0
0 -11.4551 4.5000 5.9567 0 0 1 0 0 1 0 1.0
0 -11.4551 -4.5000 5.9567 0 0 1 0 0 1 0 1.0
phy
0 11.4551 -4.5000 -5.9567 0 0 1 0 0 1 0 1.0
0 11.4551 -4.5000 5.9567 0 0 1 0 0 1 0 1.0
0 11.4551 4.5000 5.9567 0 0 1 0 0 1 0 1.0
phy
0 11.4551 -4.5000 -5.9567 0 0 1 0 0 1 0 1.0
0 11.4551 4.5000 5.9567 0 0 1 0 0 1 0 1.0
0 11.4551 4.5000 -5.9567 0 0 1 0 0 1 0 1.0
end
