version 1
nodes
0 "root" -1
end
skeleton
time 0
0 0 0 0 0 0 0
end
triangles
phy
0 -26.0348 -8.8590 -9.1621 0 0 1 0 0 1 0 1.0
0 26.0348 -8.8590 -9.1621 0 0 1 0 0 1 0 1.0
0 26.0348 8.8590 -9.1621 0 0 1 0 0 1 0 1.0
phy
0 -26.0348 -8.8590 -9.1621 0 0 1 0 0 1 0 1.0
0 26.0348 8.8590 -9.1621 0 0 1 0 0 1 0 1.0
0 -26.0348 8.8590 -9.1621 0 0 1 0 0 1 0 1.0
phy
0 -26.0348 -8.8590 9.1621 0 0 1 0 0 1 0 1.0
0 -26.0348 8.8590 9.1621 0 0 1 0 0 1 0 1.0
0 26.0348 8.8590 9.1621 0 0 1 0 0 1 0 1.0
phy
0 -26.0348 -8.8590 9.1621 0 0 1 0 0 1 0 1.0
0 26.0348 8.8590 9.1621 0 0 1 0 0 1 0 1.0
0 26.0348 -8.8590 9.1621 0 0 1 0 0 1 0 1.0
phy
0 -26.0348 -8.8590 -9.1621 0 0 1 0 0 1 0 1.0
0 -26.0348 -8.8590 9.1621 0 0 1 0 0 1 0 1.0
0 26.0348 -8.8590 9.1621 0 0 1 0 0 1 0 1.0
phy
0 -26.0348 -8.8590 -9.1621 0 0 1 0 0 1 0 1.0
0 26.0348 -8.8590 9.1621 0 0 1 0 0 1 0 1.0
0 26.0348 -8.8590 -9.1621 0 0 1 0 0 1 0 1.0
phy
0 26.0348 8.8590 -9.1621 0 0 1 0 0 1 0 1.0
0 26.0348 8.8590 9.1621 0 0 1 0 0 1 0 1.0
0 -26.0348 8.8590 9.1621 0 0 1 0 0 1 0 1.0
phy
0 26.0348 8.8590 -9.1621 0 0 1 0 0 1 0 1.0
0 -26.0348 8.8590 9.1621 0 0 1 0 0 1 0 1.0
0 -26.0348 8.8590 -9.1621 0 0 1 0 0 1 0 1.0
phy
0 -26.0348 -8.8590 -9.1621 0 0 1 0 0 1 0 1.0
0 -26.0348 8.8590 -9.1621 0 0 1 0 0 1 0 1.0
0 -26.0348 8.8590 9.1621 0 0 1 0 0 1 0 1.0
phy
0 -26.0348 -8.8590 -9.1621 0 0 1 0 0 1 0 1.0
0 -26.0348 8.8590 9.1621 0 0 1 0 0 1 0 1.0
0 -26.0348 -8.8590 9.1621 0 0 1 0 0 1 0 1.0
phy
0 26.0348 -8.8590 -9.1621 0 0 1 0 0 1 0 1.0
0 26.0348 -8.8590 9.1621 0 0 1 0 0 1 0 1.0
0 26.0348 8.8590 9.1621 0 0 1 0 0 1 0 1.0
phy
0 26.0348 -8.8590 -9.1621 0 0 1 0 0 1 0 1.0
0 26.0348 8.8590 9.1621 0 0 1 0 0 1 0 1.0
0 26.0348 8.8590 -9.1621 0 0 1 0 0 1 0 1.0
end
