version 1
nodes
0 "root" -1
end
skeleton
time 0
0 0 0 0 0 0 0
end
triangles
phy
0 -10.2275 -4.5000 -6.7115 0 0 1 0 0 1 0 1.0
0 10.2275 -4.5000 -6.7115 0 0 1 0 0 1 0 1.0
0 10.2275 4.5000 -6.7115 0 0 1 0 0 1 0 1.0
phy
0 -10.2275 -4.5000 -6.7115 0 0 1 0 0 1 0 1.0
0 10.2275 4.5000 -6.7115 0 0 1 0 0 1 0 1.0
0 -10.2275 4.5000 -6.7115 0 0 1 0 0 1 0 1.0
phy
0 -10.2275 -4.5000 6.7115 0 0 1 0 0 1 0 1.0
0 -10.2275 4.5000 6.7115 0 0 1 0 0 1 0 1.0
0 10.2275 4.5000 6.7115 0 0 1 0 0 1 0 1.0
phy
0 -10.2275 -4.5000 6.7115 0 0 1 0 0 1 0 1.0
0 10.2275 4.5000 6.7115 0 0 1 0 0 1 0 1.0
0 10.2275 -4.5000 6.7115 0 0 1 0 0 1 0 1.0
phy
0 -10.2275 -4.5000 -6.7115 0 0 1 0 0 1 0 1.0
0 -10.2275 -4.5000 6.7115 0 0 1 0 0 1 0 1.0
0 10.2275 -4.5000 6.7115 0 0 1 0 0 1 0 1.0
phy
0 -10.2275 -4.5000 -6.7115 0 0 1 0 0 1 0 1.0
0 10.2275 -4.5000 6.7115 0 0 1 0 0 1 0 1.0
0 10.2275 -4.5000 -6.7115 0 0 1 0 0 1 0 1.0
phy
0 10.2275 4.5000 -6.7115 0 0 1 0 0 1 0 1.0
0 10.2275 4.5000 6.7115 0 0 1 0 0 1 0 1.0
0 -10.2275 4.5000 6.7115 0 0 1 0 0 1 0 1.0
phy
0 10.2275 4.5000 -6.7115 0 0 1 0 0 1 0 1.0
0 -10.2275 4.5000 6.7115 0 0 1 0 0 1 0 1.0
0 -10.2275 4.5000 -6.7115 0 0 1 0 0 1 0 1.0
phy
0 -10.2275 -4.5000 -6.7115 0 0 1 0 0 1 0 1.0
0 -10.2275 4.5000 -6.7115 0 0 1 0 0 1 0 1.0
0 -10.2275 4.5000 6.7115 0 0 1 0 0 1 0 1.0
phy
0 -10.2275 -4.5000 -6.7115 0 0 1 0 0 1 0 1.0
0 -10.2275 4.5000 6.7115 0 0 1 0 0 1 0 1.0
0 -10.2275 -4.5000 6.7115 0 0 1 0 0 1 0 1.0
phy
0 10.2275 -4.5000 -6.7115 0 0 1 0 0 1 0 1.0
0 10.2275 -4.5000 6.7115 0 0 1 0 0 1 0 1.0
0 10.2275 4.5000 6.7115 0 0 1 0 0 1 0 1.0
phy
0 10.2275 -4.5000 -6.7115 0 0 1 0 0 1 0 1.0
0 10.2275 4.5000 6.7115 0 0 1 0 0 1 0 1.0
0 10.2275 4.5000 -6.7115 0 0 1 0 0 1 0 1.0
end
