version 1
nodes
0 "root" -1
end
skeleton
time 0
0 0 0 0 0 0 0
end
triangles
phy
0 -12.0660 -5.6025 -7.2048 0 0 1 0 0 1 0 1.0
0 12.0660 -5.6025 -7.2048 0 0 1 0 0 1 0 1.0
0 12.0660 5.6025 -7.2048 0 0 1 0 0 1 0 1.0
phy
0 -12.0660 -5.6025 -7.2048 0 0 1 0 0 1 0 1.0
0 12.0660 5.6025 -7.2048 0 0 1 0 0 1 0 1.0
0 -12.0660 5.6025 -7.2048 0 0 1 0 0 1 0 1.0
phy
0 -12.0660 -5.6025 7.2048 0 0 1 0 0 1 0 1.0
0 -12.0660 5.6025 7.2048 0 0 1 0 0 1 0 1.0
0 12.0660 5.6025 7.2048 0 0 1 0 0 1 0 1.0
phy
0 -12.0660 -5.6025 7.2048 0 0 1 0 0 1 0 1.0
0 12.0660 5.6025 7.2048 0 0 1 0 0 1 0 1.0
0 12.0660 -5.6025 7.2048 0 0 1 0 0 1 0 1.0
phy
0 -12.0660 -5.6025 -7.2048 0 0 1 0 0 1 0 1.0
0 -12.0660 -5.6025 7.2048 0 0 1 0 0 1 0 1.0
0 12.0660 -5.6025 7.2048 0 0 1 0 0 1 0 1.0
phy
0 -12.0660 -5.6025 -7.2048 0 0 1 0 0 1 0 1.0
0 12.0660 -5.6025 7.2048 0 0 1 0 0 1 0 1.0
0 12.0660 -5.6025 -7.2048 0 0 1 0 0 1 0 1.0
phy
0 12.0660 5.6025 -7.2048 0 0 1 0 0 1 0 1.0
0 12.0660 5.6025 7.2048 0 0 1 0 0 1 0 1.0
0 -12.0660 5.6025 7.2048 0 0 1 0 0 1 0 1.0
phy
0 12.0660 5.6025 -7.2048 0 0 1 0 0 1 0 1.0
0 -12.0660 5.6025 7.2048 0 0 1 0 0 1 0 1.0
0 -12.0660 5.6025 -7.2048 0 0 1 0 0 1 0 1.0
phy
0 -12.0660 -5.6025 -7.2048 0 0 1 0 0 1 0 1.0
0 -12.0660 5.6025 -7.2048 0 0 1 0 0 1 0 1.0
0 -12.0660 5.6025 7.2048 0 0 1 0 0 1 0 1.0
phy
0 -12.0660 -5.6025 -7.2048 0 0 1 0 0 1 0 1.0
0 -12.0660 5.6025 7.2048 0 0 1 0 0 1 0 1.0
0 -12.0660 -5.6025 7.2048 0 0 1 0 0 1 0 1.0
phy
0 12.0660 -5.6025 -7.2048 0 0 1 0 0 1 0 1.0
0 12.0660 -5.6025 7.2048 0 0 1 0 0 1 0 1.0
0 12.0660 5.6025 7.2048 0 0 1 0 0 1 0 1.0
phy
0 12.0660 -5.6025 -7.2048 0 0 1 0 0 1 0 1.0
0 12.0660 5.6025 7.2048 0 0 1 0 0 1 0 1.0
0 12.0660 5.6025 -7.2048 0 0 1 0 0 1 0 1.0
end
