version 1
nodes
0 "root" -1
end
skeleton
time 0
0 0 0 0 0 0 0
end
triangles
Default
0 11.553164 -1.015451 5.526987 0.212891 -0.975586 0.057037 0.983887 0.579102 1 0 1.0
0 12.039117 -1.015451 3.713381 0.212891 -0.975586 0.057037 0.983887 0.579102 1 0 1.0
0 15.038247 -0.321497 4.385340 0.212891 -0.975586 0.057037 0.983887 0.579102 1 0 1.0
Default
0 5.051886 -1.614351 2.068421 -0.000000 -1.000000 0.000000 0.988281 0.708984 1 0 1.0
0 1.568631 -1.614351 1.207276 -0.000000 -1.000000 0.000000 0.988281 0.708984 1 0 1.0
0 5.886284 -1.614351 -1.045595 -0.000000 -1.000000 0.000000 0.988281 0.708984 1 0 1.0
Default
0 8.517390 -1.371939 2.995815 0.082520 -0.996582 0.022110 0.982422 0.669922 1 0 1.0
0 5.051886 -1.614351 2.068421 0.065125 -0.997559 0.017456 0.982422 0.669922 1 0 1.0
0 9.304647 -1.371939 0.057734 0.075256 -0.997070 0.020172 0.982422 0.669922 1 0 1.0
Default
0 12.039117 -1.015451 3.713381 0.095520 -0.995117 0.025589 0.983398 0.640137 1 0 1.0
0 8.517390 -1.371939 2.995815 0.082520 -0.996582 0.022110 0.983398 0.640137 1 0 1.0
0 12.556631 -1.015451 1.781993 0.095520 -0.995117 0.025589 0.983398 0.640137 1 0 1.0
Default
0 12.039117 -1.015451 3.713381 0.212891 -0.975586 0.057037 0.984863 0.610840 1 0 1.0
0 12.556631 -1.015451 1.781993 0.212891 -0.975586 0.057037 0.984863 0.610840 1 0 1.0
0 15.038247 -0.321497 4.385340 0.212891 -0.975586 0.057037 0.984863 0.610840 1 0 1.0
Default
0 -1.086356 -0.884954 -2.745009 -0.043396 -0.771484 -0.634766 0.982910 0.823242 1 0 1.0
0 -1.328366 -1.614351 -1.841816 -0.043396 -0.771484 -0.634766 0.982910 0.823242 1 0 1.0
0 -5.243596 -0.765465 -2.605954 -0.043396 -0.771484 -0.634766 0.982910 0.823242 1 0 1.0
Default
0 2.622029 -0.884954 -2.724061 0.001902 -0.774902 -0.632324 0.983398 0.860352 1 0 1.0
0 -1.328366 -1.614351 -1.841816 0.001902 -0.774902 -0.632324 0.983398 0.860352 1 0 1.0
0 -1.086356 -0.884954 -2.745009 0.003546 -0.778320 -0.627930 0.983398 0.860352 1 0 1.0
Default
0 6.101936 -0.884954 -1.850420 0.151855 -0.781738 -0.604492 0.982422 0.827148 1 0 1.0
0 2.385230 -1.614351 -1.840315 0.151855 -0.781738 -0.604492 0.982422 0.827148 1 0 1.0
0 2.622029 -0.884954 -2.724061 0.151855 -0.781738 -0.604492 0.982422 0.827148 1 0 1.0
Default
0 9.528252 -0.642542 -0.776772 0.246460 -0.755859 -0.606445 0.985840 0.797852 1 0 1.0
0 5.886284 -1.614351 -1.045595 0.246460 -0.755859 -0.606445 0.985840 0.797852 1 0 1.0
0 6.101936 -0.884954 -1.850420 0.245483 -0.750000 -0.614258 0.985840 0.797852 1 0 1.0
Default
0 12.786332 -0.286053 0.924733 0.370361 -0.750000 -0.547852 0.978516 0.733887 1 0 1.0
0 9.304647 -1.371939 0.057734 0.370361 -0.750000 -0.547852 0.978516 0.733887 1 0 1.0
0 9.528252 -0.642542 -0.776772 0.370361 -0.746094 -0.553223 0.978516 0.733887 1 0 1.0
Default
0 -8.637376 -0.399733 1.145573 -0.436279 -0.767578 0.469727 0.987793 0.639160 1 0 1.0
0 -6.092202 -1.499476 1.712645 -0.436279 -0.767578 0.469727 0.987793 0.639160 1 0 1.0
0 -6.291465 -0.765465 2.726709 -0.436279 -0.767578 0.469727 0.987793 0.639160 1 0 1.0
Default
0 4.121080 -1.614351 5.542236 0.065125 -0.997559 0.017456 0.984375 0.682129 1 0 1.0
0 5.051886 -1.614351 2.068421 0.065125 -0.997559 0.017456 0.984375 0.682129 1 0 1.0
0 8.517390 -1.371939 2.995815 0.082520 -0.996582 0.022110 0.984375 0.682129 1 0 1.0
Default
0 -5.443666 -1.499476 -1.587792 -0.058960 -0.804199 -0.591309 0.982910 0.823242 1 0 1.0
0 -5.243596 -0.765465 -2.605954 -0.058960 -0.804199 -0.591309 0.982910 0.823242 1 0 1.0
0 -1.328366 -1.614351 -1.841816 -0.058960 -0.804199 -0.591309 0.982910 0.823242 1 0 1.0
Default
0 -1.971116 -1.614351 0.556958 -0.014603 -1.000000 -0.003342 0.984375 0.731445 1 0 1.0
0 -1.328366 -1.614351 -1.841816 -0.014191 -1.000000 -0.003801 0.987305 0.733887 1 0 1.0
0 2.385230 -1.614351 -1.840315 -0.000000 -1.000000 0.000000 0.987305 0.733887 1 0 1.0
Default
0 -1.971116 -1.614351 0.556958 -0.014603 -1.000000 -0.003342 0.984375 0.731445 1 0 1.0
0 2.385230 -1.614351 -1.840315 -0.000000 -1.000000 0.000000 0.987305 0.736328 1 0 1.0
0 1.568631 -1.614351 1.207276 -0.000000 -1.000000 0.000000 0.984375 0.731445 1 0 1.0
Default
0 -1.971116 -1.614351 0.556958 -0.014603 -1.000000 -0.003342 0.984375 0.731445 1 0 1.0
0 -5.443666 -1.499476 -1.587792 -0.028931 -0.999512 -0.006699 0.984375 0.731445 1 0 1.0
0 -1.328366 -1.614351 -1.841816 -0.014191 -1.000000 -0.003801 0.984375 0.731445 1 0 1.0
Default
0 -1.971116 -1.614351 0.556958 -0.014603 -1.000000 -0.003342 0.984375 0.731445 1 0 1.0
0 -5.703756 -1.499476 -0.264174 -0.029602 -0.999512 -0.006222 0.984375 0.731445 1 0 1.0
0 -5.443666 -1.499476 -1.587792 -0.028931 -0.999512 -0.006699 0.984375 0.731445 1 0 1.0
Default
0 -5.703756 -1.499476 -0.264174 -0.029602 -0.999512 -0.006222 0.984375 0.731445 1 0 1.0
0 -1.971116 -1.614351 0.556958 -0.014603 -1.000000 -0.003342 0.984375 0.731445 1 0 1.0
0 -2.295695 -1.614351 1.768303 -0.014961 -1.000000 -0.003681 0.984375 0.731445 1 0 1.0
Default
0 -2.295695 -1.614351 1.768303 -0.014961 -1.000000 -0.003681 0.984375 0.731445 1 0 1.0
0 -1.971116 -1.614351 0.556958 -0.014603 -1.000000 -0.003342 0.984375 0.731445 1 0 1.0
0 1.568631 -1.614351 1.207276 -0.000000 -1.000000 0.000000 0.985352 0.731445 1 0 1.0
Default
0 -6.092202 -1.499476 1.712645 -0.029922 -0.999512 -0.007359 0.984375 0.731445 1 0 1.0
0 -5.703756 -1.499476 -0.264174 -0.029602 -0.999512 -0.006222 0.984375 0.731445 1 0 1.0
0 -2.295695 -1.614351 1.768303 -0.014961 -1.000000 -0.003681 0.984375 0.731445 1 0 1.0
Default
0 -8.637376 -0.399733 1.145573 -0.437012 -0.815430 0.380127 0.984375 0.731445 1 0 1.0
0 -8.316932 -1.129130 -0.050337 -0.437012 -0.815430 0.380127 0.984375 0.731445 1 0 1.0
0 -6.092202 -1.499476 1.712645 -0.437012 -0.815430 0.380127 0.984375 0.731445 1 0 1.0
Default
0 4.121080 -1.614351 5.542236 0.065125 -0.997559 0.017456 0.990234 0.641602 1 0 1.0
0 8.517390 -1.371939 2.995815 0.082520 -0.996582 0.022110 0.990234 0.641602 1 0 1.0
0 7.749839 -1.371939 5.860356 0.080322 -0.996582 0.021530 0.990234 0.641602 1 0 1.0
Default
0 0.608275 -1.614351 4.791371 -0.000000 -1.000000 0.000000 0.987793 0.668945 1 0 1.0
0 -2.734601 -1.614351 3.406322 -0.010040 -1.000000 -0.002691 0.986816 0.673828 1 0 1.0
0 1.055274 -1.614351 3.123148 -0.000000 -1.000000 0.000000 0.987793 0.668945 1 0 1.0
Default
0 12.786332 -0.286053 0.924733 0.370361 -0.750000 -0.547852 0.982422 0.668457 1 0 1.0
0 12.556631 -1.015451 1.781993 0.370361 -0.753906 -0.542480 0.982422 0.668457 1 0 1.0
0 9.304647 -1.371939 0.057734 0.370361 -0.750000 -0.547852 0.982422 0.668457 1 0 1.0
Default
0 5.886284 -1.614351 -1.045595 0.065125 -0.997559 0.017456 0.982422 0.701660 1 0 1.0
0 9.304647 -1.371939 0.057734 0.075256 -0.997070 0.020172 0.982422 0.701660 1 0 1.0
0 5.051886 -1.614351 2.068421 0.065125 -0.997559 0.017456 0.982422 0.701660 1 0 1.0
Default
0 2.385230 -1.614351 -1.840315 -0.000000 -1.000000 0.000000 0.987305 0.734863 1 0 1.0
0 5.886284 -1.614351 -1.045595 -0.000000 -1.000000 0.000000 0.987305 0.734863 1 0 1.0
0 1.568631 -1.614351 1.207276 -0.000000 -1.000000 0.000000 0.987305 0.734863 1 0 1.0
Default
0 9.528252 -0.642542 -0.776772 0.246460 -0.755859 -0.606445 0.978516 0.734863 1 0 1.0
0 9.304647 -1.371939 0.057734 0.247437 -0.761230 -0.599121 0.978516 0.734863 1 0 1.0
0 5.886284 -1.614351 -1.045595 0.246460 -0.755859 -0.606445 0.978516 0.734863 1 0 1.0
Default
0 6.101936 -0.884954 -1.850420 0.145874 -0.751953 -0.642578 0.985840 0.797852 1 0 1.0
0 5.886284 -1.614351 -1.045595 0.145874 -0.751953 -0.642578 0.985840 0.797852 1 0 1.0
0 2.385230 -1.614351 -1.840315 0.145874 -0.751953 -0.642578 0.985840 0.797852 1 0 1.0
Default
0 2.622029 -0.884954 -2.724061 0.001902 -0.774902 -0.632324 0.982422 0.827148 1 0 1.0
0 2.385230 -1.614351 -1.840315 0.000257 -0.771484 -0.636719 0.982422 0.827148 1 0 1.0
0 -1.328366 -1.614351 -1.841816 0.001902 -0.774902 -0.632324 0.982422 0.827148 1 0 1.0
Default
0 9.304647 -1.371939 0.057734 0.075256 -0.997070 0.020172 0.988281 0.668457 1 0 1.0
0 12.556631 -1.015451 1.781993 0.095520 -0.995117 0.025589 0.988281 0.668457 1 0 1.0
0 8.517390 -1.371939 2.995815 0.082520 -0.996582 0.022110 0.988281 0.668457 1 0 1.0
Default
0 1.055274 -1.614351 3.123148 -0.000000 -1.000000 0.000000 0.984375 0.702148 1 0 1.0
0 1.568631 -1.614351 1.207276 -0.000000 -1.000000 0.000000 0.984375 0.702148 1 0 1.0
0 5.051886 -1.614351 2.068421 -0.000000 -1.000000 0.000000 0.989258 0.707031 1 0 1.0
Default
0 -11.955389 -0.201684 -6.689169 -0.305420 -0.884766 -0.352051 0.986328 0.763672 1 0 1.0
0 -12.068130 -0.485471 -5.878072 -0.305420 -0.884766 -0.352051 0.986328 0.763672 1 0 1.0
0 -12.848718 -0.201684 -5.914122 -0.305420 -0.884766 -0.352051 0.986328 0.763672 1 0 1.0
Default
0 -14.564793 -0.201684 1.632990 -0.429443 -0.881836 0.195435 0.986328 0.763672 1 0 1.0
0 -15.038247 -0.201684 0.592576 -0.429443 -0.881836 0.195435 0.986328 0.763672 1 0 1.0
0 -14.281758 -0.485470 0.974921 -0.429443 -0.881836 0.195435 0.986328 0.763672 1 0 1.0
Default
0 12.039117 1.015451 3.713381 0.212891 0.975586 0.057037 0.983887 0.579102 1 0 1.0
0 11.553164 1.015451 5.526987 0.212891 0.975586 0.057037 0.983887 0.579102 1 0 1.0
0 15.038247 0.321497 4.385340 0.212891 0.975586 0.057037 0.983887 0.579102 1 0 1.0
Default
0 1.568631 1.614351 1.207276 -0.000000 1.000000 0.000000 0.988281 0.708984 1 0 1.0
0 5.051886 1.614351 2.068421 -0.000000 1.000000 0.000000 0.988281 0.708984 1 0 1.0
0 5.886284 1.614351 -1.045595 -0.000000 1.000000 0.000000 0.988281 0.708984 1 0 1.0
Default
0 5.051886 1.614351 2.068421 0.065125 0.997559 0.017456 0.982422 0.669922 1 0 1.0
0 8.517390 1.371939 2.995815 0.082520 0.996582 0.022110 0.982422 0.669922 1 0 1.0
0 9.304647 1.371939 0.057734 0.075256 0.997070 0.020172 0.982422 0.669922 1 0 1.0
Default
0 8.517390 1.371939 2.995815 0.082520 0.996582 0.022110 0.983398 0.640137 1 0 1.0
0 12.039117 1.015451 3.713381 0.095520 0.995117 0.025589 0.983398 0.640137 1 0 1.0
0 12.556631 1.015451 1.781993 0.095520 0.995117 0.025589 0.983398 0.640137 1 0 1.0
Default
0 12.556631 1.015451 1.781993 0.212891 0.975586 0.057037 0.984863 0.610840 1 0 1.0
0 12.039117 1.015451 3.713381 0.212891 0.975586 0.057037 0.984863 0.610840 1 0 1.0
0 15.038247 0.321497 4.385340 0.212891 0.975586 0.057037 0.984863 0.610840 1 0 1.0
Default
0 -1.328366 1.614351 -1.841816 -0.043396 0.771484 -0.634766 0.982910 0.823242 1 0 1.0
0 -1.086356 0.884953 -2.745009 -0.043396 0.771484 -0.634766 0.982910 0.823242 1 0 1.0
0 -5.243596 0.765465 -2.605954 -0.043396 0.771484 -0.634766 0.982910 0.823242 1 0 1.0
Default
0 -1.328366 1.614351 -1.841816 0.001902 0.774902 -0.632324 0.983398 0.860352 1 0 1.0
0 2.622029 0.884954 -2.724061 0.001902 0.774902 -0.632324 0.983398 0.860352 1 0 1.0
0 -1.086356 0.884953 -2.745009 0.003546 0.778320 -0.627930 0.983398 0.860352 1 0 1.0
Default
0 2.385230 1.614351 -1.840315 0.151855 0.781738 -0.604492 0.982422 0.827148 1 0 1.0
0 6.101936 0.884954 -1.850420 0.151855 0.781738 -0.604492 0.982422 0.827148 1 0 1.0
0 2.622029 0.884954 -2.724061 0.151855 0.781738 -0.604492 0.982422 0.827148 1 0 1.0
Default
0 5.886284 1.614351 -1.045595 0.246460 0.755859 -0.606445 0.985840 0.797852 1 0 1.0
0 9.528252 0.642542 -0.776772 0.246460 0.755859 -0.606445 0.985840 0.797852 1 0 1.0
0 6.101936 0.884954 -1.850420 0.245483 0.750000 -0.614258 0.985840 0.797852 1 0 1.0
Default
0 9.304647 1.371939 0.057734 0.370361 0.750000 -0.547852 0.978516 0.733887 1 0 1.0
0 12.786332 0.286053 0.924733 0.370361 0.750000 -0.547852 0.978516 0.733887 1 0 1.0
0 9.528252 0.642542 -0.776772 0.370361 0.746094 -0.553223 0.978516 0.733887 1 0 1.0
Default
0 -6.092202 1.499476 1.712645 -0.436279 0.767578 0.469727 0.987793 0.639160 1 0 1.0
0 -8.637376 0.399733 1.145573 -0.436279 0.767578 0.469727 0.987793 0.639160 1 0 1.0
0 -6.291465 0.765465 2.726709 -0.436279 0.767578 0.469727 0.987793 0.639160 1 0 1.0
Default
0 5.051886 1.614351 2.068421 0.065125 0.997559 0.017456 0.984375 0.682129 1 0 1.0
0 4.121080 1.614351 5.542236 0.065125 0.997559 0.017456 0.984375 0.682129 1 0 1.0
0 8.517390 1.371939 2.995815 0.082520 0.996582 0.022110 0.984375 0.682129 1 0 1.0
Default
0 -5.243596 0.765465 -2.605954 -0.058960 0.804199 -0.591309 0.982910 0.823242 1 0 1.0
0 -5.443666 1.499476 -1.587792 -0.058960 0.804199 -0.591309 0.982910 0.823242 1 0 1.0
0 -1.328366 1.614351 -1.841816 -0.058960 0.804199 -0.591309 0.982910 0.823242 1 0 1.0
Default
0 -1.328366 1.614351 -1.841816 -0.014191 1.000000 -0.003801 0.987305 0.733887 1 0 1.0
0 -1.971116 1.614351 0.556958 -0.014603 1.000000 -0.003342 0.984375 0.731445 1 0 1.0
0 2.385230 1.614351 -1.840315 -0.000000 1.000000 0.000000 0.987305 0.733887 1 0 1.0
Default
0 2.385230 1.614351 -1.840315 -0.000000 1.000000 0.000000 0.987305 0.736328 1 0 1.0
0 -1.971116 1.614351 0.556958 -0.014603 1.000000 -0.003342 0.984375 0.731445 1 0 1.0
0 1.568631 1.614351 1.207276 -0.000000 1.000000 0.000000 0.984375 0.731445 1 0 1.0
Default
0 -5.443666 1.499476 -1.587792 -0.028931 0.999512 -0.006699 0.984375 0.731445 1 0 1.0
0 -1.971116 1.614351 0.556958 -0.014603 1.000000 -0.003342 0.984375 0.731445 1 0 1.0
0 -1.328366 1.614351 -1.841816 -0.014191 1.000000 -0.003801 0.984375 0.731445 1 0 1.0
Default
0 -5.703756 1.499476 -0.264174 -0.029602 0.999512 -0.006222 0.984375 0.731445 1 0 1.0
0 -1.971116 1.614351 0.556958 -0.014603 1.000000 -0.003342 0.984375 0.731445 1 0 1.0
0 -5.443666 1.499476 -1.587792 -0.028931 0.999512 -0.006699 0.984375 0.731445 1 0 1.0
Default
0 -1.971116 1.614351 0.556958 -0.014603 1.000000 -0.003342 0.984375 0.731445 1 0 1.0
0 -5.703756 1.499476 -0.264174 -0.029602 0.999512 -0.006222 0.984375 0.731445 1 0 1.0
0 -2.295695 1.614351 1.768303 -0.014961 1.000000 -0.003681 0.984375 0.731445 1 0 1.0
Default
0 -1.971116 1.614351 0.556958 -0.014603 1.000000 -0.003342 0.984375 0.731445 1 0 1.0
0 -2.295695 1.614351 1.768303 -0.014961 1.000000 -0.003681 0.984375 0.731445 1 0 1.0
0 1.568631 1.614351 1.207276 -0.000000 1.000000 0.000000 0.985352 0.731445 1 0 1.0
Default
0 -5.703756 1.499476 -0.264174 -0.029602 0.999512 -0.006222 0.984375 0.731445 1 0 1.0
0 -6.092202 1.499476 1.712645 -0.029922 0.999512 -0.007359 0.984375 0.731445 1 0 1.0
0 -2.295695 1.614351 1.768303 -0.014961 1.000000 -0.003681 0.984375 0.731445 1 0 1.0
Default
0 -8.316932 1.129130 -0.050337 -0.437012 0.815430 0.380127 0.984375 0.731445 1 0 1.0
0 -8.637376 0.399733 1.145573 -0.437012 0.815430 0.380127 0.984375 0.731445 1 0 1.0
0 -6.092202 1.499476 1.712645 -0.437012 0.815430 0.380127 0.984375 0.731445 1 0 1.0
Default
0 8.517390 1.371939 2.995815 0.082520 0.996582 0.022110 0.990234 0.641602 1 0 1.0
0 4.121080 1.614351 5.542236 0.065125 0.997559 0.017456 0.990234 0.641602 1 0 1.0
0 7.749839 1.371939 5.860356 0.080322 0.996582 0.021530 0.990234 0.641602 1 0 1.0
Default
0 -2.734601 1.614351 3.406322 -0.010040 1.000000 -0.002691 0.986816 0.673828 1 0 1.0
0 0.608275 1.614351 4.791371 -0.000000 1.000000 0.000000 0.987793 0.668945 1 0 1.0
0 1.055274 1.614351 3.123148 -0.000000 1.000000 0.000000 0.987793 0.668945 1 0 1.0
Default
0 12.556631 1.015451 1.781993 0.370361 0.753906 -0.542480 0.982422 0.668457 1 0 1.0
0 12.786332 0.286053 0.924733 0.370361 0.750000 -0.547852 0.982422 0.668457 1 0 1.0
0 9.304647 1.371939 0.057734 0.370361 0.750000 -0.547852 0.982422 0.668457 1 0 1.0
Default
0 9.304647 1.371939 0.057734 0.075256 0.997070 0.020172 0.982422 0.701660 1 0 1.0
0 5.886284 1.614351 -1.045595 0.065125 0.997559 0.017456 0.982422 0.701660 1 0 1.0
0 5.051886 1.614351 2.068421 0.065125 0.997559 0.017456 0.982422 0.701660 1 0 1.0
Default
0 5.886284 1.614351 -1.045595 -0.000000 1.000000 0.000000 0.987305 0.734863 1 0 1.0
0 2.385230 1.614351 -1.840315 -0.000000 1.000000 0.000000 0.987305 0.734863 1 0 1.0
0 1.568631 1.614351 1.207276 -0.000000 1.000000 0.000000 0.987305 0.734863 1 0 1.0
Default
0 9.304647 1.371939 0.057734 0.247437 0.761230 -0.599121 0.978516 0.734863 1 0 1.0
0 9.528252 0.642542 -0.776772 0.246460 0.755859 -0.606445 0.978516 0.734863 1 0 1.0
0 5.886284 1.614351 -1.045595 0.246460 0.755859 -0.606445 0.978516 0.734863 1 0 1.0
Default
0 5.886284 1.614351 -1.045595 0.145874 0.751953 -0.642578 0.985840 0.797852 1 0 1.0
0 6.101936 0.884954 -1.850420 0.145874 0.751953 -0.642578 0.985840 0.797852 1 0 1.0
0 2.385230 1.614351 -1.840315 0.145874 0.751953 -0.642578 0.985840 0.797852 1 0 1.0
Default
0 2.385230 1.614351 -1.840315 0.000257 0.771484 -0.636719 0.982422 0.827148 1 0 1.0
0 2.622029 0.884954 -2.724061 0.001902 0.774902 -0.632324 0.982422 0.827148 1 0 1.0
0 -1.328366 1.614351 -1.841816 0.001902 0.774902 -0.632324 0.982422 0.827148 1 0 1.0
Default
0 12.556631 1.015451 1.781993 0.095520 0.995117 0.025589 0.988281 0.668457 1 0 1.0
0 9.304647 1.371939 0.057734 0.075256 0.997070 0.020172 0.988281 0.668457 1 0 1.0
0 8.517390 1.371939 2.995815 0.082520 0.996582 0.022110 0.988281 0.668457 1 0 1.0
Default
0 1.568631 1.614351 1.207276 -0.000000 1.000000 0.000000 0.984375 0.702148 1 0 1.0
0 1.055274 1.614351 3.123148 -0.000000 1.000000 0.000000 0.984375 0.702148 1 0 1.0
0 5.051886 1.614351 2.068421 -0.000000 1.000000 0.000000 0.989258 0.707031 1 0 1.0
Default
0 -12.068130 0.485471 -5.878072 -0.305420 0.884766 -0.352051 0.986328 0.763672 1 0 1.0
0 -11.955389 0.201684 -6.689169 -0.305420 0.884766 -0.352051 0.986328 0.763672 1 0 1.0
0 -12.848718 0.201684 -5.914122 -0.305420 0.884766 -0.352051 0.986328 0.763672 1 0 1.0
Default
0 -15.038247 0.201684 0.592576 -0.429443 0.881836 0.195435 0.986328 0.763672 1 0 1.0
0 -14.564793 0.201684 1.632990 -0.429443 0.881836 0.195435 0.986328 0.763672 1 0 1.0
0 -14.281758 0.485470 0.974921 -0.429443 0.881836 0.195435 0.986328 0.763672 1 0 1.0
Default
0 -14.564793 -0.201684 1.632990 0.252441 0.000000 0.967773 0.986328 0.639648 1 0 1.0
0 -12.447416 -0.191781 1.080499 0.252441 0.000000 0.967773 0.986328 0.639648 1 0 1.0
0 -12.447416 -0.000000 1.080499 0.252441 0.000000 0.967773 0.986328 0.639648 1 0 1.0
Default
0 -14.564793 -0.000000 1.632990 0.252441 0.000000 0.967773 0.986328 0.639648 1 0 1.0
0 -14.564793 -0.201684 1.632990 0.252441 0.000000 0.967773 0.986328 0.639648 1 0 1.0
0 -12.447416 -0.000000 1.080499 0.252441 0.000000 0.967773 0.986328 0.639648 1 0 1.0
Default
0 -14.564793 0.201684 1.632990 0.252441 0.000000 0.967773 0.986328 0.639648 1 0 1.0
0 -14.564793 -0.000000 1.632990 0.252441 0.000000 0.967773 0.986328 0.639648 1 0 1.0
0 -12.447416 -0.000000 1.080499 0.252441 0.000000 0.967773 0.986328 0.639648 1 0 1.0
Default
0 -12.447416 0.191781 1.080499 0.252441 0.000000 0.967773 0.986328 0.639648 1 0 1.0
0 -14.564793 0.201684 1.632990 0.252441 0.000000 0.967773 0.986328 0.639648 1 0 1.0
0 -12.447416 -0.000000 1.080499 0.252441 0.000000 0.967773 0.986328 0.639648 1 0 1.0
Default
0 -9.403111 -0.221489 -3.286895 0.829590 0.000000 -0.558105 0.986328 0.580566 1 0 1.0
0 -10.622099 -0.191781 -5.098172 0.829590 0.000000 -0.558105 0.986328 0.580566 1 0 1.0
0 -10.622099 -0.000000 -5.098172 0.829590 0.000000 -0.558105 0.986328 0.580566 1 0 1.0
Default
0 -9.403111 -0.000000 -3.286895 0.829590 0.000000 -0.558105 0.986328 0.580566 1 0 1.0
0 -9.403111 -0.221489 -3.286895 0.829590 0.000000 -0.558105 0.986328 0.580566 1 0 1.0
0 -10.622099 -0.000000 -5.098172 0.829590 0.000000 -0.558105 0.986328 0.580566 1 0 1.0
Default
0 -9.403111 0.221489 -3.286895 0.829590 0.000000 -0.558105 0.986328 0.580566 1 0 1.0
0 -9.403111 -0.000000 -3.286895 0.829590 0.000000 -0.558105 0.986328 0.580566 1 0 1.0
0 -10.622099 -0.000000 -5.098172 0.829590 0.000000 -0.558105 0.986328 0.580566 1 0 1.0
Default
0 -10.622099 0.191781 -5.098172 0.829590 0.000000 -0.558105 0.986328 0.580566 1 0 1.0
0 -9.403111 0.221489 -3.286895 0.829590 0.000000 -0.558105 0.986328 0.580566 1 0 1.0
0 -10.622099 -0.000000 -5.098172 0.829590 0.000000 -0.558105 0.986328 0.580566 1 0 1.0
Default
0 -15.038247 -0.201684 0.592576 -0.722656 0.000000 -0.691406 0.986328 0.763672 1 0 1.0
0 -15.038247 -0.000000 0.592576 -0.722656 0.000000 -0.691406 0.986328 0.763672 1 0 1.0
0 -12.236553 -0.201684 -2.334893 -0.722656 0.000000 -0.691406 0.986328 0.763672 1 0 1.0
Default
0 -15.038247 -0.000000 0.592576 -0.722656 0.000000 -0.691406 0.986328 0.763672 1 0 1.0
0 -12.236553 -0.000000 -2.334893 -0.722656 0.000000 -0.691406 0.986328 0.763672 1 0 1.0
0 -12.236553 -0.201684 -2.334893 -0.722656 0.000000 -0.691406 0.986328 0.763672 1 0 1.0
Default
0 -12.236553 -0.000000 -2.334893 -0.722656 0.000000 -0.691406 0.986328 0.763672 1 0 1.0
0 -15.038247 -0.000000 0.592576 -0.722656 0.000000 -0.691406 0.986328 0.763672 1 0 1.0
0 -12.236553 0.201684 -2.334893 -0.722656 0.000000 -0.691406 0.986328 0.763672 1 0 1.0
Default
0 -15.038247 -0.000000 0.592576 -0.722656 0.000000 -0.691406 0.986328 0.763672 1 0 1.0
0 -15.038247 0.201684 0.592576 -0.722656 0.000000 -0.691406 0.986328 0.763672 1 0 1.0
0 -12.236553 0.201684 -2.334893 -0.722656 0.000000 -0.691406 0.986328 0.763672 1 0 1.0
Default
0 11.324128 -0.286053 6.381763 0.347900 0.000000 0.937500 0.983887 0.579102 1 0 1.0
0 14.420693 -0.141136 5.232484 0.347900 0.000000 0.937500 0.983887 0.579102 1 0 1.0
0 14.420693 -0.000000 5.232484 0.347900 0.000000 0.937500 0.983887 0.579102 1 0 1.0
Default
0 11.324128 -0.000000 6.381763 0.347900 0.000000 0.937500 0.983887 0.579102 1 0 1.0
0 11.324128 -0.286053 6.381763 0.347900 0.000000 0.937500 0.983887 0.579102 1 0 1.0
0 14.420693 -0.000000 5.232484 0.347900 0.000000 0.937500 0.983887 0.579102 1 0 1.0
Default
0 11.324128 0.286053 6.381763 0.347900 0.000000 0.937500 0.983887 0.579102 1 0 1.0
0 11.324128 -0.000000 6.381763 0.347900 0.000000 0.937500 0.983887 0.579102 1 0 1.0
0 14.420693 -0.000000 5.232484 0.347900 0.000000 0.937500 0.983887 0.579102 1 0 1.0
Default
0 14.420693 0.141136 5.232484 0.347900 0.000000 0.937500 0.983887 0.579102 1 0 1.0
0 11.324128 0.286053 6.381763 0.347900 0.000000 0.937500 0.983887 0.579102 1 0 1.0
0 14.420693 -0.000000 5.232484 0.347900 0.000000 0.937500 0.983887 0.579102 1 0 1.0
Default
0 15.038247 -0.321497 4.385340 0.994141 0.000000 -0.106140 0.983887 0.579102 1 0 1.0
0 14.927003 -0.141136 3.342915 0.994141 0.000000 -0.106140 0.983887 0.579102 1 0 1.0
0 14.927003 -0.000000 3.342915 0.994141 0.000000 -0.106140 0.983887 0.579102 1 0 1.0
Default
0 15.038244 -0.000000 4.385340 0.994141 0.000000 -0.106140 0.983887 0.579102 1 0 1.0
0 15.038247 -0.321497 4.385340 0.994141 0.000000 -0.106140 0.983887 0.579102 1 0 1.0
0 14.927003 -0.000000 3.342915 0.994141 0.000000 -0.106140 0.983887 0.579102 1 0 1.0
Default
0 15.038247 0.321497 4.385340 0.994141 0.000000 -0.106140 0.983887 0.579102 1 0 1.0
0 15.038244 -0.000000 4.385340 0.994141 0.000000 -0.106140 0.983887 0.579102 1 0 1.0
0 14.927003 -0.000000 3.342915 0.994141 0.000000 -0.106140 0.983887 0.579102 1 0 1.0
Default
0 14.927003 0.141136 3.342915 0.994141 0.000000 -0.106140 0.983887 0.579102 1 0 1.0
0 15.038247 0.321497 4.385340 0.994141 0.000000 -0.106140 0.983887 0.579102 1 0 1.0
0 14.927003 -0.000000 3.342915 0.994141 0.000000 -0.106140 0.983887 0.579102 1 0 1.0
Default
0 -6.092202 -1.499476 1.712645 -0.029922 -0.999512 -0.007359 0.982910 0.707031 1 0 1.0
0 -2.295695 -1.614351 1.768303 -0.014961 -1.000000 -0.003681 0.982910 0.707031 1 0 1.0
0 -2.734601 -1.614351 3.406322 -0.010040 -1.000000 -0.002691 0.982910 0.707031 1 0 1.0
Default
0 -2.295695 -1.614351 1.768303 -0.014961 -1.000000 -0.003681 0.982910 0.707031 1 0 1.0
0 1.568631 -1.614351 1.207276 -0.000000 -1.000000 0.000000 0.984375 0.702148 1 0 1.0
0 -2.734601 -1.614351 3.406322 -0.010040 -1.000000 -0.002691 0.982910 0.707031 1 0 1.0
Default
0 1.568631 -1.614351 1.207276 -0.000000 -1.000000 0.000000 0.984375 0.702148 1 0 1.0
0 1.055274 -1.614351 3.123148 -0.000000 -1.000000 0.000000 0.984375 0.702148 1 0 1.0
0 -2.734601 -1.614351 3.406322 -0.010040 -1.000000 -0.002691 0.982910 0.707031 1 0 1.0
Default
0 -10.400502 -0.221489 0.435424 -0.373535 0.000000 0.927734 0.986328 0.777344 1 0 1.0
0 -8.637376 -0.399733 1.145573 -0.373535 0.000000 0.927734 0.986328 0.777344 1 0 1.0
0 -8.637376 -0.000000 1.145573 -0.373535 0.000000 0.927734 0.986328 0.777344 1 0 1.0
Default
0 -10.400502 -0.000000 0.435424 -0.373535 0.000000 0.927734 0.986328 0.777344 1 0 1.0
0 -10.400502 -0.221489 0.435424 -0.373535 0.000000 0.927734 0.986328 0.777344 1 0 1.0
0 -8.637376 -0.000000 1.145573 -0.373535 0.000000 0.927734 0.986328 0.777344 1 0 1.0
Default
0 -10.400502 0.221489 0.435424 -0.373535 0.000000 0.927734 0.986328 0.777344 1 0 1.0
0 -10.400502 -0.000000 0.435424 -0.373535 0.000000 0.927734 0.986328 0.777344 1 0 1.0
0 -8.637376 -0.000000 1.145573 -0.373535 0.000000 0.927734 0.986328 0.777344 1 0 1.0
Default
0 -8.637376 0.399733 1.145573 -0.373535 0.000000 0.927734 0.986328 0.777344 1 0 1.0
0 -10.400502 0.221489 0.435424 -0.373535 0.000000 0.927734 0.986328 0.777344 1 0 1.0
0 -8.637376 -0.000000 1.145573 -0.373535 0.000000 0.927734 0.986328 0.777344 1 0 1.0
Default
0 -11.596790 -0.485470 -3.739124 -0.210693 -0.977539 0.002151 0.986328 0.639648 1 0 1.0
0 -12.068130 -0.485471 -5.878072 -0.210693 -0.977539 0.002151 0.986328 0.639648 1 0 1.0
0 -10.492725 -0.723129 -3.585992 -0.210693 -0.977539 0.002151 0.986328 0.639648 1 0 1.0
Default
0 -10.925738 -0.723129 -1.969963 -0.210693 -0.977539 0.002151 0.986328 0.639648 1 0 1.0
0 -11.596790 -0.485470 -3.739124 -0.210693 -0.977539 0.002151 0.986328 0.639648 1 0 1.0
0 -10.492725 -0.723129 -3.585992 -0.210693 -0.977539 0.002151 0.986328 0.639648 1 0 1.0
Default
0 -8.138334 -1.129130 -0.716879 -0.144531 -0.988770 -0.031433 0.984375 0.731445 1 0 1.0
0 -7.959541 -1.129130 -1.384141 -0.146362 -0.988770 -0.032257 0.984375 0.731445 1 0 1.0
0 -5.443666 -1.499476 -1.587792 -0.146362 -0.988770 -0.032257 0.984375 0.731445 1 0 1.0
Default
0 -5.703756 -1.499476 -0.264174 -0.144531 -0.988770 -0.031433 0.984375 0.731445 1 0 1.0
0 -8.138334 -1.129130 -0.716879 -0.144531 -0.988770 -0.031433 0.984375 0.731445 1 0 1.0
0 -5.443666 -1.499476 -1.587792 -0.146362 -0.988770 -0.032257 0.984375 0.731445 1 0 1.0
Default
0 -8.138334 -1.129130 -0.716879 -0.144531 -0.988770 -0.031433 0.984375 0.731445 1 0 1.0
0 -5.703756 -1.499476 -0.264174 -0.144531 -0.988770 -0.031433 0.984375 0.731445 1 0 1.0
0 -6.092202 -1.499476 1.712645 -0.142700 -0.989258 -0.030609 0.984375 0.731445 1 0 1.0
Default
0 -8.316932 -1.129130 -0.050337 -0.142700 -0.989258 -0.030609 0.984375 0.731445 1 0 1.0
0 -8.138334 -1.129130 -0.716879 -0.144531 -0.988770 -0.031433 0.984375 0.731445 1 0 1.0
0 -6.092202 -1.499476 1.712645 -0.142700 -0.989258 -0.030609 0.984375 0.731445 1 0 1.0
Default
0 11.553164 -1.015451 5.526987 0.095520 -0.995117 0.025589 0.981445 0.643066 1 0 1.0
0 8.517390 -1.371939 2.995815 0.082520 -0.996582 0.022110 0.981445 0.643066 1 0 1.0
0 12.039117 -1.015451 3.713381 0.095520 -0.995117 0.025589 0.981445 0.643066 1 0 1.0
Default
0 11.553164 -1.015451 5.526987 0.095520 -0.995117 0.025589 0.981445 0.643066 1 0 1.0
0 7.749839 -1.371939 5.860356 0.080322 -0.996582 0.021530 0.981445 0.643066 1 0 1.0
0 8.517390 -1.371939 2.995815 0.082520 -0.996582 0.022110 0.981445 0.643066 1 0 1.0
Default
0 14.420693 -0.141136 5.232484 0.808105 0.000000 0.588867 0.983887 0.579102 1 0 1.0
0 15.038247 -0.321497 4.385340 0.808105 0.000000 0.588867 0.983887 0.579102 1 0 1.0
0 15.038244 -0.000000 4.385340 0.808105 0.000000 0.588867 0.983887 0.579102 1 0 1.0
Default
0 14.420693 -0.000000 5.232484 0.808105 0.000000 0.588867 0.983887 0.579102 1 0 1.0
0 14.420693 -0.141136 5.232484 0.808105 0.000000 0.588867 0.983887 0.579102 1 0 1.0
0 15.038244 -0.000000 4.385340 0.808105 0.000000 0.588867 0.983887 0.579102 1 0 1.0
Default
0 14.420693 0.141136 5.232484 0.808105 0.000000 0.588867 0.983887 0.579102 1 0 1.0
0 14.420693 -0.000000 5.232484 0.808105 0.000000 0.588867 0.983887 0.579102 1 0 1.0
0 15.038244 -0.000000 4.385340 0.808105 0.000000 0.588867 0.983887 0.579102 1 0 1.0
Default
0 15.038247 0.321497 4.385340 0.808105 0.000000 0.588867 0.983887 0.579102 1 0 1.0
0 14.420693 0.141136 5.232484 0.808105 0.000000 0.588867 0.983887 0.579102 1 0 1.0
0 15.038244 -0.000000 4.385340 0.808105 0.000000 0.588867 0.983887 0.579102 1 0 1.0
Default
0 7.527759 -0.642542 6.689169 0.080688 0.000000 0.996582 0.982422 0.645508 1 0 1.0
0 11.324128 -0.286053 6.381763 0.080688 0.000000 0.996582 0.982422 0.645508 1 0 1.0
0 11.324128 -0.000000 6.381763 0.080688 0.000000 0.996582 0.982422 0.645508 1 0 1.0
Default
0 7.527759 -0.000000 6.689169 0.080688 0.000000 0.996582 0.982422 0.645508 1 0 1.0
0 7.527759 -0.642542 6.689169 0.080688 0.000000 0.996582 0.982422 0.645508 1 0 1.0
0 11.324128 -0.000000 6.381763 0.080688 0.000000 0.996582 0.982422 0.645508 1 0 1.0
Default
0 7.527759 0.642542 6.689169 0.080688 0.000000 0.996582 0.982422 0.645508 1 0 1.0
0 7.527759 -0.000000 6.689169 0.080688 0.000000 0.996582 0.982422 0.645508 1 0 1.0
0 11.324128 -0.000000 6.381763 0.080688 0.000000 0.996582 0.982422 0.645508 1 0 1.0
Default
0 11.324128 0.286053 6.381763 0.080688 0.000000 0.996582 0.982422 0.645508 1 0 1.0
0 7.527759 0.642542 6.689169 0.080688 0.000000 0.996582 0.982422 0.645508 1 0 1.0
0 11.324128 -0.000000 6.381763 0.080688 0.000000 0.996582 0.982422 0.645508 1 0 1.0
Default
0 3.907515 -0.884954 6.339273 -0.096191 0.000000 0.995605 0.987793 0.639160 1 0 1.0
0 7.527759 -0.642542 6.689169 -0.096191 0.000000 0.995605 0.987793 0.639160 1 0 1.0
0 7.527759 -0.000000 6.689169 -0.096191 0.000000 0.995605 0.987793 0.639160 1 0 1.0
Default
0 3.907515 -0.000000 6.339273 -0.096191 0.000000 0.995605 0.987793 0.639160 1 0 1.0
0 3.907515 -0.884954 6.339273 -0.096191 0.000000 0.995605 0.987793 0.639160 1 0 1.0
0 7.527759 -0.000000 6.689169 -0.096191 0.000000 0.995605 0.987793 0.639160 1 0 1.0
Default
0 3.907515 0.884954 6.339273 -0.096191 0.000000 0.995605 0.987793 0.639160 1 0 1.0
0 3.907515 -0.000000 6.339273 -0.096191 0.000000 0.995605 0.987793 0.639160 1 0 1.0
0 7.527759 -0.000000 6.689169 -0.096191 0.000000 0.995605 0.987793 0.639160 1 0 1.0
Default
0 7.527759 0.642542 6.689169 -0.096191 0.000000 0.995605 0.987793 0.639160 1 0 1.0
0 3.907515 0.884954 6.339273 -0.096191 0.000000 0.995605 0.987793 0.639160 1 0 1.0
0 7.527759 -0.000000 6.689169 -0.096191 0.000000 0.995605 0.987793 0.639160 1 0 1.0
Default
0 0.373906 -0.884954 5.666051 -0.187134 0.000000 0.982422 0.987793 0.639160 1 0 1.0
0 3.907515 -0.884954 6.339273 -0.187134 0.000000 0.982422 0.987793 0.639160 1 0 1.0
0 3.907515 -0.000000 6.339273 -0.187134 0.000000 0.982422 0.987793 0.639160 1 0 1.0
Default
0 0.373906 -0.442477 5.666051 -0.187134 0.000000 0.982422 0.987793 0.639160 1 0 1.0
0 0.373906 -0.884954 5.666051 -0.187134 0.000000 0.982422 0.987793 0.639160 1 0 1.0
0 3.907515 -0.000000 6.339273 -0.187134 0.000000 0.982422 0.987793 0.639160 1 0 1.0
Default
0 3.907515 -0.000000 6.339273 -0.187134 0.000000 0.982422 0.987793 0.639160 1 0 1.0
0 0.373906 -0.000000 5.666051 -0.187134 0.000000 0.982422 0.987793 0.639160 1 0 1.0
0 0.373906 -0.442477 5.666051 -0.187134 0.000000 0.982422 0.987793 0.639160 1 0 1.0
Default
0 0.373906 -0.000000 5.666051 -0.187134 0.000000 0.982422 0.987793 0.639160 1 0 1.0
0 3.907515 -0.000000 6.339273 -0.187134 0.000000 0.982422 0.987793 0.639160 1 0 1.0
0 0.373906 0.442477 5.666051 -0.187134 0.000000 0.982422 0.987793 0.639160 1 0 1.0
Default
0 0.373906 0.884954 5.666051 -0.187134 0.000000 0.982422 0.987793 0.639160 1 0 1.0
0 0.373906 0.442477 5.666051 -0.187134 0.000000 0.982422 0.987793 0.639160 1 0 1.0
0 3.907515 -0.000000 6.339273 -0.187134 0.000000 0.982422 0.987793 0.639160 1 0 1.0
Default
0 3.907515 0.884954 6.339273 -0.187134 0.000000 0.982422 0.987793 0.639160 1 0 1.0
0 0.373906 0.884954 5.666051 -0.187134 0.000000 0.982422 0.987793 0.639160 1 0 1.0
0 3.907515 -0.000000 6.339273 -0.187134 0.000000 0.982422 0.987793 0.639160 1 0 1.0
Default
0 -2.974648 -0.442477 4.302190 -0.901367 0.000000 -0.433105 0.984863 0.945801 1 0 1.0
0 -3.490748 -0.127699 5.376232 -0.901367 0.000000 -0.433105 0.984863 0.945801 1 0 1.0
0 -2.974647 -0.000000 4.302190 -0.901367 0.000000 -0.433105 0.984863 0.945801 1 0 1.0
Default
0 -3.490748 -0.127699 5.376232 -0.901367 0.000000 -0.433105 0.984863 0.945801 1 0 1.0
0 -3.490748 -0.000000 5.376232 -0.901367 0.000000 -0.433105 0.984863 0.945801 1 0 1.0
0 -2.974647 -0.000000 4.302190 -0.901367 0.000000 -0.433105 0.984863 0.945801 1 0 1.0
Default
0 -3.490748 -0.000000 5.376232 -0.901367 0.000000 -0.433105 0.984863 0.945801 1 0 1.0
0 -3.490748 0.127699 5.376232 -0.901367 0.000000 -0.433105 0.984863 0.945801 1 0 1.0
0 -2.974647 -0.000000 4.302190 -0.901367 0.000000 -0.433105 0.984863 0.945801 1 0 1.0
Default
0 -3.490748 0.127699 5.376232 -0.901367 0.000000 -0.433105 0.984863 0.945801 1 0 1.0
0 -2.974648 0.442477 4.302190 -0.901367 0.000000 -0.433105 0.984863 0.945801 1 0 1.0
0 -2.974647 -0.000000 4.302190 -0.901367 0.000000 -0.433105 0.984863 0.945801 1 0 1.0
Default
0 -8.637376 -0.399733 1.145573 -0.559082 0.000000 0.829102 0.987793 0.639160 1 0 1.0
0 -6.291465 -0.765465 2.726709 -0.559082 0.000000 0.829102 0.987793 0.639160 1 0 1.0
0 -6.291465 -0.000000 2.726709 -0.559082 0.000000 0.829102 0.987793 0.639160 1 0 1.0
Default
0 -8.637376 -0.000000 1.145573 -0.559082 0.000000 0.829102 0.987793 0.639160 1 0 1.0
0 -8.637376 -0.399733 1.145573 -0.559082 0.000000 0.829102 0.987793 0.639160 1 0 1.0
0 -6.291465 -0.000000 2.726709 -0.559082 0.000000 0.829102 0.987793 0.639160 1 0 1.0
Default
0 -8.637376 0.399733 1.145573 -0.559082 0.000000 0.829102 0.987793 0.639160 1 0 1.0
0 -8.637376 -0.000000 1.145573 -0.559082 0.000000 0.829102 0.987793 0.639160 1 0 1.0
0 -6.291465 -0.000000 2.726709 -0.559082 0.000000 0.829102 0.987793 0.639160 1 0 1.0
Default
0 -6.291465 0.765465 2.726709 -0.559082 0.000000 0.829102 0.987793 0.639160 1 0 1.0
0 -8.637376 0.399733 1.145573 -0.559082 0.000000 0.829102 0.987793 0.639160 1 0 1.0
0 -6.291465 -0.000000 2.726709 -0.559082 0.000000 0.829102 0.987793 0.639160 1 0 1.0
Default
0 -12.447416 -0.191781 1.080499 0.300537 0.000000 0.953613 0.986328 0.580566 1 0 1.0
0 -10.400502 -0.221489 0.435424 0.300537 0.000000 0.953613 0.986328 0.580566 1 0 1.0
0 -10.400502 -0.000000 0.435424 0.300537 0.000000 0.953613 0.986328 0.580566 1 0 1.0
Default
0 -12.447416 -0.000000 1.080499 0.300537 0.000000 0.953613 0.986328 0.580566 1 0 1.0
0 -12.447416 -0.191781 1.080499 0.300537 0.000000 0.953613 0.986328 0.580566 1 0 1.0
0 -10.400502 -0.000000 0.435424 0.300537 0.000000 0.953613 0.986328 0.580566 1 0 1.0
Default
0 -12.447416 0.191781 1.080499 0.300537 0.000000 0.953613 0.986328 0.580566 1 0 1.0
0 -12.447416 -0.000000 1.080499 0.300537 0.000000 0.953613 0.986328 0.580566 1 0 1.0
0 -10.400502 -0.000000 0.435424 0.300537 0.000000 0.953613 0.986328 0.580566 1 0 1.0
Default
0 -10.400502 0.221489 0.435424 0.300537 0.000000 0.953613 0.986328 0.580566 1 0 1.0
0 -12.447416 0.191781 1.080499 0.300537 0.000000 0.953613 0.986328 0.580566 1 0 1.0
0 -10.400502 -0.000000 0.435424 0.300537 0.000000 0.953613 0.986328 0.580566 1 0 1.0
Default
0 -12.186981 -0.723129 0.108536 0.164307 -0.981445 0.098938 0.986328 0.580566 1 0 1.0
0 -10.925738 -0.723129 -1.969963 0.164307 -0.981445 0.098938 0.986328 0.580566 1 0 1.0
0 -9.901805 -0.495373 -1.425735 0.164307 -0.981445 0.098938 0.986328 0.580566 1 0 1.0
Default
0 -9.909085 -0.495373 -1.398565 0.164307 -0.981445 0.098938 0.986328 0.580566 1 0 1.0
0 -12.186981 -0.723129 0.108536 0.164307 -0.981445 0.098938 0.986328 0.580566 1 0 1.0
0 -9.901805 -0.495373 -1.425735 0.164307 -0.981445 0.098938 0.986328 0.580566 1 0 1.0
Default
0 -10.925738 -0.723129 -1.969963 0.190918 -0.980469 0.051147 0.986328 0.580566 1 0 1.0
0 -10.492725 -0.723129 -3.585992 0.190918 -0.980469 0.051147 0.986328 0.580566 1 0 1.0
0 -9.892097 -0.495373 -1.461974 0.190918 -0.980469 0.051147 0.986328 0.580566 1 0 1.0
Default
0 -9.901805 -0.495373 -1.425735 0.190918 -0.980469 0.051147 0.986328 0.580566 1 0 1.0
0 -10.925738 -0.723129 -1.969963 0.190918 -0.980469 0.051147 0.986328 0.580566 1 0 1.0
0 -9.892097 -0.495373 -1.461974 0.190918 -0.980469 0.051147 0.986328 0.580566 1 0 1.0
Default
0 -9.909085 -0.495373 -1.398565 -0.307617 -0.947754 -0.082397 0.986328 0.777344 1 0 1.0
0 -9.901805 -0.495373 -1.425735 -0.307617 -0.947754 -0.082397 0.986328 0.777344 1 0 1.0
0 -8.138334 -1.129130 -0.716879 -0.307617 -0.947754 -0.082397 0.986328 0.777344 1 0 1.0
Default
0 -8.316932 -1.129130 -0.050337 -0.307617 -0.947754 -0.082397 0.986328 0.777344 1 0 1.0
0 -9.909085 -0.495373 -1.398565 -0.307617 -0.947754 -0.082397 0.986328 0.777344 1 0 1.0
0 -8.138334 -1.129130 -0.716879 -0.307617 -0.947754 -0.082397 0.986328 0.777344 1 0 1.0
Default
0 -7.639292 -0.399733 -2.579330 0.372314 0.000000 -0.928223 0.980957 0.827148 1 0 1.0
0 -9.403111 -0.221489 -3.286895 0.372314 0.000000 -0.928223 0.980957 0.827148 1 0 1.0
0 -9.403111 -0.000000 -3.286895 0.372314 0.000000 -0.928223 0.980957 0.827148 1 0 1.0
Default
0 -7.639292 -0.000000 -2.579330 0.372314 0.000000 -0.928223 0.980957 0.827148 1 0 1.0
0 -7.639292 -0.399733 -2.579330 0.372314 0.000000 -0.928223 0.980957 0.827148 1 0 1.0
0 -9.403111 -0.000000 -3.286895 0.372314 0.000000 -0.928223 0.980957 0.827148 1 0 1.0
Default
0 -7.639292 0.399733 -2.579330 0.372314 0.000000 -0.928223 0.980957 0.827148 1 0 1.0
0 -7.639292 -0.000000 -2.579330 0.372314 0.000000 -0.928223 0.980957 0.827148 1 0 1.0
0 -9.403111 -0.000000 -3.286895 0.372314 0.000000 -0.928223 0.980957 0.827148 1 0 1.0
Default
0 -9.403111 0.221489 -3.286895 0.372314 0.000000 -0.928223 0.980957 0.827148 1 0 1.0
0 -7.639292 0.399733 -2.579330 0.372314 0.000000 -0.928223 0.980957 0.827148 1 0 1.0
0 -9.403111 -0.000000 -3.286895 0.372314 0.000000 -0.928223 0.980957 0.827148 1 0 1.0
Default
0 -9.901805 -0.495373 -1.425735 -0.307617 -0.947754 -0.082397 0.984863 0.770508 1 0 1.0
0 -9.892097 -0.495373 -1.461974 -0.307617 -0.947754 -0.082397 0.984863 0.770508 1 0 1.0
0 -7.959541 -1.129130 -1.384141 -0.307617 -0.947754 -0.082397 0.984863 0.770508 1 0 1.0
Default
0 -8.138334 -1.129130 -0.716879 -0.307617 -0.947754 -0.082397 0.984863 0.770508 1 0 1.0
0 -9.901805 -0.495373 -1.425735 -0.307617 -0.947754 -0.082397 0.984863 0.770508 1 0 1.0
0 -7.959541 -1.129130 -1.384141 -0.307617 -0.947754 -0.082397 0.984863 0.770508 1 0 1.0
Default
0 -5.243596 -0.765465 -2.605954 -0.022278 0.000000 -0.999512 0.982910 0.823242 1 0 1.0
0 -7.639292 -0.399733 -2.579330 -0.011116 0.000000 -1.000000 0.982910 0.823242 1 0 1.0
0 -7.639292 -0.000000 -2.579330 -0.011116 0.000000 -1.000000 0.982910 0.823242 1 0 1.0
Default
0 -5.243596 -0.000000 -2.605954 -0.022278 0.000000 -0.999512 0.982910 0.823242 1 0 1.0
0 -5.243596 -0.765465 -2.605954 -0.022278 0.000000 -0.999512 0.982910 0.823242 1 0 1.0
0 -7.639292 -0.000000 -2.579330 -0.011116 0.000000 -1.000000 0.982910 0.823242 1 0 1.0
Default
0 -1.086356 -0.884954 -2.745009 -0.013893 0.000000 -1.000000 0.982910 0.823242 1 0 1.0
0 -5.243596 -0.765465 -2.605954 -0.022278 0.000000 -0.999512 0.982910 0.823242 1 0 1.0
0 -5.243596 -0.000000 -2.605954 -0.022278 0.000000 -0.999512 0.982910 0.823242 1 0 1.0
Default
0 -1.086356 -0.000000 -2.745009 -0.013893 0.000000 -1.000000 0.982910 0.823242 1 0 1.0
0 -1.086356 -0.884954 -2.745009 -0.013893 0.000000 -1.000000 0.982910 0.823242 1 0 1.0
0 -5.243596 -0.000000 -2.605954 -0.022278 0.000000 -0.999512 0.982910 0.823242 1 0 1.0
Default
0 -1.086356 0.884953 -2.745009 -0.013893 0.000000 -1.000000 0.982910 0.823242 1 0 1.0
0 -1.086356 -0.000000 -2.745009 -0.013893 0.000000 -1.000000 0.982910 0.823242 1 0 1.0
0 -5.243596 -0.000000 -2.605954 -0.022278 0.000000 -0.999512 0.982910 0.823242 1 0 1.0
Default
0 -5.243596 0.765465 -2.605954 -0.022278 0.000000 -0.999512 0.982910 0.823242 1 0 1.0
0 -1.086356 0.884953 -2.745009 -0.013893 0.000000 -1.000000 0.982910 0.823242 1 0 1.0
0 -5.243596 -0.000000 -2.605954 -0.022278 0.000000 -0.999512 0.982910 0.823242 1 0 1.0
Default
0 -5.243596 0.765465 -2.605954 -0.022278 0.000000 -0.999512 0.982910 0.823242 1 0 1.0
0 -5.243596 -0.000000 -2.605954 -0.022278 0.000000 -0.999512 0.982910 0.823242 1 0 1.0
0 -7.639292 -0.000000 -2.579330 -0.011116 0.000000 -1.000000 0.982910 0.823242 1 0 1.0
Default
0 -7.639292 0.399733 -2.579330 -0.011116 0.000000 -1.000000 0.982910 0.823242 1 0 1.0
0 -5.243596 0.765465 -2.605954 -0.022278 0.000000 -0.999512 0.982910 0.823242 1 0 1.0
0 -7.639292 -0.000000 -2.579330 -0.011116 0.000000 -1.000000 0.982910 0.823242 1 0 1.0
Default
0 2.622029 -0.884954 -2.724061 0.005650 0.000000 -1.000000 0.982422 0.870117 1 0 1.0
0 -1.086356 -0.884954 -2.745009 -0.013893 0.000000 -1.000000 0.982422 0.870117 1 0 1.0
0 -1.086356 -0.000000 -2.745009 -0.013893 0.000000 -1.000000 0.982422 0.870117 1 0 1.0
Default
0 2.622029 -0.000000 -2.724062 0.005650 0.000000 -1.000000 0.982422 0.870117 1 0 1.0
0 2.622029 -0.884954 -2.724061 0.005650 0.000000 -1.000000 0.982422 0.870117 1 0 1.0
0 -1.086356 -0.000000 -2.745009 -0.013893 0.000000 -1.000000 0.982422 0.870117 1 0 1.0
Default
0 2.622029 0.884954 -2.724061 0.005650 0.000000 -1.000000 0.982422 0.870117 1 0 1.0
0 2.622029 -0.000000 -2.724062 0.005650 0.000000 -1.000000 0.982422 0.870117 1 0 1.0
0 -1.086356 -0.000000 -2.745009 -0.013893 0.000000 -1.000000 0.982422 0.870117 1 0 1.0
Default
0 -1.086356 0.884953 -2.745009 -0.013893 0.000000 -1.000000 0.982422 0.870117 1 0 1.0
0 2.622029 0.884954 -2.724061 0.005650 0.000000 -1.000000 0.982422 0.870117 1 0 1.0
0 -1.086356 -0.000000 -2.745009 -0.013893 0.000000 -1.000000 0.982422 0.870117 1 0 1.0
Default
0 6.101936 -0.884954 -1.850420 0.243530 0.000000 -0.969727 0.979980 0.826172 1 0 1.0
0 2.622029 -0.884954 -2.724061 0.243530 0.000000 -0.969727 0.979980 0.826172 1 0 1.0
0 2.622029 -0.000000 -2.724062 0.243530 0.000000 -0.969727 0.979980 0.826172 1 0 1.0
Default
0 6.101936 -0.000000 -1.850420 0.243530 0.000000 -0.969727 0.979980 0.826172 1 0 1.0
0 6.101936 -0.884954 -1.850420 0.243530 0.000000 -0.969727 0.979980 0.826172 1 0 1.0
0 2.622029 -0.000000 -2.724062 0.243530 0.000000 -0.969727 0.979980 0.826172 1 0 1.0
Default
0 6.101936 0.884954 -1.850420 0.243530 0.000000 -0.969727 0.979980 0.826172 1 0 1.0
0 6.101936 -0.000000 -1.850420 0.243530 0.000000 -0.969727 0.979980 0.826172 1 0 1.0
0 2.622029 -0.000000 -2.724062 0.243530 0.000000 -0.969727 0.979980 0.826172 1 0 1.0
Default
0 2.622029 0.884954 -2.724061 0.243530 0.000000 -0.969727 0.979980 0.826172 1 0 1.0
0 6.101936 0.884954 -1.850420 0.243530 0.000000 -0.969727 0.979980 0.826172 1 0 1.0
0 2.622029 -0.000000 -2.724062 0.243530 0.000000 -0.969727 0.979980 0.826172 1 0 1.0
Default
0 9.528252 -0.642542 -0.776772 0.299072 0.000000 -0.954102 0.980957 0.792969 1 0 1.0
0 6.101936 -0.884954 -1.850420 0.299072 0.000000 -0.954102 0.980957 0.792969 1 0 1.0
0 6.101936 -0.000000 -1.850420 0.299072 0.000000 -0.954102 0.980957 0.792969 1 0 1.0
Default
0 9.528252 -0.000000 -0.776772 0.299072 0.000000 -0.954102 0.980957 0.792969 1 0 1.0
0 9.528252 -0.642542 -0.776772 0.299072 0.000000 -0.954102 0.980957 0.792969 1 0 1.0
0 6.101936 -0.000000 -1.850420 0.299072 0.000000 -0.954102 0.980957 0.792969 1 0 1.0
Default
0 9.528252 0.642542 -0.776772 0.299072 0.000000 -0.954102 0.980957 0.792969 1 0 1.0
0 9.528252 -0.000000 -0.776772 0.299072 0.000000 -0.954102 0.980957 0.792969 1 0 1.0
0 6.101936 -0.000000 -1.850420 0.299072 0.000000 -0.954102 0.980957 0.792969 1 0 1.0
Default
0 6.101936 0.884954 -1.850420 0.299072 0.000000 -0.954102 0.980957 0.792969 1 0 1.0
0 9.528252 0.642542 -0.776772 0.299072 0.000000 -0.954102 0.980957 0.792969 1 0 1.0
0 6.101936 -0.000000 -1.850420 0.299072 0.000000 -0.954102 0.980957 0.792969 1 0 1.0
Default
0 12.786332 -0.286053 0.924733 0.462891 0.000000 -0.886230 0.982422 0.727539 1 0 1.0
0 9.528252 -0.642542 -0.776772 0.462891 0.000000 -0.886230 0.982422 0.727539 1 0 1.0
0 9.528252 -0.000000 -0.776772 0.462891 0.000000 -0.886230 0.982422 0.727539 1 0 1.0
Default
0 12.786332 -0.000000 0.924733 0.462891 0.000000 -0.886230 0.982422 0.727539 1 0 1.0
0 12.786332 -0.286053 0.924733 0.462891 0.000000 -0.886230 0.982422 0.727539 1 0 1.0
0 9.528252 -0.000000 -0.776772 0.462891 0.000000 -0.886230 0.982422 0.727539 1 0 1.0
Default
0 12.786332 0.286053 0.924733 0.462891 0.000000 -0.886230 0.982422 0.727539 1 0 1.0
0 12.786332 -0.000000 0.924733 0.462891 0.000000 -0.886230 0.982422 0.727539 1 0 1.0
0 9.528252 -0.000000 -0.776772 0.462891 0.000000 -0.886230 0.982422 0.727539 1 0 1.0
Default
0 9.528252 0.642542 -0.776772 0.462891 0.000000 -0.886230 0.982422 0.727539 1 0 1.0
0 12.786332 0.286053 0.924733 0.462891 0.000000 -0.886230 0.982422 0.727539 1 0 1.0
0 9.528252 -0.000000 -0.776772 0.462891 0.000000 -0.886230 0.982422 0.727539 1 0 1.0
Default
0 14.927003 -0.141136 3.342915 0.748535 0.000000 -0.662598 0.984863 0.610840 1 0 1.0
0 12.786332 -0.286053 0.924733 0.748535 0.000000 -0.662598 0.984863 0.610840 1 0 1.0
0 12.786332 -0.000000 0.924733 0.748535 0.000000 -0.662598 0.984863 0.610840 1 0 1.0
Default
0 14.927003 -0.000000 3.342915 0.748535 0.000000 -0.662598 0.984863 0.610840 1 0 1.0
0 14.927003 -0.141136 3.342915 0.748535 0.000000 -0.662598 0.984863 0.610840 1 0 1.0
0 12.786332 -0.000000 0.924733 0.748535 0.000000 -0.662598 0.984863 0.610840 1 0 1.0
Default
0 14.927003 0.141136 3.342915 0.748535 0.000000 -0.662598 0.984863 0.610840 1 0 1.0
0 14.927003 -0.000000 3.342915 0.748535 0.000000 -0.662598 0.984863 0.610840 1 0 1.0
0 12.786332 -0.000000 0.924733 0.748535 0.000000 -0.662598 0.984863 0.610840 1 0 1.0
Default
0 12.786332 0.286053 0.924733 0.748535 0.000000 -0.662598 0.984863 0.610840 1 0 1.0
0 14.927003 0.141136 3.342915 0.748535 0.000000 -0.662598 0.984863 0.610840 1 0 1.0
0 12.786332 -0.000000 0.924733 0.748535 0.000000 -0.662598 0.984863 0.610840 1 0 1.0
Default
0 -14.281758 -0.485470 0.974921 -0.234375 -0.953125 -0.190186 0.986328 0.639648 1 0 1.0
0 -12.368214 -0.485470 -0.859152 -0.234375 -0.953125 -0.190186 0.986328 0.639648 1 0 1.0
0 -10.925738 -0.723129 -1.969963 -0.234375 -0.953125 -0.190186 0.986328 0.639648 1 0 1.0
Default
0 -12.186981 -0.723129 0.108536 -0.234375 -0.953125 -0.190186 0.986328 0.639648 1 0 1.0
0 -14.281758 -0.485470 0.974921 -0.234375 -0.953125 -0.190186 0.986328 0.639648 1 0 1.0
0 -10.925738 -0.723129 -1.969963 -0.234375 -0.953125 -0.190186 0.986328 0.639648 1 0 1.0
Default
0 -10.622099 -0.191781 -5.098172 0.766602 0.000000 -0.642090 0.986328 0.639648 1 0 1.0
0 -11.955389 -0.201684 -6.689169 0.766602 0.000000 -0.642090 0.986328 0.639648 1 0 1.0
0 -11.955389 -0.000000 -6.689169 0.766602 0.000000 -0.642090 0.986328 0.639648 1 0 1.0
Default
0 -10.622099 -0.000000 -5.098172 0.766602 0.000000 -0.642090 0.986328 0.639648 1 0 1.0
0 -10.622099 -0.191781 -5.098172 0.766602 0.000000 -0.642090 0.986328 0.639648 1 0 1.0
0 -11.955389 -0.000000 -6.689169 0.766602 0.000000 -0.642090 0.986328 0.639648 1 0 1.0
Default
0 -10.622099 0.191781 -5.098172 0.766602 0.000000 -0.642090 0.986328 0.639648 1 0 1.0
0 -10.622099 -0.000000 -5.098172 0.766602 0.000000 -0.642090 0.986328 0.639648 1 0 1.0
0 -11.955389 -0.000000 -6.689169 0.766602 0.000000 -0.642090 0.986328 0.639648 1 0 1.0
Default
0 -11.955389 0.201684 -6.689169 0.766602 0.000000 -0.642090 0.986328 0.639648 1 0 1.0
0 -10.622099 0.191781 -5.098172 0.766602 0.000000 -0.642090 0.986328 0.639648 1 0 1.0
0 -11.955389 -0.000000 -6.689169 0.766602 0.000000 -0.642090 0.986328 0.639648 1 0 1.0
Default
0 -15.038247 -0.201684 0.592576 -0.238159 -0.945312 -0.222900 0.986328 0.763672 1 0 1.0
0 -12.236553 -0.201684 -2.334893 -0.244629 -0.947754 -0.204102 0.986328 0.763672 1 0 1.0
0 -11.609797 -0.485470 -2.199273 -0.244629 -0.947754 -0.204102 0.986328 0.763672 1 0 1.0
Default
0 -12.368214 -0.485470 -0.859152 -0.238159 -0.945312 -0.222900 0.986328 0.763672 1 0 1.0
0 -15.038247 -0.201684 0.592576 -0.238159 -0.945312 -0.222900 0.986328 0.763672 1 0 1.0
0 -11.609797 -0.485470 -2.199273 -0.244629 -0.947754 -0.204102 0.986328 0.763672 1 0 1.0
Default
0 -12.368214 -0.485470 -0.859152 -0.238159 -0.945312 -0.222900 0.986328 0.763672 1 0 1.0
0 -14.281758 -0.485470 0.974921 -0.231445 -0.942383 -0.241455 0.986328 0.763672 1 0 1.0
0 -15.038247 -0.201684 0.592576 -0.238159 -0.945312 -0.222900 0.986328 0.763672 1 0 1.0
Default
0 15.038247 -0.321497 4.385340 0.515625 -0.784668 -0.343750 0.984863 0.610840 1 0 1.0
0 12.556631 -1.015451 1.781993 0.515625 -0.784668 -0.343750 0.984863 0.610840 1 0 1.0
0 12.786332 -0.286053 0.924733 0.515625 -0.784668 -0.343750 0.984863 0.610840 1 0 1.0
Default
0 14.927003 -0.141136 3.342915 0.515625 -0.784668 -0.343750 0.984863 0.610840 1 0 1.0
0 15.038247 -0.321497 4.385340 0.515625 -0.784668 -0.343750 0.984863 0.610840 1 0 1.0
0 12.786332 -0.286053 0.924733 0.515625 -0.784668 -0.343750 0.984863 0.610840 1 0 1.0
Default
0 -14.281758 -0.485470 0.974921 0.112488 -0.873047 0.474121 0.986328 0.639648 1 0 1.0
0 -12.186981 -0.723129 0.108536 0.112488 -0.873047 0.474121 0.986328 0.639648 1 0 1.0
0 -12.447416 -0.191781 1.080499 0.112488 -0.873047 0.474121 0.986328 0.639648 1 0 1.0
Default
0 -14.564793 -0.201684 1.632990 0.112488 -0.873047 0.474121 0.986328 0.639648 1 0 1.0
0 -14.281758 -0.485470 0.974921 0.112488 -0.873047 0.474121 0.986328 0.639648 1 0 1.0
0 -12.447416 -0.191781 1.080499 0.112488 -0.873047 0.474121 0.986328 0.639648 1 0 1.0
Default
0 -10.492725 -0.723129 -3.585992 0.348145 -0.883789 -0.312500 0.986328 0.639648 1 0 1.0
0 -12.068130 -0.485471 -5.878072 0.348145 -0.883789 -0.312500 0.986328 0.639648 1 0 1.0
0 -11.955389 -0.201684 -6.689169 0.348145 -0.883789 -0.312500 0.986328 0.639648 1 0 1.0
Default
0 -10.622099 -0.191781 -5.098172 0.348145 -0.883789 -0.312500 0.986328 0.639648 1 0 1.0
0 -10.492725 -0.723129 -3.585992 0.348145 -0.883789 -0.312500 0.986328 0.639648 1 0 1.0
0 -11.955389 -0.201684 -6.689169 0.348145 -0.883789 -0.312500 0.986328 0.639648 1 0 1.0
Default
0 -7.959541 -1.129130 -1.384141 -0.131104 -0.929688 -0.343994 0.983887 0.833008 1 0 1.0
0 -9.892097 -0.495373 -1.461974 -0.131104 -0.929688 -0.343994 0.983887 0.833008 1 0 1.0
0 -9.403111 -0.221489 -3.286895 -0.131104 -0.929688 -0.343994 0.983887 0.833008 1 0 1.0
Default
0 -7.639292 -0.399733 -2.579330 -0.131104 -0.929688 -0.343994 0.983887 0.833008 1 0 1.0
0 -7.959541 -1.129130 -1.384141 -0.131104 -0.929688 -0.343994 0.983887 0.833008 1 0 1.0
0 -9.403111 -0.221489 -3.286895 -0.131104 -0.929688 -0.343994 0.983887 0.833008 1 0 1.0
Default
0 -5.443666 -1.499476 -1.587792 -0.147827 -0.808594 -0.569336 0.982910 0.823242 1 0 1.0
0 -7.959541 -1.129130 -1.384141 -0.147827 -0.808594 -0.569336 0.982910 0.823242 1 0 1.0
0 -7.639292 -0.399733 -2.579330 -0.147827 -0.808594 -0.569336 0.982910 0.823242 1 0 1.0
Default
0 -5.243596 -0.765465 -2.605954 -0.147827 -0.808594 -0.569336 0.982910 0.823242 1 0 1.0
0 -5.443666 -1.499476 -1.587792 -0.147827 -0.808594 -0.569336 0.982910 0.823242 1 0 1.0
0 -7.639292 -0.399733 -2.579330 -0.147827 -0.808594 -0.569336 0.982910 0.823242 1 0 1.0
Default
0 11.553164 -1.015451 5.526987 0.293701 -0.774414 0.560059 0.983887 0.579102 1 0 1.0
0 15.038247 -0.321497 4.385340 0.293701 -0.774414 0.560059 0.983887 0.579102 1 0 1.0
0 14.420693 -0.141136 5.232484 0.293701 -0.774414 0.560059 0.983887 0.579102 1 0 1.0
Default
0 11.324128 -0.286053 6.381763 0.293701 -0.774414 0.560059 0.983887 0.579102 1 0 1.0
0 11.553164 -1.015451 5.526987 0.293701 -0.774414 0.560059 0.983887 0.579102 1 0 1.0
0 14.420693 -0.141136 5.232484 0.293701 -0.774414 0.560059 0.983887 0.579102 1 0 1.0
Default
0 7.749839 -1.371939 5.860356 0.125122 -0.732910 0.668457 0.982422 0.645508 1 0 1.0
0 11.553164 -1.015451 5.526987 0.125122 -0.732910 0.668457 0.982422 0.645508 1 0 1.0
0 11.324128 -0.286053 6.381763 0.125122 -0.732910 0.668457 0.982422 0.645508 1 0 1.0
Default
0 7.527759 -0.642542 6.689169 0.125122 -0.732910 0.668457 0.982422 0.645508 1 0 1.0
0 7.749839 -1.371939 5.860356 0.125122 -0.732910 0.668457 0.982422 0.645508 1 0 1.0
0 11.324128 -0.286053 6.381763 0.125122 -0.732910 0.668457 0.982422 0.645508 1 0 1.0
Default
0 4.121080 -1.614351 5.542236 -0.011505 -0.745605 0.666016 0.987793 0.639160 1 0 1.0
0 7.749839 -1.371939 5.860356 -0.011505 -0.745605 0.666016 0.987793 0.639160 1 0 1.0
0 7.527759 -0.642542 6.689169 -0.011505 -0.745605 0.666016 0.987793 0.639160 1 0 1.0
Default
0 3.907515 -0.884954 6.339273 -0.011505 -0.745605 0.666016 0.987793 0.639160 1 0 1.0
0 4.121080 -1.614351 5.542236 -0.011505 -0.745605 0.666016 0.987793 0.639160 1 0 1.0
0 7.527759 -0.642542 6.689169 -0.011505 -0.745605 0.666016 0.987793 0.639160 1 0 1.0
Default
0 0.608275 -1.614351 4.791371 -0.127808 -0.764160 0.632324 0.987793 0.639160 1 0 1.0
0 4.121080 -1.614351 5.542236 -0.127808 -0.764160 0.632324 0.987793 0.639160 1 0 1.0
0 3.907515 -0.884954 6.339273 -0.127808 -0.764160 0.632324 0.987793 0.639160 1 0 1.0
Default
0 0.373906 -0.884954 5.666051 -0.127808 -0.764160 0.632324 0.987793 0.639160 1 0 1.0
0 0.608275 -1.614351 4.791371 -0.127808 -0.764160 0.632324 0.987793 0.639160 1 0 1.0
0 3.907515 -0.884954 6.339273 -0.127808 -0.764160 0.632324 0.987793 0.639160 1 0 1.0
Default
0 -2.734601 -1.614351 3.406322 -0.237793 -0.779785 0.579102 0.987793 0.639160 1 0 1.0
0 0.608275 -1.614351 4.791371 -0.237793 -0.779785 0.579102 0.987793 0.639160 1 0 1.0
0 0.373906 -0.884954 5.666051 -0.237793 -0.779785 0.579102 0.987793 0.639160 1 0 1.0
Default
0 -2.974648 -0.884954 4.302190 -0.237793 -0.779785 0.579102 0.987793 0.639160 1 0 1.0
0 -2.734601 -1.614351 3.406322 -0.237793 -0.779785 0.579102 0.987793 0.639160 1 0 1.0
0 0.373906 -0.884954 5.666051 -0.237793 -0.779785 0.579102 0.987793 0.639160 1 0 1.0
Default
0 -6.092202 -1.499476 1.712645 -0.291504 -0.790527 0.538574 0.987793 0.639160 1 0 1.0
0 -2.734601 -1.614351 3.406322 -0.291504 -0.790527 0.538574 0.987793 0.639160 1 0 1.0
0 -2.974648 -0.884954 4.302190 -0.291504 -0.790527 0.538574 0.987793 0.639160 1 0 1.0
Default
0 -6.291465 -0.765465 2.726709 -0.291504 -0.790527 0.538574 0.987793 0.639160 1 0 1.0
0 -6.092202 -1.499476 1.712645 -0.291504 -0.790527 0.538574 0.987793 0.639160 1 0 1.0
0 -2.974648 -0.884954 4.302190 -0.291504 -0.790527 0.538574 0.987793 0.639160 1 0 1.0
Default
0 -12.186981 -0.723129 0.108536 0.201538 -0.925781 0.319580 0.986328 0.580566 1 0 1.0
0 -9.909085 -0.495373 -1.398565 0.201538 -0.925781 0.319580 0.986328 0.580566 1 0 1.0
0 -10.400502 -0.221489 0.435424 0.201538 -0.925781 0.319580 0.986328 0.580566 1 0 1.0
Default
0 -12.447416 -0.191781 1.080499 0.201538 -0.925781 0.319580 0.986328 0.580566 1 0 1.0
0 -12.186981 -0.723129 0.108536 0.201538 -0.925781 0.319580 0.986328 0.580566 1 0 1.0
0 -10.400502 -0.221489 0.435424 0.201538 -0.925781 0.319580 0.986328 0.580566 1 0 1.0
Default
0 -9.892097 -0.495373 -1.461974 0.449219 -0.878418 -0.163574 0.986328 0.580566 1 0 1.0
0 -10.492725 -0.723129 -3.585992 0.449219 -0.878418 -0.163574 0.986328 0.580566 1 0 1.0
0 -10.622099 -0.191781 -5.098172 0.449219 -0.878418 -0.163574 0.986328 0.580566 1 0 1.0
Default
0 -9.403111 -0.221489 -3.286895 0.449219 -0.878418 -0.163574 0.986328 0.580566 1 0 1.0
0 -9.892097 -0.495373 -1.461974 0.449219 -0.878418 -0.163574 0.986328 0.580566 1 0 1.0
0 -10.622099 -0.191781 -5.098172 0.449219 -0.878418 -0.163574 0.986328 0.580566 1 0 1.0
Default
0 -9.909085 -0.495373 -1.398565 -0.349121 -0.913574 0.208862 0.986328 0.777344 1 0 1.0
0 -8.316932 -1.129130 -0.050337 -0.349121 -0.913574 0.208862 0.986328 0.777344 1 0 1.0
0 -8.637376 -0.399733 1.145573 -0.349121 -0.913574 0.208862 0.986328 0.777344 1 0 1.0
Default
0 -10.400502 -0.221489 0.435424 -0.349121 -0.913574 0.208862 0.986328 0.777344 1 0 1.0
0 -9.909085 -0.495373 -1.398565 -0.349121 -0.913574 0.208862 0.986328 0.777344 1 0 1.0
0 -8.637376 -0.399733 1.145573 -0.349121 -0.913574 0.208862 0.986328 0.777344 1 0 1.0
Default
0 -11.596790 -0.485470 -3.739124 -0.338135 -0.939453 0.057343 0.986328 0.763672 1 0 1.0
0 -12.848718 -0.201684 -5.914122 -0.338135 -0.939453 0.057343 0.986328 0.763672 1 0 1.0
0 -12.068130 -0.485471 -5.878072 -0.343750 -0.936035 0.075745 0.986328 0.763672 1 0 1.0
Default
0 -12.236553 -0.201684 -2.334893 -0.332520 -0.942383 0.038910 0.986328 0.763672 1 0 1.0
0 -12.848718 -0.201684 -5.914122 -0.338135 -0.939453 0.057343 0.986328 0.763672 1 0 1.0
0 -11.596790 -0.485470 -3.739124 -0.338135 -0.939453 0.057343 0.986328 0.763672 1 0 1.0
Default
0 -11.609797 -0.485470 -2.199273 -0.332520 -0.942383 0.038910 0.986328 0.763672 1 0 1.0
0 -12.236553 -0.201684 -2.334893 -0.332520 -0.942383 0.038910 0.986328 0.763672 1 0 1.0
0 -11.596790 -0.485470 -3.739124 -0.338135 -0.939453 0.057343 0.986328 0.763672 1 0 1.0
Default
0 -12.848718 -0.201684 -5.914122 -0.655273 0.000000 -0.755371 0.986328 0.763672 1 0 1.0
0 -12.848718 -0.000000 -5.914122 -0.655273 0.000000 -0.755371 0.986328 0.763672 1 0 1.0
0 -11.955389 -0.201684 -6.689169 -0.655273 0.000000 -0.755371 0.986328 0.763672 1 0 1.0
Default
0 -12.848718 -0.000000 -5.914122 -0.655273 0.000000 -0.755371 0.986328 0.763672 1 0 1.0
0 -11.955389 -0.000000 -6.689169 -0.655273 0.000000 -0.755371 0.986328 0.763672 1 0 1.0
0 -11.955389 -0.201684 -6.689169 -0.655273 0.000000 -0.755371 0.986328 0.763672 1 0 1.0
Default
0 -11.955389 -0.000000 -6.689169 -0.655273 0.000000 -0.755371 0.986328 0.763672 1 0 1.0
0 -12.848718 -0.000000 -5.914122 -0.655273 0.000000 -0.755371 0.986328 0.763672 1 0 1.0
0 -11.955389 0.201684 -6.689169 -0.655273 0.000000 -0.755371 0.986328 0.763672 1 0 1.0
Default
0 -12.848718 -0.000000 -5.914122 -0.655273 0.000000 -0.755371 0.986328 0.763672 1 0 1.0
0 -12.848718 0.201684 -5.914122 -0.655273 0.000000 -0.755371 0.986328 0.763672 1 0 1.0
0 -11.955389 0.201684 -6.689169 -0.655273 0.000000 -0.755371 0.986328 0.763672 1 0 1.0
Default
0 -3.490748 -0.127699 5.376232 -0.887207 0.000000 0.461670 0.984863 0.953125 1 0 1.0
0 -3.054611 -0.127699 6.214157 -0.887207 0.000000 0.461670 0.984863 0.953125 1 0 1.0
0 -3.054611 -0.000000 6.214157 -0.887207 0.000000 0.461670 0.984863 0.953125 1 0 1.0
Default
0 -3.490748 -0.000000 5.376232 -0.887207 0.000000 0.461670 0.984863 0.953125 1 0 1.0
0 -3.490748 -0.127699 5.376232 -0.887207 0.000000 0.461670 0.984863 0.953125 1 0 1.0
0 -3.054611 -0.000000 6.214157 -0.887207 0.000000 0.461670 0.984863 0.953125 1 0 1.0
Default
0 -3.490748 0.127699 5.376232 -0.887207 0.000000 0.461670 0.984863 0.953125 1 0 1.0
0 -3.490748 -0.000000 5.376232 -0.887207 0.000000 0.461670 0.984863 0.953125 1 0 1.0
0 -3.054611 -0.000000 6.214157 -0.887207 0.000000 0.461670 0.984863 0.953125 1 0 1.0
Default
0 -3.054611 0.127699 6.214157 -0.887207 0.000000 0.461670 0.984863 0.953125 1 0 1.0
0 -3.490748 0.127699 5.376232 -0.887207 0.000000 0.461670 0.984863 0.953125 1 0 1.0
0 -3.054611 -0.000000 6.214157 -0.887207 0.000000 0.461670 0.984863 0.953125 1 0 1.0
Default
0 -6.291465 -0.765465 2.726709 -0.428955 0.000000 0.903320 0.987793 0.639160 1 0 1.0
0 -2.974648 -0.884954 4.302190 -0.428955 0.000000 0.903320 0.987793 0.639160 1 0 1.0
0 -2.974648 -0.442477 4.302190 -0.428955 0.000000 0.903320 0.987793 0.639160 1 0 1.0
Default
0 -6.291465 -0.000000 2.726709 -0.428955 0.000000 0.903320 0.987793 0.639160 1 0 1.0
0 -6.291465 -0.765465 2.726709 -0.428955 0.000000 0.903320 0.987793 0.639160 1 0 1.0
0 -2.974648 -0.442477 4.302190 -0.428955 0.000000 0.903320 0.987793 0.639160 1 0 1.0
Default
0 -6.291465 -0.000000 2.726709 -0.428955 0.000000 0.903320 0.987793 0.639160 1 0 1.0
0 -2.974648 -0.442477 4.302190 -0.428955 0.000000 0.903320 0.987793 0.639160 1 0 1.0
0 -2.974647 -0.000000 4.302190 -0.428955 0.000000 0.903320 0.987793 0.639160 1 0 1.0
Default
0 -2.974648 0.442477 4.302190 -0.428955 0.000000 0.903320 0.987793 0.639160 1 0 1.0
0 -6.291465 -0.000000 2.726709 -0.428955 0.000000 0.903320 0.987793 0.639160 1 0 1.0
0 -2.974647 -0.000000 4.302190 -0.428955 0.000000 0.903320 0.987793 0.639160 1 0 1.0
Default
0 -6.291465 0.765465 2.726709 -0.428955 0.000000 0.903320 0.987793 0.639160 1 0 1.0
0 -6.291465 -0.000000 2.726709 -0.428955 0.000000 0.903320 0.987793 0.639160 1 0 1.0
0 -2.974648 0.442477 4.302190 -0.428955 0.000000 0.903320 0.987793 0.639160 1 0 1.0
Default
0 -2.974648 0.884953 4.302190 -0.428955 0.000000 0.903320 0.987793 0.639160 1 0 1.0
0 -6.291465 0.765465 2.726709 -0.428955 0.000000 0.903320 0.987793 0.639160 1 0 1.0
0 -2.974648 0.442477 4.302190 -0.428955 0.000000 0.903320 0.987793 0.639160 1 0 1.0
Default
0 -2.974648 -0.884954 4.302190 -0.377197 0.000000 0.926270 0.991211 0.638184 1 0 1.0
0 0.373906 -0.884954 5.666051 -0.377197 0.000000 0.926270 0.991211 0.638184 1 0 1.0
0 0.373906 -0.442477 5.666051 -0.377197 0.000000 0.926270 0.991211 0.638184 1 0 1.0
Default
0 -2.974648 -0.442477 4.302190 -0.377197 0.000000 0.926270 0.991211 0.638184 1 0 1.0
0 -2.974648 -0.884954 4.302190 -0.377197 0.000000 0.926270 0.991211 0.638184 1 0 1.0
0 0.373906 -0.442477 5.666051 -0.377197 0.000000 0.926270 0.991211 0.638184 1 0 1.0
Default
0 -3.054611 -0.127699 6.214157 -0.091919 -0.982910 0.157959 0.984863 0.953125 1 0 1.0
0 -3.490748 -0.127699 5.376232 -0.091919 -0.982910 0.157959 0.984863 0.953125 1 0 1.0
0 -2.974648 -0.442477 4.302190 -0.091919 -0.982910 0.157959 0.984863 0.953125 1 0 1.0
Default
0 0.373906 -0.442477 5.666051 -0.091919 -0.982910 0.157959 0.984863 0.953125 1 0 1.0
0 -3.054611 -0.127699 6.214157 -0.091919 -0.982910 0.157959 0.984863 0.953125 1 0 1.0
0 -2.974648 -0.442477 4.302190 -0.091919 -0.982910 0.157959 0.984863 0.953125 1 0 1.0
Default
0 -3.054611 -0.000000 6.214157 0.157837 0.000000 0.987305 0.979004 0.947266 1 0 1.0
0 -3.054611 -0.127699 6.214157 0.157837 0.000000 0.987305 0.979004 0.947266 1 0 1.0
0 0.373906 -0.442477 5.666051 0.157837 0.000000 0.987305 0.979004 0.947266 1 0 1.0
Default
0 0.373906 -0.000000 5.666051 0.157837 0.000000 0.987305 0.979004 0.947266 1 0 1.0
0 -3.054611 -0.000000 6.214157 0.157837 0.000000 0.987305 0.979004 0.947266 1 0 1.0
0 0.373906 -0.442477 5.666051 0.157837 0.000000 0.987305 0.979004 0.947266 1 0 1.0
Default
0 -3.054611 -0.000000 6.214157 0.157837 0.000000 0.987305 0.979004 0.947266 1 0 1.0
0 0.373906 -0.000000 5.666051 0.157837 0.000000 0.987305 0.979004 0.947266 1 0 1.0
0 0.373906 0.442477 5.666051 0.157837 0.000000 0.987305 0.979004 0.947266 1 0 1.0
Default
0 -3.054611 0.127699 6.214157 0.157837 0.000000 0.987305 0.979004 0.947266 1 0 1.0
0 -3.054611 -0.000000 6.214157 0.157837 0.000000 0.987305 0.979004 0.947266 1 0 1.0
0 0.373906 0.442477 5.666051 0.157837 0.000000 0.987305 0.979004 0.947266 1 0 1.0
Default
0 -3.490748 -0.000000 5.376232 -0.000000 1.000000 0.000000 0.986328 0.948242 1 0 1.0
0 -3.054611 -0.000000 6.214157 -0.000000 1.000000 0.000000 0.986328 0.948242 1 0 1.0
0 0.373906 -0.000000 5.666051 -0.000000 1.000000 0.000000 0.986328 0.948242 1 0 1.0
Default
0 -2.974647 -0.000000 4.302190 -0.000000 1.000000 0.000000 0.986328 0.948242 1 0 1.0
0 -3.490748 -0.000000 5.376232 -0.000000 1.000000 0.000000 0.986328 0.948242 1 0 1.0
0 0.373906 -0.000000 5.666051 -0.000000 1.000000 0.000000 0.986328 0.948242 1 0 1.0
Default
0 13.033245 -1.159316 3.587258 0.205566 -0.977051 0.055084 0.984375 0.518066 1 0 1.0
0 13.663800 -1.040054 3.349882 0.205566 -0.977051 0.055084 0.984375 0.518066 1 0 1.0
0 14.091190 -0.920793 3.870734 0.205566 -0.977051 0.055084 0.984375 0.518066 1 0 1.0
Default
0 14.091190 -0.920793 3.870734 0.205566 -0.977051 0.055084 0.984375 0.518066 1 0 1.0
0 12.865745 -1.159316 4.212377 0.205566 -0.977051 0.055084 0.984375 0.518066 1 0 1.0
0 13.033245 -1.159316 3.587258 0.205566 -0.977051 0.055084 0.984375 0.518066 1 0 1.0
Default
0 14.091190 -0.920793 3.870734 0.205566 -0.977051 0.055084 0.984375 0.518066 1 0 1.0
0 13.923689 -0.920793 4.495852 0.205566 -0.977051 0.055084 0.984375 0.518066 1 0 1.0
0 12.865745 -1.159316 4.212377 0.205566 -0.977051 0.055084 0.984375 0.518066 1 0 1.0
Default
0 13.923689 -0.920793 4.495852 0.205566 -0.977051 0.055084 0.984375 0.518066 1 0 1.0
0 13.293133 -1.040054 4.733228 0.205566 -0.977051 0.055084 0.984375 0.518066 1 0 1.0
0 12.865745 -1.159316 4.212377 0.205566 -0.977051 0.055084 0.984375 0.518066 1 0 1.0
Default
0 12.684854 -0.803045 3.315515 -0.124451 -0.625977 -0.770020 0.982910 0.984375 1 0 1.0
0 13.623858 -0.620276 3.053729 -0.124451 -0.625977 -0.770020 0.982910 0.984375 1 0 1.0
0 13.663800 -1.040054 3.349882 -0.124451 -0.625977 -0.770020 0.982910 0.984375 1 0 1.0
Default
0 13.033245 -1.159316 3.587258 -0.124451 -0.625977 -0.770020 0.982910 0.984375 1 0 1.0
0 12.684854 -0.803045 3.315515 -0.124451 -0.625977 -0.770020 0.982910 0.984375 1 0 1.0
0 13.663800 -1.040054 3.349882 -0.124451 -0.625977 -0.770020 0.982910 0.984375 1 0 1.0
Default
0 12.428157 -0.803045 4.273518 -0.636230 -0.752441 -0.170532 0.982910 0.984375 1 0 1.0
0 12.684854 -0.803045 3.315515 -0.636230 -0.752441 -0.170532 0.982910 0.984375 1 0 1.0
0 13.033245 -1.159316 3.587258 -0.636230 -0.752441 -0.170532 0.982910 0.984375 1 0 1.0
Default
0 12.865745 -1.159316 4.212377 -0.636230 -0.752441 -0.170532 0.982910 0.984375 1 0 1.0
0 12.428157 -0.803045 4.273518 -0.636230 -0.752441 -0.170532 0.982910 0.984375 1 0 1.0
0 13.033245 -1.159316 3.587258 -0.636230 -0.752441 -0.170532 0.982910 0.984375 1 0 1.0
Default
0 13.110466 -0.620276 4.969732 -0.492920 -0.625977 0.604492 0.982910 0.984375 1 0 1.0
0 12.428157 -0.803045 4.273518 -0.492920 -0.625977 0.604492 0.982910 0.984375 1 0 1.0
0 12.865745 -1.159316 4.212377 -0.492920 -0.625977 0.604492 0.982910 0.984375 1 0 1.0
Default
0 13.293133 -1.040054 4.733228 -0.492920 -0.625977 0.604492 0.982910 0.984375 1 0 1.0
0 13.110466 -0.620276 4.969732 -0.492920 -0.625977 0.604492 0.982910 0.984375 1 0 1.0
0 12.865745 -1.159316 4.212377 -0.492920 -0.625977 0.604492 0.982910 0.984375 1 0 1.0
Default
0 14.049468 -0.437506 4.707946 0.346680 -0.399658 0.848633 0.982910 0.984375 1 0 1.0
0 13.110466 -0.620276 4.969732 0.346680 -0.399658 0.848633 0.982910 0.984375 1 0 1.0
0 13.293133 -1.040054 4.733228 0.346680 -0.399658 0.848633 0.982910 0.984375 1 0 1.0
Default
0 13.923689 -0.920793 4.495852 0.346680 -0.399658 0.848633 0.982910 0.984375 1 0 1.0
0 14.049468 -0.437506 4.707946 0.346680 -0.399658 0.848633 0.982910 0.984375 1 0 1.0
0 13.293133 -1.040054 4.733228 0.346680 -0.399658 0.848633 0.982910 0.984375 1 0 1.0
Default
0 14.306166 -0.437506 3.749944 0.907227 -0.342773 0.243164 0.982910 0.984375 1 0 1.0
0 14.049468 -0.437506 4.707946 0.907227 -0.342773 0.243164 0.982910 0.984375 1 0 1.0
0 13.923689 -0.920793 4.495852 0.907227 -0.342773 0.243164 0.982910 0.984375 1 0 1.0
Default
0 14.091190 -0.920793 3.870734 0.907227 -0.342773 0.243164 0.982910 0.984375 1 0 1.0
0 14.306166 -0.437506 3.749944 0.907227 -0.342773 0.243164 0.982910 0.984375 1 0 1.0
0 13.923689 -0.920793 4.495852 0.907227 -0.342773 0.243164 0.982910 0.984375 1 0 1.0
Default
0 13.623858 -0.620276 3.053729 0.724609 -0.399658 -0.561523 0.982910 0.984375 1 0 1.0
0 14.306166 -0.437506 3.749944 0.724609 -0.399658 -0.561523 0.982910 0.984375 1 0 1.0
0 14.091190 -0.920793 3.870734 0.724609 -0.399658 -0.561523 0.982910 0.984375 1 0 1.0
Default
0 13.663800 -1.040054 3.349882 0.724609 -0.399658 -0.561523 0.982910 0.984375 1 0 1.0
0 13.623858 -0.620276 3.053729 0.724609 -0.399658 -0.561523 0.982910 0.984375 1 0 1.0
0 14.091190 -0.920793 3.870734 0.724609 -0.399658 -0.561523 0.982910 0.984375 1 0 1.0
Default
0 -15.038247 -0.201684 0.592576 -0.910156 0.000000 0.414307 0.986328 0.763672 1 0 1.0
0 -14.564793 -0.201684 1.632990 -0.910156 0.000000 0.414307 0.986328 0.763672 1 0 1.0
0 -15.038247 -0.000000 0.592576 -0.910156 0.000000 0.414307 0.986328 0.763672 1 0 1.0
Default
0 -14.564793 -0.201684 1.632990 -0.910156 0.000000 0.414307 0.986328 0.763672 1 0 1.0
0 -14.564793 -0.000000 1.632990 -0.910156 0.000000 0.414307 0.986328 0.763672 1 0 1.0
0 -15.038247 -0.000000 0.592576 -0.910156 0.000000 0.414307 0.986328 0.763672 1 0 1.0
Default
0 -14.564793 -0.000000 1.632990 -0.910156 0.000000 0.414307 0.986328 0.763672 1 0 1.0
0 -14.564793 0.201684 1.632990 -0.910156 0.000000 0.414307 0.986328 0.763672 1 0 1.0
0 -15.038247 -0.000000 0.592576 -0.910156 0.000000 0.414307 0.986328 0.763672 1 0 1.0
Default
0 -14.564793 0.201684 1.632990 -0.910156 0.000000 0.414307 0.986328 0.763672 1 0 1.0
0 -15.038247 0.201684 0.592576 -0.910156 0.000000 0.414307 0.986328 0.763672 1 0 1.0
0 -15.038247 -0.000000 0.592576 -0.910156 0.000000 0.414307 0.986328 0.763672 1 0 1.0
Default
0 -11.596790 -0.485470 -3.739124 -0.302734 -0.949707 -0.081116 0.986328 0.639648 1 0 1.0
0 -10.925738 -0.723129 -1.969963 -0.302734 -0.949707 -0.081116 0.986328 0.639648 1 0 1.0
0 -12.368214 -0.485470 -0.859152 -0.302734 -0.949707 -0.081116 0.986328 0.639648 1 0 1.0
Default
0 -11.609797 -0.485470 -2.199273 -0.302734 -0.949707 -0.081116 0.986328 0.639648 1 0 1.0
0 -11.596790 -0.485470 -3.739124 -0.302734 -0.949707 -0.081116 0.986328 0.639648 1 0 1.0
0 -12.368214 -0.485470 -0.859152 -0.302734 -0.949707 -0.081116 0.986328 0.639648 1 0 1.0
Default
0 1.055274 -1.614351 3.123148 -0.000000 -1.000000 0.000000 0.987793 0.668945 1 0 1.0
0 5.051886 -1.614351 2.068421 -0.000000 -1.000000 0.000000 0.984375 0.682129 1 0 1.0
0 4.121080 -1.614351 5.542236 -0.000000 -1.000000 0.000000 0.984375 0.682129 1 0 1.0
Default
0 0.608275 -1.614351 4.791371 -0.000000 -1.000000 0.000000 0.987793 0.668945 1 0 1.0
0 1.055274 -1.614351 3.123148 -0.000000 -1.000000 0.000000 0.987793 0.668945 1 0 1.0
0 4.121080 -1.614351 5.542236 -0.000000 -1.000000 0.000000 0.984375 0.682129 1 0 1.0
Default
0 -12.236553 -0.201684 -2.334893 -0.985840 0.000000 0.168579 0.986328 0.763672 1 0 1.0
0 -12.236553 -0.000000 -2.334893 -0.985840 0.000000 0.168579 0.986328 0.763672 1 0 1.0
0 -12.848718 -0.201684 -5.914122 -0.985840 0.000000 0.168579 0.986328 0.763672 1 0 1.0
Default
0 -12.236553 -0.000000 -2.334893 -0.985840 0.000000 0.168579 0.986328 0.763672 1 0 1.0
0 -12.848718 -0.000000 -5.914122 -0.985840 0.000000 0.168579 0.986328 0.763672 1 0 1.0
0 -12.848718 -0.201684 -5.914122 -0.985840 0.000000 0.168579 0.986328 0.763672 1 0 1.0
Default
0 -12.848718 -0.000000 -5.914122 -0.985840 0.000000 0.168579 0.986328 0.763672 1 0 1.0
0 -12.236553 -0.000000 -2.334893 -0.985840 0.000000 0.168579 0.986328 0.763672 1 0 1.0
0 -12.848718 0.201684 -5.914122 -0.985840 0.000000 0.168579 0.986328 0.763672 1 0 1.0
Default
0 -12.236553 -0.000000 -2.334893 -0.985840 0.000000 0.168579 0.986328 0.763672 1 0 1.0
0 -12.236553 0.201684 -2.334893 -0.985840 0.000000 0.168579 0.986328 0.763672 1 0 1.0
0 -12.848718 0.201684 -5.914122 -0.985840 0.000000 0.168579 0.986328 0.763672 1 0 1.0
Default
0 -2.295695 1.614351 1.768303 -0.014961 1.000000 -0.003681 0.982910 0.707031 1 0 1.0
0 -6.092202 1.499476 1.712645 -0.029922 0.999512 -0.007359 0.982910 0.707031 1 0 1.0
0 -2.734601 1.614351 3.406322 -0.010040 1.000000 -0.002691 0.982910 0.707031 1 0 1.0
Default
0 1.568631 1.614351 1.207276 -0.000000 1.000000 0.000000 0.984375 0.702148 1 0 1.0
0 -2.295695 1.614351 1.768303 -0.014961 1.000000 -0.003681 0.982910 0.707031 1 0 1.0
0 -2.734601 1.614351 3.406322 -0.010040 1.000000 -0.002691 0.982910 0.707031 1 0 1.0
Default
0 1.055274 1.614351 3.123148 -0.000000 1.000000 0.000000 0.984375 0.702148 1 0 1.0
0 1.568631 1.614351 1.207276 -0.000000 1.000000 0.000000 0.984375 0.702148 1 0 1.0
0 -2.734601 1.614351 3.406322 -0.010040 1.000000 -0.002691 0.982910 0.707031 1 0 1.0
Default
0 -11.596790 0.485470 -3.739124 -0.210693 0.977539 0.002151 0.986328 0.639648 1 0 1.0
0 -10.925738 0.723129 -1.969963 -0.210693 0.977539 0.002151 0.986328 0.639648 1 0 1.0
0 -10.492725 0.723129 -3.585992 -0.210693 0.977539 0.002151 0.986328 0.639648 1 0 1.0
Default
0 -12.068130 0.485471 -5.878072 -0.210693 0.977539 0.002151 0.986328 0.639648 1 0 1.0
0 -11.596790 0.485470 -3.739124 -0.210693 0.977539 0.002151 0.986328 0.639648 1 0 1.0
0 -10.492725 0.723129 -3.585992 -0.210693 0.977539 0.002151 0.986328 0.639648 1 0 1.0
Default
0 -7.959541 1.129130 -1.384141 -0.146362 0.988770 -0.032257 0.984375 0.731445 1 0 1.0
0 -8.138334 1.129130 -0.716879 -0.144531 0.988770 -0.031433 0.984375 0.731445 1 0 1.0
0 -5.443666 1.499476 -1.587792 -0.146362 0.988770 -0.032257 0.984375 0.731445 1 0 1.0
Default
0 -8.138334 1.129130 -0.716879 -0.144531 0.988770 -0.031433 0.984375 0.731445 1 0 1.0
0 -5.703756 1.499476 -0.264174 -0.144531 0.988770 -0.031433 0.984375 0.731445 1 0 1.0
0 -5.443666 1.499476 -1.587792 -0.146362 0.988770 -0.032257 0.984375 0.731445 1 0 1.0
Default
0 -5.703756 1.499476 -0.264174 -0.144531 0.988770 -0.031433 0.984375 0.731445 1 0 1.0
0 -8.138334 1.129130 -0.716879 -0.144531 0.988770 -0.031433 0.984375 0.731445 1 0 1.0
0 -6.092202 1.499476 1.712645 -0.142700 0.989258 -0.030609 0.984375 0.731445 1 0 1.0
Default
0 -8.138334 1.129130 -0.716879 -0.144531 0.988770 -0.031433 0.984375 0.731445 1 0 1.0
0 -8.316932 1.129130 -0.050337 -0.142700 0.989258 -0.030609 0.984375 0.731445 1 0 1.0
0 -6.092202 1.499476 1.712645 -0.142700 0.989258 -0.030609 0.984375 0.731445 1 0 1.0
Default
0 8.517390 1.371939 2.995815 0.082520 0.996582 0.022110 0.981445 0.643066 1 0 1.0
0 11.553164 1.015451 5.526987 0.095520 0.995117 0.025589 0.981445 0.643066 1 0 1.0
0 12.039117 1.015451 3.713381 0.095520 0.995117 0.025589 0.981445 0.643066 1 0 1.0
Default
0 7.749839 1.371939 5.860356 0.080322 0.996582 0.021530 0.981445 0.643066 1 0 1.0
0 11.553164 1.015451 5.526987 0.095520 0.995117 0.025589 0.981445 0.643066 1 0 1.0
0 8.517390 1.371939 2.995815 0.082520 0.996582 0.022110 0.981445 0.643066 1 0 1.0
Default
0 -12.186981 0.723129 0.108536 0.164307 0.981445 0.098938 0.986328 0.580566 1 0 1.0
0 -9.909085 0.495373 -1.398565 0.164307 0.981445 0.098938 0.986328 0.580566 1 0 1.0
0 -9.901805 0.495373 -1.425735 0.164307 0.981445 0.098938 0.986328 0.580566 1 0 1.0
Default
0 -10.925738 0.723129 -1.969963 0.164307 0.981445 0.098938 0.986328 0.580566 1 0 1.0
0 -12.186981 0.723129 0.108536 0.164307 0.981445 0.098938 0.986328 0.580566 1 0 1.0
0 -9.901805 0.495373 -1.425735 0.164307 0.981445 0.098938 0.986328 0.580566 1 0 1.0
Default
0 -10.925738 0.723129 -1.969963 0.190918 0.980469 0.051147 0.986328 0.580566 1 0 1.0
0 -9.901805 0.495373 -1.425735 0.190918 0.980469 0.051147 0.986328 0.580566 1 0 1.0
0 -9.892097 0.495373 -1.461974 0.190918 0.980469 0.051147 0.986328 0.580566 1 0 1.0
Default
0 -10.492725 0.723129 -3.585992 0.190918 0.980469 0.051147 0.986328 0.580566 1 0 1.0
0 -10.925738 0.723129 -1.969963 0.190918 0.980469 0.051147 0.986328 0.580566 1 0 1.0
0 -9.892097 0.495373 -1.461974 0.190918 0.980469 0.051147 0.986328 0.580566 1 0 1.0
Default
0 -9.909085 0.495373 -1.398565 -0.307617 0.947754 -0.082397 0.986328 0.777344 1 0 1.0
0 -8.316932 1.129130 -0.050337 -0.307617 0.947754 -0.082397 0.986328 0.777344 1 0 1.0
0 -8.138334 1.129130 -0.716879 -0.307617 0.947754 -0.082397 0.986328 0.777344 1 0 1.0
Default
0 -9.901805 0.495373 -1.425735 -0.307617 0.947754 -0.082397 0.986328 0.777344 1 0 1.0
0 -9.909085 0.495373 -1.398565 -0.307617 0.947754 -0.082397 0.986328 0.777344 1 0 1.0
0 -8.138334 1.129130 -0.716879 -0.307617 0.947754 -0.082397 0.986328 0.777344 1 0 1.0
Default
0 -9.901805 0.495373 -1.425735 -0.307617 0.947754 -0.082397 0.984863 0.770508 1 0 1.0
0 -8.138334 1.129130 -0.716879 -0.307617 0.947754 -0.082397 0.984863 0.770508 1 0 1.0
0 -7.959541 1.129130 -1.384141 -0.307617 0.947754 -0.082397 0.984863 0.770508 1 0 1.0
Default
0 -9.892097 0.495373 -1.461974 -0.307617 0.947754 -0.082397 0.984863 0.770508 1 0 1.0
0 -9.901805 0.495373 -1.425735 -0.307617 0.947754 -0.082397 0.984863 0.770508 1 0 1.0
0 -7.959541 1.129130 -1.384141 -0.307617 0.947754 -0.082397 0.984863 0.770508 1 0 1.0
Default
0 -14.281758 0.485470 0.974921 -0.234375 0.953125 -0.190186 0.986328 0.639648 1 0 1.0
0 -12.186981 0.723129 0.108536 -0.234375 0.953125 -0.190186 0.986328 0.639648 1 0 1.0
0 -10.925738 0.723129 -1.969963 -0.234375 0.953125 -0.190186 0.986328 0.639648 1 0 1.0
Default
0 -12.368214 0.485470 -0.859152 -0.234375 0.953125 -0.190186 0.986328 0.639648 1 0 1.0
0 -14.281758 0.485470 0.974921 -0.234375 0.953125 -0.190186 0.986328 0.639648 1 0 1.0
0 -10.925738 0.723129 -1.969963 -0.234375 0.953125 -0.190186 0.986328 0.639648 1 0 1.0
Default
0 -12.236553 0.201684 -2.334893 -0.244629 0.947754 -0.204102 0.986328 0.763672 1 0 1.0
0 -15.038247 0.201684 0.592576 -0.238159 0.945312 -0.222900 0.986328 0.763672 1 0 1.0
0 -11.609797 0.485470 -2.199273 -0.244629 0.947754 -0.204102 0.986328 0.763672 1 0 1.0
Default
0 -15.038247 0.201684 0.592576 -0.238159 0.945312 -0.222900 0.986328 0.763672 1 0 1.0
0 -12.368214 0.485470 -0.859152 -0.238159 0.945312 -0.222900 0.986328 0.763672 1 0 1.0
0 -11.609797 0.485470 -2.199273 -0.244629 0.947754 -0.204102 0.986328 0.763672 1 0 1.0
Default
0 -14.281758 0.485470 0.974921 -0.231445 0.942383 -0.241455 0.986328 0.763672 1 0 1.0
0 -12.368214 0.485470 -0.859152 -0.238159 0.945312 -0.222900 0.986328 0.763672 1 0 1.0
0 -15.038247 0.201684 0.592576 -0.238159 0.945312 -0.222900 0.986328 0.763672 1 0 1.0
Default
0 15.038247 0.321497 4.385340 0.515625 0.784668 -0.343750 0.984863 0.610840 1 0 1.0
0 14.927003 0.141136 3.342915 0.515625 0.784668 -0.343750 0.984863 0.610840 1 0 1.0
0 12.786332 0.286053 0.924733 0.515625 0.784668 -0.343750 0.984863 0.610840 1 0 1.0
Default
0 12.556631 1.015451 1.781993 0.515625 0.784668 -0.343750 0.984863 0.610840 1 0 1.0
0 15.038247 0.321497 4.385340 0.515625 0.784668 -0.343750 0.984863 0.610840 1 0 1.0
0 12.786332 0.286053 0.924733 0.515625 0.784668 -0.343750 0.984863 0.610840 1 0 1.0
Default
0 -14.281758 0.485470 0.974921 0.112488 0.873047 0.474121 0.986328 0.639648 1 0 1.0
0 -14.564793 0.201684 1.632990 0.112488 0.873047 0.474121 0.986328 0.639648 1 0 1.0
0 -12.447416 0.191781 1.080499 0.112488 0.873047 0.474121 0.986328 0.639648 1 0 1.0
Default
0 -12.186981 0.723129 0.108536 0.112488 0.873047 0.474121 0.986328 0.639648 1 0 1.0
0 -14.281758 0.485470 0.974921 0.112488 0.873047 0.474121 0.986328 0.639648 1 0 1.0
0 -12.447416 0.191781 1.080499 0.112488 0.873047 0.474121 0.986328 0.639648 1 0 1.0
Default
0 -10.492725 0.723129 -3.585992 0.348145 0.883789 -0.312500 0.986328 0.639648 1 0 1.0
0 -10.622099 0.191781 -5.098172 0.348145 0.883789 -0.312500 0.986328 0.639648 1 0 1.0
0 -11.955389 0.201684 -6.689169 0.348145 0.883789 -0.312500 0.986328 0.639648 1 0 1.0
Default
0 -12.068130 0.485471 -5.878072 0.348145 0.883789 -0.312500 0.986328 0.639648 1 0 1.0
0 -10.492725 0.723129 -3.585992 0.348145 0.883789 -0.312500 0.986328 0.639648 1 0 1.0
0 -11.955389 0.201684 -6.689169 0.348145 0.883789 -0.312500 0.986328 0.639648 1 0 1.0
Default
0 -7.959541 1.129130 -1.384141 -0.131104 0.929688 -0.343994 0.983887 0.833008 1 0 1.0
0 -7.639292 0.399733 -2.579330 -0.131104 0.929688 -0.343994 0.983887 0.833008 1 0 1.0
0 -9.403111 0.221489 -3.286895 -0.131104 0.929688 -0.343994 0.983887 0.833008 1 0 1.0
Default
0 -9.892097 0.495373 -1.461974 -0.131104 0.929688 -0.343994 0.983887 0.833008 1 0 1.0
0 -7.959541 1.129130 -1.384141 -0.131104 0.929688 -0.343994 0.983887 0.833008 1 0 1.0
0 -9.403111 0.221489 -3.286895 -0.131104 0.929688 -0.343994 0.983887 0.833008 1 0 1.0
Default
0 -5.443666 1.499476 -1.587792 -0.147827 0.808594 -0.569336 0.982910 0.823242 1 0 1.0
0 -5.243596 0.765465 -2.605954 -0.147827 0.808594 -0.569336 0.982910 0.823242 1 0 1.0
0 -7.639292 0.399733 -2.579330 -0.147827 0.808594 -0.569336 0.982910 0.823242 1 0 1.0
Default
0 -7.959541 1.129130 -1.384141 -0.147827 0.808594 -0.569336 0.982910 0.823242 1 0 1.0
0 -5.443666 1.499476 -1.587792 -0.147827 0.808594 -0.569336 0.982910 0.823242 1 0 1.0
0 -7.639292 0.399733 -2.579330 -0.147827 0.808594 -0.569336 0.982910 0.823242 1 0 1.0
Default
0 11.553164 1.015451 5.526987 0.293701 0.774414 0.560059 0.983887 0.579102 1 0 1.0
0 11.324128 0.286053 6.381763 0.293701 0.774414 0.560059 0.983887 0.579102 1 0 1.0
0 14.420693 0.141136 5.232484 0.293701 0.774414 0.560059 0.983887 0.579102 1 0 1.0
Default
0 15.038247 0.321497 4.385340 0.293701 0.774414 0.560059 0.983887 0.579102 1 0 1.0
0 11.553164 1.015451 5.526987 0.293701 0.774414 0.560059 0.983887 0.579102 1 0 1.0
0 14.420693 0.141136 5.232484 0.293701 0.774414 0.560059 0.983887 0.579102 1 0 1.0
Default
0 7.749839 1.371939 5.860356 0.125122 0.732910 0.668457 0.982422 0.645508 1 0 1.0
0 7.527759 0.642542 6.689169 0.125122 0.732910 0.668457 0.982422 0.645508 1 0 1.0
0 11.324128 0.286053 6.381763 0.125122 0.732910 0.668457 0.982422 0.645508 1 0 1.0
Default
0 11.553164 1.015451 5.526987 0.125122 0.732910 0.668457 0.982422 0.645508 1 0 1.0
0 7.749839 1.371939 5.860356 0.125122 0.732910 0.668457 0.982422 0.645508 1 0 1.0
0 11.324128 0.286053 6.381763 0.125122 0.732910 0.668457 0.982422 0.645508 1 0 1.0
Default
0 4.121080 1.614351 5.542236 -0.011505 0.745605 0.666016 0.987793 0.639160 1 0 1.0
0 3.907515 0.884954 6.339273 -0.011505 0.745605 0.666016 0.987793 0.639160 1 0 1.0
0 7.527759 0.642542 6.689169 -0.011505 0.745605 0.666016 0.987793 0.639160 1 0 1.0
Default
0 7.749839 1.371939 5.860356 -0.011505 0.745605 0.666016 0.987793 0.639160 1 0 1.0
0 4.121080 1.614351 5.542236 -0.011505 0.745605 0.666016 0.987793 0.639160 1 0 1.0
0 7.527759 0.642542 6.689169 -0.011505 0.745605 0.666016 0.987793 0.639160 1 0 1.0
Default
0 0.608275 1.614351 4.791371 -0.127808 0.764160 0.632324 0.987793 0.639160 1 0 1.0
0 0.373906 0.884954 5.666051 -0.127808 0.764160 0.632324 0.987793 0.639160 1 0 1.0
0 3.907515 0.884954 6.339273 -0.127808 0.764160 0.632324 0.987793 0.639160 1 0 1.0
Default
0 4.121080 1.614351 5.542236 -0.127808 0.764160 0.632324 0.987793 0.639160 1 0 1.0
0 0.608275 1.614351 4.791371 -0.127808 0.764160 0.632324 0.987793 0.639160 1 0 1.0
0 3.907515 0.884954 6.339273 -0.127808 0.764160 0.632324 0.987793 0.639160 1 0 1.0
Default
0 -2.734601 1.614351 3.406322 -0.237793 0.779785 0.579102 0.987793 0.639160 1 0 1.0
0 -2.974648 0.884953 4.302190 -0.237793 0.779785 0.579102 0.987793 0.639160 1 0 1.0
0 0.373906 0.884954 5.666051 -0.237793 0.779785 0.579102 0.987793 0.639160 1 0 1.0
Default
0 0.608275 1.614351 4.791371 -0.237793 0.779785 0.579102 0.987793 0.639160 1 0 1.0
0 -2.734601 1.614351 3.406322 -0.237793 0.779785 0.579102 0.987793 0.639160 1 0 1.0
0 0.373906 0.884954 5.666051 -0.237793 0.779785 0.579102 0.987793 0.639160 1 0 1.0
Default
0 -6.092202 1.499476 1.712645 -0.291504 0.790527 0.538574 0.987793 0.639160 1 0 1.0
0 -6.291465 0.765465 2.726709 -0.291504 0.790527 0.538574 0.987793 0.639160 1 0 1.0
0 -2.974648 0.884953 4.302190 -0.291504 0.790527 0.538574 0.987793 0.639160 1 0 1.0
Default
0 -2.734601 1.614351 3.406322 -0.291504 0.790527 0.538574 0.987793 0.639160 1 0 1.0
0 -6.092202 1.499476 1.712645 -0.291504 0.790527 0.538574 0.987793 0.639160 1 0 1.0
0 -2.974648 0.884953 4.302190 -0.291504 0.790527 0.538574 0.987793 0.639160 1 0 1.0
Default
0 -12.186981 0.723129 0.108536 0.201538 0.925781 0.319580 0.986328 0.580566 1 0 1.0
0 -12.447416 0.191781 1.080499 0.201538 0.925781 0.319580 0.986328 0.580566 1 0 1.0
0 -10.400502 0.221489 0.435424 0.201538 0.925781 0.319580 0.986328 0.580566 1 0 1.0
Default
0 -9.909085 0.495373 -1.398565 0.201538 0.925781 0.319580 0.986328 0.580566 1 0 1.0
0 -12.186981 0.723129 0.108536 0.201538 0.925781 0.319580 0.986328 0.580566 1 0 1.0
0 -10.400502 0.221489 0.435424 0.201538 0.925781 0.319580 0.986328 0.580566 1 0 1.0
Default
0 -9.892097 0.495373 -1.461974 0.449219 0.878418 -0.163574 0.986328 0.580566 1 0 1.0
0 -9.403111 0.221489 -3.286895 0.449219 0.878418 -0.163574 0.986328 0.580566 1 0 1.0
0 -10.622099 0.191781 -5.098172 0.449219 0.878418 -0.163574 0.986328 0.580566 1 0 1.0
Default
0 -10.492725 0.723129 -3.585992 0.449219 0.878418 -0.163574 0.986328 0.580566 1 0 1.0
0 -9.892097 0.495373 -1.461974 0.449219 0.878418 -0.163574 0.986328 0.580566 1 0 1.0
0 -10.622099 0.191781 -5.098172 0.449219 0.878418 -0.163574 0.986328 0.580566 1 0 1.0
Default
0 -9.909085 0.495373 -1.398565 -0.349121 0.913574 0.208862 0.986328 0.777344 1 0 1.0
0 -10.400502 0.221489 0.435424 -0.349121 0.913574 0.208862 0.986328 0.777344 1 0 1.0
0 -8.637376 0.399733 1.145573 -0.349121 0.913574 0.208862 0.986328 0.777344 1 0 1.0
Default
0 -8.316932 1.129130 -0.050337 -0.349121 0.913574 0.208862 0.986328 0.777344 1 0 1.0
0 -9.909085 0.495373 -1.398565 -0.349121 0.913574 0.208862 0.986328 0.777344 1 0 1.0
0 -8.637376 0.399733 1.145573 -0.349121 0.913574 0.208862 0.986328 0.777344 1 0 1.0
Default
0 -12.848718 0.201684 -5.914122 -0.338135 0.939453 0.057343 0.986328 0.763672 1 0 1.0
0 -11.596790 0.485470 -3.739124 -0.338135 0.939453 0.057343 0.986328 0.763672 1 0 1.0
0 -12.068130 0.485471 -5.878072 -0.343750 0.936035 0.075745 0.986328 0.763672 1 0 1.0
Default
0 -12.848718 0.201684 -5.914122 -0.338135 0.939453 0.057343 0.986328 0.763672 1 0 1.0
0 -12.236553 0.201684 -2.334893 -0.332520 0.942383 0.038910 0.986328 0.763672 1 0 1.0
0 -11.596790 0.485470 -3.739124 -0.338135 0.939453 0.057343 0.986328 0.763672 1 0 1.0
Default
0 -12.236553 0.201684 -2.334893 -0.332520 0.942383 0.038910 0.986328 0.763672 1 0 1.0
0 -11.609797 0.485470 -2.199273 -0.332520 0.942383 0.038910 0.986328 0.763672 1 0 1.0
0 -11.596790 0.485470 -3.739124 -0.338135 0.939453 0.057343 0.986328 0.763672 1 0 1.0
Default
0 -2.974648 0.884953 4.302190 -0.377197 0.000000 0.926270 0.991211 0.638184 1 0 1.0
0 -2.974648 0.442477 4.302190 -0.377197 0.000000 0.926270 0.991211 0.638184 1 0 1.0
0 0.373906 0.442477 5.666051 -0.377197 0.000000 0.926270 0.991211 0.638184 1 0 1.0
Default
0 0.373906 0.884954 5.666051 -0.377197 0.000000 0.926270 0.991211 0.638184 1 0 1.0
0 -2.974648 0.884953 4.302190 -0.377197 0.000000 0.926270 0.991211 0.638184 1 0 1.0
0 0.373906 0.442477 5.666051 -0.377197 0.000000 0.926270 0.991211 0.638184 1 0 1.0
Default
0 -3.054611 0.127699 6.214157 -0.091919 0.982910 0.157959 0.984863 0.953125 1 0 1.0
0 0.373906 0.442477 5.666051 -0.091919 0.982910 0.157959 0.984863 0.953125 1 0 1.0
0 -2.974648 0.442477 4.302190 -0.091919 0.982910 0.157959 0.984863 0.953125 1 0 1.0
Default
0 -3.490748 0.127699 5.376232 -0.091919 0.982910 0.157959 0.984863 0.953125 1 0 1.0
0 -3.054611 0.127699 6.214157 -0.091919 0.982910 0.157959 0.984863 0.953125 1 0 1.0
0 -2.974648 0.442477 4.302190 -0.091919 0.982910 0.157959 0.984863 0.953125 1 0 1.0
Default
0 14.091190 0.920793 3.870734 0.205566 0.977051 0.055084 0.984375 0.518066 1 0 1.0
0 13.663800 1.040054 3.349882 0.205566 0.977051 0.055084 0.984375 0.518066 1 0 1.0
0 13.033245 1.159316 3.587258 0.205566 0.977051 0.055084 0.984375 0.518066 1 0 1.0
Default
0 13.033245 1.159316 3.587258 0.205566 0.977051 0.055084 0.984375 0.518066 1 0 1.0
0 12.865745 1.159316 4.212377 0.205566 0.977051 0.055084 0.984375 0.518066 1 0 1.0
0 14.091190 0.920793 3.870734 0.205566 0.977051 0.055084 0.984375 0.518066 1 0 1.0
Default
0 12.865745 1.159316 4.212377 0.205566 0.977051 0.055084 0.984375 0.518066 1 0 1.0
0 13.923689 0.920793 4.495852 0.205566 0.977051 0.055084 0.984375 0.518066 1 0 1.0
0 14.091190 0.920793 3.870734 0.205566 0.977051 0.055084 0.984375 0.518066 1 0 1.0
Default
0 12.865745 1.159316 4.212377 0.205566 0.977051 0.055084 0.984375 0.518066 1 0 1.0
0 13.293133 1.040054 4.733228 0.205566 0.977051 0.055084 0.984375 0.518066 1 0 1.0
0 13.923689 0.920793 4.495852 0.205566 0.977051 0.055084 0.984375 0.518066 1 0 1.0
Default
0 12.684854 0.803045 3.315515 -0.124451 0.625977 -0.770020 0.982910 0.984375 1 0 1.0
0 13.033245 1.159316 3.587258 -0.124451 0.625977 -0.770020 0.982910 0.984375 1 0 1.0
0 13.663800 1.040054 3.349882 -0.124451 0.625977 -0.770020 0.982910 0.984375 1 0 1.0
Default
0 13.623858 0.620275 3.053729 -0.124451 0.625977 -0.770020 0.982910 0.984375 1 0 1.0
0 12.684854 0.803045 3.315515 -0.124451 0.625977 -0.770020 0.982910 0.984375 1 0 1.0
0 13.663800 1.040054 3.349882 -0.124451 0.625977 -0.770020 0.982910 0.984375 1 0 1.0
Default
0 12.428157 0.803045 4.273518 -0.636230 0.752441 -0.170532 0.982910 0.984375 1 0 1.0
0 12.865745 1.159316 4.212377 -0.636230 0.752441 -0.170532 0.982910 0.984375 1 0 1.0
0 13.033245 1.159316 3.587258 -0.636230 0.752441 -0.170532 0.982910 0.984375 1 0 1.0
Default
0 12.684854 0.803045 3.315515 -0.636230 0.752441 -0.170532 0.982910 0.984375 1 0 1.0
0 12.428157 0.803045 4.273518 -0.636230 0.752441 -0.170532 0.982910 0.984375 1 0 1.0
0 13.033245 1.159316 3.587258 -0.636230 0.752441 -0.170532 0.982910 0.984375 1 0 1.0
Default
0 13.110466 0.620275 4.969732 -0.492920 0.625977 0.604492 0.982910 0.984375 1 0 1.0
0 13.293133 1.040054 4.733228 -0.492920 0.625977 0.604492 0.982910 0.984375 1 0 1.0
0 12.865745 1.159316 4.212377 -0.492920 0.625977 0.604492 0.982910 0.984375 1 0 1.0
Default
0 12.428157 0.803045 4.273518 -0.492920 0.625977 0.604492 0.982910 0.984375 1 0 1.0
0 13.110466 0.620275 4.969732 -0.492920 0.625977 0.604492 0.982910 0.984375 1 0 1.0
0 12.865745 1.159316 4.212377 -0.492920 0.625977 0.604492 0.982910 0.984375 1 0 1.0
Default
0 14.049468 0.437506 4.707946 0.346680 0.399658 0.848633 0.982910 0.984375 1 0 1.0
0 13.923689 0.920793 4.495852 0.346680 0.399658 0.848633 0.982910 0.984375 1 0 1.0
0 13.293133 1.040054 4.733228 0.346680 0.399658 0.848633 0.982910 0.984375 1 0 1.0
Default
0 13.110466 0.620275 4.969732 0.346680 0.399658 0.848633 0.982910 0.984375 1 0 1.0
0 14.049468 0.437506 4.707946 0.346680 0.399658 0.848633 0.982910 0.984375 1 0 1.0
0 13.293133 1.040054 4.733228 0.346680 0.399658 0.848633 0.982910 0.984375 1 0 1.0
Default
0 14.306166 0.437506 3.749944 0.907227 0.342773 0.243164 0.982910 0.984375 1 0 1.0
0 14.091190 0.920793 3.870734 0.907227 0.342773 0.243164 0.982910 0.984375 1 0 1.0
0 13.923689 0.920793 4.495852 0.907227 0.342773 0.243164 0.982910 0.984375 1 0 1.0
Default
0 14.049468 0.437506 4.707946 0.907227 0.342773 0.243164 0.982910 0.984375 1 0 1.0
0 14.306166 0.437506 3.749944 0.907227 0.342773 0.243164 0.982910 0.984375 1 0 1.0
0 13.923689 0.920793 4.495852 0.907227 0.342773 0.243164 0.982910 0.984375 1 0 1.0
Default
0 13.623858 0.620275 3.053729 0.724609 0.399658 -0.561523 0.982910 0.984375 1 0 1.0
0 13.663800 1.040054 3.349882 0.724609 0.399658 -0.561523 0.982910 0.984375 1 0 1.0
0 14.091190 0.920793 3.870734 0.724609 0.399658 -0.561523 0.982910 0.984375 1 0 1.0
Default
0 14.306166 0.437506 3.749944 0.724609 0.399658 -0.561523 0.982910 0.984375 1 0 1.0
0 13.623858 0.620275 3.053729 0.724609 0.399658 -0.561523 0.982910 0.984375 1 0 1.0
0 14.091190 0.920793 3.870734 0.724609 0.399658 -0.561523 0.982910 0.984375 1 0 1.0
Default
0 -11.596790 0.485470 -3.739124 -0.302734 0.949707 -0.081116 0.986328 0.639648 1 0 1.0
0 -11.609797 0.485470 -2.199273 -0.302734 0.949707 -0.081116 0.986328 0.639648 1 0 1.0
0 -12.368214 0.485470 -0.859152 -0.302734 0.949707 -0.081116 0.986328 0.639648 1 0 1.0
Default
0 -10.925738 0.723129 -1.969963 -0.302734 0.949707 -0.081116 0.986328 0.639648 1 0 1.0
0 -11.596790 0.485470 -3.739124 -0.302734 0.949707 -0.081116 0.986328 0.639648 1 0 1.0
0 -12.368214 0.485470 -0.859152 -0.302734 0.949707 -0.081116 0.986328 0.639648 1 0 1.0
Default
0 1.055274 1.614351 3.123148 -0.000000 1.000000 0.000000 0.987793 0.668945 1 0 1.0
0 0.608275 1.614351 4.791371 -0.000000 1.000000 0.000000 0.987793 0.668945 1 0 1.0
0 4.121080 1.614351 5.542236 -0.000000 1.000000 0.000000 0.984375 0.682129 1 0 1.0
Default
0 5.051886 1.614351 2.068421 -0.000000 1.000000 0.000000 0.984375 0.682129 1 0 1.0
0 1.055274 1.614351 3.123148 -0.000000 1.000000 0.000000 0.987793 0.668945 1 0 1.0
0 4.121080 1.614351 5.542236 -0.000000 1.000000 0.000000 0.984375 0.682129 1 0 1.0
end
