mtllib AlbatrossHead.mtl
g AlbatrossHead
usemtl Default
v 0.0551737435 0.0968897715 0.0276800599
v 0.057683982 0.0965617076 0.0078233052
v 0.0587655678 0.0511355773 0.0078233052
v 0.0412825868 0.119589962 -0.00542525016
v 0.057683982 0.0965617076 0.0078233052
v 0.0551737435 0.0968897715 0.0276800599
v 0.0529927425 0.0499748662 0.032048665
v 0.0587655678 0.0511355773 0.0078233052
v 0.0546859689 0.0246370211 0.0078233052
v 0.0579376295 -0.0809592232 -0.00398104638
v 0.077433221 -0.152237818 -0.00897976384
v 0.0768700987 -0.154545739 0.0138592552
v 0.0546859689 0.0246370211 0.0078233052
v 0.0579376295 -0.0809592232 -0.00398104638
v 0.0523249283 -0.0810953006 0.017138226
v 0.0729432404 -0.13985689 -0.0375718698
v 0.077433221 -0.152237818 -0.00897976384
v 0.0579376295 -0.0809592232 -0.00398104638
v 0.0476984717 -0.069591783 -0.0308235474
v 0.0579376295 -0.0809592232 -0.00398104638
v 0.0546859689 0.0246370211 0.0078233052
v 0.0502049103 0.0949390307 -0.0220851898
v 0.057683982 0.0965617076 0.0078233052
v 0.0412825868 0.119589962 -0.00542525016
v -0 0.100531019 0.0556411371
v 0.0444358811 0.10020522 0.0492877215
v 0.0166454352 0.0684275404 0.0629712194
v 0.0282874033 0.0105933314 0.0504652634
v -0 -0.033345513 0.0597570539
v -0 0.0387594178 0.0639976934
v 0.0260340907 -0.09906625 0.0424161106
v -0 -0.151642695 0.0549854264
v -0 -0.033345513 0.0597570539
v 0.0444358811 0.10020522 0.0492877215
v -0 0.138768777 0.0230806675
v 0.0242502317 0.135028467 0.018957505
v -0 0.0387594178 0.0639976934
v 0.0166454352 0.0684275404 0.0629712194
v 0.0388027243 0.0462703481 0.0575044826
v 0.0282874033 0.0105933314 0.0504652634
v -0 0.0387594178 0.0639976934
v 0.0388027243 0.0462703481 0.0575044826
v 0.0260340907 -0.09906625 0.0424161106
v -0 -0.033345513 0.0597570539
v 0.0398322605 -0.0540579148 0.0335492939
v 0.0282874033 0.0105933314 0.0504652634
v 0.0388027243 0.0462703481 0.0575044826
v 0.0426344089 0.0186598077 0.0355915278
v 0.0388027243 0.0462703481 0.0575044826
v 0.0444358811 0.10020522 0.0492877215
v 0.0529927425 0.0499748662 0.032048665
v 0.0426344089 0.0186598077 0.0355915278
v 0.0388027243 0.0462703481 0.0575044826
v 0.0529927425 0.0499748662 0.032048665
v 0.0647429228 -0.155523255 0.0303686727
v 0.0260340907 -0.09906625 0.0424161106
v 0.0523249283 -0.0810953006 0.017138226
v 0.0260340907 -0.09906625 0.0424161106
v 0.0398322605 -0.0540579148 0.0335492939
v 0.0523249283 -0.0810953006 0.017138226
v 0.0282874033 0.0105933314 0.0504652634
v 0.0426344089 0.0186598077 0.0355915278
v 0.0523249283 -0.0810953006 0.017138226
v 0.0647429228 -0.155523255 0.0303686727
v 0.0523249283 -0.0810953006 0.017138226
v 0.0768700987 -0.154545739 0.0138592552
v 0.0242502317 0.135028467 0.018957505
v 0.0551737435 0.0968897715 0.0276800599
v 0.0444358811 0.10020522 0.0492877215
v 0.0551737435 0.0968897715 0.0276800599
v 0.0529927425 0.0499748662 0.032048665
v 0.0444358811 0.10020522 0.0492877215
v 0.0444358811 0.10020522 0.0492877215
v -0 0.100531019 0.0556411371
v -0 0.138768777 0.0230806675
v 0.0444358811 0.10020522 0.0492877215
v 0.0388027243 0.0462703481 0.0575044826
v 0.0166454352 0.0684275404 0.0629712194
v 0.0282874033 0.0105933314 0.0504652634
v 0.0398322605 -0.0540579148 0.0335492939
v -0 -0.033345513 0.0597570539
v -0 -0.127521172 -0.0885430127
v 0.0312765054 -0.0271908566 -0.0554319248
v -0 0.0293004289 -0.0494872518
v -0 0.0958332792 -0.0257193614
v -0 0.0762840286 -0.0483551323
v 0.0320120417 0.0858995095 -0.0421565995
v -0 0.236170456 -0.103135698
v 0.00172620453 0.23547934 -0.103856817
v 0.00359977782 0.235873207 -0.103518829
v -0.00359977782 0.235873207 -0.103518829
v -0.00172620453 0.23547934 -0.103856817
v 0.0201815609 0.100785889 -0.024391057
v -0 0.0958332792 -0.0257193614
v 0.0320120417 0.0858995095 -0.0421565995
v 0.0201815609 0.100785889 -0.024391057
v 0.0320120417 0.0858995095 -0.0421565995
v 0.0387756154 0.109825589 -0.0154152624
v 0.0312765054 -0.0271908566 -0.0554319248
v 0.0212415587 0.0424845889 -0.0480948761
v -0 0.0293004289 -0.0494872518
v -0.0312765054 -0.0271908566 -0.0554319248
v -0.0212415587 0.0424845889 -0.0480948761
v 0.047180593 0.0246370211 -0.025877038
v 0.0212415587 0.0424845889 -0.0480948761
v 0.0312765054 -0.0271908566 -0.0554319248
v 0.0312765054 -0.0271908566 -0.0554319248
v 0.0422625914 -0.133331701 -0.0675826743
v 0.0476984717 -0.069591783 -0.0308235474
v 0.0312765054 -0.0271908566 -0.0554319248
v 0.0476984717 -0.069591783 -0.0308235474
v 0.047180593 0.0246370211 -0.025877038
v 0.0476984717 -0.069591783 -0.0308235474
v 0.0422625914 -0.133331701 -0.0675826743
v 0.0729432404 -0.13985689 -0.0375718698
v 0.0505033508 0.0491558388 -0.0244989675
v 0.0502049103 0.0949390307 -0.0220851898
v 0.0320120417 0.0858995095 -0.0421565995
v 0.0502049103 0.0949390307 -0.0220851898
v 0.0387756154 0.109825589 -0.0154152624
v 0.0320120417 0.0858995095 -0.0421565995
v -0 -0.127521172 -0.0885430127
v 0.0422625914 -0.133331701 -0.0675826743
v 0.0312765054 -0.0271908566 -0.0554319248
v -0 0.0762840286 -0.0483551323
v -0 0.0293004289 -0.0494872518
v 0.0212415587 0.0424845889 -0.0480948761
v 0.0166454352 0.0684275404 0.0629712194
v -0 0.0387594178 0.0639976934
v -0 0.100531019 0.0556411371
v 0.0320120417 0.0858995095 -0.0421565995
v -0 0.0762840286 -0.0483551323
v 0.0212415587 0.0424845889 -0.0480948761
v 0.0528507493 0.0885078087 0.031286642
v 0.0565467179 0.100611664 0.0385813341
v 0.0502793752 0.105820812 0.0248226356
v 0.0502793752 0.105820812 0.0248226356
v 0.0565467179 0.100611664 0.0385813341
v 0.0427383967 0.112836041 0.0345862731
v 0.0528507493 0.0885078087 0.031286642
v 0.0472109653 0.0848227516 0.0450453386
v 0.0565467179 0.100611664 0.0385813341
v 0.0565467179 0.100611664 0.0385813341
v 0.0441063717 0.0990270749 0.0451448187
v 0.0427383967 0.112836041 0.0345862731
v 0.0472109653 0.0848227516 0.0450453386
v 0.0441063717 0.0990270749 0.0451448187
v 0.0565467179 0.100611664 0.0385813341
v -0 0.188844904 -0.00895173755
v -0 0.104339853 0.00262341835
v 0.0412825868 0.119589962 -0.00542525016
v 0.0412825868 0.119589962 -0.00542525016
v -0 0.104339853 0.00262341835
v -0 0.166310549 -0.0574840903
v 0.0412825868 0.119589962 -0.00542525016
v 0.0257530883 0.173020586 -0.0507740416
v 0.0232461169 0.170087621 -0.0544275716
v -0 0.102094151 -0.0282441657
v -0 0.0958332792 -0.0257193614
v 0.0201815609 0.100785889 -0.024391057
v 0.0257530883 0.188844904 -0.0166069493
v 0.0167060774 0.188785121 -0.00865403377
v 0.0132015124 0.22072427 -0.015138505
v -0 0.188844904 -0.00895173755
v 0.0257530883 0.188844904 -0.0166069493
v 0.019761391 0.220784053 -0.0235565174
v 0.0257530883 0.188844904 -0.0166069493
v 0.0412825868 0.119589962 -0.00542525016
v 0.0242502317 0.135028467 0.018957505
v -0 0.166310549 -0.0574840903
v -0 0.19417429 -0.0749863759
v 0.019761391 0.197224304 -0.0734613687
v 0.0232461169 0.170087621 -0.0544275716
v 0.0172544196 0.195098266 -0.0757910833
v 0.0139518147 0.19306545 -0.0777765065
v 0.019761391 0.220784053 -0.0235565174
v 0.0132015124 0.22072427 -0.015138505
v 0.00897945277 0.257219881 -0.0217287801
v 0.0132015124 0.22072427 -0.015138505
v -0 0.21611087 -0.00901001319
v -0 0.243241355 -0.0144684128
v 0.0167060774 0.188785121 -0.00865403377
v -0 0.21611087 -0.00901001319
v -0 0.184171721 -0.00206044503
v -0 0.257279664 -0.0266756099
v 0.0109782005 0.257279664 -0.0290388837
v 0.00440823473 0.269996911 -0.0301576257
v 0.00897945277 0.257219881 -0.0217287801
v -0 0.243241355 -0.0144684128
v -0 0.263699561 -0.0241129193
v 0.0109782005 0.257279664 -0.0290388837
v 0.00897945277 0.257219881 -0.0217287801
v 0.00440823473 0.269996911 -0.0301576257
v 0.0232461169 0.170087621 -0.0544275716
v 0.0257530883 0.173020586 -0.0507740416
v 0.019761391 0.197224304 -0.0734613687
v -0 0.226024553 -0.0955698267
v -0 0.236170456 -0.103135698
v 0.00359977782 0.235873207 -0.103518829
v 0.0172544196 0.195098266 -0.0757910833
v 0.019761391 0.197224304 -0.0734613687
v 0.0107500423 0.226024553 -0.0955698267
v 0.0139518147 0.19306545 -0.0777765065
v 0.0172544196 0.195098266 -0.0757910833
v 0.00824307092 0.224851057 -0.0966176838
v 0.0107500423 0.226024553 -0.0955698267
v 0.00359977782 0.235873207 -0.103518829
v 0.00824307092 0.224851057 -0.0966176838
v 0.00550060719 0.224081978 -0.0973720029
v 0.00359977782 0.235873207 -0.103518829
v 0.00172620453 0.23547934 -0.103856817
v -0 0.26996699 -0.0295624658
v 0.00440823473 0.269996911 -0.0301576257
v -0 0.263699561 -0.0241129193
v 0.0544372648 -0.140506938 -0.0283789467
v 0.0422625914 -0.133331701 -0.0675826743
v 0.0257109813 -0.134459898 -0.041587092
v 0.0729432404 -0.13985689 -0.0375718698
v 0.0544372648 -0.140506938 -0.0283789467
v 0.077433221 -0.152237818 -0.00897976384
v 0.0257109813 -0.134459898 -0.041587092
v 0.0422625914 -0.133331701 -0.0675826743
v -0 -0.127521172 -0.0885430127
v 0.0248512048 -0.146823093 0.0324350297
v 0.0244333856 -0.136234 0.000740127638
v -0 -0.137943283 0.0218553524
v 0.0248512048 -0.146823093 0.0324350297
v -0 -0.137943283 0.0218553524
v -0 -0.151642695 0.0549854264
v 0.077433221 -0.152237818 -0.00897976384
v 0.0591687523 -0.150634781 0.0148898158
v 0.0768700987 -0.154545739 0.0138592552
v 0.0544372648 -0.140506938 -0.0283789467
v 0.0591687523 -0.150634781 0.0148898158
v 0.077433221 -0.152237818 -0.00897976384
v 0.0768700987 -0.154545739 0.0138592552
v 0.0591687523 -0.150634781 0.0148898158
v 0.0647429228 -0.155523255 0.0303686727
v 0.0647429228 -0.155523255 0.0303686727
v 0.0591687523 -0.150634781 0.0148898158
v 0.0335870832 -0.153655842 0.0422148481
v 0.0335870832 -0.153655842 0.0422148481
v 0.0591687523 -0.150634781 0.0148898158
v 0.0248512048 -0.146823093 0.0324350297
v 0.0544372648 -0.140506938 -0.0283789467
v 0.0257109813 -0.134459898 -0.041587092
v 0.0244333856 -0.136234 0.000740127638
v 0.0244333856 -0.136234 0.000740127638
v 0.0257109813 -0.134459898 -0.041587092
v -0 -0.127091751 -0.0427136645
v 0.0422625914 -0.133331701 -0.0675826743
v 0.0544372648 -0.140506938 -0.0283789467
v 0.0729432404 -0.13985689 -0.0375718698
v 0.0257109813 -0.134459898 -0.041587092
v -0 -0.127521172 -0.0885430127
v -0 -0.127091751 -0.0427136645
v -0 -0.137943283 0.0218553524
v 0.0244333856 -0.136234 0.000740127638
v -0 -0.127091751 -0.0427136645
v 0.0244333856 -0.136234 0.000740127638
v 0.0591687523 -0.150634781 0.0148898158
v 0.0544372648 -0.140506938 -0.0283789467
v 0.0591687523 -0.150634781 0.0148898158
v 0.0244333856 -0.136234 0.000740127638
v 0.0248512048 -0.146823093 0.0324350297
v 0.0248512048 -0.146823093 0.0324350297
v -0 -0.151642695 0.0549854264
v 0.0335870832 -0.153655842 0.0422148481
v -0.0587655678 0.0511355773 0.0078233052
v -0.057683982 0.0965617076 0.0078233052
v -0.0551737435 0.0968897715 0.0276800599
v -0.0412825868 0.119589962 -0.00542525016
v -0.0242502317 0.135028467 0.018957505
v -0.0551737435 0.0968897715 0.0276800599
v -0.0546859689 0.0246370211 0.0078233052
v -0.0587655678 0.0511355773 0.0078233052
v -0.0529927425 0.0499748662 0.032048665
v -0.0579376295 -0.0809592232 -0.00398104638
v -0.0523249283 -0.0810953006 0.017138226
v -0.0768700987 -0.154545739 0.0138592552
v -0.0546859689 0.0246370211 0.0078233052
v -0.0426344089 0.0186598077 0.0355915278
v -0.0523249283 -0.0810953006 0.017138226
v -0.0579376295 -0.0809592232 -0.00398104638
v -0.077433221 -0.152237818 -0.00897976384
v -0.0729432404 -0.13985689 -0.0375718698
v -0.0546859689 0.0246370211 0.0078233052
v -0.0579376295 -0.0809592232 -0.00398104638
v -0.0476984717 -0.069591783 -0.0308235474
v -0.0412825868 0.119589962 -0.00542525016
v -0.057683982 0.0965617076 0.0078233052
v -0.0502049103 0.0949390307 -0.0220851898
v -0 0.100531019 0.0556411371
v -0.0166454352 0.0684275404 0.0629712194
v -0.0444358811 0.10020522 0.0492877215
v -0.0282874033 0.0105933314 0.0504652634
v -0 0.0387594178 0.0639976934
v -0 -0.033345513 0.0597570539
v -0.0260340907 -0.09906625 0.0424161106
v -0 -0.033345513 0.0597570539
v -0 -0.151642695 0.0549854264
v -0.0444358811 0.10020522 0.0492877215
v -0.0242502317 0.135028467 0.018957505
v -0 0.138768777 0.0230806675
v -0 0.0387594178 0.0639976934
v -0.0388027243 0.0462703481 0.0575044826
v -0.0166454352 0.0684275404 0.0629712194
v -0.0282874033 0.0105933314 0.0504652634
v -0.0388027243 0.0462703481 0.0575044826
v -0 0.0387594178 0.0639976934
v -0.0260340907 -0.09906625 0.0424161106
v -0.0398322605 -0.0540579148 0.0335492939
v -0 -0.033345513 0.0597570539
v -0.0282874033 0.0105933314 0.0504652634
v -0.0426344089 0.0186598077 0.0355915278
v -0.0388027243 0.0462703481 0.0575044826
v -0.0388027243 0.0462703481 0.0575044826
v -0.0529927425 0.0499748662 0.032048665
v -0.0444358811 0.10020522 0.0492877215
v -0.0426344089 0.0186598077 0.0355915278
v -0.0529927425 0.0499748662 0.032048665
v -0.0388027243 0.0462703481 0.0575044826
v -0.0647429228 -0.155523255 0.0303686727
v -0.0523249283 -0.0810953006 0.017138226
v -0.0260340907 -0.09906625 0.0424161106
v -0.0260340907 -0.09906625 0.0424161106
v -0.0523249283 -0.0810953006 0.017138226
v -0.0398322605 -0.0540579148 0.0335492939
v -0.0426344089 0.0186598077 0.0355915278
v -0.0282874033 0.0105933314 0.0504652634
v -0.0523249283 -0.0810953006 0.017138226
v -0.0647429228 -0.155523255 0.0303686727
v -0.0768700987 -0.154545739 0.0138592552
v -0.0523249283 -0.0810953006 0.017138226
v -0.0242502317 0.135028467 0.018957505
v -0.0444358811 0.10020522 0.0492877215
v -0.0551737435 0.0968897715 0.0276800599
v -0.0551737435 0.0968897715 0.0276800599
v -0.0444358811 0.10020522 0.0492877215
v -0.0529927425 0.0499748662 0.032048665
v -0.0444358811 0.10020522 0.0492877215
v -0 0.138768777 0.0230806675
v -0 0.100531019 0.0556411371
v -0.0444358811 0.10020522 0.0492877215
v -0.0166454352 0.0684275404 0.0629712194
v -0.0388027243 0.0462703481 0.0575044826
v -0.0282874033 0.0105933314 0.0504652634
v -0 -0.033345513 0.0597570539
v -0.0398322605 -0.0540579148 0.0335492939
v -0 -0.127521172 -0.0885430127
v -0 0.0293004289 -0.0494872518
v -0.0312765054 -0.0271908566 -0.0554319248
v -0 0.0958332792 -0.0257193614
v -0.0320120417 0.0858995095 -0.0421565995
v -0 0.0762840286 -0.0483551323
v -0.0201815609 0.100785889 -0.024391057
v -0.0320120417 0.0858995095 -0.0421565995
v -0 0.0958332792 -0.0257193614
v -0.0201815609 0.100785889 -0.024391057
v -0.0387756154 0.109825589 -0.0154152624
v -0.0320120417 0.0858995095 -0.0421565995
v -0.047180593 0.0246370211 -0.025877038
v -0.0312765054 -0.0271908566 -0.0554319248
v -0.0212415587 0.0424845889 -0.0480948761
v -0.0312765054 -0.0271908566 -0.0554319248
v -0.0476984717 -0.069591783 -0.0308235474
v -0.0422625914 -0.133331701 -0.0675826743
v -0.0312765054 -0.0271908566 -0.0554319248
v -0.047180593 0.0246370211 -0.025877038
v -0.0476984717 -0.069591783 -0.0308235474
v -0.0476984717 -0.069591783 -0.0308235474
v -0.0729432404 -0.13985689 -0.0375718698
v -0.0422625914 -0.133331701 -0.0675826743
v -0.0505033508 0.0491558388 -0.0244989675
v -0.0320120417 0.0858995095 -0.0421565995
v -0.0502049103 0.0949390307 -0.0220851898
v -0.0502049103 0.0949390307 -0.0220851898
v -0.0320120417 0.0858995095 -0.0421565995
v -0.0387756154 0.109825589 -0.0154152624
v -0 -0.127521172 -0.0885430127
v -0.0312765054 -0.0271908566 -0.0554319248
v -0.0422625914 -0.133331701 -0.0675826743
v -0 0.0762840286 -0.0483551323
v -0.0212415587 0.0424845889 -0.0480948761
v -0 0.0293004289 -0.0494872518
v -0.0166454352 0.0684275404 0.0629712194
v -0 0.100531019 0.0556411371
v -0 0.0387594178 0.0639976934
v -0.0320120417 0.0858995095 -0.0421565995
v -0.0212415587 0.0424845889 -0.0480948761
v -0 0.0762840286 -0.0483551323
v -0.0528507493 0.0885078087 0.031286642
v -0.0502793752 0.105820812 0.0248226356
v -0.0565467179 0.100611664 0.0385813341
v -0.0502793752 0.105820812 0.0248226356
v -0.0427383967 0.112836041 0.0345862731
v -0.0565467179 0.100611664 0.0385813341
v -0.0528507493 0.0885078087 0.031286642
v -0.0565467179 0.100611664 0.0385813341
v -0.0472109653 0.0848227516 0.0450453386
v -0.0565467179 0.100611664 0.0385813341
v -0.0427383967 0.112836041 0.0345862731
v -0.0441063717 0.0990270749 0.0451448187
v -0.0472109653 0.0848227516 0.0450453386
v -0.0565467179 0.100611664 0.0385813341
v -0.0441063717 0.0990270749 0.0451448187
v -0.0412825868 0.119589962 -0.00542525016
v -0 0.104339853 0.00262341835
v -0 0.188844904 -0.00895173755
v -0 0.166310549 -0.0574840903
v -0 0.104339853 0.00262341835
v -0.0412825868 0.119589962 -0.00542525016
v -0.0412825868 0.119589962 -0.00542525016
v -0.0387756154 0.109825589 -0.0154152624
v -0.0232461169 0.170087621 -0.0544275716
v -0 0.102094151 -0.0282441657
v -0.0201815609 0.100785889 -0.024391057
v -0 0.0958332792 -0.0257193614
v -0.0257530883 0.188844904 -0.0166069493
v -0.019761391 0.220784053 -0.0235565174
v -0.0132015124 0.22072427 -0.015138505
v -0.0242502317 0.135028467 0.018957505
v -0.0412825868 0.119589962 -0.00542525016
v -0.0257530883 0.188844904 -0.0166069493
v -0 0.166310549 -0.0574840903
v -0.0257530883 0.173020586 -0.0507740416
v -0.019761391 0.197224304 -0.0734613687
v -0.0387756154 0.109825589 -0.0154152624
v -0.0201815609 0.100785889 -0.024391057
v -0.0188354235 0.164058909 -0.0607898533
v -0.019761391 0.220784053 -0.0235565174
v -0.0109782005 0.257279664 -0.0290388837
v -0.00897945277 0.257219881 -0.0217287801
v -0.0132015124 0.22072427 -0.015138505
v -0.00897945277 0.257219881 -0.0217287801
v -0 0.243241355 -0.0144684128
v -0 0.257279664 -0.0266756099
v -0 0.270026773 -0.0307527855
v -0.00440823473 0.269996911 -0.0301576257
v -0.00897945277 0.257219881 -0.0217287801
v -0.00440823473 0.269996911 -0.0301576257
v -0 0.263699561 -0.0241129193
v -0 0.220784053 -0.0159013066
v -0 0.257279664 -0.0266756099
v -0.0109782005 0.257279664 -0.0290388837
v -0.0109782005 0.257279664 -0.0290388837
v -0.00440823473 0.269996911 -0.0301576257
v -0.00897945277 0.257219881 -0.0217287801
v -0 0.19417429 -0.0749863759
v -0.019761391 0.197224304 -0.0734613687
v -0.0107500423 0.226024553 -0.0955698267
v -0.019761391 0.197224304 -0.0734613687
v -0.0257530883 0.173020586 -0.0507740416
v -0.0232461169 0.170087621 -0.0544275716
v -0 0.226024553 -0.0955698267
v -0.0107500423 0.226024553 -0.0955698267
v -0.00359977782 0.235873207 -0.103518829
v 0.00359977782 0.235873207 -0.103518829
v 0.0107500423 0.226024553 -0.0955698267
v -0.0107500423 0.226024553 -0.0955698267
v -0.019761391 0.197224304 -0.0734613687
v -0.0172544196 0.195098266 -0.0757910833
v -0.00824307092 0.224851057 -0.0966176838
v -0.0172544196 0.195098266 -0.0757910833
v -0.0139518147 0.19306545 -0.0777765065
v -0.0107500423 0.226024553 -0.0955698267
v -0.00824307092 0.224851057 -0.0966176838
v -0.00359977782 0.235873207 -0.103518829
v -0.00550060719 0.224081978 -0.0973720029
v -0.00172620453 0.23547934 -0.103856817
v -0.00359977782 0.235873207 -0.103518829
v -0 0.26996699 -0.0295624658
v -0 0.263699561 -0.0241129193
v -0.00440823473 0.269996911 -0.0301576257
v -0.0544372648 -0.140506938 -0.0283789467
v -0.0257109813 -0.134459898 -0.041587092
v -0.0422625914 -0.133331701 -0.0675826743
v -0.0729432404 -0.13985689 -0.0375718698
v -0.077433221 -0.152237818 -0.00897976384
v -0.0544372648 -0.140506938 -0.0283789467
v -0.0257109813 -0.134459898 -0.041587092
v -0 -0.127521172 -0.0885430127
v -0.0422625914 -0.133331701 -0.0675826743
v -0.0248512048 -0.146823093 0.0324350297
v -0 -0.137943283 0.0218553524
v -0.0244333856 -0.136234 0.000740127638
v -0.0248512048 -0.146823093 0.0324350297
v -0 -0.151642695 0.0549854264
v -0 -0.137943283 0.0218553524
v -0.077433221 -0.152237818 -0.00897976384
v -0.0768700987 -0.154545739 0.0138592552
v -0.0591687523 -0.150634781 0.0148898158
v -0.0544372648 -0.140506938 -0.0283789467
v -0.077433221 -0.152237818 -0.00897976384
v -0.0591687523 -0.150634781 0.0148898158
v -0.0768700987 -0.154545739 0.0138592552
v -0.0647429228 -0.155523255 0.0303686727
v -0.0591687523 -0.150634781 0.0148898158
v -0.0647429228 -0.155523255 0.0303686727
v -0.0335870832 -0.153655842 0.0422148481
v -0.0591687523 -0.150634781 0.0148898158
v -0.0335870832 -0.153655842 0.0422148481
v -0.0248512048 -0.146823093 0.0324350297
v -0.0591687523 -0.150634781 0.0148898158
v -0.0544372648 -0.140506938 -0.0283789467
v -0.0244333856 -0.136234 0.000740127638
v -0.0257109813 -0.134459898 -0.041587092
v -0.0244333856 -0.136234 0.000740127638
v -0 -0.127091751 -0.0427136645
v -0.0257109813 -0.134459898 -0.041587092
v -0.0422625914 -0.133331701 -0.0675826743
v -0.0729432404 -0.13985689 -0.0375718698
v -0.0544372648 -0.140506938 -0.0283789467
v -0.0257109813 -0.134459898 -0.041587092
v -0 -0.127091751 -0.0427136645
v -0 -0.127521172 -0.0885430127
v -0 -0.137943283 0.0218553524
v -0 -0.127091751 -0.0427136645
v -0.0244333856 -0.136234 0.000740127638
v -0.0244333856 -0.136234 0.000740127638
v -0.0544372648 -0.140506938 -0.0283789467
v -0.0591687523 -0.150634781 0.0148898158
v -0.0591687523 -0.150634781 0.0148898158
v -0.0248512048 -0.146823093 0.0324350297
v -0.0244333856 -0.136234 0.000740127638
v -0.0248512048 -0.146823093 0.0324350297
v -0.0335870832 -0.153655842 0.0422148481
v -0 -0.151642695 0.0549854264
v 0.0551737435 0.0968897715 0.0276800599
v 0.0587655678 0.0511355773 0.0078233052
v 0.0529927425 0.0499748662 0.032048665
v 0.0412825868 0.119589962 -0.00542525016
v 0.0551737435 0.0968897715 0.0276800599
v 0.0242502317 0.135028467 0.018957505
v 0.0529927425 0.0499748662 0.032048665
v 0.0546859689 0.0246370211 0.0078233052
v 0.0426344089 0.0186598077 0.0355915278
v 0.0579376295 -0.0809592232 -0.00398104638
v 0.0768700987 -0.154545739 0.0138592552
v 0.0523249283 -0.0810953006 0.017138226
v 0.0546859689 0.0246370211 0.0078233052
v 0.0523249283 -0.0810953006 0.017138226
v 0.0426344089 0.0186598077 0.0355915278
v 0.0729432404 -0.13985689 -0.0375718698
v 0.0579376295 -0.0809592232 -0.00398104638
v 0.0476984717 -0.069591783 -0.0308235474
v 0.0476984717 -0.069591783 -0.0308235474
v 0.0546859689 0.0246370211 0.0078233052
v 0.047180593 0.0246370211 -0.025877038
v 0.0502049103 0.0949390307 -0.0220851898
v 0.0412825868 0.119589962 -0.00542525016
v 0.0387756154 0.109825589 -0.0154152624
v -0 0.188844904 -0.00895173755
v 0.0412825868 0.119589962 -0.00542525016
v 0.0257530883 0.188844904 -0.0166069493
v 0.0412825868 0.119589962 -0.00542525016
v -0 0.166310549 -0.0574840903
v 0.0257530883 0.173020586 -0.0507740416
v 0.0412825868 0.119589962 -0.00542525016
v 0.0232461169 0.170087621 -0.0544275716
v 0.0387756154 0.109825589 -0.0154152624
v 0.0257530883 0.188844904 -0.0166069493
v 0.0132015124 0.22072427 -0.015138505
v 0.019761391 0.220784053 -0.0235565174
v 0.0257530883 0.188844904 -0.0166069493
v 0.0242502317 0.135028467 0.018957505
v 0.0167060774 0.188785121 -0.00865403377
v -0 0.166310549 -0.0574840903
v 0.019761391 0.197224304 -0.0734613687
v 0.0257530883 0.173020586 -0.0507740416
v 0.0387756154 0.109825589 -0.0154152624
v 0.0188354235 0.164058909 -0.0607898533
v 0.0201815609 0.100785889 -0.024391057
v 0.019761391 0.220784053 -0.0235565174
v 0.00897945277 0.257219881 -0.0217287801
v 0.0109782005 0.257279664 -0.0290388837
v 0.0132015124 0.22072427 -0.015138505
v -0 0.243241355 -0.0144684128
v 0.00897945277 0.257219881 -0.0217287801
v -0 0.257279664 -0.0266756099
v 0.00440823473 0.269996911 -0.0301576257
v -0 0.270026773 -0.0307527855
v 0.00897945277 0.257219881 -0.0217287801
v -0 0.263699561 -0.0241129193
v 0.00440823473 0.269996911 -0.0301576257
v -0 0.220784053 -0.0159013066
v 0.0109782005 0.257279664 -0.0290388837
v -0 0.257279664 -0.0266756099
v -0 0.19417429 -0.0749863759
v 0.0107500423 0.226024553 -0.0955698267
v 0.019761391 0.197224304 -0.0734613687
v 0.0232461169 0.170087621 -0.0544275716
v 0.019761391 0.197224304 -0.0734613687
v 0.0172544196 0.195098266 -0.0757910833
v 0.0172544196 0.195098266 -0.0757910833
v 0.0107500423 0.226024553 -0.0955698267
v 0.00824307092 0.224851057 -0.0966176838
v 0.0188354235 0.164058909 -0.0607898533
v -0 0.102094151 -0.0282441657
v 0.0201815609 0.100785889 -0.024391057
v -0.0587655678 0.0511355773 0.0078233052
v -0.0551737435 0.0968897715 0.0276800599
v -0.0529927425 0.0499748662 0.032048665
v -0.0412825868 0.119589962 -0.00542525016
v -0.0551737435 0.0968897715 0.0276800599
v -0.057683982 0.0965617076 0.0078233052
v -0.0546859689 0.0246370211 0.0078233052
v -0.0529927425 0.0499748662 0.032048665
v -0.0426344089 0.0186598077 0.0355915278
v -0.0579376295 -0.0809592232 -0.00398104638
v -0.0768700987 -0.154545739 0.0138592552
v -0.077433221 -0.152237818 -0.00897976384
v -0.0546859689 0.0246370211 0.0078233052
v -0.0523249283 -0.0810953006 0.017138226
v -0.0579376295 -0.0809592232 -0.00398104638
v -0.0579376295 -0.0809592232 -0.00398104638
v -0.0729432404 -0.13985689 -0.0375718698
v -0.0476984717 -0.069591783 -0.0308235474
v -0.0546859689 0.0246370211 0.0078233052
v -0.0476984717 -0.069591783 -0.0308235474
v -0.047180593 0.0246370211 -0.025877038
v -0.0412825868 0.119589962 -0.00542525016
v -0.0502049103 0.0949390307 -0.0220851898
v -0.0387756154 0.109825589 -0.0154152624
v -0.0412825868 0.119589962 -0.00542525016
v -0 0.188844904 -0.00895173755
v -0.0257530883 0.188844904 -0.0166069493
v -0 0.166310549 -0.0574840903
v -0.0412825868 0.119589962 -0.00542525016
v -0.0257530883 0.173020586 -0.0507740416
v -0.0412825868 0.119589962 -0.00542525016
v -0.0232461169 0.170087621 -0.0544275716
v -0.0257530883 0.173020586 -0.0507740416
v -0.0188354235 0.164058909 -0.0607898533
v -0.0139518147 0.19306545 -0.0777765065
v -0.0387756154 0.109825589 -0.0154152624
v -0.0257530883 0.188844904 -0.0166069493
v -0.0132015124 0.22072427 -0.015138505
v -0.0167060774 0.188785121 -0.00865403377
v -0 0.188844904 -0.00895173755
v -0.019761391 0.220784053 -0.0235565174
v -0.0257530883 0.188844904 -0.0166069493
v -0.0242502317 0.135028467 0.018957505
v -0.0257530883 0.188844904 -0.0166069493
v -0.0167060774 0.188785121 -0.00865403377
v -0 0.166310549 -0.0574840903
v -0.019761391 0.197224304 -0.0734613687
v -0 0.19417429 -0.0749863759
v -0.0232461169 0.170087621 -0.0544275716
v -0.0139518147 0.19306545 -0.0777765065
v -0.0172544196 0.195098266 -0.0757910833
v -0.019761391 0.220784053 -0.0235565174
v -0.00897945277 0.257219881 -0.0217287801
v -0.0132015124 0.22072427 -0.015138505
v -0 0.257279664 -0.0266756099
v -0.00440823473 0.269996911 -0.0301576257
v -0.0109782005 0.257279664 -0.0290388837
v -0.00897945277 0.257219881 -0.0217287801
v -0 0.263699561 -0.0241129193
v -0 0.243241355 -0.0144684128
v -0.019761391 0.197224304 -0.0734613687
v -0.0232461169 0.170087621 -0.0544275716
v -0.0172544196 0.195098266 -0.0757910833
v -0 0.226024553 -0.0955698267
v -0.00359977782 0.235873207 -0.103518829
v -0 0.236170456 -0.103135698
v -0.0107500423 0.226024553 -0.0955698267
v -0.0172544196 0.195098266 -0.0757910833
v -0.00824307092 0.224851057 -0.0966176838
v -0 0.102094151 -0.0282441657
v -0.0188354235 0.164058909 -0.0607898533
v -0.0201815609 0.100785889 -0.024391057
v 0.0546859689 0.0246370211 0.0078233052
v 0.0587655678 0.0511355773 0.0078233052
v 0.0505033508 0.0491558388 -0.0244989675
v 0.047180593 0.0246370211 -0.025877038
v 0.0587655678 0.0511355773 0.0078233052
v 0.057683982 0.0965617076 0.0078233052
v 0.0502049103 0.0949390307 -0.0220851898
v 0.0505033508 0.0491558388 -0.0244989675
v 0.0260340907 -0.09906625 0.0424161106
v 0.0647429228 -0.155523255 0.0303686727
v 0.0335870832 -0.153655842 0.0422148481
v -0 -0.151642695 0.0549854264
v 0.0320120417 0.0858995095 -0.0421565995
v 0.0212415587 0.0424845889 -0.0480948761
v 0.0505033508 0.0491558388 -0.0244989675
v 0.047180593 0.0246370211 -0.025877038
v 0.0242502317 0.135028467 0.018957505
v -0 0.138768777 0.0230806675
v -0 0.184171721 -0.00206044503
v 0.0167060774 0.188785121 -0.00865403377
v 0.0387756154 0.109825589 -0.0154152624
v 0.0232461169 0.170087621 -0.0544275716
v 0.0188354235 0.164058909 -0.0607898533
v 0.0139518147 0.19306545 -0.0777765065
v -0 0.220784053 -0.0159013066
v 0.019761391 0.220784053 -0.0235565174
v 0.0109782005 0.257279664 -0.0290388837
v -0 0.188844904 -0.00895173755
v -0 0.19417429 -0.0749863759
v -0 0.226024553 -0.0955698267
v 0.0107500423 0.226024553 -0.0955698267
v -0.0107500423 0.226024553 -0.0955698267
v -0 0.270026773 -0.0307527855
v 0.00440823473 0.269996911 -0.0301576257
v -0 0.26996699 -0.0295624658
v -0.00440823473 0.269996911 -0.0301576257
v 0.00824307092 0.224851057 -0.0966176838
v 0.00359977782 0.235873207 -0.103518829
v 0.00550060719 0.224081978 -0.0973720029
v 0.0139518147 0.19306545 -0.0777765065
v 0.0188354235 0.164058909 -0.0607898533
v -0 0.163643703 -0.0615089312
v -0 0.102094151 -0.0282441657
v 0.0139518147 0.19306545 -0.0777765065
v -0 0.192650303 -0.0784955993
v 0.00550060719 0.224081978 -0.0973720029
v 0.00172620453 0.23547934 -0.103856817
v -0 0.236170456 -0.103135698
v -0 0.235485539 -0.103911527
v -0.00172620453 0.23547934 -0.103856817
v -0.0546859689 0.0246370211 0.0078233052
v -0.047180593 0.0246370211 -0.025877038
v -0.0505033508 0.0491558388 -0.0244989675
v -0.0587655678 0.0511355773 0.0078233052
v -0.0587655678 0.0511355773 0.0078233052
v -0.0505033508 0.0491558388 -0.0244989675
v -0.0502049103 0.0949390307 -0.0220851898
v -0.057683982 0.0965617076 0.0078233052
v -0.0260340907 -0.09906625 0.0424161106
v -0 -0.151642695 0.0549854264
v -0.0335870832 -0.153655842 0.0422148481
v -0.0647429228 -0.155523255 0.0303686727
v -0.00550060719 0.224081978 -0.0973720029
v -0.0139518147 0.19306545 -0.0777765065
v -0 0.192650303 -0.0784955993
v -0 0.163643703 -0.0615089312
v -0.0188354235 0.164058909 -0.0607898533
v -0 0.102094151 -0.0282441657
v -0.0320120417 0.0858995095 -0.0421565995
v -0.0505033508 0.0491558388 -0.0244989675
v -0.0212415587 0.0424845889 -0.0480948761
v -0.047180593 0.0246370211 -0.025877038
v -0.0242502317 0.135028467 0.018957505
v -0.0167060774 0.188785121 -0.00865403377
v -0 0.184171721 -0.00206044503
v -0 0.138768777 0.0230806675
v -0 0.188844904 -0.00895173755
v -0 0.220784053 -0.0159013066
v -0.019761391 0.220784053 -0.0235565174
v -0.0109782005 0.257279664 -0.0290388837
v -0 0.224081978 -0.0973720029
v -0 0.235485539 -0.103911527
v -0.00172620453 0.23547934 -0.103856817
v -0.00550060719 0.224081978 -0.0973720029
v -0 0.192650303 -0.0784955993
v 0.00550060719 0.224081978 -0.0973720029
v 0.00172620453 0.23547934 -0.103856817
v -0 0.235485539 -0.103911527
v -0.00824307092 0.224851057 -0.0966176838
v -0.00550060719 0.224081978 -0.0973720029
v -0.00359977782 0.235873207 -0.103518829
v -0.0139518147 0.19306545 -0.0777765065
v -0.0132015124 0.22072427 -0.015138505
v -0 0.243241355 -0.0144684128
v -0 0.21611087 -0.00901001319
v -0.0167060774 0.188785121 -0.00865403377
v -0 0.184171721 -0.00206044503
vt 0.984375 0.979492188
vt 0.984375 0.979492188
vt 0.984375 0.979492188
vt 0.984375 0.979492188
vt 0.984375 0.979492188
vt 0.984375 0.979492188
vt 0.984375 0.979492188
vt 0.984375 0.979492188
vt 0.984375 0.979492188
vt 0.984375 0.979492188
vt 0.984375 0.979492188
vt 0.984375 0.979492188
vt 0.984375 0.979492188
vt 0.984375 0.979492188
vt 0.984375 0.979492188
vt 0.984375 0.979492188
vt 0.984375 0.979492188
vt 0.984375 0.979492188
vt 0.984375 0.979492188
vt 0.984375 0.979492188
vt 0.984375 0.979492188
vt 0.984375 0.979492188
vt 0.984375 0.979492188
vt 0.984375 0.979492188
vt 0.984375 0.979492188
vt 0.984375 0.979492188
vt 0.984375 0.979492188
vt 0.984375 0.979492188
vt 0.984375 0.979492188
vt 0.984375 0.979492188
vt 0.984375 0.979492188
vt 0.984375 0.979492188
vt 0.984375 0.979492188
vt 0.984375 0.979492188
vt 0.984375 0.979492188
vt 0.984375 0.979492188
vt 0.984375 0.979492188
vt 0.984375 0.979492188
vt 0.984375 0.979492188
vt 0.984375 0.979492188
vt 0.984375 0.979492188
vt 0.984375 0.979492188
vt 0.984375 0.979492188
vt 0.984375 0.979492188
vt 0.984375 0.979492188
vt 0.984375 0.979492188
vt 0.984375 0.979492188
vt 0.984375 0.979492188
vt 0.984375 0.979492188
vt 0.984375 0.979492188
vt 0.984375 0.979492188
vt 0.984375 0.979492188
vt 0.984375 0.979492188
vt 0.984375 0.979492188
vt 0.984375 0.979492188
vt 0.984375 0.979492188
vt 0.984375 0.979492188
vt 0.984375 0.979492188
vt 0.984375 0.979492188
vt 0.984375 0.979492188
vt 0.984375 0.979492188
vt 0.984375 0.979492188
vt 0.984375 0.979492188
vt 0.984375 0.979492188
vt 0.984375 0.979492188
vt 0.984375 0.979492188
vt 0.984375 0.979492188
vt 0.984375 0.979492188
vt 0.984375 0.979492188
vt 0.984375 0.979492188
vt 0.984375 0.979492188
vt 0.984375 0.979492188
vt 0.984375 0.979492188
vt 0.984375 0.979492188
vt 0.984375 0.979492188
vt 0.984375 0.979492188
vt 0.984375 0.979492188
vt 0.984375 0.979492188
vt 0.984375 0.979492188
vt 0.984375 0.979492188
vt 0.984375 0.979492188
vt 0.984375 0.979492188
vt 0.984375 0.979492188
vt 0.984375 0.979492188
vt 0.984375 0.979492188
vt 0.984375 0.979492188
vt 0.984375 0.979492188
vt 0.165161133 0.728515625
vt 0.165161133 0.728515625
vt 0.165161133 0.728515625
vt 0.165161133 0.728515625
vt 0.165161133 0.728515625
vt 0.984375 0.979492188
vt 0.984375 0.979492188
vt 0.984375 0.979492188
vt 0.984375 0.979492188
vt 0.984375 0.979492188
vt 0.984375 0.979492188
vt 0.984375 0.979492188
vt 0.984375 0.979492188
vt 0.984375 0.979492188
vt 0.984375 0.979492188
vt 0.984375 0.979492188
vt 0.984375 0.979492188
vt 0.984375 0.979492188
vt 0.984375 0.979492188
vt 0.984375 0.979492188
vt 0.984375 0.979492188
vt 0.984375 0.979492188
vt 0.984375 0.979492188
vt 0.984375 0.979492188
vt 0.984375 0.979492188
vt 0.984375 0.979492188
vt 0.984375 0.979492188
vt 0.984375 0.979492188
vt 0.984375 0.979492188
vt 0.984375 0.979492188
vt 0.984375 0.979492188
vt 0.984375 0.979492188
vt 0.984375 0.979492188
vt 0.984375 0.979492188
vt 0.984375 0.979492188
vt 0.984375 0.979492188
vt 0.984375 0.979492188
vt 0.984375 0.979492188
vt 0.984375 0.979492188
vt 0.984375 0.979492188
vt 0.984375 0.979492188
vt 0.984375 0.979492188
vt 0.984375 0.979492188
vt 0.984375 0.979492188
vt 0.984375 0.979492188
vt 0.984375 0.979492188
vt 0.982421875 0.517578125
vt 0.982421875 0.517578125
vt 0.982421875 0.517578125
vt 0.982421875 0.517578125
vt 0.982421875 0.517578125
vt 0.982421875 0.517578125
vt 0.982421875 0.517578125
vt 0.982421875 0.517578125
vt 0.982421875 0.517578125
vt 0.982421875 0.517578125
vt 0.982421875 0.517578125
vt 0.982421875 0.517578125
vt 0.982421875 0.517578125
vt 0.982421875 0.517578125
vt 0.982421875 0.517578125
vt 0.165161133 0.728515625
vt 0.165161133 0.728515625
vt 0.165161133 0.728515625
vt 0.165161133 0.728515625
vt 0.165161133 0.728515625
vt 0.165161133 0.728515625
vt 0.165161133 0.728515625
vt 0.165161133 0.728515625
vt 0.165161133 0.728515625
vt 0.165161133 0.728515625
vt 0.165161133 0.728515625
vt 0.165161133 0.728515625
vt 0.165161133 0.728515625
vt 0.165161133 0.728515625
vt 0.165161133 0.728515625
vt 0.165161133 0.728515625
vt 0.165161133 0.728515625
vt 0.165161133 0.728515625
vt 0.165161133 0.728515625
vt 0.165161133 0.728515625
vt 0.165161133 0.728515625
vt 0.165161133 0.728515625
vt 0.165161133 0.728515625
vt 0.165161133 0.728515625
vt 0.165161133 0.728515625
vt 0.165161133 0.728515625
vt 0.165161133 0.728515625
vt 0.165161133 0.728515625
vt 0.165161133 0.728515625
vt 0.165161133 0.728515625
vt 0.165161133 0.728515625
vt 0.165161133 0.728515625
vt 0.165161133 0.728515625
vt 0.165161133 0.728515625
vt 0.165161133 0.728515625
vt 0.165161133 0.728515625
vt 0.165161133 0.728515625
vt 0.165161133 0.728515625
vt 0.165161133 0.728515625
vt 0.165161133 0.728515625
vt 0.165161133 0.728515625
vt 0.165161133 0.728515625
vt 0.165161133 0.728515625
vt 0.165161133 0.728515625
vt 0.165161133 0.728515625
vt 0.165161133 0.728515625
vt 0.165161133 0.728515625
vt 0.165161133 0.728515625
vt 0.165161133 0.728515625
vt 0.165161133 0.728515625
vt 0.165161133 0.728515625
vt 0.165161133 0.728515625
vt 0.165161133 0.728515625
vt 0.165161133 0.728515625
vt 0.165161133 0.728515625
vt 0.165161133 0.728515625
vt 0.165161133 0.728515625
vt 0.165161133 0.728515625
vt 0.165161133 0.728515625
vt 0.165161133 0.728515625
vt 0.165161133 0.728515625
vt 0.165161133 0.728515625
vt 0.165161133 0.728515625
vt 0.165161133 0.728515625
vt 0.165161133 0.728515625
vt 0.165161133 0.728515625
vt 0.0136108398 0.952148438
vt 0.0136108398 0.952148438
vt 0.0136108398 0.952148438
vt 0.0136108398 0.952148438
vt 0.0136108398 0.952148438
vt 0.0136108398 0.952148438
vt 0.0136108398 0.952148438
vt 0.0136108398 0.952148438
vt 0.0136108398 0.952148438
vt 0.0136108398 0.952148438
vt 0.0136108398 0.952148438
vt 0.0136108398 0.952148438
vt 0.0136108398 0.952148438
vt 0.0136108398 0.952148438
vt 0.0136108398 0.952148438
vt 0.0136108398 0.952148438
vt 0.0136108398 0.952148438
vt 0.0136108398 0.952148438
vt 0.0136108398 0.952148438
vt 0.0136108398 0.952148438
vt 0.0136108398 0.952148438
vt 0.0136108398 0.952148438
vt 0.0136108398 0.952148438
vt 0.0136108398 0.952148438
vt 0.0136108398 0.952148438
vt 0.0136108398 0.952148438
vt 0.0136108398 0.952148438
vt 0.0136108398 0.952148438
vt 0.0136108398 0.952148438
vt 0.0136108398 0.952148438
vt 0.0136108398 0.952148438
vt 0.0136108398 0.952148438
vt 0.0136108398 0.952148438
vt 0.0136108398 0.952148438
vt 0.0136108398 0.952148438
vt 0.0136108398 0.952148438
vt 0.0136108398 0.952148438
vt 0.0136108398 0.952148438
vt 0.0136108398 0.952148438
vt 0.0136108398 0.952148438
vt 0.0136108398 0.952148438
vt 0.0136108398 0.952148438
vt 0.0136108398 0.952148438
vt 0.0136108398 0.952148438
vt 0.0136108398 0.952148438
vt 0.0136108398 0.952148438
vt 0.0136108398 0.952148438
vt 0.0136108398 0.952148438
vt 0.0136108398 0.952148438
vt 0.0136108398 0.952148438
vt 0.0136108398 0.952148438
vt 0.0136108398 0.952148438
vt 0.0136108398 0.952148438
vt 0.0136108398 0.952148438
vt 0.984375 0.979492188
vt 0.984375 0.979492188
vt 0.984375 0.979492188
vt 0.984375 0.979492188
vt 0.984375 0.979492188
vt 0.984375 0.979492188
vt 0.984375 0.979492188
vt 0.984375 0.979492188
vt 0.984375 0.979492188
vt 0.984375 0.979492188
vt 0.984375 0.979492188
vt 0.984375 0.979492188
vt 0.984375 0.979492188
vt 0.984375 0.979492188
vt 0.984375 0.979492188
vt 0.984375 0.979492188
vt 0.984375 0.979492188
vt 0.984375 0.979492188
vt 0.984375 0.979492188
vt 0.984375 0.979492188
vt 0.984375 0.979492188
vt 0.984375 0.979492188
vt 0.984375 0.979492188
vt 0.984375 0.979492188
vt 0.984375 0.979492188
vt 0.984375 0.979492188
vt 0.984375 0.979492188
vt 0.984375 0.979492188
vt 0.984375 0.979492188
vt 0.984375 0.979492188
vt 0.984375 0.979492188
vt 0.984375 0.979492188
vt 0.984375 0.979492188
vt 0.984375 0.979492188
vt 0.984375 0.979492188
vt 0.984375 0.979492188
vt 0.984375 0.979492188
vt 0.984375 0.979492188
vt 0.984375 0.979492188
vt 0.984375 0.979492188
vt 0.984375 0.979492188
vt 0.984375 0.979492188
vt 0.984375 0.979492188
vt 0.984375 0.979492188
vt 0.984375 0.979492188
vt 0.984375 0.979492188
vt 0.984375 0.979492188
vt 0.984375 0.979492188
vt 0.984375 0.979492188
vt 0.984375 0.979492188
vt 0.984375 0.979492188
vt 0.984375 0.979492188
vt 0.984375 0.979492188
vt 0.984375 0.979492188
vt 0.984375 0.979492188
vt 0.984375 0.979492188
vt 0.984375 0.979492188
vt 0.984375 0.979492188
vt 0.984375 0.979492188
vt 0.984375 0.979492188
vt 0.984375 0.979492188
vt 0.984375 0.979492188
vt 0.984375 0.979492188
vt 0.984375 0.979492188
vt 0.984375 0.979492188
vt 0.984375 0.979492188
vt 0.984375 0.979492188
vt 0.984375 0.979492188
vt 0.984375 0.979492188
vt 0.984375 0.979492188
vt 0.984375 0.979492188
vt 0.984375 0.979492188
vt 0.984375 0.979492188
vt 0.984375 0.979492188
vt 0.984375 0.979492188
vt 0.984375 0.979492188
vt 0.984375 0.979492188
vt 0.984375 0.979492188
vt 0.984375 0.979492188
vt 0.984375 0.979492188
vt 0.984375 0.979492188
vt 0.984375 0.979492188
vt 0.984375 0.979492188
vt 0.984375 0.979492188
vt 0.984375 0.979492188
vt 0.984375 0.979492188
vt 0.984375 0.979492188
vt 0.984375 0.979492188
vt 0.984375 0.979492188
vt 0.984375 0.979492188
vt 0.984375 0.979492188
vt 0.984375 0.979492188
vt 0.984375 0.979492188
vt 0.984375 0.979492188
vt 0.984375 0.979492188
vt 0.984375 0.979492188
vt 0.984375 0.979492188
vt 0.984375 0.979492188
vt 0.984375 0.979492188
vt 0.984375 0.979492188
vt 0.984375 0.979492188
vt 0.984375 0.979492188
vt 0.984375 0.979492188
vt 0.984375 0.979492188
vt 0.984375 0.979492188
vt 0.984375 0.979492188
vt 0.984375 0.979492188
vt 0.984375 0.979492188
vt 0.984375 0.979492188
vt 0.984375 0.979492188
vt 0.984375 0.979492188
vt 0.984375 0.979492188
vt 0.984375 0.979492188
vt 0.984375 0.979492188
vt 0.984375 0.979492188
vt 0.984375 0.979492188
vt 0.984375 0.979492188
vt 0.984375 0.979492188
vt 0.984375 0.979492188
vt 0.984375 0.979492188
vt 0.984375 0.979492188
vt 0.984375 0.979492188
vt 0.984375 0.979492188
vt 0.982421875 0.517578125
vt 0.982421875 0.517578125
vt 0.982421875 0.517578125
vt 0.982421875 0.517578125
vt 0.982421875 0.517578125
vt 0.982421875 0.517578125
vt 0.982421875 0.517578125
vt 0.982421875 0.517578125
vt 0.982421875 0.517578125
vt 0.982421875 0.517578125
vt 0.982421875 0.517578125
vt 0.982421875 0.517578125
vt 0.982421875 0.517578125
vt 0.982421875 0.517578125
vt 0.982421875 0.517578125
vt 0.165161133 0.728515625
vt 0.165161133 0.728515625
vt 0.165161133 0.728515625
vt 0.165161133 0.728515625
vt 0.165161133 0.728515625
vt 0.165161133 0.728515625
vt 0.165161133 0.728515625
vt 0.165161133 0.728515625
vt 0.165161133 0.728515625
vt 0.165161133 0.728515625
vt 0.165161133 0.728515625
vt 0.165161133 0.728515625
vt 0.165161133 0.728515625
vt 0.165161133 0.728515625
vt 0.165161133 0.728515625
vt 0.165161133 0.728515625
vt 0.165161133 0.728515625
vt 0.165161133 0.728515625
vt 0.165161133 0.728515625
vt 0.165161133 0.728515625
vt 0.165161133 0.728515625
vt 0.165161133 0.728515625
vt 0.165161133 0.728515625
vt 0.165161133 0.728515625
vt 0.165161133 0.728515625
vt 0.165161133 0.728515625
vt 0.165161133 0.728515625
vt 0.165161133 0.728515625
vt 0.165161133 0.728515625
vt 0.165161133 0.728515625
vt 0.165161133 0.728515625
vt 0.165161133 0.728515625
vt 0.165161133 0.728515625
vt 0.165161133 0.728515625
vt 0.165161133 0.728515625
vt 0.165161133 0.728515625
vt 0.165161133 0.728515625
vt 0.165161133 0.728515625
vt 0.165161133 0.728515625
vt 0.165161133 0.728515625
vt 0.165161133 0.728515625
vt 0.165161133 0.728515625
vt 0.165161133 0.728515625
vt 0.165161133 0.728515625
vt 0.165161133 0.728515625
vt 0.165161133 0.728515625
vt 0.165161133 0.728515625
vt 0.165161133 0.728515625
vt 0.165161133 0.728515625
vt 0.165161133 0.728515625
vt 0.165161133 0.728515625
vt 0.165161133 0.728515625
vt 0.165161133 0.728515625
vt 0.165161133 0.728515625
vt 0.165161133 0.728515625
vt 0.165161133 0.728515625
vt 0.165161133 0.728515625
vt 0.165161133 0.728515625
vt 0.165161133 0.728515625
vt 0.165161133 0.728515625
vt 0.165161133 0.728515625
vt 0.165161133 0.728515625
vt 0.165161133 0.728515625
vt 0.165161133 0.728515625
vt 0.165161133 0.728515625
vt 0.165161133 0.728515625
vt 0.165161133 0.728515625
vt 0.165161133 0.728515625
vt 0.0136108398 0.952148438
vt 0.0136108398 0.952148438
vt 0.0136108398 0.952148438
vt 0.0136108398 0.952148438
vt 0.0136108398 0.952148438
vt 0.0136108398 0.952148438
vt 0.0136108398 0.952148438
vt 0.0136108398 0.952148438
vt 0.0136108398 0.952148438
vt 0.0136108398 0.952148438
vt 0.0136108398 0.952148438
vt 0.0136108398 0.952148438
vt 0.0136108398 0.952148438
vt 0.0136108398 0.952148438
vt 0.0136108398 0.952148438
vt 0.0136108398 0.952148438
vt 0.0136108398 0.952148438
vt 0.0136108398 0.952148438
vt 0.0136108398 0.952148438
vt 0.0136108398 0.952148438
vt 0.0136108398 0.952148438
vt 0.0136108398 0.952148438
vt 0.0136108398 0.952148438
vt 0.0136108398 0.952148438
vt 0.0136108398 0.952148438
vt 0.0136108398 0.952148438
vt 0.0136108398 0.952148438
vt 0.0136108398 0.952148438
vt 0.0136108398 0.952148438
vt 0.0136108398 0.952148438
vt 0.0136108398 0.952148438
vt 0.0136108398 0.952148438
vt 0.0136108398 0.952148438
vt 0.0136108398 0.952148438
vt 0.0136108398 0.952148438
vt 0.0136108398 0.952148438
vt 0.0136108398 0.952148438
vt 0.0136108398 0.952148438
vt 0.0136108398 0.952148438
vt 0.0136108398 0.952148438
vt 0.0136108398 0.952148438
vt 0.0136108398 0.952148438
vt 0.0136108398 0.952148438
vt 0.0136108398 0.952148438
vt 0.0136108398 0.952148438
vt 0.0136108398 0.952148438
vt 0.0136108398 0.952148438
vt 0.0136108398 0.952148438
vt 0.0136108398 0.952148438
vt 0.0136108398 0.952148438
vt 0.0136108398 0.952148438
vt 0.0136108398 0.952148438
vt 0.0136108398 0.952148438
vt 0.0136108398 0.952148438
vt 0.984375 0.979492188
vt 0.984375 0.979492188
vt 0.984375 0.979492188
vt 0.984375 0.979492188
vt 0.984375 0.979492188
vt 0.984375 0.979492188
vt 0.984375 0.979492188
vt 0.984375 0.979492188
vt 0.984375 0.979492188
vt 0.984375 0.979492188
vt 0.984375 0.979492188
vt 0.984375 0.979492188
vt 0.984375 0.979492188
vt 0.984375 0.979492188
vt 0.984375 0.979492188
vt 0.984375 0.979492188
vt 0.984375 0.979492188
vt 0.984375 0.979492188
vt 0.984375 0.979492188
vt 0.984375 0.979492188
vt 0.984375 0.979492188
vt 0.984375 0.979492188
vt 0.984375 0.979492188
vt 0.984375 0.979492188
vt 0.165161133 0.728515625
vt 0.165161133 0.728515625
vt 0.165161133 0.728515625
vt 0.165161133 0.728515625
vt 0.165161133 0.728515625
vt 0.165161133 0.728515625
vt 0.165161133 0.728515625
vt 0.165161133 0.728515625
vt 0.165161133 0.728515625
vt 0.165161133 0.728515625
vt 0.165161133 0.728515625
vt 0.165161133 0.728515625
vt 0.165161133 0.728515625
vt 0.165161133 0.728515625
vt 0.165161133 0.728515625
vt 0.165161133 0.728515625
vt 0.165161133 0.728515625
vt 0.165161133 0.728515625
vt 0.165161133 0.728515625
vt 0.165161133 0.728515625
vt 0.165161133 0.728515625
vt 0.165161133 0.728515625
vt 0.165161133 0.728515625
vt 0.165161133 0.728515625
vt 0.165161133 0.728515625
vt 0.165161133 0.728515625
vt 0.165161133 0.728515625
vt 0.165161133 0.728515625
vt 0.165161133 0.728515625
vt 0.165161133 0.728515625
vt 0.165161133 0.728515625
vt 0.165161133 0.728515625
vt 0.165161133 0.728515625
vt 0.165161133 0.728515625
vt 0.165161133 0.728515625
vt 0.165161133 0.728515625
vt 0.165161133 0.728515625
vt 0.165161133 0.728515625
vt 0.165161133 0.728515625
vt 0.165161133 0.728515625
vt 0.165161133 0.728515625
vt 0.165161133 0.728515625
vt 0.165161133 0.728515625
vt 0.165161133 0.728515625
vt 0.165161133 0.728515625
vt 0.165161133 0.728515625
vt 0.165161133 0.728515625
vt 0.165161133 0.728515625
vt 0.984375 0.979492188
vt 0.984375 0.979492188
vt 0.984375 0.979492188
vt 0.984375 0.979492188
vt 0.984375 0.979492188
vt 0.984375 0.979492188
vt 0.984375 0.979492188
vt 0.984375 0.979492188
vt 0.984375 0.979492188
vt 0.984375 0.979492188
vt 0.984375 0.979492188
vt 0.984375 0.979492188
vt 0.984375 0.979492188
vt 0.984375 0.979492188
vt 0.984375 0.979492188
vt 0.984375 0.979492188
vt 0.984375 0.979492188
vt 0.984375 0.979492188
vt 0.984375 0.979492188
vt 0.984375 0.979492188
vt 0.984375 0.979492188
vt 0.984375 0.979492188
vt 0.984375 0.979492188
vt 0.984375 0.979492188
vt 0.165161133 0.728515625
vt 0.165161133 0.728515625
vt 0.165161133 0.728515625
vt 0.165161133 0.728515625
vt 0.165161133 0.728515625
vt 0.165161133 0.728515625
vt 0.165161133 0.728515625
vt 0.165161133 0.728515625
vt 0.165161133 0.728515625
vt 0.165161133 0.728515625
vt 0.165161133 0.728515625
vt 0.165161133 0.728515625
vt 0.165161133 0.728515625
vt 0.165161133 0.728515625
vt 0.165161133 0.728515625
vt 0.165161133 0.728515625
vt 0.165161133 0.728515625
vt 0.165161133 0.728515625
vt 0.165161133 0.728515625
vt 0.165161133 0.728515625
vt 0.165161133 0.728515625
vt 0.165161133 0.728515625
vt 0.165161133 0.728515625
vt 0.165161133 0.728515625
vt 0.165161133 0.728515625
vt 0.165161133 0.728515625
vt 0.165161133 0.728515625
vt 0.165161133 0.728515625
vt 0.165161133 0.728515625
vt 0.165161133 0.728515625
vt 0.165161133 0.728515625
vt 0.165161133 0.728515625
vt 0.165161133 0.728515625
vt 0.165161133 0.728515625
vt 0.165161133 0.728515625
vt 0.165161133 0.728515625
vt 0.165161133 0.728515625
vt 0.165161133 0.728515625
vt 0.165161133 0.728515625
vt 0.165161133 0.728515625
vt 0.165161133 0.728515625
vt 0.165161133 0.728515625
vt 0.165161133 0.728515625
vt 0.165161133 0.728515625
vt 0.165161133 0.728515625
vt 0.165161133 0.728515625
vt 0.165161133 0.728515625
vt 0.165161133 0.728515625
vt 0.984375 0.979492188
vt 0.984375 0.979492188
vt 0.984375 0.979492188
vt 0.984375 0.979492188
vt 0.984375 0.979492188
vt 0.984375 0.979492188
vt 0.984375 0.979492188
vt 0.984375 0.979492188
vt 0.984375 0.979492188
vt 0.984375 0.979492188
vt 0.984375 0.979492188
vt 0.984375 0.979492188
vt 0.984375 0.979492188
vt 0.984375 0.979492188
vt 0.984375 0.979492188
vt 0.984375 0.979492188
vt 0.165161133 0.728515625
vt 0.165161133 0.728515625
vt 0.165161133 0.728515625
vt 0.165161133 0.728515625
vt 0.165161133 0.728515625
vt 0.165161133 0.728515625
vt 0.165161133 0.728515625
vt 0.165161133 0.728515625
vt 0.165161133 0.728515625
vt 0.165161133 0.728515625
vt 0.165161133 0.728515625
vt 0.165161133 0.728515625
vt 0.165161133 0.728515625
vt 0.165161133 0.728515625
vt 0.165161133 0.728515625
vt 0.165161133 0.728515625
vt 0.165161133 0.728515625
vt 0.165161133 0.728515625
vt 0.165161133 0.728515625
vt 0.165161133 0.728515625
vt 0.165161133 0.728515625
vt 0.165161133 0.728515625
vt 0.165161133 0.728515625
vt 0.165161133 0.728515625
vt 0.165161133 0.728515625
vt 0.165161133 0.728515625
vt 0.165161133 0.728515625
vt 0.165161133 0.728515625
vt 0.165161133 0.728515625
vt 0.165161133 0.728515625
vt 0.165161133 0.728515625
vt 0.165161133 0.728515625
vt 0.165161133 0.728515625
vt 0.165161133 0.728515625
vt 0.984375 0.979492188
vt 0.984375 0.979492188
vt 0.984375 0.979492188
vt 0.984375 0.979492188
vt 0.984375 0.979492188
vt 0.984375 0.979492188
vt 0.984375 0.979492188
vt 0.984375 0.979492188
vt 0.984375 0.979492188
vt 0.984375 0.979492188
vt 0.984375 0.979492188
vt 0.984375 0.979492188
vt 0.165161133 0.728515625
vt 0.165161133 0.728515625
vt 0.165161133 0.728515625
vt 0.165161133 0.728515625
vt 0.165161133 0.728515625
vt 0.165161133 0.728515625
vt 0.984375 0.979492188
vt 0.984375 0.979492188
vt 0.984375 0.979492188
vt 0.984375 0.979492188
vt 0.165161133 0.728515625
vt 0.165161133 0.728515625
vt 0.165161133 0.728515625
vt 0.165161133 0.728515625
vt 0.165161133 0.728515625
vt 0.165161133 0.728515625
vt 0.165161133 0.728515625
vt 0.165161133 0.728515625
vt 0.165161133 0.728515625
vt 0.165161133 0.728515625
vt 0.165161133 0.728515625
vt 0.165161133 0.728515625
vt 0.165161133 0.728515625
vt 0.165161133 0.728515625
vt 0.165161133 0.728515625
vt 0.165161133 0.728515625
vt 0.165161133 0.728515625
vt 0.165161133 0.728515625
vt 0.165161133 0.728515625
vt 0.165161133 0.728515625
vt 0.165161133 0.728515625
vt 0.165161133 0.728515625
vt 0.165161133 0.728515625
vt 0.165161133 0.728515625
vt 0.165161133 0.728515625
vn 0.991699219 0.0236206055 0.125
vn 0.991699219 0.0236206055 0.125
vn 0.991699219 0.0236206055 0.125
vn 0.786132812 0.611328125 0.0892944336
vn 0.786132812 0.611328125 0.0892944336
vn 0.786132812 0.611328125 0.0892944336
vn 0.963378906 -0.14831543 0.22253418
vn 0.963378906 -0.14831543 0.22253418
vn 0.963378906 -0.14831543 0.22253418
vn 0.964355469 0.260253906 0.0500793457
vn 0.964355469 0.260253906 0.0500793457
vn 0.964355469 0.260253906 0.0500793457
vn 0.966308594 0.0010471344 0.256835938
vn 0.966308594 0.0010471344 0.256835938
vn 0.966308594 0.0010471344 0.256835938
vn 0.963378906 0.266113281 -0.0361022949
vn 0.963378906 0.266113281 -0.0361022949
vn 0.963378906 0.266113281 -0.0361022949
vn 0.94140625 0.0659790039 -0.331054688
vn 0.94140625 0.0659790039 -0.331054688
vn 0.94140625 0.0659790039 -0.331054688
vn 0.850585938 0.46875 -0.23815918
vn 0.850585938 0.46875 -0.23815918
vn 0.850585938 0.46875 -0.23815918
vn 0.137573242 0.287841797 0.947753906
vn 0.137573242 0.287841797 0.947753906
vn 0.137573242 0.287841797 0.947753906
vn 0.386474609 -0.0541381836 0.920898438
vn 0.386474609 -0.0541381836 0.920898438
vn 0.386474609 -0.0541381836 0.920898438
vn 0.491210938 -0.0350952148 0.870605469
vn 0.491210938 -0.0350952148 0.870605469
vn 0.491210938 -0.0350952148 0.870605469
vn 0.223022461 0.710449219 0.667480469
vn 0.223022461 0.710449219 0.667480469
vn 0.223022461 0.710449219 0.667480469
vn 0.177001953 -0.0653076172 0.981933594
vn 0.177001953 -0.0653076172 0.981933594
vn 0.177001953 -0.0653076172 0.981933594
vn 0.206298828 -0.247558594 0.946777344
vn 0.206298828 -0.247558594 0.946777344
vn 0.206298828 -0.247558594 0.946777344
vn 0.548339844 -0.00339317322 0.836425781
vn 0.548339844 -0.00339317322 0.836425781
vn 0.548339844 -0.00339317322 0.836425781
vn 0.762207031 -0.333984375 0.554199219
vn 0.762207031 -0.333984375 0.554199219
vn 0.762207031 -0.333984375 0.554199219
vn 0.874511719 -0.0174560547 0.484863281
vn 0.874511719 -0.0174560547 0.484863281
vn 0.874511719 -0.0174560547 0.484863281
vn 0.86328125 -0.234985352 0.447021484
vn 0.86328125 -0.234985352 0.447021484
vn 0.86328125 -0.234985352 0.447021484
vn 0.584960938 0.235595703 0.775878906
vn 0.584960938 0.235595703 0.775878906
vn 0.584960938 0.235595703 0.775878906
vn 0.720214844 -0.085144043 0.688476562
vn 0.731445312 -0.0473022461 0.680175781
vn 0.720214844 -0.085144043 0.688476562
vn 0.731445312 -0.0473022461 0.680175781
vn 0.731445312 -0.0473022461 0.680175781
vn 0.755371094 -0.047454834 0.653320312
vn 0.776855469 0.233520508 0.584472656
vn 0.776855469 0.233520508 0.584472656
vn 0.776855469 0.233520508 0.584472656
vn 0.720214844 0.643554688 0.259277344
vn 0.720214844 0.643554688 0.259277344
vn 0.720214844 0.643554688 0.259277344
vn 0.895507812 -0.000188946724 0.445068359
vn 0.895507812 -0.000188946724 0.445068359
vn 0.895507812 -0.000188946724 0.445068359
vn 0.112915039 0.644042969 0.756347656
vn 0.112915039 0.644042969 0.756347656
vn 0.112915039 0.644042969 0.756347656
vn 0.337890625 0.107177734 0.935058594
vn 0.337890625 0.107177734 0.935058594
vn 0.337890625 0.107177734 0.935058594
vn 0.493896484 -0.136474609 0.858886719
vn 0.493896484 -0.136474609 0.858886719
vn 0.493896484 -0.136474609 0.858886719
vn 0.244384766 0.234375 -0.940917969
vn 0.244384766 0.234375 -0.940917969
vn 0.244384766 0.234375 -0.940917969
vn -0.100280762 0.752929688 -0.650390625
vn -0.100280762 0.752929688 -0.650390625
vn -0.100280762 0.752929688 -0.650390625
vn -0.0182495117 0.699707031 -0.714355469
vn -0.0182495117 0.699707031 -0.714355469
vn -0.0182495117 0.699707031 -0.714355469
vn 0.0182495117 0.699707031 -0.714355469
vn 0.0182495117 0.699707031 -0.714355469
vn -0.130371094 0.715332031 -0.686523438
vn -0.130371094 0.715332031 -0.686523438
vn -0.130371094 0.715332031 -0.686523438
vn -0.0463562012 0.750488281 -0.659667969
vn -0.0463562012 0.750488281 -0.659667969
vn -0.0463562012 0.750488281 -0.659667969
vn 0.000173807144 0.104736328 -0.994628906
vn 0.000173807144 0.104736328 -0.994628906
vn 0.000173807144 0.104736328 -0.994628906
vn -0.000173807144 0.104736328 -0.994628906
vn -0.000173807144 0.104736328 -0.994628906
vn 0.70703125 0.173950195 -0.685546875
vn 0.70703125 0.173950195 -0.685546875
vn 0.70703125 0.173950195 -0.685546875
vn 0.916992188 0.137817383 -0.374511719
vn 0.916992188 0.137817383 -0.374511719
vn 0.916992188 0.137817383 -0.374511719
vn 0.855957031 0.0317993164 -0.516113281
vn 0.855957031 0.0317993164 -0.516113281
vn 0.855957031 0.0317993164 -0.516113281
vn 0.697265625 0.3125 -0.645019531
vn 0.697265625 0.3125 -0.645019531
vn 0.697265625 0.3125 -0.645019531
vn 0.730957031 0.0406799316 -0.681152344
vn 0.730957031 0.0406799316 -0.681152344
vn 0.730957031 0.0406799316 -0.681152344
vn 0.421630859 0.620117188 -0.661621094
vn 0.421630859 0.620117188 -0.661621094
vn 0.421630859 0.620117188 -0.661621094
vn 0.455566406 0.147705078 -0.877929688
vn 0.455566406 0.147705078 -0.877929688
vn 0.455566406 0.147705078 -0.877929688
vn 0.0505065918 0.0240631104 -0.998535156
vn 0.0505065918 0.0240631104 -0.998535156
vn 0.0505065918 0.0240631104 -0.998535156
vn -0.175048828 0.131958008 0.975585938
vn -0.175048828 0.131958008 0.975585938
vn -0.175048828 0.131958008 0.975585938
vn 0.161865234 0.0941772461 -0.982421875
vn 0.161865234 0.0941772461 -0.982421875
vn 0.161865234 0.0941772461 -0.982421875
vn 0.906738281 -0.0227508545 -0.421630859
vn 0.906738281 -0.0227508545 -0.421630859
vn 0.906738281 -0.0227508545 -0.421630859
vn 0.666015625 0.745605469 -0.0211791992
vn 0.666015625 0.745605469 -0.0211791992
vn 0.666015625 0.745605469 -0.0211791992
vn 0.875 -0.416259766 0.247192383
vn 0.875 -0.416259766 0.247192383
vn 0.875 -0.416259766 0.247192383
vn 0.313964844 0.596191406 0.738769531
vn 0.313964844 0.596191406 0.738769531
vn 0.313964844 0.596191406 0.738769531
vn 0.455322266 0.0933227539 0.885253906
vn 0.455322266 0.0933227539 0.885253906
vn 0.455322266 0.0933227539 0.885253906
vn -0.141601562 -0.134399414 -0.980957031
vn -0.141601562 -0.134399414 -0.980957031
vn -0.141601562 -0.134399414 -0.980957031
vn -0.116455078 0.69140625 0.712890625
vn -0.116455078 0.69140625 0.712890625
vn -0.116455078 0.69140625 0.712890625
vn 0.8671875 -0.150512695 -0.474365234
vn 0.8671875 -0.150512695 -0.474365234
vn 0.8671875 -0.150512695 -0.474365234
vn 0.151123047 -0.369628906 -0.916992188
vn 0.151123047 -0.369628906 -0.916992188
vn 0.151123047 -0.369628906 -0.916992188
vn 0.643554688 0.219482422 0.733398438
vn 0.643554688 0.219482422 0.733398438
vn 0.643554688 0.219482422 0.733398438
vn -0.275634766 -0.253417969 -0.927246094
vn -0.275634766 -0.253417969 -0.927246094
vn -0.275634766 -0.253417969 -0.927246094
vn 0.861328125 0.263427734 0.434814453
vn 0.861328125 0.263427734 0.434814453
vn 0.861328125 0.263427734 0.434814453
vn -0.145874023 0.526367188 0.837890625
vn -0.145874023 0.526367188 0.837890625
vn -0.145874023 0.526367188 0.837890625
vn 0.641113281 -0.404052734 -0.652832031
vn 0.641113281 -0.404052734 -0.652832031
vn 0.641113281 -0.404052734 -0.652832031
vn 0.772460938 0.198364258 0.603515625
vn 0.772460938 0.198364258 0.603515625
vn 0.772460938 0.198364258 0.603515625
vn 0.360351562 0.183959961 0.914550781
vn 0.360351562 0.183959961 0.914550781
vn 0.360351562 0.183959961 0.914550781
vn 0.310791016 0.202026367 0.928710938
vn 0.310791016 0.202026367 0.928710938
vn 0.310791016 0.202026367 0.928710938
vn -0.206542969 -0.191162109 -0.959472656
vn -0.206542969 -0.191162109 -0.959472656
vn -0.206542969 -0.191162109 -0.959472656
vn 0.0673828125 0.425537109 0.90234375
vn 0.0673828125 0.425537109 0.90234375
vn 0.0673828125 0.425537109 0.90234375
vn 0.854492188 0.462158203 0.237426758
vn 0.854492188 0.462158203 0.237426758
vn 0.854492188 0.462158203 0.237426758
vn 0.875 -0.197509766 -0.441894531
vn 0.875 -0.197509766 -0.441894531
vn 0.875 -0.197509766 -0.441894531
vn 0.133422852 0.592285156 0.794433594
vn 0.133422852 0.592285156 0.794433594
vn 0.133422852 0.592285156 0.794433594
vn 0.759765625 -0.229248047 -0.608398438
vn 0.759765625 -0.229248047 -0.608398438
vn 0.759765625 -0.229248047 -0.608398438
vn 0.623535156 -0.312744141 -0.716796875
vn 0.623535156 -0.312744141 -0.716796875
vn 0.623535156 -0.312744141 -0.716796875
vn 0.485839844 -0.307617188 -0.817871094
vn 0.485839844 -0.307617188 -0.817871094
vn 0.485839844 -0.307617188 -0.817871094
vn 0.245483398 -0.416748047 -0.875488281
vn 0.245483398 -0.416748047 -0.875488281
vn 0.245483398 -0.416748047 -0.875488281
vn 0.0969848633 0.652832031 0.750976562
vn 0.0969848633 0.652832031 0.750976562
vn 0.0969848633 0.652832031 0.750976562
vn -0.14453125 -0.98046875 -0.134521484
vn -0.14453125 -0.98046875 -0.134521484
vn -0.14453125 -0.98046875 -0.134521484
vn -0.152832031 -0.915527344 -0.372314453
vn -0.152832031 -0.915527344 -0.372314453
vn -0.152832031 -0.915527344 -0.372314453
vn -0.0873413086 -0.991210938 -0.0986328125
vn -0.0873413086 -0.991210938 -0.0986328125
vn -0.0873413086 -0.991210938 -0.0986328125
vn -0.201171875 -0.9296875 -0.308105469
vn -0.201171875 -0.9296875 -0.308105469
vn -0.201171875 -0.9296875 -0.308105469
vn -0.165283203 -0.911621094 -0.376953125
vn -0.165283203 -0.911621094 -0.376953125
vn -0.165283203 -0.911621094 -0.376953125
vn -0.220336914 -0.969726562 -0.10345459
vn -0.220336914 -0.969726562 -0.10345459
vn -0.220336914 -0.969726562 -0.10345459
vn -0.3203125 -0.9296875 -0.182617188
vn -0.3203125 -0.9296875 -0.182617188
vn -0.3203125 -0.9296875 -0.182617188
vn -0.22265625 -0.949707031 -0.219726562
vn -0.22265625 -0.949707031 -0.219726562
vn -0.22265625 -0.949707031 -0.219726562
vn -0.151489258 -0.95703125 -0.247680664
vn -0.151489258 -0.95703125 -0.247680664
vn -0.151489258 -0.95703125 -0.247680664
vn -0.284912109 -0.886230469 -0.364746094
vn -0.284912109 -0.886230469 -0.364746094
vn -0.284912109 -0.886230469 -0.364746094
vn -0.185180664 -0.981445312 -0.0467224121
vn -0.185180664 -0.981445312 -0.0467224121
vn -0.185180664 -0.981445312 -0.0467224121
vn -0.273193359 -0.9609375 -0.0485229492
vn -0.273193359 -0.9609375 -0.0485229492
vn -0.273193359 -0.9609375 -0.0485229492
vn -0.0476074219 -0.984863281 -0.165527344
vn -0.0476074219 -0.984863281 -0.165527344
vn -0.0476074219 -0.984863281 -0.165527344
vn -0.275878906 -0.9609375 0.00900268555
vn -0.275878906 -0.9609375 0.00900268555
vn -0.275878906 -0.9609375 0.00900268555
vn -0.0740356445 -0.983398438 -0.165283203
vn -0.0740356445 -0.983398438 -0.165283203
vn -0.0740356445 -0.983398438 -0.165283203
vn -0.311523438 -0.932128906 -0.184204102
vn -0.311523438 -0.932128906 -0.184204102
vn -0.311523438 -0.932128906 -0.184204102
vn -0.256835938 -0.917480469 -0.303222656
vn -0.256835938 -0.917480469 -0.303222656
vn -0.256835938 -0.917480469 -0.303222656
vn -0.213867188 -0.879882812 -0.423828125
vn -0.213867188 -0.879882812 -0.423828125
vn -0.213867188 -0.879882812 -0.423828125
vn -0.991699219 0.0236206055 0.125
vn -0.991699219 0.0236206055 0.125
vn -0.991699219 0.0236206055 0.125
vn -0.756835938 0.641601562 0.122436523
vn -0.756835938 0.641601562 0.122436523
vn -0.756835938 0.641601562 0.122436523
vn -0.963378906 -0.14831543 0.22253418
vn -0.963378906 -0.14831543 0.22253418
vn -0.963378906 -0.14831543 0.22253418
vn -0.922363281 0.297119141 0.247070312
vn -0.922363281 0.297119141 0.247070312
vn -0.922363281 0.297119141 0.247070312
vn -0.916015625 0.0148544312 0.400878906
vn -0.916015625 0.0148544312 0.400878906
vn -0.916015625 0.0148544312 0.400878906
vn -0.963378906 0.266113281 -0.0360717773
vn -0.963378906 0.266113281 -0.0360717773
vn -0.963378906 0.266113281 -0.0360717773
vn -0.94140625 0.0659790039 -0.331054688
vn -0.94140625 0.0659790039 -0.331054688
vn -0.94140625 0.0659790039 -0.331054688
vn -0.850585938 0.46875 -0.23815918
vn -0.850585938 0.46875 -0.23815918
vn -0.850585938 0.46875 -0.23815918
vn -0.137573242 0.287841797 0.947753906
vn -0.137573242 0.287841797 0.947753906
vn -0.137573242 0.287841797 0.947753906
vn -0.386474609 -0.0541381836 0.920898438
vn -0.386474609 -0.0541381836 0.920898438
vn -0.386474609 -0.0541381836 0.920898438
vn -0.491210938 -0.0350952148 0.870605469
vn -0.491210938 -0.0350952148 0.870605469
vn -0.491210938 -0.0350952148 0.870605469
vn -0.223022461 0.710449219 0.667480469
vn -0.223022461 0.710449219 0.667480469
vn -0.223022461 0.710449219 0.667480469
vn -0.177001953 -0.0653076172 0.981933594
vn -0.177001953 -0.0653076172 0.981933594
vn -0.177001953 -0.0653076172 0.981933594
vn -0.206298828 -0.247558594 0.946777344
vn -0.206298828 -0.247558594 0.946777344
vn -0.206298828 -0.247558594 0.946777344
vn -0.548339844 -0.00339317322 0.836425781
vn -0.548339844 -0.00339317322 0.836425781
vn -0.548339844 -0.00339317322 0.836425781
vn -0.762207031 -0.333984375 0.554199219
vn -0.762207031 -0.333984375 0.554199219
vn -0.762207031 -0.333984375 0.554199219
vn -0.874511719 -0.0174560547 0.484863281
vn -0.874511719 -0.0174560547 0.484863281
vn -0.874511719 -0.0174560547 0.484863281
vn -0.86328125 -0.234985352 0.447021484
vn -0.86328125 -0.234985352 0.447021484
vn -0.86328125 -0.234985352 0.447021484
vn -0.584960938 0.235595703 0.775878906
vn -0.584960938 0.235595703 0.775878906
vn -0.584960938 0.235595703 0.775878906
vn -0.720214844 -0.085144043 0.688476562
vn -0.720214844 -0.085144043 0.688476562
vn -0.731445312 -0.0473022461 0.680175781
vn -0.731445312 -0.0473022461 0.680175781
vn -0.731445312 -0.0473022461 0.680175781
vn -0.755371094 -0.047454834 0.653320312
vn -0.776855469 0.233520508 0.584472656
vn -0.776855469 0.233520508 0.584472656
vn -0.776855469 0.233520508 0.584472656
vn -0.720214844 0.643554688 0.259277344
vn -0.720214844 0.643554688 0.259277344
vn -0.720214844 0.643554688 0.259277344
vn -0.895507812 -0.000188946724 0.445068359
vn -0.895507812 -0.000188946724 0.445068359
vn -0.895507812 -0.000188946724 0.445068359
vn -0.112915039 0.644042969 0.756347656
vn -0.112915039 0.644042969 0.756347656
vn -0.112915039 0.644042969 0.756347656
vn -0.337890625 0.107177734 0.935058594
vn -0.337890625 0.107177734 0.935058594
vn -0.337890625 0.107177734 0.935058594
vn -0.493896484 -0.136474609 0.858886719
vn -0.493896484 -0.136474609 0.858886719
vn -0.493896484 -0.136474609 0.858886719
vn -0.244384766 0.234375 -0.940917969
vn -0.244384766 0.234375 -0.940917969
vn -0.244384766 0.234375 -0.940917969
vn 0.100280762 0.752929688 -0.650390625
vn 0.100280762 0.752929688 -0.650390625
vn 0.100280762 0.752929688 -0.650390625
vn 0.130371094 0.715332031 -0.686523438
vn 0.130371094 0.715332031 -0.686523438
vn 0.130371094 0.715332031 -0.686523438
vn 0.0463562012 0.750488281 -0.659667969
vn 0.0463562012 0.750488281 -0.659667969
vn 0.0463562012 0.750488281 -0.659667969
vn -0.70703125 0.173950195 -0.685546875
vn -0.70703125 0.173950195 -0.685546875
vn -0.70703125 0.173950195 -0.685546875
vn -0.916992188 0.137817383 -0.374511719
vn -0.916992188 0.137817383 -0.374511719
vn -0.916992188 0.137817383 -0.374511719
vn -0.855957031 0.0317993164 -0.516113281
vn -0.855957031 0.0317993164 -0.516113281
vn -0.855957031 0.0317993164 -0.516113281
vn -0.697265625 0.3125 -0.645019531
vn -0.697265625 0.3125 -0.645019531
vn -0.697265625 0.3125 -0.645019531
vn -0.730957031 0.0406799316 -0.681152344
vn -0.730957031 0.0406799316 -0.681152344
vn -0.730957031 0.0406799316 -0.681152344
vn -0.421630859 0.620117188 -0.661621094
vn -0.421630859 0.620117188 -0.661621094
vn -0.421630859 0.620117188 -0.661621094
vn -0.455566406 0.147705078 -0.877929688
vn -0.455566406 0.147705078 -0.877929688
vn -0.455566406 0.147705078 -0.877929688
vn -0.0505065918 0.0240631104 -0.998535156
vn -0.0505065918 0.0240631104 -0.998535156
vn -0.0505065918 0.0240631104 -0.998535156
vn 0.175048828 0.131958008 0.975585938
vn 0.175048828 0.131958008 0.975585938
vn 0.175048828 0.131958008 0.975585938
vn -0.161865234 0.0941772461 -0.982421875
vn -0.161865234 0.0941772461 -0.982421875
vn -0.161865234 0.0941772461 -0.982421875
vn -0.906738281 -0.0227508545 -0.421630859
vn -0.906738281 -0.0227508545 -0.421630859
vn -0.906738281 -0.0227508545 -0.421630859
vn -0.666015625 0.745605469 -0.0211791992
vn -0.666015625 0.745605469 -0.0211791992
vn -0.666015625 0.745605469 -0.0211791992
vn -0.875 -0.416259766 0.247192383
vn -0.875 -0.416259766 0.247192383
vn -0.875 -0.416259766 0.247192383
vn -0.313964844 0.596191406 0.738769531
vn -0.313964844 0.596191406 0.738769531
vn -0.313964844 0.596191406 0.738769531
vn -0.455322266 0.0933227539 0.885253906
vn -0.455322266 0.0933227539 0.885253906
vn -0.455322266 0.0933227539 0.885253906
vn 0.141601562 -0.134399414 -0.980957031
vn 0.141601562 -0.134399414 -0.980957031
vn 0.141601562 -0.134399414 -0.980957031
vn 0.116455078 0.69140625 0.712890625
vn 0.116455078 0.69140625 0.712890625
vn 0.116455078 0.69140625 0.712890625
vn -0.954101562 0.0556640625 -0.293945312
vn -0.954101562 0.0556640625 -0.293945312
vn -0.954101562 0.0556640625 -0.293945312
vn -0.151123047 -0.369628906 -0.916992188
vn -0.151123047 -0.369628906 -0.916992188
vn -0.151123047 -0.369628906 -0.916992188
vn -0.758300781 0.271240234 0.592773438
vn -0.758300781 0.271240234 0.592773438
vn -0.758300781 0.271240234 0.592773438
vn -0.861328125 0.263427734 0.434814453
vn -0.861328125 0.263427734 0.434814453
vn -0.861328125 0.263427734 0.434814453
vn 0.344238281 0.595214844 0.726074219
vn 0.344238281 0.595214844 0.726074219
vn 0.344238281 0.595214844 0.726074219
vn -0.549804688 -0.407714844 -0.729003906
vn -0.549804688 -0.407714844 -0.729003906
vn -0.549804688 -0.407714844 -0.729003906
vn -0.930175781 0.262451172 0.256591797
vn -0.930175781 0.262451172 0.256591797
vn -0.930175781 0.262451172 0.256591797
vn -0.399169922 0.207397461 0.893066406
vn -0.399169922 0.207397461 0.893066406
vn -0.399169922 0.207397461 0.893066406
vn -0.125488281 -0.302246094 -0.944824219
vn -0.125488281 -0.302246094 -0.944824219
vn -0.125488281 -0.302246094 -0.944824219
vn -0.220214844 0.590820312 0.776367188
vn -0.220214844 0.590820312 0.776367188
vn -0.220214844 0.590820312 0.776367188
vn 0.202148438 -0.27734375 -0.939453125
vn 0.202148438 -0.27734375 -0.939453125
vn 0.202148438 -0.27734375 -0.939453125
vn -0.854492188 0.462158203 0.237426758
vn -0.854492188 0.462158203 0.237426758
vn -0.854492188 0.462158203 0.237426758
vn 0.150512695 0.571777344 0.806152344
vn 0.150512695 0.571777344 0.806152344
vn 0.150512695 0.571777344 0.806152344
vn -0.875 -0.197509766 -0.441894531
vn -0.875 -0.197509766 -0.441894531
vn -0.875 -0.197509766 -0.441894531
vn -0 0.627929688 0.778320312
vn -0 0.627929688 0.778320312
vn -0 0.627929688 0.778320312
vn -0 0.627929688 0.778320312
vn -0 0.627929688 0.778320312
vn -0.759765625 -0.229248047 -0.608398438
vn -0.759765625 -0.229248047 -0.608398438
vn -0.759765625 -0.229248047 -0.608398438
vn -0.623535156 -0.312744141 -0.716796875
vn -0.623535156 -0.312744141 -0.716796875
vn -0.623535156 -0.312744141 -0.716796875
vn -0.485839844 -0.307617188 -0.817871094
vn -0.485839844 -0.307617188 -0.817871094
vn -0.485839844 -0.307617188 -0.817871094
vn -0.245483398 -0.416748047 -0.875488281
vn -0.245483398 -0.416748047 -0.875488281
vn -0.245483398 -0.416748047 -0.875488281
vn -0.0969848633 0.652832031 0.750976562
vn -0.0969848633 0.652832031 0.750976562
vn -0.0969848633 0.652832031 0.750976562
vn 0.14453125 -0.98046875 -0.134521484
vn 0.14453125 -0.98046875 -0.134521484
vn 0.14453125 -0.98046875 -0.134521484
vn 0.152832031 -0.915527344 -0.372314453
vn 0.152832031 -0.915527344 -0.372314453
vn 0.152832031 -0.915527344 -0.372314453
vn 0.0873413086 -0.991210938 -0.0986328125
vn 0.0873413086 -0.991210938 -0.0986328125
vn 0.0873413086 -0.991210938 -0.0986328125
vn 0.201171875 -0.9296875 -0.308105469
vn 0.201171875 -0.9296875 -0.308105469
vn 0.201171875 -0.9296875 -0.308105469
vn 0.165283203 -0.911621094 -0.376953125
vn 0.165283203 -0.911621094 -0.376953125
vn 0.165283203 -0.911621094 -0.376953125
vn 0.220336914 -0.969726562 -0.10345459
vn 0.220336914 -0.969726562 -0.10345459
vn 0.220336914 -0.969726562 -0.10345459
vn 0.3203125 -0.9296875 -0.182617188
vn 0.3203125 -0.9296875 -0.182617188
vn 0.3203125 -0.9296875 -0.182617188
vn 0.22265625 -0.949707031 -0.219726562
vn 0.22265625 -0.949707031 -0.219726562
vn 0.22265625 -0.949707031 -0.219726562
vn 0.151489258 -0.95703125 -0.247680664
vn 0.151489258 -0.95703125 -0.247680664
vn 0.151489258 -0.95703125 -0.247680664
vn 0.284912109 -0.886230469 -0.364746094
vn 0.284912109 -0.886230469 -0.364746094
vn 0.284912109 -0.886230469 -0.364746094
vn 0.185180664 -0.981445312 -0.0467224121
vn 0.185180664 -0.981445312 -0.0467224121
vn 0.185180664 -0.981445312 -0.0467224121
vn 0.273193359 -0.9609375 -0.0485229492
vn 0.273193359 -0.9609375 -0.0485229492
vn 0.273193359 -0.9609375 -0.0485229492
vn 0.0476074219 -0.984863281 -0.165527344
vn 0.0476074219 -0.984863281 -0.165527344
vn 0.0476074219 -0.984863281 -0.165527344
vn 0.275878906 -0.9609375 0.00900268555
vn 0.275878906 -0.9609375 0.00900268555
vn 0.275878906 -0.9609375 0.00900268555
vn 0.0740356445 -0.983398438 -0.165283203
vn 0.0740356445 -0.983398438 -0.165283203
vn 0.0740356445 -0.983398438 -0.165283203
vn 0.311523438 -0.932128906 -0.184204102
vn 0.311523438 -0.932128906 -0.184204102
vn 0.311523438 -0.932128906 -0.184204102
vn 0.256835938 -0.917480469 -0.303222656
vn 0.256835938 -0.917480469 -0.303222656
vn 0.256835938 -0.917480469 -0.303222656
vn 0.213867188 -0.879882812 -0.423828125
vn 0.213867188 -0.879882812 -0.423828125
vn 0.213867188 -0.879882812 -0.423828125
vn 0.97265625 -0.0237426758 0.230712891
vn 0.97265625 -0.0237426758 0.230712891
vn 0.97265625 -0.0237426758 0.230712891
vn 0.756835938 0.641601562 0.122436523
vn 0.756835938 0.641601562 0.122436523
vn 0.756835938 0.641601562 0.122436523
vn 0.904785156 -0.261230469 0.336425781
vn 0.904785156 -0.261230469 0.336425781
vn 0.904785156 -0.261230469 0.336425781
vn 0.922363281 0.297119141 0.247070312
vn 0.922363281 0.297119141 0.247070312
vn 0.922363281 0.297119141 0.247070312
vn 0.916015625 0.0148544312 0.400878906
vn 0.916015625 0.0148544312 0.400878906
vn 0.916015625 0.0148544312 0.400878906
vn 0.915527344 0.348388672 -0.201660156
vn 0.915527344 0.348388672 -0.201660156
vn 0.915527344 0.348388672 -0.201660156
vn 0.976074219 0.0167694092 -0.217407227
vn 0.976074219 0.0167694092 -0.217407227
vn 0.976074219 0.0167694092 -0.217407227
vn 0.388427734 0.608398438 -0.691894531
vn 0.388427734 0.608398438 -0.691894531
vn 0.388427734 0.608398438 -0.691894531
vn -0.278320312 -0.213623047 -0.936523438
vn -0.278320312 -0.213623047 -0.936523438
vn -0.278320312 -0.213623047 -0.936523438
vn -0.341796875 0.548339844 0.763183594
vn -0.341796875 0.548339844 0.763183594
vn -0.341796875 0.548339844 0.763183594
vn 0.954101562 0.0556640625 -0.293945312
vn 0.954101562 0.0556640625 -0.293945312
vn 0.954101562 0.0556640625 -0.293945312
vn 0.758300781 0.271240234 0.592773438
vn 0.758300781 0.271240234 0.592773438
vn 0.758300781 0.271240234 0.592773438
vn 0.59375 0.431884766 0.678710938
vn 0.59375 0.431884766 0.678710938
vn 0.59375 0.431884766 0.678710938
vn -0.344238281 0.595214844 0.726074219
vn -0.344238281 0.595214844 0.726074219
vn -0.344238281 0.595214844 0.726074219
vn 0.549804688 -0.407714844 -0.729003906
vn 0.549804688 -0.407714844 -0.729003906
vn 0.549804688 -0.407714844 -0.729003906
vn 0.930175781 0.262451172 0.256591797
vn 0.930175781 0.262451172 0.256591797
vn 0.930175781 0.262451172 0.256591797
vn 0.399169922 0.207397461 0.893066406
vn 0.399169922 0.207397461 0.893066406
vn 0.399169922 0.207397461 0.893066406
vn 0.125488281 -0.302246094 -0.944824219
vn 0.125488281 -0.302246094 -0.944824219
vn 0.125488281 -0.302246094 -0.944824219
vn 0.220214844 0.590820312 0.776367188
vn 0.220214844 0.590820312 0.776367188
vn 0.220214844 0.590820312 0.776367188
vn -0.202148438 -0.27734375 -0.939453125
vn -0.202148438 -0.27734375 -0.939453125
vn -0.202148438 -0.27734375 -0.939453125
vn -0.150512695 0.571777344 0.806152344
vn -0.150512695 0.571777344 0.806152344
vn -0.150512695 0.571777344 0.806152344
vn 0.772460938 -0.295166016 -0.562011719
vn 0.772460938 -0.295166016 -0.562011719
vn 0.772460938 -0.295166016 -0.562011719
vn 0.50390625 -0.387695312 -0.771972656
vn 0.50390625 -0.387695312 -0.771972656
vn 0.50390625 -0.387695312 -0.771972656
vn 0.132324219 -0.4921875 -0.860351562
vn 0.132324219 -0.4921875 -0.860351562
vn 0.132324219 -0.4921875 -0.860351562
vn -0.97265625 -0.0237426758 0.230712891
vn -0.97265625 -0.0237426758 0.230712891
vn -0.97265625 -0.0237426758 0.230712891
vn -0.786132812 0.611328125 0.0892944336
vn -0.786132812 0.611328125 0.0892944336
vn -0.786132812 0.611328125 0.0892944336
vn -0.904785156 -0.261230469 0.336425781
vn -0.904785156 -0.261230469 0.336425781
vn -0.904785156 -0.261230469 0.336425781
vn -0.964355469 0.260253906 0.0500793457
vn -0.964355469 0.260253906 0.0500793457
vn -0.964355469 0.260253906 0.0500793457
vn -0.966308594 0.0010471344 0.256835938
vn -0.966308594 0.0010471344 0.256835938
vn -0.966308594 0.0010471344 0.256835938
vn -0.915527344 0.348388672 -0.201660156
vn -0.915527344 0.348388672 -0.201660156
vn -0.915527344 0.348388672 -0.201660156
vn -0.976074219 0.0167694092 -0.217407227
vn -0.976074219 0.0167694092 -0.217407227
vn -0.976074219 0.0167694092 -0.217407227
vn -0.388427734 0.608398438 -0.691894531
vn -0.388427734 0.608398438 -0.691894531
vn -0.388427734 0.608398438 -0.691894531
vn 0.278320312 -0.213623047 -0.936523438
vn 0.278320312 -0.213623047 -0.936523438
vn 0.278320312 -0.213623047 -0.936523438
vn 0.341796875 0.548339844 0.763183594
vn 0.341796875 0.548339844 0.763183594
vn 0.341796875 0.548339844 0.763183594
vn -0.8671875 -0.150512695 -0.474365234
vn -0.869140625 -0.1328125 -0.4765625
vn -0.8671875 -0.150512695 -0.474365234
vn -0.869140625 -0.1328125 -0.4765625
vn -0.869140625 -0.1328125 -0.4765625
vn -0.860351562 -0.101867676 -0.499755859
vn -0.643554688 0.219482422 0.733398438
vn -0.643554688 0.219482422 0.733398438
vn -0.643554688 0.219482422 0.733398438
vn 0.275634766 -0.253417969 -0.927246094
vn 0.275634766 -0.253417969 -0.927246094
vn 0.275634766 -0.253417969 -0.927246094
vn -0.59375 0.431884766 0.678710938
vn -0.59375 0.431884766 0.678710938
vn -0.59375 0.431884766 0.678710938
vn 0.145874023 0.526367188 0.837890625
vn 0.145874023 0.526367188 0.837890625
vn 0.145874023 0.526367188 0.837890625
vn -0.641113281 -0.404052734 -0.652832031
vn -0.641113281 -0.404052734 -0.652832031
vn -0.641113281 -0.404052734 -0.652832031
vn -0.772460938 0.198364258 0.603515625
vn -0.772460938 0.198364258 0.603515625
vn -0.772460938 0.198364258 0.603515625
vn 0.206542969 -0.191162109 -0.959472656
vn 0.206542969 -0.191162109 -0.959472656
vn 0.206542969 -0.191162109 -0.959472656
vn -0.0673828125 0.425537109 0.90234375
vn -0.0673828125 0.425537109 0.90234375
vn -0.0673828125 0.425537109 0.90234375
vn -0.772460938 -0.295166016 -0.562011719
vn -0.772460938 -0.295166016 -0.562011719
vn -0.772460938 -0.295166016 -0.562011719
vn -0.133422852 0.592285156 0.794433594
vn -0.133422852 0.592285156 0.794433594
vn -0.133422852 0.592285156 0.794433594
vn -0.50390625 -0.387695312 -0.771972656
vn -0.50390625 -0.387695312 -0.771972656
vn -0.50390625 -0.387695312 -0.771972656
vn -0.132324219 -0.4921875 -0.860351562
vn -0.132324219 -0.4921875 -0.860351562
vn -0.132324219 -0.4921875 -0.860351562
vn 0.960449219 -0.147827148 -0.236450195
vn 0.960449219 -0.147827148 -0.236450195
vn 0.960449219 -0.147827148 -0.236450195
vn 0.969238281 -0.11920166 -0.215820312
vn 0.969726562 0.0230865479 -0.243652344
vn 0.969726562 0.0230865479 -0.243652344
vn 0.969726562 0.0230865479 -0.243652344
vn 0.968261719 0.0194244385 -0.248779297
vn 0.357421875 0.0460205078 0.932617188
vn 0.357421875 0.0460205078 0.932617188
vn 0.357421875 0.0460205078 0.932617188
vn 0.357421875 0.0460205078 0.932617188
vn 0.633789062 -0.0517578125 -0.771484375
vn 0.633789062 -0.0517578125 -0.771484375
vn 0.633789062 -0.0517578125 -0.771484375
vn 0.6328125 -0.0423278809 -0.772949219
vn 0.218139648 0.47265625 0.854003906
vn 0.218139648 0.47265625 0.854003906
vn 0.218139648 0.47265625 0.854003906
vn 0.208740234 0.469970703 0.857910156
vn 0.860351562 -0.101867676 -0.499755859
vn 0.860351562 -0.101867676 -0.499755859
vn 0.860351562 -0.101867676 -0.499755859
vn 0.869140625 -0.1328125 -0.4765625
vn -0.352294922 -0.221435547 -0.909179688
vn -0.352294922 -0.221435547 -0.909179688
vn -0.352294922 -0.221435547 -0.909179688
vn -0.354003906 -0.198852539 -0.9140625
vn -0 0.54296875 0.83984375
vn -0 0.54296875 0.83984375
vn -0 0.54296875 0.83984375
vn -0 0.54296875 0.83984375
vn -0 0.998535156 0.0501708984
vn -0 0.998535156 0.0501708984
vn -0 0.998535156 0.0501708984
vn -0 0.998535156 0.0501708984
vn 0.344238281 -0.389892578 -0.854003906
vn 0.344238281 -0.389892578 -0.854003906
vn 0.344238281 -0.389892578 -0.854003906
vn 0.349609375 -0.430419922 -0.83203125
vn 0.0440368652 -0.475097656 -0.87890625
vn 0.0594177246 -0.504394531 -0.861328125
vn 0.0440368652 -0.475097656 -0.87890625
vn 0.0594177246 -0.504394531 -0.861328125
vn 0.0594177246 -0.504394531 -0.861328125
vn 0.059387207 -0.521484375 -0.851074219
vn 0.0236663818 0.749511719 -0.661621094
vn 0.0236663818 0.749511719 -0.661621094
vn 0.0236663818 0.749511719 -0.661621094
vn -0.0236663818 0.749511719 -0.661621094
vn -0.969238281 -0.11920166 -0.215820312
vn -0.969238281 -0.11920166 -0.215820312
vn -0.969238281 -0.11920166 -0.215820312
vn -0.960449219 -0.147827148 -0.236450195
vn -0.968261719 0.0194244385 -0.248779297
vn -0.968261719 0.0194244385 -0.248779297
vn -0.968261719 0.0194244385 -0.248779297
vn -0.969726562 0.0230865479 -0.243652344
vn -0.357421875 0.0460205078 0.932617188
vn -0.357421875 0.0460205078 0.932617188
vn -0.357421875 0.0460205078 0.932617188
vn -0.357421875 0.0460205078 0.932617188
vn -0.059387207 -0.521484375 -0.851074219
vn -0.059387207 -0.521484375 -0.851074219
vn -0.059387207 -0.521484375 -0.851074219
vn -0.0440368652 -0.499267578 -0.865234375
vn -0.0440368652 -0.499267578 -0.865234375
vn -0.0440368652 -0.475097656 -0.87890625
vn -0.633789062 -0.0517578125 -0.771484375
vn -0.633789062 -0.0517578125 -0.771484375
vn -0.633789062 -0.0517578125 -0.771484375
vn -0.6328125 -0.0423278809 -0.772949219
vn -0.208740234 0.469970703 0.857910156
vn -0.208740234 0.469970703 0.857910156
vn -0.208740234 0.469970703 0.857910156
vn -0.218139648 0.47265625 0.854003906
vn 0.354003906 -0.198852539 -0.9140625
vn 0.354003906 -0.198852539 -0.9140625
vn 0.354003906 -0.198852539 -0.9140625
vn 0.352294922 -0.221435547 -0.909179688
vn -0 -0.514648438 -0.857421875
vn -0.0256958008 -0.497314453 -0.8671875
vn -0.0256958008 -0.497314453 -0.8671875
vn -0 -0.514648438 -0.857421875
vn -0 -0.514648438 -0.857421875
vn -0 -0.514648438 -0.857421875
vn -0 -0.494628906 -0.869140625
vn 0.0256958008 -0.497314453 -0.8671875
vn -0.344238281 -0.389892578 -0.854003906
vn -0.344238281 -0.389892578 -0.854003906
vn -0.344238281 -0.389892578 -0.854003906
vn -0.349609375 -0.430419922 -0.83203125
vn -0.345214844 0.223022461 0.911621094
vn -0.360351562 0.183959961 0.914550781
vn -0.345214844 0.223022461 0.911621094
vn -0.345214844 0.223022461 0.911621094
vn -0.310791016 0.202026367 0.928710938
g AlbatrossHead_0
f 3/3/3 2/2/2 1/1/1
f 6/6/6 5/5/5 4/4/4
f 9/9/9 8/8/8 7/7/7
f 12/12/12 11/11/11 10/10/10
f 15/15/15 14/14/14 13/13/13
f 18/18/18 17/17/17 16/16/16
f 21/21/21 20/20/20 19/19/19
f 24/24/24 23/23/23 22/22/22
f 27/27/27 26/26/26 25/25/25
f 30/30/30 29/29/29 28/28/28
f 33/33/33 32/32/32 31/31/31
f 36/36/36 35/35/35 34/34/34
f 39/39/39 38/38/38 37/37/37
f 42/42/42 41/41/41 40/40/40
f 45/45/45 44/44/44 43/43/43
f 48/48/48 47/47/47 46/46/46
f 51/51/51 50/50/50 49/49/49
f 54/54/54 53/53/53 52/52/52
f 57/57/57 56/56/56 55/55/55
f 60/60/60 59/59/59 58/58/58
f 62/62/62 61/61/61 59/59/59
f 63/63/63 62/62/62 59/59/59
f 66/66/66 65/65/65 64/64/64
f 69/69/69 68/68/68 67/67/67
f 72/72/72 71/71/71 70/70/70
f 75/75/75 74/74/74 73/73/73
f 78/78/78 77/77/77 76/76/76
f 81/81/81 80/80/80 79/79/79
f 84/84/84 83/83/83 82/82/82
f 87/87/87 86/86/86 85/85/85
f 90/90/90 89/89/89 88/88/88
f 92/92/92 91/91/91 88/88/88
f 95/95/95 94/94/94 93/93/93
f 98/98/98 97/97/97 96/96/96
f 101/101/101 100/100/100 99/99/99
f 103/103/103 101/101/101 102/102/102
f 106/106/106 105/105/105 104/104/104
f 109/109/109 108/108/108 107/107/107
f 112/112/112 111/111/111 110/110/110
f 115/115/115 114/114/114 113/113/113
f 118/118/118 117/117/117 116/116/116
f 121/121/121 120/120/120 119/119/119
f 124/124/124 123/123/123 122/122/122
f 127/127/127 126/126/126 125/125/125
f 130/130/130 129/129/129 128/128/128
f 133/133/133 132/132/132 131/131/131
f 136/136/136 135/135/135 134/134/134
f 139/139/139 138/138/138 137/137/137
f 142/142/142 141/141/141 140/140/140
f 145/145/145 144/144/144 143/143/143
f 148/148/148 147/147/147 146/146/146
f 151/151/151 150/150/150 149/149/149
f 154/154/154 153/153/153 152/152/152
f 157/157/157 156/156/156 155/155/155
f 160/160/160 159/159/159 158/158/158
f 163/163/163 162/162/162 161/161/161
f 166/166/166 165/165/165 164/164/164
f 169/169/169 168/168/168 167/167/167
f 172/172/172 171/171/171 170/170/170
f 175/175/175 174/174/174 173/173/173
f 178/178/178 177/177/177 176/176/176
f 181/181/181 180/180/180 179/179/179
f 179/179/179 183/183/183 182/182/182
f 183/183/183 184/184/184 182/182/182
f 187/187/187 186/186/186 185/185/185
f 190/190/190 189/189/189 188/188/188
f 193/193/193 192/192/192 191/191/191
f 196/196/196 195/195/195 194/194/194
f 199/199/199 198/198/198 197/197/197
f 202/202/202 201/201/201 200/200/200
f 205/205/205 204/204/204 203/203/203
f 208/208/208 207/207/207 206/206/206
f 211/211/211 210/210/210 209/209/209
f 214/214/214 213/213/213 212/212/212
f 217/217/217 216/216/216 215/215/215
f 220/220/220 219/219/219 218/218/218
f 223/223/223 222/222/222 221/221/221
f 226/226/226 225/225/225 224/224/224
f 229/229/229 228/228/228 227/227/227
f 232/232/232 231/231/231 230/230/230
f 235/235/235 234/234/234 233/233/233
f 238/238/238 237/237/237 236/236/236
f 241/241/241 240/240/240 239/239/239
f 244/244/244 243/243/243 242/242/242
f 247/247/247 246/246/246 245/245/245
f 250/250/250 249/249/249 248/248/248
f 253/253/253 252/252/252 251/251/251
f 256/256/256 255/255/255 254/254/254
f 259/259/259 258/258/258 257/257/257
f 262/262/262 261/261/261 260/260/260
f 265/265/265 264/264/264 263/263/263
f 268/268/268 267/267/267 266/266/266
f 271/271/271 270/270/270 269/269/269
f 274/274/274 273/273/273 272/272/272
f 277/277/277 276/276/276 275/275/275
f 280/280/280 279/279/279 278/278/278
f 283/283/283 282/282/282 281/281/281
f 286/286/286 285/285/285 284/284/284
f 289/289/289 288/288/288 287/287/287
f 292/292/292 291/291/291 290/290/290
f 295/295/295 294/294/294 293/293/293
f 298/298/298 297/297/297 296/296/296
f 301/301/301 300/300/300 299/299/299
f 304/304/304 303/303/303 302/302/302
f 307/307/307 306/306/306 305/305/305
f 310/310/310 309/309/309 308/308/308
f 313/313/313 312/312/312 311/311/311
f 316/316/316 315/315/315 314/314/314
f 319/319/319 318/318/318 317/317/317
f 322/322/322 321/321/321 320/320/320
f 325/325/325 324/324/324 323/323/323
f 328/328/328 327/327/327 326/326/326
f 330/330/330 329/329/329 328/328/328
f 329/329/329 331/331/331 328/328/328
f 334/334/334 333/333/333 332/332/332
f 337/337/337 336/336/336 335/335/335
f 340/340/340 339/339/339 338/338/338
f 343/343/343 342/342/342 341/341/341
f 346/346/346 345/345/345 344/344/344
f 349/349/349 348/348/348 347/347/347
f 352/352/352 351/351/351 350/350/350
f 355/355/355 354/354/354 353/353/353
f 358/358/358 357/357/357 356/356/356
f 361/361/361 360/360/360 359/359/359
f 364/364/364 363/363/363 362/362/362
f 367/367/367 366/366/366 365/365/365
f 370/370/370 369/369/369 368/368/368
f 373/373/373 372/372/372 371/371/371
f 376/376/376 375/375/375 374/374/374
f 379/379/379 378/378/378 377/377/377
f 382/382/382 381/381/381 380/380/380
f 385/385/385 384/384/384 383/383/383
f 388/388/388 387/387/387 386/386/386
f 391/391/391 390/390/390 389/389/389
f 394/394/394 393/393/393 392/392/392
f 397/397/397 396/396/396 395/395/395
f 400/400/400 399/399/399 398/398/398
f 403/403/403 402/402/402 401/401/401
f 406/406/406 405/405/405 404/404/404
f 409/409/409 408/408/408 407/407/407
f 412/412/412 411/411/411 410/410/410
f 415/415/415 414/414/414 413/413/413
f 418/418/418 417/417/417 416/416/416
f 421/421/421 420/420/420 419/419/419
f 424/424/424 423/423/423 422/422/422
f 427/427/427 426/426/426 425/425/425
f 430/430/430 429/429/429 428/428/428
f 433/433/433 432/432/432 431/431/431
f 436/436/436 435/435/435 434/434/434
f 439/439/439 438/438/438 437/437/437
f 442/442/442 441/441/441 440/440/440
f 445/445/445 444/444/444 443/443/443
f 448/448/448 447/447/447 446/446/446
f 451/451/451 450/450/450 449/449/449
f 454/454/454 453/453/453 452/452/452
f 457/457/457 456/456/456 455/455/455
f 459/459/459 458/458/458 455/455/455
f 462/462/462 461/461/461 460/460/460
f 465/465/465 464/464/464 463/463/463
f 468/468/468 467/467/467 466/466/466
f 471/471/471 470/470/470 469/469/469
f 474/474/474 473/473/473 472/472/472
f 477/477/477 476/476/476 475/475/475
f 480/480/480 479/479/479 478/478/478
f 483/483/483 482/482/482 481/481/481
f 486/486/486 485/485/485 484/484/484
f 489/489/489 488/488/488 487/487/487
f 492/492/492 491/491/491 490/490/490
f 495/495/495 494/494/494 493/493/493
f 498/498/498 497/497/497 496/496/496
f 501/501/501 500/500/500 499/499/499
f 504/504/504 503/503/503 502/502/502
f 507/507/507 506/506/506 505/505/505
f 510/510/510 509/509/509 508/508/508
f 513/513/513 512/512/512 511/511/511
f 516/516/516 515/515/515 514/514/514
f 519/519/519 518/518/518 517/517/517
f 522/522/522 521/521/521 520/520/520
f 525/525/525 524/524/524 523/523/523
f 528/528/528 527/527/527 526/526/526
f 531/531/531 530/530/530 529/529/529
f 534/534/534 533/533/533 532/532/532
f 537/537/537 536/536/536 535/535/535
f 540/540/540 539/539/539 538/538/538
f 543/543/543 542/542/542 541/541/541
f 546/546/546 545/545/545 544/544/544
f 549/549/549 548/548/548 547/547/547
f 552/552/552 551/551/551 550/550/550
f 555/555/555 554/554/554 553/553/553
f 558/558/558 557/557/557 556/556/556
f 561/561/561 560/560/560 559/559/559
f 564/564/564 563/563/563 562/562/562
f 567/567/567 566/566/566 565/565/565
f 570/570/570 569/569/569 568/568/568
f 573/573/573 572/572/572 571/571/571
f 576/576/576 575/575/575 574/574/574
f 579/579/579 578/578/578 577/577/577
f 582/582/582 581/581/581 580/580/580
f 585/585/585 584/584/584 583/583/583
f 588/588/588 587/587/587 586/586/586
f 591/591/591 590/590/590 589/589/589
f 594/594/594 593/593/593 592/592/592
f 597/597/597 596/596/596 595/595/595
f 600/600/600 599/599/599 598/598/598
f 603/603/603 602/602/602 601/601/601
f 606/606/606 605/605/605 604/604/604
f 609/609/609 608/608/608 607/607/607
f 612/612/612 611/611/611 610/610/610
f 615/615/615 614/614/614 613/613/613
f 618/618/618 617/617/617 616/616/616
f 621/621/621 620/620/620 619/619/619
f 624/624/624 623/623/623 622/622/622
f 627/627/627 626/626/626 625/625/625
f 630/630/630 629/629/629 628/628/628
f 633/633/633 632/632/632 631/631/631
f 635/635/635 634/634/634 632/632/632
f 632/632/632 634/634/634 636/636/636
f 639/639/639 638/638/638 637/637/637
f 642/642/642 641/641/641 640/640/640
f 645/645/645 644/644/644 643/643/643
f 648/648/648 647/647/647 646/646/646
f 651/651/651 650/650/650 649/649/649
f 654/654/654 653/653/653 652/652/652
f 657/657/657 656/656/656 655/655/655
f 660/660/660 659/659/659 658/658/658
f 663/663/663 662/662/662 661/661/661
f 666/666/666 665/665/665 664/664/664
f 669/669/669 668/668/668 667/667/667
f 672/672/672 671/671/671 670/670/670
f 675/675/675 674/674/674 673/673/673
f 676/676/676 675/675/675 673/673/673
f 679/679/679 678/678/678 677/677/677
f 680/680/680 679/679/679 677/677/677
f 683/683/683 682/682/682 681/681/681
f 684/684/684 683/683/683 681/681/681
f 687/687/687 686/686/686 685/685/685
f 687/687/687 688/688/688 686/686/686
f 691/691/691 690/690/690 689/689/689
f 692/692/692 691/691/691 689/689/689
f 695/695/695 694/694/694 693/693/693
f 695/695/695 696/696/696 694/694/694
f 699/699/699 698/698/698 697/697/697
f 697/697/697 698/698/698 700/700/700
f 703/703/703 702/702/702 701/701/701
f 702/702/702 704/704/704 701/701/701
f 707/707/707 706/706/706 705/705/705
f 708/708/708 707/707/707 705/705/705
f 711/711/711 710/710/710 709/709/709
f 711/711/711 709/709/709 712/712/712
f 715/715/715 714/714/714 713/713/713
f 713/713/713 714/714/714 716/716/716
f 714/714/714 717/717/717 716/716/716
f 716/716/716 717/717/717 718/718/718
f 721/721/721 720/720/720 719/719/719
f 720/720/720 721/721/721 722/722/722
f 725/725/725 724/724/724 723/723/723
f 726/726/726 725/725/725 723/723/723
f 729/729/729 728/728/728 727/727/727
f 730/730/730 729/729/729 727/727/727
f 733/733/733 732/732/732 731/731/731
f 734/734/734 733/733/733 731/731/731
f 737/737/737 736/736/736 735/735/735
f 737/737/737 738/738/738 736/736/736
f 738/738/738 739/739/739 736/736/736
f 739/739/739 738/738/738 740/740/740
f 743/743/743 742/742/742 741/741/741
f 744/744/744 742/742/742 743/743/743
f 747/747/747 746/746/746 745/745/745
f 748/748/748 747/747/747 745/745/745
f 751/751/751 750/750/750 749/749/749
f 751/751/751 752/752/752 750/750/750
f 755/755/755 754/754/754 753/753/753
f 756/756/756 755/755/755 753/753/753
f 753/753/753 757/757/757 756/756/756
f 757/757/757 753/753/753 758/758/758
f 759/759/759 758/758/758 753/753/753
f 760/760/760 759/759/759 753/753/753
f 763/763/763 762/762/762 761/761/761
f 762/762/762 764/764/764 761/761/761
f 767/767/767 766/766/766 765/765/765
f 767/767/767 765/765/765 768/768/768
f 769/769/769 767/767/767 768/768/768