version 1
nodes
0 "root" -1
end
skeleton
time 0
0 0 0 0 0 0 0
end
triangles
phy
0 -26.1878 -8.0751 -13.7356 0 0 1 0 0 1 0 1.0
0 26.1878 -8.0751 -13.7356 0 0 1 0 0 1 0 1.0
0 26.1878 8.0751 -13.7356 0 0 1 0 0 1 0 1.0
phy
0 -26.1878 -8.0751 -13.7356 0 0 1 0 0 1 0 1.0
0 26.1878 8.0751 -13.7356 0 0 1 0 0 1 0 1.0
0 -26.1878 8.0751 -13.7356 0 0 1 0 0 1 0 1.0
phy
0 -26.1878 -8.0751 13.7356 0 0 1 0 0 1 0 1.0
0 -26.1878 8.0751 13.7356 0 0 1 0 0 1 0 1.0
0 26.1878 8.0751 13.7356 0 0 1 0 0 1 0 1.0
phy
0 -26.1878 -8.0751 13.7356 0 0 1 0 0 1 0 1.0
0 26.1878 8.0751 13.7356 0 0 1 0 0 1 0 1.0
0 26.1878 -8.0751 13.7356 0 0 1 0 0 1 0 1.0
phy
0 -26.1878 -8.0751 -13.7356 0 0 1 0 0 1 0 1.0
0 -26.1878 -8.0751 13.7356 0 0 1 0 0 1 0 1.0
0 26.1878 -8.0751 13.7356 0 0 1 0 0 1 0 1.0
phy
0 -26.1878 -8.0751 -13.7356 0 0 1 0 0 1 0 1.0
0 26.1878 -8.0751 13.7356 0 0 1 0 0 1 0 1.0
0 26.1878 -8.0751 -13.7356 0 0 1 0 0 1 0 1.0
phy
0 26.1878 8.0751 -13.7356 0 0 1 0 0 1 0 1.0
0 26.1878 8.0751 13.7356 0 0 1 0 0 1 0 1.0
0 -26.1878 8.0751 13.7356 0 0 1 0 0 1 0 1.0
phy
0 26.1878 8.0751 -13.7356 0 0 1 0 0 1 0 1.0
0 -26.1878 8.0751 13.7356 0 0 1 0 0 1 0 1.0
0 -26.1878 8.0751 -13.7356 0 0 1 0 0 1 0 1.0
phy
0 -26.1878 -8.0751 -13.7356 0 0 1 0 0 1 0 1.0
0 -26.1878 8.0751 -13.7356 0 0 1 0 0 1 0 1.0
0 -26.1878 8.0751 13.7356 0 0 1 0 0 1 0 1.0
phy
0 -26.1878 -8.0751 -13.7356 0 0 1 0 0 1 0 1.0
0 -26.1878 8.0751 13.7356 0 0 1 0 0 1 0 1.0
0 -26.1878 -8.0751 13.7356 0 0 1 0 0 1 0 1.0
phy
0 26.1878 -8.0751 -13.7356 0 0 1 0 0 1 0 1.0
0 26.1878 -8.0751 13.7356 0 0 1 0 0 1 0 1.0
0 26.1878 8.0751 13.7356 0 0 1 0 0 1 0 1.0
phy
0 26.1878 -8.0751 -13.7356 0 0 1 0 0 1 0 1.0
0 26.1878 8.0751 13.7356 0 0 1 0 0 1 0 1.0
0 26.1878 8.0751 -13.7356 0 0 1 0 0 1 0 1.0
end
