version 1
nodes
0 "root" -1
end
skeleton
time 0
0 0 0 0 0 0 0
end
triangles
phy
0 -41.6546 -10.6257 -6.2552 0 0 1 0 0 1 0 1.0
0 41.6546 -10.6257 -6.2552 0 0 1 0 0 1 0 1.0
0 41.6546 10.6257 -6.2552 0 0 1 0 0 1 0 1.0
phy
0 -41.6546 -10.6257 -6.2552 0 0 1 0 0 1 0 1.0
0 41.6546 10.6257 -6.2552 0 0 1 0 0 1 0 1.0
0 -41.6546 10.6257 -6.2552 0 0 1 0 0 1 0 1.0
phy
0 -41.6546 -10.6257 6.2552 0 0 1 0 0 1 0 1.0
0 -41.6546 10.6257 6.2552 0 0 1 0 0 1 0 1.0
0 41.6546 10.6257 6.2552 0 0 1 0 0 1 0 1.0
phy
0 -41.6546 -10.6257 6.2552 0 0 1 0 0 1 0 1.0
0 41.6546 10.6257 6.2552 0 0 1 0 0 1 0 1.0
0 41.6546 -10.6257 6.2552 0 0 1 0 0 1 0 1.0
phy
0 -41.6546 -10.6257 -6.2552 0 0 1 0 0 1 0 1.0
0 -41.6546 -10.6257 6.2552 0 0 1 0 0 1 0 1.0
0 41.6546 -10.6257 6.2552 0 0 1 0 0 1 0 1.0
phy
0 -41.6546 -10.6257 -6.2552 0 0 1 0 0 1 0 1.0
0 41.6546 -10.6257 6.2552 0 0 1 0 0 1 0 1.0
0 41.6546 -10.6257 -6.2552 0 0 1 0 0 1 0 1.0
phy
0 41.6546 10.6257 -6.2552 0 0 1 0 0 1 0 1.0
0 41.6546 10.6257 6.2552 0 0 1 0 0 1 0 1.0
0 -41.6546 10.6257 6.2552 0 0 1 0 0 1 0 1.0
phy
0 41.6546 10.6257 -6.2552 0 0 1 0 0 1 0 1.0
0 -41.6546 10.6257 6.2552 0 0 1 0 0 1 0 1.0
0 -41.6546 10.6257 -6.2552 0 0 1 0 0 1 0 1.0
phy
0 -41.6546 -10.6257 -6.2552 0 0 1 0 0 1 0 1.0
0 -41.6546 10.6257 -6.2552 0 0 1 0 0 1 0 1.0
0 -41.6546 10.6257 6.2552 0 0 1 0 0 1 0 1.0
phy
0 -41.6546 -10.6257 -6.2552 0 0 1 0 0 1 0 1.0
0 -41.6546 10.6257 6.2552 0 0 1 0 0 1 0 1.0
0 -41.6546 -10.6257 6.2552 0 0 1 0 0 1 0 1.0
phy
0 41.6546 -10.6257 -6.2552 0 0 1 0 0 1 0 1.0
0 41.6546 -10.6257 6.2552 0 0 1 0 0 1 0 1.0
0 41.6546 10.6257 6.2552 0 0 1 0 0 1 0 1.0
phy
0 41.6546 -10.6257 -6.2552 0 0 1 0 0 1 0 1.0
0 41.6546 10.6257 6.2552 0 0 1 0 0 1 0 1.0
0 41.6546 10.6257 -6.2552 0 0 1 0 0 1 0 1.0
end
