version 1
nodes
0 "root" -1
end
skeleton
time 0
0 0 0 0 0 0 0
end
triangles
phy
0 -69.7858 -25.8752 -19.5471 0 0 1 0 0 1 0 1.0
0 69.7858 -25.8752 -19.5471 0 0 1 0 0 1 0 1.0
0 69.7858 25.8752 -19.5471 0 0 1 0 0 1 0 1.0
phy
0 -69.7858 -25.8752 -19.5471 0 0 1 0 0 1 0 1.0
0 69.7858 25.8752 -19.5471 0 0 1 0 0 1 0 1.0
0 -69.7858 25.8752 -19.5471 0 0 1 0 0 1 0 1.0
phy
0 -69.7858 -25.8752 19.5471 0 0 1 0 0 1 0 1.0
0 -69.7858 25.8752 19.5471 0 0 1 0 0 1 0 1.0
0 69.7858 25.8752 19.5471 0 0 1 0 0 1 0 1.0
phy
0 -69.7858 -25.8752 19.5471 0 0 1 0 0 1 0 1.0
0 69.7858 25.8752 19.5471 0 0 1 0 0 1 0 1.0
0 69.7858 -25.8752 19.5471 0 0 1 0 0 1 0 1.0
phy
0 -69.7858 -25.8752 -19.5471 0 0 1 0 0 1 0 1.0
0 -69.7858 -25.8752 19.5471 0 0 1 0 0 1 0 1.0
0 69.7858 -25.8752 19.5471 0 0 1 0 0 1 0 1.0
phy
0 -69.7858 -25.8752 -19.5471 0 0 1 0 0 1 0 1.0
0 69.7858 -25.8752 19.5471 0 0 1 0 0 1 0 1.0
0 69.7858 -25.8752 -19.5471 0 0 1 0 0 1 0 1.0
phy
0 69.7858 25.8752 -19.5471 0 0 1 0 0 1 0 1.0
0 69.7858 25.8752 19.5471 0 0 1 0 0 1 0 1.0
0 -69.7858 25.8752 19.5471 0 0 1 0 0 1 0 1.0
phy
0 69.7858 25.8752 -19.5471 0 0 1 0 0 1 0 1.0
0 -69.7858 25.8752 19.5471 0 0 1 0 0 1 0 1.0
0 -69.7858 25.8752 -19.5471 0 0 1 0 0 1 0 1.0
phy
0 -69.7858 -25.8752 -19.5471 0 0 1 0 0 1 0 1.0
0 -69.7858 25.8752 -19.5471 0 0 1 0 0 1 0 1.0
0 -69.7858 25.8752 19.5471 0 0 1 0 0 1 0 1.0
phy
0 -69.7858 -25.8752 -19.5471 0 0 1 0 0 1 0 1.0
0 -69.7858 25.8752 19.5471 0 0 1 0 0 1 0 1.0
0 -69.7858 -25.8752 19.5471 0 0 1 0 0 1 0 1.0
phy
0 69.7858 -25.8752 -19.5471 0 0 1 0 0 1 0 1.0
0 69.7858 -25.8752 19.5471 0 0 1 0 0 1 0 1.0
0 69.7858 25.8752 19.5471 0 0 1 0 0 1 0 1.0
phy
0 69.7858 -25.8752 -19.5471 0 0 1 0 0 1 0 1.0
0 69.7858 25.8752 19.5471 0 0 1 0 0 1 0 1.0
0 69.7858 25.8752 -19.5471 0 0 1 0 0 1 0 1.0
end
