version 1
nodes
0 "root" -1
end
skeleton
time 0
0 0 0 0 0 0 0
end
triangles
phy
0 -32.2421 -7.3338 -8.9235 0 0 1 0 0 1 0 1.0
0 32.2421 -7.3338 -8.9235 0 0 1 0 0 1 0 1.0
0 32.2421 7.3338 -8.9235 0 0 1 0 0 1 0 1.0
phy
0 -32.2421 -7.3338 -8.9235 0 0 1 0 0 1 0 1.0
0 32.2421 7.3338 -8.9235 0 0 1 0 0 1 0 1.0
0 -32.2421 7.3338 -8.9235 0 0 1 0 0 1 0 1.0
phy
0 -32.2421 -7.3338 8.9235 0 0 1 0 0 1 0 1.0
0 -32.2421 7.3338 8.9235 0 0 1 0 0 1 0 1.0
0 32.2421 7.3338 8.9235 0 0 1 0 0 1 0 1.0
phy
0 -32.2421 -7.3338 8.9235 0 0 1 0 0 1 0 1.0
0 32.2421 7.3338 8.9235 0 0 1 0 0 1 0 1.0
0 32.2421 -7.3338 8.9235 0 0 1 0 0 1 0 1.0
phy
0 -32.2421 -7.3338 -8.9235 0 0 1 0 0 1 0 1.0
0 -32.2421 -7.3338 8.9235 0 0 1 0 0 1 0 1.0
0 32.2421 -7.3338 8.9235 0 0 1 0 0 1 0 1.0
phy
0 -32.2421 -7.3338 -8.9235 0 0 1 0 0 1 0 1.0
0 32.2421 -7.3338 8.9235 0 0 1 0 0 1 0 1.0
0 32.2421 -7.3338 -8.9235 0 0 1 0 0 1 0 1.0
phy
0 32.2421 7.3338 -8.9235 0 0 1 0 0 1 0 1.0
0 32.2421 7.3338 8.9235 0 0 1 0 0 1 0 1.0
0 -32.2421 7.3338 8.9235 0 0 1 0 0 1 0 1.0
phy
0 32.2421 7.3338 -8.9235 0 0 1 0 0 1 0 1.0
0 -32.2421 7.3338 8.9235 0 0 1 0 0 1 0 1.0
0 -32.2421 7.3338 -8.9235 0 0 1 0 0 1 0 1.0
phy
0 -32.2421 -7.3338 -8.9235 0 0 1 0 0 1 0 1.0
0 -32.2421 7.3338 -8.9235 0 0 1 0 0 1 0 1.0
0 -32.2421 7.3338 8.9235 0 0 1 0 0 1 0 1.0
phy
0 -32.2421 -7.3338 -8.9235 0 0 1 0 0 1 0 1.0
0 -32.2421 7.3338 8.9235 0 0 1 0 0 1 0 1.0
0 -32.2421 -7.3338 8.9235 0 0 1 0 0 1 0 1.0
phy
0 32.2421 -7.3338 -8.9235 0 0 1 0 0 1 0 1.0
0 32.2421 -7.3338 8.9235 0 0 1 0 0 1 0 1.0
0 32.2421 7.3338 8.9235 0 0 1 0 0 1 0 1.0
phy
0 32.2421 -7.3338 -8.9235 0 0 1 0 0 1 0 1.0
0 32.2421 7.3338 8.9235 0 0 1 0 0 1 0 1.0
0 32.2421 7.3338 -8.9235 0 0 1 0 0 1 0 1.0
end
