version 1
nodes
0 "root" -1
end
skeleton
time 0
0 0 0 0 0 0 0
end
triangles
phy
0 -83.7429 -31.0503 -23.4565 0 0 1 0 0 1 0 1.0
0 83.7429 -31.0503 -23.4565 0 0 1 0 0 1 0 1.0
0 83.7429 31.0503 -23.4565 0 0 1 0 0 1 0 1.0
phy
0 -83.7429 -31.0503 -23.4565 0 0 1 0 0 1 0 1.0
0 83.7429 31.0503 -23.4565 0 0 1 0 0 1 0 1.0
0 -83.7429 31.0503 -23.4565 0 0 1 0 0 1 0 1.0
phy
0 -83.7429 -31.0503 23.4565 0 0 1 0 0 1 0 1.0
0 -83.7429 31.0503 23.4565 0 0 1 0 0 1 0 1.0
0 83.7429 31.0503 23.4565 0 0 1 0 0 1 0 1.0
phy
0 -83.7429 -31.0503 23.4565 0 0 1 0 0 1 0 1.0
0 83.7429 31.0503 23.4565 0 0 1 0 0 1 0 1.0
0 83.7429 -31.0503 23.4565 0 0 1 0 0 1 0 1.0
phy
0 -83.7429 -31.0503 -23.4565 0 0 1 0 0 1 0 1.0
0 -83.7429 -31.0503 23.4565 0 0 1 0 0 1 0 1.0
0 83.7429 -31.0503 23.4565 0 0 1 0 0 1 0 1.0
phy
0 -83.7429 -31.0503 -23.4565 0 0 1 0 0 1 0 1.0
0 83.7429 -31.0503 23.4565 0 0 1 0 0 1 0 1.0
0 83.7429 -31.0503 -23.4565 0 0 1 0 0 1 0 1.0
phy
0 83.7429 31.0503 -23.4565 0 0 1 0 0 1 0 1.0
0 83.7429 31.0503 23.4565 0 0 1 0 0 1 0 1.0
0 -83.7429 31.0503 23.4565 0 0 1 0 0 1 0 1.0
phy
0 83.7429 31.0503 -23.4565 0 0 1 0 0 1 0 1.0
0 -83.7429 31.0503 23.4565 0 0 1 0 0 1 0 1.0
0 -83.7429 31.0503 -23.4565 0 0 1 0 0 1 0 1.0
phy
0 -83.7429 -31.0503 -23.4565 0 0 1 0 0 1 0 1.0
0 -83.7429 31.0503 -23.4565 0 0 1 0 0 1 0 1.0
0 -83.7429 31.0503 23.4565 0 0 1 0 0 1 0 1.0
phy
0 -83.7429 -31.0503 -23.4565 0 0 1 0 0 1 0 1.0
0 -83.7429 31.0503 23.4565 0 0 1 0 0 1 0 1.0
0 -83.7429 -31.0503 23.4565 0 0 1 0 0 1 0 1.0
phy
0 83.7429 -31.0503 -23.4565 0 0 1 0 0 1 0 1.0
0 83.7429 -31.0503 23.4565 0 0 1 0 0 1 0 1.0
0 83.7429 31.0503 23.4565 0 0 1 0 0 1 0 1.0
phy
0 83.7429 -31.0503 -23.4565 0 0 1 0 0 1 0 1.0
0 83.7429 31.0503 23.4565 0 0 1 0 0 1 0 1.0
0 83.7429 31.0503 -23.4565 0 0 1 0 0 1 0 1.0
end
