version 1
nodes
0 "v_weapon.knife_Parent" -1
1 "v_weapon.Knife_Handle" 0
2 "v_weapon" -1
3 "v_weapon.Hands_parent" 2
4 "v_weapon.Root34" 3
5 "v_weapon.Left_Arm" 4
6 "v_weapon.eff16" 5
7 "v_weapon.Root16" 6
8 "v_weapon.Left_Hand" 7
9 "v_weapon.eff2" 8
10 "v_weapon.Root17" 9
11 "v_weapon.Left_Thumb01" 10
12 "v_weapon.Left_Thumb_02" 11
13 "v_weapon.Left_Thumb03" 12
14 "v_weapon.Root18" 9
15 "v_weapon.Left_Pinky01" 14
16 "v_weapon.Left_Pinky02" 15
17 "v_weapon.Left_Pinky03" 16
18 "v_weapon.Root19" 9
19 "v_weapon.Left_Ring01" 18
20 "v_weapon.Left_Ring02" 19
21 "v_weapon.Left_Ring03" 20
22 "v_weapon.Root20" 9
23 "v_weapon.Left_Middle01" 22
24 "v_weapon.Left_Middle02" 23
25 "v_weapon.Left_Middle03" 24
26 "v_weapon.Root21" 9
27 "v_weapon.Left_Index01" 26
28 "v_weapon.Left_Index02" 27
29 "v_weapon.Left_Index03" 28
30 "v_weapon.Root99" 5
31 "v_weapon.L_wrist_helper" 30
32 "v_weapon.Root36" 3
33 "v_weapon.Right_Arm" 32
34 "v_weapon.eff18" 33
35 "v_weapon.Root23" 34
36 "v_weapon.Right_Hand" 35
37 "v_weapon.eff9" 36
38 "v_weapon.Root24" 37
39 "v_weapon.Right_Thumb01" 38
40 "v_weapon.Right_Thumb02" 39
41 "v_weapon.Right_Thumb03" 40
42 "v_weapon.Root25" 37
43 "v_weapon.Right_Index01" 42
44 "v_weapon.Right_Index02" 43
45 "v_weapon.Right_Index03" 44
46 "v_weapon.Root26" 37
47 "v_weapon.Right_Middle01" 46
48 "v_weapon.Right_Middle02" 47
49 "v_weapon.Right_Middle03" 48
50 "v_weapon.Root27" 37
51 "v_weapon.Right_Ring01" 50
52 "v_weapon.Right_Ring02" 51
53 "v_weapon.Right_Ring03" 52
54 "v_weapon.Root28" 37
55 "v_weapon.Right_Pinky01" 54
56 "v_weapon.Right_Pinky02" 55
57 "v_weapon.Right_Pinky03" 56
58 "v_weapon.Root98" 33
59 "v_weapon.R_wrist_helper" 58
60 "cast_root" 36
61 "cast_handle" 60
62 "cast_reel" 61
63 "cast_rod_lower" 61
64 "cast_rod_mid" 63
65 "cast_rod_upper" 64
66 "cast_rod_tip" 65
end
skeleton
time 0
0 -4.770313 -17.804712 -8.518756 1.570796 -0.000000 0.000000
1 4.771459 -5.564794 3.605348 -0.000128 0.087794 -1.384492
2 0.000000 -0.000002 -0.000000 1.570796 -0.000000 0.000000
3 -0.056707 0.000001 -3.094907 -0.000000 -0.000000 0.000000
4 6.833632 1.302324 6.671466 -0.825666 2.576106 -0.000002
5 1.140234 -6.856876 -7.975102 -0.745572 -0.534304 1.145938
6 0.000002 8.563282 -0.000000 -2.463579 0.000002 1.570793
7 0.000000 0.000001 -0.000000 -2.704896 -0.442717 1.336377
8 -0.000000 0.000000 0.000000 0.411487 2.092196 0.215023
9 -0.000000 3.026593 -0.000000 -2.054581 -0.000004 1.570799
10 -2.657339 -0.365571 -0.324765 -3.073150 0.182981 -0.062496
11 0.000001 0.000000 0.000001 0.276356 0.485164 -0.714807
12 -0.000001 1.887218 0.000028 0.194353 0.472346 -0.227125
13 -0.000011 1.001874 0.000004 0.295812 2.955644 -0.559961
14 -0.451692 1.213947 -0.058021 -1.434995 0.151216 0.018951
15 -0.000001 -0.000001 0.000000 0.059385 0.467012 -1.153234
16 -0.000001 0.963853 0.000000 0.013348 0.044450 -0.005489
17 0.000001 0.632001 -0.000000 0.553895 2.241784 -0.331889
18 -0.126647 0.620188 -0.039313 -1.649073 0.166160 -0.011485
19 -0.000000 0.000001 -0.000001 0.028770 0.491640 -1.321781
20 0.000000 1.208233 -0.000000 -0.121338 -0.236385 0.243805
21 0.000001 0.763065 -0.000000 0.447465 2.949254 -0.533165
22 0.000000 -0.000000 -0.000000 -1.691856 0.160586 -0.074781
23 -0.000000 -0.000001 -0.000000 0.113639 0.954374 -1.417464
24 0.000001 1.250581 -0.000000 -0.503006 -0.675705 0.620051
25 -0.000001 0.932633 -0.000000 0.432194 3.087004 -0.596076
26 -0.093760 -0.657728 0.062875 -1.705938 0.157700 -0.095658
27 -0.000000 0.000000 -0.000000 0.031726 0.055548 -1.477625
28 0.000001 1.280976 -0.000000 -0.015696 -0.035748 0.294238
29 0.000001 0.749371 -0.000001 0.493861 -3.025271 -0.462269
30 0.000002 8.563282 -0.000000 0.081751 -0.413067 -0.090180
31 -0.000001 0.000001 -0.000000 -0.000000 0.000004 -0.000000
32 -4.654183 -1.415280 6.902198 -0.825666 2.576106 -0.000002
33 0.174171 -0.127552 0.210119 -0.859552 0.745617 0.042946
34 0.000001 8.543637 0.000001 2.181800 0.000001 1.570796
35 0.000000 -0.000000 -0.000000 -1.092887 0.038490 -0.050734
36 -0.000000 0.000000 -0.000000 -0.279086 2.422941 -1.711489
37 0.000000 3.013526 -0.000000 -2.404103 -0.000001 1.570796
38 -2.659014 0.316090 -0.314420 -3.083485 0.263059 -0.047501
39 -0.000000 -0.000000 -0.000001 -1.103797 -2.198187 -1.053113
40 0.000010 1.978485 0.000005 0.856489 -0.393698 -0.603070
41 -0.000005 0.982427 -0.000004 0.141909 -0.491002 0.033579
42 -0.089258 0.659884 0.067214 1.657580 0.268134 -0.033754
43 0.498185 -0.076230 0.714166 -0.081477 0.200638 -1.945362
44 0.436936 1.230931 0.187288 0.208783 0.355209 -1.262079
45 0.000001 0.752466 -0.000000 -0.200927 0.245474 -0.490082
46 -0.000001 0.000000 0.000000 1.671850 0.269475 -0.049573
47 0.156320 0.062374 0.322259 0.028256 -0.311786 -1.946861
48 0.267133 1.267468 -0.047769 -0.337241 -0.004822 -1.761812
49 -0.003830 0.942699 -0.006340 -0.037750 -0.046925 -0.441089
50 -0.108526 -0.607961 -0.044203 1.694999 0.265808 -0.017787
51 0.006727 -0.037598 0.006616 0.086030 -0.461219 -1.908696
52 -0.026161 1.253521 0.011651 -0.440607 -0.171588 -1.616296
53 0.004096 0.748720 -0.003870 -0.115488 0.117750 -0.144179
54 -0.479803 -1.191699 -0.061833 1.597265 0.268013 0.032300
55 -0.116221 -0.348168 -0.058113 0.484837 -0.804597 -2.601364
56 -0.017177 1.079983 -0.201886 -0.520306 -0.146235 -1.050499
57 0.000000 0.614692 -0.000001 -1.044945 0.364583 -1.199274
58 0.000001 8.543637 0.000001 0.114853 -0.476246 -0.111333
59 0.000000 -0.000000 -0.000000 -0.000000 -0.000003 0.000000
60 -0.547472 -2.773967 1.266111 0.136125 2.208081 -0.203939
61 -0.000000 0.216536 0.000000 0.000694 0.000000 -0.000000
62 0.122706 11.211333 -3.790611 0.000694 -0.000000 -3.141593
63 0.000000 16.673223 0.000000 0.023432 3.141593 0.000000
64 -0.000001 15.595429 0.000001 -0.024970 0.000002 0.000211
65 -0.000001 14.075074 -0.000001 -0.015078 -0.000003 0.000170
66 0.000000 13.425272 0.000003 -0.019020 -0.000010 0.000381
time 1
0 -4.770313 -17.804712 -8.518756 1.570796 -0.000000 0.000000
1 4.771459 -5.564794 3.605348 -0.000128 0.087794 -1.384492
2 0.000000 -0.000002 -0.000000 1.570796 -0.000000 0.000000
3 -0.056707 0.000001 -3.094907 -0.000000 -0.000000 0.000000
4 6.833632 1.302324 6.671466 -0.825666 2.576106 -0.000002
5 1.140234 -6.856876 -7.975102 -0.745572 -0.534304 1.145938
6 0.000002 8.563282 -0.000000 -2.463579 0.000002 1.570793
7 0.000000 0.000001 -0.000000 -2.704896 -0.442717 1.336377
8 -0.000000 0.000000 0.000000 0.411487 2.092196 0.215023
9 -0.000000 3.026593 -0.000000 -2.054581 -0.000004 1.570799
10 -2.657339 -0.365571 -0.324765 -3.073150 0.182981 -0.062496
11 0.000001 0.000000 0.000001 0.276356 0.485164 -0.714807
12 -0.000001 1.887218 0.000028 0.194353 0.472346 -0.227125
13 -0.000011 1.001874 0.000004 0.295812 2.955644 -0.559961
14 -0.451692 1.213947 -0.058021 -1.434995 0.151216 0.018951
15 -0.000001 -0.000001 0.000000 0.059385 0.467012 -1.153234
16 -0.000001 0.963853 0.000000 0.013348 0.044450 -0.005489
17 0.000001 0.632001 -0.000000 0.553895 2.241784 -0.331889
18 -0.126647 0.620188 -0.039313 -1.649073 0.166160 -0.011485
19 -0.000000 0.000001 -0.000001 0.028770 0.491640 -1.321781
20 0.000000 1.208233 -0.000000 -0.121338 -0.236385 0.243805
21 0.000001 0.763065 -0.000000 0.447465 2.949254 -0.533165
22 0.000000 -0.000000 -0.000000 -1.691856 0.160586 -0.074781
23 -0.000000 -0.000001 -0.000000 0.113639 0.954374 -1.417464
24 0.000001 1.250581 -0.000000 -0.503006 -0.675705 0.620051
25 -0.000001 0.932633 -0.000000 0.432194 3.087004 -0.596076
26 -0.093760 -0.657728 0.062875 -1.705938 0.157700 -0.095658
27 -0.000000 0.000000 -0.000000 0.031726 0.055548 -1.477625
28 0.000001 1.280976 -0.000000 -0.015696 -0.035748 0.294238
29 0.000001 0.749371 -0.000001 0.493861 -3.025271 -0.462269
30 0.000002 8.563282 -0.000000 0.081751 -0.413067 -0.090180
31 -0.000001 0.000001 -0.000000 -0.000000 0.000004 -0.000000
32 -4.654183 -1.415280 6.902198 -0.825666 2.576106 -0.000002
33 0.577400 -0.441916 0.712464 -0.769590 0.782020 0.087103
34 0.000001 8.543636 0.000000 2.181800 0.000001 1.570796
35 0.000001 0.000000 0.000000 -1.092888 0.038490 -0.050735
36 -0.000001 -0.000000 -0.000000 -0.279086 2.422941 -1.711489
37 -0.000000 3.013525 -0.000000 -2.404103 -0.000001 1.570796
38 -2.659014 0.316090 -0.314419 -3.083485 0.263060 -0.047501
39 0.000000 -0.000000 -0.000000 -1.103796 -2.198188 -1.053114
40 0.000009 1.978485 0.000005 0.856489 -0.393698 -0.603070
41 -0.000005 0.982428 -0.000005 0.141909 -0.491002 0.033579
42 -0.089256 0.659884 0.067214 1.657580 0.268134 -0.033754
43 0.498184 -0.076229 0.714166 -0.081477 0.200638 -1.945362
44 0.436933 1.230933 0.187288 0.208783 0.355209 -1.262079
45 0.000001 0.752466 0.000000 -0.200927 0.245474 -0.490082
46 0.000002 0.000000 0.000000 1.671850 0.269476 -0.049573
47 0.156321 0.062374 0.322259 0.028256 -0.311786 -1.946861
48 0.359611 1.230327 -0.081330 -0.340308 -0.009492 -1.771761
49 -0.014228 0.941250 -0.023549 -0.037750 -0.046925 -0.441089
50 -0.108524 -0.607961 -0.044203 1.694999 0.265808 -0.017787
51 0.006729 -0.037598 0.006616 0.086030 -0.461219 -1.908696
52 0.058471 1.212325 -0.031999 -0.444181 -0.176932 -1.625147
53 0.015211 0.767115 -0.014374 -0.115488 0.117750 -0.144179
54 -0.479802 -1.191699 -0.061833 1.597265 0.268013 0.032300
55 -0.116221 -0.348168 -0.058113 0.484837 -0.804598 -2.601365
56 -0.013757 1.044130 -0.297572 -0.520306 -0.146235 -1.050500
57 -0.000001 0.614692 -0.000000 -1.044945 0.364583 -1.199274
58 0.000001 8.543636 0.000000 0.114853 -0.476246 -0.111333
59 -0.000000 0.000001 -0.000000 -0.000000 -0.000003 -0.000000
60 -0.547472 -2.773967 1.266111 0.136125 2.208081 -0.203939
61 0.000000 0.216538 0.000001 0.000694 0.000000 0.000000
62 0.122706 11.211333 -3.790611 0.000694 -0.000000 -3.141593
63 0.000000 16.673229 0.000002 0.023432 3.141593 -0.000000
64 -0.000000 15.595433 -0.000000 -0.031004 0.000009 0.000782
65 -0.000001 14.075072 -0.000003 -0.019941 -0.000008 0.000631
66 0.000000 13.425277 0.000003 -0.029954 -0.000031 0.001417
time 2
0 -4.770313 -17.804712 -8.518756 1.570796 -0.000000 0.000000
1 4.771459 -5.564794 3.605348 -0.000128 0.087794 -1.384492
2 0.000000 -0.000002 -0.000000 1.570796 -0.000000 0.000000
3 -0.056707 0.000001 -3.094907 -0.000000 -0.000000 0.000000
4 6.833632 1.302324 6.671466 -0.825666 2.576106 -0.000002
5 1.140234 -6.856876 -7.975102 -0.745572 -0.534304 1.145938
6 0.000002 8.563282 -0.000000 -2.463579 0.000002 1.570793
7 0.000000 0.000001 -0.000000 -2.704896 -0.442717 1.336377
8 -0.000000 0.000000 0.000000 0.411487 2.092196 0.215023
9 -0.000000 3.026593 -0.000000 -2.054581 -0.000004 1.570799
10 -2.657339 -0.365571 -0.324765 -3.073150 0.182981 -0.062496
11 0.000001 0.000000 0.000001 0.276356 0.485164 -0.714807
12 -0.000001 1.887218 0.000028 0.194353 0.472346 -0.227125
13 -0.000011 1.001874 0.000004 0.295812 2.955644 -0.559961
14 -0.451692 1.213947 -0.058021 -1.434995 0.151216 0.018951
15 -0.000001 -0.000001 0.000000 0.059385 0.467012 -1.153234
16 -0.000001 0.963853 0.000000 0.013348 0.044450 -0.005489
17 0.000001 0.632001 -0.000000 0.553895 2.241784 -0.331889
18 -0.126647 0.620188 -0.039313 -1.649073 0.166160 -0.011485
19 -0.000000 0.000001 -0.000001 0.028770 0.491640 -1.321781
20 0.000000 1.208233 -0.000000 -0.121338 -0.236385 0.243805
21 0.000001 0.763065 -0.000000 0.447465 2.949254 -0.533165
22 0.000000 -0.000000 -0.000000 -1.691856 0.160586 -0.074781
23 -0.000000 -0.000001 -0.000000 0.113639 0.954374 -1.417464
24 0.000001 1.250581 -0.000000 -0.503006 -0.675705 0.620051
25 -0.000001 0.932633 -0.000000 0.432194 3.087004 -0.596076
26 -0.093760 -0.657728 0.062875 -1.705938 0.157700 -0.095658
27 -0.000000 0.000000 -0.000000 0.031726 0.055548 -1.477625
28 0.000001 1.280976 -0.000000 -0.015696 -0.035748 0.294238
29 0.000001 0.749371 -0.000001 0.493861 -3.025271 -0.462269
30 0.000002 8.563282 -0.000000 0.081751 -0.413067 -0.090180
31 -0.000001 0.000001 -0.000000 -0.000000 0.000004 -0.000000
32 -4.654183 -1.415280 6.902198 -0.825666 2.576106 -0.000002
33 1.030760 -0.840651 1.315013 -0.644706 0.821250 0.149741
34 -0.000000 8.543635 0.000000 2.181800 0.000001 1.570796
35 -0.000000 -0.000000 0.000000 -1.092888 0.038490 -0.050735
36 -0.000001 0.000000 0.000000 -0.279086 2.422941 -1.711489
37 -0.000000 3.013526 0.000000 -2.404103 -0.000001 1.570796
38 -2.659014 0.316090 -0.314420 -3.083494 0.263051 -0.047500
39 0.000000 -0.000000 -0.000000 -1.103815 -2.198175 -1.053093
40 0.000010 1.978486 0.000005 0.856489 -0.393698 -0.603070
41 -0.000005 0.982429 -0.000004 0.141909 -0.491003 0.033579
42 -0.089258 0.659884 0.067213 1.657580 0.268134 -0.033754
43 0.498186 -0.076230 0.714166 -0.081477 0.200638 -1.945362
44 0.436933 1.230932 0.187288 0.208783 0.355209 -1.262079
45 0.000001 0.752467 0.000000 -0.200927 0.245474 -0.490082
46 -0.000000 0.000000 -0.000000 1.671850 0.269475 -0.049573
47 0.156321 0.062373 0.322259 0.028256 -0.311786 -1.946862
48 0.495897 1.175593 -0.130785 -0.344745 -0.016432 -1.786404
49 -0.029551 0.939114 -0.048909 -0.037750 -0.046925 -0.441089
50 -0.108526 -0.607961 -0.044204 1.694999 0.265808 -0.017787
51 0.006729 -0.037597 0.006616 0.086030 -0.461219 -1.908696
52 0.183194 1.151614 -0.096325 -0.449369 -0.184867 -1.638176
53 0.031593 0.794223 -0.029853 -0.115488 0.117750 -0.144179
54 -0.479803 -1.191699 -0.061834 1.597265 0.268013 0.032300
55 -0.116220 -0.348169 -0.058113 0.484837 -0.804598 -2.601365
56 -0.008714 0.991295 -0.438582 -0.520306 -0.146235 -1.050499
57 -0.000001 0.614692 0.000000 -1.044945 0.364583 -1.199274
58 -0.000000 8.543635 0.000000 0.114853 -0.476246 -0.111333
59 -0.000000 0.000001 0.000000 0.000000 -0.000003 -0.000000
60 -0.547472 -2.773967 1.266111 0.136125 2.208081 -0.203939
61 0.000000 0.216537 0.000001 0.000694 0.000000 -0.000000
62 0.122706 11.211333 -3.790611 0.000694 -0.000000 -3.141593
63 0.000000 16.673229 0.000001 0.023432 3.141593 0.000000
64 -0.000000 15.595428 -0.000001 -0.039897 0.000025 0.001625
65 0.000000 14.075070 -0.000002 -0.027109 -0.000012 0.001310
66 -0.000000 13.425278 -0.000003 -0.046073 -0.000041 0.002944
time 3
0 -4.770313 -17.804712 -8.518756 1.570796 -0.000000 0.000000
1 4.771459 -5.564794 3.605348 -0.000128 0.087794 -1.384492
2 0.000000 -0.000002 -0.000000 1.570796 -0.000000 0.000000
3 -0.056707 0.000001 -3.094907 -0.000000 -0.000000 0.000000
4 6.833632 1.302324 6.671466 -0.825666 2.576106 -0.000002
5 1.140234 -6.856876 -7.975102 -0.745572 -0.534304 1.145938
6 0.000002 8.563282 -0.000000 -2.463579 0.000002 1.570793
7 0.000000 0.000001 -0.000000 -2.704896 -0.442717 1.336377
8 -0.000000 0.000000 0.000000 0.411487 2.092196 0.215023
9 -0.000000 3.026593 -0.000000 -2.054581 -0.000004 1.570799
10 -2.657339 -0.365571 -0.324765 -3.073150 0.182981 -0.062496
11 0.000001 0.000000 0.000001 0.276356 0.485164 -0.714807
12 -0.000001 1.887218 0.000028 0.194353 0.472346 -0.227125
13 -0.000011 1.001874 0.000004 0.295812 2.955644 -0.559961
14 -0.451692 1.213947 -0.058021 -1.434995 0.151216 0.018951
15 -0.000001 -0.000001 0.000000 0.059385 0.467012 -1.153234
16 -0.000001 0.963853 0.000000 0.013348 0.044450 -0.005489
17 0.000001 0.632001 -0.000000 0.553895 2.241784 -0.331889
18 -0.126647 0.620188 -0.039313 -1.649073 0.166160 -0.011485
19 -0.000000 0.000001 -0.000001 0.028770 0.491640 -1.321781
20 0.000000 1.208233 -0.000000 -0.121338 -0.236385 0.243805
21 0.000001 0.763065 -0.000000 0.447465 2.949254 -0.533165
22 0.000000 -0.000000 -0.000000 -1.691856 0.160586 -0.074781
23 -0.000000 -0.000001 -0.000000 0.113639 0.954374 -1.417464
24 0.000001 1.250581 -0.000000 -0.503006 -0.675705 0.620051
25 -0.000001 0.932633 -0.000000 0.432194 3.087004 -0.596076
26 -0.093760 -0.657728 0.062875 -1.705938 0.157700 -0.095658
27 -0.000000 0.000000 -0.000000 0.031726 0.055548 -1.477625
28 0.000001 1.280976 -0.000000 -0.015696 -0.035748 0.294238
29 0.000001 0.749371 -0.000001 0.493861 -3.025271 -0.462269
30 0.000002 8.563282 -0.000000 0.081751 -0.413067 -0.090180
31 -0.000001 0.000001 -0.000000 -0.000000 0.000004 -0.000000
32 -4.654183 -1.415280 6.902198 -0.825666 2.576106 -0.000002
33 1.355321 -1.221315 1.825745 -0.513599 0.848587 0.213106
34 0.000000 8.543637 0.000000 2.181800 0.000001 1.570796
35 0.000000 0.000000 0.000000 -1.092887 0.038489 -0.050734
36 -0.000001 0.000000 -0.000000 -0.279086 2.422941 -1.711488
37 0.000000 3.013525 0.000000 -2.404103 -0.000001 1.570796
38 -2.659015 0.316090 -0.314420 -3.083494 0.263052 -0.047499
39 -0.000000 -0.000000 0.000000 -1.103813 -2.198175 -1.053094
40 0.000010 1.978486 0.000005 0.856490 -0.393698 -0.603070
41 -0.000005 0.982428 -0.000004 0.141909 -0.491003 0.033579
42 -0.089258 0.659885 0.067214 1.657580 0.268134 -0.033754
43 0.498184 -0.076230 0.714166 -0.081477 0.200638 -1.945362
44 0.436935 1.230933 0.187289 0.208783 0.355209 -1.262079
45 0.000002 0.752467 -0.000000 -0.200927 0.245474 -0.490082
46 -0.000000 -0.000000 0.000000 1.671850 0.269475 -0.049573
47 0.156321 0.062374 0.322260 0.028257 -0.311786 -1.946861
48 0.661386 1.109132 -0.190841 -0.349998 -0.024949 -1.804152
49 -0.048157 0.936520 -0.079704 -0.037750 -0.046925 -0.441089
50 -0.108526 -0.607961 -0.044204 1.694999 0.265808 -0.017787
51 0.006728 -0.037597 0.006616 0.086030 -0.461219 -1.908696
52 0.334641 1.077898 -0.174435 -0.455539 -0.194593 -1.653972
53 0.051483 0.827140 -0.048650 -0.115488 0.117750 -0.144179
54 -0.479802 -1.191699 -0.061834 1.597265 0.268012 0.032300
55 -0.116220 -0.348169 -0.058112 0.484837 -0.804598 -2.601365
56 -0.002592 0.927140 -0.609810 -0.520306 -0.146235 -1.050499
57 0.000000 0.614692 -0.000001 -1.044945 0.364583 -1.199274
58 0.000000 8.543637 0.000000 0.114853 -0.476246 -0.111333
59 -0.000000 -0.000001 0.000000 -0.000000 -0.000003 -0.000000
60 -0.547472 -2.773967 1.266111 0.136125 2.208081 -0.203939
61 -0.000000 0.216536 0.000000 0.000694 -0.000000 -0.000000
62 0.122706 11.211333 -3.790611 0.000694 -0.000000 -3.141593
63 -0.000000 16.673229 0.000002 0.023432 3.141593 0.000000
64 0.000000 15.595432 -0.000002 -0.050697 0.000055 0.002648
65 0.000000 14.075071 0.000004 -0.035814 -0.000010 0.002134
66 -0.000000 13.425273 -0.000003 -0.065654 -0.000019 0.004800
time 4
0 -4.770313 -17.804712 -8.518756 1.570796 -0.000000 0.000000
1 4.771459 -5.564794 3.605348 -0.000128 0.087794 -1.384492
2 0.000000 -0.000002 -0.000000 1.570796 -0.000000 0.000000
3 -0.056707 0.000001 -3.094907 -0.000000 -0.000000 0.000000
4 6.833632 1.302324 6.671466 -0.825666 2.576106 -0.000002
5 1.140234 -6.856876 -7.975102 -0.745572 -0.534304 1.145938
6 0.000002 8.563282 -0.000000 -2.463579 0.000002 1.570793
7 0.000000 0.000001 -0.000000 -2.704896 -0.442717 1.336377
8 -0.000000 0.000000 0.000000 0.411487 2.092196 0.215023
9 -0.000000 3.026593 -0.000000 -2.054581 -0.000004 1.570799
10 -2.657339 -0.365571 -0.324765 -3.073150 0.182981 -0.062496
11 0.000001 0.000000 0.000001 0.276356 0.485164 -0.714807
12 -0.000001 1.887218 0.000028 0.194353 0.472346 -0.227125
13 -0.000011 1.001874 0.000004 0.295812 2.955644 -0.559961
14 -0.451692 1.213947 -0.058021 -1.434995 0.151216 0.018951
15 -0.000001 -0.000001 0.000000 0.059385 0.467012 -1.153234
16 -0.000001 0.963853 0.000000 0.013348 0.044450 -0.005489
17 0.000001 0.632001 -0.000000 0.553895 2.241784 -0.331889
18 -0.126647 0.620188 -0.039313 -1.649073 0.166160 -0.011485
19 -0.000000 0.000001 -0.000001 0.028770 0.491640 -1.321781
20 0.000000 1.208233 -0.000000 -0.121338 -0.236385 0.243805
21 0.000001 0.763065 -0.000000 0.447465 2.949254 -0.533165
22 0.000000 -0.000000 -0.000000 -1.691856 0.160586 -0.074781
23 -0.000000 -0.000001 -0.000000 0.113639 0.954374 -1.417464
24 0.000001 1.250581 -0.000000 -0.503006 -0.675705 0.620051
25 -0.000001 0.932633 -0.000000 0.432194 3.087004 -0.596076
26 -0.093760 -0.657728 0.062875 -1.705938 0.157700 -0.095658
27 -0.000000 0.000000 -0.000000 0.031726 0.055548 -1.477625
28 0.000001 1.280976 -0.000000 -0.015696 -0.035748 0.294238
29 0.000001 0.749371 -0.000001 0.493861 -3.025271 -0.462269
30 0.000002 8.563282 -0.000000 0.081751 -0.413067 -0.090180
31 -0.000001 0.000001 -0.000000 -0.000000 0.000004 -0.000000
32 -4.654183 -1.415280 6.902198 -0.825666 2.576106 -0.000002
33 1.457666 -1.467289 2.134614 -0.409120 0.858351 0.254653
34 0.000001 8.543638 0.000000 2.181800 0.000001 1.570796
35 0.000000 -0.000000 0.000000 -1.092887 0.038489 -0.050735
36 -0.000000 -0.000000 -0.000000 -0.279086 2.422941 -1.711488
37 0.000000 3.013528 -0.000001 -2.404103 -0.000001 1.570796
38 -2.659015 0.316090 -0.314420 -3.083493 0.263052 -0.047499
39 -0.000002 -0.000001 -0.000000 -1.103813 -2.198175 -1.053095
40 0.000010 1.978485 0.000007 0.856490 -0.393698 -0.603070
41 -0.000005 0.982429 -0.000005 0.141909 -0.491003 0.033579
42 -0.089257 0.659884 0.067214 1.657580 0.268134 -0.033754
43 0.498184 -0.076229 0.714166 -0.081477 0.200638 -1.945362
44 0.436934 1.230933 0.187288 0.208783 0.355209 -1.262079
45 -0.000001 0.752466 0.000000 -0.200927 0.245474 -0.490082
46 -0.000000 -0.000000 0.000000 1.671850 0.269476 -0.049573
47 0.156320 0.062374 0.322260 0.028257 -0.311786 -1.946862
48 0.841479 1.036804 -0.256195 -0.355544 -0.034323 -1.823425
49 -0.068404 0.933698 -0.113215 -0.037750 -0.046925 -0.441089
50 -0.108525 -0.607961 -0.044203 1.694999 0.265808 -0.017787
51 0.006729 -0.037598 0.006616 0.086030 -0.461219 -1.908696
52 0.499451 0.997676 -0.259438 -0.462090 -0.205288 -1.671133
53 0.073130 0.862964 -0.069104 -0.115488 0.117750 -0.144179
54 -0.479804 -1.191699 -0.061833 1.597265 0.268013 0.032300
55 -0.116220 -0.348168 -0.058113 0.484837 -0.804598 -2.601364
56 0.004072 0.857322 -0.796145 -0.520306 -0.146235 -1.050499
57 0.000000 0.614693 -0.000001 -1.044945 0.364583 -1.199274
58 0.000001 8.543638 0.000000 0.114853 -0.476246 -0.111333
59 0.000000 -0.000002 -0.000000 0.000000 -0.000003 -0.000000
60 -0.547472 -2.773967 1.266111 0.136125 2.208081 -0.203939
61 0.000000 0.216536 0.000002 0.000694 0.000000 -0.000000
62 0.122706 11.211333 -3.790611 0.000694 -0.000000 -3.141593
63 -0.000000 16.673231 -0.000000 0.023432 3.141593 -0.000000
64 0.000001 15.595431 -0.000006 -0.062450 0.000100 0.003760
65 0.000000 14.075068 -0.000000 -0.045288 -0.000000 0.003032
66 0.000000 13.425278 0.000005 -0.086966 0.000046 0.006818
time 5
0 -4.770313 -17.804712 -8.518756 1.570796 -0.000000 0.000000
1 4.771459 -5.564794 3.605348 -0.000128 0.087794 -1.384492
2 0.000000 -0.000002 -0.000000 1.570796 -0.000000 0.000000
3 -0.056707 0.000001 -3.094907 -0.000000 -0.000000 0.000000
4 6.833632 1.302324 6.671466 -0.825666 2.576106 -0.000002
5 1.140234 -6.856876 -7.975102 -0.745572 -0.534304 1.145938
6 0.000002 8.563282 -0.000000 -2.463579 0.000002 1.570793
7 0.000000 0.000001 -0.000000 -2.704896 -0.442717 1.336377
8 -0.000000 0.000000 0.000000 0.411487 2.092196 0.215023
9 -0.000000 3.026593 -0.000000 -2.054581 -0.000004 1.570799
10 -2.657339 -0.365571 -0.324765 -3.073150 0.182981 -0.062496
11 0.000001 0.000000 0.000001 0.276356 0.485164 -0.714807
12 -0.000001 1.887218 0.000028 0.194353 0.472346 -0.227125
13 -0.000011 1.001874 0.000004 0.295812 2.955644 -0.559961
14 -0.451692 1.213947 -0.058021 -1.434995 0.151216 0.018951
15 -0.000001 -0.000001 0.000000 0.059385 0.467012 -1.153234
16 -0.000001 0.963853 0.000000 0.013348 0.044450 -0.005489
17 0.000001 0.632001 -0.000000 0.553895 2.241784 -0.331889
18 -0.126647 0.620188 -0.039313 -1.649073 0.166160 -0.011485
19 -0.000000 0.000001 -0.000001 0.028770 0.491640 -1.321781
20 0.000000 1.208233 -0.000000 -0.121338 -0.236385 0.243805
21 0.000001 0.763065 -0.000000 0.447465 2.949254 -0.533165
22 0.000000 -0.000000 -0.000000 -1.691856 0.160586 -0.074781
23 -0.000000 -0.000001 -0.000000 0.113639 0.954374 -1.417464
24 0.000001 1.250581 -0.000000 -0.503006 -0.675705 0.620051
25 -0.000001 0.932633 -0.000000 0.432194 3.087004 -0.596076
26 -0.093760 -0.657728 0.062875 -1.705938 0.157700 -0.095658
27 -0.000000 0.000000 -0.000000 0.031726 0.055548 -1.477625
28 0.000001 1.280976 -0.000000 -0.015696 -0.035748 0.294238
29 0.000001 0.749371 -0.000001 0.493861 -3.025271 -0.462269
30 0.000002 8.563282 -0.000000 0.081751 -0.413067 -0.090180
31 -0.000001 0.000001 -0.000000 -0.000000 0.000004 -0.000000
32 -4.654183 -1.415280 6.902198 -0.825666 2.576106 -0.000002
33 1.429635 -1.586539 2.278876 -0.343945 0.858165 0.273176
34 0.000001 8.543638 0.000000 2.181800 0.000001 1.570796
35 -0.000000 -0.000000 -0.000000 -1.092887 0.038489 -0.050734
36 0.000000 -0.000000 0.000000 -0.279085 2.422941 -1.711488
37 -0.000001 3.013529 0.000000 -2.404103 -0.000002 1.570796
38 -2.659015 0.316089 -0.314420 -3.083493 0.263053 -0.047499
39 0.000000 -0.000000 0.000001 -1.103812 -2.198175 -1.053095
40 0.000010 1.978486 0.000006 0.856490 -0.393698 -0.603071
41 -0.000005 0.982428 -0.000004 0.141909 -0.491002 0.033579
42 -0.089259 0.659884 0.067214 1.657580 0.268134 -0.033754
43 0.498185 -0.076230 0.714166 -0.081477 0.200638 -1.945362
44 0.436935 1.230933 0.187288 0.208783 0.355209 -1.262079
45 0.000001 0.752466 0.000000 -0.200927 0.245474 -0.490082
46 -0.000001 0.000000 -0.000000 1.671850 0.269475 -0.049573
47 0.156321 0.062373 0.322260 0.028256 -0.311786 -1.946862
48 1.021568 0.964476 -0.321550 -0.360911 -0.043803 -1.842653
49 -0.088652 0.930875 -0.146727 -0.037750 -0.046925 -0.441089
50 -0.108527 -0.607961 -0.044203 1.694999 0.265808 -0.017787
51 0.006727 -0.037598 0.006616 0.086030 -0.461219 -1.908696
52 0.664261 0.917453 -0.344439 -0.468467 -0.216091 -1.688261
53 0.094779 0.898786 -0.089559 -0.115488 0.117750 -0.144179
54 -0.479804 -1.191700 -0.061833 1.597265 0.268013 0.032300
55 -0.116221 -0.348168 -0.058112 0.484837 -0.804598 -2.601365
56 0.010733 0.787505 -0.982481 -0.520306 -0.146235 -1.050499
57 0.000000 0.614692 -0.000001 -1.044945 0.364583 -1.199274
58 0.000001 8.543638 0.000000 0.114853 -0.476246 -0.111333
59 0.000000 -0.000001 -0.000000 0.000000 -0.000003 -0.000000
60 -0.547472 -2.773967 1.266111 0.136125 2.208081 -0.203939
61 0.000000 0.216536 0.000001 0.000694 -0.000000 -0.000000
62 0.122706 11.211333 -3.790611 0.000694 -0.000000 -3.141593
63 -0.000000 16.673231 0.000001 0.023432 3.141593 0.000000
64 -0.000000 15.595432 -0.000002 -0.074203 0.000158 0.004872
65 0.000000 14.075076 0.000001 -0.054761 0.000019 0.003929
66 0.000000 13.425263 -0.000001 -0.108279 0.000153 0.008834
time 6
0 -4.770313 -17.804712 -8.518756 1.570796 -0.000000 0.000000
1 4.771459 -5.564794 3.605348 -0.000128 0.087794 -1.384492
2 0.000000 -0.000002 -0.000000 1.570796 -0.000000 0.000000
3 -0.056707 0.000001 -3.094907 -0.000000 -0.000000 0.000000
4 6.833632 1.302324 6.671466 -0.825666 2.576106 -0.000002
5 1.140234 -6.856876 -7.975102 -0.745572 -0.534304 1.145938
6 0.000002 8.563282 -0.000000 -2.463579 0.000002 1.570793
7 0.000000 0.000001 -0.000000 -2.704896 -0.442717 1.336377
8 -0.000000 0.000000 0.000000 0.411487 2.092196 0.215023
9 -0.000000 3.026593 -0.000000 -2.054581 -0.000004 1.570799
10 -2.657339 -0.365571 -0.324765 -3.073150 0.182981 -0.062496
11 0.000001 0.000000 0.000001 0.276356 0.485164 -0.714807
12 -0.000001 1.887218 0.000028 0.194353 0.472346 -0.227125
13 -0.000011 1.001874 0.000004 0.295812 2.955644 -0.559961
14 -0.451692 1.213947 -0.058021 -1.434995 0.151216 0.018951
15 -0.000001 -0.000001 0.000000 0.059385 0.467012 -1.153234
16 -0.000001 0.963853 0.000000 0.013348 0.044450 -0.005489
17 0.000001 0.632001 -0.000000 0.553895 2.241784 -0.331889
18 -0.126647 0.620188 -0.039313 -1.649073 0.166160 -0.011485
19 -0.000000 0.000001 -0.000001 0.028770 0.491640 -1.321781
20 0.000000 1.208233 -0.000000 -0.121338 -0.236385 0.243805
21 0.000001 0.763065 -0.000000 0.447465 2.949254 -0.533165
22 0.000000 -0.000000 -0.000000 -1.691856 0.160586 -0.074781
23 -0.000000 -0.000001 -0.000000 0.113639 0.954374 -1.417464
24 0.000001 1.250581 -0.000000 -0.503006 -0.675705 0.620051
25 -0.000001 0.932633 -0.000000 0.432194 3.087004 -0.596076
26 -0.093760 -0.657728 0.062875 -1.705938 0.157700 -0.095658
27 -0.000000 0.000000 -0.000000 0.031726 0.055548 -1.477625
28 0.000001 1.280976 -0.000000 -0.015696 -0.035748 0.294238
29 0.000001 0.749371 -0.000001 0.493861 -3.025271 -0.462269
30 0.000002 8.563282 -0.000000 0.081751 -0.413067 -0.090180
31 -0.000001 0.000001 -0.000000 -0.000000 0.000004 -0.000000
32 -4.654183 -1.415280 6.902198 -0.825666 2.576106 -0.000002
33 1.370190 -1.663508 2.287459 -0.321369 0.855912 0.277673
34 0.000001 8.543638 -0.000000 2.181800 0.000001 1.570796
35 0.000000 0.000000 0.000000 -1.092887 0.038489 -0.050735
36 -0.000001 -0.000000 0.000000 -0.279086 2.422941 -1.711488
37 0.000000 3.013526 -0.000000 -2.404103 -0.000001 1.570796
38 -2.659013 0.316090 -0.314419 -3.083493 0.263053 -0.047499
39 0.000000 0.000000 -0.000001 -1.103812 -2.198176 -1.053095
40 0.000010 1.978486 0.000007 0.856490 -0.393698 -0.603071
41 -0.000006 0.982429 -0.000004 0.141910 -0.491002 0.033579
42 -0.089256 0.659884 0.067214 1.657580 0.268134 -0.033754
43 0.498184 -0.076230 0.714165 -0.081478 0.200638 -1.945362
44 0.436934 1.230932 0.187289 0.208783 0.355209 -1.262078
45 -0.000000 0.752465 -0.000000 -0.200927 0.245474 -0.490082
46 0.000002 0.000000 0.000000 1.671850 0.269475 -0.049573
47 0.156321 0.062374 0.322259 0.028257 -0.311786 -1.946862
48 1.187058 0.898011 -0.381603 -0.365681 -0.052601 -1.860280
49 -0.107258 0.928279 -0.177522 -0.037750 -0.046925 -0.441089
50 -0.108524 -0.607962 -0.044203 1.694999 0.265808 -0.017787
51 0.006729 -0.037598 0.006616 0.086030 -0.461219 -1.908696
52 0.815709 0.843734 -0.422549 -0.474172 -0.226109 -1.703970
53 0.114670 0.931703 -0.108356 -0.115488 0.117750 -0.144179
54 -0.479801 -1.191700 -0.061833 1.597265 0.268013 0.032300
55 -0.116220 -0.348168 -0.058113 0.484837 -0.804598 -2.601364
56 0.016856 0.723350 -1.153708 -0.520306 -0.146235 -1.050499
57 -0.000001 0.614692 -0.000000 -1.044945 0.364583 -1.199274
58 0.000001 8.543638 -0.000000 0.114853 -0.476246 -0.111333
59 -0.000000 -0.000001 0.000000 0.000000 -0.000003 -0.000000
60 -0.547472 -2.773967 1.266111 0.136125 2.208081 -0.203939
61 -0.000000 0.216536 -0.000001 0.000694 0.000000 -0.000000
62 0.122706 11.211333 -3.790611 0.000694 -0.000000 -3.141593
63 -0.000000 16.673233 -0.000000 0.023432 3.141593 0.000000
64 0.000000 15.595427 -0.000003 -0.085003 0.000223 0.005894
65 0.000000 14.075065 -0.000001 -0.063466 0.000043 0.004754
66 -0.000000 13.425274 -0.000002 -0.127859 0.000290 0.010684
time 7
0 -4.770313 -17.804712 -8.518756 1.570796 -0.000000 0.000000
1 4.771459 -5.564794 3.605348 -0.000128 0.087794 -1.384492
2 0.000000 -0.000002 -0.000000 1.570796 -0.000000 0.000000
3 -0.056707 0.000001 -3.094907 -0.000000 -0.000000 0.000000
4 6.833632 1.302324 6.671466 -0.825666 2.576106 -0.000002
5 1.140234 -6.856876 -7.975102 -0.745572 -0.534304 1.145938
6 0.000002 8.563282 -0.000000 -2.463579 0.000002 1.570793
7 0.000000 0.000001 -0.000000 -2.704896 -0.442717 1.336377
8 -0.000000 0.000000 0.000000 0.411487 2.092196 0.215023
9 -0.000000 3.026593 -0.000000 -2.054581 -0.000004 1.570799
10 -2.657339 -0.365571 -0.324765 -3.073150 0.182981 -0.062496
11 0.000001 0.000000 0.000001 0.276356 0.485164 -0.714807
12 -0.000001 1.887218 0.000028 0.194353 0.472346 -0.227125
13 -0.000011 1.001874 0.000004 0.295812 2.955644 -0.559961
14 -0.451692 1.213947 -0.058021 -1.434995 0.151216 0.018951
15 -0.000001 -0.000001 0.000000 0.059385 0.467012 -1.153234
16 -0.000001 0.963853 0.000000 0.013348 0.044450 -0.005489
17 0.000001 0.632001 -0.000000 0.553895 2.241784 -0.331889
18 -0.126647 0.620188 -0.039313 -1.649073 0.166160 -0.011485
19 -0.000000 0.000001 -0.000001 0.028770 0.491640 -1.321781
20 0.000000 1.208233 -0.000000 -0.121338 -0.236385 0.243805
21 0.000001 0.763065 -0.000000 0.447465 2.949254 -0.533165
22 0.000000 -0.000000 -0.000000 -1.691856 0.160586 -0.074781
23 -0.000000 -0.000001 -0.000000 0.113639 0.954374 -1.417464
24 0.000001 1.250581 -0.000000 -0.503006 -0.675705 0.620051
25 -0.000001 0.932633 -0.000000 0.432194 3.087004 -0.596076
26 -0.093760 -0.657728 0.062875 -1.705938 0.157700 -0.095658
27 -0.000000 0.000000 -0.000000 0.031726 0.055548 -1.477625
28 0.000001 1.280976 -0.000000 -0.015696 -0.035748 0.294238
29 0.000001 0.749371 -0.000001 0.493861 -3.025271 -0.462269
30 0.000002 8.563282 -0.000000 0.081751 -0.413067 -0.090180
31 -0.000001 0.000001 -0.000000 -0.000000 0.000004 -0.000000
32 -4.654183 -1.415280 6.902198 -0.825666 2.576106 -0.000002
33 0.996216 -1.269551 1.672364 -0.346030 0.851498 0.265004
34 0.000000 8.543638 0.000001 2.181800 0.000001 1.570796
35 -0.000000 -0.000000 -0.000001 -1.092887 0.038489 -0.050735
36 -0.000000 0.000000 0.000000 -0.279086 2.422941 -1.711488
37 -0.000001 3.013527 0.000000 -2.404103 -0.000001 1.570796
38 -2.659014 0.316091 -0.314420 -3.083493 0.263053 -0.047499
39 0.000000 0.000000 -0.000000 -1.103812 -2.198176 -1.053095
40 0.000010 1.978486 0.000006 0.856490 -0.393698 -0.603070
41 -0.000004 0.982430 -0.000004 0.141909 -0.491003 0.033579
42 -0.089257 0.659884 0.067213 1.657580 0.268134 -0.033754
43 0.498184 -0.076230 0.714166 -0.081477 0.200638 -1.945362
44 0.436935 1.230931 0.187288 0.208783 0.355209 -1.262079
45 -0.000000 0.752466 0.000000 -0.200927 0.245474 -0.490082
46 0.000001 0.000001 -0.000000 1.671850 0.269475 -0.049573
47 0.156323 0.062374 0.322260 0.028257 -0.311785 -1.946862
48 1.323344 0.843277 -0.431060 -0.369493 -0.059906 -1.874766
49 -0.122581 0.926144 -0.202881 -0.037750 -0.046925 -0.441089
50 -0.108525 -0.607961 -0.044203 1.694999 0.265808 -0.017787
51 0.006729 -0.037598 0.006616 0.086030 -0.461219 -1.908696
52 0.940430 0.783025 -0.486876 -0.478756 -0.234421 -1.716886
53 0.131052 0.958812 -0.123835 -0.115488 0.117750 -0.144179
54 -0.479803 -1.191698 -0.061834 1.597265 0.268013 0.032300
55 -0.116220 -0.348168 -0.058113 0.484837 -0.804598 -2.601365
56 0.021898 0.670515 -1.294718 -0.520306 -0.146235 -1.050499
57 0.000000 0.614692 -0.000000 -1.044945 0.364583 -1.199274
58 0.000000 8.543638 0.000001 0.114853 -0.476246 -0.111333
59 0.000000 -0.000001 -0.000000 0.000000 -0.000003 -0.000000
60 -0.547472 -2.773967 1.266111 0.136125 2.208081 -0.203939
61 0.000000 0.216536 0.000001 0.000694 -0.000000 -0.000000
62 0.122706 11.211333 -3.790611 0.000694 -0.000000 -3.141593
63 -0.000000 16.673229 0.000001 0.023432 3.141593 0.000000
64 -0.000000 15.595431 -0.000002 -0.093896 0.000285 0.006734
65 0.000000 14.075074 -0.000002 -0.070634 0.000069 0.005432
66 -0.000000 13.425265 -0.000003 -0.143978 0.000430 0.012205
time 8
0 -4.770313 -17.804712 -8.518756 1.570796 -0.000000 0.000000
1 4.771459 -5.564794 3.605348 -0.000128 0.087794 -1.384492
2 0.000000 -0.000002 -0.000000 1.570796 -0.000000 0.000000
3 -0.056707 0.000001 -3.094907 -0.000000 -0.000000 0.000000
4 6.833632 1.302324 6.671466 -0.825666 2.576106 -0.000002
5 1.140234 -6.856876 -7.975102 -0.745572 -0.534304 1.145938
6 0.000002 8.563282 -0.000000 -2.463579 0.000002 1.570793
7 0.000000 0.000001 -0.000000 -2.704896 -0.442717 1.336377
8 -0.000000 0.000000 0.000000 0.411487 2.092196 0.215023
9 -0.000000 3.026593 -0.000000 -2.054581 -0.000004 1.570799
10 -2.657339 -0.365571 -0.324765 -3.073150 0.182981 -0.062496
11 0.000001 0.000000 0.000001 0.276356 0.485164 -0.714807
12 -0.000001 1.887218 0.000028 0.194353 0.472346 -0.227125
13 -0.000011 1.001874 0.000004 0.295812 2.955644 -0.559961
14 -0.451692 1.213947 -0.058021 -1.434995 0.151216 0.018951
15 -0.000001 -0.000001 0.000000 0.059385 0.467012 -1.153234
16 -0.000001 0.963853 0.000000 0.013348 0.044450 -0.005489
17 0.000001 0.632001 -0.000000 0.553895 2.241784 -0.331889
18 -0.126647 0.620188 -0.039313 -1.649073 0.166160 -0.011485
19 -0.000000 0.000001 -0.000001 0.028770 0.491640 -1.321781
20 0.000000 1.208233 -0.000000 -0.121338 -0.236385 0.243805
21 0.000001 0.763065 -0.000000 0.447465 2.949254 -0.533165
22 0.000000 -0.000000 -0.000000 -1.691856 0.160586 -0.074781
23 -0.000000 -0.000001 -0.000000 0.113639 0.954374 -1.417464
24 0.000001 1.250581 -0.000000 -0.503006 -0.675705 0.620051
25 -0.000001 0.932633 -0.000000 0.432194 3.087004 -0.596076
26 -0.093760 -0.657728 0.062875 -1.705938 0.157700 -0.095658
27 -0.000000 0.000000 -0.000000 0.031726 0.055548 -1.477625
28 0.000001 1.280976 -0.000000 -0.015696 -0.035748 0.294238
29 0.000001 0.749371 -0.000001 0.493861 -3.025271 -0.462269
30 0.000002 8.563282 -0.000000 0.081751 -0.413067 -0.090180
31 -0.000001 0.000001 -0.000000 -0.000000 0.000004 -0.000000
32 -4.654183 -1.415280 6.902198 -0.825666 2.576106 -0.000002
33 0.345864 -0.449941 0.582019 -0.391953 0.843942 0.240982
34 0.000000 8.543637 0.000001 2.181800 0.000001 1.570796
35 0.000000 -0.000000 -0.000000 -1.092887 0.038489 -0.050734
36 -0.000000 -0.000000 -0.000000 -0.279085 2.422941 -1.711488
37 0.000000 3.013526 -0.000001 -2.404103 -0.000001 1.570796
38 -2.659014 0.316090 -0.314419 -3.083493 0.263053 -0.047499
39 0.000001 -0.000000 0.000000 -1.103812 -2.198175 -1.053095
40 0.000010 1.978486 0.000006 0.856490 -0.393698 -0.603071
41 -0.000005 0.982429 -0.000004 0.141910 -0.491003 0.033578
42 -0.089258 0.659884 0.067214 1.657580 0.268134 -0.033754
43 0.498185 -0.076230 0.714166 -0.081477 0.200638 -1.945362
44 0.436934 1.230931 0.187289 0.208783 0.355209 -1.262079
45 -0.000001 0.752466 0.000000 -0.200927 0.245474 -0.490082
46 0.000000 0.000000 0.000000 1.671850 0.269475 -0.049573
47 0.156322 0.062374 0.322260 0.028256 -0.311786 -1.946861
48 1.415820 0.806136 -0.464621 -0.372019 -0.064892 -1.884580
49 -0.132977 0.924694 -0.220090 -0.037750 -0.046925 -0.441089
50 -0.108525 -0.607961 -0.044203 1.694999 0.265808 -0.017787
51 0.006730 -0.037597 0.006616 0.086030 -0.461219 -1.908696
52 1.025062 0.741827 -0.530525 -0.481807 -0.240091 -1.725640
53 0.142168 0.977208 -0.134338 -0.115488 0.117750 -0.144179
54 -0.479802 -1.191699 -0.061834 1.597265 0.268013 0.032300
55 -0.116220 -0.348168 -0.058113 0.484837 -0.804598 -2.601365
56 0.025318 0.634664 -1.390402 -0.520306 -0.146235 -1.050499
57 0.000001 0.614692 0.000000 -1.044945 0.364583 -1.199274
58 0.000000 8.543637 0.000001 0.114853 -0.476246 -0.111333
59 -0.000000 -0.000002 0.000000 0.000000 -0.000003 -0.000000
60 -0.547472 -2.773967 1.266111 0.136125 2.208081 -0.203939
61 0.000000 0.216536 -0.000000 0.000694 0.000000 0.000000
62 0.122706 11.211333 -3.790611 0.000694 -0.000000 -3.141593
63 0.000000 16.673231 0.000001 0.023432 3.141593 0.000000
64 0.000001 15.595430 -0.000002 -0.099930 0.000331 0.007304
65 0.000000 14.075078 0.000001 -0.075497 0.000089 0.005893
66 -0.000000 13.425269 -0.000005 -0.154911 0.000538 0.013236
time 9
0 -4.770313 -17.804712 -8.518756 1.570796 -0.000000 0.000000
1 4.771459 -5.564794 3.605348 -0.000128 0.087794 -1.384492
2 0.000000 -0.000002 -0.000000 1.570796 -0.000000 0.000000
3 -0.056707 0.000001 -3.094907 -0.000000 -0.000000 0.000000
4 6.833632 1.302324 6.671466 -0.825666 2.576106 -0.000002
5 1.140234 -6.856876 -7.975102 -0.745572 -0.534304 1.145938
6 0.000002 8.563282 -0.000000 -2.463579 0.000002 1.570793
7 0.000000 0.000001 -0.000000 -2.704896 -0.442717 1.336377
8 -0.000000 0.000000 0.000000 0.411487 2.092196 0.215023
9 -0.000000 3.026593 -0.000000 -2.054581 -0.000004 1.570799
10 -2.657339 -0.365571 -0.324765 -3.073150 0.182981 -0.062496
11 0.000001 0.000000 0.000001 0.276356 0.485164 -0.714807
12 -0.000001 1.887218 0.000028 0.194353 0.472346 -0.227125
13 -0.000011 1.001874 0.000004 0.295812 2.955644 -0.559961
14 -0.451692 1.213947 -0.058021 -1.434995 0.151216 0.018951
15 -0.000001 -0.000001 0.000000 0.059385 0.467012 -1.153234
16 -0.000001 0.963853 0.000000 0.013348 0.044450 -0.005489
17 0.000001 0.632001 -0.000000 0.553895 2.241784 -0.331889
18 -0.126647 0.620188 -0.039313 -1.649073 0.166160 -0.011485
19 -0.000000 0.000001 -0.000001 0.028770 0.491640 -1.321781
20 0.000000 1.208233 -0.000000 -0.121338 -0.236385 0.243805
21 0.000001 0.763065 -0.000000 0.447465 2.949254 -0.533165
22 0.000000 -0.000000 -0.000000 -1.691856 0.160586 -0.074781
23 -0.000000 -0.000001 -0.000000 0.113639 0.954374 -1.417464
24 0.000001 1.250581 -0.000000 -0.503006 -0.675705 0.620051
25 -0.000001 0.932633 -0.000000 0.432194 3.087004 -0.596076
26 -0.093760 -0.657728 0.062875 -1.705938 0.157700 -0.095658
27 -0.000000 0.000000 -0.000000 0.031726 0.055548 -1.477625
28 0.000001 1.280976 -0.000000 -0.015696 -0.035748 0.294238
29 0.000001 0.749371 -0.000001 0.493861 -3.025271 -0.462269
30 0.000002 8.563282 -0.000000 0.081751 -0.413067 -0.090180
31 -0.000001 0.000001 -0.000000 -0.000000 0.000004 -0.000000
32 -4.654183 -1.415280 6.902198 -0.825666 2.576106 -0.000002
33 -0.000001 0.000000 -0.000000 -0.416455 0.839692 0.228252
34 0.000001 8.543635 0.000001 2.181800 0.000001 1.570796
35 0.000000 -0.000000 0.000001 -1.092887 0.038489 -0.050735
36 0.000002 -0.000000 -0.000000 -0.279086 2.422941 -1.711488
37 0.000000 3.013525 -0.000000 -2.404103 -0.000001 1.570796
38 -2.659014 0.316090 -0.314420 -3.083493 0.263052 -0.047499
39 -0.000001 -0.000000 -0.000000 -1.103812 -2.198175 -1.053095
40 0.000010 1.978486 0.000006 0.856490 -0.393698 -0.603070
41 -0.000004 0.982429 -0.000005 0.141909 -0.491003 0.033579
42 -0.089258 0.659884 0.067213 1.657580 0.268134 -0.033754
43 0.498185 -0.076229 0.714166 -0.081478 0.200638 -1.945362
44 0.436935 1.230933 0.187289 0.208783 0.355209 -1.262078
45 0.000001 0.752466 0.000000 -0.200927 0.245474 -0.490082
46 0.000001 0.000000 -0.000000 1.671850 0.269475 -0.049573
47 0.156322 0.062374 0.322260 0.028256 -0.311786 -1.946861
48 1.449894 0.792452 -0.476986 -0.372938 -0.066734 -1.888192
49 -0.136807 0.924160 -0.226430 -0.037750 -0.046925 -0.441089
50 -0.108526 -0.607961 -0.044203 1.694999 0.265808 -0.017787
51 0.006730 -0.037597 0.006616 0.086030 -0.461219 -1.908696
52 1.056243 0.726650 -0.546608 -0.482919 -0.242186 -1.728862
53 0.146262 0.983984 -0.138209 -0.115488 0.117750 -0.144179
54 -0.479803 -1.191698 -0.061833 1.597265 0.268013 0.032300
55 -0.116219 -0.348169 -0.058112 0.484837 -0.804597 -2.601365
56 0.026580 0.621456 -1.425657 -0.520306 -0.146235 -1.050499
57 -0.000001 0.614692 -0.000000 -1.044945 0.364583 -1.199274
58 0.000001 8.543635 0.000001 0.114853 -0.476246 -0.111333
59 -0.000000 -0.000000 0.000001 -0.000000 -0.000003 0.000000
60 -0.547472 -2.773967 1.266111 0.136125 2.208081 -0.203939
61 0.000000 0.216536 0.000001 0.000694 -0.000000 0.000000
62 0.122706 11.211333 -3.790611 0.000694 -0.000000 -3.141593
63 -0.000000 16.673231 -0.000002 0.023432 3.141593 -0.000000
64 0.000000 15.595429 -0.000003 -0.102152 0.000349 0.007514
65 0.000001 14.075065 -0.000005 -0.077289 0.000097 0.006062
66 0.000000 13.425276 -0.000001 -0.158938 0.000581 0.013615
time 10
0 -4.770313 -17.804712 -8.518756 1.570796 -0.000000 0.000000
1 4.771459 -5.564794 3.605348 -0.000128 0.087794 -1.384492
2 0.000000 -0.000002 -0.000000 1.570796 -0.000000 0.000000
3 -0.056707 0.000001 -3.094907 -0.000000 -0.000000 0.000000
4 6.833632 1.302324 6.671466 -0.825666 2.576106 -0.000002
5 1.140234 -6.856876 -7.975102 -0.745572 -0.534304 1.145938
6 0.000002 8.563282 -0.000000 -2.463579 0.000002 1.570793
7 0.000000 0.000001 -0.000000 -2.704896 -0.442717 1.336377
8 -0.000000 0.000000 0.000000 0.411487 2.092196 0.215023
9 -0.000000 3.026593 -0.000000 -2.054581 -0.000004 1.570799
10 -2.657339 -0.365571 -0.324765 -3.073150 0.182981 -0.062496
11 0.000001 0.000000 0.000001 0.276356 0.485164 -0.714807
12 -0.000001 1.887218 0.000028 0.194353 0.472346 -0.227125
13 -0.000011 1.001874 0.000004 0.295812 2.955644 -0.559961
14 -0.451692 1.213947 -0.058021 -1.434995 0.151216 0.018951
15 -0.000001 -0.000001 0.000000 0.059385 0.467012 -1.153234
16 -0.000001 0.963853 0.000000 0.013348 0.044450 -0.005489
17 0.000001 0.632001 -0.000000 0.553895 2.241784 -0.331889
18 -0.126647 0.620188 -0.039313 -1.649073 0.166160 -0.011485
19 -0.000000 0.000001 -0.000001 0.028770 0.491640 -1.321781
20 0.000000 1.208233 -0.000000 -0.121338 -0.236385 0.243805
21 0.000001 0.763065 -0.000000 0.447465 2.949254 -0.533165
22 0.000000 -0.000000 -0.000000 -1.691856 0.160586 -0.074781
23 -0.000000 -0.000001 -0.000000 0.113639 0.954374 -1.417464
24 0.000001 1.250581 -0.000000 -0.503006 -0.675705 0.620051
25 -0.000001 0.932633 -0.000000 0.432194 3.087004 -0.596076
26 -0.093760 -0.657728 0.062875 -1.705938 0.157700 -0.095658
27 -0.000000 0.000000 -0.000000 0.031726 0.055548 -1.477625
28 0.000001 1.280976 -0.000000 -0.015696 -0.035748 0.294238
29 0.000001 0.749371 -0.000001 0.493861 -3.025271 -0.462269
30 0.000002 8.563282 -0.000000 0.081751 -0.413067 -0.090180
31 -0.000001 0.000001 -0.000000 -0.000000 0.000004 -0.000000
32 -4.654183 -1.415280 6.902198 -0.825666 2.576106 -0.000002
33 -0.000001 0.000000 -0.000000 -0.416455 0.839692 0.228252
34 0.000001 8.543635 0.000001 2.181800 0.000001 1.570796
35 0.000000 -0.000000 0.000001 -1.092887 0.038489 -0.050735
36 0.000002 -0.000000 -0.000000 -0.279086 2.422941 -1.711488
37 0.000000 3.013525 -0.000000 -2.404103 -0.000001 1.570796
38 -2.659014 0.316090 -0.314420 -3.083493 0.263052 -0.047499
39 -0.000001 -0.000000 -0.000000 -1.103812 -2.198175 -1.053095
40 0.000010 1.978486 0.000006 0.856490 -0.393698 -0.603070
41 -0.000004 0.982429 -0.000005 0.141909 -0.491003 0.033579
42 -0.089258 0.659884 0.067213 1.657580 0.268134 -0.033754
43 0.498185 -0.076229 0.714166 -0.081478 0.200638 -1.945362
44 0.436935 1.230933 0.187289 0.208783 0.355209 -1.262078
45 0.000001 0.752466 0.000000 -0.200927 0.245474 -0.490082
46 0.000001 0.000000 -0.000000 1.671850 0.269475 -0.049573
47 0.156322 0.062374 0.322260 0.028256 -0.311786 -1.946861
48 1.449894 0.792452 -0.476986 -0.372938 -0.066734 -1.888192
49 -0.136807 0.924160 -0.226430 -0.037750 -0.046925 -0.441089
50 -0.108526 -0.607961 -0.044203 1.694999 0.265808 -0.017787
51 0.006730 -0.037597 0.006616 0.086030 -0.461219 -1.908696
52 1.056243 0.726650 -0.546608 -0.482919 -0.242186 -1.728862
53 0.146262 0.983984 -0.138209 -0.115488 0.117750 -0.144179
54 -0.479803 -1.191698 -0.061833 1.597265 0.268013 0.032300
55 -0.116219 -0.348169 -0.058112 0.484837 -0.804597 -2.601365
56 0.026580 0.621456 -1.425657 -0.520306 -0.146235 -1.050499
57 -0.000001 0.614692 -0.000000 -1.044945 0.364583 -1.199274
58 0.000001 8.543635 0.000001 0.114853 -0.476246 -0.111333
59 -0.000000 -0.000000 0.000001 -0.000000 -0.000003 0.000000
60 -0.547472 -2.773967 1.266111 0.136125 2.208081 -0.203939
61 0.000000 0.216536 0.000001 0.000694 -0.000000 0.000000
62 0.122706 11.211333 -3.790611 0.000694 -0.000000 -3.141593
63 -0.000000 16.673231 -0.000002 0.023432 3.141593 -0.000000
64 0.000000 15.595429 -0.000003 -0.102152 0.000349 0.007514
65 0.000001 14.075065 -0.000005 -0.077289 0.000097 0.006062
66 0.000000 13.425276 -0.000001 -0.158938 0.000581 0.013615
end
