version 1
nodes
0 "v_weapon.knife_Parent" -1
1 "v_weapon.Knife_Handle" 0
2 "v_weapon" -1
3 "v_weapon.Hands_parent" 2
4 "v_weapon.Root34" 3
5 "v_weapon.Left_Arm" 4
6 "v_weapon.eff16" 5
7 "v_weapon.Root16" 6
8 "v_weapon.Left_Hand" 7
9 "v_weapon.eff2" 8
10 "v_weapon.Root17" 9
11 "v_weapon.Left_Thumb01" 10
12 "v_weapon.Left_Thumb_02" 11
13 "v_weapon.Left_Thumb03" 12
14 "v_weapon.Root18" 9
15 "v_weapon.Left_Pinky01" 14
16 "v_weapon.Left_Pinky02" 15
17 "v_weapon.Left_Pinky03" 16
18 "v_weapon.Root19" 9
19 "v_weapon.Left_Ring01" 18
20 "v_weapon.Left_Ring02" 19
21 "v_weapon.Left_Ring03" 20
22 "v_weapon.Root20" 9
23 "v_weapon.Left_Middle01" 22
24 "v_weapon.Left_Middle02" 23
25 "v_weapon.Left_Middle03" 24
26 "v_weapon.Root21" 9
27 "v_weapon.Left_Index01" 26
28 "v_weapon.Left_Index02" 27
29 "v_weapon.Left_Index03" 28
30 "v_weapon.Root99" 5
31 "v_weapon.L_wrist_helper" 30
32 "v_weapon.Root36" 3
33 "v_weapon.Right_Arm" 32
34 "v_weapon.eff18" 33
35 "v_weapon.Root23" 34
36 "v_weapon.Right_Hand" 35
37 "v_weapon.eff9" 36
38 "v_weapon.Root24" 37
39 "v_weapon.Right_Thumb01" 38
40 "v_weapon.Right_Thumb02" 39
41 "v_weapon.Right_Thumb03" 40
42 "v_weapon.Root25" 37
43 "v_weapon.Right_Index01" 42
44 "v_weapon.Right_Index02" 43
45 "v_weapon.Right_Index03" 44
46 "v_weapon.Root26" 37
47 "v_weapon.Right_Middle01" 46
48 "v_weapon.Right_Middle02" 47
49 "v_weapon.Right_Middle03" 48
50 "v_weapon.Root27" 37
51 "v_weapon.Right_Ring01" 50
52 "v_weapon.Right_Ring02" 51
53 "v_weapon.Right_Ring03" 52
54 "v_weapon.Root28" 37
55 "v_weapon.Right_Pinky01" 54
56 "v_weapon.Right_Pinky02" 55
57 "v_weapon.Right_Pinky03" 56
58 "v_weapon.Root98" 33
59 "v_weapon.R_wrist_helper" 58
60 "cast_root" 36
61 "cast_handle" 60
62 "cast_reel" 61
63 "cast_rod_lower" 61
64 "cast_rod_mid" 63
65 "cast_rod_upper" 64
66 "cast_rod_tip" 65
end
skeleton
time 0
0 -4.770313 -17.804712 -8.518756 1.570796 -0.000000 0.000000
1 4.771459 -5.564794 3.605348 -0.000128 0.087794 -1.384492
2 0.000000 -0.000002 -0.000000 1.570796 -0.000000 0.000000
3 -0.056707 0.000001 -3.094907 -0.000000 -0.000000 0.000000
4 6.833632 1.302324 6.671466 -0.825666 2.576106 -0.000002
5 1.140236 -5.598399 -6.610965 -0.745572 -0.534304 1.145938
6 0.000000 8.563282 -0.000001 -2.463579 0.000002 1.570793
7 0.000000 0.000001 -0.000001 -2.704896 -0.442717 1.336377
8 0.000000 -0.000001 -0.000000 0.411487 2.092196 0.215023
9 0.000001 3.026593 -0.000001 -2.054581 -0.000004 1.570799
10 -2.657338 -0.365571 -0.324764 -3.073150 0.182981 -0.062496
11 0.000001 -0.000000 -0.000000 0.276356 0.485164 -0.714807
12 -0.000000 1.887218 0.000028 0.194353 0.472346 -0.227125
13 -0.000011 1.001875 0.000004 0.295812 2.955644 -0.559961
14 -0.451692 1.213947 -0.058022 -1.434995 0.151216 0.018951
15 -0.000000 0.000000 0.000000 0.059385 0.467012 -1.153234
16 -0.000000 0.963853 0.000000 0.013348 0.044450 -0.005489
17 -0.000000 0.632001 -0.000001 0.553895 2.241784 -0.331889
18 -0.126647 0.620188 -0.039313 -1.649073 0.166160 -0.011485
19 -0.000000 -0.000001 0.000000 0.028770 0.491640 -1.321781
20 0.000000 1.208235 0.000000 -0.121338 -0.236385 0.243805
21 0.000000 0.763065 -0.000000 0.447465 2.949254 -0.533165
22 0.000000 -0.000000 -0.000000 -1.691856 0.160586 -0.074781
23 0.000000 0.000000 -0.000000 0.113639 0.954374 -1.417464
24 0.000001 1.250581 0.000000 -0.503006 -0.675705 0.620051
25 -0.000000 0.932633 -0.000000 0.432194 3.087004 -0.596076
26 -0.093759 -0.657728 0.062874 -1.705938 0.157700 -0.095658
27 -0.000000 -0.000001 0.000000 0.031726 0.055548 -1.477625
28 0.000001 1.280976 0.000000 -0.015696 -0.035748 0.294238
29 0.000000 0.749372 -0.000001 0.493861 -3.025271 -0.462269
30 0.000000 8.563282 -0.000001 0.081751 -0.413067 -0.090180
31 0.000001 0.000001 -0.000000 -0.000000 0.000004 -0.000000
32 -4.654183 -1.415280 6.902198 -0.825666 2.576106 -0.000002
33 -0.000001 0.000000 -0.000000 -0.893906 0.729649 0.026433
34 0.000000 8.543638 0.000001 2.181800 0.000001 1.570796
35 0.000000 0.000000 -0.000000 -1.092888 0.038490 -0.050735
36 -0.000001 -0.000000 0.000000 -0.279086 2.422942 -1.711489
37 0.000000 3.013525 -0.000000 -2.404103 -0.000001 1.570796
38 -2.659014 0.316090 -0.314420 -3.083485 0.263059 -0.047501
39 0.000001 -0.000000 -0.000000 -1.103797 -2.198187 -1.053113
40 0.000009 1.978485 0.000006 0.856489 -0.393698 -0.603070
41 -0.000004 0.982428 -0.000005 0.141909 -0.491002 0.033579
42 -0.089258 0.659884 0.067213 1.657580 0.268134 -0.033754
43 0.498185 -0.076230 0.714166 -0.081477 0.200638 -1.945362
44 0.436935 1.230932 0.187288 0.208783 0.355209 -1.262079
45 -0.000001 0.752466 0.000001 -0.200927 0.245474 -0.490082
46 0.000000 0.000000 -0.000000 1.671850 0.269475 -0.049573
47 0.156320 0.062373 0.322259 0.028256 -0.311786 -1.946861
48 0.233063 1.281152 -0.035405 -0.336100 -0.003110 -1.758144
49 -0.000001 0.943233 0.000000 -0.037750 -0.046925 -0.441089
50 -0.108525 -0.607961 -0.044204 1.694999 0.265808 -0.017787
51 0.006729 -0.037597 0.006616 0.086030 -0.461219 -1.908696
52 -0.057341 1.268699 0.027733 -0.439279 -0.169628 -1.613033
53 0.000000 0.741942 -0.000000 -0.115488 0.117750 -0.144179
54 -0.479803 -1.191699 -0.061834 1.597265 0.268012 0.032300
55 -0.116220 -0.348168 -0.058113 0.484837 -0.804598 -2.601365
56 -0.018439 1.093190 -0.166634 -0.520306 -0.146235 -1.050499
57 -0.000000 0.614692 -0.000000 -1.044945 0.364583 -1.199274
58 0.000000 8.543638 0.000001 0.114853 -0.476246 -0.111333
59 0.000000 0.000001 0.000000 -0.000000 -0.000003 -0.000000
60 -0.547472 -2.773967 1.266111 0.136125 2.208081 -0.203939
61 -0.000000 0.216537 0.000001 0.000694 -0.000000 -0.000000
62 0.122706 11.211333 -3.790611 0.000694 -0.000000 -3.141593
63 0.000000 16.673229 -0.000002 0.023432 3.141593 0.000000
64 0.000000 15.595422 -0.000001 -0.022747 0.000000 0.000000
65 -0.000000 14.075078 -0.000002 -0.013286 0.000000 0.000000
66 0.000000 13.425271 0.000000 -0.014992 0.000000 -0.000000
time 1
0 -4.770313 -17.804712 -8.518756 1.570796 -0.000000 0.000000
1 4.771459 -5.564794 3.605348 -0.000128 0.087794 -1.384492
2 0.000000 -0.000002 -0.000000 1.570796 -0.000000 0.000000
3 -0.056707 0.000001 -3.094907 -0.000000 -0.000000 0.000000
4 6.833632 1.302324 6.671466 -0.825666 2.576106 -0.000002
5 0.999646 -5.101885 -5.965968 -0.745572 -0.534304 1.145938
6 0.000001 8.563283 -0.000000 -2.463579 0.000002 1.570793
7 -0.000000 0.000000 -0.000001 -2.704896 -0.442717 1.336377
8 -0.000000 -0.000001 -0.000000 0.411487 2.092196 0.215023
9 -0.000000 3.026594 0.000000 -2.054581 -0.000004 1.570799
10 -2.657340 -0.365571 -0.324764 -3.073150 0.182981 -0.062496
11 0.000000 -0.000000 0.000001 0.276356 0.485164 -0.714807
12 -0.000000 1.887218 0.000028 0.194353 0.472346 -0.227125
13 -0.000011 1.001874 0.000004 0.295812 2.955644 -0.559961
14 -0.451692 1.213947 -0.058021 -1.434995 0.151216 0.018951
15 -0.000001 -0.000001 0.000000 0.059385 0.467012 -1.153234
16 0.000000 0.963853 0.000000 0.013348 0.044450 -0.005489
17 -0.000001 0.632000 -0.000001 0.553895 2.241784 -0.331889
18 -0.126648 0.620188 -0.039312 -1.649073 0.166160 -0.011485
19 -0.000001 -0.000000 0.000000 0.028770 0.491640 -1.321781
20 0.000000 1.208234 0.000000 -0.121338 -0.236385 0.243805
21 0.000000 0.763066 0.000000 0.447465 2.949254 -0.533165
22 -0.000000 -0.000000 0.000000 -1.691856 0.160586 -0.074781
23 0.000000 0.000000 0.000000 0.113639 0.954374 -1.417464
24 -0.000000 1.250579 -0.000000 -0.503006 -0.675705 0.620051
25 0.000000 0.932633 0.000000 0.432194 3.087004 -0.596076
26 -0.093760 -0.657728 0.062875 -1.705938 0.157700 -0.095658
27 0.000001 -0.000000 0.000000 0.031726 0.055548 -1.477625
28 0.000001 1.280975 -0.000000 -0.015696 -0.035748 0.294238
29 -0.000000 0.749374 -0.000001 0.493861 -3.025271 -0.462269
30 0.000001 8.563283 -0.000000 0.081751 -0.413067 -0.090180
31 -0.000001 0.000000 0.000000 -0.000000 0.000004 -0.000000
32 -4.654183 -1.415280 6.902198 -0.825666 2.576106 -0.000002
33 -0.000001 0.000000 -0.000000 -0.893906 0.729649 0.026433
34 0.000000 8.543638 0.000001 2.181800 0.000001 1.570796
35 0.000000 0.000000 -0.000000 -1.092888 0.038490 -0.050735
36 -0.000001 -0.000000 0.000000 -0.279086 2.422942 -1.711489
37 0.000000 3.013525 -0.000000 -2.404103 -0.000001 1.570796
38 -2.659014 0.316090 -0.314420 -3.083485 0.263059 -0.047501
39 0.000001 -0.000000 -0.000000 -1.103797 -2.198187 -1.053113
40 0.000009 1.978485 0.000006 0.856489 -0.393698 -0.603070
41 -0.000004 0.982428 -0.000005 0.141909 -0.491002 0.033579
42 -0.089258 0.659884 0.067213 1.657580 0.268134 -0.033754
43 0.498185 -0.076230 0.714166 -0.081477 0.200638 -1.945362
44 0.436935 1.230932 0.187288 0.208783 0.355209 -1.262079
45 -0.000001 0.752466 0.000001 -0.200927 0.245474 -0.490082
46 0.000000 0.000000 -0.000000 1.671850 0.269475 -0.049573
47 0.156320 0.062373 0.322259 0.028256 -0.311786 -1.946861
48 0.233063 1.281152 -0.035405 -0.336100 -0.003110 -1.758144
49 -0.000001 0.943233 0.000000 -0.037750 -0.046925 -0.441089
50 -0.108525 -0.607961 -0.044204 1.694999 0.265808 -0.017787
51 0.006729 -0.037597 0.006616 0.086030 -0.461219 -1.908696
52 -0.057341 1.268699 0.027733 -0.439279 -0.169628 -1.613033
53 0.000000 0.741942 -0.000000 -0.115488 0.117750 -0.144179
54 -0.479803 -1.191699 -0.061834 1.597265 0.268012 0.032300
55 -0.116220 -0.348168 -0.058113 0.484837 -0.804598 -2.601365
56 -0.018439 1.093190 -0.166634 -0.520306 -0.146235 -1.050499
57 -0.000000 0.614692 -0.000000 -1.044945 0.364583 -1.199274
58 0.000000 8.543638 0.000001 0.114853 -0.476246 -0.111333
59 0.000000 0.000001 0.000000 -0.000000 -0.000003 -0.000000
60 -0.547472 -2.773967 1.266111 0.136125 2.208081 -0.203939
61 -0.000000 0.216537 0.000001 0.000694 -0.000000 -0.000000
62 0.122706 11.211333 -3.790611 0.000694 -0.000000 -3.141593
63 0.000000 16.673229 -0.000002 0.023432 3.141593 0.000000
64 0.000000 15.595422 -0.000001 -0.022747 0.000000 0.000000
65 -0.000000 14.075078 -0.000002 -0.013286 0.000000 0.000000
66 0.000000 13.425271 0.000000 -0.014992 0.000000 -0.000000
time 2
0 -4.770313 -17.804712 -8.518756 1.570796 -0.000000 0.000000
1 4.771459 -5.564794 3.605348 -0.000128 0.087794 -1.384492
2 0.000000 -0.000002 -0.000000 1.570796 -0.000000 0.000000
3 -0.056707 0.000001 -3.094907 -0.000000 -0.000000 0.000000
4 6.833632 1.302324 6.671466 -0.825666 2.576106 -0.000002
5 0.840243 -3.916923 -4.618444 -0.745572 -0.534304 1.145938
6 0.000000 8.563282 -0.000001 -2.463579 0.000002 1.570793
7 -0.000001 0.000000 -0.000000 -2.704896 -0.442717 1.336377
8 0.000000 0.000000 -0.000001 0.411487 2.092196 0.215023
9 0.000000 3.026593 -0.000001 -2.054581 -0.000004 1.570799
10 -2.657340 -0.365571 -0.324764 -3.073150 0.182981 -0.062496
11 -0.000001 -0.000000 -0.000000 0.276356 0.485164 -0.714807
12 -0.000001 1.887218 0.000026 0.194353 0.472346 -0.227125
13 -0.000012 1.001875 0.000004 0.295812 2.955644 -0.559961
14 -0.451693 1.213947 -0.058022 -1.434995 0.151216 0.018951
15 -0.000001 -0.000000 0.000000 0.059385 0.467012 -1.153234
16 0.000000 0.963854 -0.000000 0.013348 0.044450 -0.005489
17 0.000000 0.632001 -0.000000 0.553895 2.241784 -0.331889
18 -0.126648 0.620188 -0.039313 -1.649073 0.166160 -0.011485
19 0.000000 -0.000000 -0.000001 0.028770 0.491640 -1.321781
20 0.000000 1.208234 -0.000000 -0.121338 -0.236385 0.243805
21 0.000000 0.763066 -0.000000 0.447465 2.949254 -0.533165
22 -0.000001 -0.000000 0.000000 -1.691856 0.160586 -0.074781
23 -0.000000 0.000000 -0.000000 0.113639 0.954374 -1.417464
24 0.000000 1.250581 0.000001 -0.503006 -0.675705 0.620051
25 -0.000000 0.932633 -0.000000 0.432194 3.087004 -0.596076
26 -0.093761 -0.657728 0.062874 -1.705938 0.157700 -0.095658
27 0.000000 -0.000000 -0.000000 0.031726 0.055548 -1.477625
28 0.000000 1.280975 0.000000 -0.015696 -0.035748 0.294238
29 -0.000000 0.749373 -0.000000 0.493861 -3.025271 -0.462269
30 0.000000 8.563282 -0.000001 0.081751 -0.413067 -0.090180
31 -0.000000 0.000001 0.000000 -0.000000 0.000004 -0.000000
32 -4.654183 -1.415280 6.902198 -0.825666 2.576106 -0.000002
33 -0.000001 0.000000 -0.000000 -0.893906 0.729649 0.026433
34 0.000000 8.543638 0.000001 2.181800 0.000001 1.570796
35 0.000000 0.000000 -0.000000 -1.092888 0.038490 -0.050735
36 -0.000001 -0.000000 0.000000 -0.279086 2.422942 -1.711489
37 0.000000 3.013525 -0.000000 -2.404103 -0.000001 1.570796
38 -2.659014 0.316090 -0.314420 -3.083485 0.263059 -0.047501
39 0.000001 -0.000000 -0.000000 -1.103797 -2.198187 -1.053113
40 0.000009 1.978485 0.000006 0.856489 -0.393698 -0.603070
41 -0.000004 0.982428 -0.000005 0.141909 -0.491002 0.033579
42 -0.089258 0.659884 0.067213 1.657580 0.268134 -0.033754
43 0.498185 -0.076230 0.714166 -0.081477 0.200638 -1.945362
44 0.436935 1.230932 0.187288 0.208783 0.355209 -1.262079
45 -0.000001 0.752466 0.000001 -0.200927 0.245474 -0.490082
46 0.000000 0.000000 -0.000000 1.671850 0.269475 -0.049573
47 0.156320 0.062373 0.322259 0.028256 -0.311786 -1.946861
48 0.233063 1.281152 -0.035405 -0.336100 -0.003110 -1.758144
49 -0.000001 0.943233 0.000000 -0.037750 -0.046925 -0.441089
50 -0.108525 -0.607961 -0.044204 1.694999 0.265808 -0.017787
51 0.006729 -0.037597 0.006616 0.086030 -0.461219 -1.908696
52 -0.057341 1.268699 0.027733 -0.439279 -0.169628 -1.613033
53 0.000000 0.741942 -0.000000 -0.115488 0.117750 -0.144179
54 -0.479803 -1.191699 -0.061834 1.597265 0.268012 0.032300
55 -0.116220 -0.348168 -0.058113 0.484837 -0.804598 -2.601365
56 -0.018439 1.093190 -0.166634 -0.520306 -0.146235 -1.050499
57 -0.000000 0.614692 -0.000000 -1.044945 0.364583 -1.199274
58 0.000000 8.543638 0.000001 0.114853 -0.476246 -0.111333
59 0.000000 0.000001 0.000000 -0.000000 -0.000003 -0.000000
60 -0.547472 -2.773967 1.266111 0.136125 2.208081 -0.203939
61 -0.000000 0.216537 0.000001 0.000694 -0.000000 -0.000000
62 0.122706 11.211333 -3.790611 0.000694 -0.000000 -3.141593
63 0.000000 16.673229 -0.000002 0.023432 3.141593 0.000000
64 0.000000 15.595422 -0.000001 -0.022747 0.000000 0.000000
65 -0.000000 14.075078 -0.000002 -0.013286 0.000000 0.000000
66 0.000000 13.425271 0.000000 -0.014992 0.000000 -0.000000
time 3
0 -4.770313 -17.804712 -8.518756 1.570796 -0.000000 0.000000
1 4.771459 -5.564794 3.605348 -0.000128 0.087794 -1.384492
2 0.000000 -0.000002 -0.000000 1.570796 -0.000000 0.000000
3 -0.056707 0.000001 -3.094907 -0.000000 -0.000000 0.000000
4 6.833632 1.302324 6.671466 -0.825666 2.576106 -0.000002
5 1.055575 -2.500382 -3.449596 -0.745572 -0.534304 1.145938
6 0.000000 8.563282 -0.000001 -2.463579 0.000002 1.570793
7 0.000000 0.000000 -0.000000 -2.704896 -0.442717 1.336377
8 0.000000 0.000001 -0.000000 0.411487 2.092196 0.215023
9 0.000000 3.026594 -0.000000 -2.054581 -0.000004 1.570799
10 -2.657340 -0.365571 -0.324763 -3.073150 0.182981 -0.062496
11 -0.000000 0.000000 -0.000000 0.276356 0.485164 -0.714807
12 -0.000000 1.887219 0.000028 0.194353 0.472346 -0.227125
13 -0.000012 1.001875 0.000005 0.295812 2.955644 -0.559961
14 -0.451692 1.213947 -0.058021 -1.434995 0.151216 0.018951
15 -0.000002 -0.000000 0.000001 0.059385 0.467012 -1.153234
16 -0.000000 0.963853 0.000000 0.013348 0.044450 -0.005489
17 0.000000 0.632002 -0.000001 0.553895 2.241784 -0.331889
18 -0.126648 0.620188 -0.039312 -1.649073 0.166160 -0.011485
19 0.000000 -0.000000 0.000000 0.028770 0.491640 -1.321781
20 -0.000000 1.208233 0.000000 -0.121338 -0.236385 0.243805
21 0.000000 0.763065 0.000000 0.447465 2.949254 -0.533165
22 -0.000000 -0.000000 0.000000 -1.691856 0.160586 -0.074781
23 -0.000001 0.000000 -0.000000 0.113639 0.954374 -1.417464
24 0.000000 1.250578 0.000000 -0.503006 -0.675705 0.620051
25 0.000001 0.932635 0.000000 0.432194 3.087004 -0.596076
26 -0.093760 -0.657728 0.062875 -1.705938 0.157700 -0.095658
27 0.000001 -0.000000 0.000000 0.031726 0.055548 -1.477625
28 0.000001 1.280974 0.000000 -0.015696 -0.035748 0.294238
29 0.000000 0.749374 -0.000001 0.493861 -3.025271 -0.462269
30 0.000000 8.563282 -0.000001 0.081751 -0.413067 -0.090180
31 0.000000 0.000000 0.000000 -0.000000 0.000004 -0.000000
32 -4.654183 -1.415280 6.902198 -0.825666 2.576106 -0.000002
33 -0.000001 0.000000 -0.000000 -0.893906 0.729649 0.026433
34 0.000000 8.543638 0.000001 2.181800 0.000001 1.570796
35 0.000000 0.000000 -0.000000 -1.092888 0.038490 -0.050735
36 -0.000001 -0.000000 0.000000 -0.279086 2.422942 -1.711489
37 0.000000 3.013525 -0.000000 -2.404103 -0.000001 1.570796
38 -2.659014 0.316090 -0.314420 -3.083485 0.263059 -0.047501
39 0.000001 -0.000000 -0.000000 -1.103797 -2.198187 -1.053113
40 0.000009 1.978485 0.000006 0.856489 -0.393698 -0.603070
41 -0.000004 0.982428 -0.000005 0.141909 -0.491002 0.033579
42 -0.089258 0.659884 0.067213 1.657580 0.268134 -0.033754
43 0.498185 -0.076230 0.714166 -0.081477 0.200638 -1.945362
44 0.436935 1.230932 0.187288 0.208783 0.355209 -1.262079
45 -0.000001 0.752466 0.000001 -0.200927 0.245474 -0.490082
46 0.000000 0.000000 -0.000000 1.671850 0.269475 -0.049573
47 0.156320 0.062373 0.322259 0.028256 -0.311786 -1.946861
48 0.233063 1.281152 -0.035405 -0.336100 -0.003110 -1.758144
49 -0.000001 0.943233 0.000000 -0.037750 -0.046925 -0.441089
50 -0.108525 -0.607961 -0.044204 1.694999 0.265808 -0.017787
51 0.006729 -0.037597 0.006616 0.086030 -0.461219 -1.908696
52 -0.057341 1.268699 0.027733 -0.439279 -0.169628 -1.613033
53 0.000000 0.741942 -0.000000 -0.115488 0.117750 -0.144179
54 -0.479803 -1.191699 -0.061834 1.597265 0.268012 0.032300
55 -0.116220 -0.348168 -0.058113 0.484837 -0.804598 -2.601365
56 -0.018439 1.093190 -0.166634 -0.520306 -0.146235 -1.050499
57 -0.000000 0.614692 -0.000000 -1.044945 0.364583 -1.199274
58 0.000000 8.543638 0.000001 0.114853 -0.476246 -0.111333
59 0.000000 0.000001 0.000000 -0.000000 -0.000003 -0.000000
60 -0.547472 -2.773967 1.266111 0.136125 2.208081 -0.203939
61 -0.000000 0.216537 0.000001 0.000694 -0.000000 -0.000000
62 0.122706 11.211333 -3.790611 0.000694 -0.000000 -3.141593
63 0.000000 16.673229 -0.000002 0.023432 3.141593 0.000000
64 0.000000 15.595422 -0.000001 -0.022747 0.000000 0.000000
65 -0.000000 14.075078 -0.000002 -0.013286 0.000000 0.000000
66 0.000000 13.425271 0.000000 -0.014992 0.000000 -0.000000
time 4
0 -4.770313 -17.804712 -8.518756 1.570796 -0.000000 0.000000
1 4.771459 -5.564794 3.605348 -0.000128 0.087794 -1.384492
2 0.000000 -0.000002 -0.000000 1.570796 -0.000000 0.000000
3 -0.056707 0.000001 -3.094907 -0.000000 -0.000000 0.000000
4 6.833632 1.302324 6.671466 -0.825666 2.576106 -0.000002
5 1.984396 -0.458976 -4.417809 -0.745572 -0.534304 1.145938
6 -0.000000 8.563282 -0.000001 -2.463579 0.000002 1.570793
7 -0.000000 0.000000 0.000000 -2.704896 -0.442717 1.336377
8 0.000000 0.000000 -0.000000 0.411487 2.092196 0.215023
9 0.000000 3.026594 -0.000001 -2.054581 -0.000004 1.570799
10 -2.657341 -0.365571 -0.324764 -3.073150 0.182981 -0.062496
11 0.000000 -0.000000 0.000000 0.276356 0.485164 -0.714807
12 0.066148 1.886711 0.041124 0.312607 0.431441 -0.323468
13 -0.000011 1.001876 0.000001 0.295811 2.955642 -0.559962
14 -0.451692 1.213947 -0.058022 -1.434995 0.151216 0.018951
15 -0.000000 0.000000 -0.000000 0.059385 0.467012 -1.153234
16 0.010667 0.986727 0.001824 -0.129286 0.110480 0.199134
17 0.002439 0.651634 -0.003242 0.776327 2.266341 0.018661
18 -0.126649 0.620188 -0.039313 -1.649073 0.166160 -0.011485
19 0.000001 -0.000000 -0.000000 0.028770 0.491640 -1.321781
20 -0.144462 1.210656 -0.069688 -0.223801 -0.177197 0.504681
21 -0.159248 0.780428 -0.030336 0.490816 2.943579 -0.301197
22 -0.000000 -0.000000 -0.000000 -1.691856 0.160586 -0.074781
23 -0.000000 -0.000000 0.000000 0.113639 0.954374 -1.417464
24 -0.149997 1.253345 -0.186829 -0.674730 -0.523660 0.884732
25 -0.237109 0.991523 -0.019853 0.449892 3.081814 -0.368186
26 -0.093761 -0.657728 0.062874 -1.705938 0.157700 -0.095658
27 0.000000 -0.000000 0.000000 0.031726 0.055548 -1.477625
28 -0.229946 1.289035 0.003822 -0.012362 -0.038955 0.560532
29 -0.215843 0.812281 0.012394 0.481140 -3.026964 -0.233537
30 -0.000000 8.563282 -0.000001 0.081751 -0.413067 -0.090180
31 0.000000 0.000000 0.000000 -0.000000 0.000004 -0.000000
32 -4.654183 -1.415280 6.902198 -0.825666 2.576106 -0.000002
33 -0.000001 0.000000 -0.000000 -0.893906 0.729649 0.026433
34 0.000000 8.543638 0.000001 2.181800 0.000001 1.570796
35 0.000000 0.000000 -0.000000 -1.092888 0.038490 -0.050735
36 -0.000001 -0.000000 0.000000 -0.279086 2.422942 -1.711489
37 0.000000 3.013525 -0.000000 -2.404103 -0.000001 1.570796
38 -2.659014 0.316090 -0.314420 -3.083485 0.263059 -0.047501
39 0.000001 -0.000000 -0.000000 -1.103797 -2.198187 -1.053113
40 0.000009 1.978485 0.000006 0.856489 -0.393698 -0.603070
41 -0.000004 0.982428 -0.000005 0.141909 -0.491002 0.033579
42 -0.089258 0.659884 0.067213 1.657580 0.268134 -0.033754
43 0.498185 -0.076230 0.714166 -0.081477 0.200638 -1.945362
44 0.436935 1.230932 0.187288 0.208783 0.355209 -1.262079
45 -0.000001 0.752466 0.000001 -0.200927 0.245474 -0.490082
46 0.000000 0.000000 -0.000000 1.671850 0.269475 -0.049573
47 0.156320 0.062373 0.322259 0.028256 -0.311786 -1.946861
48 0.233063 1.281152 -0.035405 -0.336100 -0.003110 -1.758144
49 -0.000001 0.943233 0.000000 -0.037750 -0.046925 -0.441089
50 -0.108525 -0.607961 -0.044204 1.694999 0.265808 -0.017787
51 0.006729 -0.037597 0.006616 0.086030 -0.461219 -1.908696
52 -0.057341 1.268699 0.027733 -0.439279 -0.169628 -1.613033
53 0.000000 0.741942 -0.000000 -0.115488 0.117750 -0.144179
54 -0.479803 -1.191699 -0.061834 1.597265 0.268012 0.032300
55 -0.116220 -0.348168 -0.058113 0.484837 -0.804598 -2.601365
56 -0.018439 1.093190 -0.166634 -0.520306 -0.146235 -1.050499
57 -0.000000 0.614692 -0.000000 -1.044945 0.364583 -1.199274
58 0.000000 8.543638 0.000001 0.114853 -0.476246 -0.111333
59 0.000000 0.000001 0.000000 -0.000000 -0.000003 -0.000000
60 -0.547472 -2.773967 1.266111 0.136125 2.208081 -0.203939
61 -0.000000 0.216537 0.000001 0.000694 -0.000000 -0.000000
62 0.122706 11.211333 -3.790611 0.000694 -0.000000 -3.141593
63 0.000000 16.673229 -0.000002 0.023432 3.141593 0.000000
64 0.000000 15.595422 -0.000001 -0.022747 0.000000 0.000000
65 -0.000000 14.075078 -0.000002 -0.013286 0.000000 0.000000
66 0.000000 13.425271 0.000000 -0.014992 0.000000 -0.000000
time 5
0 -4.770313 -17.804712 -8.518756 1.570796 -0.000000 0.000000
1 4.771459 -5.564794 3.605348 -0.000128 0.087794 -1.384492
2 0.000000 -0.000002 -0.000000 1.570796 -0.000000 0.000000
3 -0.056707 0.000001 -3.094907 -0.000000 -0.000000 0.000000
4 6.833632 1.302324 6.671466 -0.825666 2.576106 -0.000002
5 3.150044 1.886448 -7.039108 -0.745572 -0.534304 1.145938
6 0.000000 8.563282 -0.000000 -2.463579 0.000002 1.570793
7 -0.000002 -0.000000 -0.000000 -2.704896 -0.442717 1.336377
8 -0.000000 0.000000 -0.000000 0.411487 2.092196 0.215023
9 0.000000 3.026594 -0.000000 -2.054581 -0.000004 1.570799
10 -2.657340 -0.365570 -0.324764 -3.073150 0.182981 -0.062496
11 0.000001 -0.000000 -0.000000 0.276356 0.485164 -0.714807
12 0.188997 1.885771 0.117444 0.540606 0.383597 -0.513005
13 -0.000011 1.001871 -0.000004 0.295810 2.955640 -0.559962
14 -0.451693 1.213947 -0.058022 -1.434995 0.151216 0.018951
15 0.000000 -0.000000 0.000000 0.059385 0.467012 -1.153234
16 0.030478 1.029207 0.005212 -0.359195 0.309123 0.567639
17 0.006974 0.688094 -0.009259 1.088279 2.427033 0.582803
18 -0.126649 0.620188 -0.039312 -1.649073 0.166160 -0.011485
19 -0.000000 -0.000000 -0.000000 0.028770 0.491640 -1.321781
20 -0.412750 1.215154 -0.199109 -0.362279 -0.002686 0.979488
21 -0.454994 0.812679 -0.086675 0.571811 2.960032 0.139814
22 -0.000001 0.000000 -0.000000 -1.691856 0.160586 -0.074781
23 0.000000 -0.000000 0.000000 0.113639 0.954374 -1.417464
24 -0.428563 1.258482 -0.533798 -0.848911 -0.160746 1.269019
25 -0.677460 1.100883 -0.056722 0.484776 3.083392 0.065775
26 -0.093760 -0.657728 0.062874 -1.705938 0.157700 -0.095658
27 -0.000000 -0.000000 -0.000000 0.031726 0.055548 -1.477625
28 -0.656988 1.304012 0.010921 -0.008800 -0.047022 1.072422
29 -0.616698 0.929111 0.035410 0.459443 -3.037786 0.201453
30 0.000000 8.563282 -0.000000 0.081751 -0.413067 -0.090180
31 0.000000 -0.000000 0.000000 -0.000000 0.000004 -0.000000
32 -4.654183 -1.415280 6.902198 -0.825666 2.576106 -0.000002
33 -0.000001 0.000000 -0.000000 -0.893906 0.729649 0.026433
34 0.000000 8.543638 0.000001 2.181800 0.000001 1.570796
35 0.000000 0.000000 -0.000000 -1.092888 0.038490 -0.050735
36 -0.000001 -0.000000 0.000000 -0.279086 2.422942 -1.711489
37 0.000000 3.013525 -0.000000 -2.404103 -0.000001 1.570796
38 -2.659014 0.316090 -0.314420 -3.083485 0.263059 -0.047501
39 0.000001 -0.000000 -0.000000 -1.103797 -2.198187 -1.053113
40 0.000009 1.978485 0.000006 0.856489 -0.393698 -0.603070
41 -0.000004 0.982428 -0.000005 0.141909 -0.491002 0.033579
42 -0.089258 0.659884 0.067213 1.657580 0.268134 -0.033754
43 0.498185 -0.076230 0.714166 -0.081477 0.200638 -1.945362
44 0.436935 1.230932 0.187288 0.208783 0.355209 -1.262079
45 -0.000001 0.752466 0.000001 -0.200927 0.245474 -0.490082
46 0.000000 0.000000 -0.000000 1.671850 0.269475 -0.049573
47 0.156320 0.062373 0.322259 0.028256 -0.311786 -1.946861
48 0.233063 1.281152 -0.035405 -0.336100 -0.003110 -1.758144
49 -0.000001 0.943233 0.000000 -0.037750 -0.046925 -0.441089
50 -0.108525 -0.607961 -0.044204 1.694999 0.265808 -0.017787
51 0.006729 -0.037597 0.006616 0.086030 -0.461219 -1.908696
52 -0.057341 1.268699 0.027733 -0.439279 -0.169628 -1.613033
53 0.000000 0.741942 -0.000000 -0.115488 0.117750 -0.144179
54 -0.479803 -1.191699 -0.061834 1.597265 0.268012 0.032300
55 -0.116220 -0.348168 -0.058113 0.484837 -0.804598 -2.601365
56 -0.018439 1.093190 -0.166634 -0.520306 -0.146235 -1.050499
57 -0.000000 0.614692 -0.000000 -1.044945 0.364583 -1.199274
58 0.000000 8.543638 0.000001 0.114853 -0.476246 -0.111333
59 0.000000 0.000001 0.000000 -0.000000 -0.000003 -0.000000
60 -0.547472 -2.773967 1.266111 0.136125 2.208081 -0.203939
61 -0.000000 0.216537 0.000001 0.000694 -0.000000 -0.000000
62 0.122706 11.211333 -3.790611 0.000694 -0.000000 -3.141593
63 0.000000 16.673229 -0.000002 0.023432 3.141593 0.000000
64 0.000000 15.595422 -0.000001 -0.022747 0.000000 0.000000
65 -0.000000 14.075078 -0.000002 -0.013286 0.000000 0.000000
66 0.000000 13.425271 0.000000 -0.014992 0.000000 -0.000000
time 6
0 -4.770313 -17.804712 -8.518756 1.570796 -0.000000 0.000000
1 4.771459 -5.564794 3.605348 -0.000128 0.087794 -1.384492
2 0.000000 -0.000002 -0.000000 1.570796 -0.000000 0.000000
3 -0.056707 0.000001 -3.094907 -0.000000 -0.000000 0.000000
4 6.833632 1.302324 6.671466 -0.825666 2.576106 -0.000002
5 3.722944 3.007825 -8.531168 -0.745572 -0.534304 1.145938
6 -0.000000 8.563282 -0.000000 -2.463579 0.000002 1.570793
7 -0.000002 0.000000 -0.000000 -2.704896 -0.442717 1.336377
8 -0.000000 0.000001 -0.000000 0.411487 2.092196 0.215023
9 0.000000 3.026594 -0.000001 -2.054581 -0.000004 1.570799
10 -2.657342 -0.365570 -0.324764 -3.073150 0.182981 -0.062496
11 0.000001 0.000000 -0.000000 0.276356 0.485164 -0.714807
12 0.255144 1.885263 0.158540 0.662915 0.374749 -0.615725
13 -0.000011 1.001870 -0.000006 0.295809 2.955640 -0.559961
14 -0.451695 1.213947 -0.058021 -1.434995 0.151216 0.018951
15 -0.000001 -0.000000 0.000000 0.059385 0.467012 -1.153234
16 0.041144 1.052080 0.007036 -0.450748 0.440779 0.749703
17 0.009413 0.707727 -0.012500 1.180722 2.549106 0.816891
18 -0.126651 0.620189 -0.039312 -1.649073 0.166160 -0.011485
19 0.000001 0.000000 0.000000 0.028770 0.491640 -1.321781
20 -0.557213 1.217574 -0.268797 -0.398254 0.108067 1.217402
21 -0.614240 0.830043 -0.117011 0.609167 2.982068 0.369714
22 -0.000003 0.000000 0.000000 -1.691856 0.160586 -0.074781
23 -0.000001 0.000000 -0.000000 0.113639 0.954374 -1.417464
24 -0.578560 1.261245 -0.720627 -0.880124 0.044528 1.438161
25 -0.914569 1.159770 -0.076574 0.501930 3.090157 0.293594
26 -0.093761 -0.657728 0.062875 -1.705938 0.157700 -0.095658
27 0.000002 0.000000 0.000000 0.031726 0.055548 -1.477625
28 -0.886934 1.312078 0.014743 -0.008678 -0.051645 1.338835
29 -0.832539 0.992019 0.047804 0.450486 -3.046901 0.429607
30 -0.000000 8.563282 -0.000000 0.081751 -0.413067 -0.090180
31 0.000000 -0.000001 -0.000000 -0.000000 0.000004 -0.000000
32 -4.654183 -1.415280 6.902198 -0.825666 2.576106 -0.000002
33 -0.000001 0.000000 -0.000000 -0.893906 0.729649 0.026433
34 0.000000 8.543638 0.000001 2.181800 0.000001 1.570796
35 0.000000 0.000000 -0.000000 -1.092888 0.038490 -0.050735
36 -0.000001 -0.000000 0.000000 -0.279086 2.422942 -1.711489
37 0.000000 3.013525 -0.000000 -2.404103 -0.000001 1.570796
38 -2.659014 0.316090 -0.314420 -3.083485 0.263059 -0.047501
39 0.000001 -0.000000 -0.000000 -1.103797 -2.198187 -1.053113
40 0.000009 1.978485 0.000006 0.856489 -0.393698 -0.603070
41 -0.000004 0.982428 -0.000005 0.141909 -0.491002 0.033579
42 -0.089258 0.659884 0.067213 1.657580 0.268134 -0.033754
43 0.498185 -0.076230 0.714166 -0.081477 0.200638 -1.945362
44 0.436935 1.230932 0.187288 0.208783 0.355209 -1.262079
45 -0.000001 0.752466 0.000001 -0.200927 0.245474 -0.490082
46 0.000000 0.000000 -0.000000 1.671850 0.269475 -0.049573
47 0.156320 0.062373 0.322259 0.028256 -0.311786 -1.946861
48 0.233063 1.281152 -0.035405 -0.336100 -0.003110 -1.758144
49 -0.000001 0.943233 0.000000 -0.037750 -0.046925 -0.441089
50 -0.108525 -0.607961 -0.044204 1.694999 0.265808 -0.017787
51 0.006729 -0.037597 0.006616 0.086030 -0.461219 -1.908696
52 -0.057341 1.268699 0.027733 -0.439279 -0.169628 -1.613033
53 0.000000 0.741942 -0.000000 -0.115488 0.117750 -0.144179
54 -0.479803 -1.191699 -0.061834 1.597265 0.268012 0.032300
55 -0.116220 -0.348168 -0.058113 0.484837 -0.804598 -2.601365
56 -0.018439 1.093190 -0.166634 -0.520306 -0.146235 -1.050499
57 -0.000000 0.614692 -0.000000 -1.044945 0.364583 -1.199274
58 0.000000 8.543638 0.000001 0.114853 -0.476246 -0.111333
59 0.000000 0.000001 0.000000 -0.000000 -0.000003 -0.000000
60 -0.547472 -2.773967 1.266111 0.136125 2.208081 -0.203939
61 -0.000000 0.216537 0.000001 0.000694 -0.000000 -0.000000
62 0.122706 11.211333 -3.790611 0.000694 -0.000000 -3.141593
63 0.000000 16.673229 -0.000002 0.023432 3.141593 0.000000
64 0.000000 15.595422 -0.000001 -0.022747 0.000000 0.000000
65 -0.000000 14.075078 -0.000002 -0.013286 0.000000 0.000000
66 0.000000 13.425271 0.000000 -0.014992 0.000000 -0.000000
end
