version 1
nodes
0 "root" -1
end
skeleton
time 0
0 0 0 0 0 0 0
end
triangles
phy
0 -0.5965 -1.4517 -7.5452 0 0 1 0 0 1 0 1.0
0 0.5965 -1.4517 -7.5452 0 0 1 0 0 1 0 1.0
0 0.5965 2.2936 -7.5452 0 0 1 0 0 1 0 1.0
phy
0 -0.5965 -1.4517 -7.5452 0 0 1 0 0 1 0 1.0
0 0.5965 2.2936 -7.5452 0 0 1 0 0 1 0 1.0
0 -0.5965 2.2936 -7.5452 0 0 1 0 0 1 0 1.0
phy
0 -0.5965 -1.4517 0.0000 0 0 1 0 0 1 0 1.0
0 -0.5965 2.2936 0.0000 0 0 1 0 0 1 0 1.0
0 0.5965 2.2936 0.0000 0 0 1 0 0 1 0 1.0
phy
0 -0.5965 -1.4517 0.0000 0 0 1 0 0 1 0 1.0
0 0.5965 2.2936 0.0000 0 0 1 0 0 1 0 1.0
0 0.5965 -1.4517 0.0000 0 0 1 0 0 1 0 1.0
phy
0 -0.5965 -1.4517 -7.5452 0 0 1 0 0 1 0 1.0
0 -0.5965 -1.4517 0.0000 0 0 1 0 0 1 0 1.0
0 0.5965 -1.4517 0.0000 0 0 1 0 0 1 0 1.0
phy
0 -0.5965 -1.4517 -7.5452 0 0 1 0 0 1 0 1.0
0 0.5965 -1.4517 0.0000 0 0 1 0 0 1 0 1.0
0 0.5965 -1.4517 -7.5452 0 0 1 0 0 1 0 1.0
phy
0 0.5965 2.2936 -7.5452 0 0 1 0 0 1 0 1.0
0 0.5965 2.2936 0.0000 0 0 1 0 0 1 0 1.0
0 -0.5965 2.2936 0.0000 0 0 1 0 0 1 0 1.0
phy
0 0.5965 2.2936 -7.5452 0 0 1 0 0 1 0 1.0
0 -0.5965 2.2936 0.0000 0 0 1 0 0 1 0 1.0
0 -0.5965 2.2936 -7.5452 0 0 1 0 0 1 0 1.0
phy
0 -0.5965 -1.4517 -7.5452 0 0 1 0 0 1 0 1.0
0 -0.5965 2.2936 -7.5452 0 0 1 0 0 1 0 1.0
0 -0.5965 2.2936 0.0000 0 0 1 0 0 1 0 1.0
phy
0 -0.5965 -1.4517 -7.5452 0 0 1 0 0 1 0 1.0
0 -0.5965 2.2936 0.0000 0 0 1 0 0 1 0 1.0
0 -0.5965 -1.4517 0.0000 0 0 1 0 0 1 0 1.0
phy
0 0.5965 -1.4517 -7.5452 0 0 1 0 0 1 0 1.0
0 0.5965 -1.4517 0.0000 0 0 1 0 0 1 0 1.0
0 0.5965 2.2936 0.0000 0 0 1 0 0 1 0 1.0
phy
0 0.5965 -1.4517 -7.5452 0 0 1 0 0 1 0 1.0
0 0.5965 2.2936 0.0000 0 0 1 0 0 1 0 1.0
0 0.5965 2.2936 -7.5452 0 0 1 0 0 1 0 1.0
end
