version 1
nodes
0 "root" -1
end
skeleton
time 0
0 0 0 0 0 0 0
end
triangles
phy
0 -0.5521 -0.6391 -5.6323 0 0 1 0 0 1 0 1.0
0 0.8201 -0.6391 -5.6323 0 0 1 0 0 1 0 1.0
0 0.8201 0.3352 -5.6323 0 0 1 0 0 1 0 1.0
phy
0 -0.5521 -0.6391 -5.6323 0 0 1 0 0 1 0 1.0
0 0.8201 0.3352 -5.6323 0 0 1 0 0 1 0 1.0
0 -0.5521 0.3352 -5.6323 0 0 1 0 0 1 0 1.0
phy
0 -0.5521 -0.6391 0.0000 0 0 1 0 0 1 0 1.0
0 -0.5521 0.3352 0.0000 0 0 1 0 0 1 0 1.0
0 0.8201 0.3352 0.0000 0 0 1 0 0 1 0 1.0
phy
0 -0.5521 -0.6391 0.0000 0 0 1 0 0 1 0 1.0
0 0.8201 0.3352 0.0000 0 0 1 0 0 1 0 1.0
0 0.8201 -0.6391 0.0000 0 0 1 0 0 1 0 1.0
phy
0 -0.5521 -0.6391 -5.6323 0 0 1 0 0 1 0 1.0
0 -0.5521 -0.6391 0.0000 0 0 1 0 0 1 0 1.0
0 0.8201 -0.6391 0.0000 0 0 1 0 0 1 0 1.0
phy
0 -0.5521 -0.6391 -5.6323 0 0 1 0 0 1 0 1.0
0 0.8201 -0.6391 0.0000 0 0 1 0 0 1 0 1.0
0 0.8201 -0.6391 -5.6323 0 0 1 0 0 1 0 1.0
phy
0 0.8201 0.3352 -5.6323 0 0 1 0 0 1 0 1.0
0 0.8201 0.3352 0.0000 0 0 1 0 0 1 0 1.0
0 -0.5521 0.3352 0.0000 0 0 1 0 0 1 0 1.0
phy
0 0.8201 0.3352 -5.6323 0 0 1 0 0 1 0 1.0
0 -0.5521 0.3352 0.0000 0 0 1 0 0 1 0 1.0
0 -0.5521 0.3352 -5.6323 0 0 1 0 0 1 0 1.0
phy
0 -0.5521 -0.6391 -5.6323 0 0 1 0 0 1 0 1.0
0 -0.5521 0.3352 -5.6323 0 0 1 0 0 1 0 1.0
0 -0.5521 0.3352 0.0000 0 0 1 0 0 1 0 1.0
phy
0 -0.5521 -0.6391 -5.6323 0 0 1 0 0 1 0 1.0
0 -0.5521 0.3352 0.0000 0 0 1 0 0 1 0 1.0
0 -0.5521 -0.6391 0.0000 0 0 1 0 0 1 0 1.0
phy
0 0.8201 -0.6391 -5.6323 0 0 1 0 0 1 0 1.0
0 0.8201 -0.6391 0.0000 0 0 1 0 0 1 0 1.0
0 0.8201 0.3352 0.0000 0 0 1 0 0 1 0 1.0
phy
0 0.8201 -0.6391 -5.6323 0 0 1 0 0 1 0 1.0
0 0.8201 0.3352 0.0000 0 0 1 0 0 1 0 1.0
0 0.8201 0.3352 -5.6323 0 0 1 0 0 1 0 1.0
end
