version 1
nodes
0 "root" -1
end
skeleton
time 0
0 0 0 0 0 0 0
end
triangles
phy
0 -0.5521 -0.7432 -5.4460 0 0 1 0 0 1 0 1.0
0 0.5521 -0.7432 -5.4460 0 0 1 0 0 1 0 1.0
0 0.5521 0.7432 -5.4460 0 0 1 0 0 1 0 1.0
phy
0 -0.5521 -0.7432 -5.4460 0 0 1 0 0 1 0 1.0
0 0.5521 0.7432 -5.4460 0 0 1 0 0 1 0 1.0
0 -0.5521 0.7432 -5.4460 0 0 1 0 0 1 0 1.0
phy
0 -0.5521 -0.7432 0.0000 0 0 1 0 0 1 0 1.0
0 -0.5521 0.7432 0.0000 0 0 1 0 0 1 0 1.0
0 0.5521 0.7432 0.0000 0 0 1 0 0 1 0 1.0
phy
0 -0.5521 -0.7432 0.0000 0 0 1 0 0 1 0 1.0
0 0.5521 0.7432 0.0000 0 0 1 0 0 1 0 1.0
0 0.5521 -0.7432 0.0000 0 0 1 0 0 1 0 1.0
phy
0 -0.5521 -0.7432 -5.4460 0 0 1 0 0 1 0 1.0
0 -0.5521 -0.7432 0.0000 0 0 1 0 0 1 0 1.0
0 0.5521 -0.7432 0.0000 0 0 1 0 0 1 0 1.0
phy
0 -0.5521 -0.7432 -5.4460 0 0 1 0 0 1 0 1.0
0 0.5521 -0.7432 0.0000 0 0 1 0 0 1 0 1.0
0 0.5521 -0.7432 -5.4460 0 0 1 0 0 1 0 1.0
phy
0 0.5521 0.7432 -5.4460 0 0 1 0 0 1 0 1.0
0 0.5521 0.7432 0.0000 0 0 1 0 0 1 0 1.0
0 -0.5521 0.7432 0.0000 0 0 1 0 0 1 0 1.0
phy
0 0.5521 0.7432 -5.4460 0 0 1 0 0 1 0 1.0
0 -0.5521 0.7432 0.0000 0 0 1 0 0 1 0 1.0
0 -0.5521 0.7432 -5.4460 0 0 1 0 0 1 0 1.0
phy
0 -0.5521 -0.7432 -5.4460 0 0 1 0 0 1 0 1.0
0 -0.5521 0.7432 -5.4460 0 0 1 0 0 1 0 1.0
0 -0.5521 0.7432 0.0000 0 0 1 0 0 1 0 1.0
phy
0 -0.5521 -0.7432 -5.4460 0 0 1 0 0 1 0 1.0
0 -0.5521 0.7432 0.0000 0 0 1 0 0 1 0 1.0
0 -0.5521 -0.7432 0.0000 0 0 1 0 0 1 0 1.0
phy
0 0.5521 -0.7432 -5.4460 0 0 1 0 0 1 0 1.0
0 0.5521 -0.7432 0.0000 0 0 1 0 0 1 0 1.0
0 0.5521 0.7432 0.0000 0 0 1 0 0 1 0 1.0
phy
0 0.5521 -0.7432 -5.4460 0 0 1 0 0 1 0 1.0
0 0.5521 0.7432 0.0000 0 0 1 0 0 1 0 1.0
0 0.5521 0.7432 -5.4460 0 0 1 0 0 1 0 1.0
end
