version 1
nodes
0 "root" -1
end
skeleton
time 0
0 0.000000 0.000000 0.000000 0.000000 0.000000 0.000000
end
triangles
Default
0 0.091958 0.000000 -0.171443 0.865723 -0.187378 0.464355 0.204590 0.981445 1 0 1.0
0 -0.000000 0.000000 0.000000 0.865723 -0.187378 0.464355 0.204590 0.981445 1 0 1.0
0 -0.000000 -0.286329 -0.115530 0.865723 -0.187378 0.464355 0.204590 0.981445 1 0 1.0
Default
0 0.067980 0.000000 -3.368933 0.966309 -0.002186 -0.257812 0.204590 0.981445 1 0 1.0
0 -0.000000 -0.239232 -3.621554 0.966309 -0.002186 -0.257812 0.204590 0.981445 1 0 1.0
0 -0.000000 0.239393 -3.625611 0.966309 -0.002186 -0.257812 0.204590 0.981445 1 0 1.0
Default
0 -0.000000 0.239393 -3.625611 -0.966309 -0.002186 -0.257812 0.204590 0.981445 1 0 1.0
0 -0.000000 -0.239232 -3.621554 -0.966309 -0.002186 -0.257812 0.204590 0.981445 1 0 1.0
0 -0.067980 0.000000 -3.368933 -0.966309 -0.002186 -0.257812 0.204590 0.981445 1 0 1.0
Default
0 -0.091958 0.000000 -0.171443 -0.865723 0.187378 0.464355 0.204590 0.981445 1 0 1.0
0 -0.000000 0.000000 0.000000 -0.865723 0.187378 0.464355 0.204590 0.981445 1 0 1.0
0 -0.000000 0.286329 -0.115530 -0.865723 0.187378 0.464355 0.204590 0.981445 1 0 1.0
Default
0 0.043648 -0.026764 -4.069402 -0.000000 0.000000 1.000000 0.984375 0.763672 1 0 1.0
0 0.000000 0.048836 -4.069402 -0.000000 0.000000 1.000000 0.984375 0.763672 1 0 1.0
0 -0.043648 -0.026764 -4.069402 -0.000000 0.000000 1.000000 0.984375 0.763672 1 0 1.0
Default
0 -0.017459 -0.617343 -4.837099 -0.382568 -0.923340 -0.040070 0.984375 0.763672 1 0 1.0
0 -0.043648 -0.599509 -4.997999 -0.382568 -0.923340 -0.040070 0.984375 0.763672 1 0 1.0
0 -0.043648 -0.586578 -5.295966 -0.382568 -0.923340 -0.040070 0.984375 0.763672 1 0 1.0
Default
0 -0.017459 -0.617343 -4.837099 -0.000000 0.041962 0.999023 0.984375 0.763672 1 0 1.0
0 0.000000 -0.639084 -4.836186 -0.000000 0.041962 0.999023 0.984375 0.763672 1 0 1.0
0 0.017459 -0.617343 -4.837099 -0.000000 0.041962 0.999023 0.984375 0.763672 1 0 1.0
Default
0 0.043648 -0.586578 -5.295966 0.382568 -0.923340 -0.040070 0.984375 0.763672 1 0 1.0
0 0.043648 -0.599509 -4.997999 0.382568 -0.923340 -0.040070 0.984375 0.763672 1 0 1.0
0 0.017459 -0.617343 -4.837099 0.382568 -0.923340 -0.040070 0.984375 0.763672 1 0 1.0
Default
0 -0.017459 -0.617343 -4.837099 -0.933105 0.307373 0.185913 0.984375 0.763672 1 0 1.0
0 -0.043648 -0.515536 -5.136785 -0.933105 0.307373 0.185913 0.984375 0.763672 1 0 1.0
0 -0.043648 -0.599509 -4.997999 -0.933105 0.307373 0.185913 0.984375 0.763672 1 0 1.0
Default
0 0.043648 -0.599509 -4.997999 0.933105 0.307373 0.185913 0.984375 0.763672 1 0 1.0
0 0.043648 -0.515536 -5.136785 0.933105 0.307373 0.185913 0.984375 0.763672 1 0 1.0
0 0.017459 -0.617343 -4.837099 0.933105 0.307373 0.185913 0.984375 0.763672 1 0 1.0
Default
0 0.539659 0.259608 -4.997999 0.942383 -0.333984 -0.028168 0.984375 0.763672 1 0 1.0
0 0.528461 0.253143 -5.295966 0.942383 -0.333984 -0.028168 0.984375 0.763672 1 0 1.0
0 0.550133 0.316055 -5.316868 0.942383 -0.333984 -0.028168 0.984375 0.763672 1 0 1.0
Default
0 0.550133 0.316055 -5.316868 0.942383 -0.333984 -0.028168 0.984375 0.763672 1 0 1.0
0 0.552108 0.317195 -4.836186 0.932129 -0.362061 -0.002972 0.984375 0.763672 1 0 1.0
0 0.542009 0.291205 -4.837099 0.932129 -0.362061 -0.002972 0.984375 0.763672 1 0 1.0
Default
0 0.550133 0.316055 -5.316868 0.992188 -0.126099 0.010269 0.984375 0.763672 1 0 1.0
0 0.542009 0.291205 -4.837099 0.992188 -0.126099 0.010269 0.984375 0.763672 1 0 1.0
0 0.539659 0.259608 -4.997999 0.992188 -0.126099 0.010269 0.984375 0.763672 1 0 1.0
Default
0 0.542009 0.291205 -4.837099 -0.036346 -0.020981 0.999023 0.984375 0.763672 1 0 1.0
0 0.552108 0.317195 -4.836186 -0.036346 -0.020981 0.999023 0.984375 0.763672 1 0 1.0
0 0.524550 0.321445 -4.837099 -0.036346 -0.020981 0.999023 0.984375 0.763672 1 0 1.0
Default
0 0.552108 0.317195 -4.836186 0.189697 0.981934 -0.003109 0.984375 0.763672 1 0 1.0
0 0.550133 0.316055 -5.316868 0.189697 0.981934 -0.003109 0.984375 0.763672 1 0 1.0
0 0.484813 0.328743 -5.295966 0.189697 0.981934 -0.003109 0.984375 0.763672 1 0 1.0
Default
0 0.484813 0.328743 -5.295966 0.395020 0.917969 -0.034760 0.984375 0.763672 1 0 1.0
0 0.496012 0.335208 -4.997999 0.395020 0.917969 -0.034760 0.984375 0.763672 1 0 1.0
0 0.552108 0.317195 -4.836186 0.395020 0.917969 -0.034760 0.984375 0.763672 1 0 1.0
Default
0 0.496012 0.335208 -4.997999 0.150269 0.986816 0.057770 0.984375 0.763672 1 0 1.0
0 0.524550 0.321445 -4.837099 0.150269 0.986816 0.057770 0.984375 0.763672 1 0 1.0
0 0.552108 0.317195 -4.836186 0.150269 0.986816 0.057770 0.984375 0.763672 1 0 1.0
Default
0 0.542009 0.291205 -4.837099 0.200439 -0.961914 0.185913 0.984375 0.763672 1 0 1.0
0 0.466936 0.217621 -5.136785 0.200439 -0.961914 0.185913 0.984375 0.763672 1 0 1.0
0 0.539659 0.259608 -4.997999 0.200439 -0.961914 0.185913 0.984375 0.763672 1 0 1.0
Default
0 0.496012 0.335208 -4.997999 -0.732910 0.654785 0.185913 0.984375 0.763672 1 0 1.0
0 0.423288 0.293221 -5.136785 -0.732910 0.654785 0.185913 0.984375 0.763672 1 0 1.0
0 0.524550 0.321445 -4.837099 -0.732910 0.654785 0.185913 0.984375 0.763672 1 0 1.0
Default
0 -0.484813 0.328742 -5.295966 -0.189697 0.981934 -0.003109 0.984375 0.763672 1 0 1.0
0 -0.550133 0.316055 -5.316868 -0.189697 0.981934 -0.003109 0.984375 0.763672 1 0 1.0
0 -0.552108 0.317195 -4.836186 -0.189697 0.981934 -0.003109 0.984375 0.763672 1 0 1.0
Default
0 -0.552108 0.317195 -4.836186 -0.395020 0.917969 -0.034760 0.984375 0.763672 1 0 1.0
0 -0.496012 0.335208 -4.997999 -0.395020 0.917969 -0.034760 0.984375 0.763672 1 0 1.0
0 -0.484813 0.328742 -5.295966 -0.395020 0.917969 -0.034760 0.984375 0.763672 1 0 1.0
Default
0 -0.552108 0.317195 -4.836186 -0.150269 0.986816 0.057770 0.984375 0.763672 1 0 1.0
0 -0.524550 0.321445 -4.837099 -0.150269 0.986816 0.057770 0.984375 0.763672 1 0 1.0
0 -0.496012 0.335208 -4.997999 -0.150269 0.986816 0.057770 0.984375 0.763672 1 0 1.0
Default
0 -0.524550 0.321445 -4.837099 0.036346 -0.020981 0.999023 0.984375 0.763672 1 0 1.0
0 -0.552108 0.317195 -4.836186 0.036346 -0.020981 0.999023 0.984375 0.763672 1 0 1.0
0 -0.542009 0.291205 -4.837099 0.036346 -0.020981 0.999023 0.984375 0.763672 1 0 1.0
Default
0 -0.550133 0.316055 -5.316868 -0.942383 -0.333984 -0.028168 0.984375 0.763672 1 0 1.0
0 -0.528461 0.253142 -5.295966 -0.942383 -0.333984 -0.028168 0.984375 0.763672 1 0 1.0
0 -0.539659 0.259608 -4.997999 -0.942383 -0.333984 -0.028168 0.984375 0.763672 1 0 1.0
Default
0 -0.542009 0.291205 -4.837099 -0.932129 -0.362061 -0.002972 0.984375 0.763672 1 0 1.0
0 -0.552108 0.317195 -4.836186 -0.932129 -0.362061 -0.002972 0.984375 0.763672 1 0 1.0
0 -0.550133 0.316055 -5.316868 -0.942383 -0.333984 -0.028168 0.984375 0.763672 1 0 1.0
Default
0 -0.539659 0.259608 -4.997999 -0.992188 -0.126099 0.010269 0.984375 0.763672 1 0 1.0
0 -0.542009 0.291205 -4.837099 -0.992188 -0.126099 0.010269 0.984375 0.763672 1 0 1.0
0 -0.550133 0.316055 -5.316868 -0.992188 -0.126099 0.010269 0.984375 0.763672 1 0 1.0
Default
0 -0.524550 0.321445 -4.837099 0.732910 0.654785 0.185913 0.984375 0.763672 1 0 1.0
0 -0.423288 0.293221 -5.136785 0.732910 0.654785 0.185913 0.984375 0.763672 1 0 1.0
0 -0.496012 0.335208 -4.997999 0.732910 0.654785 0.185913 0.984375 0.763672 1 0 1.0
Default
0 -0.539659 0.259608 -4.997999 -0.200439 -0.961914 0.185913 0.984375 0.763672 1 0 1.0
0 -0.466936 0.217621 -5.136785 -0.200439 -0.961914 0.185913 0.984375 0.763672 1 0 1.0
0 -0.542009 0.291205 -4.837099 -0.200439 -0.961914 0.185913 0.984375 0.763672 1 0 1.0
Default
0 -0.000000 0.286329 -0.115530 0.865723 0.187378 0.464355 0.204590 0.981445 1 0 1.0
0 -0.000000 0.000000 0.000000 0.865723 0.187378 0.464355 0.204590 0.981445 1 0 1.0
0 0.091958 0.000000 -0.171443 0.865723 0.187378 0.464355 0.204590 0.981445 1 0 1.0
Default
0 -0.000000 -0.286329 -0.115530 -0.865723 -0.187378 0.464355 0.204590 0.981445 1 0 1.0
0 -0.000000 0.000000 0.000000 -0.865723 -0.187378 0.464355 0.204590 0.981445 1 0 1.0
0 -0.091958 0.000000 -0.171443 -0.865723 -0.187378 0.464355 0.204590 0.981445 1 0 1.0
Default
0 -0.091958 0.000000 -0.171443 -0.973633 -0.223633 0.046570 0.204590 0.981445 1 0 1.0
0 -0.108986 0.000000 -1.019598 -0.973633 -0.223633 0.046570 0.204590 0.981445 1 0 1.0
0 -0.000000 -0.563698 -0.955448 -0.973633 -0.223633 0.046570 0.204590 0.981445 1 0 1.0
Default
0 -0.000000 -0.286329 -0.115530 -0.973633 -0.223633 0.046570 0.204590 0.981445 1 0 1.0
0 -0.091958 0.000000 -0.171443 -0.973633 -0.223633 0.046570 0.204590 0.981445 1 0 1.0
0 -0.000000 -0.563698 -0.955448 -0.973633 -0.223633 0.046570 0.204590 0.981445 1 0 1.0
Default
0 0.091958 0.000000 -0.171443 0.973633 0.223633 0.046570 0.204590 0.981445 1 0 1.0
0 0.108986 0.000000 -1.019598 0.973633 0.223633 0.046570 0.204590 0.981445 1 0 1.0
0 -0.000000 0.563698 -0.955448 0.973633 0.223633 0.046570 0.204590 0.981445 1 0 1.0
Default
0 -0.000000 0.286329 -0.115530 0.973633 0.223633 0.046570 0.204590 0.981445 1 0 1.0
0 0.091958 0.000000 -0.171443 0.973633 0.223633 0.046570 0.204590 0.981445 1 0 1.0
0 -0.000000 0.563698 -0.955448 0.973633 0.223633 0.046570 0.204590 0.981445 1 0 1.0
Default
0 0.124002 0.000000 -3.089588 0.976562 0.137329 -0.164673 0.204590 0.981445 1 0 1.0
0 0.067980 0.000000 -3.368933 0.976562 0.137329 -0.164673 0.204590 0.981445 1 0 1.0
0 -0.000000 0.239393 -3.625611 0.976562 0.137329 -0.164673 0.204590 0.981445 1 0 1.0
Default
0 -0.000000 0.638203 -3.240053 0.976562 0.137329 -0.164673 0.204590 0.981445 1 0 1.0
0 0.124002 0.000000 -3.089588 0.976562 0.137329 -0.164673 0.204590 0.981445 1 0 1.0
0 -0.000000 0.239393 -3.625611 0.976562 0.137329 -0.164673 0.204590 0.981445 1 0 1.0
Default
0 -0.124002 0.000000 -3.089588 -0.976562 -0.137451 -0.165771 0.204590 0.981445 1 0 1.0
0 -0.067980 0.000000 -3.368933 -0.976562 -0.137451 -0.165771 0.204590 0.981445 1 0 1.0
0 -0.000000 -0.239232 -3.621554 -0.976562 -0.137451 -0.165771 0.204590 0.981445 1 0 1.0
Default
0 -0.000000 -0.638203 -3.240053 -0.976562 -0.137451 -0.165771 0.204590 0.981445 1 0 1.0
0 -0.124002 0.000000 -3.089588 -0.976562 -0.137451 -0.165771 0.204590 0.981445 1 0 1.0
0 -0.000000 -0.239232 -3.621554 -0.976562 -0.137451 -0.165771 0.204590 0.981445 1 0 1.0
Default
0 -0.000000 -0.638203 -3.240053 0.976562 -0.137451 -0.165771 0.204590 0.981445 1 0 1.0
0 -0.000000 -0.239232 -3.621554 0.976562 -0.137451 -0.165771 0.204590 0.981445 1 0 1.0
0 0.067980 0.000000 -3.368933 0.976562 -0.137451 -0.165771 0.204590 0.981445 1 0 1.0
Default
0 0.124002 0.000000 -3.089588 0.976562 -0.137451 -0.165771 0.204590 0.981445 1 0 1.0
0 -0.000000 -0.638203 -3.240053 0.976562 -0.137451 -0.165771 0.204590 0.981445 1 0 1.0
0 0.067980 0.000000 -3.368933 0.976562 -0.137451 -0.165771 0.204590 0.981445 1 0 1.0
Default
0 -0.000000 0.638203 -3.240053 -0.976562 0.137329 -0.164673 0.204590 0.981445 1 0 1.0
0 -0.000000 0.239393 -3.625611 -0.976562 0.137329 -0.164673 0.204590 0.981445 1 0 1.0
0 -0.067980 0.000000 -3.368933 -0.976562 0.137329 -0.164673 0.204590 0.981445 1 0 1.0
Default
0 -0.124002 0.000000 -3.089588 -0.976562 0.137329 -0.164673 0.204590 0.981445 1 0 1.0
0 -0.000000 0.638203 -3.240053 -0.976562 0.137329 -0.164673 0.204590 0.981445 1 0 1.0
0 -0.067980 0.000000 -3.368933 -0.976562 0.137329 -0.164673 0.204590 0.981445 1 0 1.0
Default
0 -0.000000 0.286329 -0.115530 -0.973633 0.223633 0.046570 0.204590 0.981445 1 0 1.0
0 -0.000000 0.563698 -0.955448 -0.973633 0.223633 0.046570 0.204590 0.981445 1 0 1.0
0 -0.108986 0.000000 -1.019598 -0.973633 0.223633 0.046570 0.204590 0.981445 1 0 1.0
Default
0 -0.091958 0.000000 -0.171443 -0.973633 0.223633 0.046570 0.204590 0.981445 1 0 1.0
0 -0.000000 0.286329 -0.115530 -0.973633 0.223633 0.046570 0.204590 0.981445 1 0 1.0
0 -0.108986 0.000000 -1.019598 -0.973633 0.223633 0.046570 0.204590 0.981445 1 0 1.0
Default
0 -0.000000 -0.286329 -0.115530 0.973633 -0.223633 0.046570 0.204590 0.981445 1 0 1.0
0 -0.000000 -0.563698 -0.955448 0.973633 -0.223633 0.046570 0.204590 0.981445 1 0 1.0
0 0.108986 0.000000 -1.019598 0.973633 -0.223633 0.046570 0.204590 0.981445 1 0 1.0
Default
0 0.091958 0.000000 -0.171443 0.973633 -0.223633 0.046570 0.204590 0.981445 1 0 1.0
0 -0.000000 -0.286329 -0.115530 0.973633 -0.223633 0.046570 0.204590 0.981445 1 0 1.0
0 0.108986 0.000000 -1.019598 0.973633 -0.223633 0.046570 0.204590 0.981445 1 0 1.0
Default
0 0.048500 0.169719 -3.625091 0.654785 0.654297 -0.378174 0.984375 0.763672 1 0 1.0
0 0.048501 0.000043 -3.918828 0.654785 0.654297 -0.378174 0.984375 0.763672 1 0 1.0
0 0.000003 -0.000086 -4.002828 0.654785 0.654297 -0.378174 0.984375 0.763672 1 0 1.0
Default
0 0.000003 0.242530 -3.583203 0.654785 0.654297 -0.378174 0.984375 0.763672 1 0 1.0
0 0.048500 0.169719 -3.625091 0.654785 0.654297 -0.378174 0.984375 0.763672 1 0 1.0
0 0.000003 -0.000086 -4.002828 0.654785 0.654297 -0.378174 0.984375 0.763672 1 0 1.0
Default
0 -0.048494 0.169719 -3.625091 -0.000000 -0.865723 0.500000 0.984375 0.763672 1 0 1.0
0 -0.048494 0.000043 -3.918828 -0.000000 -0.865723 0.500000 0.984375 0.763672 1 0 1.0
0 0.048501 0.000043 -3.918828 -0.000000 -0.865723 0.500000 0.984375 0.763672 1 0 1.0
Default
0 0.048500 0.169719 -3.625091 -0.000000 -0.865723 0.500000 0.984375 0.763672 1 0 1.0
0 -0.048494 0.169719 -3.625091 -0.000000 -0.865723 0.500000 0.984375 0.763672 1 0 1.0
0 0.048501 0.000043 -3.918828 -0.000000 -0.865723 0.500000 0.984375 0.763672 1 0 1.0
Default
0 0.000003 0.242530 -3.583203 -0.654785 0.654297 -0.378174 0.984375 0.763672 1 0 1.0
0 0.000003 -0.000086 -4.002828 -0.654785 0.654297 -0.378174 0.984375 0.763672 1 0 1.0
0 -0.048494 0.000043 -3.918828 -0.654785 0.654297 -0.378174 0.984375 0.763672 1 0 1.0
Default
0 -0.048494 0.169719 -3.625091 -0.654785 0.654297 -0.378174 0.984375 0.763672 1 0 1.0
0 0.000003 0.242530 -3.583203 -0.654785 0.654297 -0.378174 0.984375 0.763672 1 0 1.0
0 -0.048494 0.000043 -3.918828 -0.654785 0.654297 -0.378174 0.984375 0.763672 1 0 1.0
Default
0 0.048501 -0.169762 -3.624566 0.654785 0.001168 0.755859 0.984375 0.763672 1 0 1.0
0 0.048500 0.169719 -3.625091 0.654785 0.001168 0.755859 0.984375 0.763672 1 0 1.0
0 0.000003 0.242530 -3.583203 0.654785 0.001168 0.755859 0.984375 0.763672 1 0 1.0
Default
0 0.000003 -0.242444 -3.582454 0.654785 0.001168 0.755859 0.984375 0.763672 1 0 1.0
0 0.048501 -0.169762 -3.624566 0.654785 0.001168 0.755859 0.984375 0.763672 1 0 1.0
0 0.000003 0.242530 -3.583203 0.654785 0.001168 0.755859 0.984375 0.763672 1 0 1.0
Default
0 -0.048494 -0.169762 -3.624566 -0.000000 -0.001545 -1.000000 0.984375 0.763672 1 0 1.0
0 -0.048494 0.169719 -3.625091 -0.000000 -0.001545 -1.000000 0.984375 0.763672 1 0 1.0
0 0.048500 0.169719 -3.625091 -0.000000 -0.001545 -1.000000 0.984375 0.763672 1 0 1.0
Default
0 0.048501 -0.169762 -3.624566 -0.000000 -0.001545 -1.000000 0.984375 0.763672 1 0 1.0
0 -0.048494 -0.169762 -3.624566 -0.000000 -0.001545 -1.000000 0.984375 0.763672 1 0 1.0
0 0.048500 0.169719 -3.625091 -0.000000 -0.001545 -1.000000 0.984375 0.763672 1 0 1.0
Default
0 0.000003 -0.242444 -3.582454 -0.654785 0.001168 0.755859 0.984375 0.763672 1 0 1.0
0 0.000003 0.242530 -3.583203 -0.654785 0.001168 0.755859 0.984375 0.763672 1 0 1.0
0 -0.048494 0.169719 -3.625091 -0.654785 0.001168 0.755859 0.984375 0.763672 1 0 1.0
Default
0 -0.048494 -0.169762 -3.624566 -0.654785 0.001168 0.755859 0.984375 0.763672 1 0 1.0
0 0.000003 -0.242444 -3.582454 -0.654785 0.001168 0.755859 0.984375 0.763672 1 0 1.0
0 -0.048494 0.169719 -3.625091 -0.654785 0.001168 0.755859 0.984375 0.763672 1 0 1.0
Default
0 0.048501 0.000043 -3.918828 0.654785 -0.654785 -0.377686 0.984375 0.763672 1 0 1.0
0 0.048501 -0.169762 -3.624566 0.654785 -0.654785 -0.377686 0.984375 0.763672 1 0 1.0
0 0.000003 -0.242444 -3.582454 0.654785 -0.654785 -0.377686 0.984375 0.763672 1 0 1.0
Default
0 0.000003 -0.000086 -4.002828 0.654785 -0.654785 -0.377686 0.984375 0.763672 1 0 1.0
0 0.048501 0.000043 -3.918828 0.654785 -0.654785 -0.377686 0.984375 0.763672 1 0 1.0
0 0.000003 -0.242444 -3.582454 0.654785 -0.654785 -0.377686 0.984375 0.763672 1 0 1.0
Default
0 -0.048494 0.000043 -3.918828 -0.000000 0.866211 0.499756 0.984375 0.763672 1 0 1.0
0 -0.048494 -0.169762 -3.624566 -0.000000 0.866211 0.499756 0.984375 0.763672 1 0 1.0
0 0.048501 -0.169762 -3.624566 -0.000000 0.866211 0.499756 0.984375 0.763672 1 0 1.0
Default
0 0.048501 0.000043 -3.918828 -0.000000 0.866211 0.499756 0.984375 0.763672 1 0 1.0
0 -0.048494 0.000043 -3.918828 -0.000000 0.866211 0.499756 0.984375 0.763672 1 0 1.0
0 0.048501 -0.169762 -3.624566 -0.000000 0.866211 0.499756 0.984375 0.763672 1 0 1.0
Default
0 0.000003 -0.000086 -4.002828 -0.654785 -0.654785 -0.377686 0.984375 0.763672 1 0 1.0
0 0.000003 -0.242444 -3.582454 -0.654785 -0.654785 -0.377686 0.984375 0.763672 1 0 1.0
0 -0.048494 -0.169762 -3.624566 -0.654785 -0.654785 -0.377686 0.984375 0.763672 1 0 1.0
Default
0 -0.048494 0.000043 -3.918828 -0.654785 -0.654785 -0.377686 0.984375 0.763672 1 0 1.0
0 0.000003 -0.000086 -4.002828 -0.654785 -0.654785 -0.377686 0.984375 0.763672 1 0 1.0
0 -0.048494 -0.169762 -3.624566 -0.654785 -0.654785 -0.377686 0.984375 0.763672 1 0 1.0
Default
0 0.169744 -0.038937 -3.848106 0.654785 -0.654785 -0.377930 0.984375 0.763672 1 0 1.0
0 0.000003 -0.038937 -4.142106 0.654785 -0.654785 -0.377930 0.984375 0.763672 1 0 1.0
0 0.000003 0.009560 -4.226106 0.654785 -0.654785 -0.377930 0.984375 0.763672 1 0 1.0
Default
0 0.242490 0.009561 -3.806106 0.654785 -0.654785 -0.377930 0.984375 0.763672 1 0 1.0
0 0.169744 -0.038937 -3.848106 0.654785 -0.654785 -0.377930 0.984375 0.763672 1 0 1.0
0 0.000003 0.009560 -4.226106 0.654785 -0.654785 -0.377930 0.984375 0.763672 1 0 1.0
Default
0 0.169744 0.058058 -3.848106 -0.866211 0.000000 0.500000 0.984375 0.763672 1 0 1.0
0 0.000003 0.058058 -4.142106 -0.866211 0.000000 0.500000 0.984375 0.763672 1 0 1.0
0 0.000003 -0.038937 -4.142106 -0.866211 0.000000 0.500000 0.984375 0.763672 1 0 1.0
Default
0 0.169744 -0.038937 -3.848106 -0.866211 0.000000 0.500000 0.984375 0.763672 1 0 1.0
0 0.169744 0.058058 -3.848106 -0.866211 0.000000 0.500000 0.984375 0.763672 1 0 1.0
0 0.000003 -0.038937 -4.142106 -0.866211 0.000000 0.500000 0.984375 0.763672 1 0 1.0
Default
0 0.242490 0.009561 -3.806106 0.654785 0.654785 -0.377930 0.984375 0.763672 1 0 1.0
0 0.000003 0.009560 -4.226106 0.654785 0.654785 -0.377930 0.984375 0.763672 1 0 1.0
0 0.000003 0.058058 -4.142106 0.654785 0.654785 -0.377930 0.984375 0.763672 1 0 1.0
Default
0 0.169744 0.058058 -3.848106 0.654785 0.654785 -0.377930 0.984375 0.763672 1 0 1.0
0 0.242490 0.009561 -3.806106 0.654785 0.654785 -0.377930 0.984375 0.763672 1 0 1.0
0 0.000003 0.058058 -4.142106 0.654785 0.654785 -0.377930 0.984375 0.763672 1 0 1.0
Default
0 -0.169738 -0.038937 -3.848106 -0.000000 -0.654785 0.755859 0.984375 0.763672 1 0 1.0
0 0.169744 -0.038937 -3.848106 -0.000000 -0.654785 0.755859 0.984375 0.763672 1 0 1.0
0 0.242490 0.009561 -3.806106 -0.000000 -0.654785 0.755859 0.984375 0.763672 1 0 1.0
Default
0 -0.242484 0.009560 -3.806106 -0.000000 -0.654785 0.755859 0.984375 0.763672 1 0 1.0
0 -0.169738 -0.038937 -3.848106 -0.000000 -0.654785 0.755859 0.984375 0.763672 1 0 1.0
0 0.242490 0.009561 -3.806106 -0.000000 -0.654785 0.755859 0.984375 0.763672 1 0 1.0
Default
0 -0.169738 0.058058 -3.848106 -0.000000 0.000000 -1.000000 0.984375 0.763672 1 0 1.0
0 0.169744 0.058058 -3.848106 -0.000000 0.000000 -1.000000 0.984375 0.763672 1 0 1.0
0 0.169744 -0.038937 -3.848106 -0.000000 0.000000 -1.000000 0.984375 0.763672 1 0 1.0
Default
0 -0.169738 -0.038937 -3.848106 -0.000000 0.000000 -1.000000 0.984375 0.763672 1 0 1.0
0 -0.169738 0.058058 -3.848106 -0.000000 0.000000 -1.000000 0.984375 0.763672 1 0 1.0
0 0.169744 -0.038937 -3.848106 -0.000000 0.000000 -1.000000 0.984375 0.763672 1 0 1.0
Default
0 -0.242484 0.009560 -3.806106 -0.000000 0.654785 0.755859 0.984375 0.763672 1 0 1.0
0 0.242490 0.009561 -3.806106 -0.000000 0.654785 0.755859 0.984375 0.763672 1 0 1.0
0 0.169744 0.058058 -3.848106 -0.000000 0.654785 0.755859 0.984375 0.763672 1 0 1.0
Default
0 -0.169738 0.058058 -3.848106 -0.000000 0.654785 0.755859 0.984375 0.763672 1 0 1.0
0 -0.242484 0.009560 -3.806106 -0.000000 0.654785 0.755859 0.984375 0.763672 1 0 1.0
0 0.169744 0.058058 -3.848106 -0.000000 0.654785 0.755859 0.984375 0.763672 1 0 1.0
Default
0 0.000003 -0.038937 -4.142106 -0.654785 -0.654785 -0.377930 0.984375 0.763672 1 0 1.0
0 -0.169738 -0.038937 -3.848106 -0.654785 -0.654785 -0.377930 0.984375 0.763672 1 0 1.0
0 -0.242484 0.009560 -3.806106 -0.654785 -0.654785 -0.377930 0.984375 0.763672 1 0 1.0
Default
0 0.000003 0.009560 -4.226106 -0.654785 -0.654785 -0.377930 0.984375 0.763672 1 0 1.0
0 0.000003 -0.038937 -4.142106 -0.654785 -0.654785 -0.377930 0.984375 0.763672 1 0 1.0
0 -0.242484 0.009560 -3.806106 -0.654785 -0.654785 -0.377930 0.984375 0.763672 1 0 1.0
Default
0 0.000003 0.058058 -4.142106 0.866211 0.000000 0.500000 0.984375 0.763672 1 0 1.0
0 -0.169738 0.058058 -3.848106 0.866211 0.000000 0.500000 0.984375 0.763672 1 0 1.0
0 -0.169738 -0.038937 -3.848106 0.866211 0.000000 0.500000 0.984375 0.763672 1 0 1.0
Default
0 0.000003 -0.038937 -4.142106 0.866211 0.000000 0.500000 0.984375 0.763672 1 0 1.0
0 0.000003 0.058058 -4.142106 0.866211 0.000000 0.500000 0.984375 0.763672 1 0 1.0
0 -0.169738 -0.038937 -3.848106 0.866211 0.000000 0.500000 0.984375 0.763672 1 0 1.0
Default
0 0.000003 0.009560 -4.226106 -0.654785 0.654785 -0.377930 0.984375 0.763672 1 0 1.0
0 -0.242484 0.009560 -3.806106 -0.654785 0.654785 -0.377930 0.984375 0.763672 1 0 1.0
0 -0.169738 0.058058 -3.848106 -0.654785 0.654785 -0.377930 0.984375 0.763672 1 0 1.0
Default
0 0.000003 0.058058 -4.142106 -0.654785 0.654785 -0.377930 0.984375 0.763672 1 0 1.0
0 0.000003 0.009560 -4.226106 -0.654785 0.654785 -0.377930 0.984375 0.763672 1 0 1.0
0 -0.169738 0.058058 -3.848106 -0.654785 0.654785 -0.377930 0.984375 0.763672 1 0 1.0
Default
0 -0.000000 -0.197463 -5.432190 -0.765137 0.457520 -0.453369 0.984375 0.763672 1 0 1.0
0 -0.043648 -0.222663 -5.383978 -0.765137 0.457520 -0.453369 0.984375 0.763672 1 0 1.0
0 -0.043648 -0.026764 -5.186250 -0.766113 0.450439 -0.458252 0.984375 0.763672 1 0 1.0
Default
0 -0.000000 -0.001564 -5.234462 -0.766113 0.450439 -0.458252 0.984375 0.763672 1 0 1.0
0 -0.000000 -0.197463 -5.432190 -0.765137 0.457520 -0.453369 0.984375 0.763672 1 0 1.0
0 -0.043648 -0.026764 -5.186250 -0.766113 0.450439 -0.458252 0.984375 0.763672 1 0 1.0
Default
0 -0.000000 0.048836 -5.186250 -0.767578 0.443115 -0.463135 0.984375 0.763672 1 0 1.0
0 -0.000000 -0.001564 -5.234462 -0.766113 0.450439 -0.458252 0.984375 0.763672 1 0 1.0
0 -0.043648 -0.026764 -5.186250 -0.766113 0.450439 -0.458252 0.984375 0.763672 1 0 1.0
Default
0 -0.000000 0.048836 -5.186250 -0.767578 0.443115 -0.463135 0.984375 0.763672 1 0 1.0
0 0.169653 0.146785 -5.383978 -0.778809 0.433594 -0.453369 0.984375 0.763672 1 0 1.0
0 -0.000000 -0.001564 -5.234462 -0.766113 0.450439 -0.458252 0.984375 0.763672 1 0 1.0
Default
0 0.169653 0.146785 -5.383978 -0.778809 0.433594 -0.453369 0.984375 0.763672 1 0 1.0
0 0.169653 0.096385 -5.432190 -0.778809 0.433594 -0.453369 0.984375 0.763672 1 0 1.0
0 -0.000000 -0.001564 -5.234462 -0.766113 0.450439 -0.458252 0.984375 0.763672 1 0 1.0
Default
0 -0.000000 0.048836 -5.186250 -0.866211 0.500000 0.000000 0.984375 0.763672 1 0 1.0
0 -0.043648 -0.026764 -5.186250 -0.866211 0.500000 0.000000 0.984375 0.763672 1 0 1.0
0 -0.043648 -0.026764 -4.069402 -0.866211 0.500000 0.000000 0.984375 0.763672 1 0 1.0
Default
0 0.000000 0.048836 -4.069402 -0.866211 0.500000 0.000000 0.984375 0.763672 1 0 1.0
0 -0.000000 0.048836 -5.186250 -0.866211 0.500000 0.000000 0.984375 0.763672 1 0 1.0
0 -0.043648 -0.026764 -4.069402 -0.866211 0.500000 0.000000 0.984375 0.763672 1 0 1.0
Default
0 -0.043648 -0.026764 -5.186250 -0.000000 -1.000000 0.000000 0.984375 0.763672 1 0 1.0
0 0.043648 -0.026764 -5.186250 -0.000000 -1.000000 0.000000 0.984375 0.763672 1 0 1.0
0 0.043648 -0.026764 -4.069402 -0.000000 -1.000000 0.000000 0.984375 0.763672 1 0 1.0
Default
0 -0.043648 -0.026764 -4.069402 -0.000000 -1.000000 0.000000 0.984375 0.763672 1 0 1.0
0 -0.043648 -0.026764 -5.186250 -0.000000 -1.000000 0.000000 0.984375 0.763672 1 0 1.0
0 0.043648 -0.026764 -4.069402 -0.000000 -1.000000 0.000000 0.984375 0.763672 1 0 1.0
Default
0 0.043648 -0.026764 -5.186250 0.866211 0.500000 0.000000 0.984375 0.763672 1 0 1.0
0 -0.000000 0.048836 -5.186250 0.866211 0.500000 0.000000 0.984375 0.763672 1 0 1.0
0 0.000000 0.048836 -4.069402 0.866211 0.500000 0.000000 0.984375 0.763672 1 0 1.0
Default
0 0.043648 -0.026764 -4.069402 0.866211 0.500000 0.000000 0.984375 0.763672 1 0 1.0
0 0.043648 -0.026764 -5.186250 0.866211 0.500000 0.000000 0.984375 0.763672 1 0 1.0
0 0.000000 0.048836 -4.069402 0.866211 0.500000 0.000000 0.984375 0.763672 1 0 1.0
Default
0 -0.000000 -0.442166 -5.445982 -0.764648 0.029892 -0.644043 0.984375 0.763672 1 0 1.0
0 -0.043648 -0.439884 -5.391629 -0.764648 0.029892 -0.644043 0.984375 0.763672 1 0 1.0
0 -0.043648 -0.222663 -5.383978 -0.764648 0.029892 -0.644043 0.984375 0.763672 1 0 1.0
Default
0 -0.000000 -0.197463 -5.432190 -0.764648 0.029892 -0.644043 0.984375 0.763672 1 0 1.0
0 -0.000000 -0.442166 -5.445982 -0.764648 0.029892 -0.644043 0.984375 0.763672 1 0 1.0
0 -0.043648 -0.222663 -5.383978 -0.764648 0.029892 -0.644043 0.984375 0.763672 1 0 1.0
Default
0 0.043648 -0.222663 -5.383978 0.765137 0.457520 -0.453369 0.984375 0.763672 1 0 1.0
0 -0.000000 -0.197463 -5.432190 0.765137 0.457520 -0.453369 0.984375 0.763672 1 0 1.0
0 -0.000000 -0.001564 -5.234462 0.766113 0.450439 -0.458252 0.984375 0.763672 1 0 1.0
Default
0 0.043648 -0.026764 -5.186250 0.766113 0.450439 -0.458252 0.984375 0.763672 1 0 1.0
0 0.043648 -0.222663 -5.383978 0.765137 0.457520 -0.453369 0.984375 0.763672 1 0 1.0
0 -0.000000 -0.001564 -5.234462 0.766113 0.450439 -0.458252 0.984375 0.763672 1 0 1.0
Default
0 0.043648 -0.026764 -5.186250 0.766113 0.450439 -0.458252 0.984375 0.763672 1 0 1.0
0 -0.000000 -0.001564 -5.234462 0.766113 0.450439 -0.458252 0.984375 0.763672 1 0 1.0
0 -0.000000 0.048836 -5.186250 0.767578 0.443115 -0.463135 0.984375 0.763672 1 0 1.0
Default
0 -0.000000 -0.001564 -5.234462 0.766113 0.450439 -0.458252 0.984375 0.763672 1 0 1.0
0 -0.169653 0.096385 -5.432190 0.778809 0.433594 -0.453369 0.984375 0.763672 1 0 1.0
0 -0.000000 0.048836 -5.186250 0.767578 0.443115 -0.463135 0.984375 0.763672 1 0 1.0
Default
0 -0.169653 0.096385 -5.432190 0.778809 0.433594 -0.453369 0.984375 0.763672 1 0 1.0
0 -0.169653 0.146785 -5.383978 0.778809 0.433594 -0.453369 0.984375 0.763672 1 0 1.0
0 -0.000000 0.048836 -5.186250 0.767578 0.443115 -0.463135 0.984375 0.763672 1 0 1.0
Default
0 -0.043648 -0.222663 -5.383978 -0.000000 -0.710449 0.703613 0.984375 0.763672 1 0 1.0
0 0.043648 -0.222663 -5.383978 -0.000000 -0.710449 0.703613 0.984375 0.763672 1 0 1.0
0 0.043648 -0.026764 -5.186250 -0.000000 -0.710449 0.703613 0.984375 0.763672 1 0 1.0
Default
0 -0.043648 -0.026764 -5.186250 -0.000000 -0.710449 0.703613 0.984375 0.763672 1 0 1.0
0 -0.043648 -0.222663 -5.383978 -0.000000 -0.710449 0.703613 0.984375 0.763672 1 0 1.0
0 0.043648 -0.026764 -5.186250 -0.000000 -0.710449 0.703613 0.984375 0.763672 1 0 1.0
Default
0 -0.000000 -0.636803 -5.316868 -0.724609 -0.379150 -0.575684 0.984375 0.763672 1 0 1.0
0 -0.043648 -0.586578 -5.295966 -0.724609 -0.379150 -0.575684 0.984375 0.763672 1 0 1.0
0 -0.043648 -0.439884 -5.391629 -0.724609 -0.379150 -0.575684 0.984375 0.763672 1 0 1.0
Default
0 -0.000000 -0.442166 -5.445982 -0.724609 -0.379150 -0.575684 0.984375 0.763672 1 0 1.0
0 -0.000000 -0.636803 -5.316868 -0.724609 -0.379150 -0.575684 0.984375 0.763672 1 0 1.0
0 -0.043648 -0.439884 -5.391629 -0.724609 -0.379150 -0.575684 0.984375 0.763672 1 0 1.0
Default
0 0.043648 -0.439884 -5.391629 0.764648 0.029892 -0.644043 0.984375 0.763672 1 0 1.0
0 -0.000000 -0.442166 -5.445982 0.764648 0.029892 -0.644043 0.984375 0.763672 1 0 1.0
0 -0.000000 -0.197463 -5.432190 0.764648 0.029892 -0.644043 0.984375 0.763672 1 0 1.0
Default
0 0.043648 -0.222663 -5.383978 0.764648 0.029892 -0.644043 0.984375 0.763672 1 0 1.0
0 0.043648 -0.439884 -5.391629 0.764648 0.029892 -0.644043 0.984375 0.763672 1 0 1.0
0 -0.000000 -0.197463 -5.432190 0.764648 0.029892 -0.644043 0.984375 0.763672 1 0 1.0
Default
0 -0.043648 -0.439884 -5.391629 -0.000000 -0.035187 0.999512 0.984375 0.763672 1 0 1.0
0 0.043648 -0.439884 -5.391629 -0.000000 -0.035187 0.999512 0.984375 0.763672 1 0 1.0
0 0.043648 -0.222663 -5.383978 -0.000000 -0.035187 0.999512 0.984375 0.763672 1 0 1.0
Default
0 -0.043648 -0.222663 -5.383978 -0.000000 -0.035187 0.999512 0.984375 0.763672 1 0 1.0
0 -0.043648 -0.439884 -5.391629 -0.000000 -0.035187 0.999512 0.984375 0.763672 1 0 1.0
0 0.043648 -0.222663 -5.383978 -0.000000 -0.035187 0.999512 0.984375 0.763672 1 0 1.0
Default
0 -0.000000 -0.636803 -5.316868 -0.767578 -0.641113 -0.001924 0.984375 0.763672 1 0 1.0
0 0.000000 -0.639084 -4.836186 -0.779785 -0.625977 -0.002972 0.984375 0.763672 1 0 1.0
0 -0.017459 -0.617343 -4.837099 -0.767578 -0.641113 -0.001924 0.984375 0.763672 1 0 1.0
Default
0 -0.017459 -0.617343 -4.837099 -0.767578 -0.641113 -0.001924 0.984375 0.763672 1 0 1.0
0 -0.043648 -0.586578 -5.295966 -0.754883 -0.655762 -0.000875 0.984375 0.763672 1 0 1.0
0 -0.000000 -0.636803 -5.316868 -0.767578 -0.641113 -0.001924 0.984375 0.763672 1 0 1.0
Default
0 0.043648 -0.586578 -5.295966 0.724609 -0.379150 -0.575684 0.984375 0.763672 1 0 1.0
0 -0.000000 -0.636803 -5.316868 0.724609 -0.379150 -0.575684 0.984375 0.763672 1 0 1.0
0 -0.000000 -0.442166 -5.445982 0.724609 -0.379150 -0.575684 0.984375 0.763672 1 0 1.0
Default
0 0.043648 -0.439884 -5.391629 0.724609 -0.379150 -0.575684 0.984375 0.763672 1 0 1.0
0 0.043648 -0.586578 -5.295966 0.724609 -0.379150 -0.575684 0.984375 0.763672 1 0 1.0
0 -0.000000 -0.442166 -5.445982 0.724609 -0.379150 -0.575684 0.984375 0.763672 1 0 1.0
Default
0 -0.043648 -0.586578 -5.295966 -0.000000 0.546387 0.837402 0.984375 0.763672 1 0 1.0
0 0.043648 -0.586578 -5.295966 -0.000000 0.546387 0.837402 0.984375 0.763672 1 0 1.0
0 0.043648 -0.439884 -5.391629 -0.000000 0.546387 0.837402 0.984375 0.763672 1 0 1.0
Default
0 -0.043648 -0.439884 -5.391629 -0.000000 0.546387 0.837402 0.984375 0.763672 1 0 1.0
0 -0.043648 -0.586578 -5.295966 -0.000000 0.546387 0.837402 0.984375 0.763672 1 0 1.0
0 0.043648 -0.439884 -5.391629 -0.000000 0.546387 0.837402 0.984375 0.763672 1 0 1.0
Default
0 0.017459 -0.617343 -4.837099 0.767578 -0.641113 -0.001924 0.984375 0.763672 1 0 1.0
0 0.000000 -0.639084 -4.836186 0.779785 -0.625977 -0.002972 0.984375 0.763672 1 0 1.0
0 -0.000000 -0.636803 -5.316868 0.767578 -0.641113 -0.001924 0.984375 0.763672 1 0 1.0
Default
0 -0.000000 -0.636803 -5.316868 0.767578 -0.641113 -0.001924 0.984375 0.763672 1 0 1.0
0 0.043648 -0.586578 -5.295966 0.754883 -0.655762 -0.000875 0.984375 0.763672 1 0 1.0
0 0.017459 -0.617343 -4.837099 0.767578 -0.641113 -0.001924 0.984375 0.763672 1 0 1.0
Default
0 -0.043648 -0.599509 -4.997999 -0.000000 0.999023 0.043365 0.984375 0.763672 1 0 1.0
0 0.043648 -0.599509 -4.997999 -0.000000 0.999023 0.043365 0.984375 0.763672 1 0 1.0
0 0.043648 -0.586578 -5.295966 -0.000000 0.999023 0.043365 0.984375 0.763672 1 0 1.0
Default
0 -0.043648 -0.586578 -5.295966 -0.000000 0.999023 0.043365 0.984375 0.763672 1 0 1.0
0 -0.043648 -0.599509 -4.997999 -0.000000 0.999023 0.043365 0.984375 0.763672 1 0 1.0
0 0.043648 -0.586578 -5.295966 -0.000000 0.999023 0.043365 0.984375 0.763672 1 0 1.0
Default
0 -0.017459 -0.617343 -4.837099 -0.000000 0.946777 0.321777 0.984375 0.763672 1 0 1.0
0 0.017459 -0.617343 -4.837099 -0.000000 0.946777 0.321777 0.984375 0.763672 1 0 1.0
0 0.043648 -0.515536 -5.136785 -0.000000 0.946777 0.321777 0.984375 0.763672 1 0 1.0
Default
0 -0.043648 -0.515536 -5.136785 -0.000000 0.946777 0.321777 0.984375 0.763672 1 0 1.0
0 -0.017459 -0.617343 -4.837099 -0.000000 0.946777 0.321777 0.984375 0.763672 1 0 1.0
0 0.043648 -0.515536 -5.136785 -0.000000 0.946777 0.321777 0.984375 0.763672 1 0 1.0
Default
0 -0.043648 -0.515536 -5.136785 -0.000000 -0.855469 -0.517578 0.984375 0.763672 1 0 1.0
0 0.043648 -0.515536 -5.136785 -0.000000 -0.855469 -0.517578 0.984375 0.763672 1 0 1.0
0 0.043648 -0.599509 -4.997999 -0.000000 -0.855469 -0.517578 0.984375 0.763672 1 0 1.0
Default
0 -0.043648 -0.599509 -4.997999 -0.000000 -0.855469 -0.517578 0.984375 0.763672 1 0 1.0
0 -0.043648 -0.515536 -5.136785 -0.000000 -0.855469 -0.517578 0.984375 0.763672 1 0 1.0
0 0.043648 -0.599509 -4.997999 -0.000000 -0.855469 -0.517578 0.984375 0.763672 1 0 1.0
Default
0 0.169653 0.096385 -5.432190 -0.013809 -0.891113 -0.453369 0.984375 0.763672 1 0 1.0
0 0.213301 0.071185 -5.383978 -0.013809 -0.891113 -0.453369 0.984375 0.763672 1 0 1.0
0 0.043648 -0.026764 -5.186250 -0.013809 -0.891113 -0.453369 0.984375 0.763672 1 0 1.0
Default
0 -0.000000 -0.001564 -5.234462 -0.013809 -0.891113 -0.453369 0.984375 0.763672 1 0 1.0
0 0.169653 0.096385 -5.432190 -0.013809 -0.891113 -0.453369 0.984375 0.763672 1 0 1.0
0 0.043648 -0.026764 -5.186250 -0.013809 -0.891113 -0.453369 0.984375 0.763672 1 0 1.0
Default
0 -0.213301 0.071185 -5.383978 0.013809 -0.891113 -0.453369 0.984375 0.763672 1 0 1.0
0 -0.169653 0.096385 -5.432190 0.013809 -0.891113 -0.453369 0.984375 0.763672 1 0 1.0
0 -0.000000 -0.001564 -5.234462 -0.013809 -0.891113 -0.453369 0.984375 0.763672 1 0 1.0
Default
0 -0.043648 -0.026764 -5.186250 0.013809 -0.891113 -0.453369 0.984375 0.763672 1 0 1.0
0 -0.213301 0.071185 -5.383978 0.013809 -0.891113 -0.453369 0.984375 0.763672 1 0 1.0
0 -0.000000 -0.001564 -5.234462 -0.013809 -0.891113 -0.453369 0.984375 0.763672 1 0 1.0
Default
0 0.381572 0.218736 -5.445982 0.356445 -0.676758 -0.644043 0.984375 0.763672 1 0 1.0
0 0.401419 0.179795 -5.391629 0.356445 -0.676758 -0.644043 0.984375 0.763672 1 0 1.0
0 0.213301 0.071185 -5.383978 0.356445 -0.676758 -0.644043 0.984375 0.763672 1 0 1.0
Default
0 0.169653 0.096385 -5.432190 0.356445 -0.676758 -0.644043 0.984375 0.763672 1 0 1.0
0 0.381572 0.218736 -5.445982 0.356445 -0.676758 -0.644043 0.984375 0.763672 1 0 1.0
0 0.213301 0.071185 -5.383978 0.356445 -0.676758 -0.644043 0.984375 0.763672 1 0 1.0
Default
0 0.213301 0.071185 -5.383978 0.615234 0.355225 0.703613 0.984375 0.763672 1 0 1.0
0 0.169653 0.146785 -5.383978 0.615234 0.355225 0.703613 0.984375 0.763672 1 0 1.0
0 -0.000000 0.048836 -5.186250 0.615234 0.355225 0.703613 0.984375 0.763672 1 0 1.0
Default
0 0.043648 -0.026764 -5.186250 0.615234 0.355225 0.703613 0.984375 0.763672 1 0 1.0
0 0.213301 0.071185 -5.383978 0.615234 0.355225 0.703613 0.984375 0.763672 1 0 1.0
0 -0.000000 0.048836 -5.186250 0.615234 0.355225 0.703613 0.984375 0.763672 1 0 1.0
Default
0 0.550133 0.316055 -5.316868 0.690430 -0.437744 -0.575684 0.984375 0.763672 1 0 1.0
0 0.528461 0.253143 -5.295966 0.690430 -0.437744 -0.575684 0.984375 0.763672 1 0 1.0
0 0.401419 0.179795 -5.391629 0.690430 -0.437744 -0.575684 0.984375 0.763672 1 0 1.0
Default
0 0.381572 0.218736 -5.445982 0.690430 -0.437744 -0.575684 0.984375 0.763672 1 0 1.0
0 0.550133 0.316055 -5.316868 0.690430 -0.437744 -0.575684 0.984375 0.763672 1 0 1.0
0 0.401419 0.179795 -5.391629 0.690430 -0.437744 -0.575684 0.984375 0.763672 1 0 1.0
Default
0 0.357772 0.255395 -5.391629 -0.408203 0.646973 -0.644043 0.984375 0.763672 1 0 1.0
0 0.381572 0.218736 -5.445982 -0.408203 0.646973 -0.644043 0.984375 0.763672 1 0 1.0
0 0.169653 0.096385 -5.432190 -0.408203 0.646973 -0.644043 0.984375 0.763672 1 0 1.0
Default
0 0.169653 0.146785 -5.383978 -0.408203 0.646973 -0.644043 0.984375 0.763672 1 0 1.0
0 0.357772 0.255395 -5.391629 -0.408203 0.646973 -0.644043 0.984375 0.763672 1 0 1.0
0 0.169653 0.096385 -5.432190 -0.408203 0.646973 -0.644043 0.984375 0.763672 1 0 1.0
Default
0 0.401419 0.179795 -5.391629 0.030487 0.017593 0.999512 0.984375 0.763672 1 0 1.0
0 0.357772 0.255395 -5.391629 0.030487 0.017593 0.999512 0.984375 0.763672 1 0 1.0
0 0.169653 0.146785 -5.383978 0.030487 0.017593 0.999512 0.984375 0.763672 1 0 1.0
Default
0 0.213301 0.071185 -5.383978 0.030487 0.017593 0.999512 0.984375 0.763672 1 0 1.0
0 0.401419 0.179795 -5.391629 0.030487 0.017593 0.999512 0.984375 0.763672 1 0 1.0
0 0.169653 0.146785 -5.383978 0.030487 0.017593 0.999512 0.984375 0.763672 1 0 1.0
Default
0 0.484813 0.328743 -5.295966 -0.033844 0.816895 -0.575684 0.984375 0.763672 1 0 1.0
0 0.550133 0.316055 -5.316868 -0.033844 0.816895 -0.575684 0.984375 0.763672 1 0 1.0
0 0.381572 0.218736 -5.445982 -0.033844 0.816895 -0.575684 0.984375 0.763672 1 0 1.0
Default
0 0.357772 0.255395 -5.391629 -0.033844 0.816895 -0.575684 0.984375 0.763672 1 0 1.0
0 0.484813 0.328743 -5.295966 -0.033844 0.816895 -0.575684 0.984375 0.763672 1 0 1.0
0 0.381572 0.218736 -5.445982 -0.033844 0.816895 -0.575684 0.984375 0.763672 1 0 1.0
Default
0 0.528461 0.253143 -5.295966 -0.473145 -0.273193 0.837402 0.984375 0.763672 1 0 1.0
0 0.484813 0.328743 -5.295966 -0.473145 -0.273193 0.837402 0.984375 0.763672 1 0 1.0
0 0.357772 0.255395 -5.391629 -0.473145 -0.273193 0.837402 0.984375 0.763672 1 0 1.0
Default
0 0.401419 0.179795 -5.391629 -0.473145 -0.273193 0.837402 0.984375 0.763672 1 0 1.0
0 0.528461 0.253143 -5.295966 -0.473145 -0.273193 0.837402 0.984375 0.763672 1 0 1.0
0 0.357772 0.255395 -5.391629 -0.473145 -0.273193 0.837402 0.984375 0.763672 1 0 1.0
Default
0 0.539659 0.259608 -4.997999 -0.865234 -0.499512 0.043365 0.984375 0.763672 1 0 1.0
0 0.496012 0.335208 -4.997999 -0.865234 -0.499512 0.043365 0.984375 0.763672 1 0 1.0
0 0.484813 0.328743 -5.295966 -0.865234 -0.499512 0.043365 0.984375 0.763672 1 0 1.0
Default
0 0.528461 0.253143 -5.295966 -0.865234 -0.499512 0.043365 0.984375 0.763672 1 0 1.0
0 0.539659 0.259608 -4.997999 -0.865234 -0.499512 0.043365 0.984375 0.763672 1 0 1.0
0 0.484813 0.328743 -5.295966 -0.865234 -0.499512 0.043365 0.984375 0.763672 1 0 1.0
Default
0 0.542009 0.291205 -4.837099 -0.819824 -0.473389 0.321777 0.984375 0.763672 1 0 1.0
0 0.524550 0.321445 -4.837099 -0.819824 -0.473389 0.321777 0.984375 0.763672 1 0 1.0
0 0.423288 0.293221 -5.136785 -0.819824 -0.473389 0.321777 0.984375 0.763672 1 0 1.0
Default
0 0.466936 0.217621 -5.136785 -0.819824 -0.473389 0.321777 0.984375 0.763672 1 0 1.0
0 0.542009 0.291205 -4.837099 -0.819824 -0.473389 0.321777 0.984375 0.763672 1 0 1.0
0 0.423288 0.293221 -5.136785 -0.819824 -0.473389 0.321777 0.984375 0.763672 1 0 1.0
Default
0 0.466936 0.217621 -5.136785 0.740723 0.427734 -0.517578 0.984375 0.763672 1 0 1.0
0 0.423288 0.293221 -5.136785 0.740723 0.427734 -0.517578 0.984375 0.763672 1 0 1.0
0 0.496012 0.335208 -4.997999 0.740723 0.427734 -0.517578 0.984375 0.763672 1 0 1.0
Default
0 0.539659 0.259608 -4.997999 0.740723 0.427734 -0.517578 0.984375 0.763672 1 0 1.0
0 0.466936 0.217621 -5.136785 0.740723 0.427734 -0.517578 0.984375 0.763672 1 0 1.0
0 0.496012 0.335208 -4.997999 0.740723 0.427734 -0.517578 0.984375 0.763672 1 0 1.0
Default
0 -0.381572 0.218736 -5.445982 0.408203 0.646973 -0.644043 0.984375 0.763672 1 0 1.0
0 -0.357772 0.255395 -5.391629 0.408203 0.646973 -0.644043 0.984375 0.763672 1 0 1.0
0 -0.169653 0.146785 -5.383978 0.408203 0.646973 -0.644043 0.984375 0.763672 1 0 1.0
Default
0 -0.169653 0.096385 -5.432190 0.408203 0.646973 -0.644043 0.984375 0.763672 1 0 1.0
0 -0.381572 0.218736 -5.445982 0.408203 0.646973 -0.644043 0.984375 0.763672 1 0 1.0
0 -0.169653 0.146785 -5.383978 0.408203 0.646973 -0.644043 0.984375 0.763672 1 0 1.0
Default
0 -0.169653 0.146785 -5.383978 -0.615234 0.355225 0.703613 0.984375 0.763672 1 0 1.0
0 -0.213301 0.071185 -5.383978 -0.615234 0.355225 0.703613 0.984375 0.763672 1 0 1.0
0 -0.043648 -0.026764 -5.186250 -0.615234 0.355225 0.703613 0.984375 0.763672 1 0 1.0
Default
0 -0.000000 0.048836 -5.186250 -0.615234 0.355225 0.703613 0.984375 0.763672 1 0 1.0
0 -0.169653 0.146785 -5.383978 -0.615234 0.355225 0.703613 0.984375 0.763672 1 0 1.0
0 -0.043648 -0.026764 -5.186250 -0.615234 0.355225 0.703613 0.984375 0.763672 1 0 1.0
Default
0 -0.550133 0.316055 -5.316868 0.033844 0.816895 -0.575684 0.984375 0.763672 1 0 1.0
0 -0.484813 0.328742 -5.295966 0.033844 0.816895 -0.575684 0.984375 0.763672 1 0 1.0
0 -0.357772 0.255395 -5.391629 0.033844 0.816895 -0.575684 0.984375 0.763672 1 0 1.0
Default
0 -0.381572 0.218736 -5.445982 0.033844 0.816895 -0.575684 0.984375 0.763672 1 0 1.0
0 -0.550133 0.316055 -5.316868 0.033844 0.816895 -0.575684 0.984375 0.763672 1 0 1.0
0 -0.357772 0.255395 -5.391629 0.033844 0.816895 -0.575684 0.984375 0.763672 1 0 1.0
Default
0 -0.401419 0.179795 -5.391629 -0.356445 -0.676758 -0.644043 0.984375 0.763672 1 0 1.0
0 -0.381572 0.218736 -5.445982 -0.356445 -0.676758 -0.644043 0.984375 0.763672 1 0 1.0
0 -0.169653 0.096385 -5.432190 -0.356445 -0.676758 -0.644043 0.984375 0.763672 1 0 1.0
Default
0 -0.213301 0.071185 -5.383978 -0.356445 -0.676758 -0.644043 0.984375 0.763672 1 0 1.0
0 -0.401419 0.179795 -5.391629 -0.356445 -0.676758 -0.644043 0.984375 0.763672 1 0 1.0
0 -0.169653 0.096385 -5.432190 -0.356445 -0.676758 -0.644043 0.984375 0.763672 1 0 1.0
Default
0 -0.357772 0.255395 -5.391629 -0.030487 0.017593 0.999512 0.984375 0.763672 1 0 1.0
0 -0.401419 0.179795 -5.391629 -0.030487 0.017593 0.999512 0.984375 0.763672 1 0 1.0
0 -0.213301 0.071185 -5.383978 -0.030487 0.017593 0.999512 0.984375 0.763672 1 0 1.0
Default
0 -0.169653 0.146785 -5.383978 -0.030487 0.017593 0.999512 0.984375 0.763672 1 0 1.0
0 -0.357772 0.255395 -5.391629 -0.030487 0.017593 0.999512 0.984375 0.763672 1 0 1.0
0 -0.213301 0.071185 -5.383978 -0.030487 0.017593 0.999512 0.984375 0.763672 1 0 1.0
Default
0 -0.528461 0.253142 -5.295966 -0.690430 -0.437744 -0.575684 0.984375 0.763672 1 0 1.0
0 -0.550133 0.316055 -5.316868 -0.690430 -0.437744 -0.575684 0.984375 0.763672 1 0 1.0
0 -0.381572 0.218736 -5.445982 -0.690430 -0.437744 -0.575684 0.984375 0.763672 1 0 1.0
Default
0 -0.401419 0.179795 -5.391629 -0.690430 -0.437744 -0.575684 0.984375 0.763672 1 0 1.0
0 -0.528461 0.253142 -5.295966 -0.690430 -0.437744 -0.575684 0.984375 0.763672 1 0 1.0
0 -0.381572 0.218736 -5.445982 -0.690430 -0.437744 -0.575684 0.984375 0.763672 1 0 1.0
Default
0 -0.484813 0.328742 -5.295966 0.473145 -0.273193 0.837402 0.984375 0.763672 1 0 1.0
0 -0.528461 0.253142 -5.295966 0.473145 -0.273193 0.837402 0.984375 0.763672 1 0 1.0
0 -0.401419 0.179795 -5.391629 0.473145 -0.273193 0.837402 0.984375 0.763672 1 0 1.0
Default
0 -0.357772 0.255395 -5.391629 0.473145 -0.273193 0.837402 0.984375 0.763672 1 0 1.0
0 -0.484813 0.328742 -5.295966 0.473145 -0.273193 0.837402 0.984375 0.763672 1 0 1.0
0 -0.401419 0.179795 -5.391629 0.473145 -0.273193 0.837402 0.984375 0.763672 1 0 1.0
Default
0 -0.496012 0.335208 -4.997999 0.865234 -0.499512 0.043365 0.984375 0.763672 1 0 1.0
0 -0.539659 0.259608 -4.997999 0.865234 -0.499512 0.043365 0.984375 0.763672 1 0 1.0
0 -0.528461 0.253142 -5.295966 0.865234 -0.499512 0.043365 0.984375 0.763672 1 0 1.0
Default
0 -0.484813 0.328742 -5.295966 0.865234 -0.499512 0.043365 0.984375 0.763672 1 0 1.0
0 -0.496012 0.335208 -4.997999 0.865234 -0.499512 0.043365 0.984375 0.763672 1 0 1.0
0 -0.528461 0.253142 -5.295966 0.865234 -0.499512 0.043365 0.984375 0.763672 1 0 1.0
Default
0 -0.524550 0.321445 -4.837099 0.819824 -0.473389 0.321777 0.984375 0.763672 1 0 1.0
0 -0.542009 0.291205 -4.837099 0.819824 -0.473389 0.321777 0.984375 0.763672 1 0 1.0
0 -0.466936 0.217621 -5.136785 0.819824 -0.473389 0.321777 0.984375 0.763672 1 0 1.0
Default
0 -0.423288 0.293221 -5.136785 0.819824 -0.473389 0.321777 0.984375 0.763672 1 0 1.0
0 -0.524550 0.321445 -4.837099 0.819824 -0.473389 0.321777 0.984375 0.763672 1 0 1.0
0 -0.466936 0.217621 -5.136785 0.819824 -0.473389 0.321777 0.984375 0.763672 1 0 1.0
Default
0 -0.423288 0.293221 -5.136785 -0.740723 0.427734 -0.517578 0.984375 0.763672 1 0 1.0
0 -0.466936 0.217621 -5.136785 -0.740723 0.427734 -0.517578 0.984375 0.763672 1 0 1.0
0 -0.539659 0.259608 -4.997999 -0.740723 0.427734 -0.517578 0.984375 0.763672 1 0 1.0
Default
0 -0.496012 0.335208 -4.997999 -0.740723 0.427734 -0.517578 0.984375 0.763672 1 0 1.0
0 -0.423288 0.293221 -5.136785 -0.740723 0.427734 -0.517578 0.984375 0.763672 1 0 1.0
0 -0.539659 0.259608 -4.997999 -0.740723 0.427734 -0.517578 0.984375 0.763672 1 0 1.0
Default
0 0.108986 0.000000 -1.019598 0.984375 -0.175049 0.027771 0.204590 0.981445 1 0 1.0
0 -0.000000 -0.563698 -0.955448 0.984375 -0.175049 0.027771 0.204590 0.981445 1 0 1.0
0 0.126014 0.000000 -1.867752 0.985352 -0.171143 0.013924 0.204590 0.981445 1 0 1.0
Default
0 -0.000000 -0.563698 -0.955448 0.984375 -0.175049 0.027771 0.204590 0.981445 1 0 1.0
0 -0.000000 -0.735759 -1.795367 0.985352 -0.171143 0.013924 0.204590 0.981445 1 0 1.0
0 0.126014 0.000000 -1.867752 0.985352 -0.171143 0.013924 0.204590 0.981445 1 0 1.0
Default
0 0.126014 0.000000 -1.867752 0.985352 -0.171143 0.013924 0.204590 0.981445 1 0 1.0
0 -0.000000 -0.735759 -1.795367 0.985352 -0.171143 0.013924 0.204590 0.981445 1 0 1.0
0 0.124888 0.000000 -2.662786 0.985352 -0.170898 -0.010040 0.204590 0.981445 1 0 1.0
Default
0 -0.000000 -0.735759 -1.795367 0.985352 -0.171143 0.013924 0.204590 0.981445 1 0 1.0
0 -0.000000 -0.743213 -2.715115 0.985352 -0.170898 -0.010040 0.204590 0.981445 1 0 1.0
0 0.124888 0.000000 -2.662786 0.985352 -0.170898 -0.010040 0.204590 0.981445 1 0 1.0
Default
0 0.124888 0.000000 -2.662786 0.985352 -0.170898 -0.010040 0.204590 0.981445 1 0 1.0
0 -0.000000 -0.743213 -2.715115 0.985352 -0.170898 -0.010040 0.204590 0.981445 1 0 1.0
0 0.124002 0.000000 -3.089588 0.984375 -0.174438 -0.020157 0.204590 0.981445 1 0 1.0
Default
0 -0.000000 -0.743213 -2.715115 0.985352 -0.170898 -0.010040 0.204590 0.981445 1 0 1.0
0 -0.000000 -0.638203 -3.240053 0.984375 -0.174438 -0.020157 0.204590 0.981445 1 0 1.0
0 0.124002 0.000000 -3.089588 0.984375 -0.174438 -0.020157 0.204590 0.981445 1 0 1.0
Default
0 -0.108986 0.000000 -1.019598 -0.984375 0.175049 0.027771 0.204590 0.981445 1 0 1.0
0 -0.000000 0.563698 -0.955448 -0.984375 0.175049 0.027771 0.204590 0.981445 1 0 1.0
0 -0.126014 0.000000 -1.867752 -0.985352 0.171143 0.013924 0.204590 0.981445 1 0 1.0
Default
0 -0.000000 0.563698 -0.955448 -0.984375 0.175049 0.027771 0.204590 0.981445 1 0 1.0
0 -0.000000 0.735759 -1.795367 -0.985352 0.171143 0.013924 0.204590 0.981445 1 0 1.0
0 -0.126014 0.000000 -1.867752 -0.985352 0.171143 0.013924 0.204590 0.981445 1 0 1.0
Default
0 -0.126014 0.000000 -1.867752 -0.985352 0.171143 0.013924 0.204590 0.981445 1 0 1.0
0 -0.000000 0.735759 -1.795367 -0.985352 0.171143 0.013924 0.204590 0.981445 1 0 1.0
0 -0.124888 0.000000 -2.662786 -0.985352 0.170898 -0.010040 0.204590 0.981445 1 0 1.0
Default
0 -0.000000 0.735759 -1.795367 -0.985352 0.171143 0.013924 0.204590 0.981445 1 0 1.0
0 -0.000000 0.743213 -2.715115 -0.985352 0.170898 -0.010040 0.204590 0.981445 1 0 1.0
0 -0.124888 0.000000 -2.662786 -0.985352 0.170898 -0.010040 0.204590 0.981445 1 0 1.0
Default
0 -0.124888 0.000000 -2.662786 -0.985352 0.170898 -0.010040 0.204590 0.981445 1 0 1.0
0 -0.000000 0.743213 -2.715115 -0.985352 0.170898 -0.010040 0.204590 0.981445 1 0 1.0
0 -0.124002 0.000000 -3.089588 -0.984375 0.174438 -0.020157 0.204590 0.981445 1 0 1.0
Default
0 -0.000000 0.743213 -2.715115 -0.985352 0.170898 -0.010040 0.204590 0.981445 1 0 1.0
0 -0.000000 0.638203 -3.240053 -0.984375 0.174438 -0.020157 0.204590 0.981445 1 0 1.0
0 -0.124002 0.000000 -3.089588 -0.984375 0.174438 -0.020157 0.204590 0.981445 1 0 1.0
Default
0 -0.000000 0.563698 -0.955448 0.984375 0.175049 0.027771 0.204590 0.981445 1 0 1.0
0 0.108986 0.000000 -1.019598 0.984375 0.175049 0.027771 0.204590 0.981445 1 0 1.0
0 -0.000000 0.735759 -1.795367 0.985352 0.171143 0.013924 0.204590 0.981445 1 0 1.0
Default
0 0.108986 0.000000 -1.019598 0.984375 0.175049 0.027771 0.204590 0.981445 1 0 1.0
0 0.126014 0.000000 -1.867752 0.985352 0.171143 0.013924 0.204590 0.981445 1 0 1.0
0 -0.000000 0.735759 -1.795367 0.985352 0.171143 0.013924 0.204590 0.981445 1 0 1.0
Default
0 -0.000000 0.735759 -1.795367 0.985352 0.171143 0.013924 0.204590 0.981445 1 0 1.0
0 0.126014 0.000000 -1.867752 0.985352 0.171143 0.013924 0.204590 0.981445 1 0 1.0
0 -0.000000 0.743213 -2.715115 0.985352 0.170898 -0.010040 0.204590 0.981445 1 0 1.0
Default
0 0.126014 0.000000 -1.867752 0.985352 0.171143 0.013924 0.204590 0.981445 1 0 1.0
0 0.124888 0.000000 -2.662786 0.985352 0.170898 -0.010040 0.204590 0.981445 1 0 1.0
0 -0.000000 0.743213 -2.715115 0.985352 0.170898 -0.010040 0.204590 0.981445 1 0 1.0
Default
0 -0.000000 0.743213 -2.715115 0.985352 0.170898 -0.010040 0.204590 0.981445 1 0 1.0
0 0.124888 0.000000 -2.662786 0.985352 0.170898 -0.010040 0.204590 0.981445 1 0 1.0
0 -0.000000 0.638203 -3.240053 0.984375 0.174438 -0.020157 0.204590 0.981445 1 0 1.0
Default
0 0.124888 0.000000 -2.662786 0.985352 0.170898 -0.010040 0.204590 0.981445 1 0 1.0
0 0.124002 0.000000 -3.089588 0.984375 0.174438 -0.020157 0.204590 0.981445 1 0 1.0
0 -0.000000 0.638203 -3.240053 0.984375 0.174438 -0.020157 0.204590 0.981445 1 0 1.0
Default
0 -0.000000 -0.563698 -0.955448 -0.984375 -0.175049 0.027771 0.204590 0.981445 1 0 1.0
0 -0.108986 0.000000 -1.019598 -0.984375 -0.175049 0.027771 0.204590 0.981445 1 0 1.0
0 -0.000000 -0.735759 -1.795367 -0.985352 -0.171143 0.013924 0.204590 0.981445 1 0 1.0
Default
0 -0.108986 0.000000 -1.019598 -0.984375 -0.175049 0.027771 0.204590 0.981445 1 0 1.0
0 -0.126014 0.000000 -1.867752 -0.985352 -0.171143 0.013924 0.204590 0.981445 1 0 1.0
0 -0.000000 -0.735759 -1.795367 -0.985352 -0.171143 0.013924 0.204590 0.981445 1 0 1.0
Default
0 -0.000000 -0.735759 -1.795367 -0.985352 -0.171143 0.013924 0.204590 0.981445 1 0 1.0
0 -0.126014 0.000000 -1.867752 -0.985352 -0.171143 0.013924 0.204590 0.981445 1 0 1.0
0 -0.000000 -0.743213 -2.715115 -0.985352 -0.170898 -0.010040 0.204590 0.981445 1 0 1.0
Default
0 -0.126014 0.000000 -1.867752 -0.985352 -0.171143 0.013924 0.204590 0.981445 1 0 1.0
0 -0.124888 0.000000 -2.662786 -0.985352 -0.170898 -0.010040 0.204590 0.981445 1 0 1.0
0 -0.000000 -0.743213 -2.715115 -0.985352 -0.170898 -0.010040 0.204590 0.981445 1 0 1.0
Default
0 -0.000000 -0.743213 -2.715115 -0.985352 -0.170898 -0.010040 0.204590 0.981445 1 0 1.0
0 -0.124888 0.000000 -2.662786 -0.985352 -0.170898 -0.010040 0.204590 0.981445 1 0 1.0
0 -0.000000 -0.638203 -3.240053 -0.984375 -0.174438 -0.020157 0.204590 0.981445 1 0 1.0
Default
0 -0.124888 0.000000 -2.662786 -0.985352 -0.170898 -0.010040 0.204590 0.981445 1 0 1.0
0 -0.124002 0.000000 -3.089588 -0.984375 -0.174438 -0.020157 0.204590 0.981445 1 0 1.0
0 -0.000000 -0.638203 -3.240053 -0.984375 -0.174438 -0.020157 0.204590 0.981445 1 0 1.0
end
