version 1
nodes
0 "root" -1
end
skeleton
time 0
0 0.000000 0.000000 0.000000 0.000000 0.000000 0.000000
end
triangles
Default
0 0.043648 -0.026764 -4.897813 -0.000000 0.000000 1.000000 0.984375 0.763672 1 0 1.0
0 0.000000 0.048836 -4.897813 -0.000000 0.000000 1.000000 0.984375 0.763672 1 0 1.0
0 -0.043648 -0.026764 -4.897813 -0.000000 0.000000 1.000000 0.984375 0.763672 1 0 1.0
Default
0 -0.017459 -0.617343 -5.665510 -0.382568 -0.923340 -0.040070 0.984375 0.763672 1 0 1.0
0 -0.043648 -0.599509 -5.826410 -0.382568 -0.923340 -0.040070 0.984375 0.763672 1 0 1.0
0 -0.043648 -0.586578 -6.124377 -0.382568 -0.923340 -0.040070 0.984375 0.763672 1 0 1.0
Default
0 -0.017459 -0.617343 -5.665510 -0.000000 0.041962 0.999023 0.984375 0.763672 1 0 1.0
0 0.000000 -0.639084 -5.664597 -0.000000 0.041962 0.999023 0.984375 0.763672 1 0 1.0
0 0.017459 -0.617343 -5.665510 -0.000000 0.041962 0.999023 0.984375 0.763672 1 0 1.0
Default
0 0.043648 -0.586578 -6.124377 0.382568 -0.923340 -0.040070 0.984375 0.763672 1 0 1.0
0 0.043648 -0.599509 -5.826410 0.382568 -0.923340 -0.040070 0.984375 0.763672 1 0 1.0
0 0.017459 -0.617343 -5.665510 0.382568 -0.923340 -0.040070 0.984375 0.763672 1 0 1.0
Default
0 -0.017459 -0.617343 -5.665510 -0.933105 0.307373 0.185913 0.984375 0.763672 1 0 1.0
0 -0.043648 -0.515536 -5.965196 -0.933105 0.307373 0.185913 0.984375 0.763672 1 0 1.0
0 -0.043648 -0.599509 -5.826410 -0.933105 0.307373 0.185913 0.984375 0.763672 1 0 1.0
Default
0 0.043648 -0.599509 -5.826410 0.933105 0.307373 0.185913 0.984375 0.763672 1 0 1.0
0 0.043648 -0.515536 -5.965196 0.933105 0.307373 0.185913 0.984375 0.763672 1 0 1.0
0 0.017459 -0.617343 -5.665510 0.933105 0.307373 0.185913 0.984375 0.763672 1 0 1.0
Default
0 0.539659 0.259608 -5.826410 0.942383 -0.333984 -0.028168 0.984375 0.763672 1 0 1.0
0 0.528461 0.253143 -6.124377 0.942383 -0.333984 -0.028168 0.984375 0.763672 1 0 1.0
0 0.550133 0.316055 -6.145280 0.942383 -0.333984 -0.028168 0.984375 0.763672 1 0 1.0
Default
0 0.550133 0.316055 -6.145280 0.942383 -0.333984 -0.028168 0.984375 0.763672 1 0 1.0
0 0.552108 0.317195 -5.664597 0.932129 -0.362061 -0.002972 0.984375 0.763672 1 0 1.0
0 0.542009 0.291205 -5.665510 0.932129 -0.362061 -0.002972 0.984375 0.763672 1 0 1.0
Default
0 0.550133 0.316055 -6.145280 0.992188 -0.126099 0.010269 0.984375 0.763672 1 0 1.0
0 0.542009 0.291205 -5.665510 0.992188 -0.126099 0.010269 0.984375 0.763672 1 0 1.0
0 0.539659 0.259608 -5.826410 0.992188 -0.126099 0.010269 0.984375 0.763672 1 0 1.0
Default
0 0.542009 0.291205 -5.665510 -0.036346 -0.020981 0.999023 0.984375 0.763672 1 0 1.0
0 0.552108 0.317195 -5.664597 -0.036346 -0.020981 0.999023 0.984375 0.763672 1 0 1.0
0 0.524550 0.321445 -5.665510 -0.036346 -0.020981 0.999023 0.984375 0.763672 1 0 1.0
Default
0 0.552108 0.317195 -5.664597 0.189697 0.981934 -0.003109 0.984375 0.763672 1 0 1.0
0 0.550133 0.316055 -6.145280 0.189697 0.981934 -0.003109 0.984375 0.763672 1 0 1.0
0 0.484813 0.328743 -6.124377 0.189697 0.981934 -0.003109 0.984375 0.763672 1 0 1.0
Default
0 0.484813 0.328743 -6.124377 0.395020 0.917969 -0.034760 0.984375 0.763672 1 0 1.0
0 0.496012 0.335208 -5.826410 0.395020 0.917969 -0.034760 0.984375 0.763672 1 0 1.0
0 0.552108 0.317195 -5.664597 0.395020 0.917969 -0.034760 0.984375 0.763672 1 0 1.0
Default
0 0.496012 0.335208 -5.826410 0.150269 0.986816 0.057770 0.984375 0.763672 1 0 1.0
0 0.524550 0.321445 -5.665510 0.150269 0.986816 0.057770 0.984375 0.763672 1 0 1.0
0 0.552108 0.317195 -5.664597 0.150269 0.986816 0.057770 0.984375 0.763672 1 0 1.0
Default
0 0.542009 0.291205 -5.665510 0.200439 -0.961914 0.185913 0.984375 0.763672 1 0 1.0
0 0.466936 0.217621 -5.965196 0.200439 -0.961914 0.185913 0.984375 0.763672 1 0 1.0
0 0.539659 0.259608 -5.826410 0.200439 -0.961914 0.185913 0.984375 0.763672 1 0 1.0
Default
0 0.496012 0.335208 -5.826410 -0.732910 0.654785 0.185913 0.984375 0.763672 1 0 1.0
0 0.423288 0.293221 -5.965196 -0.732910 0.654785 0.185913 0.984375 0.763672 1 0 1.0
0 0.524550 0.321445 -5.665510 -0.732910 0.654785 0.185913 0.984375 0.763672 1 0 1.0
Default
0 -0.484813 0.328742 -6.124377 -0.189697 0.981934 -0.003109 0.984375 0.763672 1 0 1.0
0 -0.550133 0.316055 -6.145280 -0.189697 0.981934 -0.003109 0.984375 0.763672 1 0 1.0
0 -0.552108 0.317195 -5.664597 -0.189697 0.981934 -0.003109 0.984375 0.763672 1 0 1.0
Default
0 -0.552108 0.317195 -5.664597 -0.395020 0.917969 -0.034760 0.984375 0.763672 1 0 1.0
0 -0.496012 0.335208 -5.826410 -0.395020 0.917969 -0.034760 0.984375 0.763672 1 0 1.0
0 -0.484813 0.328742 -6.124377 -0.395020 0.917969 -0.034760 0.984375 0.763672 1 0 1.0
Default
0 -0.552108 0.317195 -5.664597 -0.150269 0.986816 0.057770 0.984375 0.763672 1 0 1.0
0 -0.524550 0.321445 -5.665510 -0.150269 0.986816 0.057770 0.984375 0.763672 1 0 1.0
0 -0.496012 0.335208 -5.826410 -0.150269 0.986816 0.057770 0.984375 0.763672 1 0 1.0
Default
0 -0.524550 0.321445 -5.665510 0.036346 -0.020981 0.999023 0.984375 0.763672 1 0 1.0
0 -0.552108 0.317195 -5.664597 0.036346 -0.020981 0.999023 0.984375 0.763672 1 0 1.0
0 -0.542009 0.291205 -5.665510 0.036346 -0.020981 0.999023 0.984375 0.763672 1 0 1.0
Default
0 -0.550133 0.316055 -6.145280 -0.942383 -0.333984 -0.028168 0.984375 0.763672 1 0 1.0
0 -0.528461 0.253142 -6.124377 -0.942383 -0.333984 -0.028168 0.984375 0.763672 1 0 1.0
0 -0.539659 0.259608 -5.826410 -0.942383 -0.333984 -0.028168 0.984375 0.763672 1 0 1.0
Default
0 -0.542009 0.291205 -5.665510 -0.932129 -0.362061 -0.002972 0.984375 0.763672 1 0 1.0
0 -0.552108 0.317195 -5.664597 -0.932129 -0.362061 -0.002972 0.984375 0.763672 1 0 1.0
0 -0.550133 0.316055 -6.145280 -0.942383 -0.333984 -0.028168 0.984375 0.763672 1 0 1.0
Default
0 -0.539659 0.259608 -5.826410 -0.992188 -0.126099 0.010269 0.984375 0.763672 1 0 1.0
0 -0.542009 0.291205 -5.665510 -0.992188 -0.126099 0.010269 0.984375 0.763672 1 0 1.0
0 -0.550133 0.316055 -6.145280 -0.992188 -0.126099 0.010269 0.984375 0.763672 1 0 1.0
Default
0 -0.524550 0.321445 -5.665510 0.732910 0.654785 0.185913 0.984375 0.763672 1 0 1.0
0 -0.423288 0.293221 -5.965196 0.732910 0.654785 0.185913 0.984375 0.763672 1 0 1.0
0 -0.496012 0.335208 -5.826410 0.732910 0.654785 0.185913 0.984375 0.763672 1 0 1.0
Default
0 -0.539659 0.259608 -5.826410 -0.200439 -0.961914 0.185913 0.984375 0.763672 1 0 1.0
0 -0.466936 0.217621 -5.965196 -0.200439 -0.961914 0.185913 0.984375 0.763672 1 0 1.0
0 -0.542009 0.291205 -5.665510 -0.200439 -0.961914 0.185913 0.984375 0.763672 1 0 1.0
Default
0 0.048500 0.169719 -4.453502 0.654785 0.654297 -0.378174 0.984375 0.763672 1 0 1.0
0 0.048501 0.000043 -4.747239 0.654785 0.654297 -0.378174 0.984375 0.763672 1 0 1.0
0 0.000003 -0.000086 -4.831239 0.654785 0.654297 -0.378174 0.984375 0.763672 1 0 1.0
Default
0 0.000003 0.242530 -4.411614 0.654785 0.654297 -0.378174 0.984375 0.763672 1 0 1.0
0 0.048500 0.169719 -4.453502 0.654785 0.654297 -0.378174 0.984375 0.763672 1 0 1.0
0 0.000003 -0.000086 -4.831239 0.654785 0.654297 -0.378174 0.984375 0.763672 1 0 1.0
Default
0 -0.048494 0.169719 -4.453502 -0.000000 -0.865723 0.500000 0.984375 0.763672 1 0 1.0
0 -0.048494 0.000043 -4.747239 -0.000000 -0.865723 0.500000 0.984375 0.763672 1 0 1.0
0 0.048501 0.000043 -4.747239 -0.000000 -0.865723 0.500000 0.984375 0.763672 1 0 1.0
Default
0 0.048500 0.169719 -4.453502 -0.000000 -0.865723 0.500000 0.984375 0.763672 1 0 1.0
0 -0.048494 0.169719 -4.453502 -0.000000 -0.865723 0.500000 0.984375 0.763672 1 0 1.0
0 0.048501 0.000043 -4.747239 -0.000000 -0.865723 0.500000 0.984375 0.763672 1 0 1.0
Default
0 0.000003 0.242530 -4.411614 -0.654785 0.654297 -0.378174 0.984375 0.763672 1 0 1.0
0 0.000003 -0.000086 -4.831239 -0.654785 0.654297 -0.378174 0.984375 0.763672 1 0 1.0
0 -0.048494 0.000043 -4.747239 -0.654785 0.654297 -0.378174 0.984375 0.763672 1 0 1.0
Default
0 -0.048494 0.169719 -4.453502 -0.654785 0.654297 -0.378174 0.984375 0.763672 1 0 1.0
0 0.000003 0.242530 -4.411614 -0.654785 0.654297 -0.378174 0.984375 0.763672 1 0 1.0
0 -0.048494 0.000043 -4.747239 -0.654785 0.654297 -0.378174 0.984375 0.763672 1 0 1.0
Default
0 0.048501 -0.169762 -4.452978 0.654785 0.001168 0.755859 0.984375 0.763672 1 0 1.0
0 0.048500 0.169719 -4.453502 0.654785 0.001168 0.755859 0.984375 0.763672 1 0 1.0
0 0.000003 0.242530 -4.411614 0.654785 0.001168 0.755859 0.984375 0.763672 1 0 1.0
Default
0 0.000003 -0.242444 -4.410865 0.654785 0.001168 0.755859 0.984375 0.763672 1 0 1.0
0 0.048501 -0.169762 -4.452978 0.654785 0.001168 0.755859 0.984375 0.763672 1 0 1.0
0 0.000003 0.242530 -4.411614 0.654785 0.001168 0.755859 0.984375 0.763672 1 0 1.0
Default
0 -0.048494 -0.169762 -4.452978 -0.000000 -0.001545 -1.000000 0.984375 0.763672 1 0 1.0
0 -0.048494 0.169719 -4.453502 -0.000000 -0.001545 -1.000000 0.984375 0.763672 1 0 1.0
0 0.048500 0.169719 -4.453502 -0.000000 -0.001545 -1.000000 0.984375 0.763672 1 0 1.0
Default
0 0.048501 -0.169762 -4.452978 -0.000000 -0.001545 -1.000000 0.984375 0.763672 1 0 1.0
0 -0.048494 -0.169762 -4.452978 -0.000000 -0.001545 -1.000000 0.984375 0.763672 1 0 1.0
0 0.048500 0.169719 -4.453502 -0.000000 -0.001545 -1.000000 0.984375 0.763672 1 0 1.0
Default
0 0.000003 -0.242444 -4.410865 -0.654785 0.001167 0.755859 0.984375 0.763672 1 0 1.0
0 0.000003 0.242530 -4.411614 -0.654785 0.001167 0.755859 0.984375 0.763672 1 0 1.0
0 -0.048494 0.169719 -4.453502 -0.654785 0.001167 0.755859 0.984375 0.763672 1 0 1.0
Default
0 -0.048494 -0.169762 -4.452978 -0.654785 0.001167 0.755859 0.984375 0.763672 1 0 1.0
0 0.000003 -0.242444 -4.410865 -0.654785 0.001167 0.755859 0.984375 0.763672 1 0 1.0
0 -0.048494 0.169719 -4.453502 -0.654785 0.001167 0.755859 0.984375 0.763672 1 0 1.0
Default
0 0.048501 0.000043 -4.747239 0.654785 -0.654785 -0.377686 0.984375 0.763672 1 0 1.0
0 0.048501 -0.169762 -4.452978 0.654785 -0.654785 -0.377686 0.984375 0.763672 1 0 1.0
0 0.000003 -0.242444 -4.410865 0.654785 -0.654785 -0.377686 0.984375 0.763672 1 0 1.0
Default
0 0.000003 -0.000086 -4.831239 0.654785 -0.654785 -0.377686 0.984375 0.763672 1 0 1.0
0 0.048501 0.000043 -4.747239 0.654785 -0.654785 -0.377686 0.984375 0.763672 1 0 1.0
0 0.000003 -0.242444 -4.410865 0.654785 -0.654785 -0.377686 0.984375 0.763672 1 0 1.0
Default
0 -0.048494 0.000043 -4.747239 -0.000000 0.866211 0.499756 0.984375 0.763672 1 0 1.0
0 -0.048494 -0.169762 -4.452978 -0.000000 0.866211 0.499756 0.984375 0.763672 1 0 1.0
0 0.048501 -0.169762 -4.452978 -0.000000 0.866211 0.499756 0.984375 0.763672 1 0 1.0
Default
0 0.048501 0.000043 -4.747239 -0.000000 0.866211 0.499756 0.984375 0.763672 1 0 1.0
0 -0.048494 0.000043 -4.747239 -0.000000 0.866211 0.499756 0.984375 0.763672 1 0 1.0
0 0.048501 -0.169762 -4.452978 -0.000000 0.866211 0.499756 0.984375 0.763672 1 0 1.0
Default
0 0.000003 -0.000086 -4.831239 -0.654785 -0.654785 -0.377686 0.984375 0.763672 1 0 1.0
0 0.000003 -0.242444 -4.410865 -0.654785 -0.654785 -0.377686 0.984375 0.763672 1 0 1.0
0 -0.048494 -0.169762 -4.452978 -0.654785 -0.654785 -0.377686 0.984375 0.763672 1 0 1.0
Default
0 -0.048494 0.000043 -4.747239 -0.654785 -0.654785 -0.377686 0.984375 0.763672 1 0 1.0
0 0.000003 -0.000086 -4.831239 -0.654785 -0.654785 -0.377686 0.984375 0.763672 1 0 1.0
0 -0.048494 -0.169762 -4.452978 -0.654785 -0.654785 -0.377686 0.984375 0.763672 1 0 1.0
Default
0 0.169744 -0.038937 -4.676517 0.654785 -0.654785 -0.377930 0.984375 0.763672 1 0 1.0
0 0.000003 -0.038937 -4.970517 0.654785 -0.654785 -0.377930 0.984375 0.763672 1 0 1.0
0 0.000003 0.009560 -5.054517 0.654785 -0.654785 -0.377930 0.984375 0.763672 1 0 1.0
Default
0 0.242490 0.009561 -4.634517 0.654785 -0.654785 -0.377930 0.984375 0.763672 1 0 1.0
0 0.169744 -0.038937 -4.676517 0.654785 -0.654785 -0.377930 0.984375 0.763672 1 0 1.0
0 0.000003 0.009560 -5.054517 0.654785 -0.654785 -0.377930 0.984375 0.763672 1 0 1.0
Default
0 0.169744 0.058058 -4.676517 -0.866211 0.000000 0.500000 0.984375 0.763672 1 0 1.0
0 0.000003 0.058058 -4.970517 -0.866211 0.000000 0.500000 0.984375 0.763672 1 0 1.0
0 0.000003 -0.038937 -4.970517 -0.866211 0.000000 0.500000 0.984375 0.763672 1 0 1.0
Default
0 0.169744 -0.038937 -4.676517 -0.866211 0.000000 0.500000 0.984375 0.763672 1 0 1.0
0 0.169744 0.058058 -4.676517 -0.866211 0.000000 0.500000 0.984375 0.763672 1 0 1.0
0 0.000003 -0.038937 -4.970517 -0.866211 0.000000 0.500000 0.984375 0.763672 1 0 1.0
Default
0 0.242490 0.009561 -4.634517 0.654785 0.654785 -0.377930 0.984375 0.763672 1 0 1.0
0 0.000003 0.009560 -5.054517 0.654785 0.654785 -0.377930 0.984375 0.763672 1 0 1.0
0 0.000003 0.058058 -4.970517 0.654785 0.654785 -0.377930 0.984375 0.763672 1 0 1.0
Default
0 0.169744 0.058058 -4.676517 0.654785 0.654785 -0.377930 0.984375 0.763672 1 0 1.0
0 0.242490 0.009561 -4.634517 0.654785 0.654785 -0.377930 0.984375 0.763672 1 0 1.0
0 0.000003 0.058058 -4.970517 0.654785 0.654785 -0.377930 0.984375 0.763672 1 0 1.0
Default
0 -0.169738 -0.038937 -4.676517 -0.000000 -0.654785 0.755859 0.984375 0.763672 1 0 1.0
0 0.169744 -0.038937 -4.676517 -0.000000 -0.654785 0.755859 0.984375 0.763672 1 0 1.0
0 0.242490 0.009561 -4.634517 -0.000000 -0.654785 0.755859 0.984375 0.763672 1 0 1.0
Default
0 -0.242484 0.009560 -4.634517 -0.000000 -0.654785 0.755859 0.984375 0.763672 1 0 1.0
0 -0.169738 -0.038937 -4.676517 -0.000000 -0.654785 0.755859 0.984375 0.763672 1 0 1.0
0 0.242490 0.009561 -4.634517 -0.000000 -0.654785 0.755859 0.984375 0.763672 1 0 1.0
Default
0 -0.169738 0.058058 -4.676517 -0.000000 0.000000 -1.000000 0.984375 0.763672 1 0 1.0
0 0.169744 0.058058 -4.676517 -0.000000 0.000000 -1.000000 0.984375 0.763672 1 0 1.0
0 0.169744 -0.038937 -4.676517 -0.000000 0.000000 -1.000000 0.984375 0.763672 1 0 1.0
Default
0 -0.169738 -0.038937 -4.676517 -0.000000 0.000000 -1.000000 0.984375 0.763672 1 0 1.0
0 -0.169738 0.058058 -4.676517 -0.000000 0.000000 -1.000000 0.984375 0.763672 1 0 1.0
0 0.169744 -0.038937 -4.676517 -0.000000 0.000000 -1.000000 0.984375 0.763672 1 0 1.0
Default
0 -0.242484 0.009560 -4.634517 -0.000000 0.654785 0.755859 0.984375 0.763672 1 0 1.0
0 0.242490 0.009561 -4.634517 -0.000000 0.654785 0.755859 0.984375 0.763672 1 0 1.0
0 0.169744 0.058058 -4.676517 -0.000000 0.654785 0.755859 0.984375 0.763672 1 0 1.0
Default
0 -0.169738 0.058058 -4.676517 -0.000000 0.654785 0.755859 0.984375 0.763672 1 0 1.0
0 -0.242484 0.009560 -4.634517 -0.000000 0.654785 0.755859 0.984375 0.763672 1 0 1.0
0 0.169744 0.058058 -4.676517 -0.000000 0.654785 0.755859 0.984375 0.763672 1 0 1.0
Default
0 0.000003 -0.038937 -4.970517 -0.654785 -0.654785 -0.377930 0.984375 0.763672 1 0 1.0
0 -0.169738 -0.038937 -4.676517 -0.654785 -0.654785 -0.377930 0.984375 0.763672 1 0 1.0
0 -0.242484 0.009560 -4.634517 -0.654785 -0.654785 -0.377930 0.984375 0.763672 1 0 1.0
Default
0 0.000003 0.009560 -5.054517 -0.654785 -0.654785 -0.377930 0.984375 0.763672 1 0 1.0
0 0.000003 -0.038937 -4.970517 -0.654785 -0.654785 -0.377930 0.984375 0.763672 1 0 1.0
0 -0.242484 0.009560 -4.634517 -0.654785 -0.654785 -0.377930 0.984375 0.763672 1 0 1.0
Default
0 0.000003 0.058058 -4.970517 0.866211 0.000000 0.500000 0.984375 0.763672 1 0 1.0
0 -0.169738 0.058058 -4.676517 0.866211 0.000000 0.500000 0.984375 0.763672 1 0 1.0
0 -0.169738 -0.038937 -4.676517 0.866211 0.000000 0.500000 0.984375 0.763672 1 0 1.0
Default
0 0.000003 -0.038937 -4.970517 0.866211 0.000000 0.500000 0.984375 0.763672 1 0 1.0
0 0.000003 0.058058 -4.970517 0.866211 0.000000 0.500000 0.984375 0.763672 1 0 1.0
0 -0.169738 -0.038937 -4.676517 0.866211 0.000000 0.500000 0.984375 0.763672 1 0 1.0
Default
0 0.000003 0.009560 -5.054517 -0.654785 0.654785 -0.377930 0.984375 0.763672 1 0 1.0
0 -0.242484 0.009560 -4.634517 -0.654785 0.654785 -0.377930 0.984375 0.763672 1 0 1.0
0 -0.169738 0.058058 -4.676517 -0.654785 0.654785 -0.377930 0.984375 0.763672 1 0 1.0
Default
0 0.000003 0.058058 -4.970517 -0.654785 0.654785 -0.377930 0.984375 0.763672 1 0 1.0
0 0.000003 0.009560 -5.054517 -0.654785 0.654785 -0.377930 0.984375 0.763672 1 0 1.0
0 -0.169738 0.058058 -4.676517 -0.654785 0.654785 -0.377930 0.984375 0.763672 1 0 1.0
Default
0 -0.000000 -0.197463 -6.260601 -0.765137 0.457520 -0.453369 0.984375 0.763672 1 0 1.0
0 -0.043648 -0.222663 -6.212389 -0.765137 0.457520 -0.453369 0.984375 0.763672 1 0 1.0
0 -0.043648 -0.026764 -6.014661 -0.766113 0.450439 -0.458252 0.984375 0.763672 1 0 1.0
Default
0 -0.000000 -0.001564 -6.062873 -0.766113 0.450439 -0.458252 0.984375 0.763672 1 0 1.0
0 -0.000000 -0.197463 -6.260601 -0.765137 0.457520 -0.453369 0.984375 0.763672 1 0 1.0
0 -0.043648 -0.026764 -6.014661 -0.766113 0.450439 -0.458252 0.984375 0.763672 1 0 1.0
Default
0 -0.000000 0.048836 -6.014661 -0.767578 0.443115 -0.463135 0.984375 0.763672 1 0 1.0
0 -0.000000 -0.001564 -6.062873 -0.766113 0.450439 -0.458252 0.984375 0.763672 1 0 1.0
0 -0.043648 -0.026764 -6.014661 -0.766113 0.450439 -0.458252 0.984375 0.763672 1 0 1.0
Default
0 -0.000000 0.048836 -6.014661 -0.767578 0.443115 -0.463135 0.984375 0.763672 1 0 1.0
0 0.169653 0.146785 -6.212389 -0.778809 0.433594 -0.453369 0.984375 0.763672 1 0 1.0
0 -0.000000 -0.001564 -6.062873 -0.766113 0.450439 -0.458252 0.984375 0.763672 1 0 1.0
Default
0 0.169653 0.146785 -6.212389 -0.778809 0.433594 -0.453369 0.984375 0.763672 1 0 1.0
0 0.169653 0.096385 -6.260601 -0.778809 0.433594 -0.453369 0.984375 0.763672 1 0 1.0
0 -0.000000 -0.001564 -6.062873 -0.766113 0.450439 -0.458252 0.984375 0.763672 1 0 1.0
Default
0 -0.000000 0.048836 -6.014661 -0.866211 0.500000 0.000000 0.984375 0.763672 1 0 1.0
0 -0.043648 -0.026764 -6.014661 -0.866211 0.500000 0.000000 0.984375 0.763672 1 0 1.0
0 -0.043648 -0.026764 -4.897813 -0.866211 0.500000 0.000000 0.984375 0.763672 1 0 1.0
Default
0 0.000000 0.048836 -4.897813 -0.866211 0.500000 0.000000 0.984375 0.763672 1 0 1.0
0 -0.000000 0.048836 -6.014661 -0.866211 0.500000 0.000000 0.984375 0.763672 1 0 1.0
0 -0.043648 -0.026764 -4.897813 -0.866211 0.500000 0.000000 0.984375 0.763672 1 0 1.0
Default
0 -0.043648 -0.026764 -6.014661 -0.000000 -1.000000 0.000000 0.984375 0.763672 1 0 1.0
0 0.043648 -0.026764 -6.014661 -0.000000 -1.000000 0.000000 0.984375 0.763672 1 0 1.0
0 0.043648 -0.026764 -4.897813 -0.000000 -1.000000 0.000000 0.984375 0.763672 1 0 1.0
Default
0 -0.043648 -0.026764 -4.897813 -0.000000 -1.000000 0.000000 0.984375 0.763672 1 0 1.0
0 -0.043648 -0.026764 -6.014661 -0.000000 -1.000000 0.000000 0.984375 0.763672 1 0 1.0
0 0.043648 -0.026764 -4.897813 -0.000000 -1.000000 0.000000 0.984375 0.763672 1 0 1.0
Default
0 0.043648 -0.026764 -6.014661 0.866211 0.500000 0.000000 0.984375 0.763672 1 0 1.0
0 -0.000000 0.048836 -6.014661 0.866211 0.500000 0.000000 0.984375 0.763672 1 0 1.0
0 0.000000 0.048836 -4.897813 0.866211 0.500000 0.000000 0.984375 0.763672 1 0 1.0
Default
0 0.043648 -0.026764 -4.897813 0.866211 0.500000 0.000000 0.984375 0.763672 1 0 1.0
0 0.043648 -0.026764 -6.014661 0.866211 0.500000 0.000000 0.984375 0.763672 1 0 1.0
0 0.000000 0.048836 -4.897813 0.866211 0.500000 0.000000 0.984375 0.763672 1 0 1.0
Default
0 -0.000000 -0.442166 -6.274393 -0.764648 0.029892 -0.644043 0.984375 0.763672 1 0 1.0
0 -0.043648 -0.439884 -6.220041 -0.764648 0.029892 -0.644043 0.984375 0.763672 1 0 1.0
0 -0.043648 -0.222663 -6.212389 -0.764648 0.029892 -0.644043 0.984375 0.763672 1 0 1.0
Default
0 -0.000000 -0.197463 -6.260601 -0.764648 0.029892 -0.644043 0.984375 0.763672 1 0 1.0
0 -0.000000 -0.442166 -6.274393 -0.764648 0.029892 -0.644043 0.984375 0.763672 1 0 1.0
0 -0.043648 -0.222663 -6.212389 -0.764648 0.029892 -0.644043 0.984375 0.763672 1 0 1.0
Default
0 0.043648 -0.222663 -6.212389 0.765137 0.457520 -0.453369 0.984375 0.763672 1 0 1.0
0 -0.000000 -0.197463 -6.260601 0.765137 0.457520 -0.453369 0.984375 0.763672 1 0 1.0
0 -0.000000 -0.001564 -6.062873 0.766113 0.450439 -0.458252 0.984375 0.763672 1 0 1.0
Default
0 0.043648 -0.026764 -6.014661 0.766113 0.450439 -0.458252 0.984375 0.763672 1 0 1.0
0 0.043648 -0.222663 -6.212389 0.765137 0.457520 -0.453369 0.984375 0.763672 1 0 1.0
0 -0.000000 -0.001564 -6.062873 0.766113 0.450439 -0.458252 0.984375 0.763672 1 0 1.0
Default
0 0.043648 -0.026764 -6.014661 0.766113 0.450439 -0.458252 0.984375 0.763672 1 0 1.0
0 -0.000000 -0.001564 -6.062873 0.766113 0.450439 -0.458252 0.984375 0.763672 1 0 1.0
0 -0.000000 0.048836 -6.014661 0.767578 0.443115 -0.463135 0.984375 0.763672 1 0 1.0
Default
0 -0.000000 -0.001564 -6.062873 0.766113 0.450439 -0.458252 0.984375 0.763672 1 0 1.0
0 -0.169653 0.096385 -6.260601 0.778809 0.433594 -0.453369 0.984375 0.763672 1 0 1.0
0 -0.000000 0.048836 -6.014661 0.767578 0.443115 -0.463135 0.984375 0.763672 1 0 1.0
Default
0 -0.169653 0.096385 -6.260601 0.778809 0.433594 -0.453369 0.984375 0.763672 1 0 1.0
0 -0.169653 0.146785 -6.212389 0.778809 0.433594 -0.453369 0.984375 0.763672 1 0 1.0
0 -0.000000 0.048836 -6.014661 0.767578 0.443115 -0.463135 0.984375 0.763672 1 0 1.0
Default
0 -0.043648 -0.222663 -6.212389 -0.000000 -0.710449 0.703613 0.984375 0.763672 1 0 1.0
0 0.043648 -0.222663 -6.212389 -0.000000 -0.710449 0.703613 0.984375 0.763672 1 0 1.0
0 0.043648 -0.026764 -6.014661 -0.000000 -0.710449 0.703613 0.984375 0.763672 1 0 1.0
Default
0 -0.043648 -0.026764 -6.014661 -0.000000 -0.710449 0.703613 0.984375 0.763672 1 0 1.0
0 -0.043648 -0.222663 -6.212389 -0.000000 -0.710449 0.703613 0.984375 0.763672 1 0 1.0
0 0.043648 -0.026764 -6.014661 -0.000000 -0.710449 0.703613 0.984375 0.763672 1 0 1.0
Default
0 -0.000000 -0.636803 -6.145280 -0.724609 -0.379150 -0.575684 0.984375 0.763672 1 0 1.0
0 -0.043648 -0.586578 -6.124377 -0.724609 -0.379150 -0.575684 0.984375 0.763672 1 0 1.0
0 -0.043648 -0.439884 -6.220041 -0.724609 -0.379150 -0.575684 0.984375 0.763672 1 0 1.0
Default
0 -0.000000 -0.442166 -6.274393 -0.724609 -0.379150 -0.575684 0.984375 0.763672 1 0 1.0
0 -0.000000 -0.636803 -6.145280 -0.724609 -0.379150 -0.575684 0.984375 0.763672 1 0 1.0
0 -0.043648 -0.439884 -6.220041 -0.724609 -0.379150 -0.575684 0.984375 0.763672 1 0 1.0
Default
0 0.043648 -0.439884 -6.220041 0.764648 0.029892 -0.644043 0.984375 0.763672 1 0 1.0
0 -0.000000 -0.442166 -6.274393 0.764648 0.029892 -0.644043 0.984375 0.763672 1 0 1.0
0 -0.000000 -0.197463 -6.260601 0.764648 0.029892 -0.644043 0.984375 0.763672 1 0 1.0
Default
0 0.043648 -0.222663 -6.212389 0.764648 0.029892 -0.644043 0.984375 0.763672 1 0 1.0
0 0.043648 -0.439884 -6.220041 0.764648 0.029892 -0.644043 0.984375 0.763672 1 0 1.0
0 -0.000000 -0.197463 -6.260601 0.764648 0.029892 -0.644043 0.984375 0.763672 1 0 1.0
Default
0 -0.043648 -0.439884 -6.220041 -0.000000 -0.035187 0.999512 0.984375 0.763672 1 0 1.0
0 0.043648 -0.439884 -6.220041 -0.000000 -0.035187 0.999512 0.984375 0.763672 1 0 1.0
0 0.043648 -0.222663 -6.212389 -0.000000 -0.035187 0.999512 0.984375 0.763672 1 0 1.0
Default
0 -0.043648 -0.222663 -6.212389 -0.000000 -0.035187 0.999512 0.984375 0.763672 1 0 1.0
0 -0.043648 -0.439884 -6.220041 -0.000000 -0.035187 0.999512 0.984375 0.763672 1 0 1.0
0 0.043648 -0.222663 -6.212389 -0.000000 -0.035187 0.999512 0.984375 0.763672 1 0 1.0
Default
0 -0.000000 -0.636803 -6.145280 -0.767578 -0.641113 -0.001924 0.984375 0.763672 1 0 1.0
0 0.000000 -0.639084 -5.664597 -0.779785 -0.625977 -0.002972 0.984375 0.763672 1 0 1.0
0 -0.017459 -0.617343 -5.665510 -0.767578 -0.641113 -0.001924 0.984375 0.763672 1 0 1.0
Default
0 -0.017459 -0.617343 -5.665510 -0.767578 -0.641113 -0.001924 0.984375 0.763672 1 0 1.0
0 -0.043648 -0.586578 -6.124377 -0.754883 -0.655762 -0.000875 0.984375 0.763672 1 0 1.0
0 -0.000000 -0.636803 -6.145280 -0.767578 -0.641113 -0.001924 0.984375 0.763672 1 0 1.0
Default
0 0.043648 -0.586578 -6.124377 0.724609 -0.379150 -0.575684 0.984375 0.763672 1 0 1.0
0 -0.000000 -0.636803 -6.145280 0.724609 -0.379150 -0.575684 0.984375 0.763672 1 0 1.0
0 -0.000000 -0.442166 -6.274393 0.724609 -0.379150 -0.575684 0.984375 0.763672 1 0 1.0
Default
0 0.043648 -0.439884 -6.220041 0.724609 -0.379150 -0.575684 0.984375 0.763672 1 0 1.0
0 0.043648 -0.586578 -6.124377 0.724609 -0.379150 -0.575684 0.984375 0.763672 1 0 1.0
0 -0.000000 -0.442166 -6.274393 0.724609 -0.379150 -0.575684 0.984375 0.763672 1 0 1.0
Default
0 -0.043648 -0.586578 -6.124377 -0.000000 0.546387 0.837402 0.984375 0.763672 1 0 1.0
0 0.043648 -0.586578 -6.124377 -0.000000 0.546387 0.837402 0.984375 0.763672 1 0 1.0
0 0.043648 -0.439884 -6.220041 -0.000000 0.546387 0.837402 0.984375 0.763672 1 0 1.0
Default
0 -0.043648 -0.439884 -6.220041 -0.000000 0.546387 0.837402 0.984375 0.763672 1 0 1.0
0 -0.043648 -0.586578 -6.124377 -0.000000 0.546387 0.837402 0.984375 0.763672 1 0 1.0
0 0.043648 -0.439884 -6.220041 -0.000000 0.546387 0.837402 0.984375 0.763672 1 0 1.0
Default
0 0.017459 -0.617343 -5.665510 0.767578 -0.641113 -0.001924 0.984375 0.763672 1 0 1.0
0 0.000000 -0.639084 -5.664597 0.779785 -0.625977 -0.002972 0.984375 0.763672 1 0 1.0
0 -0.000000 -0.636803 -6.145280 0.767578 -0.641113 -0.001924 0.984375 0.763672 1 0 1.0
Default
0 -0.000000 -0.636803 -6.145280 0.767578 -0.641113 -0.001924 0.984375 0.763672 1 0 1.0
0 0.043648 -0.586578 -6.124377 0.754883 -0.655762 -0.000875 0.984375 0.763672 1 0 1.0
0 0.017459 -0.617343 -5.665510 0.767578 -0.641113 -0.001924 0.984375 0.763672 1 0 1.0
Default
0 -0.043648 -0.599509 -5.826410 -0.000000 0.999023 0.043365 0.984375 0.763672 1 0 1.0
0 0.043648 -0.599509 -5.826410 -0.000000 0.999023 0.043365 0.984375 0.763672 1 0 1.0
0 0.043648 -0.586578 -6.124377 -0.000000 0.999023 0.043365 0.984375 0.763672 1 0 1.0
Default
0 -0.043648 -0.586578 -6.124377 -0.000000 0.999023 0.043365 0.984375 0.763672 1 0 1.0
0 -0.043648 -0.599509 -5.826410 -0.000000 0.999023 0.043365 0.984375 0.763672 1 0 1.0
0 0.043648 -0.586578 -6.124377 -0.000000 0.999023 0.043365 0.984375 0.763672 1 0 1.0
Default
0 -0.017459 -0.617343 -5.665510 -0.000000 0.946777 0.321777 0.984375 0.763672 1 0 1.0
0 0.017459 -0.617343 -5.665510 -0.000000 0.946777 0.321777 0.984375 0.763672 1 0 1.0
0 0.043648 -0.515536 -5.965196 -0.000000 0.946777 0.321777 0.984375 0.763672 1 0 1.0
Default
0 -0.043648 -0.515536 -5.965196 -0.000000 0.946777 0.321777 0.984375 0.763672 1 0 1.0
0 -0.017459 -0.617343 -5.665510 -0.000000 0.946777 0.321777 0.984375 0.763672 1 0 1.0
0 0.043648 -0.515536 -5.965196 -0.000000 0.946777 0.321777 0.984375 0.763672 1 0 1.0
Default
0 -0.043648 -0.515536 -5.965196 -0.000000 -0.855469 -0.517578 0.984375 0.763672 1 0 1.0
0 0.043648 -0.515536 -5.965196 -0.000000 -0.855469 -0.517578 0.984375 0.763672 1 0 1.0
0 0.043648 -0.599509 -5.826410 -0.000000 -0.855469 -0.517578 0.984375 0.763672 1 0 1.0
Default
0 -0.043648 -0.599509 -5.826410 -0.000000 -0.855469 -0.517578 0.984375 0.763672 1 0 1.0
0 -0.043648 -0.515536 -5.965196 -0.000000 -0.855469 -0.517578 0.984375 0.763672 1 0 1.0
0 0.043648 -0.599509 -5.826410 -0.000000 -0.855469 -0.517578 0.984375 0.763672 1 0 1.0
Default
0 0.169653 0.096385 -6.260601 -0.013809 -0.891113 -0.453369 0.984375 0.763672 1 0 1.0
0 0.213301 0.071185 -6.212389 -0.013809 -0.891113 -0.453369 0.984375 0.763672 1 0 1.0
0 0.043648 -0.026764 -6.014661 -0.013809 -0.891113 -0.453369 0.984375 0.763672 1 0 1.0
Default
0 -0.000000 -0.001564 -6.062873 -0.013809 -0.891113 -0.453369 0.984375 0.763672 1 0 1.0
0 0.169653 0.096385 -6.260601 -0.013809 -0.891113 -0.453369 0.984375 0.763672 1 0 1.0
0 0.043648 -0.026764 -6.014661 -0.013809 -0.891113 -0.453369 0.984375 0.763672 1 0 1.0
Default
0 0.381572 0.218736 -6.274393 0.356445 -0.676758 -0.644043 0.984375 0.763672 1 0 1.0
0 0.401419 0.179795 -6.220041 0.356445 -0.676758 -0.644043 0.984375 0.763672 1 0 1.0
0 0.213301 0.071185 -6.212389 0.356445 -0.676758 -0.644043 0.984375 0.763672 1 0 1.0
Default
0 0.169653 0.096385 -6.260601 0.356445 -0.676758 -0.644043 0.984375 0.763672 1 0 1.0
0 0.381572 0.218736 -6.274393 0.356445 -0.676758 -0.644043 0.984375 0.763672 1 0 1.0
0 0.213301 0.071185 -6.212389 0.356445 -0.676758 -0.644043 0.984375 0.763672 1 0 1.0
Default
0 0.213301 0.071185 -6.212389 0.615234 0.355225 0.703613 0.984375 0.763672 1 0 1.0
0 0.169653 0.146785 -6.212389 0.615234 0.355225 0.703613 0.984375 0.763672 1 0 1.0
0 -0.000000 0.048836 -6.014661 0.615234 0.355225 0.703613 0.984375 0.763672 1 0 1.0
Default
0 0.043648 -0.026764 -6.014661 0.615234 0.355225 0.703613 0.984375 0.763672 1 0 1.0
0 0.213301 0.071185 -6.212389 0.615234 0.355225 0.703613 0.984375 0.763672 1 0 1.0
0 -0.000000 0.048836 -6.014661 0.615234 0.355225 0.703613 0.984375 0.763672 1 0 1.0
Default
0 0.550133 0.316055 -6.145280 0.690430 -0.437744 -0.575684 0.984375 0.763672 1 0 1.0
0 0.528461 0.253143 -6.124377 0.690430 -0.437744 -0.575684 0.984375 0.763672 1 0 1.0
0 0.401419 0.179795 -6.220041 0.690430 -0.437744 -0.575684 0.984375 0.763672 1 0 1.0
Default
0 0.381572 0.218736 -6.274393 0.690430 -0.437744 -0.575684 0.984375 0.763672 1 0 1.0
0 0.550133 0.316055 -6.145280 0.690430 -0.437744 -0.575684 0.984375 0.763672 1 0 1.0
0 0.401419 0.179795 -6.220041 0.690430 -0.437744 -0.575684 0.984375 0.763672 1 0 1.0
Default
0 0.357772 0.255395 -6.220041 -0.408203 0.646973 -0.644043 0.984375 0.763672 1 0 1.0
0 0.381572 0.218736 -6.274393 -0.408203 0.646973 -0.644043 0.984375 0.763672 1 0 1.0
0 0.169653 0.096385 -6.260601 -0.408203 0.646973 -0.644043 0.984375 0.763672 1 0 1.0
Default
0 0.169653 0.146785 -6.212389 -0.408203 0.646973 -0.644043 0.984375 0.763672 1 0 1.0
0 0.357772 0.255395 -6.220041 -0.408203 0.646973 -0.644043 0.984375 0.763672 1 0 1.0
0 0.169653 0.096385 -6.260601 -0.408203 0.646973 -0.644043 0.984375 0.763672 1 0 1.0
Default
0 0.401419 0.179795 -6.220041 0.030487 0.017593 0.999512 0.984375 0.763672 1 0 1.0
0 0.357772 0.255395 -6.220041 0.030487 0.017593 0.999512 0.984375 0.763672 1 0 1.0
0 0.169653 0.146785 -6.212389 0.030487 0.017593 0.999512 0.984375 0.763672 1 0 1.0
Default
0 0.213301 0.071185 -6.212389 0.030487 0.017593 0.999512 0.984375 0.763672 1 0 1.0
0 0.401419 0.179795 -6.220041 0.030487 0.017593 0.999512 0.984375 0.763672 1 0 1.0
0 0.169653 0.146785 -6.212389 0.030487 0.017593 0.999512 0.984375 0.763672 1 0 1.0
Default
0 0.484813 0.328743 -6.124377 -0.033844 0.816895 -0.575684 0.984375 0.763672 1 0 1.0
0 0.550133 0.316055 -6.145280 -0.033844 0.816895 -0.575684 0.984375 0.763672 1 0 1.0
0 0.381572 0.218736 -6.274393 -0.033844 0.816895 -0.575684 0.984375 0.763672 1 0 1.0
Default
0 0.357772 0.255395 -6.220041 -0.033844 0.816895 -0.575684 0.984375 0.763672 1 0 1.0
0 0.484813 0.328743 -6.124377 -0.033844 0.816895 -0.575684 0.984375 0.763672 1 0 1.0
0 0.381572 0.218736 -6.274393 -0.033844 0.816895 -0.575684 0.984375 0.763672 1 0 1.0
Default
0 0.528461 0.253143 -6.124377 -0.473145 -0.273193 0.837402 0.984375 0.763672 1 0 1.0
0 0.484813 0.328743 -6.124377 -0.473145 -0.273193 0.837402 0.984375 0.763672 1 0 1.0
0 0.357772 0.255395 -6.220041 -0.473145 -0.273193 0.837402 0.984375 0.763672 1 0 1.0
Default
0 0.401419 0.179795 -6.220041 -0.473145 -0.273193 0.837402 0.984375 0.763672 1 0 1.0
0 0.528461 0.253143 -6.124377 -0.473145 -0.273193 0.837402 0.984375 0.763672 1 0 1.0
0 0.357772 0.255395 -6.220041 -0.473145 -0.273193 0.837402 0.984375 0.763672 1 0 1.0
Default
0 0.539659 0.259608 -5.826410 -0.865234 -0.499512 0.043365 0.984375 0.763672 1 0 1.0
0 0.496012 0.335208 -5.826410 -0.865234 -0.499512 0.043365 0.984375 0.763672 1 0 1.0
0 0.484813 0.328743 -6.124377 -0.865234 -0.499512 0.043365 0.984375 0.763672 1 0 1.0
Default
0 0.528461 0.253143 -6.124377 -0.865234 -0.499512 0.043365 0.984375 0.763672 1 0 1.0
0 0.539659 0.259608 -5.826410 -0.865234 -0.499512 0.043365 0.984375 0.763672 1 0 1.0
0 0.484813 0.328743 -6.124377 -0.865234 -0.499512 0.043365 0.984375 0.763672 1 0 1.0
Default
0 0.542009 0.291205 -5.665510 -0.819824 -0.473389 0.321777 0.984375 0.763672 1 0 1.0
0 0.524550 0.321445 -5.665510 -0.819824 -0.473389 0.321777 0.984375 0.763672 1 0 1.0
0 0.423288 0.293221 -5.965196 -0.819824 -0.473389 0.321777 0.984375 0.763672 1 0 1.0
Default
0 0.466936 0.217621 -5.965196 -0.819824 -0.473389 0.321777 0.984375 0.763672 1 0 1.0
0 0.542009 0.291205 -5.665510 -0.819824 -0.473389 0.321777 0.984375 0.763672 1 0 1.0
0 0.423288 0.293221 -5.965196 -0.819824 -0.473389 0.321777 0.984375 0.763672 1 0 1.0
Default
0 0.466936 0.217621 -5.965196 0.740723 0.427734 -0.517578 0.984375 0.763672 1 0 1.0
0 0.423288 0.293221 -5.965196 0.740723 0.427734 -0.517578 0.984375 0.763672 1 0 1.0
0 0.496012 0.335208 -5.826410 0.740723 0.427734 -0.517578 0.984375 0.763672 1 0 1.0
Default
0 0.539659 0.259608 -5.826410 0.740723 0.427734 -0.517578 0.984375 0.763672 1 0 1.0
0 0.466936 0.217621 -5.965196 0.740723 0.427734 -0.517578 0.984375 0.763672 1 0 1.0
0 0.496012 0.335208 -5.826410 0.740723 0.427734 -0.517578 0.984375 0.763672 1 0 1.0
Default
0 -0.381572 0.218736 -6.274393 0.408203 0.646973 -0.644043 0.984375 0.763672 1 0 1.0
0 -0.357772 0.255395 -6.220041 0.408203 0.646973 -0.644043 0.984375 0.763672 1 0 1.0
0 -0.169653 0.146785 -6.212389 0.408203 0.646973 -0.644043 0.984375 0.763672 1 0 1.0
Default
0 -0.169653 0.096385 -6.260601 0.408203 0.646973 -0.644043 0.984375 0.763672 1 0 1.0
0 -0.381572 0.218736 -6.274393 0.408203 0.646973 -0.644043 0.984375 0.763672 1 0 1.0
0 -0.169653 0.146785 -6.212389 0.408203 0.646973 -0.644043 0.984375 0.763672 1 0 1.0
Default
0 -0.213301 0.071185 -6.212389 0.013809 -0.891113 -0.453369 0.984375 0.763672 1 0 1.0
0 -0.169653 0.096385 -6.260601 0.013809 -0.891113 -0.453369 0.984375 0.763672 1 0 1.0
0 -0.000000 -0.001564 -6.062873 0.013809 -0.891113 -0.453369 0.984375 0.763672 1 0 1.0
Default
0 -0.043648 -0.026764 -6.014661 0.013809 -0.891113 -0.453369 0.984375 0.763672 1 0 1.0
0 -0.213301 0.071185 -6.212389 0.013809 -0.891113 -0.453369 0.984375 0.763672 1 0 1.0
0 -0.000000 -0.001564 -6.062873 0.013809 -0.891113 -0.453369 0.984375 0.763672 1 0 1.0
Default
0 -0.169653 0.146785 -6.212389 -0.615234 0.355225 0.703613 0.984375 0.763672 1 0 1.0
0 -0.213301 0.071185 -6.212389 -0.615234 0.355225 0.703613 0.984375 0.763672 1 0 1.0
0 -0.043648 -0.026764 -6.014661 -0.615234 0.355225 0.703613 0.984375 0.763672 1 0 1.0
Default
0 -0.000000 0.048836 -6.014661 -0.615234 0.355225 0.703613 0.984375 0.763672 1 0 1.0
0 -0.169653 0.146785 -6.212389 -0.615234 0.355225 0.703613 0.984375 0.763672 1 0 1.0
0 -0.043648 -0.026764 -6.014661 -0.615234 0.355225 0.703613 0.984375 0.763672 1 0 1.0
Default
0 -0.550133 0.316055 -6.145280 0.033844 0.816895 -0.575684 0.984375 0.763672 1 0 1.0
0 -0.484813 0.328742 -6.124377 0.033844 0.816895 -0.575684 0.984375 0.763672 1 0 1.0
0 -0.357772 0.255395 -6.220041 0.033844 0.816895 -0.575684 0.984375 0.763672 1 0 1.0
Default
0 -0.381572 0.218736 -6.274393 0.033844 0.816895 -0.575684 0.984375 0.763672 1 0 1.0
0 -0.550133 0.316055 -6.145280 0.033844 0.816895 -0.575684 0.984375 0.763672 1 0 1.0
0 -0.357772 0.255395 -6.220041 0.033844 0.816895 -0.575684 0.984375 0.763672 1 0 1.0
Default
0 -0.401419 0.179795 -6.220041 -0.356445 -0.676758 -0.644043 0.984375 0.763672 1 0 1.0
0 -0.381572 0.218736 -6.274393 -0.356445 -0.676758 -0.644043 0.984375 0.763672 1 0 1.0
0 -0.169653 0.096385 -6.260601 -0.356445 -0.676758 -0.644043 0.984375 0.763672 1 0 1.0
Default
0 -0.213301 0.071185 -6.212389 -0.356445 -0.676758 -0.644043 0.984375 0.763672 1 0 1.0
0 -0.401419 0.179795 -6.220041 -0.356445 -0.676758 -0.644043 0.984375 0.763672 1 0 1.0
0 -0.169653 0.096385 -6.260601 -0.356445 -0.676758 -0.644043 0.984375 0.763672 1 0 1.0
Default
0 -0.357772 0.255395 -6.220041 -0.030487 0.017593 0.999512 0.984375 0.763672 1 0 1.0
0 -0.401419 0.179795 -6.220041 -0.030487 0.017593 0.999512 0.984375 0.763672 1 0 1.0
0 -0.213301 0.071185 -6.212389 -0.030487 0.017593 0.999512 0.984375 0.763672 1 0 1.0
Default
0 -0.169653 0.146785 -6.212389 -0.030487 0.017593 0.999512 0.984375 0.763672 1 0 1.0
0 -0.357772 0.255395 -6.220041 -0.030487 0.017593 0.999512 0.984375 0.763672 1 0 1.0
0 -0.213301 0.071185 -6.212389 -0.030487 0.017593 0.999512 0.984375 0.763672 1 0 1.0
Default
0 -0.528461 0.253142 -6.124377 -0.690430 -0.437744 -0.575684 0.984375 0.763672 1 0 1.0
0 -0.550133 0.316055 -6.145280 -0.690430 -0.437744 -0.575684 0.984375 0.763672 1 0 1.0
0 -0.381572 0.218736 -6.274393 -0.690430 -0.437744 -0.575684 0.984375 0.763672 1 0 1.0
Default
0 -0.401419 0.179795 -6.220041 -0.690430 -0.437744 -0.575684 0.984375 0.763672 1 0 1.0
0 -0.528461 0.253142 -6.124377 -0.690430 -0.437744 -0.575684 0.984375 0.763672 1 0 1.0
0 -0.381572 0.218736 -6.274393 -0.690430 -0.437744 -0.575684 0.984375 0.763672 1 0 1.0
Default
0 -0.484813 0.328742 -6.124377 0.473145 -0.273193 0.837402 0.984375 0.763672 1 0 1.0
0 -0.528461 0.253142 -6.124377 0.473145 -0.273193 0.837402 0.984375 0.763672 1 0 1.0
0 -0.401419 0.179795 -6.220041 0.473145 -0.273193 0.837402 0.984375 0.763672 1 0 1.0
Default
0 -0.357772 0.255395 -6.220041 0.473145 -0.273193 0.837402 0.984375 0.763672 1 0 1.0
0 -0.484813 0.328742 -6.124377 0.473145 -0.273193 0.837402 0.984375 0.763672 1 0 1.0
0 -0.401419 0.179795 -6.220041 0.473145 -0.273193 0.837402 0.984375 0.763672 1 0 1.0
Default
0 -0.496012 0.335208 -5.826410 0.865234 -0.499512 0.043365 0.984375 0.763672 1 0 1.0
0 -0.539659 0.259608 -5.826410 0.865234 -0.499512 0.043365 0.984375 0.763672 1 0 1.0
0 -0.528461 0.253142 -6.124377 0.865234 -0.499512 0.043365 0.984375 0.763672 1 0 1.0
Default
0 -0.484813 0.328742 -6.124377 0.865234 -0.499512 0.043365 0.984375 0.763672 1 0 1.0
0 -0.496012 0.335208 -5.826410 0.865234 -0.499512 0.043365 0.984375 0.763672 1 0 1.0
0 -0.528461 0.253142 -6.124377 0.865234 -0.499512 0.043365 0.984375 0.763672 1 0 1.0
Default
0 -0.524550 0.321445 -5.665510 0.819824 -0.473389 0.321777 0.984375 0.763672 1 0 1.0
0 -0.542009 0.291205 -5.665510 0.819824 -0.473389 0.321777 0.984375 0.763672 1 0 1.0
0 -0.466936 0.217621 -5.965196 0.819824 -0.473389 0.321777 0.984375 0.763672 1 0 1.0
Default
0 -0.423288 0.293221 -5.965196 0.819824 -0.473389 0.321777 0.984375 0.763672 1 0 1.0
0 -0.524550 0.321445 -5.665510 0.819824 -0.473389 0.321777 0.984375 0.763672 1 0 1.0
0 -0.466936 0.217621 -5.965196 0.819824 -0.473389 0.321777 0.984375 0.763672 1 0 1.0
Default
0 -0.423288 0.293221 -5.965196 -0.740723 0.427734 -0.517578 0.984375 0.763672 1 0 1.0
0 -0.466936 0.217621 -5.965196 -0.740723 0.427734 -0.517578 0.984375 0.763672 1 0 1.0
0 -0.539659 0.259608 -5.826410 -0.740723 0.427734 -0.517578 0.984375 0.763672 1 0 1.0
Default
0 -0.496012 0.335208 -5.826410 -0.740723 0.427734 -0.517578 0.984375 0.763672 1 0 1.0
0 -0.423288 0.293221 -5.965196 -0.740723 0.427734 -0.517578 0.984375 0.763672 1 0 1.0
0 -0.539659 0.259608 -5.826410 -0.740723 0.427734 -0.517578 0.984375 0.763672 1 0 1.0
Default
0 -0.186633 -0.256879 -0.373333 -0.000000 -1.000000 0.000000 0.330322 0.981934 1 0 1.0
0 -0.186633 -0.256879 -4.106666 -0.000000 -1.000000 0.000000 0.330322 0.981934 1 0 1.0
0 0.186634 -0.256879 -4.106666 -0.000000 -1.000000 0.000000 0.330322 0.981934 1 0 1.0
Default
0 0.186634 -0.256879 -0.373333 -0.000000 -1.000000 0.000000 0.330322 0.981934 1 0 1.0
0 -0.186633 -0.256879 -0.373333 -0.000000 -1.000000 0.000000 0.330322 0.981934 1 0 1.0
0 0.186634 -0.256879 -4.106666 -0.000000 -1.000000 0.000000 0.330322 0.981934 1 0 1.0
Default
0 0.186634 -0.256879 -0.373333 0.951172 -0.309082 0.000000 0.330322 0.981934 1 0 1.0
0 0.186634 -0.256879 -4.106666 0.951172 -0.309082 0.000000 0.330322 0.981934 1 0 1.0
0 0.301980 0.098119 -4.106666 0.951172 -0.309082 0.000000 0.330322 0.981934 1 0 1.0
Default
0 0.301980 0.098119 -0.373333 0.951172 -0.309082 0.000000 0.330322 0.981934 1 0 1.0
0 0.186634 -0.256879 -0.373333 0.951172 -0.309082 0.000000 0.330322 0.981934 1 0 1.0
0 0.301980 0.098119 -4.106666 0.951172 -0.309082 0.000000 0.330322 0.981934 1 0 1.0
Default
0 0.000000 0.317520 -0.373333 -0.587891 0.809082 0.000000 0.330322 0.981934 1 0 1.0
0 0.000000 0.317520 -4.106666 -0.587891 0.809082 0.000000 0.330322 0.981934 1 0 1.0
0 -0.301979 0.098119 -4.106666 -0.587891 0.809082 0.000000 0.330322 0.981934 1 0 1.0
Default
0 -0.301979 0.098119 -0.373333 -0.587891 0.809082 0.000000 0.330322 0.981934 1 0 1.0
0 0.000000 0.317520 -0.373333 -0.587891 0.809082 0.000000 0.330322 0.981934 1 0 1.0
0 -0.301979 0.098119 -4.106666 -0.587891 0.809082 0.000000 0.330322 0.981934 1 0 1.0
Default
0 0.301980 0.098119 -0.373333 0.587891 0.809082 0.000000 0.330322 0.981934 1 0 1.0
0 0.301980 0.098119 -4.106666 0.587891 0.809082 0.000000 0.330322 0.981934 1 0 1.0
0 0.000000 0.317520 -4.106666 0.587891 0.809082 0.000000 0.330322 0.981934 1 0 1.0
Default
0 0.000000 0.317520 -0.373333 0.587891 0.809082 0.000000 0.330322 0.981934 1 0 1.0
0 0.301980 0.098119 -0.373333 0.587891 0.809082 0.000000 0.330322 0.981934 1 0 1.0
0 0.000000 0.317520 -4.106666 0.587891 0.809082 0.000000 0.330322 0.981934 1 0 1.0
Default
0 -0.301979 0.098119 -0.373333 -0.951172 -0.309082 0.000000 0.330322 0.981934 1 0 1.0
0 -0.301979 0.098119 -4.106666 -0.951172 -0.309082 0.000000 0.330322 0.981934 1 0 1.0
0 -0.186633 -0.256879 -4.106666 -0.951172 -0.309082 0.000000 0.330322 0.981934 1 0 1.0
Default
0 -0.186633 -0.256879 -0.373333 -0.951172 -0.309082 0.000000 0.330322 0.981934 1 0 1.0
0 -0.301979 0.098119 -0.373333 -0.951172 -0.309082 0.000000 0.330322 0.981934 1 0 1.0
0 -0.186633 -0.256879 -4.106666 -0.951172 -0.309082 0.000000 0.330322 0.981934 1 0 1.0
Default
0 0.000000 0.192630 -4.480000 -0.497314 0.684570 -0.533203 0.982422 0.609863 1 0 1.0
0 -0.183202 0.059526 -4.480000 -0.497314 0.684570 -0.533203 0.982422 0.609863 1 0 1.0
0 -0.301979 0.098119 -4.319622 -0.497314 0.684570 -0.533203 0.982422 0.609863 1 0 1.0
Default
0 0.000000 0.317520 -4.319622 -0.497314 0.684570 -0.533203 0.982422 0.609863 1 0 1.0
0 0.000000 0.192630 -4.480000 -0.497314 0.684570 -0.533203 0.982422 0.609863 1 0 1.0
0 -0.301979 0.098119 -4.319622 -0.497314 0.684570 -0.533203 0.982422 0.609863 1 0 1.0
Default
0 -0.113225 -0.155841 0.000000 -0.804688 -0.261475 0.533203 0.982422 0.609863 1 0 1.0
0 -0.183202 0.059526 0.000000 -0.804688 -0.261475 0.533203 0.982422 0.609863 1 0 1.0
0 -0.301979 0.098119 -0.160378 -0.804688 -0.261475 0.533203 0.982422 0.609863 1 0 1.0
Default
0 -0.186633 -0.256879 -0.160378 -0.804688 -0.261475 0.533203 0.982422 0.609863 1 0 1.0
0 -0.113225 -0.155841 0.000000 -0.804688 -0.261475 0.533203 0.982422 0.609863 1 0 1.0
0 -0.301979 0.098119 -0.160378 -0.804688 -0.261475 0.533203 0.982422 0.609863 1 0 1.0
Default
0 -0.183202 0.059526 0.000000 -0.497314 0.684570 0.533203 0.982422 0.609863 1 0 1.0
0 0.000000 0.192630 0.000000 -0.497314 0.684570 0.533203 0.982422 0.609863 1 0 1.0
0 0.000000 0.317520 -0.160378 -0.497314 0.684570 0.533203 0.982422 0.609863 1 0 1.0
Default
0 -0.301979 0.098119 -0.160378 -0.497314 0.684570 0.533203 0.982422 0.609863 1 0 1.0
0 -0.183202 0.059526 0.000000 -0.497314 0.684570 0.533203 0.982422 0.609863 1 0 1.0
0 0.000000 0.317520 -0.160378 -0.497314 0.684570 0.533203 0.982422 0.609863 1 0 1.0
Default
0 0.113225 -0.155841 0.000000 -0.000000 -0.846191 0.533203 0.982422 0.609863 1 0 1.0
0 -0.113225 -0.155841 0.000000 -0.000000 -0.846191 0.533203 0.982422 0.609863 1 0 1.0
0 -0.186633 -0.256879 -0.160378 -0.000000 -0.846191 0.533203 0.982422 0.609863 1 0 1.0
Default
0 0.186634 -0.256879 -0.160378 -0.000000 -0.846191 0.533203 0.982422 0.609863 1 0 1.0
0 0.113225 -0.155841 0.000000 -0.000000 -0.846191 0.533203 0.982422 0.609863 1 0 1.0
0 -0.186633 -0.256879 -0.160378 -0.000000 -0.846191 0.533203 0.982422 0.609863 1 0 1.0
Default
0 -0.113225 -0.155841 -4.480000 -0.000000 -0.846191 -0.533203 0.982422 0.609863 1 0 1.0
0 0.113225 -0.155841 -4.480000 -0.000000 -0.846191 -0.533203 0.982422 0.609863 1 0 1.0
0 0.186634 -0.256879 -4.319622 -0.000000 -0.846191 -0.533203 0.982422 0.609863 1 0 1.0
Default
0 -0.186633 -0.256879 -4.319622 -0.000000 -0.846191 -0.533203 0.982422 0.609863 1 0 1.0
0 -0.113225 -0.155841 -4.480000 -0.000000 -0.846191 -0.533203 0.982422 0.609863 1 0 1.0
0 0.186634 -0.256879 -4.319622 -0.000000 -0.846191 -0.533203 0.982422 0.609863 1 0 1.0
Default
0 -0.183202 0.059526 -4.480000 -0.804688 -0.261475 -0.533203 0.982422 0.609863 1 0 1.0
0 -0.113225 -0.155841 -4.480000 -0.804688 -0.261475 -0.533203 0.982422 0.609863 1 0 1.0
0 -0.186633 -0.256879 -4.319622 -0.804688 -0.261475 -0.533203 0.982422 0.609863 1 0 1.0
Default
0 -0.301979 0.098119 -4.319622 -0.804688 -0.261475 -0.533203 0.982422 0.609863 1 0 1.0
0 -0.183202 0.059526 -4.480000 -0.804688 -0.261475 -0.533203 0.982422 0.609863 1 0 1.0
0 -0.186633 -0.256879 -4.319622 -0.804688 -0.261475 -0.533203 0.982422 0.609863 1 0 1.0
Default
0 0.113225 -0.155841 -4.480000 0.804688 -0.261475 -0.533203 0.982422 0.609863 1 0 1.0
0 0.183203 0.059526 -4.480000 0.804688 -0.261475 -0.533203 0.982422 0.609863 1 0 1.0
0 0.301980 0.098119 -4.319622 0.804688 -0.261475 -0.533203 0.982422 0.609863 1 0 1.0
Default
0 0.186634 -0.256879 -4.319622 0.804688 -0.261475 -0.533203 0.982422 0.609863 1 0 1.0
0 0.113225 -0.155841 -4.480000 0.804688 -0.261475 -0.533203 0.982422 0.609863 1 0 1.0
0 0.301980 0.098119 -4.319622 0.804688 -0.261475 -0.533203 0.982422 0.609863 1 0 1.0
Default
0 0.183203 0.059526 0.000000 0.804688 -0.261475 0.533203 0.982422 0.609863 1 0 1.0
0 0.113225 -0.155841 0.000000 0.804688 -0.261475 0.533203 0.982422 0.609863 1 0 1.0
0 0.186634 -0.256879 -0.160378 0.804688 -0.261475 0.533203 0.982422 0.609863 1 0 1.0
Default
0 0.301980 0.098119 -0.160378 0.804688 -0.261475 0.533203 0.982422 0.609863 1 0 1.0
0 0.183203 0.059526 0.000000 0.804688 -0.261475 0.533203 0.982422 0.609863 1 0 1.0
0 0.186634 -0.256879 -0.160378 0.804688 -0.261475 0.533203 0.982422 0.609863 1 0 1.0
Default
0 0.000000 0.192630 0.000000 0.497314 0.684570 0.533203 0.982422 0.609863 1 0 1.0
0 0.183203 0.059526 0.000000 0.497314 0.684570 0.533203 0.982422 0.609863 1 0 1.0
0 0.301980 0.098119 -0.160378 0.497314 0.684570 0.533203 0.982422 0.609863 1 0 1.0
Default
0 0.000000 0.317520 -0.160378 0.497314 0.684570 0.533203 0.982422 0.609863 1 0 1.0
0 0.000000 0.192630 0.000000 0.497314 0.684570 0.533203 0.982422 0.609863 1 0 1.0
0 0.301980 0.098119 -0.160378 0.497314 0.684570 0.533203 0.982422 0.609863 1 0 1.0
Default
0 0.183203 0.059526 -4.480000 0.497314 0.684570 -0.533203 0.982422 0.609863 1 0 1.0
0 0.000000 0.192630 -4.480000 0.497314 0.684570 -0.533203 0.982422 0.609863 1 0 1.0
0 0.000000 0.317520 -4.319622 0.497314 0.684570 -0.533203 0.982422 0.609863 1 0 1.0
Default
0 0.301980 0.098119 -4.319622 0.497314 0.684570 -0.533203 0.982422 0.609863 1 0 1.0
0 0.183203 0.059526 -4.480000 0.497314 0.684570 -0.533203 0.982422 0.609863 1 0 1.0
0 0.000000 0.317520 -4.319622 0.497314 0.684570 -0.533203 0.982422 0.609863 1 0 1.0
Default
0 -0.301979 0.098119 -0.160378 -0.951172 -0.309082 0.000000 0.982422 0.609863 1 0 1.0
0 -0.301979 0.098119 -0.373333 -0.951172 -0.309082 0.000000 0.982422 0.609863 1 0 1.0
0 -0.186633 -0.256879 -0.373333 -0.951172 -0.309082 0.000000 0.982422 0.609863 1 0 1.0
Default
0 -0.186633 -0.256879 -0.160378 -0.951172 -0.309082 0.000000 0.982422 0.609863 1 0 1.0
0 -0.301979 0.098119 -0.160378 -0.951172 -0.309082 0.000000 0.982422 0.609863 1 0 1.0
0 -0.186633 -0.256879 -0.373333 -0.951172 -0.309082 0.000000 0.982422 0.609863 1 0 1.0
Default
0 0.113225 -0.155841 0.000000 -0.000000 0.000000 1.000000 0.982422 0.609863 1 0 1.0
0 0.183203 0.059526 0.000000 -0.000000 0.000000 1.000000 0.982422 0.609863 1 0 1.0
0 0.000000 0.192630 0.000000 -0.000000 0.000000 1.000000 0.982422 0.609863 1 0 1.0
Default
0 0.000000 0.192630 0.000000 -0.000000 0.000000 1.000000 0.982422 0.609863 1 0 1.0
0 -0.113225 -0.155841 0.000000 -0.000000 0.000000 1.000000 0.982422 0.609863 1 0 1.0
0 0.113225 -0.155841 0.000000 -0.000000 0.000000 1.000000 0.982422 0.609863 1 0 1.0
Default
0 0.000000 0.192630 0.000000 -0.000000 0.000000 1.000000 0.982422 0.609863 1 0 1.0
0 -0.183202 0.059526 0.000000 -0.000000 0.000000 1.000000 0.982422 0.609863 1 0 1.0
0 -0.113225 -0.155841 0.000000 -0.000000 0.000000 1.000000 0.982422 0.609863 1 0 1.0
Default
0 0.000000 0.317520 -0.160378 -0.587891 0.809082 0.000000 0.982422 0.609863 1 0 1.0
0 0.000000 0.317520 -0.373333 -0.587891 0.809082 0.000000 0.982422 0.609863 1 0 1.0
0 -0.301979 0.098119 -0.373333 -0.587891 0.809082 0.000000 0.982422 0.609863 1 0 1.0
Default
0 -0.301979 0.098119 -0.160378 -0.587891 0.809082 0.000000 0.982422 0.609863 1 0 1.0
0 0.000000 0.317520 -0.160378 -0.587891 0.809082 0.000000 0.982422 0.609863 1 0 1.0
0 -0.301979 0.098119 -0.373333 -0.587891 0.809082 0.000000 0.982422 0.609863 1 0 1.0
Default
0 0.000000 0.192630 -4.480000 -0.000000 0.000000 -1.000000 0.982422 0.609863 1 0 1.0
0 0.183203 0.059526 -4.480000 -0.000000 0.000000 -1.000000 0.982422 0.609863 1 0 1.0
0 0.113225 -0.155841 -4.480000 -0.000000 0.000000 -1.000000 0.982422 0.609863 1 0 1.0
Default
0 0.113225 -0.155841 -4.480000 -0.000000 0.000000 -1.000000 0.982422 0.609863 1 0 1.0
0 -0.113225 -0.155841 -4.480000 -0.000000 0.000000 -1.000000 0.982422 0.609863 1 0 1.0
0 0.000000 0.192630 -4.480000 -0.000000 0.000000 -1.000000 0.982422 0.609863 1 0 1.0
Default
0 -0.113225 -0.155841 -4.480000 -0.000000 0.000000 -1.000000 0.982422 0.609863 1 0 1.0
0 -0.183202 0.059526 -4.480000 -0.000000 0.000000 -1.000000 0.982422 0.609863 1 0 1.0
0 0.000000 0.192630 -4.480000 -0.000000 0.000000 -1.000000 0.982422 0.609863 1 0 1.0
Default
0 0.000000 0.317520 -4.106666 -0.587891 0.809082 0.000000 0.982422 0.609863 1 0 1.0
0 0.000000 0.317520 -4.319622 -0.587891 0.809082 0.000000 0.982422 0.609863 1 0 1.0
0 -0.301979 0.098119 -4.319622 -0.587891 0.809082 0.000000 0.982422 0.609863 1 0 1.0
Default
0 -0.301979 0.098119 -4.106666 -0.587891 0.809082 0.000000 0.982422 0.609863 1 0 1.0
0 0.000000 0.317520 -4.106666 -0.587891 0.809082 0.000000 0.982422 0.609863 1 0 1.0
0 -0.301979 0.098119 -4.319622 -0.587891 0.809082 0.000000 0.982422 0.609863 1 0 1.0
Default
0 -0.301979 0.098119 -4.106666 -0.951172 -0.309082 0.000000 0.982422 0.609863 1 0 1.0
0 -0.301979 0.098119 -4.319622 -0.951172 -0.309082 0.000000 0.982422 0.609863 1 0 1.0
0 -0.186633 -0.256879 -4.319622 -0.951172 -0.309082 0.000000 0.982422 0.609863 1 0 1.0
Default
0 -0.186633 -0.256879 -4.106666 -0.951172 -0.309082 0.000000 0.982422 0.609863 1 0 1.0
0 -0.301979 0.098119 -4.106666 -0.951172 -0.309082 0.000000 0.982422 0.609863 1 0 1.0
0 -0.186633 -0.256879 -4.319622 -0.951172 -0.309082 0.000000 0.982422 0.609863 1 0 1.0
Default
0 -0.186633 -0.256879 -0.160378 -0.000000 -1.000000 0.000000 0.982422 0.609863 1 0 1.0
0 -0.186633 -0.256879 -0.373333 -0.000000 -1.000000 0.000000 0.982422 0.609863 1 0 1.0
0 0.186634 -0.256879 -0.373333 -0.000000 -1.000000 0.000000 0.982422 0.609863 1 0 1.0
Default
0 0.186634 -0.256879 -0.160378 -0.000000 -1.000000 0.000000 0.982422 0.609863 1 0 1.0
0 -0.186633 -0.256879 -0.160378 -0.000000 -1.000000 0.000000 0.982422 0.609863 1 0 1.0
0 0.186634 -0.256879 -0.373333 -0.000000 -1.000000 0.000000 0.982422 0.609863 1 0 1.0
Default
0 -0.186633 -0.256879 -4.106666 -0.000000 -1.000000 0.000000 0.982422 0.609863 1 0 1.0
0 -0.186633 -0.256879 -4.319622 -0.000000 -1.000000 0.000000 0.982422 0.609863 1 0 1.0
0 0.186634 -0.256879 -4.319622 -0.000000 -1.000000 0.000000 0.982422 0.609863 1 0 1.0
Default
0 0.186634 -0.256879 -4.106666 -0.000000 -1.000000 0.000000 0.982422 0.609863 1 0 1.0
0 -0.186633 -0.256879 -4.106666 -0.000000 -1.000000 0.000000 0.982422 0.609863 1 0 1.0
0 0.186634 -0.256879 -4.319622 -0.000000 -1.000000 0.000000 0.982422 0.609863 1 0 1.0
Default
0 0.186634 -0.256879 -0.160378 0.951172 -0.309082 0.000000 0.982422 0.609863 1 0 1.0
0 0.186634 -0.256879 -0.373333 0.951172 -0.309082 0.000000 0.982422 0.609863 1 0 1.0
0 0.301980 0.098119 -0.373333 0.951172 -0.309082 0.000000 0.982422 0.609863 1 0 1.0
Default
0 0.301980 0.098119 -0.160378 0.951172 -0.309082 0.000000 0.982422 0.609863 1 0 1.0
0 0.186634 -0.256879 -0.160378 0.951172 -0.309082 0.000000 0.982422 0.609863 1 0 1.0
0 0.301980 0.098119 -0.373333 0.951172 -0.309082 0.000000 0.982422 0.609863 1 0 1.0
Default
0 0.186634 -0.256879 -4.106666 0.951172 -0.309082 0.000000 0.982422 0.609863 1 0 1.0
0 0.186634 -0.256879 -4.319622 0.951172 -0.309082 0.000000 0.982422 0.609863 1 0 1.0
0 0.301980 0.098119 -4.319622 0.951172 -0.309082 0.000000 0.982422 0.609863 1 0 1.0
Default
0 0.301980 0.098119 -4.106666 0.951172 -0.309082 0.000000 0.982422 0.609863 1 0 1.0
0 0.186634 -0.256879 -4.106666 0.951172 -0.309082 0.000000 0.982422 0.609863 1 0 1.0
0 0.301980 0.098119 -4.319622 0.951172 -0.309082 0.000000 0.982422 0.609863 1 0 1.0
Default
0 0.301980 0.098119 -0.160378 0.587891 0.809082 0.000000 0.982422 0.609863 1 0 1.0
0 0.301980 0.098119 -0.373333 0.587891 0.809082 0.000000 0.982422 0.609863 1 0 1.0
0 0.000000 0.317520 -0.373333 0.587891 0.809082 0.000000 0.982422 0.609863 1 0 1.0
Default
0 0.000000 0.317520 -0.160378 0.587891 0.809082 0.000000 0.982422 0.609863 1 0 1.0
0 0.301980 0.098119 -0.160378 0.587891 0.809082 0.000000 0.982422 0.609863 1 0 1.0
0 0.000000 0.317520 -0.373333 0.587891 0.809082 0.000000 0.982422 0.609863 1 0 1.0
Default
0 0.301980 0.098119 -4.106666 0.587891 0.809082 0.000000 0.982422 0.609863 1 0 1.0
0 0.301980 0.098119 -4.319622 0.587891 0.809082 0.000000 0.982422 0.609863 1 0 1.0
0 0.000000 0.317520 -4.319622 0.587891 0.809082 0.000000 0.982422 0.609863 1 0 1.0
Default
0 0.000000 0.317520 -4.106666 0.587891 0.809082 0.000000 0.982422 0.609863 1 0 1.0
0 0.301980 0.098119 -4.106666 0.587891 0.809082 0.000000 0.982422 0.609863 1 0 1.0
0 0.000000 0.317520 -4.319622 0.587891 0.809082 0.000000 0.982422 0.609863 1 0 1.0
end
