version 1
nodes
0 "root" -1
end
skeleton
time 0
0 0.000000 0.000000 0.000000 0.000000 0.000000 0.000000
end
triangles
Default
0 0.043648 -0.026764 -4.255699 -0.000000 0.000000 1.000000 0.984375 0.763672 1 0 1.0
0 0.000000 0.048836 -4.255699 -0.000000 0.000000 1.000000 0.984375 0.763672 1 0 1.0
0 -0.043648 -0.026764 -4.255699 -0.000000 0.000000 1.000000 0.984375 0.763672 1 0 1.0
Default
0 -0.017459 -0.617343 -5.023397 -0.382568 -0.923340 -0.040070 0.984375 0.763672 1 0 1.0
0 -0.043648 -0.599509 -5.184297 -0.382568 -0.923340 -0.040070 0.984375 0.763672 1 0 1.0
0 -0.043648 -0.586578 -5.482264 -0.382568 -0.923340 -0.040070 0.984375 0.763672 1 0 1.0
Default
0 -0.017459 -0.617343 -5.023397 -0.000000 0.041962 0.999023 0.984375 0.763672 1 0 1.0
0 0.000000 -0.639084 -5.022484 -0.000000 0.041962 0.999023 0.984375 0.763672 1 0 1.0
0 0.017459 -0.617343 -5.023397 -0.000000 0.041962 0.999023 0.984375 0.763672 1 0 1.0
Default
0 0.043648 -0.586578 -5.482264 0.382568 -0.923340 -0.040070 0.984375 0.763672 1 0 1.0
0 0.043648 -0.599509 -5.184297 0.382568 -0.923340 -0.040070 0.984375 0.763672 1 0 1.0
0 0.017459 -0.617343 -5.023397 0.382568 -0.923340 -0.040070 0.984375 0.763672 1 0 1.0
Default
0 -0.017459 -0.617343 -5.023397 -0.933105 0.307373 0.185913 0.984375 0.763672 1 0 1.0
0 -0.043648 -0.515536 -5.323083 -0.933105 0.307373 0.185913 0.984375 0.763672 1 0 1.0
0 -0.043648 -0.599509 -5.184297 -0.933105 0.307373 0.185913 0.984375 0.763672 1 0 1.0
Default
0 0.043648 -0.599509 -5.184297 0.933105 0.307373 0.185913 0.984375 0.763672 1 0 1.0
0 0.043648 -0.515536 -5.323083 0.933105 0.307373 0.185913 0.984375 0.763672 1 0 1.0
0 0.017459 -0.617343 -5.023397 0.933105 0.307373 0.185913 0.984375 0.763672 1 0 1.0
Default
0 0.539659 0.259608 -5.184297 0.942383 -0.333984 -0.028168 0.984375 0.763672 1 0 1.0
0 0.528461 0.253143 -5.482264 0.942383 -0.333984 -0.028168 0.984375 0.763672 1 0 1.0
0 0.550133 0.316055 -5.503166 0.942383 -0.333984 -0.028168 0.984375 0.763672 1 0 1.0
Default
0 0.550133 0.316055 -5.503166 0.942383 -0.333984 -0.028168 0.984375 0.763672 1 0 1.0
0 0.552108 0.317195 -5.022484 0.932129 -0.362061 -0.002972 0.984375 0.763672 1 0 1.0
0 0.542009 0.291205 -5.023397 0.932129 -0.362061 -0.002972 0.984375 0.763672 1 0 1.0
Default
0 0.550133 0.316055 -5.503166 0.992188 -0.126099 0.010269 0.984375 0.763672 1 0 1.0
0 0.542009 0.291205 -5.023397 0.992188 -0.126099 0.010269 0.984375 0.763672 1 0 1.0
0 0.539659 0.259608 -5.184297 0.992188 -0.126099 0.010269 0.984375 0.763672 1 0 1.0
Default
0 0.542009 0.291205 -5.023397 -0.036346 -0.020981 0.999023 0.984375 0.763672 1 0 1.0
0 0.552108 0.317195 -5.022484 -0.036346 -0.020981 0.999023 0.984375 0.763672 1 0 1.0
0 0.524550 0.321445 -5.023397 -0.036346 -0.020981 0.999023 0.984375 0.763672 1 0 1.0
Default
0 0.552108 0.317195 -5.022484 0.189697 0.981934 -0.003109 0.984375 0.763672 1 0 1.0
0 0.550133 0.316055 -5.503166 0.189697 0.981934 -0.003109 0.984375 0.763672 1 0 1.0
0 0.484813 0.328743 -5.482264 0.189697 0.981934 -0.003109 0.984375 0.763672 1 0 1.0
Default
0 0.484813 0.328743 -5.482264 0.395020 0.917969 -0.034760 0.984375 0.763672 1 0 1.0
0 0.496012 0.335208 -5.184297 0.395020 0.917969 -0.034760 0.984375 0.763672 1 0 1.0
0 0.552108 0.317195 -5.022484 0.395020 0.917969 -0.034760 0.984375 0.763672 1 0 1.0
Default
0 0.496012 0.335208 -5.184297 0.150269 0.986816 0.057770 0.984375 0.763672 1 0 1.0
0 0.524550 0.321445 -5.023397 0.150269 0.986816 0.057770 0.984375 0.763672 1 0 1.0
0 0.552108 0.317195 -5.022484 0.150269 0.986816 0.057770 0.984375 0.763672 1 0 1.0
Default
0 0.542009 0.291205 -5.023397 0.200439 -0.961914 0.185913 0.984375 0.763672 1 0 1.0
0 0.466936 0.217621 -5.323083 0.200439 -0.961914 0.185913 0.984375 0.763672 1 0 1.0
0 0.539659 0.259608 -5.184297 0.200439 -0.961914 0.185913 0.984375 0.763672 1 0 1.0
Default
0 0.496012 0.335208 -5.184297 -0.732910 0.654785 0.185913 0.984375 0.763672 1 0 1.0
0 0.423288 0.293221 -5.323083 -0.732910 0.654785 0.185913 0.984375 0.763672 1 0 1.0
0 0.524550 0.321445 -5.023397 -0.732910 0.654785 0.185913 0.984375 0.763672 1 0 1.0
Default
0 -0.484813 0.328742 -5.482264 -0.189697 0.981934 -0.003109 0.984375 0.763672 1 0 1.0
0 -0.550133 0.316055 -5.503166 -0.189697 0.981934 -0.003109 0.984375 0.763672 1 0 1.0
0 -0.552108 0.317195 -5.022484 -0.189697 0.981934 -0.003109 0.984375 0.763672 1 0 1.0
Default
0 -0.552108 0.317195 -5.022484 -0.395020 0.917969 -0.034760 0.984375 0.763672 1 0 1.0
0 -0.496012 0.335208 -5.184297 -0.395020 0.917969 -0.034760 0.984375 0.763672 1 0 1.0
0 -0.484813 0.328742 -5.482264 -0.395020 0.917969 -0.034760 0.984375 0.763672 1 0 1.0
Default
0 -0.552108 0.317195 -5.022484 -0.150269 0.986816 0.057770 0.984375 0.763672 1 0 1.0
0 -0.524550 0.321445 -5.023397 -0.150269 0.986816 0.057770 0.984375 0.763672 1 0 1.0
0 -0.496012 0.335208 -5.184297 -0.150269 0.986816 0.057770 0.984375 0.763672 1 0 1.0
Default
0 -0.524550 0.321445 -5.023397 0.036346 -0.020981 0.999023 0.984375 0.763672 1 0 1.0
0 -0.552108 0.317195 -5.022484 0.036346 -0.020981 0.999023 0.984375 0.763672 1 0 1.0
0 -0.542009 0.291205 -5.023397 0.036346 -0.020981 0.999023 0.984375 0.763672 1 0 1.0
Default
0 -0.550133 0.316055 -5.503166 -0.942383 -0.333984 -0.028168 0.984375 0.763672 1 0 1.0
0 -0.528461 0.253142 -5.482264 -0.942383 -0.333984 -0.028168 0.984375 0.763672 1 0 1.0
0 -0.539659 0.259608 -5.184297 -0.942383 -0.333984 -0.028168 0.984375 0.763672 1 0 1.0
Default
0 -0.542009 0.291205 -5.023397 -0.932129 -0.362061 -0.002972 0.984375 0.763672 1 0 1.0
0 -0.552108 0.317195 -5.022484 -0.932129 -0.362061 -0.002972 0.984375 0.763672 1 0 1.0
0 -0.550133 0.316055 -5.503166 -0.942383 -0.333984 -0.028168 0.984375 0.763672 1 0 1.0
Default
0 -0.539659 0.259608 -5.184297 -0.992188 -0.126099 0.010269 0.984375 0.763672 1 0 1.0
0 -0.542009 0.291205 -5.023397 -0.992188 -0.126099 0.010269 0.984375 0.763672 1 0 1.0
0 -0.550133 0.316055 -5.503166 -0.992188 -0.126099 0.010269 0.984375 0.763672 1 0 1.0
Default
0 -0.524550 0.321445 -5.023397 0.732910 0.654785 0.185913 0.984375 0.763672 1 0 1.0
0 -0.423288 0.293221 -5.323083 0.732910 0.654785 0.185913 0.984375 0.763672 1 0 1.0
0 -0.496012 0.335208 -5.184297 0.732910 0.654785 0.185913 0.984375 0.763672 1 0 1.0
Default
0 -0.539659 0.259608 -5.184297 -0.200439 -0.961914 0.185913 0.984375 0.763672 1 0 1.0
0 -0.466936 0.217621 -5.323083 -0.200439 -0.961914 0.185913 0.984375 0.763672 1 0 1.0
0 -0.542009 0.291205 -5.023397 -0.200439 -0.961914 0.185913 0.984375 0.763672 1 0 1.0
Default
0 -0.132627 -0.266328 -0.427142 -0.938477 -0.304932 0.163452 0.984375 0.519531 1 0 1.0
0 -0.147478 -0.128020 -0.254485 -0.938477 -0.304932 0.163452 0.984375 0.519531 1 0 1.0
0 -0.216422 -0.011115 -0.432139 -0.938477 -0.304932 0.163452 0.984375 0.519531 1 0 1.0
Default
0 0.215660 -0.009822 -0.406117 0.938477 -0.304932 0.163452 0.984375 0.519531 1 0 1.0
0 0.150990 -0.108909 -0.219766 0.938477 -0.304932 0.163452 0.984375 0.519531 1 0 1.0
0 0.134107 -0.261814 -0.407980 0.938477 -0.304932 0.163452 0.984375 0.519531 1 0 1.0
Default
0 0.048500 0.169719 -3.811389 0.654785 0.654297 -0.378174 0.984375 0.763672 1 0 1.0
0 0.048501 0.000043 -4.105126 0.654785 0.654297 -0.378174 0.984375 0.763672 1 0 1.0
0 0.000003 -0.000086 -4.189126 0.654785 0.654297 -0.378174 0.984375 0.763672 1 0 1.0
Default
0 0.000003 0.242530 -3.769501 0.654785 0.654297 -0.378174 0.984375 0.763672 1 0 1.0
0 0.048500 0.169719 -3.811389 0.654785 0.654297 -0.378174 0.984375 0.763672 1 0 1.0
0 0.000003 -0.000086 -4.189126 0.654785 0.654297 -0.378174 0.984375 0.763672 1 0 1.0
Default
0 -0.048494 0.169719 -3.811389 -0.000000 -0.865723 0.500000 0.984375 0.763672 1 0 1.0
0 -0.048494 0.000043 -4.105126 -0.000000 -0.865723 0.500000 0.984375 0.763672 1 0 1.0
0 0.048501 0.000043 -4.105126 -0.000000 -0.865723 0.500000 0.984375 0.763672 1 0 1.0
Default
0 0.048500 0.169719 -3.811389 -0.000000 -0.865723 0.500000 0.984375 0.763672 1 0 1.0
0 -0.048494 0.169719 -3.811389 -0.000000 -0.865723 0.500000 0.984375 0.763672 1 0 1.0
0 0.048501 0.000043 -4.105126 -0.000000 -0.865723 0.500000 0.984375 0.763672 1 0 1.0
Default
0 0.000003 0.242530 -3.769501 -0.654785 0.654297 -0.378174 0.984375 0.763672 1 0 1.0
0 0.000003 -0.000086 -4.189126 -0.654785 0.654297 -0.378174 0.984375 0.763672 1 0 1.0
0 -0.048494 0.000043 -4.105126 -0.654785 0.654297 -0.378174 0.984375 0.763672 1 0 1.0
Default
0 -0.048494 0.169719 -3.811389 -0.654785 0.654297 -0.378174 0.984375 0.763672 1 0 1.0
0 0.000003 0.242530 -3.769501 -0.654785 0.654297 -0.378174 0.984375 0.763672 1 0 1.0
0 -0.048494 0.000043 -4.105126 -0.654785 0.654297 -0.378174 0.984375 0.763672 1 0 1.0
Default
0 0.048501 -0.169762 -3.810864 0.654785 0.001168 0.755859 0.984375 0.763672 1 0 1.0
0 0.048500 0.169719 -3.811389 0.654785 0.001168 0.755859 0.984375 0.763672 1 0 1.0
0 0.000003 0.242530 -3.769501 0.654785 0.001168 0.755859 0.984375 0.763672 1 0 1.0
Default
0 0.000003 -0.242444 -3.768752 0.654785 0.001168 0.755859 0.984375 0.763672 1 0 1.0
0 0.048501 -0.169762 -3.810864 0.654785 0.001168 0.755859 0.984375 0.763672 1 0 1.0
0 0.000003 0.242530 -3.769501 0.654785 0.001168 0.755859 0.984375 0.763672 1 0 1.0
Default
0 -0.048494 -0.169762 -3.810864 -0.000000 -0.001545 -1.000000 0.984375 0.763672 1 0 1.0
0 -0.048494 0.169719 -3.811389 -0.000000 -0.001545 -1.000000 0.984375 0.763672 1 0 1.0
0 0.048500 0.169719 -3.811389 -0.000000 -0.001545 -1.000000 0.984375 0.763672 1 0 1.0
Default
0 0.048501 -0.169762 -3.810864 -0.000000 -0.001545 -1.000000 0.984375 0.763672 1 0 1.0
0 -0.048494 -0.169762 -3.810864 -0.000000 -0.001545 -1.000000 0.984375 0.763672 1 0 1.0
0 0.048500 0.169719 -3.811389 -0.000000 -0.001545 -1.000000 0.984375 0.763672 1 0 1.0
Default
0 0.000003 -0.242444 -3.768752 -0.654785 0.001168 0.755859 0.984375 0.763672 1 0 1.0
0 0.000003 0.242530 -3.769501 -0.654785 0.001168 0.755859 0.984375 0.763672 1 0 1.0
0 -0.048494 0.169719 -3.811389 -0.654785 0.001168 0.755859 0.984375 0.763672 1 0 1.0
Default
0 -0.048494 -0.169762 -3.810864 -0.654785 0.001168 0.755859 0.984375 0.763672 1 0 1.0
0 0.000003 -0.242444 -3.768752 -0.654785 0.001168 0.755859 0.984375 0.763672 1 0 1.0
0 -0.048494 0.169719 -3.811389 -0.654785 0.001168 0.755859 0.984375 0.763672 1 0 1.0
Default
0 0.048501 0.000043 -4.105126 0.654785 -0.654785 -0.377686 0.984375 0.763672 1 0 1.0
0 0.048501 -0.169762 -3.810864 0.654785 -0.654785 -0.377686 0.984375 0.763672 1 0 1.0
0 0.000003 -0.242444 -3.768752 0.654785 -0.654785 -0.377686 0.984375 0.763672 1 0 1.0
Default
0 0.000003 -0.000086 -4.189126 0.654785 -0.654785 -0.377686 0.984375 0.763672 1 0 1.0
0 0.048501 0.000043 -4.105126 0.654785 -0.654785 -0.377686 0.984375 0.763672 1 0 1.0
0 0.000003 -0.242444 -3.768752 0.654785 -0.654785 -0.377686 0.984375 0.763672 1 0 1.0
Default
0 -0.048494 0.000043 -4.105126 -0.000000 0.866211 0.499756 0.984375 0.763672 1 0 1.0
0 -0.048494 -0.169762 -3.810864 -0.000000 0.866211 0.499756 0.984375 0.763672 1 0 1.0
0 0.048501 -0.169762 -3.810864 -0.000000 0.866211 0.499756 0.984375 0.763672 1 0 1.0
Default
0 0.048501 0.000043 -4.105126 -0.000000 0.866211 0.499756 0.984375 0.763672 1 0 1.0
0 -0.048494 0.000043 -4.105126 -0.000000 0.866211 0.499756 0.984375 0.763672 1 0 1.0
0 0.048501 -0.169762 -3.810864 -0.000000 0.866211 0.499756 0.984375 0.763672 1 0 1.0
Default
0 0.000003 -0.000086 -4.189126 -0.654785 -0.654785 -0.377686 0.984375 0.763672 1 0 1.0
0 0.000003 -0.242444 -3.768752 -0.654785 -0.654785 -0.377686 0.984375 0.763672 1 0 1.0
0 -0.048494 -0.169762 -3.810864 -0.654785 -0.654785 -0.377686 0.984375 0.763672 1 0 1.0
Default
0 -0.048494 0.000043 -4.105126 -0.654785 -0.654785 -0.377686 0.984375 0.763672 1 0 1.0
0 0.000003 -0.000086 -4.189126 -0.654785 -0.654785 -0.377686 0.984375 0.763672 1 0 1.0
0 -0.048494 -0.169762 -3.810864 -0.654785 -0.654785 -0.377686 0.984375 0.763672 1 0 1.0
Default
0 0.169744 -0.038937 -4.034404 0.654785 -0.654785 -0.377930 0.984375 0.763672 1 0 1.0
0 0.000003 -0.038937 -4.328404 0.654785 -0.654785 -0.377930 0.984375 0.763672 1 0 1.0
0 0.000003 0.009560 -4.412404 0.654785 -0.654785 -0.377930 0.984375 0.763672 1 0 1.0
Default
0 0.242490 0.009561 -3.992404 0.654785 -0.654785 -0.377930 0.984375 0.763672 1 0 1.0
0 0.169744 -0.038937 -4.034404 0.654785 -0.654785 -0.377930 0.984375 0.763672 1 0 1.0
0 0.000003 0.009560 -4.412404 0.654785 -0.654785 -0.377930 0.984375 0.763672 1 0 1.0
Default
0 0.169744 0.058058 -4.034404 -0.866211 0.000000 0.500000 0.984375 0.763672 1 0 1.0
0 0.000003 0.058058 -4.328404 -0.866211 0.000000 0.500000 0.984375 0.763672 1 0 1.0
0 0.000003 -0.038937 -4.328404 -0.866211 0.000000 0.500000 0.984375 0.763672 1 0 1.0
Default
0 0.169744 -0.038937 -4.034404 -0.866211 0.000000 0.500000 0.984375 0.763672 1 0 1.0
0 0.169744 0.058058 -4.034404 -0.866211 0.000000 0.500000 0.984375 0.763672 1 0 1.0
0 0.000003 -0.038937 -4.328404 -0.866211 0.000000 0.500000 0.984375 0.763672 1 0 1.0
Default
0 0.242490 0.009561 -3.992404 0.654785 0.654785 -0.377930 0.984375 0.763672 1 0 1.0
0 0.000003 0.009560 -4.412404 0.654785 0.654785 -0.377930 0.984375 0.763672 1 0 1.0
0 0.000003 0.058058 -4.328404 0.654785 0.654785 -0.377930 0.984375 0.763672 1 0 1.0
Default
0 0.169744 0.058058 -4.034404 0.654785 0.654785 -0.377930 0.984375 0.763672 1 0 1.0
0 0.242490 0.009561 -3.992404 0.654785 0.654785 -0.377930 0.984375 0.763672 1 0 1.0
0 0.000003 0.058058 -4.328404 0.654785 0.654785 -0.377930 0.984375 0.763672 1 0 1.0
Default
0 -0.169738 -0.038937 -4.034404 -0.000000 -0.654785 0.755859 0.984375 0.763672 1 0 1.0
0 0.169744 -0.038937 -4.034404 -0.000000 -0.654785 0.755859 0.984375 0.763672 1 0 1.0
0 0.242490 0.009561 -3.992404 -0.000000 -0.654785 0.755859 0.984375 0.763672 1 0 1.0
Default
0 -0.242484 0.009560 -3.992404 -0.000000 -0.654785 0.755859 0.984375 0.763672 1 0 1.0
0 -0.169738 -0.038937 -4.034404 -0.000000 -0.654785 0.755859 0.984375 0.763672 1 0 1.0
0 0.242490 0.009561 -3.992404 -0.000000 -0.654785 0.755859 0.984375 0.763672 1 0 1.0
Default
0 -0.169738 0.058058 -4.034404 -0.000000 0.000000 -1.000000 0.984375 0.763672 1 0 1.0
0 0.169744 0.058058 -4.034404 -0.000000 0.000000 -1.000000 0.984375 0.763672 1 0 1.0
0 0.169744 -0.038937 -4.034404 -0.000000 0.000000 -1.000000 0.984375 0.763672 1 0 1.0
Default
0 -0.169738 -0.038937 -4.034404 -0.000000 0.000000 -1.000000 0.984375 0.763672 1 0 1.0
0 -0.169738 0.058058 -4.034404 -0.000000 0.000000 -1.000000 0.984375 0.763672 1 0 1.0
0 0.169744 -0.038937 -4.034404 -0.000000 0.000000 -1.000000 0.984375 0.763672 1 0 1.0
Default
0 -0.242484 0.009560 -3.992404 -0.000000 0.654785 0.755859 0.984375 0.763672 1 0 1.0
0 0.242490 0.009561 -3.992404 -0.000000 0.654785 0.755859 0.984375 0.763672 1 0 1.0
0 0.169744 0.058058 -4.034404 -0.000000 0.654785 0.755859 0.984375 0.763672 1 0 1.0
Default
0 -0.169738 0.058058 -4.034404 -0.000000 0.654785 0.755859 0.984375 0.763672 1 0 1.0
0 -0.242484 0.009560 -3.992404 -0.000000 0.654785 0.755859 0.984375 0.763672 1 0 1.0
0 0.169744 0.058058 -4.034404 -0.000000 0.654785 0.755859 0.984375 0.763672 1 0 1.0
Default
0 0.000003 -0.038937 -4.328404 -0.654785 -0.654785 -0.377930 0.984375 0.763672 1 0 1.0
0 -0.169738 -0.038937 -4.034404 -0.654785 -0.654785 -0.377930 0.984375 0.763672 1 0 1.0
0 -0.242484 0.009560 -3.992404 -0.654785 -0.654785 -0.377930 0.984375 0.763672 1 0 1.0
Default
0 0.000003 0.009560 -4.412404 -0.654785 -0.654785 -0.377930 0.984375 0.763672 1 0 1.0
0 0.000003 -0.038937 -4.328404 -0.654785 -0.654785 -0.377930 0.984375 0.763672 1 0 1.0
0 -0.242484 0.009560 -3.992404 -0.654785 -0.654785 -0.377930 0.984375 0.763672 1 0 1.0
Default
0 0.000003 0.058058 -4.328404 0.866211 0.000000 0.500000 0.984375 0.763672 1 0 1.0
0 -0.169738 0.058058 -4.034404 0.866211 0.000000 0.500000 0.984375 0.763672 1 0 1.0
0 -0.169738 -0.038937 -4.034404 0.866211 0.000000 0.500000 0.984375 0.763672 1 0 1.0
Default
0 0.000003 -0.038937 -4.328404 0.866211 0.000000 0.500000 0.984375 0.763672 1 0 1.0
0 0.000003 0.058058 -4.328404 0.866211 0.000000 0.500000 0.984375 0.763672 1 0 1.0
0 -0.169738 -0.038937 -4.034404 0.866211 0.000000 0.500000 0.984375 0.763672 1 0 1.0
Default
0 0.000003 0.009560 -4.412404 -0.654785 0.654785 -0.377930 0.984375 0.763672 1 0 1.0
0 -0.242484 0.009560 -3.992404 -0.654785 0.654785 -0.377930 0.984375 0.763672 1 0 1.0
0 -0.169738 0.058058 -4.034404 -0.654785 0.654785 -0.377930 0.984375 0.763672 1 0 1.0
Default
0 0.000003 0.058058 -4.328404 -0.654785 0.654785 -0.377930 0.984375 0.763672 1 0 1.0
0 0.000003 0.009560 -4.412404 -0.654785 0.654785 -0.377930 0.984375 0.763672 1 0 1.0
0 -0.169738 0.058058 -4.034404 -0.654785 0.654785 -0.377930 0.984375 0.763672 1 0 1.0
Default
0 -0.000000 -0.197463 -5.618488 -0.765137 0.457520 -0.453369 0.984375 0.763672 1 0 1.0
0 -0.043648 -0.222663 -5.570276 -0.765137 0.457520 -0.453369 0.984375 0.763672 1 0 1.0
0 -0.043648 -0.026764 -5.372547 -0.766113 0.450439 -0.458252 0.984375 0.763672 1 0 1.0
Default
0 -0.000000 -0.001564 -5.420760 -0.766113 0.450439 -0.458252 0.984375 0.763672 1 0 1.0
0 -0.000000 -0.197463 -5.618488 -0.765137 0.457520 -0.453369 0.984375 0.763672 1 0 1.0
0 -0.043648 -0.026764 -5.372547 -0.766113 0.450439 -0.458252 0.984375 0.763672 1 0 1.0
Default
0 -0.000000 0.048836 -5.372547 -0.767578 0.443115 -0.463135 0.984375 0.763672 1 0 1.0
0 -0.000000 -0.001564 -5.420760 -0.766113 0.450439 -0.458252 0.984375 0.763672 1 0 1.0
0 -0.043648 -0.026764 -5.372547 -0.766113 0.450439 -0.458252 0.984375 0.763672 1 0 1.0
Default
0 -0.000000 0.048836 -5.372547 -0.767578 0.443115 -0.463135 0.984375 0.763672 1 0 1.0
0 0.169653 0.146785 -5.570276 -0.778809 0.433594 -0.453369 0.984375 0.763672 1 0 1.0
0 -0.000000 -0.001564 -5.420760 -0.766113 0.450439 -0.458252 0.984375 0.763672 1 0 1.0
Default
0 0.169653 0.146785 -5.570276 -0.778809 0.433594 -0.453369 0.984375 0.763672 1 0 1.0
0 0.169653 0.096385 -5.618488 -0.778809 0.433594 -0.453369 0.984375 0.763672 1 0 1.0
0 -0.000000 -0.001564 -5.420760 -0.766113 0.450439 -0.458252 0.984375 0.763672 1 0 1.0
Default
0 -0.000000 0.048836 -5.372547 -0.866211 0.500000 0.000000 0.984375 0.763672 1 0 1.0
0 -0.043648 -0.026764 -5.372547 -0.866211 0.500000 0.000000 0.984375 0.763672 1 0 1.0
0 -0.043648 -0.026764 -4.255699 -0.866211 0.500000 0.000000 0.984375 0.763672 1 0 1.0
Default
0 0.000000 0.048836 -4.255699 -0.866211 0.500000 0.000000 0.984375 0.763672 1 0 1.0
0 -0.000000 0.048836 -5.372547 -0.866211 0.500000 0.000000 0.984375 0.763672 1 0 1.0
0 -0.043648 -0.026764 -4.255699 -0.866211 0.500000 0.000000 0.984375 0.763672 1 0 1.0
Default
0 -0.043648 -0.026764 -5.372547 -0.000000 -1.000000 0.000000 0.984375 0.763672 1 0 1.0
0 0.043648 -0.026764 -5.372547 -0.000000 -1.000000 0.000000 0.984375 0.763672 1 0 1.0
0 0.043648 -0.026764 -4.255699 -0.000000 -1.000000 0.000000 0.984375 0.763672 1 0 1.0
Default
0 -0.043648 -0.026764 -4.255699 -0.000000 -1.000000 0.000000 0.984375 0.763672 1 0 1.0
0 -0.043648 -0.026764 -5.372547 -0.000000 -1.000000 0.000000 0.984375 0.763672 1 0 1.0
0 0.043648 -0.026764 -4.255699 -0.000000 -1.000000 0.000000 0.984375 0.763672 1 0 1.0
Default
0 0.043648 -0.026764 -5.372547 0.866211 0.500000 0.000000 0.984375 0.763672 1 0 1.0
0 -0.000000 0.048836 -5.372547 0.866211 0.500000 0.000000 0.984375 0.763672 1 0 1.0
0 0.000000 0.048836 -4.255699 0.866211 0.500000 0.000000 0.984375 0.763672 1 0 1.0
Default
0 0.043648 -0.026764 -4.255699 0.866211 0.500000 0.000000 0.984375 0.763672 1 0 1.0
0 0.043648 -0.026764 -5.372547 0.866211 0.500000 0.000000 0.984375 0.763672 1 0 1.0
0 0.000000 0.048836 -4.255699 0.866211 0.500000 0.000000 0.984375 0.763672 1 0 1.0
Default
0 -0.000000 -0.442166 -5.632280 -0.764648 0.029892 -0.644043 0.984375 0.763672 1 0 1.0
0 -0.043648 -0.439884 -5.577927 -0.764648 0.029892 -0.644043 0.984375 0.763672 1 0 1.0
0 -0.043648 -0.222663 -5.570276 -0.764648 0.029892 -0.644043 0.984375 0.763672 1 0 1.0
Default
0 -0.000000 -0.197463 -5.618488 -0.764648 0.029892 -0.644043 0.984375 0.763672 1 0 1.0
0 -0.000000 -0.442166 -5.632280 -0.764648 0.029892 -0.644043 0.984375 0.763672 1 0 1.0
0 -0.043648 -0.222663 -5.570276 -0.764648 0.029892 -0.644043 0.984375 0.763672 1 0 1.0
Default
0 0.043648 -0.222663 -5.570276 0.765137 0.457520 -0.453369 0.984375 0.763672 1 0 1.0
0 -0.000000 -0.197463 -5.618488 0.765137 0.457520 -0.453369 0.984375 0.763672 1 0 1.0
0 -0.000000 -0.001564 -5.420760 0.766113 0.450439 -0.458252 0.984375 0.763672 1 0 1.0
Default
0 0.043648 -0.026764 -5.372547 0.766113 0.450439 -0.458252 0.984375 0.763672 1 0 1.0
0 0.043648 -0.222663 -5.570276 0.765137 0.457520 -0.453369 0.984375 0.763672 1 0 1.0
0 -0.000000 -0.001564 -5.420760 0.766113 0.450439 -0.458252 0.984375 0.763672 1 0 1.0
Default
0 0.043648 -0.026764 -5.372547 0.766113 0.450439 -0.458252 0.984375 0.763672 1 0 1.0
0 -0.000000 -0.001564 -5.420760 0.766113 0.450439 -0.458252 0.984375 0.763672 1 0 1.0
0 -0.000000 0.048836 -5.372547 0.767578 0.443115 -0.463135 0.984375 0.763672 1 0 1.0
Default
0 -0.000000 -0.001564 -5.420760 0.766113 0.450439 -0.458252 0.984375 0.763672 1 0 1.0
0 -0.169653 0.096385 -5.618488 0.778809 0.433594 -0.453369 0.984375 0.763672 1 0 1.0
0 -0.000000 0.048836 -5.372547 0.767578 0.443115 -0.463135 0.984375 0.763672 1 0 1.0
Default
0 -0.169653 0.096385 -5.618488 0.778809 0.433594 -0.453369 0.984375 0.763672 1 0 1.0
0 -0.169653 0.146785 -5.570276 0.778809 0.433594 -0.453369 0.984375 0.763672 1 0 1.0
0 -0.000000 0.048836 -5.372547 0.767578 0.443115 -0.463135 0.984375 0.763672 1 0 1.0
Default
0 -0.043648 -0.222663 -5.570276 -0.000000 -0.710449 0.703613 0.984375 0.763672 1 0 1.0
0 0.043648 -0.222663 -5.570276 -0.000000 -0.710449 0.703613 0.984375 0.763672 1 0 1.0
0 0.043648 -0.026764 -5.372547 -0.000000 -0.710449 0.703613 0.984375 0.763672 1 0 1.0
Default
0 -0.043648 -0.026764 -5.372547 -0.000000 -0.710449 0.703613 0.984375 0.763672 1 0 1.0
0 -0.043648 -0.222663 -5.570276 -0.000000 -0.710449 0.703613 0.984375 0.763672 1 0 1.0
0 0.043648 -0.026764 -5.372547 -0.000000 -0.710449 0.703613 0.984375 0.763672 1 0 1.0
Default
0 -0.000000 -0.636803 -5.503166 -0.724609 -0.379150 -0.575684 0.984375 0.763672 1 0 1.0
0 -0.043648 -0.586578 -5.482264 -0.724609 -0.379150 -0.575684 0.984375 0.763672 1 0 1.0
0 -0.043648 -0.439884 -5.577927 -0.724609 -0.379150 -0.575684 0.984375 0.763672 1 0 1.0
Default
0 -0.000000 -0.442166 -5.632280 -0.724609 -0.379150 -0.575684 0.984375 0.763672 1 0 1.0
0 -0.000000 -0.636803 -5.503166 -0.724609 -0.379150 -0.575684 0.984375 0.763672 1 0 1.0
0 -0.043648 -0.439884 -5.577927 -0.724609 -0.379150 -0.575684 0.984375 0.763672 1 0 1.0
Default
0 0.043648 -0.439884 -5.577927 0.764648 0.029892 -0.644043 0.984375 0.763672 1 0 1.0
0 -0.000000 -0.442166 -5.632280 0.764648 0.029892 -0.644043 0.984375 0.763672 1 0 1.0
0 -0.000000 -0.197463 -5.618488 0.764648 0.029892 -0.644043 0.984375 0.763672 1 0 1.0
Default
0 0.043648 -0.222663 -5.570276 0.764648 0.029892 -0.644043 0.984375 0.763672 1 0 1.0
0 0.043648 -0.439884 -5.577927 0.764648 0.029892 -0.644043 0.984375 0.763672 1 0 1.0
0 -0.000000 -0.197463 -5.618488 0.764648 0.029892 -0.644043 0.984375 0.763672 1 0 1.0
Default
0 -0.043648 -0.439884 -5.577927 -0.000000 -0.035187 0.999512 0.984375 0.763672 1 0 1.0
0 0.043648 -0.439884 -5.577927 -0.000000 -0.035187 0.999512 0.984375 0.763672 1 0 1.0
0 0.043648 -0.222663 -5.570276 -0.000000 -0.035187 0.999512 0.984375 0.763672 1 0 1.0
Default
0 -0.043648 -0.222663 -5.570276 -0.000000 -0.035187 0.999512 0.984375 0.763672 1 0 1.0
0 -0.043648 -0.439884 -5.577927 -0.000000 -0.035187 0.999512 0.984375 0.763672 1 0 1.0
0 0.043648 -0.222663 -5.570276 -0.000000 -0.035187 0.999512 0.984375 0.763672 1 0 1.0
Default
0 -0.000000 -0.636803 -5.503166 -0.767578 -0.641113 -0.001924 0.984375 0.763672 1 0 1.0
0 0.000000 -0.639084 -5.022484 -0.779785 -0.625977 -0.002972 0.984375 0.763672 1 0 1.0
0 -0.017459 -0.617343 -5.023397 -0.767578 -0.641113 -0.001924 0.984375 0.763672 1 0 1.0
Default
0 -0.017459 -0.617343 -5.023397 -0.767578 -0.641113 -0.001924 0.984375 0.763672 1 0 1.0
0 -0.043648 -0.586578 -5.482264 -0.754883 -0.655762 -0.000875 0.984375 0.763672 1 0 1.0
0 -0.000000 -0.636803 -5.503166 -0.767578 -0.641113 -0.001924 0.984375 0.763672 1 0 1.0
Default
0 0.043648 -0.586578 -5.482264 0.724609 -0.379150 -0.575684 0.984375 0.763672 1 0 1.0
0 -0.000000 -0.636803 -5.503166 0.724609 -0.379150 -0.575684 0.984375 0.763672 1 0 1.0
0 -0.000000 -0.442166 -5.632280 0.724609 -0.379150 -0.575684 0.984375 0.763672 1 0 1.0
Default
0 0.043648 -0.439884 -5.577927 0.724609 -0.379150 -0.575684 0.984375 0.763672 1 0 1.0
0 0.043648 -0.586578 -5.482264 0.724609 -0.379150 -0.575684 0.984375 0.763672 1 0 1.0
0 -0.000000 -0.442166 -5.632280 0.724609 -0.379150 -0.575684 0.984375 0.763672 1 0 1.0
Default
0 -0.043648 -0.586578 -5.482264 -0.000000 0.546387 0.837402 0.984375 0.763672 1 0 1.0
0 0.043648 -0.586578 -5.482264 -0.000000 0.546387 0.837402 0.984375 0.763672 1 0 1.0
0 0.043648 -0.439884 -5.577927 -0.000000 0.546387 0.837402 0.984375 0.763672 1 0 1.0
Default
0 -0.043648 -0.439884 -5.577927 -0.000000 0.546387 0.837402 0.984375 0.763672 1 0 1.0
0 -0.043648 -0.586578 -5.482264 -0.000000 0.546387 0.837402 0.984375 0.763672 1 0 1.0
0 0.043648 -0.439884 -5.577927 -0.000000 0.546387 0.837402 0.984375 0.763672 1 0 1.0
Default
0 0.017459 -0.617343 -5.023397 0.767578 -0.641113 -0.001924 0.984375 0.763672 1 0 1.0
0 0.000000 -0.639084 -5.022484 0.779785 -0.625977 -0.002972 0.984375 0.763672 1 0 1.0
0 -0.000000 -0.636803 -5.503166 0.767578 -0.641113 -0.001924 0.984375 0.763672 1 0 1.0
Default
0 -0.000000 -0.636803 -5.503166 0.767578 -0.641113 -0.001924 0.984375 0.763672 1 0 1.0
0 0.043648 -0.586578 -5.482264 0.754883 -0.655762 -0.000875 0.984375 0.763672 1 0 1.0
0 0.017459 -0.617343 -5.023397 0.767578 -0.641113 -0.001924 0.984375 0.763672 1 0 1.0
Default
0 -0.043648 -0.599509 -5.184297 -0.000000 0.999023 0.043365 0.984375 0.763672 1 0 1.0
0 0.043648 -0.599509 -5.184297 -0.000000 0.999023 0.043365 0.984375 0.763672 1 0 1.0
0 0.043648 -0.586578 -5.482264 -0.000000 0.999023 0.043365 0.984375 0.763672 1 0 1.0
Default
0 -0.043648 -0.586578 -5.482264 -0.000000 0.999023 0.043365 0.984375 0.763672 1 0 1.0
0 -0.043648 -0.599509 -5.184297 -0.000000 0.999023 0.043365 0.984375 0.763672 1 0 1.0
0 0.043648 -0.586578 -5.482264 -0.000000 0.999023 0.043365 0.984375 0.763672 1 0 1.0
Default
0 -0.017459 -0.617343 -5.023397 -0.000000 0.946777 0.321777 0.984375 0.763672 1 0 1.0
0 0.017459 -0.617343 -5.023397 -0.000000 0.946777 0.321777 0.984375 0.763672 1 0 1.0
0 0.043648 -0.515536 -5.323083 -0.000000 0.946777 0.321777 0.984375 0.763672 1 0 1.0
Default
0 -0.043648 -0.515536 -5.323083 -0.000000 0.946777 0.321777 0.984375 0.763672 1 0 1.0
0 -0.017459 -0.617343 -5.023397 -0.000000 0.946777 0.321777 0.984375 0.763672 1 0 1.0
0 0.043648 -0.515536 -5.323083 -0.000000 0.946777 0.321777 0.984375 0.763672 1 0 1.0
Default
0 -0.043648 -0.515536 -5.323083 -0.000000 -0.855469 -0.517578 0.984375 0.763672 1 0 1.0
0 0.043648 -0.515536 -5.323083 -0.000000 -0.855469 -0.517578 0.984375 0.763672 1 0 1.0
0 0.043648 -0.599509 -5.184297 -0.000000 -0.855469 -0.517578 0.984375 0.763672 1 0 1.0
Default
0 -0.043648 -0.599509 -5.184297 -0.000000 -0.855469 -0.517578 0.984375 0.763672 1 0 1.0
0 -0.043648 -0.515536 -5.323083 -0.000000 -0.855469 -0.517578 0.984375 0.763672 1 0 1.0
0 0.043648 -0.599509 -5.184297 -0.000000 -0.855469 -0.517578 0.984375 0.763672 1 0 1.0
Default
0 0.169653 0.096385 -5.618488 -0.013809 -0.891113 -0.453369 0.984375 0.763672 1 0 1.0
0 0.213301 0.071185 -5.570276 -0.013809 -0.891113 -0.453369 0.984375 0.763672 1 0 1.0
0 0.043648 -0.026764 -5.372547 -0.013809 -0.891113 -0.453369 0.984375 0.763672 1 0 1.0
Default
0 -0.000000 -0.001564 -5.420760 -0.013809 -0.891113 -0.453369 0.984375 0.763672 1 0 1.0
0 0.169653 0.096385 -5.618488 -0.013809 -0.891113 -0.453369 0.984375 0.763672 1 0 1.0
0 0.043648 -0.026764 -5.372547 -0.013809 -0.891113 -0.453369 0.984375 0.763672 1 0 1.0
Default
0 0.381572 0.218736 -5.632280 0.356445 -0.676758 -0.644043 0.984375 0.763672 1 0 1.0
0 0.401419 0.179795 -5.577927 0.356445 -0.676758 -0.644043 0.984375 0.763672 1 0 1.0
0 0.213301 0.071185 -5.570276 0.356445 -0.676758 -0.644043 0.984375 0.763672 1 0 1.0
Default
0 0.169653 0.096385 -5.618488 0.356445 -0.676758 -0.644043 0.984375 0.763672 1 0 1.0
0 0.381572 0.218736 -5.632280 0.356445 -0.676758 -0.644043 0.984375 0.763672 1 0 1.0
0 0.213301 0.071185 -5.570276 0.356445 -0.676758 -0.644043 0.984375 0.763672 1 0 1.0
Default
0 0.213301 0.071185 -5.570276 0.615234 0.355225 0.703613 0.984375 0.763672 1 0 1.0
0 0.169653 0.146785 -5.570276 0.615234 0.355225 0.703613 0.984375 0.763672 1 0 1.0
0 -0.000000 0.048836 -5.372547 0.615234 0.355225 0.703613 0.984375 0.763672 1 0 1.0
Default
0 0.043648 -0.026764 -5.372547 0.615234 0.355225 0.703613 0.984375 0.763672 1 0 1.0
0 0.213301 0.071185 -5.570276 0.615234 0.355225 0.703613 0.984375 0.763672 1 0 1.0
0 -0.000000 0.048836 -5.372547 0.615234 0.355225 0.703613 0.984375 0.763672 1 0 1.0
Default
0 0.550133 0.316055 -5.503166 0.690430 -0.437744 -0.575684 0.984375 0.763672 1 0 1.0
0 0.528461 0.253143 -5.482264 0.690430 -0.437744 -0.575684 0.984375 0.763672 1 0 1.0
0 0.401419 0.179795 -5.577927 0.690430 -0.437744 -0.575684 0.984375 0.763672 1 0 1.0
Default
0 0.381572 0.218736 -5.632280 0.690430 -0.437744 -0.575684 0.984375 0.763672 1 0 1.0
0 0.550133 0.316055 -5.503166 0.690430 -0.437744 -0.575684 0.984375 0.763672 1 0 1.0
0 0.401419 0.179795 -5.577927 0.690430 -0.437744 -0.575684 0.984375 0.763672 1 0 1.0
Default
0 0.357772 0.255395 -5.577927 -0.408203 0.646973 -0.644043 0.984375 0.763672 1 0 1.0
0 0.381572 0.218736 -5.632280 -0.408203 0.646973 -0.644043 0.984375 0.763672 1 0 1.0
0 0.169653 0.096385 -5.618488 -0.408203 0.646973 -0.644043 0.984375 0.763672 1 0 1.0
Default
0 0.169653 0.146785 -5.570276 -0.408203 0.646973 -0.644043 0.984375 0.763672 1 0 1.0
0 0.357772 0.255395 -5.577927 -0.408203 0.646973 -0.644043 0.984375 0.763672 1 0 1.0
0 0.169653 0.096385 -5.618488 -0.408203 0.646973 -0.644043 0.984375 0.763672 1 0 1.0
Default
0 0.401419 0.179795 -5.577927 0.030487 0.017593 0.999512 0.984375 0.763672 1 0 1.0
0 0.357772 0.255395 -5.577927 0.030487 0.017593 0.999512 0.984375 0.763672 1 0 1.0
0 0.169653 0.146785 -5.570276 0.030487 0.017593 0.999512 0.984375 0.763672 1 0 1.0
Default
0 0.213301 0.071185 -5.570276 0.030487 0.017593 0.999512 0.984375 0.763672 1 0 1.0
0 0.401419 0.179795 -5.577927 0.030487 0.017593 0.999512 0.984375 0.763672 1 0 1.0
0 0.169653 0.146785 -5.570276 0.030487 0.017593 0.999512 0.984375 0.763672 1 0 1.0
Default
0 0.484813 0.328743 -5.482264 -0.033844 0.816895 -0.575684 0.984375 0.763672 1 0 1.0
0 0.550133 0.316055 -5.503166 -0.033844 0.816895 -0.575684 0.984375 0.763672 1 0 1.0
0 0.381572 0.218736 -5.632280 -0.033844 0.816895 -0.575684 0.984375 0.763672 1 0 1.0
Default
0 0.357772 0.255395 -5.577927 -0.033844 0.816895 -0.575684 0.984375 0.763672 1 0 1.0
0 0.484813 0.328743 -5.482264 -0.033844 0.816895 -0.575684 0.984375 0.763672 1 0 1.0
0 0.381572 0.218736 -5.632280 -0.033844 0.816895 -0.575684 0.984375 0.763672 1 0 1.0
Default
0 0.528461 0.253143 -5.482264 -0.473145 -0.273193 0.837402 0.984375 0.763672 1 0 1.0
0 0.484813 0.328743 -5.482264 -0.473145 -0.273193 0.837402 0.984375 0.763672 1 0 1.0
0 0.357772 0.255395 -5.577927 -0.473145 -0.273193 0.837402 0.984375 0.763672 1 0 1.0
Default
0 0.401419 0.179795 -5.577927 -0.473145 -0.273193 0.837402 0.984375 0.763672 1 0 1.0
0 0.528461 0.253143 -5.482264 -0.473145 -0.273193 0.837402 0.984375 0.763672 1 0 1.0
0 0.357772 0.255395 -5.577927 -0.473145 -0.273193 0.837402 0.984375 0.763672 1 0 1.0
Default
0 0.539659 0.259608 -5.184297 -0.865234 -0.499512 0.043365 0.984375 0.763672 1 0 1.0
0 0.496012 0.335208 -5.184297 -0.865234 -0.499512 0.043365 0.984375 0.763672 1 0 1.0
0 0.484813 0.328743 -5.482264 -0.865234 -0.499512 0.043365 0.984375 0.763672 1 0 1.0
Default
0 0.528461 0.253143 -5.482264 -0.865234 -0.499512 0.043365 0.984375 0.763672 1 0 1.0
0 0.539659 0.259608 -5.184297 -0.865234 -0.499512 0.043365 0.984375 0.763672 1 0 1.0
0 0.484813 0.328743 -5.482264 -0.865234 -0.499512 0.043365 0.984375 0.763672 1 0 1.0
Default
0 0.542009 0.291205 -5.023397 -0.819824 -0.473389 0.321777 0.984375 0.763672 1 0 1.0
0 0.524550 0.321445 -5.023397 -0.819824 -0.473389 0.321777 0.984375 0.763672 1 0 1.0
0 0.423288 0.293221 -5.323083 -0.819824 -0.473389 0.321777 0.984375 0.763672 1 0 1.0
Default
0 0.466936 0.217621 -5.323083 -0.819824 -0.473389 0.321777 0.984375 0.763672 1 0 1.0
0 0.542009 0.291205 -5.023397 -0.819824 -0.473389 0.321777 0.984375 0.763672 1 0 1.0
0 0.423288 0.293221 -5.323083 -0.819824 -0.473389 0.321777 0.984375 0.763672 1 0 1.0
Default
0 0.466936 0.217621 -5.323083 0.740723 0.427734 -0.517578 0.984375 0.763672 1 0 1.0
0 0.423288 0.293221 -5.323083 0.740723 0.427734 -0.517578 0.984375 0.763672 1 0 1.0
0 0.496012 0.335208 -5.184297 0.740723 0.427734 -0.517578 0.984375 0.763672 1 0 1.0
Default
0 0.539659 0.259608 -5.184297 0.740723 0.427734 -0.517578 0.984375 0.763672 1 0 1.0
0 0.466936 0.217621 -5.323083 0.740723 0.427734 -0.517578 0.984375 0.763672 1 0 1.0
0 0.496012 0.335208 -5.184297 0.740723 0.427734 -0.517578 0.984375 0.763672 1 0 1.0
Default
0 -0.381572 0.218736 -5.632280 0.408203 0.646973 -0.644043 0.984375 0.763672 1 0 1.0
0 -0.357772 0.255395 -5.577927 0.408203 0.646973 -0.644043 0.984375 0.763672 1 0 1.0
0 -0.169653 0.146785 -5.570276 0.408203 0.646973 -0.644043 0.984375 0.763672 1 0 1.0
Default
0 -0.169653 0.096385 -5.618488 0.408203 0.646973 -0.644043 0.984375 0.763672 1 0 1.0
0 -0.381572 0.218736 -5.632280 0.408203 0.646973 -0.644043 0.984375 0.763672 1 0 1.0
0 -0.169653 0.146785 -5.570276 0.408203 0.646973 -0.644043 0.984375 0.763672 1 0 1.0
Default
0 -0.213301 0.071185 -5.570276 0.013809 -0.891113 -0.453369 0.984375 0.763672 1 0 1.0
0 -0.169653 0.096385 -5.618488 0.013809 -0.891113 -0.453369 0.984375 0.763672 1 0 1.0
0 -0.000000 -0.001564 -5.420760 0.013809 -0.891113 -0.453369 0.984375 0.763672 1 0 1.0
Default
0 -0.043648 -0.026764 -5.372547 0.013809 -0.891113 -0.453369 0.984375 0.763672 1 0 1.0
0 -0.213301 0.071185 -5.570276 0.013809 -0.891113 -0.453369 0.984375 0.763672 1 0 1.0
0 -0.000000 -0.001564 -5.420760 0.013809 -0.891113 -0.453369 0.984375 0.763672 1 0 1.0
Default
0 -0.169653 0.146785 -5.570276 -0.615234 0.355225 0.703613 0.984375 0.763672 1 0 1.0
0 -0.213301 0.071185 -5.570276 -0.615234 0.355225 0.703613 0.984375 0.763672 1 0 1.0
0 -0.043648 -0.026764 -5.372547 -0.615234 0.355225 0.703613 0.984375 0.763672 1 0 1.0
Default
0 -0.000000 0.048836 -5.372547 -0.615234 0.355225 0.703613 0.984375 0.763672 1 0 1.0
0 -0.169653 0.146785 -5.570276 -0.615234 0.355225 0.703613 0.984375 0.763672 1 0 1.0
0 -0.043648 -0.026764 -5.372547 -0.615234 0.355225 0.703613 0.984375 0.763672 1 0 1.0
Default
0 -0.550133 0.316055 -5.503166 0.033844 0.816895 -0.575684 0.984375 0.763672 1 0 1.0
0 -0.484813 0.328742 -5.482264 0.033844 0.816895 -0.575684 0.984375 0.763672 1 0 1.0
0 -0.357772 0.255395 -5.577927 0.033844 0.816895 -0.575684 0.984375 0.763672 1 0 1.0
Default
0 -0.381572 0.218736 -5.632280 0.033844 0.816895 -0.575684 0.984375 0.763672 1 0 1.0
0 -0.550133 0.316055 -5.503166 0.033844 0.816895 -0.575684 0.984375 0.763672 1 0 1.0
0 -0.357772 0.255395 -5.577927 0.033844 0.816895 -0.575684 0.984375 0.763672 1 0 1.0
Default
0 -0.401419 0.179795 -5.577927 -0.356445 -0.676758 -0.644043 0.984375 0.763672 1 0 1.0
0 -0.381572 0.218736 -5.632280 -0.356445 -0.676758 -0.644043 0.984375 0.763672 1 0 1.0
0 -0.169653 0.096385 -5.618488 -0.356445 -0.676758 -0.644043 0.984375 0.763672 1 0 1.0
Default
0 -0.213301 0.071185 -5.570276 -0.356445 -0.676758 -0.644043 0.984375 0.763672 1 0 1.0
0 -0.401419 0.179795 -5.577927 -0.356445 -0.676758 -0.644043 0.984375 0.763672 1 0 1.0
0 -0.169653 0.096385 -5.618488 -0.356445 -0.676758 -0.644043 0.984375 0.763672 1 0 1.0
Default
0 -0.357772 0.255395 -5.577927 -0.030487 0.017593 0.999512 0.984375 0.763672 1 0 1.0
0 -0.401419 0.179795 -5.577927 -0.030487 0.017593 0.999512 0.984375 0.763672 1 0 1.0
0 -0.213301 0.071185 -5.570276 -0.030487 0.017593 0.999512 0.984375 0.763672 1 0 1.0
Default
0 -0.169653 0.146785 -5.570276 -0.030487 0.017593 0.999512 0.984375 0.763672 1 0 1.0
0 -0.357772 0.255395 -5.577927 -0.030487 0.017593 0.999512 0.984375 0.763672 1 0 1.0
0 -0.213301 0.071185 -5.570276 -0.030487 0.017593 0.999512 0.984375 0.763672 1 0 1.0
Default
0 -0.528461 0.253142 -5.482264 -0.690430 -0.437744 -0.575684 0.984375 0.763672 1 0 1.0
0 -0.550133 0.316055 -5.503166 -0.690430 -0.437744 -0.575684 0.984375 0.763672 1 0 1.0
0 -0.381572 0.218736 -5.632280 -0.690430 -0.437744 -0.575684 0.984375 0.763672 1 0 1.0
Default
0 -0.401419 0.179795 -5.577927 -0.690430 -0.437744 -0.575684 0.984375 0.763672 1 0 1.0
0 -0.528461 0.253142 -5.482264 -0.690430 -0.437744 -0.575684 0.984375 0.763672 1 0 1.0
0 -0.381572 0.218736 -5.632280 -0.690430 -0.437744 -0.575684 0.984375 0.763672 1 0 1.0
Default
0 -0.484813 0.328742 -5.482264 0.473145 -0.273193 0.837402 0.984375 0.763672 1 0 1.0
0 -0.528461 0.253142 -5.482264 0.473145 -0.273193 0.837402 0.984375 0.763672 1 0 1.0
0 -0.401419 0.179795 -5.577927 0.473145 -0.273193 0.837402 0.984375 0.763672 1 0 1.0
Default
0 -0.357772 0.255395 -5.577927 0.473145 -0.273193 0.837402 0.984375 0.763672 1 0 1.0
0 -0.484813 0.328742 -5.482264 0.473145 -0.273193 0.837402 0.984375 0.763672 1 0 1.0
0 -0.401419 0.179795 -5.577927 0.473145 -0.273193 0.837402 0.984375 0.763672 1 0 1.0
Default
0 -0.496012 0.335208 -5.184297 0.865234 -0.499512 0.043365 0.984375 0.763672 1 0 1.0
0 -0.539659 0.259608 -5.184297 0.865234 -0.499512 0.043365 0.984375 0.763672 1 0 1.0
0 -0.528461 0.253142 -5.482264 0.865234 -0.499512 0.043365 0.984375 0.763672 1 0 1.0
Default
0 -0.484813 0.328742 -5.482264 0.865234 -0.499512 0.043365 0.984375 0.763672 1 0 1.0
0 -0.496012 0.335208 -5.184297 0.865234 -0.499512 0.043365 0.984375 0.763672 1 0 1.0
0 -0.528461 0.253142 -5.482264 0.865234 -0.499512 0.043365 0.984375 0.763672 1 0 1.0
Default
0 -0.524550 0.321445 -5.023397 0.819824 -0.473389 0.321777 0.984375 0.763672 1 0 1.0
0 -0.542009 0.291205 -5.023397 0.819824 -0.473389 0.321777 0.984375 0.763672 1 0 1.0
0 -0.466936 0.217621 -5.323083 0.819824 -0.473389 0.321777 0.984375 0.763672 1 0 1.0
Default
0 -0.423288 0.293221 -5.323083 0.819824 -0.473389 0.321777 0.984375 0.763672 1 0 1.0
0 -0.524550 0.321445 -5.023397 0.819824 -0.473389 0.321777 0.984375 0.763672 1 0 1.0
0 -0.466936 0.217621 -5.323083 0.819824 -0.473389 0.321777 0.984375 0.763672 1 0 1.0
Default
0 -0.423288 0.293221 -5.323083 -0.740723 0.427734 -0.517578 0.984375 0.763672 1 0 1.0
0 -0.466936 0.217621 -5.323083 -0.740723 0.427734 -0.517578 0.984375 0.763672 1 0 1.0
0 -0.539659 0.259608 -5.184297 -0.740723 0.427734 -0.517578 0.984375 0.763672 1 0 1.0
Default
0 -0.496012 0.335208 -5.184297 -0.740723 0.427734 -0.517578 0.984375 0.763672 1 0 1.0
0 -0.423288 0.293221 -5.323083 -0.740723 0.427734 -0.517578 0.984375 0.763672 1 0 1.0
0 -0.539659 0.259608 -5.184297 -0.740723 0.427734 -0.517578 0.984375 0.763672 1 0 1.0
Default
0 0.281479 -0.030504 -0.822369 0.586914 0.808105 0.052673 0.108337 0.669922 1 0 1.0
0 0.001676 0.172785 -0.822369 0.586914 0.808105 0.052673 0.108337 0.669922 1 0 1.0
0 0.001676 0.119167 0.000000 0.586914 0.808105 0.052673 0.108337 0.669922 1 0 1.0
Default
0 0.001676 0.119167 0.000000 0.586914 0.808105 0.052673 0.108337 0.669922 1 0 1.0
0 0.215660 -0.009822 -0.406117 0.586914 0.808105 0.052673 0.108337 0.669922 1 0 1.0
0 0.281479 -0.030504 -0.822369 0.586914 0.808105 0.052673 0.108337 0.669922 1 0 1.0
Default
0 0.001676 0.119167 0.000000 0.586914 0.808105 0.052673 0.108337 0.669922 1 0 1.0
0 0.151443 0.010355 0.000000 0.586914 0.808105 0.052673 0.108337 0.669922 1 0 1.0
0 0.215660 -0.009822 -0.406117 0.586914 0.808105 0.052673 0.108337 0.669922 1 0 1.0
Default
0 0.134107 -0.261814 -0.407980 0.938477 -0.304932 0.163452 0.108337 0.669922 1 0 1.0
0 0.174604 -0.359431 -0.822369 0.938477 -0.304932 0.163452 0.108337 0.669922 1 0 1.0
0 0.281479 -0.030504 -0.822369 0.938477 -0.304932 0.163452 0.108337 0.669922 1 0 1.0
Default
0 0.215660 -0.009822 -0.406117 0.938477 -0.304932 0.163452 0.108337 0.669922 1 0 1.0
0 0.134107 -0.261814 -0.407980 0.938477 -0.304932 0.163452 0.108337 0.669922 1 0 1.0
0 0.281479 -0.030504 -0.822369 0.938477 -0.304932 0.163452 0.108337 0.669922 1 0 1.0
Default
0 0.094237 -0.165706 0.000000 0.938477 -0.304932 0.163452 0.108337 0.669922 1 0 1.0
0 0.134107 -0.261814 -0.407980 0.938477 -0.304932 0.163452 0.108337 0.669922 1 0 1.0
0 0.150990 -0.108909 -0.219766 0.938477 -0.304932 0.163452 0.108337 0.669922 1 0 1.0
Default
0 0.150990 -0.108909 -0.219766 0.938477 -0.304932 0.163452 0.108337 0.669922 1 0 1.0
0 0.215660 -0.009822 -0.406117 0.938477 -0.304932 0.163452 0.108337 0.669922 1 0 1.0
0 0.151443 0.010355 0.000000 0.938477 -0.304932 0.163452 0.108337 0.669922 1 0 1.0
Default
0 0.150990 -0.108909 -0.219766 0.938477 -0.304932 0.163452 0.108337 0.669922 1 0 1.0
0 0.151443 0.010355 0.000000 0.938477 -0.304932 0.163452 0.108337 0.669922 1 0 1.0
0 0.094237 -0.165706 0.000000 0.938477 -0.304932 0.163452 0.108337 0.669922 1 0 1.0
Default
0 -0.171251 -0.359431 -0.822369 -0.000000 -0.973145 0.229248 0.108337 0.669922 1 0 1.0
0 0.174604 -0.359431 -0.822369 -0.000000 -0.973145 0.229248 0.108337 0.669922 1 0 1.0
0 0.134107 -0.261814 -0.407980 -0.000000 -0.973145 0.229248 0.108337 0.669922 1 0 1.0
Default
0 0.134107 -0.261814 -0.407980 -0.000000 -0.973145 0.229248 0.108337 0.669922 1 0 1.0
0 -0.132627 -0.266328 -0.427142 -0.000000 -0.973145 0.229248 0.108337 0.669922 1 0 1.0
0 -0.171251 -0.359431 -0.822369 -0.000000 -0.973145 0.229248 0.108337 0.669922 1 0 1.0
Default
0 0.134107 -0.261814 -0.407980 -0.000000 -0.973145 0.229248 0.108337 0.669922 1 0 1.0
0 -0.090885 -0.165706 0.000000 -0.000000 -0.973145 0.229248 0.108337 0.669922 1 0 1.0
0 -0.132627 -0.266328 -0.427142 -0.000000 -0.973145 0.229248 0.108337 0.669922 1 0 1.0
Default
0 0.134107 -0.261814 -0.407980 -0.000000 -0.973145 0.229248 0.108337 0.669922 1 0 1.0
0 0.094237 -0.165706 0.000000 -0.000000 -0.973145 0.229248 0.108337 0.669922 1 0 1.0
0 -0.090885 -0.165706 0.000000 -0.000000 -0.973145 0.229248 0.108337 0.669922 1 0 1.0
Default
0 0.094237 -0.165706 0.000000 -0.000000 0.000000 1.000000 0.108337 0.669922 1 0 1.0
0 0.151443 0.010355 0.000000 -0.000000 0.000000 1.000000 0.108337 0.669922 1 0 1.0
0 0.001676 0.119167 0.000000 -0.000000 0.000000 1.000000 0.108337 0.669922 1 0 1.0
Default
0 0.001676 0.119167 0.000000 -0.000000 0.000000 1.000000 0.108337 0.669922 1 0 1.0
0 -0.090885 -0.165706 0.000000 -0.000000 0.000000 1.000000 0.108337 0.669922 1 0 1.0
0 0.094237 -0.165706 0.000000 -0.000000 0.000000 1.000000 0.108337 0.669922 1 0 1.0
Default
0 0.001676 0.119167 0.000000 -0.000000 0.000000 1.000000 0.108337 0.669922 1 0 1.0
0 -0.148091 0.010355 0.000000 -0.000000 0.000000 1.000000 0.108337 0.669922 1 0 1.0
0 -0.090885 -0.165706 0.000000 -0.000000 0.000000 1.000000 0.108337 0.669922 1 0 1.0
Default
0 -0.216422 -0.011115 -0.432139 -0.938477 -0.304932 0.163452 0.108337 0.669922 1 0 1.0
0 -0.278126 -0.030504 -0.822369 -0.938477 -0.304932 0.163452 0.108337 0.669922 1 0 1.0
0 -0.171251 -0.359431 -0.822369 -0.938477 -0.304932 0.163452 0.108337 0.669922 1 0 1.0
Default
0 -0.132627 -0.266328 -0.427142 -0.938477 -0.304932 0.163452 0.108337 0.669922 1 0 1.0
0 -0.216422 -0.011115 -0.432139 -0.938477 -0.304932 0.163452 0.108337 0.669922 1 0 1.0
0 -0.171251 -0.359431 -0.822369 -0.938477 -0.304932 0.163452 0.108337 0.669922 1 0 1.0
Default
0 -0.148091 0.010355 0.000000 -0.938477 -0.304932 0.163452 0.108337 0.669922 1 0 1.0
0 -0.216422 -0.011115 -0.432139 -0.938477 -0.304932 0.163452 0.108337 0.669922 1 0 1.0
0 -0.147478 -0.128020 -0.254485 -0.938477 -0.304932 0.163452 0.108337 0.669922 1 0 1.0
Default
0 -0.147478 -0.128020 -0.254485 -0.938477 -0.304932 0.163452 0.108337 0.669922 1 0 1.0
0 -0.132627 -0.266328 -0.427142 -0.938477 -0.304932 0.163452 0.108337 0.669922 1 0 1.0
0 -0.090885 -0.165706 0.000000 -0.938477 -0.304932 0.163452 0.108337 0.669922 1 0 1.0
Default
0 -0.090885 -0.165706 0.000000 -0.938477 -0.304932 0.163452 0.108337 0.669922 1 0 1.0
0 -0.148091 0.010355 0.000000 -0.938477 -0.304932 0.163452 0.108337 0.669922 1 0 1.0
0 -0.147478 -0.128020 -0.254485 -0.938477 -0.304932 0.163452 0.108337 0.669922 1 0 1.0
Default
0 0.001676 0.172785 -0.822369 -0.586914 0.808105 0.052673 0.108337 0.669922 1 0 1.0
0 -0.278126 -0.030504 -0.822369 -0.586914 0.808105 0.052673 0.108337 0.669922 1 0 1.0
0 -0.216422 -0.011115 -0.432139 -0.586914 0.808105 0.052673 0.108337 0.669922 1 0 1.0
Default
0 -0.216422 -0.011115 -0.432139 -0.586914 0.808105 0.052673 0.108337 0.669922 1 0 1.0
0 0.001676 0.119167 0.000000 -0.586914 0.808105 0.052673 0.108337 0.669922 1 0 1.0
0 0.001676 0.172785 -0.822369 -0.586914 0.808105 0.052673 0.108337 0.669922 1 0 1.0
Default
0 -0.216422 -0.011115 -0.432139 -0.586914 0.808105 0.052673 0.108337 0.669922 1 0 1.0
0 -0.148091 0.010355 0.000000 -0.586914 0.808105 0.052673 0.108337 0.669922 1 0 1.0
0 0.001676 0.119167 0.000000 -0.586914 0.808105 0.052673 0.108337 0.669922 1 0 1.0
Default
0 0.001676 0.282846 -3.837887 -0.000000 0.000000 -1.000000 0.107727 0.669922 1 0 1.0
0 0.281479 0.079558 -3.837887 -0.000000 0.000000 -1.000000 0.107727 0.669922 1 0 1.0
0 0.174604 -0.249370 -3.837887 -0.000000 0.000000 -1.000000 0.107727 0.669922 1 0 1.0
Default
0 0.174604 -0.249370 -3.837887 -0.000000 0.000000 -1.000000 0.107727 0.669922 1 0 1.0
0 -0.171251 -0.249370 -3.837887 -0.000000 0.000000 -1.000000 0.107727 0.669922 1 0 1.0
0 0.001676 0.282846 -3.837887 -0.000000 0.000000 -1.000000 0.107727 0.669922 1 0 1.0
Default
0 -0.171251 -0.249370 -3.837887 -0.000000 0.000000 -1.000000 0.107727 0.669922 1 0 1.0
0 -0.278126 0.079558 -3.837887 -0.000000 0.000000 -1.000000 0.107727 0.669922 1 0 1.0
0 0.001676 0.282846 -3.837887 -0.000000 0.000000 -1.000000 0.107727 0.669922 1 0 1.0
Default
0 -0.054472 0.262682 -2.816108 -0.587891 0.809082 -0.018112 0.107727 0.669922 1 0 1.0
0 0.001676 0.282846 -3.837887 -0.587891 0.809082 -0.016327 0.107727 0.669922 1 0 1.0
0 -0.278126 0.079558 -3.837887 -0.587891 0.809082 -0.016327 0.107727 0.669922 1 0 1.0
Default
0 -0.334275 0.059393 -2.816108 -0.587891 0.809082 -0.018112 0.107727 0.669922 1 0 1.0
0 -0.054472 0.262682 -2.816108 -0.587891 0.809082 -0.018112 0.107727 0.669922 1 0 1.0
0 -0.278126 0.079558 -3.837887 -0.587891 0.809082 -0.016327 0.107727 0.669922 1 0 1.0
Default
0 0.001676 0.331112 -1.691590 -0.587891 0.809082 -0.019882 0.107727 0.669922 1 0 1.0
0 -0.054472 0.262682 -2.816108 -0.587891 0.809082 -0.018112 0.107727 0.669922 1 0 1.0
0 -0.334275 0.059393 -2.816108 -0.587891 0.809082 -0.018112 0.107727 0.669922 1 0 1.0
Default
0 -0.278126 0.127823 -1.691590 -0.587891 0.809082 -0.019882 0.107727 0.669922 1 0 1.0
0 0.001676 0.331112 -1.691590 -0.587891 0.809082 -0.019882 0.107727 0.669922 1 0 1.0
0 -0.334275 0.059393 -2.816108 -0.587891 0.809082 -0.018112 0.107727 0.669922 1 0 1.0
Default
0 -0.334275 0.059393 -2.816108 -0.949219 -0.308594 -0.058258 0.107727 0.669922 1 0 1.0
0 -0.278126 0.079558 -3.837887 -0.949219 -0.308594 -0.058258 0.107727 0.669922 1 0 1.0
0 -0.171251 -0.249370 -3.837887 -0.949219 -0.308594 -0.058258 0.107727 0.669922 1 0 1.0
Default
0 -0.227399 -0.269534 -2.816108 -0.949219 -0.308594 -0.058258 0.107727 0.669922 1 0 1.0
0 -0.334275 0.059393 -2.816108 -0.949219 -0.308594 -0.058258 0.107727 0.669922 1 0 1.0
0 -0.171251 -0.249370 -3.837887 -0.949219 -0.308594 -0.058258 0.107727 0.669922 1 0 1.0
Default
0 -0.278126 0.127823 -1.691590 -0.948730 -0.308350 0.066162 0.107727 0.669922 1 0 1.0
0 -0.334275 0.059393 -2.816108 -0.948730 -0.308350 0.066162 0.107727 0.669922 1 0 1.0
0 -0.227399 -0.269534 -2.816108 -0.948730 -0.308350 0.066162 0.107727 0.669922 1 0 1.0
Default
0 -0.171251 -0.201105 -1.691590 -0.948730 -0.308350 0.066162 0.107727 0.669922 1 0 1.0
0 -0.278126 0.127823 -1.691590 -0.948730 -0.308350 0.066162 0.107727 0.669922 1 0 1.0
0 -0.227399 -0.269534 -2.816108 -0.948730 -0.308350 0.066162 0.107727 0.669922 1 0 1.0
Default
0 -0.227399 -0.269534 -2.816108 -0.000000 -1.000000 -0.019730 0.107727 0.669922 1 0 1.0
0 -0.171251 -0.249370 -3.837887 -0.000000 -1.000000 -0.019730 0.107727 0.669922 1 0 1.0
0 0.174604 -0.249370 -3.837887 -0.000000 -1.000000 -0.019730 0.107727 0.669922 1 0 1.0
Default
0 0.118456 -0.269534 -2.816108 -0.000000 -1.000000 -0.019730 0.107727 0.669922 1 0 1.0
0 -0.227399 -0.269534 -2.816108 -0.000000 -1.000000 -0.019730 0.107727 0.669922 1 0 1.0
0 0.174604 -0.249370 -3.837887 -0.000000 -1.000000 -0.019730 0.107727 0.669922 1 0 1.0
Default
0 -0.227399 -0.269534 -2.816108 -0.000000 -0.998047 0.060730 0.107727 0.669922 1 0 1.0
0 0.118456 -0.269534 -2.816108 -0.000000 -0.998047 0.060730 0.107727 0.669922 1 0 1.0
0 0.146530 -0.235319 -2.253849 -0.000000 -0.998047 0.060730 0.107727 0.669922 1 0 1.0
Default
0 0.146530 -0.235319 -2.253849 -0.000000 -0.998047 0.060730 0.107727 0.669922 1 0 1.0
0 -0.171251 -0.201105 -1.691590 -0.000000 -0.998047 0.060730 0.107727 0.669922 1 0 1.0
0 -0.227399 -0.269534 -2.816108 -0.000000 -0.998047 0.060730 0.107727 0.669922 1 0 1.0
Default
0 0.146530 -0.235319 -2.253849 -0.000000 -0.998047 0.060730 0.107727 0.669922 1 0 1.0
0 0.174604 -0.201105 -1.691590 -0.000000 -0.998047 0.060730 0.107727 0.669922 1 0 1.0
0 -0.171251 -0.201105 -1.691590 -0.000000 -0.998047 0.060730 0.107727 0.669922 1 0 1.0
Default
0 0.118456 -0.269534 -2.816108 0.950195 -0.308594 0.046112 0.107727 0.669922 1 0 1.0
0 0.174604 -0.249370 -3.837887 0.950195 -0.308594 0.046112 0.107727 0.669922 1 0 1.0
0 0.281479 0.079558 -3.837887 0.950195 -0.308594 0.046112 0.107727 0.669922 1 0 1.0
Default
0 0.225331 0.059393 -2.816108 0.950195 -0.308594 0.046112 0.107727 0.669922 1 0 1.0
0 0.118456 -0.269534 -2.816108 0.950195 -0.308594 0.046112 0.107727 0.669922 1 0 1.0
0 0.281479 0.079558 -3.837887 0.950195 -0.308594 0.046112 0.107727 0.669922 1 0 1.0
Default
0 0.470057 0.009519 -1.708178 0.458496 0.887695 -0.045258 0.107727 0.669922 1 0 1.0
0 0.493532 0.003320 -1.985070 0.458496 0.887695 -0.045258 0.107727 0.669922 1 0 1.0
0 0.253405 0.093608 -2.253849 0.458496 0.887695 -0.045258 0.107727 0.669922 1 0 1.0
Default
0 0.281479 0.127823 -1.691590 0.458496 0.887695 -0.045258 0.107727 0.669922 1 0 1.0
0 0.470057 0.009519 -1.708178 0.458496 0.887695 -0.045258 0.107727 0.669922 1 0 1.0
0 0.253405 0.093608 -2.253849 0.458496 0.887695 -0.045258 0.107727 0.669922 1 0 1.0
Default
0 0.225331 0.059393 -2.816108 0.586914 0.808105 0.048218 0.107727 0.669922 1 0 1.0
0 0.281479 0.079558 -3.837887 0.586914 0.808105 0.048218 0.107727 0.669922 1 0 1.0
0 0.001676 0.282846 -3.837887 0.586914 0.808105 0.048218 0.107727 0.669922 1 0 1.0
Default
0 -0.054472 0.262682 -2.816108 0.586914 0.808105 0.048218 0.107727 0.669922 1 0 1.0
0 0.225331 0.059393 -2.816108 0.586914 0.808105 0.048218 0.107727 0.669922 1 0 1.0
0 0.001676 0.282846 -3.837887 0.586914 0.808105 0.048218 0.107727 0.669922 1 0 1.0
Default
0 0.225331 0.059393 -2.816108 0.585938 0.806641 -0.078308 0.107727 0.669922 1 0 1.0
0 -0.054472 0.262682 -2.816108 0.585938 0.806641 -0.078308 0.107727 0.669922 1 0 1.0
0 0.001676 0.331112 -1.691590 0.585938 0.806641 -0.078308 0.107727 0.669922 1 0 1.0
Default
0 0.001676 0.331112 -1.691590 0.585938 0.806641 -0.078308 0.107727 0.669922 1 0 1.0
0 0.253405 0.093608 -2.253849 0.585938 0.806641 -0.078308 0.107727 0.669922 1 0 1.0
0 0.225331 0.059393 -2.816108 0.585938 0.806641 -0.078308 0.107727 0.669922 1 0 1.0
Default
0 0.001676 0.331112 -1.691590 0.585938 0.806641 -0.078308 0.107727 0.669922 1 0 1.0
0 0.281479 0.127823 -1.691590 0.585938 0.806641 -0.078308 0.107727 0.669922 1 0 1.0
0 0.253405 0.093608 -2.253849 0.585938 0.806641 -0.078308 0.107727 0.669922 1 0 1.0
Default
0 0.001676 0.172785 -0.822369 -0.581543 0.800293 0.145752 0.107727 0.669922 1 0 1.0
0 0.001676 0.331112 -1.691590 -0.581543 0.800293 0.145752 0.107727 0.669922 1 0 1.0
0 -0.278126 0.127823 -1.691590 -0.581543 0.800293 0.145752 0.107727 0.669922 1 0 1.0
Default
0 -0.278126 -0.030504 -0.822369 -0.581543 0.800293 0.145752 0.107727 0.669922 1 0 1.0
0 0.001676 0.172785 -0.822369 -0.581543 0.800293 0.145752 0.107727 0.669922 1 0 1.0
0 -0.278126 0.127823 -1.691590 -0.581543 0.800293 0.145752 0.107727 0.669922 1 0 1.0
Default
0 -0.278126 -0.030504 -0.822369 -0.949707 -0.308594 -0.056183 0.107727 0.669922 1 0 1.0
0 -0.278126 0.127823 -1.691590 -0.949707 -0.308594 -0.056183 0.107727 0.669922 1 0 1.0
0 -0.171251 -0.201105 -1.691590 -0.949707 -0.308594 -0.056183 0.107727 0.669922 1 0 1.0
Default
0 -0.171251 -0.359431 -0.822369 -0.949707 -0.308594 -0.056183 0.107727 0.669922 1 0 1.0
0 -0.278126 -0.030504 -0.822369 -0.949707 -0.308594 -0.056183 0.107727 0.669922 1 0 1.0
0 -0.171251 -0.201105 -1.691590 -0.949707 -0.308594 -0.056183 0.107727 0.669922 1 0 1.0
Default
0 -0.171251 -0.359431 -0.822369 -0.000000 -0.983887 -0.179199 0.109314 0.670410 1 0 1.0
0 -0.171251 -0.201105 -1.691590 -0.000000 -0.983887 -0.179199 0.109314 0.670410 1 0 1.0
0 0.174604 -0.201105 -1.691590 -0.000000 -0.983887 -0.179199 0.109314 0.670410 1 0 1.0
Default
0 0.174604 -0.359431 -0.822369 -0.000000 -0.983887 -0.179199 0.109314 0.670410 1 0 1.0
0 -0.171251 -0.359431 -0.822369 -0.000000 -0.983887 -0.179199 0.109314 0.670410 1 0 1.0
0 0.174604 -0.201105 -1.691590 -0.000000 -0.983887 -0.179199 0.109314 0.670410 1 0 1.0
Default
0 0.174604 -0.359431 -0.822369 0.949707 -0.308594 -0.056183 0.107727 0.669922 1 0 1.0
0 0.174604 -0.201105 -1.691590 0.949707 -0.308594 -0.056183 0.107727 0.669922 1 0 1.0
0 0.281479 0.127823 -1.691590 0.949707 -0.308594 -0.056183 0.107727 0.669922 1 0 1.0
Default
0 0.281479 -0.030504 -0.822369 0.949707 -0.308594 -0.056183 0.107727 0.669922 1 0 1.0
0 0.174604 -0.359431 -0.822369 0.949707 -0.308594 -0.056183 0.107727 0.669922 1 0 1.0
0 0.281479 0.127823 -1.691590 0.949707 -0.308594 -0.056183 0.107727 0.669922 1 0 1.0
Default
0 0.281479 -0.030504 -0.822369 0.581543 0.800293 0.145752 0.107727 0.669922 1 0 1.0
0 0.281479 0.127823 -1.691590 0.581543 0.800293 0.145752 0.107727 0.669922 1 0 1.0
0 0.001676 0.331112 -1.691590 0.581543 0.800293 0.145752 0.107727 0.669922 1 0 1.0
Default
0 0.001676 0.172785 -0.822369 0.581543 0.800293 0.145752 0.107727 0.669922 1 0 1.0
0 0.281479 -0.030504 -0.822369 0.581543 0.800293 0.145752 0.107727 0.669922 1 0 1.0
0 0.001676 0.331112 -1.691590 0.581543 0.800293 0.145752 0.107727 0.669922 1 0 1.0
Default
0 0.146530 -0.235319 -2.253849 0.950684 -0.308838 -0.028671 0.107727 0.669922 1 0 1.0
0 0.118456 -0.269534 -2.816108 0.950684 -0.308838 -0.028671 0.107727 0.669922 1 0 1.0
0 0.225331 0.059393 -2.816108 0.950684 -0.308838 -0.028671 0.107727 0.669922 1 0 1.0
Default
0 0.253405 0.093608 -2.253849 0.950684 -0.308838 -0.028671 0.107727 0.669922 1 0 1.0
0 0.146530 -0.235319 -2.253849 0.950684 -0.308838 -0.028671 0.107727 0.669922 1 0 1.0
0 0.225331 0.059393 -2.816108 0.950684 -0.308838 -0.028671 0.107727 0.669922 1 0 1.0
Default
0 0.780406 -0.295081 -1.334569 -0.290527 -0.953613 0.080322 0.107727 0.669922 1 0 1.0
0 0.692535 -0.283936 -1.236050 -0.290527 -0.953613 0.080322 0.107727 0.669922 1 0 1.0
0 0.398891 -0.210985 -1.716465 -0.290527 -0.953613 0.080322 0.107727 0.669922 1 0 1.0
Default
0 0.408161 -0.261199 -1.995011 -0.290527 -0.953613 0.080322 0.107727 0.669922 1 0 1.0
0 0.780406 -0.295081 -1.334569 -0.290527 -0.953613 0.080322 0.107727 0.669922 1 0 1.0
0 0.398891 -0.210985 -1.716465 -0.290527 -0.953613 0.080322 0.107727 0.669922 1 0 1.0
Default
0 0.398891 -0.210985 -1.716465 0.086609 -0.043060 0.995117 0.107727 0.669922 1 0 1.0
0 0.470057 0.009519 -1.708178 0.086609 -0.043060 0.995117 0.107727 0.669922 1 0 1.0
0 0.281479 0.127823 -1.691590 0.086609 -0.043060 0.995117 0.107727 0.669922 1 0 1.0
Default
0 0.174604 -0.201105 -1.691590 0.086609 -0.043060 0.995117 0.107727 0.669922 1 0 1.0
0 0.398891 -0.210985 -1.716465 0.086609 -0.043060 0.995117 0.107727 0.669922 1 0 1.0
0 0.281479 0.127823 -1.691590 0.086609 -0.043060 0.995117 0.107727 0.669922 1 0 1.0
Default
0 0.408161 -0.261199 -1.995011 -0.121704 -0.987305 0.101868 0.107727 0.669922 1 0 1.0
0 0.398891 -0.210985 -1.716465 -0.121704 -0.987305 0.101868 0.107727 0.669922 1 0 1.0
0 0.174604 -0.201105 -1.691590 -0.121704 -0.987305 0.101868 0.107727 0.669922 1 0 1.0
Default
0 0.146530 -0.235319 -2.253849 -0.121704 -0.987305 0.101868 0.107727 0.669922 1 0 1.0
0 0.408161 -0.261199 -1.995011 -0.121704 -0.987305 0.101868 0.107727 0.669922 1 0 1.0
0 0.174604 -0.201105 -1.691590 -0.121704 -0.987305 0.101868 0.107727 0.669922 1 0 1.0
Default
0 0.493532 0.003320 -1.985070 0.685059 -0.210205 -0.697754 0.107727 0.669922 1 0 1.0
0 0.408161 -0.261199 -1.995011 0.685059 -0.210205 -0.697754 0.107727 0.669922 1 0 1.0
0 0.146530 -0.235319 -2.253849 0.685059 -0.210205 -0.697754 0.107727 0.669922 1 0 1.0
Default
0 0.253405 0.093608 -2.253849 0.685059 -0.210205 -0.697754 0.107727 0.669922 1 0 1.0
0 0.493532 0.003320 -1.985070 0.685059 -0.210205 -0.697754 0.107727 0.669922 1 0 1.0
0 0.146530 -0.235319 -2.253849 0.685059 -0.210205 -0.697754 0.107727 0.669922 1 0 1.0
Default
0 0.692535 -0.283936 -1.236050 0.692383 -0.308838 0.652344 0.107727 0.669922 1 0 1.0
0 0.780406 -0.295081 -1.334569 0.692383 -0.308838 0.652344 0.107727 0.669922 1 0 1.0
0 0.820115 -0.120088 -1.293874 0.692383 -0.308838 0.652344 0.107727 0.669922 1 0 1.0
Default
0 0.732244 -0.108942 -1.195355 0.692383 -0.308838 0.652344 0.107727 0.669922 1 0 1.0
0 0.692535 -0.283936 -1.236050 0.692383 -0.308838 0.652344 0.107727 0.669922 1 0 1.0
0 0.820115 -0.120088 -1.293874 0.692383 -0.308838 0.652344 0.107727 0.669922 1 0 1.0
Default
0 0.692535 -0.283936 -1.236050 -0.844727 0.174072 0.506348 0.107727 0.669922 1 0 1.0
0 0.732244 -0.108942 -1.195355 -0.844727 0.174072 0.506348 0.107727 0.669922 1 0 1.0
0 0.470057 0.009519 -1.708178 -0.844727 0.174072 0.506348 0.107727 0.669922 1 0 1.0
Default
0 0.398891 -0.210985 -1.716465 -0.844727 0.174072 0.506348 0.107727 0.669922 1 0 1.0
0 0.692535 -0.283936 -1.236050 -0.844727 0.174072 0.506348 0.107727 0.669922 1 0 1.0
0 0.470057 0.009519 -1.708178 -0.844727 0.174072 0.506348 0.107727 0.669922 1 0 1.0
Default
0 0.820115 -0.120088 -1.293874 0.862793 -0.191528 -0.468262 0.107727 0.669922 1 0 1.0
0 0.780406 -0.295081 -1.334569 0.862793 -0.191528 -0.468262 0.107727 0.669922 1 0 1.0
0 0.408161 -0.261199 -1.995011 0.862793 -0.191528 -0.468262 0.107727 0.669922 1 0 1.0
Default
0 0.493532 0.003320 -1.985070 0.862793 -0.191528 -0.468262 0.107727 0.669922 1 0 1.0
0 0.820115 -0.120088 -1.293874 0.862793 -0.191528 -0.468262 0.107727 0.669922 1 0 1.0
0 0.408161 -0.261199 -1.995011 0.862793 -0.191528 -0.468262 0.107727 0.669922 1 0 1.0
Default
0 0.732244 -0.108942 -1.195355 0.299805 0.953125 0.044861 0.107727 0.669922 1 0 1.0
0 0.820115 -0.120088 -1.293874 0.299805 0.953125 0.044861 0.107727 0.669922 1 0 1.0
0 0.493532 0.003320 -1.985070 0.299805 0.953125 0.044861 0.107727 0.669922 1 0 1.0
Default
0 0.470057 0.009519 -1.708178 0.299805 0.953125 0.044861 0.107727 0.669922 1 0 1.0
0 0.732244 -0.108942 -1.195355 0.299805 0.953125 0.044861 0.107727 0.669922 1 0 1.0
0 0.493532 0.003320 -1.985070 0.299805 0.953125 0.044861 0.107727 0.669922 1 0 1.0
end
