version 1
nodes
0 "root" -1
end
skeleton
time 0
0 0 0 0 0 0 0
end
triangles
phy
0 -0.5521 -0.8525 -6.4602 0 0 1 0 0 1 0 1.0
0 0.5521 -0.8525 -6.4602 0 0 1 0 0 1 0 1.0
0 0.5521 1.1590 -6.4602 0 0 1 0 0 1 0 1.0
phy
0 -0.5521 -0.8525 -6.4602 0 0 1 0 0 1 0 1.0
0 0.5521 1.1590 -6.4602 0 0 1 0 0 1 0 1.0
0 -0.5521 1.1590 -6.4602 0 0 1 0 0 1 0 1.0
phy
0 -0.5521 -0.8525 0.0000 0 0 1 0 0 1 0 1.0
0 -0.5521 1.1590 0.0000 0 0 1 0 0 1 0 1.0
0 0.5521 1.1590 0.0000 0 0 1 0 0 1 0 1.0
phy
0 -0.5521 -0.8525 0.0000 0 0 1 0 0 1 0 1.0
0 0.5521 1.1590 0.0000 0 0 1 0 0 1 0 1.0
0 0.5521 -0.8525 0.0000 0 0 1 0 0 1 0 1.0
phy
0 -0.5521 -0.8525 -6.4602 0 0 1 0 0 1 0 1.0
0 -0.5521 -0.8525 0.0000 0 0 1 0 0 1 0 1.0
0 0.5521 -0.8525 0.0000 0 0 1 0 0 1 0 1.0
phy
0 -0.5521 -0.8525 -6.4602 0 0 1 0 0 1 0 1.0
0 0.5521 -0.8525 0.0000 0 0 1 0 0 1 0 1.0
0 0.5521 -0.8525 -6.4602 0 0 1 0 0 1 0 1.0
phy
0 0.5521 1.1590 -6.4602 0 0 1 0 0 1 0 1.0
0 0.5521 1.1590 0.0000 0 0 1 0 0 1 0 1.0
0 -0.5521 1.1590 0.0000 0 0 1 0 0 1 0 1.0
phy
0 0.5521 1.1590 -6.4602 0 0 1 0 0 1 0 1.0
0 -0.5521 1.1590 0.0000 0 0 1 0 0 1 0 1.0
0 -0.5521 1.1590 -6.4602 0 0 1 0 0 1 0 1.0
phy
0 -0.5521 -0.8525 -6.4602 0 0 1 0 0 1 0 1.0
0 -0.5521 1.1590 -6.4602 0 0 1 0 0 1 0 1.0
0 -0.5521 1.1590 0.0000 0 0 1 0 0 1 0 1.0
phy
0 -0.5521 -0.8525 -6.4602 0 0 1 0 0 1 0 1.0
0 -0.5521 1.1590 0.0000 0 0 1 0 0 1 0 1.0
0 -0.5521 -0.8525 0.0000 0 0 1 0 0 1 0 1.0
phy
0 0.5521 -0.8525 -6.4602 0 0 1 0 0 1 0 1.0
0 0.5521 -0.8525 0.0000 0 0 1 0 0 1 0 1.0
0 0.5521 1.1590 0.0000 0 0 1 0 0 1 0 1.0
phy
0 0.5521 -0.8525 -6.4602 0 0 1 0 0 1 0 1.0
0 0.5521 1.1590 0.0000 0 0 1 0 0 1 0 1.0
0 0.5521 1.1590 -6.4602 0 0 1 0 0 1 0 1.0
end
