version 1
nodes
0 "root" -1
end
skeleton
time 0
0 0.000000 0.000000 0.000000 0.000000 0.000000 0.000000
end
triangles
Default
0 -0.137477 0.276108 -0.493495 -0.860840 0.293945 0.415283 0.110718 0.732422 1 0 1.0
0 0.000001 -0.018242 0.000000 -0.860840 0.293945 0.415283 0.110718 0.732422 1 0 1.0
0 0.000001 0.589339 -0.430272 -0.860840 0.293945 0.415283 0.110718 0.732422 1 0 1.0
Default
0 0.274956 -0.037124 -0.556718 0.808105 -0.419922 0.413330 0.109985 0.955566 1 0 1.0
0 0.000001 -0.018242 0.000000 0.808105 -0.419922 0.413330 0.109985 0.955566 1 0 1.0
0 0.000001 -0.439241 -0.427763 0.808105 -0.419922 0.413330 0.109985 0.955566 1 0 1.0
Default
0 -0.043647 0.007124 -5.083640 -0.000000 0.000000 1.000000 0.984375 0.763672 1 0 1.0
0 0.000001 -0.068476 -5.083640 -0.000000 0.000000 1.000000 0.984375 0.763672 1 0 1.0
0 0.043649 0.007124 -5.083640 -0.000000 0.000000 1.000000 0.984375 0.763672 1 0 1.0
Default
0 0.043649 0.579869 -6.012237 0.760254 0.648926 -0.028168 0.984375 0.763672 1 0 1.0
0 0.043649 0.566938 -6.310204 0.760254 0.648926 -0.028168 0.984375 0.763672 1 0 1.0
0 0.000001 0.617163 -6.331106 0.760254 0.648926 -0.028168 0.984375 0.763672 1 0 1.0
Default
0 0.000001 0.617163 -6.331106 0.760254 0.648926 -0.028168 0.984375 0.763672 1 0 1.0
0 0.000001 0.619444 -5.850424 0.779785 0.625977 -0.002972 0.984375 0.763672 1 0 1.0
0 0.017460 0.597703 -5.851337 0.779785 0.625977 -0.002972 0.984375 0.763672 1 0 1.0
Default
0 0.000001 0.617163 -6.331106 0.604980 0.795898 0.010269 0.984375 0.763672 1 0 1.0
0 0.017460 0.597703 -5.851337 0.604980 0.795898 0.010269 0.984375 0.763672 1 0 1.0
0 0.043649 0.579869 -6.012237 0.604980 0.795898 0.010269 0.984375 0.763672 1 0 1.0
Default
0 0.017460 0.597703 -5.851337 -0.000000 -0.041962 0.999023 0.984375 0.763672 1 0 1.0
0 0.000001 0.619444 -5.850424 -0.000000 -0.041962 0.999023 0.984375 0.763672 1 0 1.0
0 -0.017458 0.597703 -5.851337 -0.000000 -0.041962 0.999023 0.984375 0.763672 1 0 1.0
Default
0 0.000001 0.617163 -6.331106 -0.760254 0.648926 -0.028168 0.984375 0.763672 1 0 1.0
0 -0.043647 0.566938 -6.310204 -0.760254 0.648926 -0.028168 0.984375 0.763672 1 0 1.0
0 -0.043647 0.579869 -6.012237 -0.760254 0.648926 -0.028168 0.984375 0.763672 1 0 1.0
Default
0 -0.017458 0.597703 -5.851337 -0.779785 0.625977 -0.002972 0.984375 0.763672 1 0 1.0
0 0.000001 0.619444 -5.850424 -0.779785 0.625977 -0.002972 0.984375 0.763672 1 0 1.0
0 0.000001 0.617163 -6.331106 -0.760254 0.648926 -0.028168 0.984375 0.763672 1 0 1.0
Default
0 -0.043647 0.579869 -6.012237 -0.604980 0.795898 0.010269 0.984375 0.763672 1 0 1.0
0 -0.017458 0.597703 -5.851337 -0.604980 0.795898 0.010269 0.984375 0.763672 1 0 1.0
0 0.000001 0.617163 -6.331106 -0.604980 0.795898 0.010269 0.984375 0.763672 1 0 1.0
Default
0 0.017460 0.597703 -5.851337 0.933105 -0.307373 0.185913 0.984375 0.763672 1 0 1.0
0 0.043649 0.495896 -6.151023 0.933105 -0.307373 0.185913 0.984375 0.763672 1 0 1.0
0 0.043649 0.579869 -6.012237 0.933105 -0.307373 0.185913 0.984375 0.763672 1 0 1.0
Default
0 -0.043647 0.579869 -6.012237 -0.933105 -0.307373 0.185913 0.984375 0.763672 1 0 1.0
0 -0.043647 0.495896 -6.151023 -0.933105 -0.307373 0.185913 0.984375 0.763672 1 0 1.0
0 -0.017458 0.597703 -5.851337 -0.933105 -0.307373 0.185913 0.984375 0.763672 1 0 1.0
Default
0 -0.542008 -0.310845 -5.851337 -0.990723 -0.130371 -0.040070 0.984375 0.763672 1 0 1.0
0 -0.539658 -0.279248 -6.012237 -0.990723 -0.130371 -0.040070 0.984375 0.763672 1 0 1.0
0 -0.528460 -0.272783 -6.310204 -0.990723 -0.130371 -0.040070 0.984375 0.763672 1 0 1.0
Default
0 -0.542008 -0.310845 -5.851337 0.036346 0.020981 0.999023 0.984375 0.763672 1 0 1.0
0 -0.552107 -0.336835 -5.850424 0.036346 0.020981 0.999023 0.984375 0.763672 1 0 1.0
0 -0.524549 -0.341085 -5.851337 0.036346 0.020981 0.999023 0.984375 0.763672 1 0 1.0
Default
0 -0.552107 -0.336835 -5.850424 -0.189697 -0.981934 -0.003109 0.984375 0.763672 1 0 1.0
0 -0.550132 -0.335695 -6.331106 -0.189697 -0.981934 -0.003109 0.984375 0.763672 1 0 1.0
0 -0.484812 -0.348383 -6.310204 -0.189697 -0.981934 -0.003109 0.984375 0.763672 1 0 1.0
Default
0 -0.484812 -0.348383 -6.310204 -0.395020 -0.917969 -0.034760 0.984375 0.763672 1 0 1.0
0 -0.496011 -0.354848 -6.012237 -0.395020 -0.917969 -0.034760 0.984375 0.763672 1 0 1.0
0 -0.552107 -0.336835 -5.850424 -0.395020 -0.917969 -0.034760 0.984375 0.763672 1 0 1.0
Default
0 -0.496011 -0.354848 -6.012237 -0.150269 -0.986816 0.057770 0.984375 0.763672 1 0 1.0
0 -0.524549 -0.341085 -5.851337 -0.150269 -0.986816 0.057770 0.984375 0.763672 1 0 1.0
0 -0.552107 -0.336835 -5.850424 -0.150269 -0.986816 0.057770 0.984375 0.763672 1 0 1.0
Default
0 -0.542008 -0.310845 -5.851337 -0.200439 0.961914 0.185913 0.984375 0.763672 1 0 1.0
0 -0.466935 -0.237261 -6.151023 -0.200439 0.961914 0.185913 0.984375 0.763672 1 0 1.0
0 -0.539658 -0.279248 -6.012237 -0.200439 0.961914 0.185913 0.984375 0.763672 1 0 1.0
Default
0 -0.496011 -0.354848 -6.012237 0.732910 -0.654785 0.185913 0.984375 0.763672 1 0 1.0
0 -0.423287 -0.312861 -6.151023 0.732910 -0.654785 0.185913 0.984375 0.763672 1 0 1.0
0 -0.524549 -0.341085 -5.851337 0.732910 -0.654785 0.185913 0.984375 0.763672 1 0 1.0
Default
0 0.484814 -0.348383 -6.310204 0.189697 -0.981934 -0.003109 0.984375 0.763672 1 0 1.0
0 0.550134 -0.335695 -6.331106 0.189697 -0.981934 -0.003109 0.984375 0.763672 1 0 1.0
0 0.552109 -0.336835 -5.850424 0.189697 -0.981934 -0.003109 0.984375 0.763672 1 0 1.0
Default
0 0.552109 -0.336835 -5.850424 0.395020 -0.917969 -0.034760 0.984375 0.763672 1 0 1.0
0 0.496013 -0.354848 -6.012237 0.395020 -0.917969 -0.034760 0.984375 0.763672 1 0 1.0
0 0.484814 -0.348383 -6.310204 0.395020 -0.917969 -0.034760 0.984375 0.763672 1 0 1.0
Default
0 0.552109 -0.336835 -5.850424 0.150269 -0.986816 0.057770 0.984375 0.763672 1 0 1.0
0 0.524551 -0.341085 -5.851337 0.150269 -0.986816 0.057770 0.984375 0.763672 1 0 1.0
0 0.496013 -0.354848 -6.012237 0.150269 -0.986816 0.057770 0.984375 0.763672 1 0 1.0
Default
0 0.524551 -0.341085 -5.851337 -0.036346 0.020981 0.999023 0.984375 0.763672 1 0 1.0
0 0.552109 -0.336835 -5.850424 -0.036346 0.020981 0.999023 0.984375 0.763672 1 0 1.0
0 0.542010 -0.310845 -5.851337 -0.036346 0.020981 0.999023 0.984375 0.763672 1 0 1.0
Default
0 0.528462 -0.272783 -6.310204 0.990723 -0.130371 -0.040070 0.984375 0.763672 1 0 1.0
0 0.539660 -0.279248 -6.012237 0.990723 -0.130371 -0.040070 0.984375 0.763672 1 0 1.0
0 0.542010 -0.310845 -5.851337 0.990723 -0.130371 -0.040070 0.984375 0.763672 1 0 1.0
Default
0 0.524551 -0.341085 -5.851337 -0.732910 -0.654785 0.185913 0.984375 0.763672 1 0 1.0
0 0.423289 -0.312861 -6.151023 -0.732910 -0.654785 0.185913 0.984375 0.763672 1 0 1.0
0 0.496013 -0.354848 -6.012237 -0.732910 -0.654785 0.185913 0.984375 0.763672 1 0 1.0
Default
0 0.539660 -0.279248 -6.012237 0.200439 0.961914 0.185913 0.984375 0.763672 1 0 1.0
0 0.466937 -0.237261 -6.151023 0.200439 0.961914 0.185913 0.984375 0.763672 1 0 1.0
0 0.542010 -0.310845 -5.851337 0.200439 0.961914 0.185913 0.984375 0.763672 1 0 1.0
Default
0 -0.329067 0.130162 -0.760746 -0.094666 0.789062 -0.606934 0.265381 0.950195 1 0 1.0
0 0.220768 0.211083 -0.741311 -0.094666 0.789062 -0.606934 0.265381 0.950195 1 0 1.0
0 0.000001 -0.017039 -1.003512 -0.094666 0.789062 -0.606934 0.265381 0.950195 1 0 1.0
Default
0 0.000001 -0.017039 -1.003512 -0.593750 0.000000 -0.804688 0.265381 0.950195 1 0 1.0
0 -0.329067 -0.164241 -0.760746 -0.593750 0.000000 -0.804688 0.265381 0.950195 1 0 1.0
0 -0.329067 0.130162 -0.760746 -0.593750 0.000000 -0.804688 0.265381 0.950195 1 0 1.0
Default
0 0.220768 0.211083 -0.741311 0.551270 0.341309 -0.761230 0.265381 0.950195 1 0 1.0
0 0.341552 -0.017039 -0.756089 0.551270 0.341309 -0.761230 0.265381 0.950195 1 0 1.0
0 0.000001 -0.017039 -1.003512 0.551270 0.341309 -0.761230 0.265381 0.950195 1 0 1.0
Default
0 0.341552 -0.017039 -0.756089 0.526855 -0.439453 -0.727539 0.265381 0.950195 1 0 1.0
0 0.191363 -0.223181 -0.740341 0.526855 -0.439453 -0.727539 0.265381 0.950195 1 0 1.0
0 0.000001 -0.017039 -1.003512 0.526855 -0.439453 -0.727539 0.265381 0.950195 1 0 1.0
Default
0 0.191363 -0.223181 -0.740341 -0.068726 -0.809082 -0.583496 0.265381 0.950195 1 0 1.0
0 -0.329067 -0.164241 -0.760746 -0.068726 -0.809082 -0.583496 0.265381 0.950195 1 0 1.0
0 0.000001 -0.017039 -1.003512 -0.068726 -0.809082 -0.583496 0.265381 0.950195 1 0 1.0
Default
0 -0.329067 -0.164241 -0.760746 -0.989258 0.000000 0.145020 0.988281 0.516602 1 0 1.0
0 -0.294976 -0.017039 -0.528189 -0.989258 0.000000 0.145020 0.988281 0.516602 1 0 1.0
0 -0.329067 0.130162 -0.760746 -0.989258 0.000000 0.145020 0.988281 0.516602 1 0 1.0
Default
0 -0.329067 0.130162 -0.760746 -0.144409 0.988770 -0.032776 0.265381 0.950195 1 0 1.0
0 -0.248434 0.149775 -0.524102 -0.144409 0.988770 -0.032776 0.265381 0.950195 1 0 1.0
0 0.220768 0.211083 -0.741311 -0.144409 0.988770 -0.032776 0.265381 0.950195 1 0 1.0
Default
0 0.220768 0.211083 -0.741311 0.879395 0.470459 -0.072693 0.265381 0.950195 1 0 1.0
0 0.282496 0.130162 -0.518068 0.879395 0.470459 -0.072693 0.265381 0.950195 1 0 1.0
0 0.341552 -0.017039 -0.756089 0.879395 0.470459 -0.072693 0.265381 0.950195 1 0 1.0
Default
0 0.341552 -0.017039 -0.756089 0.800781 -0.590820 -0.098938 0.265381 0.950195 1 0 1.0
0 0.263866 -0.164241 -0.505648 0.800781 -0.590820 -0.098938 0.265381 0.950195 1 0 1.0
0 0.191363 -0.223181 -0.740341 0.800781 -0.590820 -0.098938 0.265381 0.950195 1 0 1.0
Default
0 0.191363 -0.223181 -0.740341 -0.111572 -0.993652 -0.023727 0.265381 0.950195 1 0 1.0
0 -0.238360 -0.179927 -0.530514 -0.111572 -0.993652 -0.023727 0.265381 0.950195 1 0 1.0
0 -0.329067 -0.164241 -0.760746 -0.111572 -0.993652 -0.023727 0.265381 0.950195 1 0 1.0
Default
0 -0.294976 -0.017039 -0.528189 -0.922363 0.250244 0.293701 0.265381 0.950195 1 0 1.0
0 -0.248434 0.149775 -0.524102 -0.922363 0.250244 0.293701 0.265381 0.950195 1 0 1.0
0 -0.329067 0.130162 -0.760746 -0.922363 0.250244 0.293701 0.265381 0.950195 1 0 1.0
Default
0 -0.248434 0.149775 -0.524102 0.031021 0.942383 0.333008 0.265381 0.950195 1 0 1.0
0 0.282496 0.130162 -0.518068 0.031021 0.942383 0.333008 0.265381 0.950195 1 0 1.0
0 0.220768 0.211083 -0.741311 0.031021 0.942383 0.333008 0.265381 0.950195 1 0 1.0
Default
0 0.282496 0.130162 -0.518068 0.961914 -0.049500 0.269287 0.988281 0.516602 1 0 1.0
0 0.263866 -0.164241 -0.505648 0.961914 -0.049500 0.269287 0.988281 0.516602 1 0 1.0
0 0.341552 -0.017039 -0.756089 0.961914 -0.049500 0.269287 0.988281 0.516602 1 0 1.0
Default
0 0.263866 -0.164241 -0.505648 0.018539 -0.971191 0.238159 0.265381 0.950195 1 0 1.0
0 -0.238360 -0.179927 -0.530514 0.018539 -0.971191 0.238159 0.265381 0.950195 1 0 1.0
0 0.191363 -0.223181 -0.740341 0.018539 -0.971191 0.238159 0.265381 0.950195 1 0 1.0
Default
0 -0.238360 -0.179927 -0.530514 -0.890625 -0.314209 0.329346 0.265381 0.950195 1 0 1.0
0 -0.294976 -0.017039 -0.528189 -0.890625 -0.314209 0.329346 0.265381 0.950195 1 0 1.0
0 -0.329067 -0.164241 -0.760746 -0.890625 -0.314209 0.329346 0.265381 0.950195 1 0 1.0
Default
0 -0.294976 -0.017039 -0.528189 -0.501465 0.118958 0.856934 0.265381 0.950195 1 0 1.0
0 0.000001 -0.017039 -0.355525 -0.501465 0.118958 0.856934 0.265381 0.950195 1 0 1.0
0 -0.248434 0.149775 -0.524102 -0.501465 0.118958 0.856934 0.265381 0.950195 1 0 1.0
Default
0 -0.248434 0.149775 -0.524102 0.018936 0.724609 0.688965 0.265381 0.950195 1 0 1.0
0 0.000001 -0.017039 -0.355525 0.018936 0.724609 0.688965 0.265381 0.950195 1 0 1.0
0 0.282496 0.130162 -0.518068 0.018936 0.724609 0.688965 0.265381 0.950195 1 0 1.0
Default
0 0.282496 0.130162 -0.518068 0.496582 0.005184 0.867676 0.265381 0.950195 1 0 1.0
0 0.000001 -0.017039 -0.355525 0.496582 0.005184 0.867676 0.265381 0.950195 1 0 1.0
0 0.263866 -0.164241 -0.505648 0.496582 0.005184 0.867676 0.265381 0.950195 1 0 1.0
Default
0 0.263866 -0.164241 -0.505648 -0.011536 -0.724121 0.689453 0.265381 0.950195 1 0 1.0
0 0.000001 -0.017039 -0.355525 -0.011536 -0.724121 0.689453 0.265381 0.950195 1 0 1.0
0 -0.238360 -0.179927 -0.530514 -0.011536 -0.724121 0.689453 0.265381 0.950195 1 0 1.0
Default
0 -0.238360 -0.179927 -0.530514 -0.496582 -0.184692 0.848145 0.265381 0.950195 1 0 1.0
0 0.000001 -0.017039 -0.355525 -0.496582 -0.184692 0.848145 0.265381 0.950195 1 0 1.0
0 -0.294976 -0.017039 -0.528189 -0.496582 -0.184692 0.848145 0.265381 0.950195 1 0 1.0
Default
0 0.000001 -0.439241 -0.427763 -0.808105 -0.419922 0.413330 0.109985 0.955566 1 0 1.0
0 0.000001 -0.018242 0.000000 -0.808105 -0.419922 0.413330 0.109985 0.955566 1 0 1.0
0 -0.274954 -0.037124 -0.556718 -0.808105 -0.419922 0.413330 0.109985 0.955566 1 0 1.0
Default
0 0.137479 0.276108 -0.493495 0.860840 0.293945 0.415283 0.108765 0.984375 1 0 1.0
0 0.000001 -0.018242 0.000000 0.860840 0.293945 0.415283 0.108765 0.984375 1 0 1.0
0 0.274956 -0.037124 -0.556718 0.860840 0.293945 0.415283 0.108765 0.984375 1 0 1.0
Default
0 0.000001 -0.836781 -2.936467 -0.949707 -0.133179 -0.283936 0.111572 0.955566 1 0 1.0
0 -0.109909 -0.607330 -2.676518 -0.949707 -0.133179 -0.283936 0.111572 0.955566 1 0 1.0
0 0.000001 -0.574921 -3.059329 -0.949707 -0.133179 -0.283936 0.111572 0.955566 1 0 1.0
Default
0 0.109909 -0.605605 -2.677597 0.949707 -0.133301 -0.284180 0.111572 0.955566 1 0 1.0
0 0.000001 -0.836781 -2.936467 0.949707 -0.133301 -0.284180 0.111572 0.955566 1 0 1.0
0 0.000001 -0.574921 -3.059329 0.949707 -0.133301 -0.284180 0.111572 0.955566 1 0 1.0
Default
0 -0.137477 0.276108 -0.493495 -0.860840 0.293945 0.415283 0.108765 0.984375 1 0 1.0
0 -0.274954 -0.037124 -0.556718 -0.860840 0.293945 0.415283 0.108765 0.984375 1 0 1.0
0 0.000001 -0.018242 0.000000 -0.860840 0.293945 0.415283 0.108765 0.984375 1 0 1.0
Default
0 0.137479 0.276108 -0.493495 0.860840 0.293945 0.415283 0.110718 0.732422 1 0 1.0
0 0.000001 0.589339 -0.430272 0.860840 0.293945 0.415283 0.110718 0.732422 1 0 1.0
0 0.000001 -0.018242 0.000000 0.860840 0.293945 0.415283 0.110718 0.732422 1 0 1.0
Default
0 0.339157 -0.039140 -0.965645 0.958008 0.287109 0.013252 0.108765 0.984375 1 0 1.0
0 0.360908 -0.052599 -2.316696 0.958008 0.287109 0.013252 0.108765 0.984375 1 0 1.0
0 0.180455 0.553202 -2.334102 0.957520 0.287354 0.014267 0.108765 0.984375 1 0 1.0
Default
0 0.169579 0.536585 -1.259186 0.957520 0.287354 0.014267 0.108765 0.984375 1 0 1.0
0 0.339157 -0.039140 -0.965645 0.958008 0.287109 0.013252 0.108765 0.984375 1 0 1.0
0 0.180455 0.553202 -2.334102 0.957520 0.287354 0.014267 0.108765 0.984375 1 0 1.0
Default
0 -0.066051 0.051947 -4.488958 -0.887207 0.083862 -0.453125 0.108765 0.984375 1 0 1.0
0 0.000001 0.173881 -4.595716 -0.887207 0.083862 -0.453125 0.108765 0.984375 1 0 1.0
0 0.000001 -0.296768 -4.682825 -0.887207 0.083862 -0.453125 0.108765 0.984375 1 0 1.0
Default
0 -0.132103 -0.069987 -4.382199 -0.887207 0.083862 -0.453125 0.108765 0.984375 1 0 1.0
0 -0.066051 0.051947 -4.488958 -0.887207 0.083862 -0.453125 0.108765 0.984375 1 0 1.0
0 0.000001 -0.296768 -4.682825 -0.887207 0.083862 -0.453125 0.108765 0.984375 1 0 1.0
Default
0 -0.117311 -0.566929 -1.268800 -0.914062 -0.405518 0.006897 0.110596 0.955566 1 0 1.0
0 -0.109909 -0.607330 -2.676518 -0.914062 -0.405518 0.006897 0.111572 0.955566 1 0 1.0
0 0.000001 -0.836781 -2.936467 -0.914551 -0.404297 0.001104 0.111572 0.955566 1 0 1.0
Default
0 0.000001 -0.852492 -1.432823 -0.914551 -0.404297 0.001104 0.111572 0.955566 1 0 1.0
0 -0.117311 -0.566929 -1.268800 -0.914062 -0.405518 0.006897 0.110596 0.955566 1 0 1.0
0 0.000001 -0.836781 -2.936467 -0.914551 -0.404297 0.001104 0.111572 0.955566 1 0 1.0
Default
0 0.274956 -0.037124 -0.556718 0.920898 0.358154 0.154297 0.108765 0.984375 1 0 1.0
0 0.339157 -0.039140 -0.965645 0.920898 0.358154 0.154297 0.108765 0.984375 1 0 1.0
0 0.169579 0.536585 -1.259186 0.919434 0.358887 0.159668 0.108765 0.984375 1 0 1.0
Default
0 0.137479 0.276108 -0.493495 0.919434 0.358887 0.159668 0.108765 0.984375 1 0 1.0
0 0.274956 -0.037124 -0.556718 0.920898 0.358154 0.154297 0.108765 0.984375 1 0 1.0
0 0.169579 0.536585 -1.259186 0.919434 0.358887 0.159668 0.108765 0.984375 1 0 1.0
Default
0 0.000001 -0.439241 -0.427763 -0.859375 -0.477051 0.182983 0.109985 0.955566 1 0 1.0
0 -0.117311 -0.566929 -1.268800 -0.859375 -0.477051 0.182983 0.110596 0.955566 1 0 1.0
0 0.000001 -0.852492 -1.432823 -0.864258 -0.464844 0.191162 0.109985 0.955566 1 0 1.0
Default
0 0.000001 -0.439241 -0.427763 -0.859375 -0.477051 0.182983 0.109985 0.955566 1 0 1.0
0 -0.274954 -0.037124 -0.556718 -0.854492 -0.489258 0.174805 0.109985 0.955566 1 0 1.0
0 -0.117311 -0.566929 -1.268800 -0.859375 -0.477051 0.182983 0.110596 0.955566 1 0 1.0
Default
0 -0.274954 -0.037124 -0.556718 -0.854492 -0.489258 0.174805 0.109985 0.955566 1 0 1.0
0 -0.339155 -0.039140 -0.965645 -0.854492 -0.489258 0.174805 0.109985 0.955566 1 0 1.0
0 -0.117311 -0.566929 -1.268800 -0.859375 -0.477051 0.182983 0.110596 0.955566 1 0 1.0
Default
0 -0.151511 -0.066058 -3.626027 -0.925781 -0.375244 -0.050781 0.109985 0.952637 1 0 1.0
0 -0.132103 -0.069987 -4.382199 -0.925781 -0.375244 -0.050781 0.109985 0.952637 1 0 1.0
0 0.000001 -0.296768 -4.682825 -0.925781 -0.375244 -0.050781 0.109985 0.952637 1 0 1.0
Default
0 0.000001 -0.574921 -3.059329 -0.925781 -0.375244 -0.050781 0.109985 0.952637 1 0 1.0
0 -0.151511 -0.066058 -3.626027 -0.925781 -0.375244 -0.050781 0.109985 0.952637 1 0 1.0
0 0.000001 -0.296768 -4.682825 -0.925781 -0.375244 -0.050781 0.109985 0.952637 1 0 1.0
Default
0 0.151513 -0.066058 -3.626027 0.939941 0.338623 -0.046753 0.108765 0.984375 1 0 1.0
0 0.132105 -0.069987 -4.382199 0.939941 0.338623 -0.046753 0.108765 0.984375 1 0 1.0
0 0.066053 0.051947 -4.488958 0.940918 0.333252 -0.063416 0.108765 0.984375 1 0 1.0
Default
0 0.075757 0.187384 -3.650067 0.940918 0.333252 -0.063416 0.108765 0.984375 1 0 1.0
0 0.151513 -0.066058 -3.626027 0.939941 0.338623 -0.046753 0.108765 0.984375 1 0 1.0
0 0.066053 0.051947 -4.488958 0.940918 0.333252 -0.063416 0.108765 0.984375 1 0 1.0
Default
0 0.000001 0.440827 -3.674108 -0.941406 0.327637 -0.080078 0.110718 0.732422 1 0 1.0
0 0.000001 0.173881 -4.595716 -0.941406 0.327637 -0.080078 0.110718 0.732422 1 0 1.0
0 -0.066051 0.051947 -4.488958 -0.940918 0.333252 -0.063416 0.110718 0.732422 1 0 1.0
Default
0 -0.075755 0.187384 -3.650067 -0.940918 0.333252 -0.063416 0.110718 0.732422 1 0 1.0
0 0.000001 0.440827 -3.674108 -0.941406 0.327637 -0.080078 0.110718 0.732422 1 0 1.0
0 -0.066051 0.051947 -4.488958 -0.940918 0.333252 -0.063416 0.110718 0.732422 1 0 1.0
Default
0 0.000001 -0.574921 -3.059329 0.925781 -0.375244 -0.050781 0.111572 0.955566 1 0 1.0
0 0.000001 -0.296768 -4.682825 0.925781 -0.375244 -0.050781 0.111572 0.955566 1 0 1.0
0 0.132105 -0.069987 -4.382199 0.925781 -0.375244 -0.050781 0.111572 0.955566 1 0 1.0
Default
0 0.151513 -0.066058 -3.626027 0.925781 -0.375244 -0.050781 0.111572 0.955566 1 0 1.0
0 0.000001 -0.574921 -3.059329 0.925781 -0.375244 -0.050781 0.111572 0.955566 1 0 1.0
0 0.132105 -0.069987 -4.382199 0.925781 -0.375244 -0.050781 0.111572 0.955566 1 0 1.0
Default
0 0.274956 -0.037124 -0.556718 0.854492 -0.488525 0.175537 0.109985 0.955566 1 0 1.0
0 0.000001 -0.439241 -0.427763 0.858887 -0.478271 0.184082 0.109985 0.955566 1 0 1.0
0 0.339157 -0.039140 -0.965645 0.854492 -0.488525 0.175537 0.109985 0.955566 1 0 1.0
Default
0 0.000001 -0.439241 -0.427763 0.858887 -0.478271 0.184082 0.109985 0.955566 1 0 1.0
0 0.117311 -0.569338 -1.269956 0.858887 -0.478271 0.184082 0.110657 0.955566 1 0 1.0
0 0.339157 -0.039140 -0.965645 0.854492 -0.488525 0.175537 0.109985 0.955566 1 0 1.0
Default
0 0.000001 -0.439241 -0.427763 0.858887 -0.478271 0.184082 0.109985 0.955566 1 0 1.0
0 0.000001 -0.852492 -1.432823 0.862305 -0.468018 0.192383 0.109985 0.955566 1 0 1.0
0 0.117311 -0.569338 -1.269956 0.858887 -0.478271 0.184082 0.110657 0.955566 1 0 1.0
Default
0 0.000001 0.589339 -0.430272 -0.918457 0.359863 0.164917 0.110718 0.732422 1 0 1.0
0 0.000001 1.112311 -1.552726 -0.918457 0.359863 0.164917 0.110718 0.732422 1 0 1.0
0 -0.169577 0.536585 -1.259186 -0.919434 0.358887 0.159668 0.110718 0.732422 1 0 1.0
Default
0 -0.137477 0.276108 -0.493495 -0.919434 0.358887 0.159668 0.110718 0.732422 1 0 1.0
0 0.000001 0.589339 -0.430272 -0.918457 0.359863 0.164917 0.110718 0.732422 1 0 1.0
0 -0.169577 0.536585 -1.259186 -0.919434 0.358887 0.159668 0.110718 0.732422 1 0 1.0
Default
0 0.117311 -0.569338 -1.269956 0.914062 -0.405273 0.006302 0.110657 0.955566 1 0 1.0
0 0.109909 -0.605605 -2.677597 0.914062 -0.405273 0.006302 0.111572 0.955566 1 0 1.0
0 0.360908 -0.052599 -2.316696 0.913574 -0.406250 0.012077 0.111572 0.955566 1 0 1.0
Default
0 0.339157 -0.039140 -0.965645 0.913574 -0.406250 0.012077 0.111572 0.955566 1 0 1.0
0 0.117311 -0.569338 -1.269956 0.914062 -0.405273 0.006302 0.110657 0.955566 1 0 1.0
0 0.360908 -0.052599 -2.316696 0.913574 -0.406250 0.012077 0.111572 0.955566 1 0 1.0
Default
0 0.000001 0.173881 -4.595716 0.887207 0.083862 -0.453125 0.108765 0.984375 1 0 1.0
0 0.066053 0.051947 -4.488958 0.887207 0.083862 -0.453125 0.108765 0.984375 1 0 1.0
0 0.132105 -0.069987 -4.382199 0.887207 0.083862 -0.453125 0.108765 0.984375 1 0 1.0
Default
0 0.000001 -0.296768 -4.682825 0.887207 0.083862 -0.453125 0.108765 0.984375 1 0 1.0
0 0.000001 0.173881 -4.595716 0.887207 0.083862 -0.453125 0.108765 0.984375 1 0 1.0
0 0.132105 -0.069987 -4.382199 0.887207 0.083862 -0.453125 0.108765 0.984375 1 0 1.0
Default
0 0.000001 1.112311 -1.552726 -0.957520 0.287598 0.015282 0.110718 0.732422 1 0 1.0
0 0.000001 1.159003 -2.351507 -0.957520 0.287598 0.015282 0.110718 0.732422 1 0 1.0
0 -0.180452 0.553202 -2.334102 -0.957520 0.287354 0.014267 0.110718 0.732422 1 0 1.0
Default
0 -0.169577 0.536585 -1.259186 -0.957520 0.287354 0.014267 0.110718 0.732422 1 0 1.0
0 0.000001 1.112311 -1.552726 -0.957520 0.287598 0.015282 0.110718 0.732422 1 0 1.0
0 -0.180452 0.553202 -2.334102 -0.957520 0.287354 0.014267 0.110718 0.732422 1 0 1.0
Default
0 -0.048499 -0.228217 -4.670208 -0.654785 -0.578125 -0.486816 0.984375 0.763672 1 0 1.0
0 -0.048499 -0.009601 -4.929929 -0.654785 -0.578125 -0.486816 0.984375 0.763672 1 0 1.0
0 -0.000002 0.005113 -5.012631 -0.654785 -0.578125 -0.486816 0.984375 0.763672 1 0 1.0
Default
0 -0.000002 -0.307196 -4.641601 -0.654785 -0.578125 -0.486816 0.984375 0.763672 1 0 1.0
0 -0.048499 -0.228217 -4.670208 -0.654785 -0.578125 -0.486816 0.984375 0.763672 1 0 1.0
0 -0.000002 0.005113 -5.012631 -0.654785 -0.578125 -0.486816 0.984375 0.763672 1 0 1.0
Default
0 0.048495 -0.228217 -4.670208 -0.000000 0.765137 0.644043 0.984375 0.763672 1 0 1.0
0 0.048495 -0.009601 -4.929929 -0.000000 0.765137 0.644043 0.984375 0.763672 1 0 1.0
0 -0.048499 -0.009601 -4.929929 -0.000000 0.765137 0.644043 0.984375 0.763672 1 0 1.0
Default
0 -0.048499 -0.228217 -4.670208 -0.000000 0.765137 0.644043 0.984375 0.763672 1 0 1.0
0 0.048495 -0.228217 -4.670208 -0.000000 0.765137 0.644043 0.984375 0.763672 1 0 1.0
0 -0.048499 -0.009601 -4.929929 -0.000000 0.765137 0.644043 0.984375 0.763672 1 0 1.0
Default
0 -0.000002 -0.307196 -4.641601 0.654785 -0.578125 -0.486816 0.984375 0.763672 1 0 1.0
0 -0.000002 0.005113 -5.012631 0.654785 -0.578125 -0.486816 0.984375 0.763672 1 0 1.0
0 0.048495 -0.009601 -4.929929 0.654785 -0.578125 -0.486816 0.984375 0.763672 1 0 1.0
Default
0 0.048495 -0.228217 -4.670208 0.654785 -0.578125 -0.486816 0.984375 0.763672 1 0 1.0
0 -0.000002 -0.307196 -4.641601 0.654785 -0.578125 -0.486816 0.984375 0.763672 1 0 1.0
0 0.048495 -0.009601 -4.929929 0.654785 -0.578125 -0.486816 0.984375 0.763672 1 0 1.0
Default
0 -0.048499 0.106016 -4.610742 -0.654785 -0.132446 0.744141 0.984375 0.763672 1 0 1.0
0 -0.048499 -0.228217 -4.670208 -0.654785 -0.132446 0.744141 0.984375 0.763672 1 0 1.0
0 -0.000002 -0.307196 -4.641601 -0.654785 -0.132446 0.744141 0.984375 0.763672 1 0 1.0
Default
0 -0.000002 0.170280 -4.556648 -0.654785 -0.132446 0.744141 0.984375 0.763672 1 0 1.0
0 -0.048499 0.106016 -4.610742 -0.654785 -0.132446 0.744141 0.984375 0.763672 1 0 1.0
0 -0.000002 -0.307196 -4.641601 -0.654785 -0.132446 0.744141 0.984375 0.763672 1 0 1.0
Default
0 0.048495 0.106016 -4.610742 -0.000000 0.175171 -0.984375 0.984375 0.763672 1 0 1.0
0 0.048495 -0.228217 -4.670208 -0.000000 0.175171 -0.984375 0.984375 0.763672 1 0 1.0
0 -0.048499 -0.228217 -4.670208 -0.000000 0.175171 -0.984375 0.984375 0.763672 1 0 1.0
Default
0 -0.048499 0.106016 -4.610742 -0.000000 0.175171 -0.984375 0.984375 0.763672 1 0 1.0
0 0.048495 0.106016 -4.610742 -0.000000 0.175171 -0.984375 0.984375 0.763672 1 0 1.0
0 -0.048499 -0.228217 -4.670208 -0.000000 0.175171 -0.984375 0.984375 0.763672 1 0 1.0
Default
0 -0.000002 0.170280 -4.556648 0.654785 -0.132446 0.744141 0.984375 0.763672 1 0 1.0
0 -0.000002 -0.307196 -4.641601 0.654785 -0.132446 0.744141 0.984375 0.763672 1 0 1.0
0 0.048495 -0.228217 -4.670208 0.654785 -0.132446 0.744141 0.984375 0.763672 1 0 1.0
Default
0 0.048495 0.106016 -4.610742 0.654785 -0.132446 0.744141 0.984375 0.763672 1 0 1.0
0 -0.000002 0.170280 -4.556648 0.654785 -0.132446 0.744141 0.984375 0.763672 1 0 1.0
0 0.048495 -0.228217 -4.670208 0.654785 -0.132446 0.744141 0.984375 0.763672 1 0 1.0
Default
0 -0.048499 -0.009601 -4.929929 -0.654785 0.710938 -0.257324 0.984375 0.763672 1 0 1.0
0 -0.048499 0.106016 -4.610742 -0.654785 0.710938 -0.257324 0.984375 0.763672 1 0 1.0
0 -0.000002 0.170280 -4.556648 -0.654785 0.710938 -0.257324 0.984375 0.763672 1 0 1.0
Default
0 -0.000002 0.005113 -5.012631 -0.654785 0.710938 -0.257324 0.984375 0.763672 1 0 1.0
0 -0.048499 -0.009601 -4.929929 -0.654785 0.710938 -0.257324 0.984375 0.763672 1 0 1.0
0 -0.000002 0.170280 -4.556648 -0.654785 0.710938 -0.257324 0.984375 0.763672 1 0 1.0
Default
0 0.048495 -0.009601 -4.929929 -0.000000 -0.940430 0.340576 0.984375 0.763672 1 0 1.0
0 0.048495 0.106016 -4.610742 -0.000000 -0.940430 0.340576 0.984375 0.763672 1 0 1.0
0 -0.048499 0.106016 -4.610742 -0.000000 -0.940430 0.340576 0.984375 0.763672 1 0 1.0
Default
0 -0.048499 -0.009601 -4.929929 -0.000000 -0.940430 0.340576 0.984375 0.763672 1 0 1.0
0 0.048495 -0.009601 -4.929929 -0.000000 -0.940430 0.340576 0.984375 0.763672 1 0 1.0
0 -0.048499 0.106016 -4.610742 -0.000000 -0.940430 0.340576 0.984375 0.763672 1 0 1.0
Default
0 -0.000002 0.005113 -5.012631 0.654785 0.710938 -0.257324 0.984375 0.763672 1 0 1.0
0 -0.000002 0.170280 -4.556648 0.654785 0.710938 -0.257324 0.984375 0.763672 1 0 1.0
0 0.048495 0.106016 -4.610742 0.654785 0.710938 -0.257324 0.984375 0.763672 1 0 1.0
Default
0 0.048495 -0.009601 -4.929929 0.654785 0.710938 -0.257324 0.984375 0.763672 1 0 1.0
0 -0.000002 0.005113 -5.012631 0.654785 0.710938 -0.257324 0.984375 0.763672 1 0 1.0
0 0.048495 0.106016 -4.610742 0.654785 0.710938 -0.257324 0.984375 0.763672 1 0 1.0
Default
0 -0.169743 0.019297 -4.862344 -0.654785 0.654785 -0.377930 0.984375 0.763672 1 0 1.0
0 -0.000002 0.019297 -5.156344 -0.654785 0.654785 -0.377930 0.984375 0.763672 1 0 1.0
0 -0.000002 -0.029201 -5.240344 -0.654785 0.654785 -0.377930 0.984375 0.763672 1 0 1.0
Default
0 -0.242489 -0.029201 -4.820344 -0.654785 0.654785 -0.377930 0.984375 0.763672 1 0 1.0
0 -0.169743 0.019297 -4.862344 -0.654785 0.654785 -0.377930 0.984375 0.763672 1 0 1.0
0 -0.000002 -0.029201 -5.240344 -0.654785 0.654785 -0.377930 0.984375 0.763672 1 0 1.0
Default
0 -0.169743 -0.077698 -4.862344 0.866211 0.000000 0.500000 0.984375 0.763672 1 0 1.0
0 -0.000002 -0.077698 -5.156344 0.866211 0.000000 0.500000 0.984375 0.763672 1 0 1.0
0 -0.000002 0.019297 -5.156344 0.866211 0.000000 0.500000 0.984375 0.763672 1 0 1.0
Default
0 -0.169743 0.019297 -4.862344 0.866211 0.000000 0.500000 0.984375 0.763672 1 0 1.0
0 -0.169743 -0.077698 -4.862344 0.866211 0.000000 0.500000 0.984375 0.763672 1 0 1.0
0 -0.000002 0.019297 -5.156344 0.866211 0.000000 0.500000 0.984375 0.763672 1 0 1.0
Default
0 -0.242489 -0.029201 -4.820344 -0.654785 -0.654785 -0.377930 0.984375 0.763672 1 0 1.0
0 -0.000002 -0.029201 -5.240344 -0.654785 -0.654785 -0.377930 0.984375 0.763672 1 0 1.0
0 -0.000002 -0.077698 -5.156344 -0.654785 -0.654785 -0.377930 0.984375 0.763672 1 0 1.0
Default
0 -0.169743 -0.077698 -4.862344 -0.654785 -0.654785 -0.377930 0.984375 0.763672 1 0 1.0
0 -0.242489 -0.029201 -4.820344 -0.654785 -0.654785 -0.377930 0.984375 0.763672 1 0 1.0
0 -0.000002 -0.077698 -5.156344 -0.654785 -0.654785 -0.377930 0.984375 0.763672 1 0 1.0
Default
0 0.169739 0.019297 -4.862344 -0.000000 0.654785 0.755859 0.984375 0.763672 1 0 1.0
0 -0.169743 0.019297 -4.862344 -0.000000 0.654785 0.755859 0.984375 0.763672 1 0 1.0
0 -0.242489 -0.029201 -4.820344 -0.000000 0.654785 0.755859 0.984375 0.763672 1 0 1.0
Default
0 0.242485 -0.029201 -4.820344 -0.000000 0.654785 0.755859 0.984375 0.763672 1 0 1.0
0 0.169739 0.019297 -4.862344 -0.000000 0.654785 0.755859 0.984375 0.763672 1 0 1.0
0 -0.242489 -0.029201 -4.820344 -0.000000 0.654785 0.755859 0.984375 0.763672 1 0 1.0
Default
0 0.169739 -0.077698 -4.862344 -0.000000 0.000000 -1.000000 0.984375 0.763672 1 0 1.0
0 -0.169743 -0.077698 -4.862344 -0.000000 0.000000 -1.000000 0.984375 0.763672 1 0 1.0
0 -0.169743 0.019297 -4.862344 -0.000000 0.000000 -1.000000 0.984375 0.763672 1 0 1.0
Default
0 0.169739 0.019297 -4.862344 -0.000000 0.000000 -1.000000 0.984375 0.763672 1 0 1.0
0 0.169739 -0.077698 -4.862344 -0.000000 0.000000 -1.000000 0.984375 0.763672 1 0 1.0
0 -0.169743 0.019297 -4.862344 -0.000000 0.000000 -1.000000 0.984375 0.763672 1 0 1.0
Default
0 0.242485 -0.029201 -4.820344 -0.000000 -0.654785 0.755859 0.984375 0.763672 1 0 1.0
0 -0.242489 -0.029201 -4.820344 -0.000000 -0.654785 0.755859 0.984375 0.763672 1 0 1.0
0 -0.169743 -0.077698 -4.862344 -0.000000 -0.654785 0.755859 0.984375 0.763672 1 0 1.0
Default
0 0.169739 -0.077698 -4.862344 -0.000000 -0.654785 0.755859 0.984375 0.763672 1 0 1.0
0 0.242485 -0.029201 -4.820344 -0.000000 -0.654785 0.755859 0.984375 0.763672 1 0 1.0
0 -0.169743 -0.077698 -4.862344 -0.000000 -0.654785 0.755859 0.984375 0.763672 1 0 1.0
Default
0 -0.000002 0.019297 -5.156344 0.654785 0.654785 -0.377930 0.984375 0.763672 1 0 1.0
0 0.169739 0.019297 -4.862344 0.654785 0.654785 -0.377930 0.984375 0.763672 1 0 1.0
0 0.242485 -0.029201 -4.820344 0.654785 0.654785 -0.377930 0.984375 0.763672 1 0 1.0
Default
0 -0.000002 -0.029201 -5.240344 0.654785 0.654785 -0.377930 0.984375 0.763672 1 0 1.0
0 -0.000002 0.019297 -5.156344 0.654785 0.654785 -0.377930 0.984375 0.763672 1 0 1.0
0 0.242485 -0.029201 -4.820344 0.654785 0.654785 -0.377930 0.984375 0.763672 1 0 1.0
Default
0 -0.000002 -0.077698 -5.156344 -0.866211 0.000000 0.500000 0.984375 0.763672 1 0 1.0
0 0.169739 -0.077698 -4.862344 -0.866211 0.000000 0.500000 0.984375 0.763672 1 0 1.0
0 0.169739 0.019297 -4.862344 -0.866211 0.000000 0.500000 0.984375 0.763672 1 0 1.0
Default
0 -0.000002 0.019297 -5.156344 -0.866211 0.000000 0.500000 0.984375 0.763672 1 0 1.0
0 -0.000002 -0.077698 -5.156344 -0.866211 0.000000 0.500000 0.984375 0.763672 1 0 1.0
0 0.169739 0.019297 -4.862344 -0.866211 0.000000 0.500000 0.984375 0.763672 1 0 1.0
Default
0 -0.000002 -0.029201 -5.240344 0.654785 -0.654785 -0.377930 0.984375 0.763672 1 0 1.0
0 0.242485 -0.029201 -4.820344 0.654785 -0.654785 -0.377930 0.984375 0.763672 1 0 1.0
0 0.169739 -0.077698 -4.862344 0.654785 -0.654785 -0.377930 0.984375 0.763672 1 0 1.0
Default
0 -0.000002 -0.077698 -5.156344 0.654785 -0.654785 -0.377930 0.984375 0.763672 1 0 1.0
0 -0.000002 -0.029201 -5.240344 0.654785 -0.654785 -0.377930 0.984375 0.763672 1 0 1.0
0 0.169739 -0.077698 -4.862344 0.654785 -0.654785 -0.377930 0.984375 0.763672 1 0 1.0
Default
0 0.000001 0.177823 -6.446428 0.765137 -0.457520 -0.453369 0.984375 0.763672 1 0 1.0
0 0.043649 0.203023 -6.398216 0.765137 -0.457520 -0.453369 0.984375 0.763672 1 0 1.0
0 0.043649 0.007124 -6.200487 0.766113 -0.450439 -0.458252 0.984375 0.763672 1 0 1.0
Default
0 0.000001 -0.018076 -6.248699 0.766113 -0.450439 -0.458252 0.984375 0.763672 1 0 1.0
0 0.000001 0.177823 -6.446428 0.765137 -0.457520 -0.453369 0.984375 0.763672 1 0 1.0
0 0.043649 0.007124 -6.200487 0.766113 -0.450439 -0.458252 0.984375 0.763672 1 0 1.0
Default
0 0.000001 -0.068476 -6.200487 0.767578 -0.443115 -0.463135 0.984375 0.763672 1 0 1.0
0 0.000001 -0.018076 -6.248699 0.766113 -0.450439 -0.458252 0.984375 0.763672 1 0 1.0
0 0.043649 0.007124 -6.200487 0.766113 -0.450439 -0.458252 0.984375 0.763672 1 0 1.0
Default
0 0.000001 -0.068476 -6.200487 0.767578 -0.443115 -0.463135 0.984375 0.763672 1 0 1.0
0 -0.169652 -0.166425 -6.398216 0.778809 -0.433594 -0.453369 0.984375 0.763672 1 0 1.0
0 0.000001 -0.018076 -6.248699 0.766113 -0.450439 -0.458252 0.984375 0.763672 1 0 1.0
Default
0 -0.169652 -0.166425 -6.398216 0.778809 -0.433594 -0.453369 0.984375 0.763672 1 0 1.0
0 -0.169652 -0.116025 -6.446428 0.778809 -0.433594 -0.453369 0.984375 0.763672 1 0 1.0
0 0.000001 -0.018076 -6.248699 0.766113 -0.450439 -0.458252 0.984375 0.763672 1 0 1.0
Default
0 0.000001 -0.068476 -6.200487 0.866211 -0.500000 0.000000 0.984375 0.763672 1 0 1.0
0 0.043649 0.007124 -6.200487 0.866211 -0.500000 0.000000 0.984375 0.763672 1 0 1.0
0 0.043649 0.007124 -5.083640 0.866211 -0.500000 0.000000 0.984375 0.763672 1 0 1.0
Default
0 0.000001 -0.068476 -5.083640 0.866211 -0.500000 0.000000 0.984375 0.763672 1 0 1.0
0 0.000001 -0.068476 -6.200487 0.866211 -0.500000 0.000000 0.984375 0.763672 1 0 1.0
0 0.043649 0.007124 -5.083640 0.866211 -0.500000 0.000000 0.984375 0.763672 1 0 1.0
Default
0 0.043649 0.007124 -6.200487 -0.000000 1.000000 0.000000 0.984375 0.763672 1 0 1.0
0 -0.043647 0.007124 -6.200487 -0.000000 1.000000 0.000000 0.984375 0.763672 1 0 1.0
0 -0.043647 0.007124 -5.083640 -0.000000 1.000000 0.000000 0.984375 0.763672 1 0 1.0
Default
0 0.043649 0.007124 -5.083640 -0.000000 1.000000 0.000000 0.984375 0.763672 1 0 1.0
0 0.043649 0.007124 -6.200487 -0.000000 1.000000 0.000000 0.984375 0.763672 1 0 1.0
0 -0.043647 0.007124 -5.083640 -0.000000 1.000000 0.000000 0.984375 0.763672 1 0 1.0
Default
0 -0.043647 0.007124 -6.200487 -0.866211 -0.500000 0.000000 0.984375 0.763672 1 0 1.0
0 0.000001 -0.068476 -6.200487 -0.866211 -0.500000 0.000000 0.984375 0.763672 1 0 1.0
0 0.000001 -0.068476 -5.083640 -0.866211 -0.500000 0.000000 0.984375 0.763672 1 0 1.0
Default
0 -0.043647 0.007124 -5.083640 -0.866211 -0.500000 0.000000 0.984375 0.763672 1 0 1.0
0 -0.043647 0.007124 -6.200487 -0.866211 -0.500000 0.000000 0.984375 0.763672 1 0 1.0
0 0.000001 -0.068476 -5.083640 -0.866211 -0.500000 0.000000 0.984375 0.763672 1 0 1.0
Default
0 0.000001 0.422526 -6.460220 0.764648 -0.029892 -0.644043 0.984375 0.763672 1 0 1.0
0 0.043649 0.420243 -6.405867 0.764648 -0.029892 -0.644043 0.984375 0.763672 1 0 1.0
0 0.043649 0.203023 -6.398216 0.764648 -0.029892 -0.644043 0.984375 0.763672 1 0 1.0
Default
0 0.000001 0.177823 -6.446428 0.764648 -0.029892 -0.644043 0.984375 0.763672 1 0 1.0
0 0.000001 0.422526 -6.460220 0.764648 -0.029892 -0.644043 0.984375 0.763672 1 0 1.0
0 0.043649 0.203023 -6.398216 0.764648 -0.029892 -0.644043 0.984375 0.763672 1 0 1.0
Default
0 -0.043647 0.203023 -6.398216 -0.765137 -0.457520 -0.453369 0.984375 0.763672 1 0 1.0
0 0.000001 0.177823 -6.446428 -0.765137 -0.457520 -0.453369 0.984375 0.763672 1 0 1.0
0 0.000001 -0.018076 -6.248699 -0.766113 -0.450439 -0.458252 0.984375 0.763672 1 0 1.0
Default
0 -0.043647 0.007124 -6.200487 -0.766113 -0.450439 -0.458252 0.984375 0.763672 1 0 1.0
0 -0.043647 0.203023 -6.398216 -0.765137 -0.457520 -0.453369 0.984375 0.763672 1 0 1.0
0 0.000001 -0.018076 -6.248699 -0.766113 -0.450439 -0.458252 0.984375 0.763672 1 0 1.0
Default
0 -0.043647 0.007124 -6.200487 -0.766113 -0.450439 -0.458252 0.984375 0.763672 1 0 1.0
0 0.000001 -0.018076 -6.248699 -0.766113 -0.450439 -0.458252 0.984375 0.763672 1 0 1.0
0 0.000001 -0.068476 -6.200487 -0.767578 -0.443115 -0.463135 0.984375 0.763672 1 0 1.0
Default
0 0.000001 -0.018076 -6.248699 -0.766113 -0.450439 -0.458252 0.984375 0.763672 1 0 1.0
0 0.169654 -0.116025 -6.446428 -0.778809 -0.433594 -0.453369 0.984375 0.763672 1 0 1.0
0 0.000001 -0.068476 -6.200487 -0.767578 -0.443115 -0.463135 0.984375 0.763672 1 0 1.0
Default
0 0.169654 -0.116025 -6.446428 -0.778809 -0.433594 -0.453369 0.984375 0.763672 1 0 1.0
0 0.169654 -0.166425 -6.398216 -0.778809 -0.433594 -0.453369 0.984375 0.763672 1 0 1.0
0 0.000001 -0.068476 -6.200487 -0.767578 -0.443115 -0.463135 0.984375 0.763672 1 0 1.0
Default
0 0.043649 0.203023 -6.398216 -0.000000 0.710449 0.703613 0.984375 0.763672 1 0 1.0
0 -0.043647 0.203023 -6.398216 -0.000000 0.710449 0.703613 0.984375 0.763672 1 0 1.0
0 -0.043647 0.007124 -6.200487 -0.000000 0.710449 0.703613 0.984375 0.763672 1 0 1.0
Default
0 0.043649 0.007124 -6.200487 -0.000000 0.710449 0.703613 0.984375 0.763672 1 0 1.0
0 0.043649 0.203023 -6.398216 -0.000000 0.710449 0.703613 0.984375 0.763672 1 0 1.0
0 -0.043647 0.007124 -6.200487 -0.000000 0.710449 0.703613 0.984375 0.763672 1 0 1.0
Default
0 0.000001 0.617163 -6.331106 0.724609 0.379150 -0.575684 0.984375 0.763672 1 0 1.0
0 0.043649 0.566938 -6.310204 0.724609 0.379150 -0.575684 0.984375 0.763672 1 0 1.0
0 0.043649 0.420243 -6.405867 0.724609 0.379150 -0.575684 0.984375 0.763672 1 0 1.0
Default
0 0.000001 0.422526 -6.460220 0.724609 0.379150 -0.575684 0.984375 0.763672 1 0 1.0
0 0.000001 0.617163 -6.331106 0.724609 0.379150 -0.575684 0.984375 0.763672 1 0 1.0
0 0.043649 0.420243 -6.405867 0.724609 0.379150 -0.575684 0.984375 0.763672 1 0 1.0
Default
0 -0.043647 0.420243 -6.405867 -0.764648 -0.029892 -0.644043 0.984375 0.763672 1 0 1.0
0 0.000001 0.422526 -6.460220 -0.764648 -0.029892 -0.644043 0.984375 0.763672 1 0 1.0
0 0.000001 0.177823 -6.446428 -0.764648 -0.029892 -0.644043 0.984375 0.763672 1 0 1.0
Default
0 -0.043647 0.203023 -6.398216 -0.764648 -0.029892 -0.644043 0.984375 0.763672 1 0 1.0
0 -0.043647 0.420243 -6.405867 -0.764648 -0.029892 -0.644043 0.984375 0.763672 1 0 1.0
0 0.000001 0.177823 -6.446428 -0.764648 -0.029892 -0.644043 0.984375 0.763672 1 0 1.0
Default
0 0.043649 0.420243 -6.405867 -0.000000 0.035187 0.999512 0.984375 0.763672 1 0 1.0
0 -0.043647 0.420243 -6.405867 -0.000000 0.035187 0.999512 0.984375 0.763672 1 0 1.0
0 -0.043647 0.203023 -6.398216 -0.000000 0.035187 0.999512 0.984375 0.763672 1 0 1.0
Default
0 0.043649 0.203023 -6.398216 -0.000000 0.035187 0.999512 0.984375 0.763672 1 0 1.0
0 0.043649 0.420243 -6.405867 -0.000000 0.035187 0.999512 0.984375 0.763672 1 0 1.0
0 -0.043647 0.203023 -6.398216 -0.000000 0.035187 0.999512 0.984375 0.763672 1 0 1.0
Default
0 -0.043647 0.566938 -6.310204 -0.724609 0.379150 -0.575684 0.984375 0.763672 1 0 1.0
0 0.000001 0.617163 -6.331106 -0.724609 0.379150 -0.575684 0.984375 0.763672 1 0 1.0
0 0.000001 0.422526 -6.460220 -0.724609 0.379150 -0.575684 0.984375 0.763672 1 0 1.0
Default
0 -0.043647 0.420243 -6.405867 -0.724609 0.379150 -0.575684 0.984375 0.763672 1 0 1.0
0 -0.043647 0.566938 -6.310204 -0.724609 0.379150 -0.575684 0.984375 0.763672 1 0 1.0
0 0.000001 0.422526 -6.460220 -0.724609 0.379150 -0.575684 0.984375 0.763672 1 0 1.0
Default
0 0.043649 0.566938 -6.310204 -0.000000 -0.546387 0.837402 0.984375 0.763672 1 0 1.0
0 -0.043647 0.566938 -6.310204 -0.000000 -0.546387 0.837402 0.984375 0.763672 1 0 1.0
0 -0.043647 0.420243 -6.405867 -0.000000 -0.546387 0.837402 0.984375 0.763672 1 0 1.0
Default
0 0.043649 0.420243 -6.405867 -0.000000 -0.546387 0.837402 0.984375 0.763672 1 0 1.0
0 0.043649 0.566938 -6.310204 -0.000000 -0.546387 0.837402 0.984375 0.763672 1 0 1.0
0 -0.043647 0.420243 -6.405867 -0.000000 -0.546387 0.837402 0.984375 0.763672 1 0 1.0
Default
0 0.043649 0.579869 -6.012237 -0.000000 -0.999023 0.043365 0.984375 0.763672 1 0 1.0
0 -0.043647 0.579869 -6.012237 -0.000000 -0.999023 0.043365 0.984375 0.763672 1 0 1.0
0 -0.043647 0.566938 -6.310204 -0.000000 -0.999023 0.043365 0.984375 0.763672 1 0 1.0
Default
0 0.043649 0.566938 -6.310204 -0.000000 -0.999023 0.043365 0.984375 0.763672 1 0 1.0
0 0.043649 0.579869 -6.012237 -0.000000 -0.999023 0.043365 0.984375 0.763672 1 0 1.0
0 -0.043647 0.566938 -6.310204 -0.000000 -0.999023 0.043365 0.984375 0.763672 1 0 1.0
Default
0 0.017460 0.597703 -5.851337 -0.000000 -0.946777 0.321777 0.984375 0.763672 1 0 1.0
0 -0.017458 0.597703 -5.851337 -0.000000 -0.946777 0.321777 0.984375 0.763672 1 0 1.0
0 -0.043647 0.495896 -6.151023 -0.000000 -0.946777 0.321777 0.984375 0.763672 1 0 1.0
Default
0 0.043649 0.495896 -6.151023 -0.000000 -0.946777 0.321777 0.984375 0.763672 1 0 1.0
0 0.017460 0.597703 -5.851337 -0.000000 -0.946777 0.321777 0.984375 0.763672 1 0 1.0
0 -0.043647 0.495896 -6.151023 -0.000000 -0.946777 0.321777 0.984375 0.763672 1 0 1.0
Default
0 0.043649 0.495896 -6.151023 -0.000000 0.855469 -0.517578 0.984375 0.763672 1 0 1.0
0 -0.043647 0.495896 -6.151023 -0.000000 0.855469 -0.517578 0.984375 0.763672 1 0 1.0
0 -0.043647 0.579869 -6.012237 -0.000000 0.855469 -0.517578 0.984375 0.763672 1 0 1.0
Default
0 0.043649 0.579869 -6.012237 -0.000000 0.855469 -0.517578 0.984375 0.763672 1 0 1.0
0 0.043649 0.495896 -6.151023 -0.000000 0.855469 -0.517578 0.984375 0.763672 1 0 1.0
0 -0.043647 0.579869 -6.012237 -0.000000 0.855469 -0.517578 0.984375 0.763672 1 0 1.0
Default
0 -0.169652 -0.116025 -6.446428 0.013809 0.891113 -0.453369 0.984375 0.763672 1 0 1.0
0 -0.213300 -0.090825 -6.398216 0.013809 0.891113 -0.453369 0.984375 0.763672 1 0 1.0
0 -0.043647 0.007124 -6.200487 0.013809 0.891113 -0.453369 0.984375 0.763672 1 0 1.0
Default
0 0.000001 -0.018076 -6.248699 0.013809 0.891113 -0.453369 0.984375 0.763672 1 0 1.0
0 -0.169652 -0.116025 -6.446428 0.013809 0.891113 -0.453369 0.984375 0.763672 1 0 1.0
0 -0.043647 0.007124 -6.200487 0.013809 0.891113 -0.453369 0.984375 0.763672 1 0 1.0
Default
0 0.213302 -0.090825 -6.398216 -0.013809 0.891113 -0.453369 0.984375 0.763672 1 0 1.0
0 0.169654 -0.116025 -6.446428 -0.013809 0.891113 -0.453369 0.984375 0.763672 1 0 1.0
0 0.000001 -0.018076 -6.248699 0.013809 0.891113 -0.453369 0.984375 0.763672 1 0 1.0
Default
0 0.043649 0.007124 -6.200487 -0.013809 0.891113 -0.453369 0.984375 0.763672 1 0 1.0
0 0.213302 -0.090825 -6.398216 -0.013809 0.891113 -0.453369 0.984375 0.763672 1 0 1.0
0 0.000001 -0.018076 -6.248699 0.013809 0.891113 -0.453369 0.984375 0.763672 1 0 1.0
Default
0 -0.381571 -0.238376 -6.460220 -0.356445 0.676758 -0.644043 0.984375 0.763672 1 0 1.0
0 -0.401418 -0.199435 -6.405867 -0.356445 0.676758 -0.644043 0.984375 0.763672 1 0 1.0
0 -0.213300 -0.090825 -6.398216 -0.356445 0.676758 -0.644043 0.984375 0.763672 1 0 1.0
Default
0 -0.169652 -0.116025 -6.446428 -0.356445 0.676758 -0.644043 0.984375 0.763672 1 0 1.0
0 -0.381571 -0.238376 -6.460220 -0.356445 0.676758 -0.644043 0.984375 0.763672 1 0 1.0
0 -0.213300 -0.090825 -6.398216 -0.356445 0.676758 -0.644043 0.984375 0.763672 1 0 1.0
Default
0 -0.213300 -0.090825 -6.398216 -0.615234 -0.355225 0.703613 0.984375 0.763672 1 0 1.0
0 -0.169652 -0.166425 -6.398216 -0.615234 -0.355225 0.703613 0.984375 0.763672 1 0 1.0
0 0.000001 -0.068476 -6.200487 -0.615234 -0.355225 0.703613 0.984375 0.763672 1 0 1.0
Default
0 -0.043647 0.007124 -6.200487 -0.615234 -0.355225 0.703613 0.984375 0.763672 1 0 1.0
0 -0.213300 -0.090825 -6.398216 -0.615234 -0.355225 0.703613 0.984375 0.763672 1 0 1.0
0 0.000001 -0.068476 -6.200487 -0.615234 -0.355225 0.703613 0.984375 0.763672 1 0 1.0
Default
0 -0.550132 -0.335695 -6.331106 -0.690430 0.437744 -0.575684 0.984375 0.763672 1 0 1.0
0 -0.528460 -0.272783 -6.310204 -0.690430 0.437744 -0.575684 0.984375 0.763672 1 0 1.0
0 -0.401418 -0.199435 -6.405867 -0.690430 0.437744 -0.575684 0.984375 0.763672 1 0 1.0
Default
0 -0.381571 -0.238376 -6.460220 -0.690430 0.437744 -0.575684 0.984375 0.763672 1 0 1.0
0 -0.550132 -0.335695 -6.331106 -0.690430 0.437744 -0.575684 0.984375 0.763672 1 0 1.0
0 -0.401418 -0.199435 -6.405867 -0.690430 0.437744 -0.575684 0.984375 0.763672 1 0 1.0
Default
0 -0.357771 -0.275035 -6.405867 0.408203 -0.646973 -0.644043 0.984375 0.763672 1 0 1.0
0 -0.381571 -0.238376 -6.460220 0.408203 -0.646973 -0.644043 0.984375 0.763672 1 0 1.0
0 -0.169652 -0.116025 -6.446428 0.408203 -0.646973 -0.644043 0.984375 0.763672 1 0 1.0
Default
0 -0.169652 -0.166425 -6.398216 0.408203 -0.646973 -0.644043 0.984375 0.763672 1 0 1.0
0 -0.357771 -0.275035 -6.405867 0.408203 -0.646973 -0.644043 0.984375 0.763672 1 0 1.0
0 -0.169652 -0.116025 -6.446428 0.408203 -0.646973 -0.644043 0.984375 0.763672 1 0 1.0
Default
0 -0.401418 -0.199435 -6.405867 -0.030487 -0.017593 0.999512 0.984375 0.763672 1 0 1.0
0 -0.357771 -0.275035 -6.405867 -0.030487 -0.017593 0.999512 0.984375 0.763672 1 0 1.0
0 -0.169652 -0.166425 -6.398216 -0.030487 -0.017593 0.999512 0.984375 0.763672 1 0 1.0
Default
0 -0.213300 -0.090825 -6.398216 -0.030487 -0.017593 0.999512 0.984375 0.763672 1 0 1.0
0 -0.401418 -0.199435 -6.405867 -0.030487 -0.017593 0.999512 0.984375 0.763672 1 0 1.0
0 -0.169652 -0.166425 -6.398216 -0.030487 -0.017593 0.999512 0.984375 0.763672 1 0 1.0
Default
0 -0.550132 -0.335695 -6.331106 -0.938965 0.343994 -0.001924 0.984375 0.763672 1 0 1.0
0 -0.552107 -0.336835 -5.850424 -0.932129 0.362061 -0.002972 0.984375 0.763672 1 0 1.0
0 -0.542008 -0.310845 -5.851337 -0.938965 0.343994 -0.001924 0.984375 0.763672 1 0 1.0
Default
0 -0.542008 -0.310845 -5.851337 -0.938965 0.343994 -0.001924 0.984375 0.763672 1 0 1.0
0 -0.528460 -0.272783 -6.310204 -0.945312 0.325928 -0.000876 0.984375 0.763672 1 0 1.0
0 -0.550132 -0.335695 -6.331106 -0.938965 0.343994 -0.001924 0.984375 0.763672 1 0 1.0
Default
0 -0.484812 -0.348383 -6.310204 0.033844 -0.816895 -0.575684 0.984375 0.763672 1 0 1.0
0 -0.550132 -0.335695 -6.331106 0.033844 -0.816895 -0.575684 0.984375 0.763672 1 0 1.0
0 -0.381571 -0.238376 -6.460220 0.033844 -0.816895 -0.575684 0.984375 0.763672 1 0 1.0
Default
0 -0.357771 -0.275035 -6.405867 0.033844 -0.816895 -0.575684 0.984375 0.763672 1 0 1.0
0 -0.484812 -0.348383 -6.310204 0.033844 -0.816895 -0.575684 0.984375 0.763672 1 0 1.0
0 -0.381571 -0.238376 -6.460220 0.033844 -0.816895 -0.575684 0.984375 0.763672 1 0 1.0
Default
0 -0.528460 -0.272783 -6.310204 0.473145 0.273193 0.837402 0.984375 0.763672 1 0 1.0
0 -0.484812 -0.348383 -6.310204 0.473145 0.273193 0.837402 0.984375 0.763672 1 0 1.0
0 -0.357771 -0.275035 -6.405867 0.473145 0.273193 0.837402 0.984375 0.763672 1 0 1.0
Default
0 -0.401418 -0.199435 -6.405867 0.473145 0.273193 0.837402 0.984375 0.763672 1 0 1.0
0 -0.528460 -0.272783 -6.310204 0.473145 0.273193 0.837402 0.984375 0.763672 1 0 1.0
0 -0.357771 -0.275035 -6.405867 0.473145 0.273193 0.837402 0.984375 0.763672 1 0 1.0
Default
0 -0.539658 -0.279248 -6.012237 0.865234 0.499512 0.043365 0.984375 0.763672 1 0 1.0
0 -0.496011 -0.354848 -6.012237 0.865234 0.499512 0.043365 0.984375 0.763672 1 0 1.0
0 -0.484812 -0.348383 -6.310204 0.865234 0.499512 0.043365 0.984375 0.763672 1 0 1.0
Default
0 -0.528460 -0.272783 -6.310204 0.865234 0.499512 0.043365 0.984375 0.763672 1 0 1.0
0 -0.539658 -0.279248 -6.012237 0.865234 0.499512 0.043365 0.984375 0.763672 1 0 1.0
0 -0.484812 -0.348383 -6.310204 0.865234 0.499512 0.043365 0.984375 0.763672 1 0 1.0
Default
0 -0.542008 -0.310845 -5.851337 0.819824 0.473389 0.321777 0.984375 0.763672 1 0 1.0
0 -0.524549 -0.341085 -5.851337 0.819824 0.473389 0.321777 0.984375 0.763672 1 0 1.0
0 -0.423287 -0.312861 -6.151023 0.819824 0.473389 0.321777 0.984375 0.763672 1 0 1.0
Default
0 -0.466935 -0.237261 -6.151023 0.819824 0.473389 0.321777 0.984375 0.763672 1 0 1.0
0 -0.542008 -0.310845 -5.851337 0.819824 0.473389 0.321777 0.984375 0.763672 1 0 1.0
0 -0.423287 -0.312861 -6.151023 0.819824 0.473389 0.321777 0.984375 0.763672 1 0 1.0
Default
0 -0.466935 -0.237261 -6.151023 -0.740723 -0.427734 -0.517578 0.984375 0.763672 1 0 1.0
0 -0.423287 -0.312861 -6.151023 -0.740723 -0.427734 -0.517578 0.984375 0.763672 1 0 1.0
0 -0.496011 -0.354848 -6.012237 -0.740723 -0.427734 -0.517578 0.984375 0.763672 1 0 1.0
Default
0 -0.539658 -0.279248 -6.012237 -0.740723 -0.427734 -0.517578 0.984375 0.763672 1 0 1.0
0 -0.466935 -0.237261 -6.151023 -0.740723 -0.427734 -0.517578 0.984375 0.763672 1 0 1.0
0 -0.496011 -0.354848 -6.012237 -0.740723 -0.427734 -0.517578 0.984375 0.763672 1 0 1.0
Default
0 0.381573 -0.238376 -6.460220 -0.408203 -0.646973 -0.644043 0.984375 0.763672 1 0 1.0
0 0.357773 -0.275035 -6.405867 -0.408203 -0.646973 -0.644043 0.984375 0.763672 1 0 1.0
0 0.169654 -0.166425 -6.398216 -0.408203 -0.646973 -0.644043 0.984375 0.763672 1 0 1.0
Default
0 0.169654 -0.116025 -6.446428 -0.408203 -0.646973 -0.644043 0.984375 0.763672 1 0 1.0
0 0.381573 -0.238376 -6.460220 -0.408203 -0.646973 -0.644043 0.984375 0.763672 1 0 1.0
0 0.169654 -0.166425 -6.398216 -0.408203 -0.646973 -0.644043 0.984375 0.763672 1 0 1.0
Default
0 0.169654 -0.166425 -6.398216 0.615234 -0.355225 0.703613 0.984375 0.763672 1 0 1.0
0 0.213302 -0.090825 -6.398216 0.615234 -0.355225 0.703613 0.984375 0.763672 1 0 1.0
0 0.043649 0.007124 -6.200487 0.615234 -0.355225 0.703613 0.984375 0.763672 1 0 1.0
Default
0 0.000001 -0.068476 -6.200487 0.615234 -0.355225 0.703613 0.984375 0.763672 1 0 1.0
0 0.169654 -0.166425 -6.398216 0.615234 -0.355225 0.703613 0.984375 0.763672 1 0 1.0
0 0.043649 0.007124 -6.200487 0.615234 -0.355225 0.703613 0.984375 0.763672 1 0 1.0
Default
0 0.550134 -0.335695 -6.331106 -0.033844 -0.816895 -0.575684 0.984375 0.763672 1 0 1.0
0 0.484814 -0.348383 -6.310204 -0.033844 -0.816895 -0.575684 0.984375 0.763672 1 0 1.0
0 0.357773 -0.275035 -6.405867 -0.033844 -0.816895 -0.575684 0.984375 0.763672 1 0 1.0
Default
0 0.381573 -0.238376 -6.460220 -0.033844 -0.816895 -0.575684 0.984375 0.763672 1 0 1.0
0 0.550134 -0.335695 -6.331106 -0.033844 -0.816895 -0.575684 0.984375 0.763672 1 0 1.0
0 0.357773 -0.275035 -6.405867 -0.033844 -0.816895 -0.575684 0.984375 0.763672 1 0 1.0
Default
0 0.401420 -0.199435 -6.405867 0.356445 0.676758 -0.644043 0.984375 0.763672 1 0 1.0
0 0.381573 -0.238376 -6.460220 0.356445 0.676758 -0.644043 0.984375 0.763672 1 0 1.0
0 0.169654 -0.116025 -6.446428 0.356445 0.676758 -0.644043 0.984375 0.763672 1 0 1.0
Default
0 0.213302 -0.090825 -6.398216 0.356445 0.676758 -0.644043 0.984375 0.763672 1 0 1.0
0 0.401420 -0.199435 -6.405867 0.356445 0.676758 -0.644043 0.984375 0.763672 1 0 1.0
0 0.169654 -0.116025 -6.446428 0.356445 0.676758 -0.644043 0.984375 0.763672 1 0 1.0
Default
0 0.357773 -0.275035 -6.405867 0.030487 -0.017593 0.999512 0.984375 0.763672 1 0 1.0
0 0.401420 -0.199435 -6.405867 0.030487 -0.017593 0.999512 0.984375 0.763672 1 0 1.0
0 0.213302 -0.090825 -6.398216 0.030487 -0.017593 0.999512 0.984375 0.763672 1 0 1.0
Default
0 0.169654 -0.166425 -6.398216 0.030487 -0.017593 0.999512 0.984375 0.763672 1 0 1.0
0 0.357773 -0.275035 -6.405867 0.030487 -0.017593 0.999512 0.984375 0.763672 1 0 1.0
0 0.213302 -0.090825 -6.398216 0.030487 -0.017593 0.999512 0.984375 0.763672 1 0 1.0
Default
0 0.528462 -0.272783 -6.310204 0.690430 0.437744 -0.575684 0.984375 0.763672 1 0 1.0
0 0.550134 -0.335695 -6.331106 0.690430 0.437744 -0.575684 0.984375 0.763672 1 0 1.0
0 0.381573 -0.238376 -6.460220 0.690430 0.437744 -0.575684 0.984375 0.763672 1 0 1.0
Default
0 0.401420 -0.199435 -6.405867 0.690430 0.437744 -0.575684 0.984375 0.763672 1 0 1.0
0 0.528462 -0.272783 -6.310204 0.690430 0.437744 -0.575684 0.984375 0.763672 1 0 1.0
0 0.381573 -0.238376 -6.460220 0.690430 0.437744 -0.575684 0.984375 0.763672 1 0 1.0
Default
0 0.484814 -0.348383 -6.310204 -0.473145 0.273193 0.837402 0.984375 0.763672 1 0 1.0
0 0.528462 -0.272783 -6.310204 -0.473145 0.273193 0.837402 0.984375 0.763672 1 0 1.0
0 0.401420 -0.199435 -6.405867 -0.473145 0.273193 0.837402 0.984375 0.763672 1 0 1.0
Default
0 0.357773 -0.275035 -6.405867 -0.473145 0.273193 0.837402 0.984375 0.763672 1 0 1.0
0 0.484814 -0.348383 -6.310204 -0.473145 0.273193 0.837402 0.984375 0.763672 1 0 1.0
0 0.401420 -0.199435 -6.405867 -0.473145 0.273193 0.837402 0.984375 0.763672 1 0 1.0
Default
0 0.542010 -0.310845 -5.851337 0.938965 0.343994 -0.001924 0.984375 0.763672 1 0 1.0
0 0.552109 -0.336835 -5.850424 0.932129 0.362061 -0.002972 0.984375 0.763672 1 0 1.0
0 0.550134 -0.335695 -6.331106 0.938965 0.343994 -0.001924 0.984375 0.763672 1 0 1.0
Default
0 0.550134 -0.335695 -6.331106 0.938965 0.343994 -0.001924 0.984375 0.763672 1 0 1.0
0 0.528462 -0.272783 -6.310204 0.945312 0.325928 -0.000875 0.984375 0.763672 1 0 1.0
0 0.542010 -0.310845 -5.851337 0.938965 0.343994 -0.001924 0.984375 0.763672 1 0 1.0
Default
0 0.496013 -0.354848 -6.012237 -0.865234 0.499512 0.043365 0.984375 0.763672 1 0 1.0
0 0.539660 -0.279248 -6.012237 -0.865234 0.499512 0.043365 0.984375 0.763672 1 0 1.0
0 0.528462 -0.272783 -6.310204 -0.865234 0.499512 0.043365 0.984375 0.763672 1 0 1.0
Default
0 0.484814 -0.348383 -6.310204 -0.865234 0.499512 0.043365 0.984375 0.763672 1 0 1.0
0 0.496013 -0.354848 -6.012237 -0.865234 0.499512 0.043365 0.984375 0.763672 1 0 1.0
0 0.528462 -0.272783 -6.310204 -0.865234 0.499512 0.043365 0.984375 0.763672 1 0 1.0
Default
0 0.524551 -0.341085 -5.851337 -0.819824 0.473389 0.321777 0.984375 0.763672 1 0 1.0
0 0.542010 -0.310845 -5.851337 -0.819824 0.473389 0.321777 0.984375 0.763672 1 0 1.0
0 0.466937 -0.237261 -6.151023 -0.819824 0.473389 0.321777 0.984375 0.763672 1 0 1.0
Default
0 0.423289 -0.312861 -6.151023 -0.819824 0.473389 0.321777 0.984375 0.763672 1 0 1.0
0 0.524551 -0.341085 -5.851337 -0.819824 0.473389 0.321777 0.984375 0.763672 1 0 1.0
0 0.466937 -0.237261 -6.151023 -0.819824 0.473389 0.321777 0.984375 0.763672 1 0 1.0
Default
0 0.423289 -0.312861 -6.151023 0.740723 -0.427734 -0.517578 0.984375 0.763672 1 0 1.0
0 0.466937 -0.237261 -6.151023 0.740723 -0.427734 -0.517578 0.984375 0.763672 1 0 1.0
0 0.539660 -0.279248 -6.012237 0.740723 -0.427734 -0.517578 0.984375 0.763672 1 0 1.0
Default
0 0.496013 -0.354848 -6.012237 0.740723 -0.427734 -0.517578 0.984375 0.763672 1 0 1.0
0 0.423289 -0.312861 -6.151023 0.740723 -0.427734 -0.517578 0.984375 0.763672 1 0 1.0
0 0.539660 -0.279248 -6.012237 0.740723 -0.427734 -0.517578 0.984375 0.763672 1 0 1.0
Default
0 0.000001 1.159003 -2.351507 -0.949219 0.275879 -0.151001 0.110718 0.732422 1 0 1.0
0 0.000001 0.440827 -3.674108 -0.949219 0.275879 -0.151001 0.110718 0.732422 1 0 1.0
0 -0.075755 0.187384 -3.650067 -0.949219 0.275635 -0.152100 0.110718 0.732422 1 0 1.0
Default
0 -0.180452 0.553202 -2.334102 -0.949219 0.275635 -0.152100 0.110718 0.732422 1 0 1.0
0 0.000001 1.159003 -2.351507 -0.949219 0.275879 -0.151001 0.110718 0.732422 1 0 1.0
0 -0.075755 0.187384 -3.650067 -0.949219 0.275635 -0.152100 0.110718 0.732422 1 0 1.0
Default
0 0.109909 -0.605605 -2.677597 0.908691 -0.378418 -0.175415 0.111572 0.955566 1 0 1.0
0 0.000001 -0.574921 -3.059329 0.908691 -0.378418 -0.175415 0.111572 0.955566 1 0 1.0
0 0.151513 -0.066058 -3.626027 0.908691 -0.378418 -0.175415 0.111572 0.955566 1 0 1.0
Default
0 0.360908 -0.052599 -2.316696 0.908691 -0.378418 -0.175415 0.111572 0.955566 1 0 1.0
0 0.109909 -0.605605 -2.677597 0.908691 -0.378418 -0.175415 0.111572 0.955566 1 0 1.0
0 0.151513 -0.066058 -3.626027 0.908691 -0.378418 -0.175415 0.111572 0.955566 1 0 1.0
Default
0 0.360908 -0.052599 -2.316696 0.948730 0.275635 -0.153320 0.108765 0.984375 1 0 1.0
0 0.151513 -0.066058 -3.626027 0.948730 0.275635 -0.153320 0.108765 0.984375 1 0 1.0
0 0.075757 0.187384 -3.650067 0.949219 0.275635 -0.152100 0.108765 0.984375 1 0 1.0
Default
0 0.180455 0.553202 -2.334102 0.949219 0.275635 -0.152100 0.108765 0.984375 1 0 1.0
0 0.360908 -0.052599 -2.316696 0.948730 0.275635 -0.153320 0.108765 0.984375 1 0 1.0
0 0.075757 0.187384 -3.650067 0.949219 0.275635 -0.152100 0.108765 0.984375 1 0 1.0
Default
0 0.000001 -0.852492 -1.432823 0.914551 -0.404541 0.000530 0.111572 0.955566 1 0 1.0
0 0.000001 -0.836781 -2.936467 0.914551 -0.404541 0.000530 0.111572 0.955566 1 0 1.0
0 0.109909 -0.605605 -2.677597 0.914062 -0.405273 0.006302 0.111572 0.955566 1 0 1.0
Default
0 0.117311 -0.569338 -1.269956 0.914062 -0.405273 0.006302 0.110657 0.955566 1 0 1.0
0 0.000001 -0.852492 -1.432823 0.914551 -0.404541 0.000530 0.111572 0.955566 1 0 1.0
0 0.109909 -0.605605 -2.677597 0.914062 -0.405273 0.006302 0.111572 0.955566 1 0 1.0
Default
0 -0.339155 -0.039140 -0.965645 -0.913574 -0.406738 0.012695 0.111572 0.955566 1 0 1.0
0 -0.360906 -0.052599 -2.316696 -0.913574 -0.406738 0.012695 0.111572 0.955566 1 0 1.0
0 -0.109909 -0.607330 -2.676518 -0.914062 -0.405518 0.006897 0.111572 0.955566 1 0 1.0
Default
0 -0.117311 -0.566929 -1.268800 -0.914062 -0.405518 0.006897 0.110596 0.955566 1 0 1.0
0 -0.339155 -0.039140 -0.965645 -0.913574 -0.406738 0.012695 0.111572 0.955566 1 0 1.0
0 -0.109909 -0.607330 -2.676518 -0.914062 -0.405518 0.006897 0.111572 0.955566 1 0 1.0
Default
0 -0.151511 -0.066058 -3.626027 -0.908691 -0.378174 -0.175781 0.111572 0.955566 1 0 1.0
0 0.000001 -0.574921 -3.059329 -0.908691 -0.378174 -0.175781 0.111572 0.955566 1 0 1.0
0 -0.109909 -0.607330 -2.676518 -0.908691 -0.378174 -0.175781 0.111572 0.955566 1 0 1.0
Default
0 -0.360906 -0.052599 -2.316696 -0.908691 -0.378174 -0.175781 0.111572 0.955566 1 0 1.0
0 -0.151511 -0.066058 -3.626027 -0.908691 -0.378174 -0.175781 0.111572 0.955566 1 0 1.0
0 -0.109909 -0.607330 -2.676518 -0.908691 -0.378174 -0.175781 0.111572 0.955566 1 0 1.0
Default
0 -0.180452 0.553202 -2.334102 -0.949219 0.275635 -0.152100 0.108765 0.984375 1 0 1.0
0 -0.075755 0.187384 -3.650067 -0.949219 0.275635 -0.152100 0.108765 0.984375 1 0 1.0
0 -0.151511 -0.066058 -3.626027 -0.948730 0.275635 -0.153320 0.108765 0.984375 1 0 1.0
Default
0 -0.360906 -0.052599 -2.316696 -0.948730 0.275635 -0.153320 0.108765 0.984375 1 0 1.0
0 -0.180452 0.553202 -2.334102 -0.949219 0.275635 -0.152100 0.108765 0.984375 1 0 1.0
0 -0.151511 -0.066058 -3.626027 -0.948730 0.275635 -0.153320 0.108765 0.984375 1 0 1.0
Default
0 -0.169577 0.536585 -1.259186 -0.957520 0.287354 0.014267 0.108765 0.984375 1 0 1.0
0 -0.180452 0.553202 -2.334102 -0.957520 0.287354 0.014267 0.108765 0.984375 1 0 1.0
0 -0.360906 -0.052599 -2.316696 -0.958008 0.287109 0.013252 0.108765 0.984375 1 0 1.0
Default
0 -0.339155 -0.039140 -0.965645 -0.958008 0.287109 0.013252 0.108765 0.984375 1 0 1.0
0 -0.169577 0.536585 -1.259186 -0.957520 0.287354 0.014267 0.108765 0.984375 1 0 1.0
0 -0.360906 -0.052599 -2.316696 -0.958008 0.287109 0.013252 0.108765 0.984375 1 0 1.0
Default
0 -0.137477 0.276108 -0.493495 -0.919434 0.358887 0.159668 0.108765 0.984375 1 0 1.0
0 -0.169577 0.536585 -1.259186 -0.919434 0.358887 0.159668 0.108765 0.984375 1 0 1.0
0 -0.339155 -0.039140 -0.965645 -0.920898 0.358154 0.154297 0.108765 0.984375 1 0 1.0
Default
0 -0.274954 -0.037124 -0.556718 -0.920898 0.358154 0.154297 0.108765 0.984375 1 0 1.0
0 -0.137477 0.276108 -0.493495 -0.919434 0.358887 0.159668 0.108765 0.984375 1 0 1.0
0 -0.339155 -0.039140 -0.965645 -0.920898 0.358154 0.154297 0.108765 0.984375 1 0 1.0
Default
0 -0.075755 0.187384 -3.650067 -0.940918 0.333252 -0.063416 0.108765 0.984375 1 0 1.0
0 -0.066051 0.051947 -4.488958 -0.940918 0.333252 -0.063416 0.108765 0.984375 1 0 1.0
0 -0.132103 -0.069987 -4.382199 -0.939941 0.338623 -0.046753 0.108765 0.984375 1 0 1.0
Default
0 -0.151511 -0.066058 -3.626027 -0.939941 0.338623 -0.046753 0.108765 0.984375 1 0 1.0
0 -0.075755 0.187384 -3.650067 -0.940918 0.333252 -0.063416 0.108765 0.984375 1 0 1.0
0 -0.132103 -0.069987 -4.382199 -0.939941 0.338623 -0.046753 0.108765 0.984375 1 0 1.0
Default
0 0.180455 0.553202 -2.334102 0.949219 0.275635 -0.152100 0.110718 0.732422 1 0 1.0
0 0.075757 0.187384 -3.650067 0.949219 0.275635 -0.152100 0.110718 0.732422 1 0 1.0
0 0.000001 0.440827 -3.674108 0.949219 0.275879 -0.151001 0.110718 0.732422 1 0 1.0
Default
0 0.000001 1.159003 -2.351507 0.949219 0.275879 -0.151001 0.110718 0.732422 1 0 1.0
0 0.180455 0.553202 -2.334102 0.949219 0.275635 -0.152100 0.110718 0.732422 1 0 1.0
0 0.000001 0.440827 -3.674108 0.949219 0.275879 -0.151001 0.110718 0.732422 1 0 1.0
Default
0 0.075757 0.187384 -3.650067 0.940918 0.333252 -0.063416 0.110718 0.732422 1 0 1.0
0 0.066053 0.051947 -4.488958 0.940918 0.333252 -0.063416 0.110718 0.732422 1 0 1.0
0 0.000001 0.173881 -4.595716 0.941406 0.327637 -0.080078 0.110718 0.732422 1 0 1.0
Default
0 0.000001 0.440827 -3.674108 0.941406 0.327637 -0.080078 0.110718 0.732422 1 0 1.0
0 0.075757 0.187384 -3.650067 0.940918 0.333252 -0.063416 0.110718 0.732422 1 0 1.0
0 0.000001 0.173881 -4.595716 0.941406 0.327637 -0.080078 0.110718 0.732422 1 0 1.0
Default
0 0.137479 0.276108 -0.493495 0.919434 0.358887 0.159668 0.110718 0.732422 1 0 1.0
0 0.169579 0.536585 -1.259186 0.919434 0.358887 0.159668 0.110718 0.732422 1 0 1.0
0 0.000001 1.112311 -1.552726 0.918457 0.359863 0.164917 0.110718 0.732422 1 0 1.0
Default
0 0.000001 0.589339 -0.430272 0.918457 0.359863 0.164917 0.110718 0.732422 1 0 1.0
0 0.137479 0.276108 -0.493495 0.919434 0.358887 0.159668 0.110718 0.732422 1 0 1.0
0 0.000001 1.112311 -1.552726 0.918457 0.359863 0.164917 0.110718 0.732422 1 0 1.0
Default
0 0.169579 0.536585 -1.259186 0.957520 0.287354 0.014267 0.110718 0.732422 1 0 1.0
0 0.180455 0.553202 -2.334102 0.957520 0.287354 0.014267 0.110718 0.732422 1 0 1.0
0 0.000001 1.159003 -2.351507 0.957520 0.287598 0.015282 0.110718 0.732422 1 0 1.0
Default
0 0.000001 1.112311 -1.552726 0.957520 0.287598 0.015282 0.110718 0.732422 1 0 1.0
0 0.169579 0.536585 -1.259186 0.957520 0.287354 0.014267 0.110718 0.732422 1 0 1.0
0 0.000001 1.159003 -2.351507 0.957520 0.287598 0.015282 0.110718 0.732422 1 0 1.0
end
