version 1
nodes
0 "root" -1
end
skeleton
time 0
0 0.000000 0.000000 0.000000 0.000000 0.000000 0.000000
end
triangles
phy
0 -0.274955 -0.021457 -0.470497 -0.783691 0.433350 0.444824 0.359863 0.737305 1 0 1.0
0 -0.000000 -0.007210 0.000000 -0.783691 0.433350 0.444824 0.359863 0.737305 1 0 1.0
0 0.000000 0.472892 -0.467795 -0.783691 0.433350 0.444824 0.359863 0.737305 1 0 1.0
phy
0 -0.196264 0.015213 -4.745629 -0.791504 0.111206 -0.600586 0.359863 0.737305 1 0 1.0
0 0.000000 0.259081 -4.959146 -0.791504 0.111206 -0.600586 0.359863 0.737305 1 0 1.0
0 -0.000000 -0.211568 -5.046254 -0.791504 0.111206 -0.600586 0.359863 0.737305 1 0 1.0
phy
0 -0.000000 -0.211568 -5.046254 0.791504 0.111206 -0.600586 0.359863 0.737305 1 0 1.0
0 0.000000 0.259081 -4.959146 0.791504 0.111206 -0.600586 0.359863 0.737305 1 0 1.0
0 0.196264 0.015213 -4.745629 0.791504 0.111206 -0.600586 0.359863 0.737305 1 0 1.0
phy
0 0.274955 -0.021457 -0.470497 0.799316 -0.363281 0.478271 0.361084 0.708496 1 0 1.0
0 -0.000000 -0.007210 0.000000 0.799316 -0.363281 0.478271 0.361084 0.708496 1 0 1.0
0 -0.000000 -0.592643 -0.444812 0.799316 -0.363281 0.478271 0.361084 0.708496 1 0 1.0
phy
0 -0.043648 0.092325 -5.447069 -0.000000 0.000000 1.000000 0.984375 0.763672 1 0 1.0
0 0.000000 0.016725 -5.447069 -0.000000 0.000000 1.000000 0.984375 0.763672 1 0 1.0
0 0.043648 0.092325 -5.447069 -0.000000 0.000000 1.000000 0.984375 0.763672 1 0 1.0
phy
0 0.043648 0.665070 -6.375667 0.760254 0.648926 -0.028168 0.984375 0.763672 1 0 1.0
0 0.043648 0.652139 -6.673634 0.760254 0.648926 -0.028168 0.984375 0.763672 1 0 1.0
0 0.000000 0.702364 -6.694536 0.760254 0.648926 -0.028168 0.984375 0.763672 1 0 1.0
phy
0 0.000000 0.702364 -6.694536 0.760254 0.648926 -0.028168 0.984375 0.763672 1 0 1.0
0 0.000000 0.704644 -6.213854 0.779785 0.625977 -0.002972 0.984375 0.763672 1 0 1.0
0 0.017459 0.682903 -6.214767 0.779785 0.625977 -0.002972 0.984375 0.763672 1 0 1.0
phy
0 0.000000 0.702364 -6.694536 0.604980 0.795898 0.010269 0.984375 0.763672 1 0 1.0
0 0.017459 0.682903 -6.214767 0.604980 0.795898 0.010269 0.984375 0.763672 1 0 1.0
0 0.043648 0.665070 -6.375667 0.604980 0.795898 0.010269 0.984375 0.763672 1 0 1.0
phy
0 0.017459 0.682903 -6.214767 -0.000000 -0.041962 0.999023 0.984375 0.763672 1 0 1.0
0 0.000000 0.704644 -6.213854 -0.000000 -0.041962 0.999023 0.984375 0.763672 1 0 1.0
0 -0.017459 0.682903 -6.214767 -0.000000 -0.041962 0.999023 0.984375 0.763672 1 0 1.0
phy
0 0.000000 0.702364 -6.694536 -0.760254 0.648926 -0.028168 0.984375 0.763672 1 0 1.0
0 -0.043648 0.652139 -6.673634 -0.760254 0.648926 -0.028168 0.984375 0.763672 1 0 1.0
0 -0.043648 0.665070 -6.375667 -0.760254 0.648926 -0.028168 0.984375 0.763672 1 0 1.0
phy
0 -0.017459 0.682903 -6.214767 -0.779785 0.625977 -0.002972 0.984375 0.763672 1 0 1.0
0 0.000000 0.704644 -6.213854 -0.779785 0.625977 -0.002972 0.984375 0.763672 1 0 1.0
0 0.000000 0.702364 -6.694536 -0.760254 0.648926 -0.028168 0.984375 0.763672 1 0 1.0
phy
0 -0.043648 0.665070 -6.375667 -0.604980 0.795898 0.010269 0.984375 0.763672 1 0 1.0
0 -0.017459 0.682903 -6.214767 -0.604980 0.795898 0.010269 0.984375 0.763672 1 0 1.0
0 0.000000 0.702364 -6.694536 -0.604980 0.795898 0.010269 0.984375 0.763672 1 0 1.0
phy
0 0.017459 0.682903 -6.214767 0.933105 -0.307373 0.185913 0.984375 0.763672 1 0 1.0
0 0.043648 0.581096 -6.514452 0.933105 -0.307373 0.185913 0.984375 0.763672 1 0 1.0
0 0.043648 0.665070 -6.375667 0.933105 -0.307373 0.185913 0.984375 0.763672 1 0 1.0
phy
0 -0.043648 0.665070 -6.375667 -0.933105 -0.307373 0.185913 0.984375 0.763672 1 0 1.0
0 -0.043648 0.581096 -6.514452 -0.933105 -0.307373 0.185913 0.984375 0.763672 1 0 1.0
0 -0.017459 0.682903 -6.214767 -0.933105 -0.307373 0.185913 0.984375 0.763672 1 0 1.0
phy
0 -0.542009 -0.225644 -6.214767 -0.990723 -0.130371 -0.040070 0.984375 0.763672 1 0 1.0
0 -0.539659 -0.194047 -6.375667 -0.990723 -0.130371 -0.040070 0.984375 0.763672 1 0 1.0
0 -0.528461 -0.187582 -6.673634 -0.990723 -0.130371 -0.040070 0.984375 0.763672 1 0 1.0
phy
0 -0.542009 -0.225644 -6.214767 0.036346 0.020981 0.999023 0.984375 0.763672 1 0 1.0
0 -0.552108 -0.251635 -6.213854 0.036346 0.020981 0.999023 0.984375 0.763672 1 0 1.0
0 -0.524550 -0.255884 -6.214767 0.036346 0.020981 0.999023 0.984375 0.763672 1 0 1.0
phy
0 -0.552108 -0.251635 -6.213854 -0.189697 -0.981934 -0.003109 0.984375 0.763672 1 0 1.0
0 -0.550133 -0.250494 -6.694536 -0.189697 -0.981934 -0.003109 0.984375 0.763672 1 0 1.0
0 -0.484813 -0.263182 -6.673634 -0.189697 -0.981934 -0.003109 0.984375 0.763672 1 0 1.0
phy
0 -0.484813 -0.263182 -6.673634 -0.395020 -0.917969 -0.034760 0.984375 0.763672 1 0 1.0
0 -0.496012 -0.269647 -6.375667 -0.395020 -0.917969 -0.034760 0.984375 0.763672 1 0 1.0
0 -0.552108 -0.251635 -6.213854 -0.395020 -0.917969 -0.034760 0.984375 0.763672 1 0 1.0
phy
0 -0.496012 -0.269647 -6.375667 -0.150269 -0.986816 0.057770 0.984375 0.763672 1 0 1.0
0 -0.524550 -0.255884 -6.214767 -0.150269 -0.986816 0.057770 0.984375 0.763672 1 0 1.0
0 -0.552108 -0.251635 -6.213854 -0.150269 -0.986816 0.057770 0.984375 0.763672 1 0 1.0
phy
0 -0.542009 -0.225644 -6.214767 -0.200439 0.961914 0.185913 0.984375 0.763672 1 0 1.0
0 -0.466936 -0.152061 -6.514452 -0.200439 0.961914 0.185913 0.984375 0.763672 1 0 1.0
0 -0.539659 -0.194047 -6.375667 -0.200439 0.961914 0.185913 0.984375 0.763672 1 0 1.0
phy
0 -0.496012 -0.269647 -6.375667 0.732910 -0.654785 0.185913 0.984375 0.763672 1 0 1.0
0 -0.423288 -0.227661 -6.514452 0.732910 -0.654785 0.185913 0.984375 0.763672 1 0 1.0
0 -0.524550 -0.255884 -6.214767 0.732910 -0.654785 0.185913 0.984375 0.763672 1 0 1.0
phy
0 0.484813 -0.263182 -6.673634 0.189697 -0.981934 -0.003109 0.984375 0.763672 1 0 1.0
0 0.550133 -0.250495 -6.694536 0.189697 -0.981934 -0.003109 0.984375 0.763672 1 0 1.0
0 0.552108 -0.251635 -6.213854 0.189697 -0.981934 -0.003109 0.984375 0.763672 1 0 1.0
phy
0 0.552108 -0.251635 -6.213854 0.395020 -0.917969 -0.034760 0.984375 0.763672 1 0 1.0
0 0.496012 -0.269648 -6.375667 0.395020 -0.917969 -0.034760 0.984375 0.763672 1 0 1.0
0 0.484813 -0.263182 -6.673634 0.395020 -0.917969 -0.034760 0.984375 0.763672 1 0 1.0
phy
0 0.552108 -0.251635 -6.213854 0.150269 -0.986816 0.057770 0.984375 0.763672 1 0 1.0
0 0.524550 -0.255884 -6.214767 0.150269 -0.986816 0.057770 0.984375 0.763672 1 0 1.0
0 0.496012 -0.269648 -6.375667 0.150269 -0.986816 0.057770 0.984375 0.763672 1 0 1.0
phy
0 0.524550 -0.255884 -6.214767 -0.036346 0.020981 0.999023 0.984375 0.763672 1 0 1.0
0 0.552108 -0.251635 -6.213854 -0.036346 0.020981 0.999023 0.984375 0.763672 1 0 1.0
0 0.542009 -0.225644 -6.214767 -0.036346 0.020981 0.999023 0.984375 0.763672 1 0 1.0
phy
0 0.528461 -0.187582 -6.673634 0.990723 -0.130371 -0.040070 0.984375 0.763672 1 0 1.0
0 0.539659 -0.194048 -6.375667 0.990723 -0.130371 -0.040070 0.984375 0.763672 1 0 1.0
0 0.542009 -0.225644 -6.214767 0.990723 -0.130371 -0.040070 0.984375 0.763672 1 0 1.0
phy
0 0.524550 -0.255884 -6.214767 -0.732910 -0.654785 0.185913 0.984375 0.763672 1 0 1.0
0 0.423288 -0.227661 -6.514452 -0.732910 -0.654785 0.185913 0.984375 0.763672 1 0 1.0
0 0.496012 -0.269648 -6.375667 -0.732910 -0.654785 0.185913 0.984375 0.763672 1 0 1.0
phy
0 0.539659 -0.194048 -6.375667 0.200439 0.961914 0.185913 0.984375 0.763672 1 0 1.0
0 0.466936 -0.152061 -6.514452 0.200439 0.961914 0.185913 0.984375 0.763672 1 0 1.0
0 0.542009 -0.225644 -6.214767 0.200439 0.961914 0.185913 0.984375 0.763672 1 0 1.0
phy
0 -0.229156 -0.064188 -1.052453 -0.166504 0.579590 -0.797852 0.985352 0.518555 1 0 1.0
0 0.087528 0.026790 -1.052453 -0.166504 0.579590 -0.797852 0.985352 0.518555 1 0 1.0
0 -0.000000 -0.211389 -1.207233 -0.166504 0.579590 -0.797852 0.985352 0.518555 1 0 1.0
phy
0 -0.000000 -0.211389 -1.207233 -0.559570 0.000000 -0.828613 0.985352 0.518555 1 0 1.0
0 -0.229156 -0.358591 -1.052453 -0.559570 0.000000 -0.828613 0.985352 0.518555 1 0 1.0
0 -0.229156 -0.064188 -1.052453 -0.559570 0.000000 -0.828613 0.985352 0.518555 1 0 1.0
phy
0 0.087528 0.026790 -1.052453 0.446045 0.366699 -0.816406 0.985352 0.518555 1 0 1.0
0 0.283255 -0.211389 -1.052453 0.446045 0.366699 -0.816406 0.985352 0.518555 1 0 1.0
0 -0.000000 -0.211389 -1.207233 0.446045 0.366699 -0.816406 0.985352 0.518555 1 0 1.0
phy
0 0.283255 -0.211389 -1.052453 0.446045 -0.366699 -0.816406 0.985352 0.518555 1 0 1.0
0 0.087528 -0.449569 -1.052453 0.446045 -0.366699 -0.816406 0.985352 0.518555 1 0 1.0
0 -0.000000 -0.211389 -1.207233 0.446045 -0.366699 -0.816406 0.985352 0.518555 1 0 1.0
phy
0 0.087528 -0.449569 -1.052453 -0.166504 -0.579590 -0.797852 0.985352 0.518555 1 0 1.0
0 -0.229156 -0.358591 -1.052453 -0.166504 -0.579590 -0.797852 0.985352 0.518555 1 0 1.0
0 -0.000000 -0.211389 -1.207233 -0.166504 -0.579590 -0.797852 0.985352 0.518555 1 0 1.0
phy
0 -0.229156 -0.358591 -1.052453 -0.977539 0.000000 -0.211182 0.985352 0.518555 1 0 1.0
0 -0.283255 -0.211389 -0.802012 -0.977539 0.000000 -0.211182 0.985352 0.518555 1 0 1.0
0 -0.229156 -0.064188 -1.052453 -0.977539 0.000000 -0.211182 0.985352 0.518555 1 0 1.0
phy
0 -0.229156 -0.064188 -1.052453 -0.270996 0.943848 -0.189453 0.985352 0.518555 1 0 1.0
0 -0.087528 0.026790 -0.802012 -0.270996 0.943848 -0.189453 0.985352 0.518555 1 0 1.0
0 0.087528 0.026790 -1.052453 -0.270996 0.943848 -0.189453 0.985352 0.518555 1 0 1.0
phy
0 0.087528 0.026790 -1.052453 0.756836 0.621582 -0.202026 0.985352 0.518555 1 0 1.0
0 0.229156 -0.064188 -0.802012 0.756836 0.621582 -0.202026 0.985352 0.518555 1 0 1.0
0 0.283255 -0.211389 -1.052453 0.756836 0.621582 -0.202026 0.985352 0.518555 1 0 1.0
phy
0 0.283255 -0.211389 -1.052453 0.756836 -0.621582 -0.202026 0.985352 0.518555 1 0 1.0
0 0.229156 -0.358591 -0.802012 0.756836 -0.621582 -0.202026 0.985352 0.518555 1 0 1.0
0 0.087528 -0.449569 -1.052453 0.756836 -0.621582 -0.202026 0.985352 0.518555 1 0 1.0
phy
0 0.087528 -0.449569 -1.052453 -0.270996 -0.943848 -0.189453 0.985352 0.518555 1 0 1.0
0 -0.087528 -0.449569 -0.802012 -0.270996 -0.943848 -0.189453 0.985352 0.518555 1 0 1.0
0 -0.229156 -0.358591 -1.052453 -0.270996 -0.943848 -0.189453 0.985352 0.518555 1 0 1.0
phy
0 -0.283255 -0.211389 -0.802012 -0.756836 0.621582 0.202026 0.985352 0.518555 1 0 1.0
0 -0.087528 0.026790 -0.802012 -0.756836 0.621582 0.202026 0.985352 0.518555 1 0 1.0
0 -0.229156 -0.064188 -1.052453 -0.756836 0.621582 0.202026 0.985352 0.518555 1 0 1.0
phy
0 -0.087528 0.026790 -0.802012 0.270996 0.943848 0.189453 0.985352 0.518555 1 0 1.0
0 0.229156 -0.064188 -0.802012 0.270996 0.943848 0.189453 0.985352 0.518555 1 0 1.0
0 0.087528 0.026790 -1.052453 0.270996 0.943848 0.189453 0.985352 0.518555 1 0 1.0
phy
0 0.229156 -0.064188 -0.802012 0.977539 0.000000 0.211182 0.985352 0.518555 1 0 1.0
0 0.229156 -0.358591 -0.802012 0.977539 0.000000 0.211182 0.985352 0.518555 1 0 1.0
0 0.283255 -0.211389 -1.052453 0.977539 0.000000 0.211182 0.985352 0.518555 1 0 1.0
phy
0 0.229156 -0.358591 -0.802012 0.270996 -0.943848 0.189453 0.985352 0.518555 1 0 1.0
0 -0.087528 -0.449569 -0.802012 0.270996 -0.943848 0.189453 0.985352 0.518555 1 0 1.0
0 0.087528 -0.449569 -1.052453 0.270996 -0.943848 0.189453 0.985352 0.518555 1 0 1.0
phy
0 -0.087528 -0.449569 -0.802012 -0.756836 -0.621582 0.202026 0.985352 0.518555 1 0 1.0
0 -0.283255 -0.211389 -0.802012 -0.756836 -0.621582 0.202026 0.985352 0.518555 1 0 1.0
0 -0.229156 -0.358591 -1.052453 -0.756836 -0.621582 0.202026 0.985352 0.518555 1 0 1.0
phy
0 -0.283255 -0.211389 -0.802012 -0.446045 0.366699 0.816406 0.985352 0.518555 1 0 1.0
0 -0.000000 -0.211389 -0.647232 -0.446045 0.366699 0.816406 0.985352 0.518555 1 0 1.0
0 -0.087528 0.026790 -0.802012 -0.446045 0.366699 0.816406 0.985352 0.518555 1 0 1.0
phy
0 -0.087528 0.026790 -0.802012 0.166504 0.579590 0.797852 0.985352 0.518555 1 0 1.0
0 -0.000000 -0.211389 -0.647232 0.166504 0.579590 0.797852 0.985352 0.518555 1 0 1.0
0 0.229156 -0.064188 -0.802012 0.166504 0.579590 0.797852 0.985352 0.518555 1 0 1.0
phy
0 0.229156 -0.064188 -0.802012 0.559570 0.000000 0.828613 0.985352 0.518555 1 0 1.0
0 -0.000000 -0.211389 -0.647232 0.559570 0.000000 0.828613 0.985352 0.518555 1 0 1.0
0 0.229156 -0.358591 -0.802012 0.559570 0.000000 0.828613 0.985352 0.518555 1 0 1.0
phy
0 0.229156 -0.358591 -0.802012 0.166504 -0.579590 0.797852 0.985352 0.518555 1 0 1.0
0 -0.000000 -0.211389 -0.647232 0.166504 -0.579590 0.797852 0.985352 0.518555 1 0 1.0
0 -0.087528 -0.449569 -0.802012 0.166504 -0.579590 0.797852 0.985352 0.518555 1 0 1.0
phy
0 -0.087528 -0.449569 -0.802012 -0.446045 -0.366699 0.816406 0.985352 0.518555 1 0 1.0
0 -0.000000 -0.211389 -0.647232 -0.446045 -0.366699 0.816406 0.985352 0.518555 1 0 1.0
0 -0.283255 -0.211389 -0.802012 -0.446045 -0.366699 0.816406 0.985352 0.518555 1 0 1.0
phy
0 -0.000000 -0.592643 -0.444812 -0.799316 -0.363281 0.478271 0.361084 0.708496 1 0 1.0
0 -0.000000 -0.007210 0.000000 -0.799316 -0.363281 0.478271 0.361084 0.708496 1 0 1.0
0 -0.274955 -0.021457 -0.470497 -0.799316 -0.363281 0.478271 0.361084 0.708496 1 0 1.0
phy
0 0.000000 0.472892 -0.467795 0.783691 0.433350 0.444824 0.359863 0.737305 1 0 1.0
0 -0.000000 -0.007210 0.000000 0.783691 0.433350 0.444824 0.359863 0.737305 1 0 1.0
0 0.274955 -0.021457 -0.470497 0.783691 0.433350 0.444824 0.359863 0.737305 1 0 1.0
phy
0 0.363812 -0.003386 -1.337573 0.848633 0.521484 -0.087280 0.359863 0.737305 1 0 1.0
0 0.363492 -0.002142 -1.447274 0.848633 0.521484 -0.087280 0.359863 0.737305 1 0 1.0
0 0.000000 0.599991 -1.268953 0.848633 0.521484 -0.087280 0.359863 0.737305 1 0 1.0
phy
0 0.000000 0.646651 -1.104158 0.848633 0.521484 -0.087280 0.359863 0.737305 1 0 1.0
0 0.363812 -0.003386 -1.337573 0.848633 0.521484 -0.087280 0.359863 0.737305 1 0 1.0
0 0.000000 0.599991 -1.268953 0.848633 0.521484 -0.087280 0.359863 0.737305 1 0 1.0
phy
0 -0.363812 -0.003386 -1.337573 -0.852539 -0.516602 -0.078674 0.362549 0.708496 1 0 1.0
0 -0.363492 -0.002142 -1.447274 -0.852539 -0.516602 -0.078674 0.362549 0.708496 1 0 1.0
0 -0.000000 -0.620280 -1.229509 -0.852539 -0.516602 -0.078674 0.362549 0.708496 1 0 1.0
phy
0 -0.000000 -0.659591 -1.069395 -0.852539 -0.516602 -0.078674 0.362549 0.708496 1 0 1.0
0 -0.363812 -0.003386 -1.337573 -0.852539 -0.516602 -0.078674 0.362549 0.708496 1 0 1.0
0 -0.000000 -0.620280 -1.229509 -0.852539 -0.516602 -0.078674 0.362549 0.708496 1 0 1.0
phy
0 0.274955 -0.021457 -0.470497 0.877441 0.466797 0.111389 0.359863 0.737305 1 0 1.0
0 0.363812 -0.003386 -1.337573 0.877441 0.466797 0.111389 0.359863 0.737305 1 0 1.0
0 0.000000 0.646651 -1.104158 0.877441 0.466797 0.111389 0.359863 0.737305 1 0 1.0
phy
0 0.000000 0.472892 -0.467795 0.877441 0.466797 0.111389 0.359863 0.737305 1 0 1.0
0 0.274955 -0.021457 -0.470497 0.877441 0.466797 0.111389 0.359863 0.737305 1 0 1.0
0 0.000000 0.646651 -1.104158 0.877441 0.466797 0.111389 0.359863 0.737305 1 0 1.0
phy
0 -0.274955 -0.021457 -0.470497 -0.891602 -0.447754 0.067810 0.361084 0.708496 1 0 1.0
0 -0.363812 -0.003386 -1.337573 -0.891602 -0.447754 0.067810 0.361084 0.708496 1 0 1.0
0 -0.000000 -0.659591 -1.069395 -0.891602 -0.447754 0.067810 0.361084 0.708496 1 0 1.0
phy
0 -0.000000 -0.592643 -0.444812 -0.891602 -0.447754 0.067810 0.361084 0.708496 1 0 1.0
0 -0.274955 -0.021457 -0.470497 -0.891602 -0.447754 0.067810 0.361084 0.708496 1 0 1.0
0 -0.000000 -0.659591 -1.069395 -0.891602 -0.447754 0.067810 0.361084 0.708496 1 0 1.0
phy
0 -0.358002 0.019142 -3.324901 -0.834473 -0.541992 -0.100830 0.361084 0.705078 1 0 1.0
0 -0.196264 0.015213 -4.745629 -0.834473 -0.541992 -0.100830 0.361084 0.705078 1 0 1.0
0 -0.000000 -0.211568 -5.046254 -0.834473 -0.541992 -0.100830 0.361084 0.705078 1 0 1.0
phy
0 -0.000000 -0.530606 -3.435429 -0.834473 -0.541992 -0.100830 0.361084 0.705078 1 0 1.0
0 -0.358002 0.019142 -3.324901 -0.834473 -0.541992 -0.100830 0.361084 0.705078 1 0 1.0
0 -0.000000 -0.211568 -5.046254 -0.834473 -0.541992 -0.100830 0.361084 0.705078 1 0 1.0
phy
0 0.358002 0.019142 -3.324901 0.850098 0.515137 -0.110596 0.359863 0.737305 1 0 1.0
0 0.196264 0.015213 -4.745629 0.850098 0.515137 -0.110596 0.359863 0.737305 1 0 1.0
0 0.000000 0.259081 -4.959146 0.850098 0.515137 -0.110596 0.359863 0.737305 1 0 1.0
phy
0 0.000000 0.617811 -3.448078 0.850098 0.515137 -0.110596 0.359863 0.737305 1 0 1.0
0 0.358002 0.019142 -3.324901 0.850098 0.515137 -0.110596 0.359863 0.737305 1 0 1.0
0 0.000000 0.259081 -4.959146 0.850098 0.515137 -0.110596 0.359863 0.737305 1 0 1.0
phy
0 0.000000 0.617811 -3.448078 -0.850098 0.515137 -0.110596 0.359863 0.737305 1 0 1.0
0 0.000000 0.259081 -4.959146 -0.850098 0.515137 -0.110596 0.359863 0.737305 1 0 1.0
0 -0.196264 0.015213 -4.745629 -0.850098 0.515137 -0.110596 0.359863 0.737305 1 0 1.0
phy
0 -0.358002 0.019142 -3.324901 -0.850098 0.515137 -0.110596 0.359863 0.737305 1 0 1.0
0 0.000000 0.617811 -3.448078 -0.850098 0.515137 -0.110596 0.359863 0.737305 1 0 1.0
0 -0.196264 0.015213 -4.745629 -0.850098 0.515137 -0.110596 0.359863 0.737305 1 0 1.0
phy
0 -0.000000 -0.530606 -3.435429 0.834473 -0.541992 -0.100830 0.362549 0.708496 1 0 1.0
0 -0.000000 -0.211568 -5.046254 0.834473 -0.541992 -0.100830 0.362549 0.708496 1 0 1.0
0 0.196264 0.015213 -4.745629 0.834473 -0.541992 -0.100830 0.362549 0.708496 1 0 1.0
phy
0 0.358002 0.019142 -3.324901 0.834473 -0.541992 -0.100830 0.362549 0.708496 1 0 1.0
0 -0.000000 -0.530606 -3.435429 0.834473 -0.541992 -0.100830 0.362549 0.708496 1 0 1.0
0 0.196264 0.015213 -4.745629 0.834473 -0.541992 -0.100830 0.362549 0.708496 1 0 1.0
phy
0 -0.000000 -0.592643 -0.444812 0.891602 -0.447754 0.067810 0.361084 0.708496 1 0 1.0
0 -0.000000 -0.659591 -1.069395 0.891602 -0.447754 0.067810 0.361084 0.708496 1 0 1.0
0 0.363812 -0.003386 -1.337573 0.891602 -0.447754 0.067810 0.361084 0.708496 1 0 1.0
phy
0 0.274955 -0.021457 -0.470497 0.891602 -0.447754 0.067810 0.361084 0.708496 1 0 1.0
0 -0.000000 -0.592643 -0.444812 0.891602 -0.447754 0.067810 0.361084 0.708496 1 0 1.0
0 0.363812 -0.003386 -1.337573 0.891602 -0.447754 0.067810 0.361084 0.708496 1 0 1.0
phy
0 0.000000 0.472892 -0.467795 -0.877441 0.466797 0.111389 0.359863 0.737305 1 0 1.0
0 0.000000 0.646651 -1.104158 -0.877441 0.466797 0.111389 0.359863 0.737305 1 0 1.0
0 -0.363812 -0.003386 -1.337573 -0.877441 0.466797 0.111389 0.359863 0.737305 1 0 1.0
phy
0 -0.274955 -0.021457 -0.470497 -0.877441 0.466797 0.111389 0.359863 0.737305 1 0 1.0
0 0.000000 0.472892 -0.467795 -0.877441 0.466797 0.111389 0.359863 0.737305 1 0 1.0
0 -0.363812 -0.003386 -1.337573 -0.877441 0.466797 0.111389 0.359863 0.737305 1 0 1.0
phy
0 -0.000000 -0.659591 -1.069395 0.852539 -0.516602 -0.078674 0.362549 0.708496 1 0 1.0
0 -0.000000 -0.620280 -1.229509 0.852539 -0.516602 -0.078674 0.362549 0.708496 1 0 1.0
0 0.363492 -0.002142 -1.447274 0.852539 -0.516602 -0.078674 0.362549 0.708496 1 0 1.0
phy
0 0.363812 -0.003386 -1.337573 0.852539 -0.516602 -0.078674 0.362549 0.708496 1 0 1.0
0 -0.000000 -0.659591 -1.069395 0.852539 -0.516602 -0.078674 0.362549 0.708496 1 0 1.0
0 0.363492 -0.002142 -1.447274 0.852539 -0.516602 -0.078674 0.362549 0.708496 1 0 1.0
phy
0 0.000000 0.646651 -1.104158 -0.848633 0.521484 -0.087280 0.359863 0.737305 1 0 1.0
0 0.000000 0.599991 -1.268953 -0.848633 0.521484 -0.087280 0.359863 0.737305 1 0 1.0
0 -0.363492 -0.002142 -1.447274 -0.848633 0.521484 -0.087280 0.359863 0.737305 1 0 1.0
phy
0 -0.363812 -0.003386 -1.337573 -0.848633 0.521484 -0.087280 0.359863 0.737305 1 0 1.0
0 0.000000 0.646651 -1.104158 -0.848633 0.521484 -0.087280 0.359863 0.737305 1 0 1.0
0 -0.363492 -0.002142 -1.447274 -0.848633 0.521484 -0.087280 0.359863 0.737305 1 0 1.0
phy
0 -0.048501 -0.143017 -5.033638 -0.654785 -0.578125 -0.486816 0.984375 0.763672 1 0 1.0
0 -0.048501 0.075600 -5.293359 -0.654785 -0.578125 -0.486816 0.984375 0.763672 1 0 1.0
0 -0.000003 0.090314 -5.376060 -0.654785 -0.578125 -0.486816 0.984375 0.763672 1 0 1.0
phy
0 -0.000003 -0.221995 -5.005030 -0.654785 -0.578125 -0.486816 0.984375 0.763672 1 0 1.0
0 -0.048501 -0.143017 -5.033638 -0.654785 -0.578125 -0.486816 0.984375 0.763672 1 0 1.0
0 -0.000003 0.090314 -5.376060 -0.654785 -0.578125 -0.486816 0.984375 0.763672 1 0 1.0
phy
0 0.048494 -0.143017 -5.033638 -0.000000 0.765137 0.644043 0.984375 0.763672 1 0 1.0
0 0.048494 0.075600 -5.293359 -0.000000 0.765137 0.644043 0.984375 0.763672 1 0 1.0
0 -0.048501 0.075600 -5.293359 -0.000000 0.765137 0.644043 0.984375 0.763672 1 0 1.0
phy
0 -0.048501 -0.143017 -5.033638 -0.000000 0.765137 0.644043 0.984375 0.763672 1 0 1.0
0 0.048494 -0.143017 -5.033638 -0.000000 0.765137 0.644043 0.984375 0.763672 1 0 1.0
0 -0.048501 0.075600 -5.293359 -0.000000 0.765137 0.644043 0.984375 0.763672 1 0 1.0
phy
0 -0.000003 -0.221995 -5.005030 0.654785 -0.578125 -0.486816 0.984375 0.763672 1 0 1.0
0 -0.000003 0.090314 -5.376060 0.654785 -0.578125 -0.486816 0.984375 0.763672 1 0 1.0
0 0.048494 0.075600 -5.293359 0.654785 -0.578125 -0.486816 0.984375 0.763672 1 0 1.0
phy
0 0.048494 -0.143017 -5.033638 0.654785 -0.578125 -0.486816 0.984375 0.763672 1 0 1.0
0 -0.000003 -0.221995 -5.005030 0.654785 -0.578125 -0.486816 0.984375 0.763672 1 0 1.0
0 0.048494 0.075600 -5.293359 0.654785 -0.578125 -0.486816 0.984375 0.763672 1 0 1.0
phy
0 -0.048500 0.191216 -4.974171 -0.654785 -0.132446 0.744141 0.984375 0.763672 1 0 1.0
0 -0.048501 -0.143017 -5.033638 -0.654785 -0.132446 0.744141 0.984375 0.763672 1 0 1.0
0 -0.000003 -0.221995 -5.005030 -0.654785 -0.132446 0.744141 0.984375 0.763672 1 0 1.0
phy
0 -0.000003 0.255481 -4.920078 -0.654785 -0.132446 0.744141 0.984375 0.763672 1 0 1.0
0 -0.048500 0.191216 -4.974171 -0.654785 -0.132446 0.744141 0.984375 0.763672 1 0 1.0
0 -0.000003 -0.221995 -5.005030 -0.654785 -0.132446 0.744141 0.984375 0.763672 1 0 1.0
phy
0 0.048494 0.191216 -4.974171 -0.000000 0.175171 -0.984375 0.984375 0.763672 1 0 1.0
0 0.048494 -0.143017 -5.033638 -0.000000 0.175171 -0.984375 0.984375 0.763672 1 0 1.0
0 -0.048501 -0.143017 -5.033638 -0.000000 0.175171 -0.984375 0.984375 0.763672 1 0 1.0
phy
0 -0.048500 0.191216 -4.974171 -0.000000 0.175171 -0.984375 0.984375 0.763672 1 0 1.0
0 0.048494 0.191216 -4.974171 -0.000000 0.175171 -0.984375 0.984375 0.763672 1 0 1.0
0 -0.048501 -0.143017 -5.033638 -0.000000 0.175171 -0.984375 0.984375 0.763672 1 0 1.0
phy
0 -0.000003 0.255481 -4.920078 0.654785 -0.132446 0.744141 0.984375 0.763672 1 0 1.0
0 -0.000003 -0.221995 -5.005030 0.654785 -0.132446 0.744141 0.984375 0.763672 1 0 1.0
0 0.048494 -0.143017 -5.033638 0.654785 -0.132446 0.744141 0.984375 0.763672 1 0 1.0
phy
0 0.048494 0.191216 -4.974171 0.654785 -0.132446 0.744141 0.984375 0.763672 1 0 1.0
0 -0.000003 0.255481 -4.920078 0.654785 -0.132446 0.744141 0.984375 0.763672 1 0 1.0
0 0.048494 -0.143017 -5.033638 0.654785 -0.132446 0.744141 0.984375 0.763672 1 0 1.0
phy
0 -0.048501 0.075600 -5.293359 -0.654785 0.710938 -0.257324 0.984375 0.763672 1 0 1.0
0 -0.048500 0.191216 -4.974171 -0.654785 0.710938 -0.257324 0.984375 0.763672 1 0 1.0
0 -0.000003 0.255481 -4.920078 -0.654785 0.710938 -0.257324 0.984375 0.763672 1 0 1.0
phy
0 -0.000003 0.090314 -5.376060 -0.654785 0.710938 -0.257324 0.984375 0.763672 1 0 1.0
0 -0.048501 0.075600 -5.293359 -0.654785 0.710938 -0.257324 0.984375 0.763672 1 0 1.0
0 -0.000003 0.255481 -4.920078 -0.654785 0.710938 -0.257324 0.984375 0.763672 1 0 1.0
phy
0 0.048494 0.075600 -5.293359 -0.000000 -0.940430 0.340576 0.984375 0.763672 1 0 1.0
0 0.048494 0.191216 -4.974171 -0.000000 -0.940430 0.340576 0.984375 0.763672 1 0 1.0
0 -0.048500 0.191216 -4.974171 -0.000000 -0.940430 0.340576 0.984375 0.763672 1 0 1.0
phy
0 -0.048501 0.075600 -5.293359 -0.000000 -0.940430 0.340576 0.984375 0.763672 1 0 1.0
0 0.048494 0.075600 -5.293359 -0.000000 -0.940430 0.340576 0.984375 0.763672 1 0 1.0
0 -0.048500 0.191216 -4.974171 -0.000000 -0.940430 0.340576 0.984375 0.763672 1 0 1.0
phy
0 -0.000003 0.090314 -5.376060 0.654785 0.710938 -0.257324 0.984375 0.763672 1 0 1.0
0 -0.000003 0.255481 -4.920078 0.654785 0.710938 -0.257324 0.984375 0.763672 1 0 1.0
0 0.048494 0.191216 -4.974171 0.654785 0.710938 -0.257324 0.984375 0.763672 1 0 1.0
phy
0 0.048494 0.075600 -5.293359 0.654785 0.710938 -0.257324 0.984375 0.763672 1 0 1.0
0 -0.000003 0.090314 -5.376060 0.654785 0.710938 -0.257324 0.984375 0.763672 1 0 1.0
0 0.048494 0.191216 -4.974171 0.654785 0.710938 -0.257324 0.984375 0.763672 1 0 1.0
phy
0 -0.169744 0.104497 -5.225773 -0.654785 0.654785 -0.377930 0.984375 0.763672 1 0 1.0
0 -0.000003 0.104497 -5.519773 -0.654785 0.654785 -0.377930 0.984375 0.763672 1 0 1.0
0 -0.000003 0.056000 -5.603774 -0.654785 0.654785 -0.377930 0.984375 0.763672 1 0 1.0
phy
0 -0.242490 0.056000 -5.183774 -0.654785 0.654785 -0.377930 0.984375 0.763672 1 0 1.0
0 -0.169744 0.104497 -5.225773 -0.654785 0.654785 -0.377930 0.984375 0.763672 1 0 1.0
0 -0.000003 0.056000 -5.603774 -0.654785 0.654785 -0.377930 0.984375 0.763672 1 0 1.0
phy
0 -0.169744 0.007503 -5.225773 0.866211 0.000000 0.500000 0.984375 0.763672 1 0 1.0
0 -0.000003 0.007503 -5.519773 0.866211 0.000000 0.500000 0.984375 0.763672 1 0 1.0
0 -0.000003 0.104497 -5.519773 0.866211 0.000000 0.500000 0.984375 0.763672 1 0 1.0
phy
0 -0.169744 0.104497 -5.225773 0.866211 0.000000 0.500000 0.984375 0.763672 1 0 1.0
0 -0.169744 0.007503 -5.225773 0.866211 0.000000 0.500000 0.984375 0.763672 1 0 1.0
0 -0.000003 0.104497 -5.519773 0.866211 0.000000 0.500000 0.984375 0.763672 1 0 1.0
phy
0 -0.242490 0.056000 -5.183774 -0.654785 -0.654785 -0.377930 0.984375 0.763672 1 0 1.0
0 -0.000003 0.056000 -5.603774 -0.654785 -0.654785 -0.377930 0.984375 0.763672 1 0 1.0
0 -0.000003 0.007503 -5.519773 -0.654785 -0.654785 -0.377930 0.984375 0.763672 1 0 1.0
phy
0 -0.169744 0.007503 -5.225773 -0.654785 -0.654785 -0.377930 0.984375 0.763672 1 0 1.0
0 -0.242490 0.056000 -5.183774 -0.654785 -0.654785 -0.377930 0.984375 0.763672 1 0 1.0
0 -0.000003 0.007503 -5.519773 -0.654785 -0.654785 -0.377930 0.984375 0.763672 1 0 1.0
phy
0 0.169738 0.104497 -5.225773 -0.000000 0.654785 0.755859 0.984375 0.763672 1 0 1.0
0 -0.169744 0.104497 -5.225773 -0.000000 0.654785 0.755859 0.984375 0.763672 1 0 1.0
0 -0.242490 0.056000 -5.183774 -0.000000 0.654785 0.755859 0.984375 0.763672 1 0 1.0
phy
0 0.242484 0.056000 -5.183774 -0.000000 0.654785 0.755859 0.984375 0.763672 1 0 1.0
0 0.169738 0.104497 -5.225773 -0.000000 0.654785 0.755859 0.984375 0.763672 1 0 1.0
0 -0.242490 0.056000 -5.183774 -0.000000 0.654785 0.755859 0.984375 0.763672 1 0 1.0
phy
0 0.169738 0.007503 -5.225773 -0.000000 0.000000 -1.000000 0.984375 0.763672 1 0 1.0
0 -0.169744 0.007503 -5.225773 -0.000000 0.000000 -1.000000 0.984375 0.763672 1 0 1.0
0 -0.169744 0.104497 -5.225773 -0.000000 0.000000 -1.000000 0.984375 0.763672 1 0 1.0
phy
0 0.169738 0.104497 -5.225773 -0.000000 0.000000 -1.000000 0.984375 0.763672 1 0 1.0
0 0.169738 0.007503 -5.225773 -0.000000 0.000000 -1.000000 0.984375 0.763672 1 0 1.0
0 -0.169744 0.104497 -5.225773 -0.000000 0.000000 -1.000000 0.984375 0.763672 1 0 1.0
phy
0 0.242484 0.056000 -5.183774 -0.000000 -0.654785 0.755859 0.984375 0.763672 1 0 1.0
0 -0.242490 0.056000 -5.183774 -0.000000 -0.654785 0.755859 0.984375 0.763672 1 0 1.0
0 -0.169744 0.007503 -5.225773 -0.000000 -0.654785 0.755859 0.984375 0.763672 1 0 1.0
phy
0 0.169738 0.007503 -5.225773 -0.000000 -0.654785 0.755859 0.984375 0.763672 1 0 1.0
0 0.242484 0.056000 -5.183774 -0.000000 -0.654785 0.755859 0.984375 0.763672 1 0 1.0
0 -0.169744 0.007503 -5.225773 -0.000000 -0.654785 0.755859 0.984375 0.763672 1 0 1.0
phy
0 -0.000003 0.104497 -5.519773 0.654785 0.654785 -0.377930 0.984375 0.763672 1 0 1.0
0 0.169738 0.104497 -5.225773 0.654785 0.654785 -0.377930 0.984375 0.763672 1 0 1.0
0 0.242484 0.056000 -5.183774 0.654785 0.654785 -0.377930 0.984375 0.763672 1 0 1.0
phy
0 -0.000003 0.056000 -5.603774 0.654785 0.654785 -0.377930 0.984375 0.763672 1 0 1.0
0 -0.000003 0.104497 -5.519773 0.654785 0.654785 -0.377930 0.984375 0.763672 1 0 1.0
0 0.242484 0.056000 -5.183774 0.654785 0.654785 -0.377930 0.984375 0.763672 1 0 1.0
phy
0 -0.000003 0.007503 -5.519773 -0.866211 0.000000 0.500000 0.984375 0.763672 1 0 1.0
0 0.169738 0.007503 -5.225773 -0.866211 0.000000 0.500000 0.984375 0.763672 1 0 1.0
0 0.169738 0.104497 -5.225773 -0.866211 0.000000 0.500000 0.984375 0.763672 1 0 1.0
phy
0 -0.000003 0.104497 -5.519773 -0.866211 0.000000 0.500000 0.984375 0.763672 1 0 1.0
0 -0.000003 0.007503 -5.519773 -0.866211 0.000000 0.500000 0.984375 0.763672 1 0 1.0
0 0.169738 0.104497 -5.225773 -0.866211 0.000000 0.500000 0.984375 0.763672 1 0 1.0
phy
0 -0.000003 0.056000 -5.603774 0.654785 -0.654785 -0.377930 0.984375 0.763672 1 0 1.0
0 0.242484 0.056000 -5.183774 0.654785 -0.654785 -0.377930 0.984375 0.763672 1 0 1.0
0 0.169738 0.007503 -5.225773 0.654785 -0.654785 -0.377930 0.984375 0.763672 1 0 1.0
phy
0 -0.000003 0.007503 -5.519773 0.654785 -0.654785 -0.377930 0.984375 0.763672 1 0 1.0
0 -0.000003 0.056000 -5.603774 0.654785 -0.654785 -0.377930 0.984375 0.763672 1 0 1.0
0 0.169738 0.007503 -5.225773 0.654785 -0.654785 -0.377930 0.984375 0.763672 1 0 1.0
phy
0 0.000000 0.263023 -6.809858 0.765137 -0.457520 -0.453369 0.984375 0.763672 1 0 1.0
0 0.043648 0.288223 -6.761646 0.765137 -0.457520 -0.453369 0.984375 0.763672 1 0 1.0
0 0.043648 0.092325 -6.563917 0.766113 -0.450439 -0.458252 0.984375 0.763672 1 0 1.0
phy
0 0.000000 0.067125 -6.612129 0.766113 -0.450439 -0.458252 0.984375 0.763672 1 0 1.0
0 0.000000 0.263023 -6.809858 0.765137 -0.457520 -0.453369 0.984375 0.763672 1 0 1.0
0 0.043648 0.092325 -6.563917 0.766113 -0.450439 -0.458252 0.984375 0.763672 1 0 1.0
phy
0 0.000000 0.016725 -6.563917 0.767578 -0.443115 -0.463135 0.984375 0.763672 1 0 1.0
0 0.000000 0.067125 -6.612129 0.766113 -0.450439 -0.458252 0.984375 0.763672 1 0 1.0
0 0.043648 0.092325 -6.563917 0.766113 -0.450439 -0.458252 0.984375 0.763672 1 0 1.0
phy
0 0.000000 0.016725 -6.563917 0.767578 -0.443115 -0.463135 0.984375 0.763672 1 0 1.0
0 -0.169653 -0.081224 -6.761646 0.778809 -0.433594 -0.453369 0.984375 0.763672 1 0 1.0
0 0.000000 0.067125 -6.612129 0.766113 -0.450439 -0.458252 0.984375 0.763672 1 0 1.0
phy
0 -0.169653 -0.081224 -6.761646 0.778809 -0.433594 -0.453369 0.984375 0.763672 1 0 1.0
0 -0.169653 -0.030824 -6.809858 0.778809 -0.433594 -0.453369 0.984375 0.763672 1 0 1.0
0 0.000000 0.067125 -6.612129 0.766113 -0.450439 -0.458252 0.984375 0.763672 1 0 1.0
phy
0 0.000000 0.016725 -6.563917 0.866211 -0.500000 0.000000 0.984375 0.763672 1 0 1.0
0 0.043648 0.092325 -6.563917 0.866211 -0.500000 0.000000 0.984375 0.763672 1 0 1.0
0 0.043648 0.092325 -5.447069 0.866211 -0.500000 0.000000 0.984375 0.763672 1 0 1.0
phy
0 0.000000 0.016725 -5.447069 0.866211 -0.500000 0.000000 0.984375 0.763672 1 0 1.0
0 0.000000 0.016725 -6.563917 0.866211 -0.500000 0.000000 0.984375 0.763672 1 0 1.0
0 0.043648 0.092325 -5.447069 0.866211 -0.500000 0.000000 0.984375 0.763672 1 0 1.0
phy
0 0.043648 0.092325 -6.563917 -0.000000 1.000000 0.000000 0.984375 0.763672 1 0 1.0
0 -0.043648 0.092325 -6.563917 -0.000000 1.000000 0.000000 0.984375 0.763672 1 0 1.0
0 -0.043648 0.092325 -5.447069 -0.000000 1.000000 0.000000 0.984375 0.763672 1 0 1.0
phy
0 0.043648 0.092325 -5.447069 -0.000000 1.000000 0.000000 0.984375 0.763672 1 0 1.0
0 0.043648 0.092325 -6.563917 -0.000000 1.000000 0.000000 0.984375 0.763672 1 0 1.0
0 -0.043648 0.092325 -5.447069 -0.000000 1.000000 0.000000 0.984375 0.763672 1 0 1.0
phy
0 -0.043648 0.092325 -6.563917 -0.866211 -0.500000 0.000000 0.984375 0.763672 1 0 1.0
0 0.000000 0.016725 -6.563917 -0.866211 -0.500000 0.000000 0.984375 0.763672 1 0 1.0
0 0.000000 0.016725 -5.447069 -0.866211 -0.500000 0.000000 0.984375 0.763672 1 0 1.0
phy
0 -0.043648 0.092325 -5.447069 -0.866211 -0.500000 0.000000 0.984375 0.763672 1 0 1.0
0 -0.043648 0.092325 -6.563917 -0.866211 -0.500000 0.000000 0.984375 0.763672 1 0 1.0
0 0.000000 0.016725 -5.447069 -0.866211 -0.500000 0.000000 0.984375 0.763672 1 0 1.0
phy
0 0.000000 0.507726 -6.823650 0.764648 -0.029892 -0.644043 0.984375 0.763672 1 0 1.0
0 0.043648 0.505444 -6.769297 0.764648 -0.029892 -0.644043 0.984375 0.763672 1 0 1.0
0 0.043648 0.288223 -6.761646 0.764648 -0.029892 -0.644043 0.984375 0.763672 1 0 1.0
phy
0 0.000000 0.263023 -6.809858 0.764648 -0.029892 -0.644043 0.984375 0.763672 1 0 1.0
0 0.000000 0.507726 -6.823650 0.764648 -0.029892 -0.644043 0.984375 0.763672 1 0 1.0
0 0.043648 0.288223 -6.761646 0.764648 -0.029892 -0.644043 0.984375 0.763672 1 0 1.0
phy
0 -0.043648 0.288223 -6.761646 -0.765137 -0.457520 -0.453369 0.984375 0.763672 1 0 1.0
0 0.000000 0.263023 -6.809858 -0.765137 -0.457520 -0.453369 0.984375 0.763672 1 0 1.0
0 0.000000 0.067125 -6.612129 -0.766113 -0.450439 -0.458252 0.984375 0.763672 1 0 1.0
phy
0 -0.043648 0.092325 -6.563917 -0.766113 -0.450439 -0.458252 0.984375 0.763672 1 0 1.0
0 -0.043648 0.288223 -6.761646 -0.765137 -0.457520 -0.453369 0.984375 0.763672 1 0 1.0
0 0.000000 0.067125 -6.612129 -0.766113 -0.450439 -0.458252 0.984375 0.763672 1 0 1.0
phy
0 -0.043648 0.092325 -6.563917 -0.766113 -0.450439 -0.458252 0.984375 0.763672 1 0 1.0
0 0.000000 0.067125 -6.612129 -0.766113 -0.450439 -0.458252 0.984375 0.763672 1 0 1.0
0 0.000000 0.016725 -6.563917 -0.767578 -0.443115 -0.463135 0.984375 0.763672 1 0 1.0
phy
0 0.000000 0.067125 -6.612129 -0.766113 -0.450439 -0.458252 0.984375 0.763672 1 0 1.0
0 0.169653 -0.030824 -6.809858 -0.778809 -0.433594 -0.453369 0.984375 0.763672 1 0 1.0
0 0.000000 0.016725 -6.563917 -0.767578 -0.443115 -0.463135 0.984375 0.763672 1 0 1.0
phy
0 0.169653 -0.030824 -6.809858 -0.778809 -0.433594 -0.453369 0.984375 0.763672 1 0 1.0
0 0.169653 -0.081224 -6.761646 -0.778809 -0.433594 -0.453369 0.984375 0.763672 1 0 1.0
0 0.000000 0.016725 -6.563917 -0.767578 -0.443115 -0.463135 0.984375 0.763672 1 0 1.0
phy
0 0.043648 0.288223 -6.761646 -0.000000 0.710449 0.703613 0.984375 0.763672 1 0 1.0
0 -0.043648 0.288223 -6.761646 -0.000000 0.710449 0.703613 0.984375 0.763672 1 0 1.0
0 -0.043648 0.092325 -6.563917 -0.000000 0.710449 0.703613 0.984375 0.763672 1 0 1.0
phy
0 0.043648 0.092325 -6.563917 -0.000000 0.710449 0.703613 0.984375 0.763672 1 0 1.0
0 0.043648 0.288223 -6.761646 -0.000000 0.710449 0.703613 0.984375 0.763672 1 0 1.0
0 -0.043648 0.092325 -6.563917 -0.000000 0.710449 0.703613 0.984375 0.763672 1 0 1.0
phy
0 0.000000 0.702364 -6.694536 0.724609 0.379150 -0.575684 0.984375 0.763672 1 0 1.0
0 0.043648 0.652139 -6.673634 0.724609 0.379150 -0.575684 0.984375 0.763672 1 0 1.0
0 0.043648 0.505444 -6.769297 0.724609 0.379150 -0.575684 0.984375 0.763672 1 0 1.0
phy
0 0.000000 0.507726 -6.823650 0.724609 0.379150 -0.575684 0.984375 0.763672 1 0 1.0
0 0.000000 0.702364 -6.694536 0.724609 0.379150 -0.575684 0.984375 0.763672 1 0 1.0
0 0.043648 0.505444 -6.769297 0.724609 0.379150 -0.575684 0.984375 0.763672 1 0 1.0
phy
0 -0.043648 0.505444 -6.769297 -0.764648 -0.029892 -0.644043 0.984375 0.763672 1 0 1.0
0 0.000000 0.507726 -6.823650 -0.764648 -0.029892 -0.644043 0.984375 0.763672 1 0 1.0
0 0.000000 0.263023 -6.809858 -0.764648 -0.029892 -0.644043 0.984375 0.763672 1 0 1.0
phy
0 -0.043648 0.288223 -6.761646 -0.764648 -0.029892 -0.644043 0.984375 0.763672 1 0 1.0
0 -0.043648 0.505444 -6.769297 -0.764648 -0.029892 -0.644043 0.984375 0.763672 1 0 1.0
0 0.000000 0.263023 -6.809858 -0.764648 -0.029892 -0.644043 0.984375 0.763672 1 0 1.0
phy
0 0.043648 0.505444 -6.769297 -0.000000 0.035187 0.999512 0.984375 0.763672 1 0 1.0
0 -0.043648 0.505444 -6.769297 -0.000000 0.035187 0.999512 0.984375 0.763672 1 0 1.0
0 -0.043648 0.288223 -6.761646 -0.000000 0.035187 0.999512 0.984375 0.763672 1 0 1.0
phy
0 0.043648 0.288223 -6.761646 -0.000000 0.035187 0.999512 0.984375 0.763672 1 0 1.0
0 0.043648 0.505444 -6.769297 -0.000000 0.035187 0.999512 0.984375 0.763672 1 0 1.0
0 -0.043648 0.288223 -6.761646 -0.000000 0.035187 0.999512 0.984375 0.763672 1 0 1.0
phy
0 -0.043648 0.652139 -6.673634 -0.724609 0.379150 -0.575684 0.984375 0.763672 1 0 1.0
0 0.000000 0.702364 -6.694536 -0.724609 0.379150 -0.575684 0.984375 0.763672 1 0 1.0
0 0.000000 0.507726 -6.823650 -0.724609 0.379150 -0.575684 0.984375 0.763672 1 0 1.0
phy
0 -0.043648 0.505444 -6.769297 -0.724609 0.379150 -0.575684 0.984375 0.763672 1 0 1.0
0 -0.043648 0.652139 -6.673634 -0.724609 0.379150 -0.575684 0.984375 0.763672 1 0 1.0
0 0.000000 0.507726 -6.823650 -0.724609 0.379150 -0.575684 0.984375 0.763672 1 0 1.0
phy
0 0.043648 0.652139 -6.673634 -0.000000 -0.546387 0.837402 0.984375 0.763672 1 0 1.0
0 -0.043648 0.652139 -6.673634 -0.000000 -0.546387 0.837402 0.984375 0.763672 1 0 1.0
0 -0.043648 0.505444 -6.769297 -0.000000 -0.546387 0.837402 0.984375 0.763672 1 0 1.0
phy
0 0.043648 0.505444 -6.769297 -0.000000 -0.546387 0.837402 0.984375 0.763672 1 0 1.0
0 0.043648 0.652139 -6.673634 -0.000000 -0.546387 0.837402 0.984375 0.763672 1 0 1.0
0 -0.043648 0.505444 -6.769297 -0.000000 -0.546387 0.837402 0.984375 0.763672 1 0 1.0
phy
0 0.043648 0.665070 -6.375667 -0.000000 -0.999023 0.043365 0.984375 0.763672 1 0 1.0
0 -0.043648 0.665070 -6.375667 -0.000000 -0.999023 0.043365 0.984375 0.763672 1 0 1.0
0 -0.043648 0.652139 -6.673634 -0.000000 -0.999023 0.043365 0.984375 0.763672 1 0 1.0
phy
0 0.043648 0.652139 -6.673634 -0.000000 -0.999023 0.043365 0.984375 0.763672 1 0 1.0
0 0.043648 0.665070 -6.375667 -0.000000 -0.999023 0.043365 0.984375 0.763672 1 0 1.0
0 -0.043648 0.652139 -6.673634 -0.000000 -0.999023 0.043365 0.984375 0.763672 1 0 1.0
phy
0 0.017459 0.682903 -6.214767 -0.000000 -0.946777 0.321777 0.984375 0.763672 1 0 1.0
0 -0.017459 0.682903 -6.214767 -0.000000 -0.946777 0.321777 0.984375 0.763672 1 0 1.0
0 -0.043648 0.581096 -6.514452 -0.000000 -0.946777 0.321777 0.984375 0.763672 1 0 1.0
phy
0 0.043648 0.581096 -6.514452 -0.000000 -0.946777 0.321777 0.984375 0.763672 1 0 1.0
0 0.017459 0.682903 -6.214767 -0.000000 -0.946777 0.321777 0.984375 0.763672 1 0 1.0
0 -0.043648 0.581096 -6.514452 -0.000000 -0.946777 0.321777 0.984375 0.763672 1 0 1.0
phy
0 0.043648 0.581096 -6.514452 -0.000000 0.855469 -0.517578 0.984375 0.763672 1 0 1.0
0 -0.043648 0.581096 -6.514452 -0.000000 0.855469 -0.517578 0.984375 0.763672 1 0 1.0
0 -0.043648 0.665070 -6.375667 -0.000000 0.855469 -0.517578 0.984375 0.763672 1 0 1.0
phy
0 0.043648 0.665070 -6.375667 -0.000000 0.855469 -0.517578 0.984375 0.763672 1 0 1.0
0 0.043648 0.581096 -6.514452 -0.000000 0.855469 -0.517578 0.984375 0.763672 1 0 1.0
0 -0.043648 0.665070 -6.375667 -0.000000 0.855469 -0.517578 0.984375 0.763672 1 0 1.0
phy
0 -0.169653 -0.030824 -6.809858 0.013809 0.891113 -0.453369 0.984375 0.763672 1 0 1.0
0 -0.213301 -0.005624 -6.761646 0.013809 0.891113 -0.453369 0.984375 0.763672 1 0 1.0
0 -0.043648 0.092325 -6.563917 0.013809 0.891113 -0.453369 0.984375 0.763672 1 0 1.0
phy
0 0.000000 0.067125 -6.612129 0.013809 0.891113 -0.453369 0.984375 0.763672 1 0 1.0
0 -0.169653 -0.030824 -6.809858 0.013809 0.891113 -0.453369 0.984375 0.763672 1 0 1.0
0 -0.043648 0.092325 -6.563917 0.013809 0.891113 -0.453369 0.984375 0.763672 1 0 1.0
phy
0 0.213301 -0.005624 -6.761646 -0.013809 0.891113 -0.453369 0.984375 0.763672 1 0 1.0
0 0.169653 -0.030824 -6.809858 -0.013809 0.891113 -0.453369 0.984375 0.763672 1 0 1.0
0 0.000000 0.067125 -6.612129 0.013809 0.891113 -0.453369 0.984375 0.763672 1 0 1.0
phy
0 0.043648 0.092325 -6.563917 -0.013809 0.891113 -0.453369 0.984375 0.763672 1 0 1.0
0 0.213301 -0.005624 -6.761646 -0.013809 0.891113 -0.453369 0.984375 0.763672 1 0 1.0
0 0.000000 0.067125 -6.612129 0.013809 0.891113 -0.453369 0.984375 0.763672 1 0 1.0
phy
0 -0.381572 -0.153176 -6.823650 -0.356445 0.676758 -0.644043 0.984375 0.763672 1 0 1.0
0 -0.401419 -0.114235 -6.769297 -0.356445 0.676758 -0.644043 0.984375 0.763672 1 0 1.0
0 -0.213301 -0.005624 -6.761646 -0.356445 0.676758 -0.644043 0.984375 0.763672 1 0 1.0
phy
0 -0.169653 -0.030824 -6.809858 -0.356445 0.676758 -0.644043 0.984375 0.763672 1 0 1.0
0 -0.381572 -0.153176 -6.823650 -0.356445 0.676758 -0.644043 0.984375 0.763672 1 0 1.0
0 -0.213301 -0.005624 -6.761646 -0.356445 0.676758 -0.644043 0.984375 0.763672 1 0 1.0
phy
0 -0.213301 -0.005624 -6.761646 -0.615234 -0.355225 0.703613 0.984375 0.763672 1 0 1.0
0 -0.169653 -0.081224 -6.761646 -0.615234 -0.355225 0.703613 0.984375 0.763672 1 0 1.0
0 0.000000 0.016725 -6.563917 -0.615234 -0.355225 0.703613 0.984375 0.763672 1 0 1.0
phy
0 -0.043648 0.092325 -6.563917 -0.615234 -0.355225 0.703613 0.984375 0.763672 1 0 1.0
0 -0.213301 -0.005624 -6.761646 -0.615234 -0.355225 0.703613 0.984375 0.763672 1 0 1.0
0 0.000000 0.016725 -6.563917 -0.615234 -0.355225 0.703613 0.984375 0.763672 1 0 1.0
phy
0 -0.550133 -0.250494 -6.694536 -0.690430 0.437744 -0.575684 0.984375 0.763672 1 0 1.0
0 -0.528461 -0.187582 -6.673634 -0.690430 0.437744 -0.575684 0.984375 0.763672 1 0 1.0
0 -0.401419 -0.114235 -6.769297 -0.690430 0.437744 -0.575684 0.984375 0.763672 1 0 1.0
phy
0 -0.381572 -0.153176 -6.823650 -0.690430 0.437744 -0.575684 0.984375 0.763672 1 0 1.0
0 -0.550133 -0.250494 -6.694536 -0.690430 0.437744 -0.575684 0.984375 0.763672 1 0 1.0
0 -0.401419 -0.114235 -6.769297 -0.690430 0.437744 -0.575684 0.984375 0.763672 1 0 1.0
phy
0 -0.357772 -0.189835 -6.769297 0.408203 -0.646973 -0.644043 0.984375 0.763672 1 0 1.0
0 -0.381572 -0.153176 -6.823650 0.408203 -0.646973 -0.644043 0.984375 0.763672 1 0 1.0
0 -0.169653 -0.030824 -6.809858 0.408203 -0.646973 -0.644043 0.984375 0.763672 1 0 1.0
phy
0 -0.169653 -0.081224 -6.761646 0.408203 -0.646973 -0.644043 0.984375 0.763672 1 0 1.0
0 -0.357772 -0.189835 -6.769297 0.408203 -0.646973 -0.644043 0.984375 0.763672 1 0 1.0
0 -0.169653 -0.030824 -6.809858 0.408203 -0.646973 -0.644043 0.984375 0.763672 1 0 1.0
phy
0 -0.401419 -0.114235 -6.769297 -0.030487 -0.017593 0.999512 0.984375 0.763672 1 0 1.0
0 -0.357772 -0.189835 -6.769297 -0.030487 -0.017593 0.999512 0.984375 0.763672 1 0 1.0
0 -0.169653 -0.081224 -6.761646 -0.030487 -0.017593 0.999512 0.984375 0.763672 1 0 1.0
phy
0 -0.213301 -0.005624 -6.761646 -0.030487 -0.017593 0.999512 0.984375 0.763672 1 0 1.0
0 -0.401419 -0.114235 -6.769297 -0.030487 -0.017593 0.999512 0.984375 0.763672 1 0 1.0
0 -0.169653 -0.081224 -6.761646 -0.030487 -0.017593 0.999512 0.984375 0.763672 1 0 1.0
phy
0 -0.550133 -0.250494 -6.694536 -0.938965 0.343994 -0.001924 0.984375 0.763672 1 0 1.0
0 -0.552108 -0.251635 -6.213854 -0.932129 0.362061 -0.002972 0.984375 0.763672 1 0 1.0
0 -0.542009 -0.225644 -6.214767 -0.938965 0.343994 -0.001924 0.984375 0.763672 1 0 1.0
phy
0 -0.542009 -0.225644 -6.214767 -0.938965 0.343994 -0.001924 0.984375 0.763672 1 0 1.0
0 -0.528461 -0.187582 -6.673634 -0.945312 0.325928 -0.000875 0.984375 0.763672 1 0 1.0
0 -0.550133 -0.250494 -6.694536 -0.938965 0.343994 -0.001924 0.984375 0.763672 1 0 1.0
phy
0 -0.484813 -0.263182 -6.673634 0.033844 -0.816895 -0.575684 0.984375 0.763672 1 0 1.0
0 -0.550133 -0.250494 -6.694536 0.033844 -0.816895 -0.575684 0.984375 0.763672 1 0 1.0
0 -0.381572 -0.153176 -6.823650 0.033844 -0.816895 -0.575684 0.984375 0.763672 1 0 1.0
phy
0 -0.357772 -0.189835 -6.769297 0.033844 -0.816895 -0.575684 0.984375 0.763672 1 0 1.0
0 -0.484813 -0.263182 -6.673634 0.033844 -0.816895 -0.575684 0.984375 0.763672 1 0 1.0
0 -0.381572 -0.153176 -6.823650 0.033844 -0.816895 -0.575684 0.984375 0.763672 1 0 1.0
phy
0 -0.528461 -0.187582 -6.673634 0.473145 0.273193 0.837402 0.984375 0.763672 1 0 1.0
0 -0.484813 -0.263182 -6.673634 0.473145 0.273193 0.837402 0.984375 0.763672 1 0 1.0
0 -0.357772 -0.189835 -6.769297 0.473145 0.273193 0.837402 0.984375 0.763672 1 0 1.0
phy
0 -0.401419 -0.114235 -6.769297 0.473145 0.273193 0.837402 0.984375 0.763672 1 0 1.0
0 -0.528461 -0.187582 -6.673634 0.473145 0.273193 0.837402 0.984375 0.763672 1 0 1.0
0 -0.357772 -0.189835 -6.769297 0.473145 0.273193 0.837402 0.984375 0.763672 1 0 1.0
phy
0 -0.539659 -0.194047 -6.375667 0.865234 0.499512 0.043365 0.984375 0.763672 1 0 1.0
0 -0.496012 -0.269647 -6.375667 0.865234 0.499512 0.043365 0.984375 0.763672 1 0 1.0
0 -0.484813 -0.263182 -6.673634 0.865234 0.499512 0.043365 0.984375 0.763672 1 0 1.0
phy
0 -0.528461 -0.187582 -6.673634 0.865234 0.499512 0.043365 0.984375 0.763672 1 0 1.0
0 -0.539659 -0.194047 -6.375667 0.865234 0.499512 0.043365 0.984375 0.763672 1 0 1.0
0 -0.484813 -0.263182 -6.673634 0.865234 0.499512 0.043365 0.984375 0.763672 1 0 1.0
phy
0 -0.542009 -0.225644 -6.214767 0.819824 0.473389 0.321777 0.984375 0.763672 1 0 1.0
0 -0.524550 -0.255884 -6.214767 0.819824 0.473389 0.321777 0.984375 0.763672 1 0 1.0
0 -0.423288 -0.227661 -6.514452 0.819824 0.473389 0.321777 0.984375 0.763672 1 0 1.0
phy
0 -0.466936 -0.152061 -6.514452 0.819824 0.473389 0.321777 0.984375 0.763672 1 0 1.0
0 -0.542009 -0.225644 -6.214767 0.819824 0.473389 0.321777 0.984375 0.763672 1 0 1.0
0 -0.423288 -0.227661 -6.514452 0.819824 0.473389 0.321777 0.984375 0.763672 1 0 1.0
phy
0 -0.466936 -0.152061 -6.514452 -0.740723 -0.427734 -0.517578 0.984375 0.763672 1 0 1.0
0 -0.423288 -0.227661 -6.514452 -0.740723 -0.427734 -0.517578 0.984375 0.763672 1 0 1.0
0 -0.496012 -0.269647 -6.375667 -0.740723 -0.427734 -0.517578 0.984375 0.763672 1 0 1.0
phy
0 -0.539659 -0.194047 -6.375667 -0.740723 -0.427734 -0.517578 0.984375 0.763672 1 0 1.0
0 -0.466936 -0.152061 -6.514452 -0.740723 -0.427734 -0.517578 0.984375 0.763672 1 0 1.0
0 -0.496012 -0.269647 -6.375667 -0.740723 -0.427734 -0.517578 0.984375 0.763672 1 0 1.0
phy
0 0.381572 -0.153176 -6.823650 -0.408203 -0.646973 -0.644043 0.984375 0.763672 1 0 1.0
0 0.357772 -0.189835 -6.769297 -0.408203 -0.646973 -0.644043 0.984375 0.763672 1 0 1.0
0 0.169653 -0.081224 -6.761646 -0.408203 -0.646973 -0.644043 0.984375 0.763672 1 0 1.0
phy
0 0.169653 -0.030824 -6.809858 -0.408203 -0.646973 -0.644043 0.984375 0.763672 1 0 1.0
0 0.381572 -0.153176 -6.823650 -0.408203 -0.646973 -0.644043 0.984375 0.763672 1 0 1.0
0 0.169653 -0.081224 -6.761646 -0.408203 -0.646973 -0.644043 0.984375 0.763672 1 0 1.0
phy
0 0.169653 -0.081224 -6.761646 0.615234 -0.355225 0.703613 0.984375 0.763672 1 0 1.0
0 0.213301 -0.005624 -6.761646 0.615234 -0.355225 0.703613 0.984375 0.763672 1 0 1.0
0 0.043648 0.092325 -6.563917 0.615234 -0.355225 0.703613 0.984375 0.763672 1 0 1.0
phy
0 0.000000 0.016725 -6.563917 0.615234 -0.355225 0.703613 0.984375 0.763672 1 0 1.0
0 0.169653 -0.081224 -6.761646 0.615234 -0.355225 0.703613 0.984375 0.763672 1 0 1.0
0 0.043648 0.092325 -6.563917 0.615234 -0.355225 0.703613 0.984375 0.763672 1 0 1.0
phy
0 0.550133 -0.250495 -6.694536 -0.033844 -0.816895 -0.575684 0.984375 0.763672 1 0 1.0
0 0.484813 -0.263182 -6.673634 -0.033844 -0.816895 -0.575684 0.984375 0.763672 1 0 1.0
0 0.357772 -0.189835 -6.769297 -0.033844 -0.816895 -0.575684 0.984375 0.763672 1 0 1.0
phy
0 0.381572 -0.153176 -6.823650 -0.033844 -0.816895 -0.575684 0.984375 0.763672 1 0 1.0
0 0.550133 -0.250495 -6.694536 -0.033844 -0.816895 -0.575684 0.984375 0.763672 1 0 1.0
0 0.357772 -0.189835 -6.769297 -0.033844 -0.816895 -0.575684 0.984375 0.763672 1 0 1.0
phy
0 0.401419 -0.114235 -6.769297 0.356445 0.676758 -0.644043 0.984375 0.763672 1 0 1.0
0 0.381572 -0.153176 -6.823650 0.356445 0.676758 -0.644043 0.984375 0.763672 1 0 1.0
0 0.169653 -0.030824 -6.809858 0.356445 0.676758 -0.644043 0.984375 0.763672 1 0 1.0
phy
0 0.213301 -0.005624 -6.761646 0.356445 0.676758 -0.644043 0.984375 0.763672 1 0 1.0
0 0.401419 -0.114235 -6.769297 0.356445 0.676758 -0.644043 0.984375 0.763672 1 0 1.0
0 0.169653 -0.030824 -6.809858 0.356445 0.676758 -0.644043 0.984375 0.763672 1 0 1.0
phy
0 0.357772 -0.189835 -6.769297 0.030487 -0.017593 0.999512 0.984375 0.763672 1 0 1.0
0 0.401419 -0.114235 -6.769297 0.030487 -0.017593 0.999512 0.984375 0.763672 1 0 1.0
0 0.213301 -0.005624 -6.761646 0.030487 -0.017593 0.999512 0.984375 0.763672 1 0 1.0
phy
0 0.169653 -0.081224 -6.761646 0.030487 -0.017593 0.999512 0.984375 0.763672 1 0 1.0
0 0.357772 -0.189835 -6.769297 0.030487 -0.017593 0.999512 0.984375 0.763672 1 0 1.0
0 0.213301 -0.005624 -6.761646 0.030487 -0.017593 0.999512 0.984375 0.763672 1 0 1.0
phy
0 0.528461 -0.187582 -6.673634 0.690430 0.437744 -0.575684 0.984375 0.763672 1 0 1.0
0 0.550133 -0.250495 -6.694536 0.690430 0.437744 -0.575684 0.984375 0.763672 1 0 1.0
0 0.381572 -0.153176 -6.823650 0.690430 0.437744 -0.575684 0.984375 0.763672 1 0 1.0
phy
0 0.401419 -0.114235 -6.769297 0.690430 0.437744 -0.575684 0.984375 0.763672 1 0 1.0
0 0.528461 -0.187582 -6.673634 0.690430 0.437744 -0.575684 0.984375 0.763672 1 0 1.0
0 0.381572 -0.153176 -6.823650 0.690430 0.437744 -0.575684 0.984375 0.763672 1 0 1.0
phy
0 0.484813 -0.263182 -6.673634 -0.473145 0.273193 0.837402 0.984375 0.763672 1 0 1.0
0 0.528461 -0.187582 -6.673634 -0.473145 0.273193 0.837402 0.984375 0.763672 1 0 1.0
0 0.401419 -0.114235 -6.769297 -0.473145 0.273193 0.837402 0.984375 0.763672 1 0 1.0
phy
0 0.357772 -0.189835 -6.769297 -0.473145 0.273193 0.837402 0.984375 0.763672 1 0 1.0
0 0.484813 -0.263182 -6.673634 -0.473145 0.273193 0.837402 0.984375 0.763672 1 0 1.0
0 0.401419 -0.114235 -6.769297 -0.473145 0.273193 0.837402 0.984375 0.763672 1 0 1.0
phy
0 0.542009 -0.225644 -6.214767 0.938965 0.343994 -0.001924 0.984375 0.763672 1 0 1.0
0 0.552108 -0.251635 -6.213854 0.932129 0.362061 -0.002972 0.984375 0.763672 1 0 1.0
0 0.550133 -0.250495 -6.694536 0.938965 0.343994 -0.001924 0.984375 0.763672 1 0 1.0
phy
0 0.550133 -0.250495 -6.694536 0.938965 0.343994 -0.001924 0.984375 0.763672 1 0 1.0
0 0.528461 -0.187582 -6.673634 0.945312 0.325928 -0.000875 0.984375 0.763672 1 0 1.0
0 0.542009 -0.225644 -6.214767 0.938965 0.343994 -0.001924 0.984375 0.763672 1 0 1.0
phy
0 0.496012 -0.269648 -6.375667 -0.865234 0.499512 0.043365 0.984375 0.763672 1 0 1.0
0 0.539659 -0.194048 -6.375667 -0.865234 0.499512 0.043365 0.984375 0.763672 1 0 1.0
0 0.528461 -0.187582 -6.673634 -0.865234 0.499512 0.043365 0.984375 0.763672 1 0 1.0
phy
0 0.484813 -0.263182 -6.673634 -0.865234 0.499512 0.043365 0.984375 0.763672 1 0 1.0
0 0.496012 -0.269648 -6.375667 -0.865234 0.499512 0.043365 0.984375 0.763672 1 0 1.0
0 0.528461 -0.187582 -6.673634 -0.865234 0.499512 0.043365 0.984375 0.763672 1 0 1.0
phy
0 0.524550 -0.255884 -6.214767 -0.819824 0.473389 0.321777 0.984375 0.763672 1 0 1.0
0 0.542009 -0.225644 -6.214767 -0.819824 0.473389 0.321777 0.984375 0.763672 1 0 1.0
0 0.466936 -0.152061 -6.514452 -0.819824 0.473389 0.321777 0.984375 0.763672 1 0 1.0
phy
0 0.423288 -0.227661 -6.514452 -0.819824 0.473389 0.321777 0.984375 0.763672 1 0 1.0
0 0.524550 -0.255884 -6.214767 -0.819824 0.473389 0.321777 0.984375 0.763672 1 0 1.0
0 0.466936 -0.152061 -6.514452 -0.819824 0.473389 0.321777 0.984375 0.763672 1 0 1.0
phy
0 0.423288 -0.227661 -6.514452 0.740723 -0.427734 -0.517578 0.984375 0.763672 1 0 1.0
0 0.466936 -0.152061 -6.514452 0.740723 -0.427734 -0.517578 0.984375 0.763672 1 0 1.0
0 0.539659 -0.194048 -6.375667 0.740723 -0.427734 -0.517578 0.984375 0.763672 1 0 1.0
phy
0 0.496012 -0.269648 -6.375667 0.740723 -0.427734 -0.517578 0.984375 0.763672 1 0 1.0
0 0.423288 -0.227661 -6.514452 0.740723 -0.427734 -0.517578 0.984375 0.763672 1 0 1.0
0 0.539659 -0.194048 -6.375667 0.740723 -0.427734 -0.517578 0.984375 0.763672 1 0 1.0
phy
0 -0.363492 -0.002142 -1.447274 -0.867188 0.497314 0.017838 0.359863 0.737305 1 0 1.0
0 0.000000 0.599991 -1.268953 -0.867188 0.497314 0.017838 0.359863 0.737305 1 0 1.0
0 -0.360691 0.008717 -2.323660 -0.867676 0.496826 0.004017 0.359863 0.737305 1 0 1.0
phy
0 0.000000 0.599991 -1.268953 -0.867188 0.497314 0.017838 0.359863 0.737305 1 0 1.0
0 0.000000 0.664710 -2.364063 -0.867676 0.496826 0.004017 0.359863 0.737305 1 0 1.0
0 -0.360691 0.008717 -2.323660 -0.867676 0.496826 0.004017 0.359863 0.737305 1 0 1.0
phy
0 -0.360691 0.008717 -2.323660 -0.867676 0.496826 0.004017 0.359863 0.737305 1 0 1.0
0 0.000000 0.664710 -2.364063 -0.867676 0.496826 0.004017 0.359863 0.737305 1 0 1.0
0 -0.358002 0.019142 -3.324901 -0.868164 0.496094 -0.009796 0.359863 0.737305 1 0 1.0
phy
0 0.000000 0.664710 -2.364063 -0.867676 0.496826 0.004017 0.359863 0.737305 1 0 1.0
0 0.000000 0.617811 -3.448078 -0.868164 0.496094 -0.009796 0.359863 0.737305 1 0 1.0
0 -0.358002 0.019142 -3.324901 -0.868164 0.496094 -0.009796 0.359863 0.737305 1 0 1.0
phy
0 0.363492 -0.002142 -1.447274 0.869629 -0.493896 0.002636 0.362549 0.708496 1 0 1.0
0 -0.000000 -0.620280 -1.229509 0.869629 -0.493896 0.002636 0.362549 0.708496 1 0 1.0
0 0.360691 0.008717 -2.323660 0.865234 -0.501465 -0.014847 0.362549 0.708496 1 0 1.0
phy
0 -0.000000 -0.620280 -1.229509 0.869629 -0.493896 0.002636 0.362549 0.708496 1 0 1.0
0 -0.000000 -0.646843 -2.371665 0.865234 -0.501465 -0.014847 0.362549 0.708496 1 0 1.0
0 0.360691 0.008717 -2.323660 0.865234 -0.501465 -0.014847 0.362549 0.708496 1 0 1.0
phy
0 0.360691 0.008717 -2.323660 0.865234 -0.501465 -0.014847 0.362549 0.708496 1 0 1.0
0 -0.000000 -0.646843 -2.371665 0.865234 -0.501465 -0.014847 0.362549 0.708496 1 0 1.0
0 0.358002 0.019142 -3.324901 0.860352 -0.508789 -0.032318 0.362549 0.708496 1 0 1.0
phy
0 -0.000000 -0.646843 -2.371665 0.865234 -0.501465 -0.014847 0.362549 0.708496 1 0 1.0
0 -0.000000 -0.530606 -3.435429 0.860352 -0.508789 -0.032318 0.362549 0.708496 1 0 1.0
0 0.358002 0.019142 -3.324901 0.860352 -0.508789 -0.032318 0.362549 0.708496 1 0 1.0
phy
0 -0.000000 -0.620280 -1.229509 -0.869629 -0.493896 0.002636 0.362549 0.708496 1 0 1.0
0 -0.363492 -0.002142 -1.447274 -0.869629 -0.493896 0.002636 0.362549 0.708496 1 0 1.0
0 -0.000000 -0.646843 -2.371665 -0.865234 -0.501465 -0.014847 0.362549 0.708496 1 0 1.0
phy
0 -0.363492 -0.002142 -1.447274 -0.869629 -0.493896 0.002636 0.362549 0.708496 1 0 1.0
0 -0.360691 0.008717 -2.323660 -0.865234 -0.501465 -0.014847 0.362549 0.708496 1 0 1.0
0 -0.000000 -0.646843 -2.371665 -0.865234 -0.501465 -0.014847 0.362549 0.708496 1 0 1.0
phy
0 -0.000000 -0.646843 -2.371665 -0.865234 -0.501465 -0.014847 0.362549 0.708496 1 0 1.0
0 -0.360691 0.008717 -2.323660 -0.865234 -0.501465 -0.014847 0.362549 0.708496 1 0 1.0
0 -0.000000 -0.530606 -3.435429 -0.860352 -0.508789 -0.032318 0.362549 0.708496 1 0 1.0
phy
0 -0.360691 0.008717 -2.323660 -0.865234 -0.501465 -0.014847 0.362549 0.708496 1 0 1.0
0 -0.358002 0.019142 -3.324901 -0.860352 -0.508789 -0.032318 0.362549 0.708496 1 0 1.0
0 -0.000000 -0.530606 -3.435429 -0.860352 -0.508789 -0.032318 0.362549 0.708496 1 0 1.0
phy
0 0.000000 0.599991 -1.268953 0.867188 0.497314 0.017838 0.359863 0.737305 1 0 1.0
0 0.363492 -0.002142 -1.447274 0.867188 0.497314 0.017838 0.359863 0.737305 1 0 1.0
0 0.000000 0.664710 -2.364063 0.867676 0.496826 0.004017 0.359863 0.737305 1 0 1.0
phy
0 0.363492 -0.002142 -1.447274 0.867188 0.497314 0.017838 0.359863 0.737305 1 0 1.0
0 0.360691 0.008717 -2.323660 0.867676 0.496826 0.004017 0.359863 0.737305 1 0 1.0
0 0.000000 0.664710 -2.364063 0.867676 0.496826 0.004017 0.359863 0.737305 1 0 1.0
phy
0 0.000000 0.664710 -2.364063 0.867676 0.496826 0.004017 0.359863 0.737305 1 0 1.0
0 0.360691 0.008717 -2.323660 0.867676 0.496826 0.004017 0.359863 0.737305 1 0 1.0
0 0.000000 0.617811 -3.448078 0.868164 0.496094 -0.009796 0.359863 0.737305 1 0 1.0
phy
0 0.360691 0.008717 -2.323660 0.867676 0.496826 0.004017 0.359863 0.737305 1 0 1.0
0 0.358002 0.019142 -3.324901 0.868164 0.496094 -0.009796 0.359863 0.737305 1 0 1.0
0 0.000000 0.617811 -3.448078 0.868164 0.496094 -0.009796 0.359863 0.737305 1 0 1.0
end
