mtllib Standard Lure.mtl
g Standard Lure
usemtl Default
v 2.55017074E-09 0.0168890171 0.0818996131
v -2.78310049E-11 -0.00025751724 0.0986065716
v -0.00981983356 -0.000766322017 0.0818031058
v -1.14092313E-09 -0.00755599234 -0.0816167891
v 1.39714995E-09 0.00925290585 -0.0785057843
v -0.00700942567 0.000543335103 -0.0708801672
v 0.00700942567 0.000543333008 -0.0708801672
v 1.39714995E-09 0.00925290585 -0.0785057843
v -1.14092313E-09 -0.00755599234 -0.0816167891
v -3.19595195E-09 -0.0211658329 0.0827204138
v -2.78310049E-11 -0.00025751724 0.0986065716
v 0.00981983356 -0.000766324811 0.0818031058
v 0.00155884563 0.00329731964 -0.095931612
v 9.01926936E-11 0.000597319216 -0.095931612
v -0.0015588447 0.00329731964 -0.095931612
v 3.7876422E-09 0.0250844192 -0.14048399
v 0.00155884866 0.0232906714 -0.139737487
v 0.00155884889 0.0237524938 -0.129095808
v 0.00062354171 0.0243894029 -0.123349376
v 3.79994125E-09 0.0251658726 -0.123316772
v 0.00155884889 0.0237524938 -0.129095808
v 0.00062354171 0.0243894029 -0.123349376
v 3.7876422E-09 0.0250844192 -0.14048399
v -0.000623534492 0.0243894029 -0.123349376
v 3.79994125E-09 0.0251658726 -0.123316772
v 0.00062354171 0.0243894029 -0.123349376
v -0.00155884144 0.0237524938 -0.129095808
v -0.00155884167 0.0232906714 -0.139737487
v 3.7876422E-09 0.0250844192 -0.14048399
v 3.79994125E-09 0.0251658726 -0.123316772
v -0.000623534492 0.0243894029 -0.123349376
v 3.7876422E-09 0.0250844192 -0.14048399
v -0.000623534492 0.0243894029 -0.123349376
v -0.00155884144 0.0237524938 -0.129095808
v 0.00155884889 0.0237524938 -0.129095808
v 0.00155884842 0.0207534339 -0.134052441
v 0.00062354171 0.0243894029 -0.123349376
v -0.000623534492 0.0243894029 -0.123349376
v -0.0015588419 0.0207534339 -0.134052441
v -0.00155884144 0.0237524938 -0.129095808
v -0.0188735947 -0.00669935439 -0.139737487
v -0.0192735456 -0.00693026651 -0.129095808
v -0.0193574727 -0.0080587212 -0.123349376
v -0.0187339336 -0.00913872011 -0.123349376
v -0.0197181497 -0.00898695551 -0.123316772
v -0.0193574727 -0.0080587212 -0.123349376
v -0.0173147507 -0.00939935446 -0.139737487
v -0.0196476076 -0.00894622691 -0.14048399
v -0.0197181497 -0.00898695551 -0.123316772
v -0.0197181497 -0.00898695551 -0.123316772
v -0.0177147016 -0.00963026471 -0.129095808
v -0.0173147507 -0.00939935446 -0.139737487
v -0.0197181497 -0.00898695551 -0.123316772
v -0.0187339336 -0.00913872011 -0.123349376
v -0.0177147016 -0.00963026471 -0.129095808
v -0.0192735456 -0.00693026651 -0.129095808
v -0.0166762825 -0.00543073751 -0.134052441
v -0.0193574727 -0.0080587212 -0.123349376
v -0.0187339336 -0.00913872011 -0.123349376
v -0.0151174394 -0.00813073665 -0.134052441
v -0.0177147016 -0.00963026471 -0.129095808
v 0.019718146 -0.00898695923 -0.123316772
v 0.0196476039 -0.0089462325 -0.14048399
v 0.0173147507 -0.00939935818 -0.139737487
v 0.0173147507 -0.00939935818 -0.139737487
v 0.0177147016 -0.00963026844 -0.129095808
v 0.019718146 -0.00898695923 -0.123316772
v 0.0177147016 -0.00963026844 -0.129095808
v 0.0187339373 -0.0091387257 -0.123349376
v 0.019718146 -0.00898695923 -0.123316772
v 0.0193574727 -0.00805872492 -0.123349376
v 0.019718146 -0.00898695923 -0.123316772
v 0.0187339373 -0.0091387257 -0.123349376
v 0.0193574727 -0.00805872492 -0.123349376
v 0.0192735493 -0.00693027023 -0.129095808
v 0.0188735984 -0.00669935718 -0.139737487
v 0.0177147016 -0.00963026844 -0.129095808
v 0.0151174385 -0.00813073665 -0.134052441
v 0.0187339373 -0.0091387257 -0.123349376
v 0.0193574727 -0.00805872492 -0.123349376
v 0.0166762844 -0.00543073751 -0.134052441
v 0.0192735493 -0.00693027023 -0.129095808
v -1.11721254E-09 -0.00754961697 0.0554911196
v 0.00312600587 0.000956790522 0.0610189736
v -0.00818415359 -0.00229241187 0.0610189736
v -0.00818415359 -0.00229241187 0.0610189736
v -0.00818415545 -0.0128068216 0.0610189736
v -1.11721254E-09 -0.00754961697 0.0554911196
v -1.11721254E-09 -0.00754961697 0.0554911196
v 0.0101162419 -0.00754961791 0.0610189736
v 0.00312600587 0.000956790522 0.0610189736
v -1.11721254E-09 -0.00754961697 0.0554911196
v 0.00312600308 -0.0160560254 0.0610189736
v 0.0101162419 -0.00754961791 0.0610189736
v -1.11721254E-09 -0.00754961697 0.0554911196
v -0.00818415545 -0.0128068216 0.0610189736
v 0.00312600308 -0.0160560254 0.0610189736
v -0.00818415359 -0.00229241187 0.0610189736
v -0.0101162419 -0.00754961604 0.0699632764
v -0.00818415545 -0.0128068216 0.0610189736
v 0.00312600587 0.000956790522 0.0610189736
v -0.00312600494 0.000956791453 0.0699632764
v -0.00818415359 -0.00229241187 0.0610189736
v 0.0101162419 -0.00754961791 0.0610189736
v 0.00818415359 -0.00229241373 0.0699632764
v 0.00312600587 0.000956790522 0.0610189736
v 0.00312600308 -0.0160560254 0.0610189736
v 0.00818415172 -0.0128068216 0.0699632764
v 0.0101162419 -0.00754961791 0.0610189736
v -0.00818415545 -0.0128068216 0.0610189736
v -0.00312600774 -0.0160560254 0.0699632764
v 0.00312600308 -0.0160560254 0.0610189736
v -0.00818415359 -0.00229241187 0.0610189736
v -0.00312600494 0.000956791453 0.0699632764
v -0.0101162419 -0.00754961604 0.0699632764
v 0.00312600587 0.000956790522 0.0610189736
v 0.00818415359 -0.00229241373 0.0699632764
v -0.00312600494 0.000956791453 0.0699632764
v 0.0101162419 -0.00754961791 0.0610189736
v 0.00818415172 -0.0128068216 0.0699632764
v 0.00818415359 -0.00229241373 0.0699632764
v 0.00312600308 -0.0160560254 0.0610189736
v -0.00312600774 -0.0160560254 0.0699632764
v 0.00818415172 -0.0128068216 0.0699632764
v -0.00818415545 -0.0128068216 0.0610189736
v -0.0101162419 -0.00754961604 0.0699632764
v -0.00312600774 -0.0160560254 0.0699632764
v -0.00312600494 0.000956791453 0.0699632764
v -1.11721254E-09 -0.00754961697 0.0754911304
v -0.0101162419 -0.00754961604 0.0699632764
v 0.00818415359 -0.00229241373 0.0699632764
v -1.11721254E-09 -0.00754961697 0.0754911304
v -0.00312600494 0.000956791453 0.0699632764
v 0.00818415172 -0.0128068216 0.0699632764
v -1.11721254E-09 -0.00754961697 0.0754911304
v 0.00818415359 -0.00229241373 0.0699632764
v -0.00312600774 -0.0160560254 0.0699632764
v -1.11721254E-09 -0.00754961697 0.0754911304
v 0.00818415172 -0.0128068216 0.0699632764
v -0.0101162419 -0.00754961604 0.0699632764
v -1.11721254E-09 -0.00754961697 0.0754911304
v -0.00312600774 -0.0160560254 0.0699632764
v -0.00981983356 -0.000766322017 0.0818031058
v -2.78310049E-11 -0.00025751724 0.0986065716
v -3.19595195E-09 -0.0211658329 0.0827204138
v 0.00981983356 -0.000766324811 0.0818031058
v -2.78310049E-11 -0.00025751724 0.0986065716
v 2.55017074E-09 0.0168890171 0.0818996131
v 3.23557736E-09 0.021428261 0.0532868095
v 0.0129818413 -7.65137374E-05 0.0469182245
v 0.0129932957 -0.000120926576 0.0508361086
v 3.48720142E-09 0.0230946913 0.0591723546
v -3.34498762E-09 -0.0221528523 0.0546955317
v -0.0129818413 -7.65098375E-05 0.0469182245
v -0.0129932957 -0.000120922647 0.0508361086
v -3.55698337E-09 -0.0235568359 0.060413897
v 3.48720142E-09 0.0230946913 0.0591723546
v 0.0129932957 -0.000120926576 0.0508361086
v 0.00981983356 -0.000766324811 0.0818031058
v 2.55017074E-09 0.0168890171 0.0818996131
v -3.55698337E-09 -0.0235568359 0.060413897
v -0.0129932957 -0.000120922647 0.0508361086
v -0.00981983356 -0.000766322017 0.0818031058
v -3.19595195E-09 -0.0211658329 0.0827204138
v -1.14092313E-09 -0.00755599234 -0.0816167891
v -0.00700942567 0.000543335103 -0.0708801672
v -0.012785784 0.000683655962 -0.0201398954
v -2.86140156E-09 -0.0189502053 -0.0240873322
v 1.39714995E-09 0.00925290585 -0.0785057843
v 0.00700942567 0.000543333008 -0.0708801672
v 0.012785784 0.000683652237 -0.0201398954
v 3.33167627E-09 0.0220646951 -0.0245390758
v -0.00700942567 0.000543335103 -0.0708801672
v 1.39714995E-09 0.00925290585 -0.0785057843
v 3.33167627E-09 0.0220646951 -0.0245390758
v -0.012785784 0.000683655962 -0.0201398954
v 0.00700942567 0.000543333008 -0.0708801672
v -1.14092313E-09 -0.00755599234 -0.0816167891
v -2.86140156E-09 -0.0189502053 -0.0240873322
v 0.012785784 0.000683652237 -0.0201398954
v 0.0129932957 -0.000120926576 0.0508361086
v -3.55698337E-09 -0.0235568359 0.060413897
v -3.19595195E-09 -0.0211658329 0.0827204138
v 0.00981983356 -0.000766324811 0.0818031058
v -0.0129932957 -0.000120922647 0.0508361086
v 3.48720142E-09 0.0230946913 0.0591723546
v 2.55017074E-09 0.0168890171 0.0818996131
v -0.00981983356 -0.000766322017 0.0818031058
v 0.0129818413 -7.65137374E-05 0.0469182245
v -3.34498762E-09 -0.0221528523 0.0546955317
v -3.55698337E-09 -0.0235568359 0.060413897
v 0.0129932957 -0.000120926576 0.0508361086
v -0.0129818413 -7.65098375E-05 0.0469182245
v 3.23557736E-09 0.021428261 0.0532868095
v 3.48720142E-09 0.0230946913 0.0591723546
v -0.0129932957 -0.000120922647 0.0508361086
v -1.09864345E-07 0.00322549185 -0.0933955833
v -0.0017321608 0.00269998424 -0.0904419646
v -0.0017321608 -0.00510773668 -0.0811662152
v -1.08940824E-07 -0.00792839471 -0.0801445171
v -0.0017321608 0.00269998424 -0.0904419646
v 0.00173194008 0.0026999847 -0.0904419646
v 0.00173194055 -0.00510773668 -0.0811662152
v -0.0017321608 -0.00510773668 -0.0811662152
v 0.00173194008 0.0026999847 -0.0904419646
v -1.09864345E-07 0.00322549185 -0.0933955833
v -1.08940824E-07 -0.00792839471 -0.0801445171
v 0.00173194055 -0.00510773668 -0.0811662152
v -1.08940824E-07 -0.00792839471 -0.0801445171
v -0.0017321608 -0.00510773668 -0.0811662152
v -0.00173216034 0.00682915887 -0.0790424049
v -1.08973637E-07 0.00912431255 -0.0771104917
v -0.0017321608 -0.00510773668 -0.0811662152
v 0.00173194055 -0.00510773668 -0.0811662152
v 0.00173194055 0.00682915701 -0.0790424049
v -0.00173216034 0.00682915887 -0.0790424049
v 0.00173194055 -0.00510773668 -0.0811662152
v -1.08940824E-07 -0.00792839471 -0.0801445171
v -1.08973637E-07 0.00912431255 -0.0771104917
v 0.00173194055 0.00682915701 -0.0790424049
v -1.08973637E-07 0.00912431255 -0.0771104917
v -0.00173216034 0.00682915887 -0.0790424049
v -0.0017321608 0.00269998424 -0.0904419646
v -1.09864345E-07 0.00322549185 -0.0933955833
v -0.00173216034 0.00682915887 -0.0790424049
v 0.00173194055 0.00682915701 -0.0790424049
v 0.00173194008 0.0026999847 -0.0904419646
v -0.0017321608 0.00269998424 -0.0904419646
v 0.00173194055 0.00682915701 -0.0790424049
v -1.08973637E-07 0.00912431255 -0.0771104917
v -1.09864345E-07 0.00322549185 -0.0933955833
v 0.00173194008 0.0026999847 -0.0904419646
v -1.11586068E-07 0.00200000149 -0.101528198
v -1.11195192E-07 0.00373205263 -0.0985281914
v -0.00606228877 0.0037320517 -0.0880281925
v -0.00866036396 0.00199999986 -0.0865281969
v -1.11195192E-07 0.00373205263 -0.0985281914
v -1.11019759E-07 0.000267951633 -0.0985281914
v -0.00606228691 0.000267950352 -0.0880281925
v -0.00606228877 0.0037320517 -0.0880281925
v -1.11019759E-07 0.000267951633 -0.0985281914
v -1.11586068E-07 0.00200000149 -0.101528198
v -0.00866036396 0.00199999986 -0.0865281969
v -0.00606228691 0.000267950352 -0.0880281925
v -0.00866036396 0.00199999986 -0.0865281969
v -0.00606228877 0.0037320517 -0.0880281925
v 0.00606206898 0.00373205217 -0.0880281925
v 0.00866014604 0.00200000079 -0.0865281969
v -0.00606228877 0.0037320517 -0.0880281925
v -0.00606228691 0.000267950352 -0.0880281925
v 0.00606206898 0.000267951284 -0.0880281925
v 0.00606206898 0.00373205217 -0.0880281925
v -0.00606228691 0.000267950352 -0.0880281925
v -0.00866036396 0.00199999986 -0.0865281969
v 0.00866014604 0.00200000079 -0.0865281969
v 0.00606206898 0.000267951284 -0.0880281925
v 0.00866014604 0.00200000079 -0.0865281969
v 0.00606206898 0.00373205217 -0.0880281925
v -1.11195192E-07 0.00373205263 -0.0985281914
v -1.11586068E-07 0.00200000149 -0.101528198
v 0.00606206898 0.00373205217 -0.0880281925
v 0.00606206898 0.000267951284 -0.0880281925
v -1.11019759E-07 0.000267951633 -0.0985281914
v -1.11195192E-07 0.00373205263 -0.0985281914
v 0.00606206898 0.000267951284 -0.0880281925
v 0.00866014604 0.00200000079 -0.0865281969
v -1.11586068E-07 0.00200000149 -0.101528198
v -1.11019759E-07 0.000267951633 -0.0985281914
v 0.00155884586 0.00329731964 -0.135819033
v 0.00155884656 0.0102936914 -0.142880768
v 1.41840795E-09 0.00939369109 -0.144602627
v 3.61985192E-10 0.00239731953 -0.137540892
v 1.48400445E-10 0.000597319799 -0.135819033
v -0.00605903566 -0.00290086586 -0.142880768
v -0.00605903566 -0.00110086612 -0.144602627
v 0.00155884563 0.00329731964 -0.095931612
v 0.00155884586 0.00329731964 -0.135819033
v 1.48400445E-10 0.000597319799 -0.135819033
v 9.01926936E-11 0.000597319216 -0.095931612
v -0.0015588447 0.00329731964 -0.095931612
v -0.00155884493 0.00329731917 -0.135819033
v 0.00155884586 0.00329731964 -0.135819033
v 0.00155884563 0.00329731964 -0.095931612
v 9.01926936E-11 0.000597319216 -0.095931612
v 1.48400445E-10 0.000597319799 -0.135819033
v -0.00155884493 0.00329731917 -0.135819033
v -0.0015588447 0.00329731964 -0.095931612
v 0.00155884656 0.0102936914 -0.142880768
v 0.00155884796 0.0180515721 -0.143154025
v 2.7380187E-09 0.0181330778 -0.145095199
v 1.41840795E-09 0.00939369109 -0.144602627
v 3.61985192E-10 0.00239731953 -0.137540892
v 1.41840795E-09 0.00939369109 -0.144602627
v -0.00155884377 0.0102936914 -0.142880768
v -0.00155884493 0.00329731917 -0.135819033
v 1.48400445E-10 0.000597319799 -0.135819033
v 0.00605903659 -0.00110086636 -0.144602627
v 0.00605903752 -0.00290086656 -0.142880768
v -0.00155884493 0.00329731917 -0.135819033
v -0.00155884377 0.0102936914 -0.142880768
v 0.00155884656 0.0102936914 -0.142880768
v 0.00155884586 0.00329731964 -0.135819033
v 0.00155884796 0.0180515721 -0.143154025
v 0.00155884866 0.0232906714 -0.139737487
v 3.7876422E-09 0.0250844192 -0.14048399
v 2.7380187E-09 0.0181330778 -0.145095199
v 1.41840795E-09 0.00939369109 -0.144602627
v 2.7380187E-09 0.0181330778 -0.145095199
v -0.00155884237 0.0180515721 -0.143154025
v -0.00155884377 0.0102936914 -0.142880768
v -0.00155884377 0.0102936914 -0.142880768
v -0.00155884237 0.0180515721 -0.143154025
v 0.00155884796 0.0180515721 -0.143154025
v 0.00155884656 0.0102936914 -0.142880768
v 2.7380187E-09 0.0181330778 -0.145095199
v 3.7876422E-09 0.0250844192 -0.14048399
v -0.00155884167 0.0232906714 -0.139737487
v -0.00155884237 0.0180515721 -0.143154025
v -0.00155884237 0.0180515721 -0.143154025
v -0.00155884167 0.0232906714 -0.139737487
v 0.00155884866 0.0232906714 -0.139737487
v 0.00155884796 0.0180515721 -0.143154025
v -0.00155884167 0.0232906714 -0.139737487
v -0.00155884144 0.0237524938 -0.129095808
v 0.00155884889 0.0237524938 -0.129095808
v 0.00155884866 0.0232906714 -0.139737487
v -0.0015588419 0.0207534339 -0.134052441
v -0.000623534492 0.0243894029 -0.123349376
v 0.00062354171 0.0243894029 -0.123349376
v 0.00155884842 0.0207534339 -0.134052441
v -0.00155884144 0.0237524938 -0.129095808
v -0.0015588419 0.0207534339 -0.134052441
v 0.00155884842 0.0207534339 -0.134052441
v 0.00155884889 0.0237524938 -0.129095808
v -0.00155884493 0.00329731917 -0.135819033
v -0.00761788152 -0.000200866489 -0.142880768
v -0.00605903566 -0.00110086612 -0.144602627
v 3.61985192E-10 0.00239731953 -0.137540892
v 0.00605903659 -0.00110086636 -0.144602627
v 0.00761788152 -0.000200866954 -0.142880768
v 0.00155884586 0.00329731964 -0.135819033
v -0.00761788152 -0.000200866489 -0.142880768
v -0.0143364063 -0.00407980569 -0.143154025
v -0.0136275664 -0.005470559 -0.145095199
v -0.00605903566 -0.00110086612 -0.144602627
v 1.48400445E-10 0.000597319799 -0.135819033
v -0.00605903566 -0.00290086586 -0.142880768
v -0.00761788152 -0.000200866489 -0.142880768
v -0.00155884493 0.00329731917 -0.135819033
v -0.0143364063 -0.00407980569 -0.143154025
v -0.0188735947 -0.00669935439 -0.139737487
v -0.0196476076 -0.00894622691 -0.14048399
v -0.0136275664 -0.005470559 -0.145095199
v -0.00605903566 -0.00110086612 -0.144602627
v -0.0136275664 -0.005470559 -0.145095199
v -0.0127775576 -0.00677980669 -0.143154025
v -0.00605903566 -0.00290086586 -0.142880768
v -0.00605903566 -0.00290086586 -0.142880768
v -0.0127775576 -0.00677980669 -0.143154025
v -0.0143364063 -0.00407980569 -0.143154025
v -0.00761788152 -0.000200866489 -0.142880768
v -0.0193574727 -0.0080587212 -0.123349376
v -0.0197181497 -0.00898695551 -0.123316772
v -0.0196476076 -0.00894622691 -0.14048399
v -0.0188735947 -0.00669935439 -0.139737487
v -0.0136275664 -0.005470559 -0.145095199
v -0.0196476076 -0.00894622691 -0.14048399
v -0.0173147507 -0.00939935446 -0.139737487
v -0.0127775576 -0.00677980669 -0.143154025
v -0.0127775576 -0.00677980669 -0.143154025
v -0.0173147507 -0.00939935446 -0.139737487
v -0.0188735947 -0.00669935439 -0.139737487
v -0.0143364063 -0.00407980569 -0.143154025
v -0.0173147507 -0.00939935446 -0.139737487
v -0.0177147016 -0.00963026471 -0.129095808
v -0.0192735456 -0.00693026651 -0.129095808
v -0.0188735947 -0.00669935439 -0.139737487
v -0.0151174394 -0.00813073665 -0.134052441
v -0.0187339336 -0.00913872011 -0.123349376
v -0.0193574727 -0.0080587212 -0.123349376
v -0.0166762825 -0.00543073751 -0.134052441
v -0.0177147016 -0.00963026471 -0.129095808
v -0.0151174394 -0.00813073665 -0.134052441
v -0.0166762825 -0.00543073751 -0.134052441
v -0.0192735456 -0.00693026651 -0.129095808
v 0.00605903752 -0.00290086656 -0.142880768
v 0.0127775567 -0.00677980855 -0.143154025
v 0.0136275683 -0.00547056086 -0.145095199
v 0.00605903659 -0.00110086636 -0.144602627
v 0.00155884586 0.00329731964 -0.135819033
v 0.00761788152 -0.000200866954 -0.142880768
v 0.00605903752 -0.00290086656 -0.142880768
v 1.48400445E-10 0.000597319799 -0.135819033
v 0.0127775567 -0.00677980855 -0.143154025
v 0.0173147507 -0.00939935818 -0.139737487
v 0.0196476039 -0.0089462325 -0.14048399
v 0.0136275683 -0.00547056086 -0.145095199
v 0.00605903659 -0.00110086636 -0.144602627
v 0.0136275683 -0.00547056086 -0.145095199
v 0.0143364053 -0.00407980662 -0.143154025
v 0.00761788152 -0.000200866954 -0.142880768
v 0.00761788152 -0.000200866954 -0.142880768
v 0.0143364053 -0.00407980662 -0.143154025
v 0.0127775567 -0.00677980855 -0.143154025
v 0.00605903752 -0.00290086656 -0.142880768
v 0.0136275683 -0.00547056086 -0.145095199
v 0.0196476039 -0.0089462325 -0.14048399
v 0.0188735984 -0.00669935718 -0.139737487
v 0.0143364053 -0.00407980662 -0.143154025
v 0.0143364053 -0.00407980662 -0.143154025
v 0.0188735984 -0.00669935718 -0.139737487
v 0.0173147507 -0.00939935818 -0.139737487
v 0.0127775567 -0.00677980855 -0.143154025
v 0.0196476039 -0.0089462325 -0.14048399
v 0.019718146 -0.00898695923 -0.123316772
v 0.0193574727 -0.00805872492 -0.123349376
v 0.0188735984 -0.00669935718 -0.139737487
v 0.0188735984 -0.00669935718 -0.139737487
v 0.0192735493 -0.00693027023 -0.129095808
v 0.0177147016 -0.00963026844 -0.129095808
v 0.0173147507 -0.00939935818 -0.139737487
v 0.0166762844 -0.00543073751 -0.134052441
v 0.0193574727 -0.00805872492 -0.123349376
v 0.0187339373 -0.0091387257 -0.123349376
v 0.0151174385 -0.00813073665 -0.134052441
v 0.0192735493 -0.00693027023 -0.129095808
v 0.0166762844 -0.00543073751 -0.134052441
v 0.0151174385 -0.00813073665 -0.134052441
v 0.0177147016 -0.00963026844 -0.129095808
v -0.0128818117 0.000311329495 0.0156187275
v 3.23557736E-09 0.021428261 0.0532868095
v -0.0129818413 -7.65098375E-05 0.0469182245
v 3.58458729E-09 0.023739649 0.014175768
v -0.012785784 0.000683655962 -0.0201398954
v 3.33167627E-09 0.0220646951 -0.0245390758
v 0.0128818117 0.000311325624 0.0156187238
v -3.34498762E-09 -0.0221528523 0.0546955317
v 0.0129818413 -7.65137374E-05 0.0469182245
v -3.48823415E-09 -0.023101531 0.0139042325
v 0.012785784 0.000683652237 -0.0201398954
v -2.86140156E-09 -0.0189502053 -0.0240873322
v -3.48823415E-09 -0.023101531 0.0139042325
v -0.0129818413 -7.65098375E-05 0.0469182245
v -3.34498762E-09 -0.0221528523 0.0546955317
v -0.0128818117 0.000311329495 0.0156187275
v -2.86140156E-09 -0.0189502053 -0.0240873322
v -0.012785784 0.000683655962 -0.0201398954
v 3.58458729E-09 0.023739649 0.014175768
v 0.0129818413 -7.65137374E-05 0.0469182245
v 3.23557736E-09 0.021428261 0.0532868095
v 0.0128818117 0.000311325624 0.0156187238
v 3.33167627E-09 0.0220646951 -0.0245390758
v 0.012785784 0.000683652237 -0.0201398954
vt 0.359863281 0.737304688
vt 0.359863281 0.737304688
vt 0.359863281 0.737304688
vt 0.359863281 0.737304688
vt 0.359863281 0.737304688
vt 0.359863281 0.737304688
vt 0.359863281 0.737304688
vt 0.359863281 0.737304688
vt 0.359863281 0.737304688
vt 0.361083984 0.708496094
vt 0.361083984 0.708496094
vt 0.361083984 0.708496094
vt 0.984375 0.763671875
vt 0.984375 0.763671875
vt 0.984375 0.763671875
vt 0.984375 0.763671875
vt 0.984375 0.763671875
vt 0.984375 0.763671875
vt 0.984375 0.763671875
vt 0.984375 0.763671875
vt 0.984375 0.763671875
vt 0.984375 0.763671875
vt 0.984375 0.763671875
vt 0.984375 0.763671875
vt 0.984375 0.763671875
vt 0.984375 0.763671875
vt 0.984375 0.763671875
vt 0.984375 0.763671875
vt 0.984375 0.763671875
vt 0.984375 0.763671875
vt 0.984375 0.763671875
vt 0.984375 0.763671875
vt 0.984375 0.763671875
vt 0.984375 0.763671875
vt 0.984375 0.763671875
vt 0.984375 0.763671875
vt 0.984375 0.763671875
vt 0.984375 0.763671875
vt 0.984375 0.763671875
vt 0.984375 0.763671875
vt 0.984375 0.763671875
vt 0.984375 0.763671875
vt 0.984375 0.763671875
vt 0.984375 0.763671875
vt 0.984375 0.763671875
vt 0.984375 0.763671875
vt 0.984375 0.763671875
vt 0.984375 0.763671875
vt 0.984375 0.763671875
vt 0.984375 0.763671875
vt 0.984375 0.763671875
vt 0.984375 0.763671875
vt 0.984375 0.763671875
vt 0.984375 0.763671875
vt 0.984375 0.763671875
vt 0.984375 0.763671875
vt 0.984375 0.763671875
vt 0.984375 0.763671875
vt 0.984375 0.763671875
vt 0.984375 0.763671875
vt 0.984375 0.763671875
vt 0.984375 0.763671875
vt 0.984375 0.763671875
vt 0.984375 0.763671875
vt 0.984375 0.763671875
vt 0.984375 0.763671875
vt 0.984375 0.763671875
vt 0.984375 0.763671875
vt 0.984375 0.763671875
vt 0.984375 0.763671875
vt 0.984375 0.763671875
vt 0.984375 0.763671875
vt 0.984375 0.763671875
vt 0.984375 0.763671875
vt 0.984375 0.763671875
vt 0.984375 0.763671875
vt 0.984375 0.763671875
vt 0.984375 0.763671875
vt 0.984375 0.763671875
vt 0.984375 0.763671875
vt 0.984375 0.763671875
vt 0.984375 0.763671875
vt 0.985351562 0.518554688
vt 0.985351562 0.518554688
vt 0.985351562 0.518554688
vt 0.985351562 0.518554688
vt 0.985351562 0.518554688
vt 0.985351562 0.518554688
vt 0.985351562 0.518554688
vt 0.985351562 0.518554688
vt 0.985351562 0.518554688
vt 0.985351562 0.518554688
vt 0.985351562 0.518554688
vt 0.985351562 0.518554688
vt 0.985351562 0.518554688
vt 0.985351562 0.518554688
vt 0.985351562 0.518554688
vt 0.985351562 0.518554688
vt 0.985351562 0.518554688
vt 0.985351562 0.518554688
vt 0.985351562 0.518554688
vt 0.985351562 0.518554688
vt 0.985351562 0.518554688
vt 0.985351562 0.518554688
vt 0.985351562 0.518554688
vt 0.985351562 0.518554688
vt 0.985351562 0.518554688
vt 0.985351562 0.518554688
vt 0.985351562 0.518554688
vt 0.985351562 0.518554688
vt 0.985351562 0.518554688
vt 0.985351562 0.518554688
vt 0.985351562 0.518554688
vt 0.985351562 0.518554688
vt 0.985351562 0.518554688
vt 0.985351562 0.518554688
vt 0.985351562 0.518554688
vt 0.985351562 0.518554688
vt 0.985351562 0.518554688
vt 0.985351562 0.518554688
vt 0.985351562 0.518554688
vt 0.985351562 0.518554688
vt 0.985351562 0.518554688
vt 0.985351562 0.518554688
vt 0.985351562 0.518554688
vt 0.985351562 0.518554688
vt 0.985351562 0.518554688
vt 0.985351562 0.518554688
vt 0.985351562 0.518554688
vt 0.985351562 0.518554688
vt 0.985351562 0.518554688
vt 0.985351562 0.518554688
vt 0.985351562 0.518554688
vt 0.985351562 0.518554688
vt 0.985351562 0.518554688
vt 0.985351562 0.518554688
vt 0.985351562 0.518554688
vt 0.985351562 0.518554688
vt 0.985351562 0.518554688
vt 0.985351562 0.518554688
vt 0.985351562 0.518554688
vt 0.985351562 0.518554688
vt 0.361083984 0.708496094
vt 0.361083984 0.708496094
vt 0.361083984 0.708496094
vt 0.359863281 0.737304688
vt 0.359863281 0.737304688
vt 0.359863281 0.737304688
vt 0.359863281 0.737304688
vt 0.359863281 0.737304688
vt 0.359863281 0.737304688
vt 0.359863281 0.737304688
vt 0.362548828 0.708496094
vt 0.362548828 0.708496094
vt 0.362548828 0.708496094
vt 0.362548828 0.708496094
vt 0.359863281 0.737304688
vt 0.359863281 0.737304688
vt 0.359863281 0.737304688
vt 0.359863281 0.737304688
vt 0.361083984 0.708496094
vt 0.361083984 0.708496094
vt 0.361083984 0.708496094
vt 0.361083984 0.708496094
vt 0.361083984 0.705078125
vt 0.361083984 0.705078125
vt 0.361083984 0.705078125
vt 0.361083984 0.705078125
vt 0.359863281 0.737304688
vt 0.359863281 0.737304688
vt 0.359863281 0.737304688
vt 0.359863281 0.737304688
vt 0.359863281 0.737304688
vt 0.359863281 0.737304688
vt 0.359863281 0.737304688
vt 0.359863281 0.737304688
vt 0.362548828 0.708496094
vt 0.362548828 0.708496094
vt 0.362548828 0.708496094
vt 0.362548828 0.708496094
vt 0.361083984 0.708496094
vt 0.361083984 0.708496094
vt 0.361083984 0.708496094
vt 0.361083984 0.708496094
vt 0.359863281 0.737304688
vt 0.359863281 0.737304688
vt 0.359863281 0.737304688
vt 0.359863281 0.737304688
vt 0.362548828 0.708496094
vt 0.362548828 0.708496094
vt 0.362548828 0.708496094
vt 0.362548828 0.708496094
vt 0.359863281 0.737304688
vt 0.359863281 0.737304688
vt 0.359863281 0.737304688
vt 0.359863281 0.737304688
vt 0.984375 0.763671875
vt 0.984375 0.763671875
vt 0.984375 0.763671875
vt 0.984375 0.763671875
vt 0.984375 0.763671875
vt 0.984375 0.763671875
vt 0.984375 0.763671875
vt 0.984375 0.763671875
vt 0.984375 0.763671875
vt 0.984375 0.763671875
vt 0.984375 0.763671875
vt 0.984375 0.763671875
vt 0.984375 0.763671875
vt 0.984375 0.763671875
vt 0.984375 0.763671875
vt 0.984375 0.763671875
vt 0.984375 0.763671875
vt 0.984375 0.763671875
vt 0.984375 0.763671875
vt 0.984375 0.763671875
vt 0.984375 0.763671875
vt 0.984375 0.763671875
vt 0.984375 0.763671875
vt 0.984375 0.763671875
vt 0.984375 0.763671875
vt 0.984375 0.763671875
vt 0.984375 0.763671875
vt 0.984375 0.763671875
vt 0.984375 0.763671875
vt 0.984375 0.763671875
vt 0.984375 0.763671875
vt 0.984375 0.763671875
vt 0.984375 0.763671875
vt 0.984375 0.763671875
vt 0.984375 0.763671875
vt 0.984375 0.763671875
vt 0.984375 0.763671875
vt 0.984375 0.763671875
vt 0.984375 0.763671875
vt 0.984375 0.763671875
vt 0.984375 0.763671875
vt 0.984375 0.763671875
vt 0.984375 0.763671875
vt 0.984375 0.763671875
vt 0.984375 0.763671875
vt 0.984375 0.763671875
vt 0.984375 0.763671875
vt 0.984375 0.763671875
vt 0.984375 0.763671875
vt 0.984375 0.763671875
vt 0.984375 0.763671875
vt 0.984375 0.763671875
vt 0.984375 0.763671875
vt 0.984375 0.763671875
vt 0.984375 0.763671875
vt 0.984375 0.763671875
vt 0.984375 0.763671875
vt 0.984375 0.763671875
vt 0.984375 0.763671875
vt 0.984375 0.763671875
vt 0.984375 0.763671875
vt 0.984375 0.763671875
vt 0.984375 0.763671875
vt 0.984375 0.763671875
vt 0.984375 0.763671875
vt 0.984375 0.763671875
vt 0.984375 0.763671875
vt 0.984375 0.763671875
vt 0.984375 0.763671875
vt 0.984375 0.763671875
vt 0.984375 0.763671875
vt 0.984375 0.763671875
vt 0.984375 0.763671875
vt 0.984375 0.763671875
vt 0.984375 0.763671875
vt 0.984375 0.763671875
vt 0.984375 0.763671875
vt 0.984375 0.763671875
vt 0.984375 0.763671875
vt 0.984375 0.763671875
vt 0.984375 0.763671875
vt 0.984375 0.763671875
vt 0.984375 0.763671875
vt 0.984375 0.763671875
vt 0.984375 0.763671875
vt 0.984375 0.763671875
vt 0.984375 0.763671875
vt 0.984375 0.763671875
vt 0.984375 0.763671875
vt 0.984375 0.763671875
vt 0.984375 0.763671875
vt 0.984375 0.763671875
vt 0.984375 0.763671875
vt 0.984375 0.763671875
vt 0.984375 0.763671875
vt 0.984375 0.763671875
vt 0.984375 0.763671875
vt 0.984375 0.763671875
vt 0.984375 0.763671875
vt 0.984375 0.763671875
vt 0.984375 0.763671875
vt 0.984375 0.763671875
vt 0.984375 0.763671875
vt 0.984375 0.763671875
vt 0.984375 0.763671875
vt 0.984375 0.763671875
vt 0.984375 0.763671875
vt 0.984375 0.763671875
vt 0.984375 0.763671875
vt 0.984375 0.763671875
vt 0.984375 0.763671875
vt 0.984375 0.763671875
vt 0.984375 0.763671875
vt 0.984375 0.763671875
vt 0.984375 0.763671875
vt 0.984375 0.763671875
vt 0.984375 0.763671875
vt 0.984375 0.763671875
vt 0.984375 0.763671875
vt 0.984375 0.763671875
vt 0.984375 0.763671875
vt 0.984375 0.763671875
vt 0.984375 0.763671875
vt 0.984375 0.763671875
vt 0.984375 0.763671875
vt 0.984375 0.763671875
vt 0.984375 0.763671875
vt 0.984375 0.763671875
vt 0.984375 0.763671875
vt 0.984375 0.763671875
vt 0.984375 0.763671875
vt 0.984375 0.763671875
vt 0.984375 0.763671875
vt 0.984375 0.763671875
vt 0.984375 0.763671875
vt 0.984375 0.763671875
vt 0.984375 0.763671875
vt 0.984375 0.763671875
vt 0.984375 0.763671875
vt 0.984375 0.763671875
vt 0.984375 0.763671875
vt 0.984375 0.763671875
vt 0.984375 0.763671875
vt 0.984375 0.763671875
vt 0.984375 0.763671875
vt 0.984375 0.763671875
vt 0.984375 0.763671875
vt 0.984375 0.763671875
vt 0.984375 0.763671875
vt 0.984375 0.763671875
vt 0.984375 0.763671875
vt 0.984375 0.763671875
vt 0.984375 0.763671875
vt 0.984375 0.763671875
vt 0.984375 0.763671875
vt 0.984375 0.763671875
vt 0.984375 0.763671875
vt 0.984375 0.763671875
vt 0.984375 0.763671875
vt 0.984375 0.763671875
vt 0.984375 0.763671875
vt 0.984375 0.763671875
vt 0.984375 0.763671875
vt 0.984375 0.763671875
vt 0.984375 0.763671875
vt 0.984375 0.763671875
vt 0.984375 0.763671875
vt 0.984375 0.763671875
vt 0.984375 0.763671875
vt 0.984375 0.763671875
vt 0.984375 0.763671875
vt 0.984375 0.763671875
vt 0.984375 0.763671875
vt 0.984375 0.763671875
vt 0.984375 0.763671875
vt 0.984375 0.763671875
vt 0.984375 0.763671875
vt 0.984375 0.763671875
vt 0.984375 0.763671875
vt 0.984375 0.763671875
vt 0.984375 0.763671875
vt 0.984375 0.763671875
vt 0.984375 0.763671875
vt 0.984375 0.763671875
vt 0.984375 0.763671875
vt 0.984375 0.763671875
vt 0.984375 0.763671875
vt 0.984375 0.763671875
vt 0.984375 0.763671875
vt 0.984375 0.763671875
vt 0.984375 0.763671875
vt 0.984375 0.763671875
vt 0.984375 0.763671875
vt 0.984375 0.763671875
vt 0.984375 0.763671875
vt 0.984375 0.763671875
vt 0.984375 0.763671875
vt 0.984375 0.763671875
vt 0.984375 0.763671875
vt 0.984375 0.763671875
vt 0.984375 0.763671875
vt 0.984375 0.763671875
vt 0.984375 0.763671875
vt 0.984375 0.763671875
vt 0.984375 0.763671875
vt 0.984375 0.763671875
vt 0.984375 0.763671875
vt 0.984375 0.763671875
vt 0.984375 0.763671875
vt 0.984375 0.763671875
vt 0.984375 0.763671875
vt 0.984375 0.763671875
vt 0.984375 0.763671875
vt 0.984375 0.763671875
vt 0.984375 0.763671875
vt 0.984375 0.763671875
vt 0.984375 0.763671875
vt 0.984375 0.763671875
vt 0.984375 0.763671875
vt 0.984375 0.763671875
vt 0.984375 0.763671875
vt 0.984375 0.763671875
vt 0.984375 0.763671875
vt 0.984375 0.763671875
vt 0.984375 0.763671875
vt 0.984375 0.763671875
vt 0.984375 0.763671875
vt 0.984375 0.763671875
vt 0.984375 0.763671875
vt 0.984375 0.763671875
vt 0.984375 0.763671875
vt 0.984375 0.763671875
vt 0.984375 0.763671875
vt 0.359863281 0.737304688
vt 0.359863281 0.737304688
vt 0.359863281 0.737304688
vt 0.359863281 0.737304688
vt 0.359863281 0.737304688
vt 0.359863281 0.737304688
vt 0.362548828 0.708496094
vt 0.362548828 0.708496094
vt 0.362548828 0.708496094
vt 0.362548828 0.708496094
vt 0.362548828 0.708496094
vt 0.362548828 0.708496094
vt 0.362548828 0.708496094
vt 0.362548828 0.708496094
vt 0.362548828 0.708496094
vt 0.362548828 0.708496094
vt 0.362548828 0.708496094
vt 0.362548828 0.708496094
vt 0.359863281 0.737304688
vt 0.359863281 0.737304688
vt 0.359863281 0.737304688
vt 0.359863281 0.737304688
vt 0.359863281 0.737304688
vt 0.359863281 0.737304688
vn -0.783691406 0.433349609 0.444824219
vn -0.783691406 0.433349609 0.444824219
vn -0.783691406 0.433349609 0.444824219
vn -0.791503906 0.111206055 -0.600585938
vn -0.791503906 0.111206055 -0.600585938
vn -0.791503906 0.111206055 -0.600585938
vn 0.791503906 0.111206055 -0.600585938
vn 0.791503906 0.111206055 -0.600585938
vn 0.791503906 0.111206055 -0.600585938
vn 0.799316406 -0.36328125 0.478271484
vn 0.799316406 -0.36328125 0.478271484
vn 0.799316406 -0.36328125 0.478271484
vn -0 0 1
vn -0 0 1
vn -0 0 1
vn 0.760253906 0.648925781 -0.0281677246
vn 0.760253906 0.648925781 -0.0281677246
vn 0.760253906 0.648925781 -0.0281677246
vn 0.779785156 0.625976562 -0.00297164917
vn 0.779785156 0.625976562 -0.00297164917
vn 0.604980469 0.795898438 0.010269165
vn 0.604980469 0.795898438 0.010269165
vn 0.604980469 0.795898438 0.010269165
vn -0 -0.0419616699 0.999023438
vn -0 -0.0419616699 0.999023438
vn -0 -0.0419616699 0.999023438
vn -0.760253906 0.648925781 -0.0281677246
vn -0.760253906 0.648925781 -0.0281677246
vn -0.760253906 0.648925781 -0.0281677246
vn -0.779785156 0.625976562 -0.00297164917
vn -0.779785156 0.625976562 -0.00297164917
vn -0.604980469 0.795898438 0.010269165
vn -0.604980469 0.795898438 0.010269165
vn -0.604980469 0.795898438 0.010269165
vn 0.933105469 -0.307373047 0.185913086
vn 0.933105469 -0.307373047 0.185913086
vn 0.933105469 -0.307373047 0.185913086
vn -0.933105469 -0.307373047 0.185913086
vn -0.933105469 -0.307373047 0.185913086
vn -0.933105469 -0.307373047 0.185913086
vn -0.990722656 -0.130371094 -0.0400695801
vn -0.990722656 -0.130371094 -0.0400695801
vn -0.990722656 -0.130371094 -0.0400695801
vn 0.0363464355 0.020980835 0.999023438
vn 0.0363464355 0.020980835 0.999023438
vn 0.0363464355 0.020980835 0.999023438
vn -0.189697266 -0.981933594 -0.00310897827
vn -0.189697266 -0.981933594 -0.00310897827
vn -0.189697266 -0.981933594 -0.00310897827
vn -0.395019531 -0.91796875 -0.0347595215
vn -0.395019531 -0.91796875 -0.0347595215
vn -0.395019531 -0.91796875 -0.0347595215
vn -0.150268555 -0.986816406 0.0577697754
vn -0.150268555 -0.986816406 0.0577697754
vn -0.150268555 -0.986816406 0.0577697754
vn -0.200439453 0.961914062 0.185913086
vn -0.200439453 0.961914062 0.185913086
vn -0.200439453 0.961914062 0.185913086
vn 0.732910156 -0.654785156 0.185913086
vn 0.732910156 -0.654785156 0.185913086
vn 0.732910156 -0.654785156 0.185913086
vn 0.189697266 -0.981933594 -0.00310897827
vn 0.189697266 -0.981933594 -0.00310897827
vn 0.189697266 -0.981933594 -0.00310897827
vn 0.395019531 -0.91796875 -0.0347595215
vn 0.395019531 -0.91796875 -0.0347595215
vn 0.395019531 -0.91796875 -0.0347595215
vn 0.150268555 -0.986816406 0.0577697754
vn 0.150268555 -0.986816406 0.0577697754
vn 0.150268555 -0.986816406 0.0577697754
vn -0.0363464355 0.020980835 0.999023438
vn -0.0363464355 0.020980835 0.999023438
vn -0.0363464355 0.020980835 0.999023438
vn 0.990722656 -0.130371094 -0.0400695801
vn 0.990722656 -0.130371094 -0.0400695801
vn 0.990722656 -0.130371094 -0.0400695801
vn -0.732910156 -0.654785156 0.185913086
vn -0.732910156 -0.654785156 0.185913086
vn -0.732910156 -0.654785156 0.185913086
vn 0.200439453 0.961914062 0.185913086
vn 0.200439453 0.961914062 0.185913086
vn 0.200439453 0.961914062 0.185913086
vn -0.166503906 0.579589844 -0.797851562
vn -0.166503906 0.579589844 -0.797851562
vn -0.166503906 0.579589844 -0.797851562
vn -0.559570312 0 -0.828613281
vn -0.559570312 0 -0.828613281
vn -0.559570312 0 -0.828613281
vn 0.446044922 0.366699219 -0.81640625
vn 0.446044922 0.366699219 -0.81640625
vn 0.446044922 0.366699219 -0.81640625
vn 0.446044922 -0.366699219 -0.81640625
vn 0.446044922 -0.366699219 -0.81640625
vn 0.446044922 -0.366699219 -0.81640625
vn -0.166503906 -0.579589844 -0.797851562
vn -0.166503906 -0.579589844 -0.797851562
vn -0.166503906 -0.579589844 -0.797851562
vn -0.977539062 0 -0.211181641
vn -0.977539062 0 -0.211181641
vn -0.977539062 0 -0.211181641
vn -0.270996094 0.943847656 -0.189453125
vn -0.270996094 0.943847656 -0.189453125
vn -0.270996094 0.943847656 -0.189453125
vn 0.756835938 0.621582031 -0.202026367
vn 0.756835938 0.621582031 -0.202026367
vn 0.756835938 0.621582031 -0.202026367
vn 0.756835938 -0.621582031 -0.202026367
vn 0.756835938 -0.621582031 -0.202026367
vn 0.756835938 -0.621582031 -0.202026367
vn -0.270996094 -0.943847656 -0.189453125
vn -0.270996094 -0.943847656 -0.189453125
vn -0.270996094 -0.943847656 -0.189453125
vn -0.756835938 0.621582031 0.202026367
vn -0.756835938 0.621582031 0.202026367
vn -0.756835938 0.621582031 0.202026367
vn 0.270996094 0.943847656 0.189453125
vn 0.270996094 0.943847656 0.189453125
vn 0.270996094 0.943847656 0.189453125
vn 0.977539062 0 0.211181641
vn 0.977539062 0 0.211181641
vn 0.977539062 0 0.211181641
vn 0.270996094 -0.943847656 0.189453125
vn 0.270996094 -0.943847656 0.189453125
vn 0.270996094 -0.943847656 0.189453125
vn -0.756835938 -0.621582031 0.202026367
vn -0.756835938 -0.621582031 0.202026367
vn -0.756835938 -0.621582031 0.202026367
vn -0.446044922 0.366699219 0.81640625
vn -0.446044922 0.366699219 0.81640625
vn -0.446044922 0.366699219 0.81640625
vn 0.166503906 0.579589844 0.797851562
vn 0.166503906 0.579589844 0.797851562
vn 0.166503906 0.579589844 0.797851562
vn 0.559570312 0 0.828613281
vn 0.559570312 0 0.828613281
vn 0.559570312 0 0.828613281
vn 0.166503906 -0.579589844 0.797851562
vn 0.166503906 -0.579589844 0.797851562
vn 0.166503906 -0.579589844 0.797851562
vn -0.446044922 -0.366699219 0.81640625
vn -0.446044922 -0.366699219 0.81640625
vn -0.446044922 -0.366699219 0.81640625
vn -0.799316406 -0.36328125 0.478271484
vn -0.799316406 -0.36328125 0.478271484
vn -0.799316406 -0.36328125 0.478271484
vn 0.783691406 0.433349609 0.444824219
vn 0.783691406 0.433349609 0.444824219
vn 0.783691406 0.433349609 0.444824219
vn 0.848632812 0.521484375 -0.0872802734
vn 0.848632812 0.521484375 -0.0872802734
vn 0.848632812 0.521484375 -0.0872802734
vn 0.848632812 0.521484375 -0.0872802734
vn -0.852539062 -0.516601562 -0.0786743164
vn -0.852539062 -0.516601562 -0.0786743164
vn -0.852539062 -0.516601562 -0.0786743164
vn -0.852539062 -0.516601562 -0.0786743164
vn 0.877441406 0.466796875 0.11138916
vn 0.877441406 0.466796875 0.11138916
vn 0.877441406 0.466796875 0.11138916
vn 0.877441406 0.466796875 0.11138916
vn -0.891601562 -0.447753906 0.0678100586
vn -0.891601562 -0.447753906 0.0678100586
vn -0.891601562 -0.447753906 0.0678100586
vn -0.891601562 -0.447753906 0.0678100586
vn -0.834472656 -0.541992188 -0.100830078
vn -0.834472656 -0.541992188 -0.100830078
vn -0.834472656 -0.541992188 -0.100830078
vn -0.834472656 -0.541992188 -0.100830078
vn 0.850097656 0.515136719 -0.110595703
vn 0.850097656 0.515136719 -0.110595703
vn 0.850097656 0.515136719 -0.110595703
vn 0.850097656 0.515136719 -0.110595703
vn -0.850097656 0.515136719 -0.110595703
vn -0.850097656 0.515136719 -0.110595703
vn -0.850097656 0.515136719 -0.110595703
vn -0.850097656 0.515136719 -0.110595703
vn 0.834472656 -0.541992188 -0.100830078
vn 0.834472656 -0.541992188 -0.100830078
vn 0.834472656 -0.541992188 -0.100830078
vn 0.834472656 -0.541992188 -0.100830078
vn 0.891601562 -0.447753906 0.0678100586
vn 0.891601562 -0.447753906 0.0678100586
vn 0.891601562 -0.447753906 0.0678100586
vn 0.891601562 -0.447753906 0.0678100586
vn -0.877441406 0.466796875 0.11138916
vn -0.877441406 0.466796875 0.11138916
vn -0.877441406 0.466796875 0.11138916
vn -0.877441406 0.466796875 0.11138916
vn 0.852539062 -0.516601562 -0.0786743164
vn 0.852539062 -0.516601562 -0.0786743164
vn 0.852539062 -0.516601562 -0.0786743164
vn 0.852539062 -0.516601562 -0.0786743164
vn -0.848632812 0.521484375 -0.0872802734
vn -0.848632812 0.521484375 -0.0872802734
vn -0.848632812 0.521484375 -0.0872802734
vn -0.848632812 0.521484375 -0.0872802734
vn -0.654785156 -0.578125 -0.486816406
vn -0.654785156 -0.578125 -0.486816406
vn -0.654785156 -0.578125 -0.486816406
vn -0.654785156 -0.578125 -0.486816406
vn -0 0.765136719 0.644042969
vn -0 0.765136719 0.644042969
vn -0 0.765136719 0.644042969
vn -0 0.765136719 0.644042969
vn 0.654785156 -0.578125 -0.486816406
vn 0.654785156 -0.578125 -0.486816406
vn 0.654785156 -0.578125 -0.486816406
vn 0.654785156 -0.578125 -0.486816406
vn -0.654785156 -0.132446289 0.744140625
vn -0.654785156 -0.132446289 0.744140625
vn -0.654785156 -0.132446289 0.744140625
vn -0.654785156 -0.132446289 0.744140625
vn -0 0.175170898 -0.984375
vn -0 0.175170898 -0.984375
vn -0 0.175170898 -0.984375
vn -0 0.175170898 -0.984375
vn 0.654785156 -0.132446289 0.744140625
vn 0.654785156 -0.132446289 0.744140625
vn 0.654785156 -0.132446289 0.744140625
vn 0.654785156 -0.132446289 0.744140625
vn -0.654785156 0.7109375 -0.257324219
vn -0.654785156 0.7109375 -0.257324219
vn -0.654785156 0.7109375 -0.257324219
vn -0.654785156 0.7109375 -0.257324219
vn -0 -0.940429688 0.340576172
vn -0 -0.940429688 0.340576172
vn -0 -0.940429688 0.340576172
vn -0 -0.940429688 0.340576172
vn 0.654785156 0.7109375 -0.257324219
vn 0.654785156 0.7109375 -0.257324219
vn 0.654785156 0.7109375 -0.257324219
vn 0.654785156 0.7109375 -0.257324219
vn -0.654785156 0.654785156 -0.377929688
vn -0.654785156 0.654785156 -0.377929688
vn -0.654785156 0.654785156 -0.377929688
vn -0.654785156 0.654785156 -0.377929688
vn 0.866210938 0 0.5
vn 0.866210938 0 0.5
vn 0.866210938 0 0.5
vn 0.866210938 0 0.5
vn -0.654785156 -0.654785156 -0.377929688
vn -0.654785156 -0.654785156 -0.377929688
vn -0.654785156 -0.654785156 -0.377929688
vn -0.654785156 -0.654785156 -0.377929688
vn -0 0.654785156 0.755859375
vn -0 0.654785156 0.755859375
vn -0 0.654785156 0.755859375
vn -0 0.654785156 0.755859375
vn -0 0 -1
vn -0 0 -1
vn -0 0 -1
vn -0 0 -1
vn -0 -0.654785156 0.755859375
vn -0 -0.654785156 0.755859375
vn -0 -0.654785156 0.755859375
vn -0 -0.654785156 0.755859375
vn 0.654785156 0.654785156 -0.377929688
vn 0.654785156 0.654785156 -0.377929688
vn 0.654785156 0.654785156 -0.377929688
vn 0.654785156 0.654785156 -0.377929688
vn -0.866210938 0 0.5
vn -0.866210938 0 0.5
vn -0.866210938 0 0.5
vn -0.866210938 0 0.5
vn 0.654785156 -0.654785156 -0.377929688
vn 0.654785156 -0.654785156 -0.377929688
vn 0.654785156 -0.654785156 -0.377929688
vn 0.654785156 -0.654785156 -0.377929688
vn 0.766113281 -0.450439453 -0.458251953
vn 0.765136719 -0.457519531 -0.453369141
vn 0.765136719 -0.457519531 -0.453369141
vn 0.766113281 -0.450439453 -0.458251953
vn 0.767578125 -0.443115234 -0.463134766
vn 0.778808594 -0.43359375 -0.453369141
vn 0.778808594 -0.43359375 -0.453369141
vn 0.866210938 -0.5 0
vn 0.866210938 -0.5 0
vn 0.866210938 -0.5 0
vn 0.866210938 -0.5 0
vn -0 1 0
vn -0 1 0
vn -0 1 0
vn -0 1 0
vn -0.866210938 -0.5 0
vn -0.866210938 -0.5 0
vn -0.866210938 -0.5 0
vn -0.866210938 -0.5 0
vn 0.764648438 -0.0298919678 -0.644042969
vn 0.764648438 -0.0298919678 -0.644042969
vn 0.764648438 -0.0298919678 -0.644042969
vn 0.764648438 -0.0298919678 -0.644042969
vn -0.766113281 -0.450439453 -0.458251953
vn -0.765136719 -0.457519531 -0.453369141
vn -0.765136719 -0.457519531 -0.453369141
vn -0.766113281 -0.450439453 -0.458251953
vn -0.767578125 -0.443115234 -0.463134766
vn -0.778808594 -0.43359375 -0.453369141
vn -0.778808594 -0.43359375 -0.453369141
vn -0 0.710449219 0.703613281
vn -0 0.710449219 0.703613281
vn -0 0.710449219 0.703613281
vn -0 0.710449219 0.703613281
vn 0.724609375 0.379150391 -0.575683594
vn 0.724609375 0.379150391 -0.575683594
vn 0.724609375 0.379150391 -0.575683594
vn 0.724609375 0.379150391 -0.575683594
vn -0.764648438 -0.0298919678 -0.644042969
vn -0.764648438 -0.0298919678 -0.644042969
vn -0.764648438 -0.0298919678 -0.644042969
vn -0.764648438 -0.0298919678 -0.644042969
vn -0 0.0351867676 0.999511719
vn -0 0.0351867676 0.999511719
vn -0 0.0351867676 0.999511719
vn -0 0.0351867676 0.999511719
vn -0.724609375 0.379150391 -0.575683594
vn -0.724609375 0.379150391 -0.575683594
vn -0.724609375 0.379150391 -0.575683594
vn -0.724609375 0.379150391 -0.575683594
vn -0 -0.546386719 0.837402344
vn -0 -0.546386719 0.837402344
vn -0 -0.546386719 0.837402344
vn -0 -0.546386719 0.837402344
vn -0 -0.999023438 0.0433654785
vn -0 -0.999023438 0.0433654785
vn -0 -0.999023438 0.0433654785
vn -0 -0.999023438 0.0433654785
vn -0 -0.946777344 0.321777344
vn -0 -0.946777344 0.321777344
vn -0 -0.946777344 0.321777344
vn -0 -0.946777344 0.321777344
vn -0 0.85546875 -0.517578125
vn -0 0.85546875 -0.517578125
vn -0 0.85546875 -0.517578125
vn -0 0.85546875 -0.517578125
vn 0.0138092041 0.891113281 -0.453369141
vn 0.0138092041 0.891113281 -0.453369141
vn 0.0138092041 0.891113281 -0.453369141
vn 0.0138092041 0.891113281 -0.453369141
vn -0.0138092041 0.891113281 -0.453369141
vn -0.0138092041 0.891113281 -0.453369141
vn -0.0138092041 0.891113281 -0.453369141
vn -0.356445312 0.676757812 -0.644042969
vn -0.356445312 0.676757812 -0.644042969
vn -0.356445312 0.676757812 -0.644042969
vn -0.356445312 0.676757812 -0.644042969
vn -0.615234375 -0.355224609 0.703613281
vn -0.615234375 -0.355224609 0.703613281
vn -0.615234375 -0.355224609 0.703613281
vn -0.615234375 -0.355224609 0.703613281
vn -0.690429688 0.437744141 -0.575683594
vn -0.690429688 0.437744141 -0.575683594
vn -0.690429688 0.437744141 -0.575683594
vn -0.690429688 0.437744141 -0.575683594
vn 0.408203125 -0.646972656 -0.644042969
vn 0.408203125 -0.646972656 -0.644042969
vn 0.408203125 -0.646972656 -0.644042969
vn 0.408203125 -0.646972656 -0.644042969
vn -0.0304870605 -0.0175933838 0.999511719
vn -0.0304870605 -0.0175933838 0.999511719
vn -0.0304870605 -0.0175933838 0.999511719
vn -0.0304870605 -0.0175933838 0.999511719
vn -0.938964844 0.343994141 -0.0019235611
vn -0.932128906 0.362060547 -0.00297164917
vn -0.938964844 0.343994141 -0.0019235611
vn -0.9453125 0.325927734 -0.000875473022
vn 0.0338439941 -0.816894531 -0.575683594
vn 0.0338439941 -0.816894531 -0.575683594
vn 0.0338439941 -0.816894531 -0.575683594
vn 0.0338439941 -0.816894531 -0.575683594
vn 0.473144531 0.273193359 0.837402344
vn 0.473144531 0.273193359 0.837402344
vn 0.473144531 0.273193359 0.837402344
vn 0.473144531 0.273193359 0.837402344
vn 0.865234375 0.499511719 0.0433654785
vn 0.865234375 0.499511719 0.0433654785
vn 0.865234375 0.499511719 0.0433654785
vn 0.865234375 0.499511719 0.0433654785
vn 0.819824219 0.473388672 0.321777344
vn 0.819824219 0.473388672 0.321777344
vn 0.819824219 0.473388672 0.321777344
vn 0.819824219 0.473388672 0.321777344
vn -0.740722656 -0.427734375 -0.517578125
vn -0.740722656 -0.427734375 -0.517578125
vn -0.740722656 -0.427734375 -0.517578125
vn -0.740722656 -0.427734375 -0.517578125
vn -0.408203125 -0.646972656 -0.644042969
vn -0.408203125 -0.646972656 -0.644042969
vn -0.408203125 -0.646972656 -0.644042969
vn -0.408203125 -0.646972656 -0.644042969
vn 0.615234375 -0.355224609 0.703613281
vn 0.615234375 -0.355224609 0.703613281
vn 0.615234375 -0.355224609 0.703613281
vn 0.615234375 -0.355224609 0.703613281
vn -0.0338439941 -0.816894531 -0.575683594
vn -0.0338439941 -0.816894531 -0.575683594
vn -0.0338439941 -0.816894531 -0.575683594
vn -0.0338439941 -0.816894531 -0.575683594
vn 0.356445312 0.676757812 -0.644042969
vn 0.356445312 0.676757812 -0.644042969
vn 0.356445312 0.676757812 -0.644042969
vn 0.356445312 0.676757812 -0.644042969
vn 0.0304870605 -0.0175933838 0.999511719
vn 0.0304870605 -0.0175933838 0.999511719
vn 0.0304870605 -0.0175933838 0.999511719
vn 0.0304870605 -0.0175933838 0.999511719
vn 0.690429688 0.437744141 -0.575683594
vn 0.690429688 0.437744141 -0.575683594
vn 0.690429688 0.437744141 -0.575683594
vn 0.690429688 0.437744141 -0.575683594
vn -0.473144531 0.273193359 0.837402344
vn -0.473144531 0.273193359 0.837402344
vn -0.473144531 0.273193359 0.837402344
vn -0.473144531 0.273193359 0.837402344
vn 0.938964844 0.343994141 -0.0019235611
vn 0.932128906 0.362060547 -0.00297164917
vn 0.938964844 0.343994141 -0.0019235611
vn 0.9453125 0.325927734 -0.000875473022
vn -0.865234375 0.499511719 0.0433654785
vn -0.865234375 0.499511719 0.0433654785
vn -0.865234375 0.499511719 0.0433654785
vn -0.865234375 0.499511719 0.0433654785
vn -0.819824219 0.473388672 0.321777344
vn -0.819824219 0.473388672 0.321777344
vn -0.819824219 0.473388672 0.321777344
vn -0.819824219 0.473388672 0.321777344
vn 0.740722656 -0.427734375 -0.517578125
vn 0.740722656 -0.427734375 -0.517578125
vn 0.740722656 -0.427734375 -0.517578125
vn 0.740722656 -0.427734375 -0.517578125
vn -0.867675781 0.496826172 0.00401687622
vn -0.8671875 0.497314453 0.0178375244
vn -0.8671875 0.497314453 0.0178375244
vn -0.867675781 0.496826172 0.00401687622
vn -0.868164062 0.49609375 -0.00979614258
vn -0.868164062 0.49609375 -0.00979614258
vn 0.865234375 -0.501464844 -0.0148468018
vn 0.869628906 -0.493896484 0.00263595581
vn 0.869628906 -0.493896484 0.00263595581
vn 0.865234375 -0.501464844 -0.0148468018
vn 0.860351562 -0.508789062 -0.0323181152
vn 0.860351562 -0.508789062 -0.0323181152
vn -0.865234375 -0.501464844 -0.0148468018
vn -0.869628906 -0.493896484 0.00263595581
vn -0.869628906 -0.493896484 0.00263595581
vn -0.865234375 -0.501464844 -0.0148468018
vn -0.860351562 -0.508789062 -0.0323181152
vn -0.860351562 -0.508789062 -0.0323181152
vn 0.867675781 0.496826172 0.00401687622
vn 0.8671875 0.497314453 0.0178375244
vn 0.8671875 0.497314453 0.0178375244
vn 0.867675781 0.496826172 0.00401687622
vn 0.868164062 0.49609375 -0.00979614258
vn 0.868164062 0.49609375 -0.00979614258
g Standard Lure_0
f 3/3/3 2/2/2 1/1/1
f 6/6/6 5/5/5 4/4/4
f 9/9/9 8/8/8 7/7/7
f 12/12/12 11/11/11 10/10/10
f 15/15/15 14/14/14 13/13/13
f 18/18/18 17/17/17 16/16/16
f 16/16/16 20/20/20 19/19/19
f 23/23/23 22/22/22 21/21/21
f 26/26/26 25/25/25 24/24/24
f 29/29/29 28/28/28 27/27/27
f 31/31/31 30/30/30 29/29/29
f 34/34/34 33/33/33 32/32/32
f 37/37/37 36/36/36 35/35/35
f 40/40/40 39/39/39 38/38/38
f 43/43/43 42/42/42 41/41/41
f 46/46/46 45/45/45 44/44/44
f 49/49/49 48/48/48 47/47/47
f 52/52/52 51/51/51 50/50/50
f 55/55/55 54/54/54 53/53/53
f 58/58/58 57/57/57 56/56/56
f 61/61/61 60/60/60 59/59/59
f 64/64/64 63/63/63 62/62/62
f 67/67/67 66/66/66 65/65/65
f 70/70/70 69/69/69 68/68/68
f 73/73/73 72/72/72 71/71/71
f 76/76/76 75/75/75 74/74/74
f 79/79/79 78/78/78 77/77/77
f 82/82/82 81/81/81 80/80/80
f 85/85/85 84/84/84 83/83/83
f 88/88/88 87/87/87 86/86/86
f 91/91/91 90/90/90 89/89/89
f 94/94/94 93/93/93 92/92/92
f 97/97/97 96/96/96 95/95/95
f 100/100/100 99/99/99 98/98/98
f 103/103/103 102/102/102 101/101/101
f 106/106/106 105/105/105 104/104/104
f 109/109/109 108/108/108 107/107/107
f 112/112/112 111/111/111 110/110/110
f 115/115/115 114/114/114 113/113/113
f 118/118/118 117/117/117 116/116/116
f 121/121/121 120/120/120 119/119/119
f 124/124/124 123/123/123 122/122/122
f 127/127/127 126/126/126 125/125/125
f 130/130/130 129/129/129 128/128/128
f 133/133/133 132/132/132 131/131/131
f 136/136/136 135/135/135 134/134/134
f 139/139/139 138/138/138 137/137/137
f 142/142/142 141/141/141 140/140/140
f 145/145/145 144/144/144 143/143/143
f 148/148/148 147/147/147 146/146/146
f 151/151/151 150/150/150 149/149/149
f 152/152/152 151/151/151 149/149/149
f 155/155/155 154/154/154 153/153/153
f 156/156/156 155/155/155 153/153/153
f 159/159/159 158/158/158 157/157/157
f 160/160/160 159/159/159 157/157/157
f 163/163/163 162/162/162 161/161/161
f 164/164/164 163/163/163 161/161/161
f 167/167/167 166/166/166 165/165/165
f 168/168/168 167/167/167 165/165/165
f 171/171/171 170/170/170 169/169/169
f 172/172/172 171/171/171 169/169/169
f 175/175/175 174/174/174 173/173/173
f 176/176/176 175/175/175 173/173/173
f 179/179/179 178/178/178 177/177/177
f 180/180/180 179/179/179 177/177/177
f 183/183/183 182/182/182 181/181/181
f 184/184/184 183/183/183 181/181/181
f 187/187/187 186/186/186 185/185/185
f 188/188/188 187/187/187 185/185/185
f 191/191/191 190/190/190 189/189/189
f 192/192/192 191/191/191 189/189/189
f 195/195/195 194/194/194 193/193/193
f 196/196/196 195/195/195 193/193/193
f 199/199/199 198/198/198 197/197/197
f 200/200/200 199/199/199 197/197/197
f 203/203/203 202/202/202 201/201/201
f 204/204/204 203/203/203 201/201/201
f 207/207/207 206/206/206 205/205/205
f 208/208/208 207/207/207 205/205/205
f 211/211/211 210/210/210 209/209/209
f 212/212/212 211/211/211 209/209/209
f 215/215/215 214/214/214 213/213/213
f 216/216/216 215/215/215 213/213/213
f 219/219/219 218/218/218 217/217/217
f 220/220/220 219/219/219 217/217/217
f 223/223/223 222/222/222 221/221/221
f 224/224/224 223/223/223 221/221/221
f 227/227/227 226/226/226 225/225/225
f 228/228/228 227/227/227 225/225/225
f 231/231/231 230/230/230 229/229/229
f 232/232/232 231/231/231 229/229/229
f 235/235/235 234/234/234 233/233/233
f 236/236/236 235/235/235 233/233/233
f 239/239/239 238/238/238 237/237/237
f 240/240/240 239/239/239 237/237/237
f 243/243/243 242/242/242 241/241/241
f 244/244/244 243/243/243 241/241/241
f 247/247/247 246/246/246 245/245/245
f 248/248/248 247/247/247 245/245/245
f 251/251/251 250/250/250 249/249/249
f 252/252/252 251/251/251 249/249/249
f 255/255/255 254/254/254 253/253/253
f 256/256/256 255/255/255 253/253/253
f 259/259/259 258/258/258 257/257/257
f 260/260/260 259/259/259 257/257/257
f 263/263/263 262/262/262 261/261/261
f 264/264/264 263/263/263 261/261/261
f 267/267/267 266/266/266 265/265/265
f 268/268/268 267/267/267 265/265/265
f 271/271/271 270/270/270 269/269/269
f 272/272/272 271/271/271 269/269/269
f 273/273/273 272/272/272 269/269/269
f 273/273/273 274/274/274 272/272/272
f 274/274/274 275/275/275 272/272/272
f 278/278/278 277/277/277 276/276/276
f 279/279/279 278/278/278 276/276/276
f 282/282/282 281/281/281 280/280/280
f 283/283/283 282/282/282 280/280/280
f 286/286/286 285/285/285 284/284/284
f 287/287/287 286/286/286 284/284/284
f 290/290/290 289/289/289 288/288/288
f 291/291/291 290/290/290 288/288/288
f 294/294/294 293/293/293 292/292/292
f 295/295/295 294/294/294 292/292/292
f 295/295/295 292/292/292 296/296/296
f 292/292/292 297/297/297 296/296/296
f 297/297/297 298/298/298 296/296/296
f 301/301/301 300/300/300 299/299/299
f 302/302/302 301/301/301 299/299/299
f 305/305/305 304/304/304 303/303/303
f 306/306/306 305/305/305 303/303/303
f 309/309/309 308/308/308 307/307/307
f 310/310/310 309/309/309 307/307/307
f 313/313/313 312/312/312 311/311/311
f 314/314/314 313/313/313 311/311/311
f 317/317/317 316/316/316 315/315/315
f 318/318/318 317/317/317 315/315/315
f 321/321/321 320/320/320 319/319/319
f 322/322/322 321/321/321 319/319/319
f 325/325/325 324/324/324 323/323/323
f 326/326/326 325/325/325 323/323/323
f 329/329/329 328/328/328 327/327/327
f 330/330/330 329/329/329 327/327/327
f 333/333/333 332/332/332 331/331/331
f 334/334/334 333/333/333 331/331/331
f 337/337/337 336/336/336 335/335/335
f 338/338/338 337/337/337 335/335/335
f 340/340/340 339/339/339 338/338/338
f 341/341/341 340/340/340 338/338/338
f 344/344/344 343/343/343 342/342/342
f 345/345/345 344/344/344 342/342/342
f 348/348/348 347/347/347 346/346/346
f 349/349/349 348/348/348 346/346/346
f 352/352/352 351/351/351 350/350/350
f 353/353/353 352/352/352 350/350/350
f 356/356/356 355/355/355 354/354/354
f 357/357/357 356/356/356 354/354/354
f 360/360/360 359/359/359 358/358/358
f 361/361/361 360/360/360 358/358/358
f 364/364/364 363/363/363 362/362/362
f 362/362/362 365/365/365 364/364/364
f 368/368/368 367/367/367 366/366/366
f 369/369/369 368/368/368 366/366/366
f 372/372/372 371/371/371 370/370/370
f 373/373/373 372/372/372 370/370/370
f 376/376/376 375/375/375 374/374/374
f 377/377/377 376/376/376 374/374/374
f 380/380/380 379/379/379 378/378/378
f 381/381/381 380/380/380 378/378/378
f 384/384/384 383/383/383 382/382/382
f 385/385/385 384/384/384 382/382/382
f 388/388/388 387/387/387 386/386/386
f 389/389/389 388/388/388 386/386/386
f 392/392/392 391/391/391 390/390/390
f 393/393/393 392/392/392 390/390/390
f 396/396/396 395/395/395 394/394/394
f 397/397/397 396/396/396 394/394/394
f 400/400/400 399/399/399 398/398/398
f 401/401/401 400/400/400 398/398/398
f 404/404/404 403/403/403 402/402/402
f 405/405/405 404/404/404 402/402/402
f 408/408/408 407/407/407 406/406/406
f 409/409/409 408/408/408 406/406/406
f 412/412/412 411/411/411 410/410/410
f 413/413/413 412/412/412 410/410/410
f 416/416/416 415/415/415 414/414/414
f 414/414/414 417/417/417 416/416/416
f 420/420/420 419/419/419 418/418/418
f 421/421/421 420/420/420 418/418/418
f 424/424/424 423/423/423 422/422/422
f 425/425/425 424/424/424 422/422/422
f 428/428/428 427/427/427 426/426/426
f 429/429/429 428/428/428 426/426/426
f 432/432/432 431/431/431 430/430/430
f 431/431/431 433/433/433 430/430/430
f 430/430/430 433/433/433 434/434/434
f 433/433/433 435/435/435 434/434/434
f 438/438/438 437/437/437 436/436/436
f 437/437/437 439/439/439 436/436/436
f 436/436/436 439/439/439 440/440/440
f 439/439/439 441/441/441 440/440/440
f 444/444/444 443/443/443 442/442/442
f 443/443/443 445/445/445 442/442/442
f 442/442/442 445/445/445 446/446/446
f 445/445/445 447/447/447 446/446/446
f 450/450/450 449/449/449 448/448/448
f 449/449/449 451/451/451 448/448/448
f 448/448/448 451/451/451 452/452/452
f 451/451/451 453/453/453 452/452/452